<?xml version="1.0" encoding="utf-8"?>
<!-- Generator: Adobe Illustrator 19.1.0, SVG Export Plug-In . SVG Version: 6.00 Build 0)  -->
<svg version="1.1" xmlns="http://www.w3.org/2000/svg" xmlns:xlink="http://www.w3.org/1999/xlink" x="0px" y="0px"
	 viewBox="0 0 75.3 105.3" style="enable-background:new 0 0 75.3 105.3;" xml:space="preserve">
<style type="text/css">
	.st0{display:none;}
	.st1{fill:#FFFFFF;}
	.st2{fill:none;stroke:#010101;stroke-width:0.9967;}
	.st3{fill:#010101;}
	.st4{fill:none;stroke:#010101;stroke-width:1.0006;}
	.st5{fill:#E1CF20;}
	.st6{fill:#262964;}
	.st7{fill:#D31F26;}
	.st8{fill:#14130F;}
	.st9{fill:none;stroke:#010101;stroke-width:0.9929;}
	.st10{fill:#F6EB16;}
	.st11{fill:none;stroke:#010101;stroke-width:1.83;}
	.st12{clip-path:url(#SVGID_2_);}
	.st13{clip-path:url(#SVGID_4_);}
</style>
<g id="Layer_1" class="st0">
</g>
<g id="Layer_2">
	<g>
		<path class="st1" d="M4.1,0.6h67.5c2,0,3.6,1.6,3.6,3.6v97.3c0,2-1.6,3.6-3.6,3.6H4.1c-2,0-3.6-1.6-3.6-3.6V4.1
			C0.5,2.2,2.1,0.6,4.1,0.6z"/>
		<path class="st2" d="M4.1,0.6h67.5c2,0,3.6,1.6,3.6,3.6v97.3c0,2-1.6,3.6-3.6,3.6H4.1c-2,0-3.6-1.6-3.6-3.6V4.1
			C0.5,2.2,2.1,0.6,4.1,0.6z"/>
		<path class="st3" d="M55.2,11.6c-3.3,0.1-4.8,3.8-2.3,6.6c0.4,0.4,0.4,0.7-0.3,0.3c-1.6-1.1-4.8-0.4-4.9,3
			c-0.2,4.1,5.6,5.3,6.6,0.9c0.1-0.5,0.4-0.5,0.3,0.2c-0.1,1.8-0.7,3.4-1.4,5.1c1.3,0,2.7,0,3.9,0c-0.8-1.6-1.3-3.3-1.4-5.1
			C55.6,22,56,22,56.1,22.4c1.1,4.4,6.8,3.2,6.6-0.9c-0.2-3.3-3.3-4.1-4.9-3c-0.6,0.4-0.6,0.2-0.3-0.3
			C59.9,15.4,58.5,11.7,55.2,11.6L55.2,11.6L55.2,11.6z"/>
		<path class="st3" d="M20.6,11.6c-3.3,0.1-4.8,3.8-2.3,6.6c0.4,0.4,0.4,0.7-0.3,0.3c-1.6-1.1-4.8-0.4-4.9,3
			c-0.2,4.1,5.6,5.3,6.6,0.9c0.1-0.5,0.4-0.5,0.3,0.2c-0.1,1.8-0.7,3.4-1.4,5.1c1.3,0,2.7,0,3.9,0c-0.8-1.6-1.3-3.3-1.4-5.1
			C21,22,21.4,22,21.4,22.4c1.1,4.4,6.8,3.2,6.6-0.9c-0.2-3.3-3.3-4.1-4.9-3c-0.6,0.4-0.6,0.2-0.3-0.3
			C25.3,15.4,23.8,11.7,20.6,11.6L20.6,11.6L20.6,11.6z"/>
		<path class="st3" d="M55.2,94.2c-3.3-0.1-4.8-3.8-2.3-6.6c0.4-0.4,0.4-0.7-0.3-0.3c-1.6,1.1-4.8,0.4-4.9-3
			c-0.2-4.1,5.6-5.3,6.6-0.9c0.1,0.5,0.4,0.5,0.3-0.2c-0.1-1.8-0.7-3.4-1.4-5.1c1.3,0,2.7,0,3.9,0c-0.8,1.6-1.3,3.3-1.4,5.1
			c-0.1,0.7,0.3,0.7,0.3,0.2c1.1-4.4,6.8-3.2,6.6,0.9c-0.2,3.3-3.3,4.1-4.9,3c-0.6-0.4-0.6-0.2-0.3,0.3
			C59.9,90.4,58.5,94.1,55.2,94.2L55.2,94.2L55.2,94.2z"/>
		<path class="st3" d="M20.6,94.2c-3.3-0.1-4.8-3.8-2.3-6.6c0.4-0.4,0.4-0.7-0.3-0.3c-1.6,1.1-4.8,0.4-4.9-3
			c-0.2-4.1,5.6-5.3,6.6-0.9c0.1,0.5,0.4,0.5,0.3-0.2c-0.1-1.8-0.7-3.4-1.4-5.1c1.3,0,2.7,0,3.9,0c-0.8,1.6-1.3,3.3-1.4,5.1
			c-0.1,0.7,0.3,0.7,0.3,0.2c1.1-4.4,6.8-3.2,6.6,0.9c-0.2,3.3-3.3,4.1-4.9,3c-0.6-0.4-0.6-0.2-0.3,0.3
			C25.3,90.4,23.8,94.1,20.6,94.2L20.6,94.2L20.6,94.2z"/>
		<path class="st3" d="M37.9,22.7c-3.3,0.1-4.8,3.8-2.3,6.6c0.4,0.4,0.4,0.7-0.3,0.3c-1.6-1.1-4.8-0.4-4.9,3
			c-0.2,4.1,5.6,5.3,6.6,0.9c0.1-0.5,0.4-0.5,0.3,0.2c-0.1,1.8-0.7,3.4-1.4,5.1c1.3,0,2.7,0,3.9,0c-0.8-1.6-1.3-3.3-1.4-5.1
			c-0.1-0.7,0.3-0.7,0.3-0.2c1.1,4.4,6.8,3.2,6.6-0.9c-0.2-3.3-3.3-4.1-4.9-3c-0.6,0.4-0.6,0.2-0.3-0.3
			C42.6,26.5,41.2,22.8,37.9,22.7L37.9,22.7L37.9,22.7z"/>
		<path class="st3" d="M37.9,83.1c-3.3-0.1-4.8-3.8-2.3-6.6c0.4-0.4,0.4-0.7-0.3-0.3c-1.6,1.1-4.8,0.4-4.9-3
			c-0.2-4.1,5.6-5.3,6.6-0.9c0.1,0.5,0.4,0.5,0.3-0.2c-0.1-1.8-0.7-3.4-1.4-5.1c1.3,0,2.7,0,3.9,0c-0.8,1.6-1.3,3.3-1.4,5.1
			c-0.1,0.7,0.3,0.7,0.3,0.2c1.1-4.4,6.8-3.2,6.6,0.9c-0.2,3.3-3.3,4.1-4.9,3c-0.6-0.4-0.6-0.2-0.3,0.3C42.6,79.3,41.2,83,37.9,83.1
			L37.9,83.1L37.9,83.1z"/>
		<path class="st3" d="M69.4,88.3c1.3,0,1.9-1.6,0.9-2.8c-0.1-0.2-0.2-0.3,0.1-0.1c0.7,0.5,1.9,0.2,2-1.2c0.1-1.7-2.2-2.2-2.7-0.4
			c0,0.2-0.2,0.2-0.1-0.1c0-0.7,0.3-1.4,0.6-2.1c-0.5,0-1,0-1.6,0c0.3,0.7,0.5,1.4,0.6,2.1c0,0.3-0.1,0.3-0.1,0.1
			c-0.4-1.8-2.7-1.3-2.7,0.4c0.1,1.4,1.3,1.7,2,1.2c0.3-0.2,0.2-0.1,0.1,0.1C67.5,86.7,68.1,88.2,69.4,88.3L69.4,88.3z"/>
		<path class="st3" d="M20.6,33.8c-3.3,0.1-4.8,3.8-2.3,6.6c0.4,0.4,0.4,0.7-0.3,0.3c-1.6-1.1-4.8-0.4-4.9,3
			c-0.2,4.1,5.6,5.3,6.6,0.9c0.1-0.5,0.4-0.5,0.3,0.2c-0.1,1.8-0.7,3.4-1.4,5.1c1.3,0,2.7,0,3.9,0c-0.8-1.6-1.3-3.3-1.4-5.1
			c-0.1-0.7,0.3-0.7,0.3-0.2c1.1,4.4,6.8,3.2,6.6-0.9c-0.2-3.3-3.3-4.1-4.9-3c-0.6,0.4-0.6,0.2-0.3-0.3
			C25.3,37.6,23.8,33.9,20.6,33.8L20.6,33.8L20.6,33.8z"/>
		<path class="st3" d="M20.6,72c-3.3-0.1-4.8-3.8-2.3-6.6c0.4-0.4,0.4-0.7-0.3-0.3c-1.6,1.1-4.8,0.4-4.9-3c-0.2-4.1,5.6-5.3,6.6-0.9
			c0.1,0.5,0.4,0.5,0.3-0.2c-0.1-1.8-0.7-3.4-1.4-5.1c1.3,0,2.7,0,3.9,0c-0.8,1.6-1.3,3.3-1.4,5.1c-0.1,0.7,0.3,0.7,0.3,0.2
			c1.1-4.4,6.8-3.2,6.6,0.9c-0.2,3.3-3.3,4.1-4.9,3c-0.6-0.4-0.6-0.2-0.3,0.3C25.3,68.3,23.8,72,20.6,72L20.6,72L20.6,72z"/>
		<path class="st3" d="M55.2,33.8c-3.3,0.1-4.8,3.8-2.3,6.6c0.4,0.4,0.4,0.7-0.3,0.3c-1.6-1.1-4.8-0.4-4.9,3
			c-0.2,4.1,5.6,5.3,6.6,0.9c0.1-0.5,0.4-0.5,0.3,0.2c-0.1,1.8-0.7,3.4-1.4,5.1c1.3,0,2.7,0,3.9,0c-0.8-1.6-1.3-3.3-1.4-5.1
			c-0.1-0.7,0.3-0.7,0.3-0.2c1.1,4.4,6.8,3.2,6.6-0.9c-0.2-3.3-3.3-4.1-4.9-3c-0.6,0.4-0.6,0.2-0.3-0.3
			C59.9,37.6,58.5,33.9,55.2,33.8L55.2,33.8L55.2,33.8z"/>
		<path class="st3" d="M55.2,72c-3.3-0.1-4.8-3.8-2.3-6.6c0.4-0.4,0.4-0.7-0.3-0.3c-1.6,1.1-4.8,0.4-4.9-3c-0.2-4.1,5.6-5.3,6.6-0.9
			c0.1,0.5,0.4,0.5,0.3-0.2c-0.1-1.8-0.7-3.4-1.4-5.1c1.3,0,2.7,0,3.9,0c-0.8,1.6-1.3,3.3-1.4,5.1c-0.1,0.7,0.3,0.7,0.3,0.2
			c1.1-4.4,6.8-3.2,6.6,0.9c-0.2,3.3-3.3,4.1-4.9,3c-0.6-0.4-0.6-0.2-0.3,0.3C59.9,68.3,58.5,72,55.2,72L55.2,72L55.2,72z"/>
		<path class="st3" d="M6.3,17.3c-1.3,0-1.9,1.6-0.9,2.8c0.1,0.2,0.2,0.3-0.1,0.1c-0.7-0.5-1.9-0.2-2,1.2c-0.1,1.7,2.2,2.2,2.7,0.4
			c0-0.2,0.2-0.2,0.1,0.1c0,0.7-0.3,1.4-0.6,2.1c0.5,0,1,0,1.6,0c-0.3-0.7-0.5-1.4-0.6-2.1c0-0.3,0.1-0.3,0.1-0.1
			c0.4,1.8,2.7,1.3,2.7-0.4c-0.1-1.4-1.3-1.7-2-1.2c-0.3,0.2-0.2,0.1-0.1-0.1C8.2,18.9,7.6,17.3,6.3,17.3L6.3,17.3z"/>
		<rect x="2.9" y="5.2" class="st3" width="1.1" height="11.1"/>
		<path class="st3" d="M7.2,5.2c-1,0-1.9,0.9-1.9,2.1v6.8c0,1.2,0.8,2.1,1.9,2.1h0.6c1,0,1.9-0.9,1.9-2.1V7.3c0-1.2-0.8-2.1-1.9-2.1
			H7.2z M7.5,6.2c0.6,0,1.1,0.5,1.1,1.1v6.9c0,0.6-0.5,1.1-1.1,1.1s-1.1-0.5-1.1-1.1V7.3C6.4,6.7,6.9,6.2,7.5,6.2z"/>
		<rect x="71.7" y="89.3" class="st3" width="1.1" height="11.1"/>
		<path class="st3" d="M68.6,100.4c1,0,1.9-0.9,1.9-2.1v-6.8c0-1.2-0.8-2.1-1.9-2.1H68c-1,0-1.9,0.9-1.9,2.1v6.8
			c0,1.2,0.8,2.1,1.9,2.1H68.6z M68.2,99.3c-0.6,0-1.1-0.5-1.1-1.1v-6.9c0-0.6,0.5-1.1,1.1-1.1s1.1,0.5,1.1,1.1v6.9
			C69.3,98.8,68.9,99.3,68.2,99.3z"/>
	</g>
</g>
</svg>
