<?xml version="1.0" encoding="utf-8"?>
<!-- Generator: Adobe Illustrator 19.1.0, SVG Export Plug-In . SVG Version: 6.00 Build 0)  -->
<svg version="1.1" xmlns="http://www.w3.org/2000/svg" xmlns:xlink="http://www.w3.org/1999/xlink" x="0px" y="0px"
	 viewBox="0 0 75.3 105.3" style="enable-background:new 0 0 75.3 105.3;" xml:space="preserve">
<style type="text/css">
	.st0{display:none;}
	.st1{fill:#FFFFFF;}
	.st2{fill:none;stroke:#010101;stroke-width:0.9967;}
	.st3{fill:#010101;}
	.st4{fill:none;stroke:#010101;stroke-width:1.0006;}
	.st5{fill:#E1CF20;}
	.st6{fill:#262964;}
	.st7{fill:#D31F26;}
	.st8{fill:#14130F;}
	.st9{fill:none;stroke:#010101;stroke-width:0.9929;}
	.st10{fill:#F6EB16;}
	.st11{fill:none;stroke:#010101;stroke-width:1.83;}
	.st12{clip-path:url(#SVGID_2_);}
	.st13{clip-path:url(#SVGID_4_);}
</style>
<g id="Layer_1" class="st0">
</g>
<g id="Layer_2">
	<g>
		<path class="st1" d="M4.1,0.5h67.5c2,0,3.6,1.6,3.6,3.6v97.3c0,2-1.6,3.6-3.6,3.6H4.1c-2,0-3.6-1.6-3.6-3.6V4.1
			C0.6,2.1,2.2,0.5,4.1,0.5z"/>
		<path class="st4" d="M4.1,0.5h67.5c2,0,3.6,1.6,3.6,3.6v97.3c0,2-1.6,3.6-3.6,3.6H4.1c-2,0-3.6-1.6-3.6-3.6V4.1
			C0.6,2.1,2.2,0.5,4.1,0.5z"/>
		<path class="st7" d="M6.3,24c-0.7-1.2-1.5-2.4-2.4-3.3c1-1,1.7-2.2,2.4-3.3c0.7,1.2,1.5,2.4,2.4,3.3C7.8,21.6,7,22.8,6.3,24z"/>
		<path class="st7" d="M55.2,27.5c-1.7-2.9-3.6-5.7-5.8-8c2.3-2.4,4.1-5.2,5.8-8c1.7,2.9,3.6,5.7,5.8,8C58.8,21.9,57,24.7,55.2,27.5
			z"/>
		<path class="st7" d="M69.5,88.2C68.8,87,68,85.9,67,84.9c1-1,1.7-2.2,2.4-3.3c0.7,1.2,1.5,2.4,2.4,3.3C71,85.9,70.2,87,69.5,88.2z
			"/>
		<path class="st7" d="M20.6,27.5c-1.7-2.9-3.6-5.7-5.8-8c2.3-2.4,4.1-5.2,5.8-8c1.7,2.9,3.6,5.7,5.8,8
			C24.1,21.9,22.3,24.7,20.6,27.5z"/>
		<path class="st7" d="M55.2,49.7c-1.7-2.9-3.6-5.7-5.8-8c2.3-2.4,4.1-5.2,5.8-8c1.7,2.9,3.6,5.7,5.8,8C58.8,44,57,46.8,55.2,49.7z"
			/>
		<path class="st7" d="M20.6,49.7c-1.7-2.9-3.6-5.7-5.8-8c2.3-2.4,4.1-5.2,5.8-8c1.7,2.9,3.6,5.7,5.8,8C24.1,44,22.3,46.8,20.6,49.7
			z"/>
		<path class="st7" d="M37.9,38.6c-1.7-2.9-3.6-5.7-5.8-8c2.3-2.4,4.1-5.2,5.8-8c1.7,2.9,3.6,5.7,5.8,8C41.5,33,39.6,35.7,37.9,38.6
			z"/>
		<path class="st7" d="M20.6,94c-1.7-2.9-3.6-5.7-5.8-8c2.3-2.4,4.1-5.2,5.8-8c1.7,2.9,3.6,5.7,5.8,8C24.1,88.3,22.3,91.1,20.6,94z"
			/>
		<path class="st7" d="M55.2,94c-1.7-2.9-3.6-5.7-5.8-8c2.3-2.4,4.1-5.2,5.8-8c1.7,2.9,3.6,5.7,5.8,8C58.8,88.3,57,91.1,55.2,94z"/>
		<path class="st7" d="M55.2,71.8c-1.7-2.9-3.6-5.7-5.8-8c2.3-2.4,4.1-5.2,5.8-8c1.7,2.9,3.6,5.7,5.8,8C58.8,66.2,57,69,55.2,71.8z"
			/>
		<path class="st7" d="M20.6,71.8c-1.7-2.9-3.6-5.7-5.8-8c2.3-2.4,4.1-5.2,5.8-8c1.7,2.9,3.6,5.7,5.8,8C24.1,66.2,22.3,69,20.6,71.8
			z"/>
		<path class="st7" d="M37.9,82.9c-1.7-2.9-3.6-5.7-5.8-8c2.3-2.4,4.1-5.2,5.8-8c1.7,2.9,3.6,5.7,5.8,8
			C41.5,77.3,39.6,80.1,37.9,82.9z"/>
		<rect x="3" y="5.2" class="st7" width="1.1" height="11.1"/>
		<path class="st7" d="M7.2,5.1c-1,0-1.9,0.9-1.9,2.1v6.8c0,1.2,0.8,2.1,1.9,2.1h0.6c1,0,1.9-0.9,1.9-2.1V7.3c0-1.2-0.8-2.1-1.9-2.1
			H7.2z M7.5,6.2c0.6,0,1.1,0.5,1.1,1.1v6.9c0,0.6-0.5,1.1-1.1,1.1c-0.6,0-1.1-0.5-1.1-1.1V7.2C6.4,6.7,6.9,6.2,7.5,6.2z"/>
		<rect x="71.8" y="89.3" class="st7" width="1.1" height="11.1"/>
		<path class="st7" d="M68.6,100.3c1,0,1.9-0.9,1.9-2.1v-6.8c0-1.2-0.8-2.1-1.9-2.1H68c-1,0-1.9,0.9-1.9,2.1v6.8
			c0,1.2,0.8,2.1,1.9,2.1H68.6z M68.3,99.3c-0.6,0-1.1-0.5-1.1-1.1v-6.9c0-0.6,0.5-1.1,1.1-1.1s1.1,0.5,1.1,1.1v6.9
			C69.4,98.8,68.9,99.3,68.3,99.3z"/>
	</g>
</g>
</svg>
