<?xml version="1.0" encoding="utf-8"?>
<!-- Generator: Adobe Illustrator 19.1.0, SVG Export Plug-In . SVG Version: 6.00 Build 0)  -->
<svg version="1.1" xmlns="http://www.w3.org/2000/svg" xmlns:xlink="http://www.w3.org/1999/xlink" x="0px" y="0px"
	 viewBox="0 0 75.3 105.3" style="enable-background:new 0 0 75.3 105.3;" xml:space="preserve">
<style type="text/css">
	.st0{display:none;}
	.st1{fill:#FFFFFF;}
	.st2{fill:none;stroke:#010101;stroke-width:0.9967;}
	.st3{fill:#010101;}
	.st4{fill:none;stroke:#010101;stroke-width:1.0006;}
	.st5{fill:#E1CF20;}
	.st6{fill:#262964;}
	.st7{fill:#D31F26;}
	.st8{fill:#14130F;}
	.st9{fill:none;stroke:#010101;stroke-width:0.9929;}
	.st10{fill:#F6EB16;}
	.st11{fill:none;stroke:#010101;stroke-width:1.83;}
	.st12{clip-path:url(#SVGID_2_);}
	.st13{clip-path:url(#SVGID_4_);}
</style>
<g id="Layer_1" class="st0">
</g>
<g id="Layer_2">
	<g>
		<path class="st1" d="M4,0.5h67.5c2,0,3.6,1.6,3.6,3.6v97.3c0,2-1.6,3.6-3.6,3.6H4c-2,0-3.6-1.6-3.6-3.6V4C0.4,2.1,2,0.5,4,0.5z"/>
		<path class="st4" d="M4,0.5h67.5c2,0,3.6,1.6,3.6,3.6v97.3c0,2-1.6,3.6-3.6,3.6H4c-2,0-3.6-1.6-3.6-3.6V4C0.4,2.1,2,0.5,4,0.5z"/>
		<path class="st3" d="M37.8,11.6c-3.3,0.1-4.8,3.8-2.3,6.6c0.4,0.4,0.4,0.7-0.3,0.3c-1.6-1.1-4.8-0.4-4.9,3
			c-0.2,4.1,5.6,5.3,6.6,0.9c0.1-0.5,0.4-0.5,0.3,0.2c-0.1,1.8-0.7,3.4-1.4,5.1c1.3,0,2.7,0,3.9,0c-0.8-1.6-1.3-3.3-1.4-5.1
			c-0.1-0.7,0.3-0.7,0.3-0.2c1.1,4.4,6.8,3.2,6.6-0.9c-0.2-3.3-3.3-4.1-4.9-3c-0.6,0.4-0.6,0.2-0.3-0.3
			C42.5,15.3,41.1,11.6,37.8,11.6L37.8,11.6L37.8,11.6z"/>
		<path class="st3" d="M37.8,94.1c-3.3-0.1-4.8-3.8-2.3-6.6c0.4-0.4,0.4-0.7-0.3-0.3c-1.6,1.1-4.8,0.4-4.9-3
			c-0.2-4.1,5.6-5.3,6.6-0.9c0.1,0.5,0.4,0.5,0.3-0.2c-0.1-1.8-0.7-3.4-1.4-5.1c1.3,0,2.7,0,3.9,0c-0.8,1.6-1.3,3.3-1.4,5.1
			c-0.1,0.7,0.3,0.7,0.3,0.2c1.1-4.4,6.8-3.2,6.6,0.9c-0.2,3.3-3.3,4.1-4.9,3c-0.6-0.4-0.6-0.2-0.3,0.3C42.5,90.3,41.1,94,37.8,94.1
			L37.8,94.1L37.8,94.1z"/>
		<path class="st3" d="M69.4,88.2c1.3,0,1.9-1.6,0.9-2.8c-0.1-0.2-0.2-0.3,0.1-0.1c0.7,0.5,1.9,0.2,2-1.2c0.1-1.7-2.2-2.2-2.7-0.4
			c0,0.2-0.2,0.2-0.1-0.1c0-0.7,0.3-1.4,0.6-2.1c-0.5,0-1,0-1.6,0c0.3,0.7,0.5,1.4,0.6,2.1c0,0.3-0.1,0.3-0.1,0.1
			c-0.4-1.8-2.7-1.3-2.7,0.4c0.1,1.4,1.3,1.7,2,1.2c0.3-0.2,0.2-0.1,0.1,0.1C67.5,86.6,68,88.1,69.4,88.2L69.4,88.2z"/>
		<path class="st3" d="M6.2,17.2c-1.3,0-1.9,1.6-0.9,2.8c0.1,0.2,0.2,0.3-0.1,0.1c-0.7-0.5-1.9-0.2-2,1.2c-0.1,1.7,2.2,2.2,2.7,0.4
			c0-0.2,0.2-0.2,0.1,0.1c0,0.7-0.3,1.4-0.6,2.1c0.5,0,1,0,1.6,0c-0.3-0.7-0.5-1.4-0.6-2.1c0-0.3,0.1-0.3,0.1-0.1
			C7,23.5,9.3,23,9.2,21.3c-0.1-1.4-1.3-1.7-2-1.2C7,20.3,7,20.2,7.1,20C8.1,18.8,7.5,17.2,6.2,17.2L6.2,17.2z"/>
		<path class="st3" d="M2.9,16.1l0.1-0.7c0.2-2.1,0.6-2.8,3.2-5c1.2-1.1,1.7-1.6,1.7-2.2C8,6.8,6.7,6.4,5.9,6.3
			C4.8,6.3,3.6,7,4.2,8.5L3,8.9C2.8,7.5,3,6.1,4.1,5.5c1.5-0.8,3.4-0.5,4.4,0.7C9.2,7.1,9.3,8.2,9,9.1c-1,2.3-4.5,3.2-4.8,5.8H8
			v-1.4h1.1v2.7L2.9,16.1L2.9,16.1z"/>
		<path class="st3" d="M72.5,89.2l-0.1,0.7c-0.2,2.1-0.6,2.8-3.2,5c-1.2,1.1-1.7,1.6-1.7,2.2c-0.2,1.4,1.1,1.9,1.9,1.9
			c1.1,0,2.3-0.6,1.7-2.2l1.2-0.4c0.2,1.4,0,2.7-1.1,3.3c-1.5,0.8-3.4,0.5-4.4-0.7c-0.7-0.8-0.8-1.9-0.5-2.8c1-2.3,4.5-3.2,4.8-5.8
			h-3.8v1.4h-1.1v-2.7L72.5,89.2L72.5,89.2z"/>
	</g>
</g>
</svg>
