<?xml version="1.0" encoding="utf-8"?>
<!-- Generator: Adobe Illustrator 19.1.0, SVG Export Plug-In . SVG Version: 6.00 Build 0)  -->
<svg version="1.1" xmlns="http://www.w3.org/2000/svg" xmlns:xlink="http://www.w3.org/1999/xlink" x="0px" y="0px"
	 viewBox="0 0 75.3 105.3" style="enable-background:new 0 0 75.3 105.3;" xml:space="preserve">
<style type="text/css">
	.st0{display:none;}
	.st1{fill:#FFFFFF;}
	.st2{fill:none;stroke:#010101;stroke-width:0.9967;}
	.st3{fill:#010101;}
	.st4{fill:none;stroke:#010101;stroke-width:1.0006;}
	.st5{fill:#E1CF20;}
	.st6{fill:#262964;}
	.st7{fill:#D31F26;}
	.st8{fill:#14130F;}
	.st9{fill:none;stroke:#010101;stroke-width:0.9929;}
	.st10{fill:#F6EB16;}
	.st11{fill:none;stroke:#010101;stroke-width:1.83;}
	.st12{clip-path:url(#SVGID_2_);}
	.st13{clip-path:url(#SVGID_4_);}
</style>
<g id="Layer_1" class="st0">
</g>
<g id="Layer_2">
	<g>
		<path class="st1" d="M4.3,0.5h67.5c2,0,3.6,1.6,3.6,3.6v97.3c0,2-1.6,3.6-3.6,3.6H4.3c-2,0-3.6-1.6-3.6-3.6V4.1
			C0.7,2.1,2.3,0.5,4.3,0.5z"/>
		<path class="st4" d="M4.3,0.5h67.5c2,0,3.6,1.6,3.6,3.6v97.3c0,2-1.6,3.6-3.6,3.6H4.3c-2,0-3.6-1.6-3.6-3.6V4.1
			C0.7,2.1,2.3,0.5,4.3,0.5z"/>
		<path class="st7" d="M38,27.5c-1.7-2.9-3.6-5.7-5.8-8c2.3-2.4,4.1-5.2,5.8-8c1.7,2.9,3.6,5.7,5.8,8C41.6,21.9,39.7,24.7,38,27.5z"
			/>
		<path class="st7" d="M6.4,24C5.7,22.8,5,21.6,4,20.6c1-1,1.7-2.2,2.4-3.3c0.7,1.2,1.5,2.4,2.4,3.3C7.9,21.6,7.2,22.8,6.4,24z"/>
		<path class="st7" d="M69.6,88.2c-0.7-1.2-1.5-2.4-2.4-3.3c1-1,1.7-2.2,2.4-3.3c0.7,1.2,1.5,2.4,2.4,3.3
			C71.1,85.9,70.3,87,69.6,88.2z"/>
		<path class="st7" d="M38,94c-1.7-2.9-3.6-5.7-5.8-8c2.3-2.4,4.1-5.2,5.8-8c1.7,2.9,3.6,5.7,5.8,8C41.6,88.3,39.7,91.1,38,94z"/>
		<path class="st7" d="M3.3,16.2l0.1-0.7c0.2-2.1,0.6-2.8,3.2-5c1.2-1.1,1.7-1.6,1.7-2.2c0.2-1.4-1.1-1.9-1.9-1.9
			C5.2,6.4,4,7,4.6,8.5L3.4,8.9c-0.2-1.4,0-2.7,1.1-3.3C6,4.8,8,5.1,8.9,6.3c0.7,0.8,0.8,1.9,0.5,2.8c-1,2.3-4.5,3.2-4.8,5.8h3.8
			v-1.4h1.1v2.7L3.3,16.2L3.3,16.2z"/>
		<path class="st7" d="M72.7,89.3L72.7,90c-0.2,2.1-0.6,2.8-3.2,5c-1.2,1.1-1.7,1.6-1.7,2.2c-0.2,1.4,1.1,1.9,1.9,1.9
			c1.1,0,2.3-0.6,1.7-2.2l1.2-0.4c0.2,1.4,0,2.7-1.1,3.3c-1.5,0.8-3.4,0.5-4.4-0.7c-0.7-0.8-0.8-1.9-0.5-2.8c1-2.3,4.5-3.2,4.8-5.8
			h-3.8v1.4h-1.1v-2.7L72.7,89.3L72.7,89.3z"/>
	</g>
</g>
</svg>
