<?xml version="1.0" encoding="utf-8"?>
<!-- Generator: Adobe Illustrator 19.1.0, SVG Export Plug-In . SVG Version: 6.00 Build 0)  -->
<svg version="1.1" xmlns="http://www.w3.org/2000/svg" xmlns:xlink="http://www.w3.org/1999/xlink" x="0px" y="0px"
	 viewBox="0 0 75.3 105.3" style="enable-background:new 0 0 75.3 105.3;" xml:space="preserve">
<style type="text/css">
	.st0{display:none;}
	.st1{fill:#FFFFFF;}
	.st2{fill:none;stroke:#010101;stroke-width:0.9967;}
	.st3{fill:#010101;}
	.st4{fill:none;stroke:#010101;stroke-width:1.0006;}
	.st5{fill:#E1CF20;}
	.st6{fill:#262964;}
	.st7{fill:#D31F26;}
	.st8{fill:#14130F;}
	.st9{fill:none;stroke:#010101;stroke-width:0.9929;}
	.st10{fill:#F6EB16;}
	.st11{fill:none;stroke:#010101;stroke-width:1.83;}
	.st12{clip-path:url(#SVGID_2_);}
	.st13{clip-path:url(#SVGID_4_);}
</style>
<g id="Layer_1" class="st0">
</g>
<g id="Layer_2">
	<g>
		<path class="st1" d="M4.2,0.4h67.5c2,0,3.6,1.6,3.6,3.6v97.3c0,2-1.6,3.6-3.6,3.6H4.2c-2,0-3.6-1.6-3.6-3.6V4
			C0.6,2,2.2,0.4,4.2,0.4z"/>
		<path class="st4" d="M4.2,0.4h67.5c2,0,3.6,1.6,3.6,3.6v97.3c0,2-1.6,3.6-3.6,3.6H4.2c-2,0-3.6-1.6-3.6-3.6V4
			C0.6,2,2.2,0.4,4.2,0.4z"/>
		<path class="st7" d="M6.4,23.9c0,0-0.7-1.1-1.7-2.3C4,20.7,3.4,19.8,3.4,19c-0.1-0.9,0.5-1.8,1.5-1.8c1,0,1.4,0.7,1.5,1.3
			c0.2-0.6,0.6-1.3,1.5-1.3c1,0,1.5,0.9,1.5,1.8c0,0.8-0.6,1.7-1.3,2.5C7.1,22.8,6.4,23.9,6.4,23.9z"/>
		<path class="st7" d="M69.5,81.4c0,0-0.7,1.1-1.7,2.3c-0.7,0.8-1.2,1.8-1.3,2.5c-0.1,0.9,0.5,1.8,1.5,1.8c1,0,1.4-0.7,1.5-1.3
			c0.2,0.6,0.6,1.3,1.5,1.3c1,0,1.5-0.9,1.5-1.8c0-0.8-0.6-1.7-1.3-2.5C70.3,82.5,69.5,81.4,69.5,81.4z"/>
		<path class="st7" d="M37.9,27.5c0,0-1.6-2.6-3.7-5.6c-1.4-2-2.5-4.2-2.6-6.1c-0.1-2.1,1-4.3,3.1-4.4c2.1-0.1,2.9,1.7,3.2,3.1
			c0.3-1.5,1.2-3.2,3.2-3.1c2.1,0.1,3.2,2.3,3.1,4.4c-0.1,1.9-1.2,4.1-2.6,6.1C39.5,24.9,37.9,27.5,37.9,27.5z"/>
		<path class="st7" d="M37.9,77.8c0,0-1.6,2.6-3.7,5.6c-1.4,2-2.5,4.2-2.6,6.1c-0.1,2.1,1,4.3,3.1,4.4c2.1,0.1,2.9-1.7,3.2-3.1
			c0.3,1.5,1.2,3.2,3.2,3.1c2.1-0.1,3.2-2.3,3.1-4.4c-0.1-1.9-1.2-4.1-2.6-6.1C39.5,80.4,37.9,77.8,37.9,77.8z"/>
		<path class="st7" d="M3.2,16.1l0.1-0.7c0.2-2.1,0.6-2.8,3.2-5c1.2-1.1,1.7-1.6,1.7-2.2c0.2-1.4-1.1-1.9-1.9-1.9
			C5.2,6.3,4,6.9,4.5,8.5L3.3,8.8c-0.2-1.4,0-2.7,1.1-3.3C6,4.7,7.9,5,8.9,6.2C9.5,7,9.7,8.2,9.3,9.1c-1,2.3-4.5,3.2-4.8,5.8h3.8
			v-1.4h1.1v2.7L3.2,16.1L3.2,16.1z"/>
		<path class="st7" d="M72.7,89.2l-0.1,0.7c-0.2,2.1-0.6,2.8-3.2,5c-1.2,1.1-1.7,1.6-1.7,2.2c-0.2,1.4,1.1,1.9,1.9,1.9
			c1.1,0,2.3-0.6,1.7-2.2l1.2-0.4c0.2,1.4,0,2.7-1.1,3.3c-1.5,0.8-3.4,0.5-4.4-0.7c-0.7-0.8-0.8-1.9-0.5-2.8c1-2.3,4.5-3.2,4.8-5.8
			h-3.8v1.4h-1.1v-2.7L72.7,89.2L72.7,89.2z"/>
	</g>
</g>
</svg>
