<?xml version="1.0" encoding="utf-8"?>
<!-- Generator: Adobe Illustrator 19.1.0, SVG Export Plug-In . SVG Version: 6.00 Build 0)  -->
<svg version="1.1" xmlns="http://www.w3.org/2000/svg" xmlns:xlink="http://www.w3.org/1999/xlink" x="0px" y="0px"
	 viewBox="0 0 75.3 105.3" style="enable-background:new 0 0 75.3 105.3;" xml:space="preserve">
<style type="text/css">
	.st0{display:none;}
	.st1{fill:#FFFFFF;}
	.st2{fill:none;stroke:#010101;stroke-width:0.9967;}
	.st3{fill:#010101;}
	.st4{fill:none;stroke:#010101;stroke-width:1.0006;}
	.st5{fill:#E1CF20;}
	.st6{fill:#262964;}
	.st7{fill:#D31F26;}
	.st8{fill:#14130F;}
	.st9{fill:none;stroke:#010101;stroke-width:0.9929;}
	.st10{fill:#F6EB16;}
	.st11{fill:none;stroke:#010101;stroke-width:1.83;}
	.st12{clip-path:url(#SVGID_2_);}
	.st13{clip-path:url(#SVGID_4_);}
</style>
<g id="Layer_1" class="st0">
</g>
<g id="Layer_2">
	<g>
		<path class="st1" d="M3.6,0.4h67.5c2,0,3.6,1.6,3.6,3.6v97.3c0,2-1.6,3.6-3.6,3.6H3.6c-2,0-3.6-1.6-3.6-3.6V4
			C0.1,2,1.7,0.4,3.6,0.4z"/>
		<path class="st4" d="M3.6,0.4h67.5c2,0,3.6,1.6,3.6,3.6v97.3c0,2-1.6,3.6-3.6,3.6H3.6c-2,0-3.6-1.6-3.6-3.6V4
			C0.1,2,1.7,0.4,3.6,0.4z"/>
		<path class="st7" d="M5.8,23.9c0,0-0.7-1.1-1.7-2.3c-0.7-0.8-1.2-1.8-1.3-2.5c-0.1-0.9,0.5-1.8,1.5-1.8c1,0,1.4,0.7,1.5,1.3
			c0.2-0.6,0.6-1.3,1.5-1.3c1,0,1.5,0.9,1.5,1.8c0,0.8-0.6,1.7-1.3,2.5C6.6,22.8,5.8,23.9,5.8,23.9z"/>
		<path class="st7" d="M69,81.4c0,0-0.7,1.1-1.7,2.3c-0.7,0.8-1.2,1.8-1.3,2.5c-0.1,0.9,0.5,1.8,1.5,1.8c1,0,1.4-0.7,1.5-1.3
			c0.2,0.6,0.6,1.3,1.5,1.3c1,0,1.5-0.9,1.5-1.8c0-0.8-0.6-1.7-1.3-2.5C69.7,82.5,69,81.4,69,81.4z"/>
		<path class="st7" d="M37.4,27.5c0,0-1.6-2.6-3.7-5.6c-1.4-2-2.5-4.2-2.6-6.1c-0.1-2.1,1-4.3,3.1-4.4c2.1-0.1,2.9,1.7,3.2,3.1
			c0.3-1.5,1.2-3.2,3.2-3.1c2.1,0.1,3.2,2.3,3.1,4.4c-0.1,1.9-1.2,4.1-2.6,6.1C39,24.9,37.4,27.5,37.4,27.5z"/>
		<path class="st7" d="M37.4,60.7c0,0-1.6-2.6-3.7-5.6c-1.4-2-2.5-4.2-2.6-6.1c-0.1-2.1,1-4.3,3.1-4.4c2.1-0.1,2.9,1.7,3.2,3.1
			c0.3-1.5,1.2-3.2,3.2-3.1c2.1,0.1,3.2,2.3,3.1,4.4c-0.1,1.9-1.2,4.1-2.6,6.1C39,58.1,37.4,60.7,37.4,60.7z"/>
		<path class="st7" d="M37.4,77.8c0,0-1.6,2.6-3.7,5.6c-1.4,2-2.5,4.2-2.6,6.1c-0.1,2.1,1,4.3,3.1,4.4c2.1,0.1,2.9-1.7,3.2-3.1
			c0.3,1.5,1.2,3.2,3.2,3.1c2.1-0.1,3.2-2.3,3.1-4.4c-0.1-1.9-1.2-4.1-2.6-6.1C39,80.4,37.4,77.8,37.4,77.8z"/>
		<path class="st7" d="M2.2,13.7l0.8-0.6c0.7,1.2,1.6,2,2.8,1.9c1.9-0.1,2.7-2.1,2.3-3.6C7.8,10,6.2,9.3,5,10
			c-0.3,0.2-0.6,0.3-0.6,0.3c-0.1,0-0.4-0.6-0.4-0.8c0.8-1.2,2.9-3.4,2.9-3.4H3.7v1.4H2.4V5.1h6.2v0.9c0,0-1.7,1.7-2.2,2.7
			c1.4,0,2.4,0.9,2.8,2.3c0.2,0.7,0.1,2.3-0.2,3.1c-0.5,1.2-1.9,2.1-3.1,2.2C3.9,16.3,2.8,14.8,2.2,13.7L2.2,13.7z"/>
		<path class="st7" d="M72.5,91.6l-0.8,0.6c-0.7-1.2-1.6-2-2.8-1.9c-1.9,0.1-2.7,2.1-2.3,3.6c0.4,1.3,2,2,3.2,1.3
			c0.3-0.2,0.6-0.3,0.6-0.3c0.1,0,0.4,0.6,0.4,0.8c-0.8,1.2-2.9,3.4-2.9,3.4h3.2v-1.4h1.2v2.6h-6.2v-0.9c0,0,1.7-1.7,2.2-2.7
			c-1.4,0-2.4-0.9-2.8-2.3c-0.2-0.7-0.1-2.3,0.2-3.1c0.5-1.2,1.9-2.1,3.1-2.2C70.9,89,72,90.5,72.5,91.6L72.5,91.6z"/>
	</g>
</g>
</svg>
