<?xml version="1.0" encoding="utf-8"?>
<!-- Generator: Adobe Illustrator 19.1.0, SVG Export Plug-In . SVG Version: 6.00 Build 0)  -->
<svg version="1.1" xmlns="http://www.w3.org/2000/svg" xmlns:xlink="http://www.w3.org/1999/xlink" x="0px" y="0px"
	 viewBox="0 0 75.3 105.3" style="enable-background:new 0 0 75.3 105.3;" xml:space="preserve">
<style type="text/css">
	.st0{display:none;}
	.st1{fill:#FFFFFF;}
	.st2{fill:none;stroke:#010101;stroke-width:0.9967;}
	.st3{fill:#010101;}
	.st4{fill:none;stroke:#010101;stroke-width:1.0006;}
	.st5{fill:#E1CF20;}
	.st6{fill:#262964;}
	.st7{fill:#D31F26;}
	.st8{fill:#14130F;}
	.st9{fill:none;stroke:#010101;stroke-width:0.9929;}
	.st10{fill:#F6EB16;}
	.st11{fill:none;stroke:#010101;stroke-width:1.83;}
	.st12{clip-path:url(#SVGID_2_);}
	.st13{clip-path:url(#SVGID_4_);}
</style>
<g id="Layer_1" class="st0">
</g>
<g id="Layer_2">
	<g>
		<path class="st1" d="M3.9,0.3h67.5c2,0,3.6,1.6,3.6,3.6v97.3c0,2-1.6,3.6-3.6,3.6H3.9c-2,0-3.6-1.6-3.6-3.6V3.9
			C0.3,1.9,1.9,0.3,3.9,0.3z"/>
		<path class="st4" d="M3.9,0.3h67.5c2,0,3.6,1.6,3.6,3.6v97.3c0,2-1.6,3.6-3.6,3.6H3.9c-2,0-3.6-1.6-3.6-3.6V3.9
			C0.3,1.9,1.9,0.3,3.9,0.3z"/>
		<path class="st3" d="M6,17c-1.4,1.8-3,2.9-3,4.3c0,0.5,0.3,1.3,1.2,1.4c0.6,0.1,1.4-0.3,1.4-1.2c0-0.2,0.2-0.2,0.2,0.1
			c0,0.7-0.3,1.4-0.7,2.1c0.6,0,1.3,0,1.9,0c-0.4-0.6-0.6-1.4-0.7-2.1c0-0.2,0.2-0.2,0.2-0.1c0,0.8,0.8,1.3,1.4,1.2
			c0.9-0.2,1.2-0.9,1.2-1.4C9,19.9,7.5,18.9,6,17L6,17z"/>
		<path class="st3" d="M69.2,88c-1.4-1.8-3-2.9-3-4.3c0-0.5,0.3-1.3,1.2-1.4c0.6-0.1,1.4,0.3,1.4,1.2c0,0.2,0.2,0.2,0.2-0.1
			c0-0.7-0.3-1.4-0.7-2.1c0.6,0,1.3,0,1.9,0c-0.4,0.6-0.6,1.4-0.7,2.1c0,0.2,0.2,0.2,0.2,0.1c0-0.8,0.8-1.3,1.4-1.2
			c0.9,0.2,1.2,0.9,1.2,1.4C72.2,85.1,70.6,86.2,69.2,88L69.2,88z"/>
		<path class="st3" d="M37.6,11.3c-3.1,4.4-6.4,6.9-6.4,10.4c0,1.1,0.6,3,2.5,3.4c1.2,0.2,2.9-0.8,2.9-2.8c0-0.4,0.4-0.4,0.4,0.2
			c-0.1,1.6-0.6,3.4-1.4,4.9c1.3,0,2.7,0,4,0c-0.8-1.5-1.3-3.4-1.4-4.9c0-0.5,0.4-0.6,0.4-0.2c0,2,1.7,3,2.9,2.8
			c1.9-0.4,2.5-2.3,2.5-3.4C44,18.2,40.7,15.7,37.6,11.3L37.6,11.3z"/>
		<path class="st3" d="M37.6,93.8c-3.1-4.4-6.4-6.9-6.4-10.4c0-1.1,0.6-3,2.5-3.4c1.2-0.2,2.9,0.8,2.9,2.8c0,0.4,0.4,0.4,0.4-0.2
			c-0.1-1.6-0.6-3.4-1.4-4.9c1.3,0,2.7,0,4,0c-0.8,1.5-1.3,3.4-1.4,4.9c0,0.5,0.4,0.6,0.4,0.2c0-2,1.7-3,2.9-2.8
			c1.9,0.4,2.5,2.3,2.5,3.4C44,86.8,40.7,89.4,37.6,93.8L37.6,93.8z"/>
		<path class="st3" d="M37.6,44.5c-3.1,4.4-6.4,6.9-6.4,10.4c0,1.1,0.6,3,2.5,3.4c1.2,0.2,2.9-0.8,2.9-2.8c0-0.4,0.4-0.4,0.4,0.2
			c-0.1,1.6-0.6,3.4-1.4,4.9c1.3,0,2.7,0,4,0c-0.8-1.5-1.3-3.4-1.4-4.9c0-0.5,0.4-0.6,0.4-0.2c0,2,1.7,3,2.9,2.8
			c1.9-0.4,2.5-2.3,2.5-3.4C44,51.4,40.7,48.9,37.6,44.5L37.6,44.5z"/>
		<path class="st3" d="M2.5,13.6l0.8-0.6c0.7,1.2,1.6,2,2.8,1.9c1.9-0.1,2.7-2.1,2.3-3.6c-0.4-1.3-2-2-3.2-1.3
			c-0.3,0.2-0.6,0.3-0.6,0.3c-0.1,0-0.4-0.6-0.4-0.8C5,8.2,7.1,6.1,7.1,6.1H3.9v1.4H2.7V4.9h6.2v0.9c0,0-1.7,1.7-2.2,2.7
			c1.4,0,2.4,0.9,2.8,2.3c0.2,0.7,0.1,2.3-0.2,3.1C8.8,15,7.5,15.9,6.2,16C4.1,16.1,3,14.7,2.5,13.6L2.5,13.6z"/>
		<path class="st3" d="M72.8,91.5l-0.8,0.6c-0.7-1.2-1.6-2-2.8-1.9c-1.9,0.1-2.7,2.1-2.3,3.6c0.4,1.3,2,2,3.2,1.3
			c0.3-0.2,0.6-0.3,0.6-0.3c0.1,0,0.4,0.6,0.4,0.8c-0.8,1.2-2.9,3.4-2.9,3.4h3.2v-1.4h1.2v2.6h-6.2v-0.9c0,0,1.7-1.7,2.2-2.7
			c-1.4,0-2.4-0.9-2.8-2.3c-0.2-0.7-0.1-2.3,0.2-3.1c0.5-1.2,1.9-2.1,3.1-2.2C71.1,88.9,72.2,90.4,72.8,91.5z"/>
	</g>
</g>
</svg>
