<?xml version="1.0" encoding="utf-8"?>
<!-- Generator: Adobe Illustrator 19.1.0, SVG Export Plug-In . SVG Version: 6.00 Build 0)  -->
<svg version="1.1" xmlns="http://www.w3.org/2000/svg" xmlns:xlink="http://www.w3.org/1999/xlink" x="0px" y="0px"
	 viewBox="0 0 75.3 105.3" style="enable-background:new 0 0 75.3 105.3;" xml:space="preserve">
<style type="text/css">
	.st0{display:none;}
	.st1{fill:#FFFFFF;}
	.st2{fill:none;stroke:#010101;stroke-width:0.9967;}
	.st3{fill:#010101;}
	.st4{fill:none;stroke:#010101;stroke-width:1.0006;}
	.st5{fill:#E1CF20;}
	.st6{fill:#262964;}
	.st7{fill:#D31F26;}
	.st8{fill:#14130F;}
	.st9{fill:none;stroke:#010101;stroke-width:0.9929;}
	.st10{fill:#F6EB16;}
	.st11{fill:none;stroke:#010101;stroke-width:1.83;}
	.st12{clip-path:url(#SVGID_2_);}
	.st13{clip-path:url(#SVGID_4_);}
</style>
<g id="Layer_1" class="st0">
</g>
<g id="Layer_2">
	<g>
		<path class="st1" d="M3.9,0.4h67.5C73.4,0.4,75,2,75,4v97.3c0,2-1.6,3.6-3.6,3.6H3.9c-2,0-3.6-1.6-3.6-3.6V4C0.4,2,2,0.4,3.9,0.4z
			"/>
		<path class="st2" d="M3.9,0.4h67.5C73.4,0.4,75,2,75,4v97.3c0,2-1.6,3.6-3.6,3.6H3.9c-2,0-3.6-1.6-3.6-3.6V4C0.4,2,2,0.4,3.9,0.4z
			"/>
		<path class="st3" d="M55,11.5c-3.3,0.1-4.8,3.8-2.3,6.6c0.4,0.4,0.4,0.7-0.3,0.3c-1.6-1.1-4.8-0.4-4.9,3c-0.2,4.1,5.6,5.3,6.6,0.9
			c0.1-0.5,0.4-0.5,0.3,0.2c-0.1,1.8-0.7,3.4-1.4,5.1c1.3,0,2.7,0,3.9,0c-0.8-1.6-1.3-3.3-1.4-5.1c-0.1-0.7,0.3-0.7,0.3-0.2
			c1.1,4.4,6.8,3.2,6.6-0.9c-0.2-3.3-3.3-4.1-4.9-3c-0.6,0.4-0.6,0.2-0.3-0.3C59.8,15.2,58.3,11.6,55,11.5L55,11.5L55,11.5z"/>
		<path class="st3" d="M20.4,11.5c-3.3,0.1-4.8,3.8-2.3,6.6c0.4,0.4,0.4,0.7-0.3,0.3c-1.6-1.1-4.8-0.4-4.9,3
			c-0.2,4.1,5.6,5.3,6.6,0.9c0.1-0.5,0.4-0.5,0.3,0.2c-0.1,1.8-0.7,3.4-1.4,5.1c1.3,0,2.7,0,3.9,0c-0.8-1.6-1.3-3.3-1.4-5.1
			c-0.1-0.7,0.3-0.7,0.3-0.2c1.1,4.4,6.8,3.2,6.6-0.9c-0.2-3.3-3.3-4.1-4.9-3c-0.6,0.4-0.6,0.2-0.3-0.3
			C25.2,15.2,23.7,11.6,20.4,11.5L20.4,11.5L20.4,11.5z"/>
		<path class="st3" d="M55,94c-3.3-0.1-4.8-3.8-2.3-6.6c0.4-0.4,0.4-0.7-0.3-0.3c-1.6,1.1-4.8,0.4-4.9-3c-0.2-4.1,5.6-5.3,6.6-0.9
			c0.1,0.5,0.4,0.5,0.3-0.2c-0.1-1.8-0.7-3.4-1.4-5.1c1.3,0,2.7,0,3.9,0c-0.8,1.6-1.3,3.3-1.4,5.1c-0.1,0.7,0.3,0.7,0.3,0.2
			c1.1-4.4,6.8-3.2,6.6,0.9c-0.2,3.3-3.3,4.1-4.9,3C57,86.7,57,87,57.3,87.4C59.8,90.2,58.3,93.9,55,94L55,94L55,94z"/>
		<path class="st3" d="M20.4,94c-3.3-0.1-4.8-3.8-2.3-6.6c0.4-0.4,0.4-0.7-0.3-0.3c-1.6,1.1-4.8,0.4-4.9-3c-0.2-4.1,5.6-5.3,6.6-0.9
			c0.1,0.5,0.4,0.5,0.3-0.2c-0.1-1.8-0.7-3.4-1.4-5.1c1.3,0,2.7,0,3.9,0c-0.8,1.6-1.3,3.3-1.4,5.1c-0.1,0.7,0.3,0.7,0.3,0.2
			c1.1-4.4,6.8-3.2,6.6,0.9c-0.2,3.3-3.3,4.1-4.9,3c-0.6-0.4-0.6-0.2-0.3,0.3C25.2,90.2,23.7,93.9,20.4,94L20.4,94L20.4,94z"/>
		<path class="st3" d="M69.3,88.1c1.3,0,1.9-1.6,0.9-2.8c-0.1-0.2-0.2-0.3,0.1-0.1c0.7,0.5,1.9,0.2,2-1.2c0.1-1.7-2.2-2.2-2.7-0.4
			c0,0.2-0.2,0.2-0.1-0.1c0-0.7,0.3-1.4,0.6-2.1c-0.5,0-1,0-1.6,0c0.3,0.7,0.5,1.4,0.6,2.1c0,0.3-0.1,0.3-0.1,0.1
			c-0.4-1.8-2.7-1.3-2.7,0.4c0.1,1.4,1.3,1.7,2,1.2c0.3-0.2,0.2-0.1,0.1,0.1C67.4,86.5,68,88.1,69.3,88.1L69.3,88.1z"/>
		<path class="st3" d="M6.1,17.1c-1.3,0-1.9,1.6-0.9,2.8c0.1,0.2,0.2,0.3-0.1,0.1c-0.7-0.5-1.9-0.2-2,1.2C3,23,5.3,23.5,5.8,21.6
			c0-0.2,0.2-0.2,0.1,0.1c0,0.7-0.3,1.4-0.6,2.1c0.5,0,1,0,1.6,0c-0.3-0.7-0.5-1.4-0.6-2.1c0-0.3,0.1-0.3,0.1-0.1
			c0.4,1.8,2.7,1.3,2.7-0.4c-0.1-1.4-1.3-1.7-2-1.2c-0.3,0.2-0.2,0.1-0.1-0.1C8,18.7,7.4,17.2,6.1,17.1L6.1,17.1z"/>
		<path class="st3" d="M6.2,16.1v-1h0.9v-1.6H2.7v-1.1L7.5,5l0.8,0v7.3h1.3v1.1H8.2l0,1.6h0.7v1L6.2,16.1L6.2,16.1z M7.1,7.7l-3,4.6
			h3V7.7z"/>
		<path class="st3" d="M69.2,89.1v1h-0.9v1.6h4.4v1.1l-4.8,7.3l-0.8,0v-7.3h-1.3v-1.1h1.3l0-1.6h-0.7v-1L69.2,89.1L69.2,89.1z
			 M68.3,97.5l3-4.6h-3V97.5z"/>
	</g>
</g>
</svg>
