<?xml version="1.0" encoding="utf-8"?>
<!-- Generator: Adobe Illustrator 19.1.0, SVG Export Plug-In . SVG Version: 6.00 Build 0)  -->
<svg version="1.1" xmlns="http://www.w3.org/2000/svg" xmlns:xlink="http://www.w3.org/1999/xlink" x="0px" y="0px"
	 viewBox="0 0 75.3 105.3" style="enable-background:new 0 0 75.3 105.3;" xml:space="preserve">
<style type="text/css">
	.st0{display:none;}
	.st1{fill:#FFFFFF;}
	.st2{fill:none;stroke:#010101;stroke-width:0.9967;}
	.st3{fill:#010101;}
	.st4{fill:none;stroke:#010101;stroke-width:1.0006;}
	.st5{fill:#E1CF20;}
	.st6{fill:#262964;}
	.st7{fill:#D31F26;}
	.st8{fill:#14130F;}
	.st9{fill:none;stroke:#010101;stroke-width:0.9929;}
	.st10{fill:#F6EB16;}
	.st11{fill:none;stroke:#010101;stroke-width:1.83;}
	.st12{clip-path:url(#SVGID_2_);}
	.st13{clip-path:url(#SVGID_4_);}
</style>
<g id="Layer_1" class="st0">
</g>
<g id="Layer_2">
	<g>
		<path class="st1" d="M4.1,0.5h67.5c2,0,3.6,1.6,3.6,3.6v97.3c0,2-1.6,3.6-3.6,3.6H4.1c-2,0-3.6-1.6-3.6-3.6V4.1
			C0.6,2.1,2.2,0.5,4.1,0.5z"/>
		<path class="st4" d="M4.1,0.5h67.5c2,0,3.6,1.6,3.6,3.6v97.3c0,2-1.6,3.6-3.6,3.6H4.1c-2,0-3.6-1.6-3.6-3.6V4.1
			C0.6,2.1,2.2,0.5,4.1,0.5z"/>
		<path class="st7" d="M6.3,24c-0.7-1.2-1.5-2.4-2.4-3.3c1-1,1.7-2.2,2.4-3.3c0.7,1.2,1.5,2.4,2.4,3.3C7.8,21.6,7,22.8,6.3,24z"/>
		<path class="st7" d="M55.2,27.5c-1.7-2.9-3.6-5.7-5.8-8c2.3-2.4,4.1-5.2,5.8-8c1.7,2.9,3.6,5.7,5.8,8C58.8,21.9,57,24.7,55.2,27.5
			z"/>
		<path class="st7" d="M69.5,88.2C68.8,87,68,85.9,67,84.9c1-1,1.7-2.2,2.4-3.3c0.7,1.2,1.5,2.4,2.4,3.3C71,85.9,70.2,87,69.5,88.2z
			"/>
		<path class="st7" d="M20.6,27.5c-1.7-2.9-3.6-5.7-5.8-8c2.3-2.4,4.1-5.2,5.8-8c1.7,2.9,3.6,5.7,5.8,8
			C24.1,21.9,22.3,24.7,20.6,27.5z"/>
		<path class="st7" d="M20.6,94c-1.7-2.9-3.6-5.7-5.8-8c2.3-2.4,4.1-5.2,5.8-8c1.7,2.9,3.6,5.7,5.8,8C24.1,88.3,22.3,91.1,20.6,94z"
			/>
		<path class="st7" d="M55.2,94c-1.7-2.9-3.6-5.7-5.8-8c2.3-2.4,4.1-5.2,5.8-8c1.7,2.9,3.6,5.7,5.8,8C58.8,88.3,57,91.1,55.2,94z"/>
		<path class="st7" d="M6.4,16.2v-1h0.9v-1.6H2.9v-1.1l4.8-7.3l0.8,0v7.3h1.3v1.1H8.4l0,1.6h0.7v1L6.4,16.2L6.4,16.2z M7.3,7.8
			l-3,4.6h3V7.8z"/>
		<path class="st7" d="M69.4,89.3v1h-0.9v1.6h4.4V93l-4.8,7.3l-0.8,0V93H66v-1.1h1.3l0-1.6h-0.7v-1L69.4,89.3L69.4,89.3z M68.5,97.6
			l3-4.6h-3V97.6z"/>
	</g>
</g>
</svg>
