<?xml version="1.0" encoding="utf-8"?>
<!-- Generator: Adobe Illustrator 19.1.0, SVG Export Plug-In . SVG Version: 6.00 Build 0)  -->
<svg version="1.1" xmlns="http://www.w3.org/2000/svg" xmlns:xlink="http://www.w3.org/1999/xlink" x="0px" y="0px"
	 viewBox="0 0 75.3 105.3" style="enable-background:new 0 0 75.3 105.3;" xml:space="preserve">
<style type="text/css">
	.st0{display:none;}
	.st1{fill:#FFFFFF;}
	.st2{fill:none;stroke:#010101;stroke-width:0.9967;}
	.st3{fill:#010101;}
	.st4{fill:none;stroke:#010101;stroke-width:1.0006;}
	.st5{fill:#E1CF20;}
	.st6{fill:#262964;}
	.st7{fill:#D31F26;}
	.st8{fill:#14130F;}
	.st9{fill:none;stroke:#010101;stroke-width:0.9929;}
	.st10{fill:#F6EB16;}
	.st11{fill:none;stroke:#010101;stroke-width:1.83;}
	.st12{clip-path:url(#SVGID_2_);}
	.st13{clip-path:url(#SVGID_4_);}
</style>
<g id="Layer_1" class="st0">
</g>
<g id="Layer_2">
	<g>
		<path class="st1" d="M4.1,0.4h67.5c2,0,3.6,1.6,3.6,3.6v97.3c0,2-1.6,3.6-3.6,3.6H4.1c-2,0-3.6-1.6-3.6-3.6V4
			C0.5,2,2.1,0.4,4.1,0.4z"/>
		<path class="st4" d="M4.1,0.4h67.5c2,0,3.6,1.6,3.6,3.6v97.3c0,2-1.6,3.6-3.6,3.6H4.1c-2,0-3.6-1.6-3.6-3.6V4
			C0.5,2,2.1,0.4,4.1,0.4z"/>
		<path class="st7" d="M6.3,23.9c0,0-0.7-1.1-1.7-2.3c-0.7-0.8-1.2-1.8-1.3-2.5c-0.1-0.9,0.5-1.8,1.5-1.8c1,0,1.4,0.7,1.5,1.3
			c0.2-0.6,0.6-1.3,1.5-1.3c1,0,1.5,0.9,1.5,1.8c0,0.8-0.6,1.7-1.3,2.5C7,22.8,6.3,23.9,6.3,23.9z"/>
		<path class="st7" d="M69.4,81.4c0,0-0.7,1.1-1.7,2.3c-0.7,0.8-1.2,1.8-1.3,2.5c-0.1,0.9,0.5,1.8,1.5,1.8c1,0,1.4-0.7,1.5-1.3
			c0.2,0.6,0.6,1.3,1.5,1.3c1,0,1.5-0.9,1.5-1.8c0-0.8-0.6-1.7-1.3-2.5C70.2,82.5,69.4,81.4,69.4,81.4z"/>
		<path class="st7" d="M20.5,27.5c0,0-1.6-2.6-3.7-5.6c-1.4-2-2.5-4.2-2.6-6.1c-0.1-2.1,1-4.3,3.1-4.4c2.1-0.1,2.9,1.7,3.2,3.1
			c0.3-1.5,1.2-3.2,3.2-3.1c2.1,0.1,3.2,2.3,3.1,4.4c-0.1,1.9-1.2,4.1-2.6,6.1C22.1,24.9,20.5,27.5,20.5,27.5z"/>
		<path class="st7" d="M55.2,27.5c0,0-1.6-2.6-3.7-5.6c-1.4-2-2.5-4.2-2.6-6.1c-0.1-2.1,1-4.3,3.1-4.4c2.1-0.1,2.9,1.7,3.2,3.1
			c0.3-1.5,1.2-3.2,3.2-3.1c2.1,0.1,3.2,2.3,3.1,4.4c-0.1,1.9-1.2,4.1-2.6,6.1C56.7,24.9,55.2,27.5,55.2,27.5z"/>
		<path class="st7" d="M55.2,77.8c0,0-1.6,2.6-3.7,5.6c-1.4,2-2.5,4.2-2.6,6.1c-0.1,2.1,1,4.3,3.1,4.4c2.1,0.1,2.9-1.7,3.2-3.1
			c0.3,1.5,1.2,3.2,3.2,3.1c2.1-0.1,3.2-2.3,3.1-4.4c-0.1-1.9-1.2-4.1-2.6-6.1C56.7,80.4,55.2,77.8,55.2,77.8z"/>
		<path class="st7" d="M20.5,77.8c0,0-1.6,2.6-3.7,5.6c-1.4,2-2.5,4.2-2.6,6.1c-0.1,2.1,1,4.3,3.1,4.4c2.1,0.1,2.9-1.7,3.2-3.1
			c0.3,1.5,1.2,3.2,3.2,3.1c2.1-0.1,3.2-2.3,3.1-4.4c-0.1-1.9-1.2-4.1-2.6-6.1C22.1,80.4,20.5,77.8,20.5,77.8z"/>
		<path class="st7" d="M6.3,16.1v-1h0.9v-1.6H2.8v-1.1l4.8-7.3l0.8,0v7.3h1.3v1.1H8.4l0,1.6h0.7v1L6.3,16.1L6.3,16.1z M7.2,7.8
			l-3,4.6h3V7.8z"/>
		<path class="st7" d="M69.3,89.2v1h-0.9v1.6h4.4v1.1l-4.8,7.3l-0.8,0v-7.3H66v-1.1h1.3l0-1.6h-0.7v-1L69.3,89.2L69.3,89.2z
			 M68.5,97.5l3-4.6h-3V97.5z"/>
	</g>
</g>
</svg>
