<?xml version="1.0" encoding="utf-8"?>
<!-- Generator: Adobe Illustrator 19.1.0, SVG Export Plug-In . SVG Version: 6.00 Build 0)  -->
<svg version="1.1" xmlns="http://www.w3.org/2000/svg" xmlns:xlink="http://www.w3.org/1999/xlink" x="0px" y="0px"
	 viewBox="0 0 75.3 105.3" style="enable-background:new 0 0 75.3 105.3;" xml:space="preserve">
<style type="text/css">
	.st0{display:none;}
	.st1{fill:#FFFFFF;}
	.st2{fill:none;stroke:#010101;stroke-width:0.9967;}
	.st3{fill:#010101;}
	.st4{fill:none;stroke:#010101;stroke-width:1.0006;}
	.st5{fill:#E1CF20;}
	.st6{fill:#262964;}
	.st7{fill:#D31F26;}
	.st8{fill:#14130F;}
	.st9{fill:none;stroke:#010101;stroke-width:0.9929;}
	.st10{fill:#F6EB16;}
	.st11{fill:none;stroke:#010101;stroke-width:1.83;}
	.st12{clip-path:url(#SVGID_2_);}
	.st13{clip-path:url(#SVGID_4_);}
</style>
<g id="Layer_1" class="st0">
</g>
<g id="Layer_2">
	<g>
		<path class="st1" d="M4.3,0.3h67.5c2,0,3.6,1.6,3.6,3.6v97.3c0,2-1.6,3.6-3.6,3.6H4.3c-2,0-3.6-1.6-3.6-3.6V3.9
			C0.7,1.9,2.3,0.3,4.3,0.3z"/>
		<path class="st4" d="M4.3,0.3h67.5c2,0,3.6,1.6,3.6,3.6v97.3c0,2-1.6,3.6-3.6,3.6H4.3c-2,0-3.6-1.6-3.6-3.6V3.9
			C0.7,1.9,2.3,0.3,4.3,0.3z"/>
		<path class="st3" d="M20.8,11.3c-3.1,4.4-6.4,6.9-6.4,10.4c0,1.1,0.6,3,2.5,3.4c1.2,0.2,2.9-0.8,2.9-2.8c0-0.4,0.4-0.4,0.4,0.2
			c-0.1,1.6-0.6,3.4-1.4,4.9c1.3,0,2.7,0,4,0c-0.8-1.5-1.3-3.4-1.4-4.9c0-0.5,0.4-0.6,0.4-0.2c0,2,1.7,3,2.9,2.8
			c1.9-0.4,2.5-2.3,2.5-3.4C27.1,18.2,23.8,15.7,20.8,11.3L20.8,11.3z"/>
		<path class="st3" d="M6.5,17c-1.4,1.8-3,2.9-3,4.3c0,0.5,0.3,1.3,1.2,1.4C5.2,22.9,6,22.5,6,21.6c0-0.2,0.2-0.2,0.2,0.1
			c0,0.7-0.3,1.4-0.7,2.1c0.6,0,1.3,0,1.9,0c-0.4-0.6-0.6-1.4-0.7-2.1c0-0.2,0.2-0.2,0.2-0.1c0,0.8,0.8,1.3,1.4,1.2
			c0.9-0.2,1.2-0.9,1.2-1.4C9.5,19.9,7.9,18.9,6.5,17L6.5,17z"/>
		<path class="st3" d="M69.6,88c-1.4-1.8-3-2.9-3-4.3c0-0.5,0.3-1.3,1.2-1.4c0.6-0.1,1.4,0.3,1.4,1.2c0,0.2,0.2,0.2,0.2-0.1
			c0-0.7-0.3-1.4-0.7-2.1c0.6,0,1.3,0,1.9,0c-0.4,0.6-0.6,1.4-0.7,2.1c0,0.2,0.2,0.2,0.2,0.1c0-0.8,0.8-1.3,1.4-1.2
			c0.9,0.2,1.2,0.9,1.2,1.4C72.6,85.1,71.1,86.2,69.6,88L69.6,88z"/>
		<path class="st3" d="M55.4,11.3c-3.1,4.4-6.4,6.9-6.4,10.4c0,1.1,0.6,3,2.5,3.4c1.2,0.2,2.9-0.8,2.9-2.8c0-0.4,0.4-0.4,0.4,0.2
			c-0.1,1.6-0.6,3.4-1.4,4.9c1.3,0,2.7,0,4,0c-0.8-1.5-1.3-3.4-1.4-4.9c0-0.5,0.4-0.6,0.4-0.2c0,2,1.7,3,2.9,2.8
			c1.9-0.4,2.5-2.3,2.5-3.4C61.8,18.2,58.5,15.7,55.4,11.3L55.4,11.3z"/>
		<path class="st3" d="M20.8,93.8c-3.1-4.4-6.4-6.9-6.4-10.4c0-1.1,0.6-3,2.5-3.4c1.2-0.2,2.9,0.8,2.9,2.8c0,0.4,0.4,0.4,0.4-0.2
			c-0.1-1.6-0.6-3.4-1.4-4.9c1.3,0,2.7,0,4,0c-0.8,1.5-1.3,3.4-1.4,4.9c0,0.5,0.4,0.6,0.4,0.2c0-2,1.7-3,2.9-2.8
			c1.9,0.4,2.5,2.3,2.5,3.4C27.1,86.8,23.8,89.4,20.8,93.8L20.8,93.8z"/>
		<path class="st3" d="M55.4,93.8c-3.1-4.4-6.4-6.9-6.4-10.4c0-1.1,0.6-3,2.5-3.4c1.2-0.2,2.9,0.8,2.9,2.8c0,0.4,0.4,0.4,0.4-0.2
			c-0.1-1.6-0.6-3.4-1.4-4.9c1.3,0,2.7,0,4,0c-0.8,1.5-1.3,3.4-1.4,4.9c0,0.5,0.4,0.6,0.4,0.2c0-2,1.7-3,2.9-2.8
			c1.9,0.4,2.5,2.3,2.5,3.4C61.8,86.8,58.5,89.4,55.4,93.8L55.4,93.8z"/>
		<path class="st3" d="M6.6,16v-1h0.9v-1.6H3v-1.1l4.8-7.3l0.8,0v7.3h1.3v1.1H8.6l0,1.6h0.7v1L6.6,16L6.6,16z M7.5,7.6l-3,4.6h3V7.6
			z"/>
		<path class="st3" d="M69.6,89.1v1h-0.9v1.6h4.4v1.1l-4.8,7.3l-0.8,0v-7.3h-1.3v-1.1h1.3l0-1.6h-0.7v-1L69.6,89.1L69.6,89.1z
			 M68.7,97.4l3-4.6h-3V97.4z"/>
	</g>
</g>
</svg>
