<?xml version="1.0" encoding="utf-8"?>
<!-- Generator: Adobe Illustrator 19.1.0, SVG Export Plug-In . SVG Version: 6.00 Build 0)  -->
<svg version="1.1" xmlns="http://www.w3.org/2000/svg" xmlns:xlink="http://www.w3.org/1999/xlink" x="0px" y="0px"
	 viewBox="0 0 75.3 105.3" style="enable-background:new 0 0 75.3 105.3;" xml:space="preserve">
<style type="text/css">
	.st0{display:none;}
	.st1{fill:#FFFFFF;}
	.st2{fill:none;stroke:#010101;stroke-width:0.9967;}
	.st3{fill:#010101;}
	.st4{fill:none;stroke:#010101;stroke-width:1.0006;}
	.st5{fill:#E1CF20;}
	.st6{fill:#262964;}
	.st7{fill:#D31F26;}
	.st8{fill:#14130F;}
	.st9{fill:none;stroke:#010101;stroke-width:0.9929;}
	.st10{fill:#F6EB16;}
	.st11{fill:none;stroke:#010101;stroke-width:1.83;}
	.st12{clip-path:url(#SVGID_2_);}
	.st13{clip-path:url(#SVGID_4_);}
</style>
<g id="Layer_1" class="st0">
</g>
<g id="Layer_2">
	<g>
		<path class="st1" d="M3.6,0.6h67.5c2,0,3.6,1.6,3.6,3.6v97.3c0,2-1.6,3.6-3.6,3.6H3.6c-2,0-3.6-1.6-3.6-3.6V4.1
			C0,2.2,1.6,0.6,3.6,0.6z"/>
		<path class="st4" d="M3.6,0.6h67.5c2,0,3.6,1.6,3.6,3.6v97.3c0,2-1.6,3.6-3.6,3.6H3.6c-2,0-3.6-1.6-3.6-3.6V4.1
			C0,2.2,1.6,0.6,3.6,0.6z"/>
		<path class="st3" d="M54.6,11.6c-3.3,0.1-4.8,3.8-2.3,6.6c0.4,0.4,0.4,0.7-0.3,0.3c-1.6-1.1-4.8-0.4-4.9,3
			c-0.2,4.1,5.6,5.3,6.6,0.9c0.1-0.5,0.4-0.5,0.3,0.2c-0.1,1.8-0.7,3.4-1.4,5.1c1.3,0,2.7,0,3.9,0c-0.8-1.6-1.3-3.3-1.4-5.1
			c-0.1-0.7,0.3-0.7,0.3-0.2c1.1,4.4,6.8,3.2,6.6-0.9c-0.2-3.3-3.3-4.1-4.9-3c-0.6,0.4-0.6,0.2-0.3-0.3
			C59.4,15.4,57.9,11.7,54.6,11.6L54.6,11.6L54.6,11.6z"/>
		<path class="st3" d="M20,11.6c-3.3,0.1-4.8,3.8-2.3,6.6c0.4,0.4,0.4,0.7-0.3,0.3c-1.6-1.1-4.8-0.4-4.9,3c-0.2,4.1,5.6,5.3,6.6,0.9
			c0.1-0.5,0.4-0.5,0.3,0.2c-0.1,1.8-0.7,3.4-1.4,5.1c1.3,0,2.7,0,3.9,0c-0.8-1.6-1.3-3.3-1.4-5.1c-0.1-0.7,0.3-0.7,0.3-0.2
			c1.1,4.4,6.8,3.2,6.6-0.9c-0.2-3.3-3.3-4.1-4.9-3c-0.6,0.4-0.6,0.2-0.3-0.3C24.8,15.4,23.3,11.7,20,11.6L20,11.6L20,11.6z"/>
		<path class="st3" d="M54.6,94.2c-3.3-0.1-4.8-3.8-2.3-6.6c0.4-0.4,0.4-0.7-0.3-0.3c-1.6,1.1-4.8,0.4-4.9-3
			c-0.2-4.1,5.6-5.3,6.6-0.9c0.1,0.5,0.4,0.5,0.3-0.2c-0.1-1.8-0.7-3.4-1.4-5.1c1.3,0,2.7,0,3.9,0c-0.8,1.6-1.3,3.3-1.4,5.1
			c-0.1,0.7,0.3,0.7,0.3,0.2c1.1-4.4,6.8-3.2,6.6,0.9c-0.2,3.3-3.3,4.1-4.9,3c-0.6-0.4-0.6-0.2-0.3,0.3
			C59.4,90.4,57.9,94.1,54.6,94.2L54.6,94.2L54.6,94.2z"/>
		<path class="st3" d="M20,94.2c-3.3-0.1-4.8-3.8-2.3-6.6c0.4-0.4,0.4-0.7-0.3-0.3c-1.6,1.1-4.8,0.4-4.9-3c-0.2-4.1,5.6-5.3,6.6-0.9
			c0.1,0.5,0.4,0.5,0.3-0.2c-0.1-1.8-0.7-3.4-1.4-5.1c1.3,0,2.7,0,3.9,0c-0.8,1.6-1.3,3.3-1.4,5.1c-0.1,0.7,0.3,0.7,0.3,0.2
			c1.1-4.4,6.8-3.2,6.6,0.9c-0.2,3.3-3.3,4.1-4.9,3c-0.6-0.4-0.6-0.2-0.3,0.3C24.8,90.4,23.3,94.1,20,94.2L20,94.2L20,94.2z"/>
		<path class="st3" d="M37.3,44.9c-3.3,0.1-4.8,3.8-2.3,6.6c0.4,0.4,0.4,0.7-0.3,0.3c-1.6-1.1-4.8-0.4-4.9,3
			c-0.2,4.1,5.6,5.3,6.6,0.9c0.1-0.5,0.4-0.5,0.3,0.2c-0.1,1.8-0.7,3.4-1.4,5.1c1.3,0,2.7,0,3.9,0c-0.8-1.6-1.3-3.3-1.4-5.1
			c-0.1-0.7,0.3-0.7,0.3-0.2c1.1,4.4,6.8,3.2,6.6-0.9c-0.2-3.3-3.3-4.1-4.9-3c-0.6,0.4-0.6,0.2-0.3-0.3
			C42.1,48.6,40.6,44.9,37.3,44.9L37.3,44.9L37.3,44.9z"/>
		<path class="st3" d="M68.9,88.3c1.3,0,1.9-1.6,0.9-2.8c-0.1-0.2-0.2-0.3,0.1-0.1c0.7,0.5,1.9,0.2,2-1.2c0.1-1.7-2.2-2.2-2.7-0.4
			c0,0.2-0.2,0.2-0.1-0.1c0-0.7,0.3-1.4,0.6-2.1c-0.5,0-1,0-1.6,0c0.3,0.7,0.5,1.4,0.6,2.1c0,0.3-0.1,0.3-0.1,0.1
			c-0.4-1.8-2.7-1.3-2.7,0.4c0.1,1.4,1.3,1.7,2,1.2c0.3-0.2,0.2-0.1,0.1,0.1C67,86.7,67.6,88.2,68.9,88.3L68.9,88.3z"/>
		<path class="st3" d="M5.7,17.3c-1.3,0-1.9,1.6-0.9,2.8C5,20.2,5,20.3,4.7,20.2c-0.7-0.5-1.9-0.2-2,1.2c-0.1,1.7,2.2,2.2,2.7,0.4
			c0-0.2,0.2-0.2,0.1,0.1c0,0.7-0.3,1.4-0.6,2.1c0.5,0,1,0,1.6,0C6.2,23.3,6,22.6,6,21.9c0-0.3,0.1-0.3,0.1-0.1
			c0.4,1.8,2.7,1.3,2.7-0.4c-0.1-1.4-1.3-1.7-2-1.2c-0.3,0.2-0.2,0.1-0.1-0.1C7.6,18.9,7.1,17.3,5.7,17.3L5.7,17.3z"/>
		<path class="st3" d="M2.3,13.4l1.1,0C3.6,14,4,14.7,4.6,14.9c1.8,0.4,2.9-0.6,3.3-1.7c0.5-1.4,0-3.4-1.2-4.1
			c-1-0.6-2.5-0.1-3.2,1.1L2.7,9.8l0.4-4.6h5v1.1h-4L4,8.2C4.9,7.6,6.2,7.6,7.1,8c1.6,0.8,2.4,2.6,2.1,4.7c-0.4,2.1-1.4,3.3-3.6,3.5
			C3.1,16.3,2.3,14.6,2.3,13.4L2.3,13.4z"/>
		<path class="st3" d="M72.4,92.2l-1.1,0c-0.2-0.7-0.7-1.3-1.3-1.5c-1.8-0.4-2.9,0.6-3.3,1.7c-0.5,1.4,0,3.4,1.2,4.1
			c1,0.6,2.5,0.1,3.2-1.1l0.8,0.5l-0.4,4.6h-5v-1.1h4l0.1-1.9c-0.9,0.6-2.2,0.6-3.1,0.2c-1.6-0.8-2.4-2.6-2.1-4.7
			c0.4-2.1,1.4-3.3,3.6-3.5C71.5,89.3,72.4,91,72.4,92.2L72.4,92.2z"/>
	</g>
</g>
</svg>
