<?xml version="1.0" encoding="utf-8"?>
<!-- Generator: Adobe Illustrator 19.1.0, SVG Export Plug-In . SVG Version: 6.00 Build 0)  -->
<svg version="1.1" xmlns="http://www.w3.org/2000/svg" xmlns:xlink="http://www.w3.org/1999/xlink" x="0px" y="0px"
	 viewBox="0 0 75.3 105.3" style="enable-background:new 0 0 75.3 105.3;" xml:space="preserve">
<style type="text/css">
	.st0{display:none;}
	.st1{fill:#FFFFFF;}
	.st2{fill:none;stroke:#010101;stroke-width:0.9967;}
	.st3{fill:#010101;}
	.st4{fill:none;stroke:#010101;stroke-width:1.0006;}
	.st5{fill:#E1CF20;}
	.st6{fill:#262964;}
	.st7{fill:#D31F26;}
	.st8{fill:#14130F;}
	.st9{fill:none;stroke:#010101;stroke-width:0.9929;}
	.st10{fill:#F6EB16;}
	.st11{fill:none;stroke:#010101;stroke-width:1.83;}
	.st12{clip-path:url(#SVGID_2_);}
	.st13{clip-path:url(#SVGID_4_);}
</style>
<g id="Layer_1" class="st0">
</g>
<g id="Layer_2">
	<g>
		<path class="st1" d="M3.6,0.5h67.5c2,0,3.6,1.6,3.6,3.6v97.3c0,2-1.6,3.6-3.6,3.6H3.6c-2,0-3.6-1.6-3.6-3.6V4.1
			C0,2.1,1.6,0.5,3.6,0.5z"/>
		<path class="st4" d="M3.6,0.5h67.5c2,0,3.6,1.6,3.6,3.6v97.3c0,2-1.6,3.6-3.6,3.6H3.6c-2,0-3.6-1.6-3.6-3.6V4.1
			C0,2.1,1.6,0.5,3.6,0.5z"/>
		<path class="st7" d="M5.8,24c-0.7-1.2-1.5-2.4-2.4-3.3c1-1,1.7-2.2,2.4-3.3c0.7,1.2,1.5,2.4,2.4,3.3C7.3,21.6,6.5,22.8,5.8,24z"/>
		<path class="st7" d="M54.7,27.5c-1.7-2.9-3.6-5.7-5.8-8c2.3-2.4,4.1-5.2,5.8-8c1.7,2.9,3.6,5.7,5.8,8
			C58.2,21.9,56.4,24.7,54.7,27.5z"/>
		<path class="st7" d="M68.9,88.2c-0.7-1.2-1.5-2.4-2.4-3.3c1-1,1.7-2.2,2.4-3.3c0.7,1.2,1.5,2.4,2.4,3.3
			C70.4,85.9,69.6,87,68.9,88.2z"/>
		<path class="st7" d="M20,27.5c-1.7-2.9-3.6-5.7-5.8-8c2.3-2.4,4.1-5.2,5.8-8c1.7,2.9,3.6,5.7,5.8,8C23.6,21.9,21.8,24.7,20,27.5z"
			/>
		<path class="st7" d="M37.3,60.8c-1.7-2.9-3.6-5.7-5.8-8c2.3-2.4,4.1-5.2,5.8-8c1.7,2.9,3.6,5.7,5.8,8
			C40.9,55.1,39.1,57.9,37.3,60.8z"/>
		<path class="st7" d="M20,94c-1.7-2.9-3.6-5.7-5.8-8c2.3-2.4,4.1-5.2,5.8-8c1.7,2.9,3.6,5.7,5.8,8C23.6,88.3,21.8,91.1,20,94z"/>
		<path class="st7" d="M54.7,94c-1.7-2.9-3.6-5.7-5.8-8c2.3-2.4,4.1-5.2,5.8-8c1.7,2.9,3.6,5.7,5.8,8C58.2,88.3,56.4,91.1,54.7,94z"
			/>
		<path class="st7" d="M2.3,13.3l1.1,0C3.6,14,4,14.7,4.7,14.9c1.8,0.4,2.9-0.6,3.3-1.7c0.5-1.4,0-3.4-1.2-4.1
			c-1-0.6-2.5-0.1-3.2,1.1L2.8,9.8l0.4-4.6h5v1.1h-4L4,8.2C4.9,7.5,6.2,7.5,7.1,8c1.6,0.8,2.4,2.6,2.1,4.7c-0.4,2.1-1.4,3.3-3.6,3.5
			C3.1,16.2,2.3,14.5,2.3,13.3L2.3,13.3z"/>
		<path class="st7" d="M72.4,92.1l-1.1,0c-0.2-0.7-0.7-1.3-1.3-1.5c-1.8-0.4-2.9,0.6-3.3,1.7c-0.5,1.4,0,3.4,1.2,4.1
			c1,0.6,2.5,0.1,3.2-1.1l0.8,0.5l-0.4,4.6h-5v-1.1h4l0.1-1.9c-0.9,0.6-2.2,0.6-3.1,0.2c-1.6-0.8-2.4-2.6-2.1-4.7
			c0.4-2.1,1.4-3.3,3.6-3.5C71.6,89.2,72.4,90.9,72.4,92.1L72.4,92.1z"/>
	</g>
</g>
</svg>
