<?xml version="1.0" encoding="utf-8"?>
<!-- Generator: Adobe Illustrator 19.1.0, SVG Export Plug-In . SVG Version: 6.00 Build 0)  -->
<svg version="1.1" xmlns="http://www.w3.org/2000/svg" xmlns:xlink="http://www.w3.org/1999/xlink" x="0px" y="0px"
	 viewBox="0 0 75.3 105.3" style="enable-background:new 0 0 75.3 105.3;" xml:space="preserve">
<style type="text/css">
	.st0{display:none;}
	.st1{fill:#FFFFFF;}
	.st2{fill:none;stroke:#010101;stroke-width:0.9967;}
	.st3{fill:#010101;}
	.st4{fill:none;stroke:#010101;stroke-width:1.0006;}
	.st5{fill:#E1CF20;}
	.st6{fill:#262964;}
	.st7{fill:#D31F26;}
	.st8{fill:#14130F;}
	.st9{fill:none;stroke:#010101;stroke-width:0.9929;}
	.st10{fill:#F6EB16;}
	.st11{fill:none;stroke:#010101;stroke-width:1.83;}
	.st12{clip-path:url(#SVGID_2_);}
	.st13{clip-path:url(#SVGID_4_);}
</style>
<g id="Layer_1" class="st0">
</g>
<g id="Layer_2">
	<g>
		<path class="st1" d="M3.5,0.4H71c2,0,3.6,1.6,3.6,3.6v97.3c0,2-1.6,3.6-3.6,3.6H3.5c-2,0-3.6-1.6-3.6-3.6V4
			C-0.1,2,1.5,0.4,3.5,0.4z"/>
		<path class="st4" d="M3.5,0.4H71c2,0,3.6,1.6,3.6,3.6v97.3c0,2-1.6,3.6-3.6,3.6H3.5c-2,0-3.6-1.6-3.6-3.6V4
			C-0.1,2,1.5,0.4,3.5,0.4z"/>
		<path class="st7" d="M5.7,23.9c0,0-0.7-1.1-1.7-2.3c-0.7-0.8-1.2-1.8-1.3-2.5c-0.1-0.9,0.5-1.8,1.5-1.8c1,0,1.4,0.7,1.5,1.3
			c0.2-0.6,0.6-1.3,1.5-1.3c1,0,1.5,0.9,1.5,1.8c0,0.8-0.6,1.7-1.3,2.5C6.4,22.8,5.7,23.9,5.7,23.9z"/>
		<path class="st7" d="M68.9,81.4c0,0-0.7,1.1-1.7,2.3c-0.7,0.8-1.2,1.8-1.3,2.5c-0.1,0.9,0.5,1.8,1.5,1.8c1,0,1.4-0.7,1.5-1.3
			c0.2,0.6,0.6,1.3,1.5,1.3c1,0,1.5-0.9,1.5-1.8c0-0.8-0.6-1.7-1.3-2.5C69.6,82.5,68.9,81.4,68.9,81.4z"/>
		<path class="st7" d="M20,27.5c0,0-1.6-2.6-3.7-5.6c-1.4-2-2.5-4.2-2.6-6.1c-0.1-2.1,1-4.3,3.1-4.4c2.1-0.1,2.9,1.7,3.2,3.1
			c0.3-1.5,1.2-3.2,3.2-3.1c2.1,0.1,3.2,2.3,3.1,4.4c-0.1,1.9-1.2,4.1-2.6,6.1C21.5,24.9,20,27.5,20,27.5z"/>
		<path class="st7" d="M54.6,27.5c0,0-1.6-2.6-3.7-5.6c-1.4-2-2.5-4.2-2.6-6.1c-0.1-2.1,1-4.3,3.1-4.4c2.1-0.1,2.9,1.7,3.2,3.1
			c0.3-1.5,1.2-3.2,3.2-3.1c2.1,0.1,3.2,2.3,3.1,4.4c-0.1,1.9-1.2,4.1-2.6,6.1C56.2,24.9,54.6,27.5,54.6,27.5z"/>
		<path class="st7" d="M37.3,60.7c0,0-1.6-2.6-3.7-5.6c-1.4-2-2.5-4.2-2.6-6.1c-0.1-2.1,1-4.3,3.1-4.4c2.1-0.1,2.9,1.7,3.2,3.1
			c0.3-1.5,1.2-3.2,3.2-3.1c2.1,0.1,3.2,2.3,3.1,4.4c-0.1,1.9-1.2,4.1-2.6,6.1C38.8,58.1,37.3,60.7,37.3,60.7z"/>
		<path class="st7" d="M54.6,77.8c0,0-1.6,2.6-3.7,5.6c-1.4,2-2.5,4.2-2.6,6.1c-0.1,2.1,1,4.3,3.1,4.4c2.1,0.1,2.9-1.7,3.2-3.1
			c0.3,1.5,1.2,3.2,3.2,3.1c2.1-0.1,3.2-2.3,3.1-4.4c-0.1-1.9-1.2-4.1-2.6-6.1C56.2,80.4,54.6,77.8,54.6,77.8z"/>
		<path class="st7" d="M20,77.8c0,0-1.6,2.6-3.7,5.6c-1.4,2-2.5,4.2-2.6,6.1c-0.1,2.1,1,4.3,3.1,4.4c2.1,0.1,2.9-1.7,3.2-3.1
			c0.3,1.5,1.2,3.2,3.2,3.1c2.1-0.1,3.2-2.3,3.1-4.4c-0.1-1.9-1.2-4.1-2.6-6.1C21.5,80.4,20,77.8,20,77.8z"/>
		<path class="st7" d="M2.2,13.3l1.1,0c0.2,0.7,0.7,1.3,1.3,1.5c1.8,0.4,2.9-0.6,3.3-1.7c0.5-1.4,0-3.4-1.2-4.1
			c-1-0.6-2.5-0.1-3.2,1.1L2.7,9.7l0.4-4.6h5v1.1H4L4,8.1C4.8,7.5,6.2,7.5,7,7.9c1.6,0.8,2.4,2.6,2.1,4.7c-0.4,2.1-1.4,3.3-3.6,3.5
			C3.1,16.1,2.2,14.4,2.2,13.3L2.2,13.3z"/>
		<path class="st7" d="M72.3,92l-1.1,0c-0.2-0.7-0.7-1.3-1.3-1.5c-1.8-0.4-2.9,0.6-3.3,1.7c-0.5,1.4,0,3.4,1.2,4.1
			c1,0.6,2.5,0.1,3.2-1.1l0.8,0.5l-0.4,4.6h-5v-1.1h4l0.1-1.9c-0.9,0.6-2.2,0.6-3.1,0.2c-1.6-0.8-2.4-2.6-2.1-4.7
			c0.4-2.1,1.4-3.3,3.6-3.5C71.5,89.2,72.3,90.9,72.3,92L72.3,92z"/>
	</g>
</g>
</svg>
