<?xml version="1.0" encoding="utf-8"?>
<!-- Generator: Adobe Illustrator 19.1.0, SVG Export Plug-In . SVG Version: 6.00 Build 0)  -->
<svg version="1.1" xmlns="http://www.w3.org/2000/svg" xmlns:xlink="http://www.w3.org/1999/xlink" x="0px" y="0px"
	 viewBox="0 0 75.3 105.3" style="enable-background:new 0 0 75.3 105.3;" xml:space="preserve">
<style type="text/css">
	.st0{display:none;}
	.st1{fill:#FFFFFF;}
	.st2{fill:none;stroke:#010101;stroke-width:0.9967;}
	.st3{fill:#010101;}
	.st4{fill:none;stroke:#010101;stroke-width:1.0006;}
	.st5{fill:#E1CF20;}
	.st6{fill:#262964;}
	.st7{fill:#D31F26;}
	.st8{fill:#14130F;}
	.st9{fill:none;stroke:#010101;stroke-width:0.9929;}
	.st10{fill:#F6EB16;}
	.st11{fill:none;stroke:#010101;stroke-width:1.83;}
	.st12{clip-path:url(#SVGID_2_);}
	.st13{clip-path:url(#SVGID_4_);}
</style>
<g id="Layer_1" class="st0">
</g>
<g id="Layer_2">
	<g>
		<path class="st1" d="M71.3,104.7H3.8c-2,0-3.6-1.6-3.6-3.6V3.9c0-2,1.6-3.6,3.6-3.6h67.5c2,0,3.6,1.6,3.6,3.6v97.3
			C74.8,103.1,73.2,104.7,71.3,104.7z"/>
		<path class="st4" d="M71.3,104.7H3.8c-2,0-3.6-1.6-3.6-3.6V3.9c0-2,1.6-3.6,3.6-3.6h67.5c2,0,3.6,1.6,3.6,3.6v97.3
			C74.8,103.1,73.2,104.7,71.3,104.7z"/>
		<path class="st3" d="M54.8,93.8c3.1-4.4,6.4-6.9,6.4-10.4c0-1.1-0.6-3-2.5-3.4c-1.2-0.2-2.9,0.8-2.9,2.8c0,0.4-0.4,0.4-0.4-0.2
			c0.1-1.6,0.6-3.4,1.4-4.9c-1.3,0-2.7,0-4,0c0.8,1.5,1.3,3.4,1.4,4.9c0,0.5-0.4,0.6-0.4,0.2c0-2-1.7-3-2.9-2.8
			c-1.9,0.4-2.5,2.3-2.5,3.4C48.4,86.8,51.7,89.4,54.8,93.8L54.8,93.8z"/>
		<path class="st3" d="M69.1,88c1.4-1.8,3-2.9,3-4.3c0-0.5-0.3-1.3-1.2-1.4c-0.6-0.1-1.4,0.3-1.4,1.2c0,0.2-0.2,0.2-0.2-0.1
			c0-0.7,0.3-1.4,0.7-2.1c-0.6,0-1.3,0-1.9,0c0.4,0.6,0.6,1.4,0.7,2.1c0,0.2-0.2,0.2-0.2,0.1c0-0.8-0.8-1.3-1.4-1.2
			c-0.9,0.2-1.2,0.9-1.2,1.4C66.1,85.1,67.6,86.2,69.1,88L69.1,88z"/>
		<path class="st3" d="M5.9,17c1.4,1.8,3,2.9,3,4.3c0,0.5-0.3,1.3-1.2,1.4c-0.6,0.1-1.4-0.3-1.4-1.2c0-0.2-0.2-0.2-0.2,0.1
			c0,0.7,0.3,1.4,0.7,2.1c-0.6,0-1.3,0-1.9,0c0.4-0.6,0.6-1.4,0.7-2.1c0-0.2-0.2-0.2-0.2-0.1c0,0.8-0.8,1.3-1.4,1.2
			c-0.9-0.2-1.2-0.9-1.2-1.4C3,19.9,4.5,18.9,5.9,17L5.9,17z"/>
		<path class="st3" d="M20.2,93.8c3.1-4.4,6.4-6.9,6.4-10.4c0-1.1-0.6-3-2.5-3.4c-1.2-0.2-2.9,0.8-2.9,2.8c0,0.4-0.4,0.4-0.4-0.2
			c0.1-1.6,0.6-3.4,1.4-4.9c-1.3,0-2.7,0-4,0c0.8,1.5,1.3,3.4,1.4,4.9c0,0.5-0.4,0.6-0.4,0.2c0-2-1.7-3-2.9-2.8
			c-1.9,0.4-2.5,2.3-2.5,3.4C13.8,86.8,17.1,89.4,20.2,93.8L20.2,93.8z"/>
		<path class="st3" d="M54.8,11.3c3.1,4.4,6.4,6.9,6.4,10.4c0,1.1-0.6,3-2.5,3.4c-1.2,0.2-2.9-0.8-2.9-2.8c0-0.4-0.4-0.4-0.4,0.2
			c0.1,1.6,0.6,3.4,1.4,4.9c-1.3,0-2.7,0-4,0c0.8-1.5,1.3-3.4,1.4-4.9c0-0.5-0.4-0.6-0.4-0.2c0,2-1.7,3-2.9,2.8
			c-1.9-0.4-2.5-2.3-2.5-3.4C48.4,18.2,51.7,15.7,54.8,11.3L54.8,11.3z"/>
		<path class="st3" d="M20.2,11.3c3.1,4.4,6.4,6.9,6.4,10.4c0,1.1-0.6,3-2.5,3.4c-1.2,0.2-2.9-0.8-2.9-2.8c0-0.4-0.4-0.4-0.4,0.2
			c0.1,1.6,0.6,3.4,1.4,4.9c-1.3,0-2.7,0-4,0c0.8-1.5,1.3-3.4,1.4-4.9c0-0.5-0.4-0.6-0.4-0.2c0,2-1.7,3-2.9,2.8
			c-1.9-0.4-2.5-2.3-2.5-3.4C13.8,18.2,17.1,15.7,20.2,11.3L20.2,11.3z"/>
		<path class="st3" d="M37.5,60.6c3.1-4.4,6.4-6.9,6.4-10.4c0-1.1-0.6-3-2.5-3.4c-1.2-0.2-2.9,0.8-2.9,2.8c0,0.4-0.4,0.4-0.4-0.2
			c0.1-1.6,0.6-3.4,1.4-4.9c-1.3,0-2.7,0-4,0c0.8,1.5,1.3,3.4,1.4,4.9c0,0.5-0.4,0.6-0.4,0.2c0-2-1.7-3-2.9-2.8
			c-1.9,0.4-2.5,2.3-2.5,3.4C31.1,53.6,34.4,56.2,37.5,60.6L37.5,60.6z"/>
		<path class="st3" d="M72.6,91.9l-1.1,0c-0.2-0.7-0.7-1.3-1.3-1.5C68.5,90,67.3,91,67,92.1c-0.5,1.4,0,3.4,1.2,4.1
			c1,0.6,2.5,0.1,3.2-1.1l0.8,0.5l-0.4,4.6h-5V99h4l0.1-1.9c-0.9,0.6-2.2,0.6-3.1,0.2c-1.6-0.8-2.4-2.6-2.1-4.7
			c0.4-2.1,1.4-3.3,3.6-3.5C71.7,89,72.6,90.7,72.6,91.9L72.6,91.9z"/>
		<path class="st3" d="M2.5,13.1l1.1,0c0.2,0.7,0.7,1.3,1.3,1.5c1.8,0.4,2.9-0.6,3.3-1.7c0.5-1.4,0-3.4-1.2-4.1
			c-1-0.6-2.5-0.1-3.2,1.1L2.9,9.5l0.4-4.6h5V6h-4L4.2,7.9c0.9-0.6,2.2-0.6,3.1-0.2c1.6,0.8,2.4,2.6,2.1,4.7
			c-0.4,2.1-1.4,3.3-3.6,3.5C3.3,16,2.4,14.3,2.5,13.1L2.5,13.1z"/>
	</g>
</g>
</svg>
