<?xml version="1.0" encoding="utf-8"?>
<!-- Generator: Adobe Illustrator 19.1.0, SVG Export Plug-In . SVG Version: 6.00 Build 0)  -->
<svg version="1.1" xmlns="http://www.w3.org/2000/svg" xmlns:xlink="http://www.w3.org/1999/xlink" x="0px" y="0px"
	 viewBox="0 0 75.3 105.3" style="enable-background:new 0 0 75.3 105.3;" xml:space="preserve">
<style type="text/css">
	.st0{display:none;}
	.st1{fill:#FFFFFF;}
	.st2{fill:none;stroke:#010101;stroke-width:0.9967;}
	.st3{fill:#010101;}
	.st4{fill:none;stroke:#010101;stroke-width:1.0006;}
	.st5{fill:#E1CF20;}
	.st6{fill:#262964;}
	.st7{fill:#D31F26;}
	.st8{fill:#14130F;}
	.st9{fill:none;stroke:#010101;stroke-width:0.9929;}
	.st10{fill:#F6EB16;}
	.st11{fill:none;stroke:#010101;stroke-width:1.83;}
	.st12{clip-path:url(#SVGID_2_);}
	.st13{clip-path:url(#SVGID_4_);}
</style>
<g id="Layer_1" class="st0">
</g>
<g id="Layer_2">
	<g>
		<path class="st1" d="M4,0.6h67.5c2,0,3.6,1.6,3.6,3.6v97.3c0,2-1.6,3.6-3.6,3.6H4c-2,0-3.6-1.6-3.6-3.6V4.1C0.4,2.2,2,0.6,4,0.6z"
			/>
		<path class="st2" d="M4,0.6h67.5c2,0,3.6,1.6,3.6,3.6v97.3c0,2-1.6,3.6-3.6,3.6H4c-2,0-3.6-1.6-3.6-3.6V4.1C0.4,2.2,2,0.6,4,0.6z"
			/>
		<path class="st3" d="M55.1,11.6c-3.3,0.1-4.8,3.8-2.3,6.6c0.4,0.4,0.4,0.7-0.3,0.3c-1.6-1.1-4.8-0.4-4.9,3
			c-0.2,4.1,5.6,5.3,6.6,0.9c0.1-0.5,0.4-0.5,0.3,0.2c-0.1,1.8-0.7,3.4-1.4,5.1c1.3,0,2.7,0,3.9,0c-0.8-1.6-1.3-3.3-1.4-5.1
			C55.5,22,55.9,22,56,22.4c1.1,4.4,6.8,3.2,6.6-0.9c-0.2-3.3-3.3-4.1-4.9-3c-0.6,0.4-0.6,0.2-0.3-0.3
			C59.8,15.4,58.4,11.7,55.1,11.6L55.1,11.6L55.1,11.6z"/>
		<path class="st3" d="M20.4,11.6c-3.3,0.1-4.8,3.8-2.3,6.6c0.4,0.4,0.4,0.7-0.3,0.3c-1.6-1.1-4.8-0.4-4.9,3
			c-0.2,4.1,5.6,5.3,6.6,0.9c0.1-0.5,0.4-0.5,0.3,0.2c-0.1,1.8-0.7,3.4-1.4,5.1c1.3,0,2.7,0,3.9,0c-0.8-1.6-1.3-3.3-1.4-5.1
			c-0.1-0.7,0.3-0.7,0.3-0.2c1.1,4.4,6.8,3.2,6.6-0.9c-0.2-3.3-3.3-4.1-4.9-3c-0.6,0.4-0.6,0.2-0.3-0.3
			C25.2,15.4,23.7,11.7,20.4,11.6L20.4,11.6L20.4,11.6z"/>
		<path class="st3" d="M55.1,94.2c-3.3-0.1-4.8-3.8-2.3-6.6c0.4-0.4,0.4-0.7-0.3-0.3c-1.6,1.1-4.8,0.4-4.9-3
			c-0.2-4.1,5.6-5.3,6.6-0.9c0.1,0.5,0.4,0.5,0.3-0.2c-0.1-1.8-0.7-3.4-1.4-5.1c1.3,0,2.7,0,3.9,0c-0.8,1.6-1.3,3.3-1.4,5.1
			c-0.1,0.7,0.3,0.7,0.3,0.2c1.1-4.4,6.8-3.2,6.6,0.9c-0.2,3.3-3.3,4.1-4.9,3c-0.6-0.4-0.6-0.2-0.3,0.3
			C59.8,90.4,58.4,94.1,55.1,94.2L55.1,94.2L55.1,94.2z"/>
		<path class="st3" d="M20.4,94.2c-3.3-0.1-4.8-3.8-2.3-6.6c0.4-0.4,0.4-0.7-0.3-0.3c-1.6,1.1-4.8,0.4-4.9-3
			c-0.2-4.1,5.6-5.3,6.6-0.9c0.1,0.5,0.4,0.5,0.3-0.2c-0.1-1.8-0.7-3.4-1.4-5.1c1.3,0,2.7,0,3.9,0c-0.8,1.6-1.3,3.3-1.4,5.1
			c-0.1,0.7,0.3,0.7,0.3,0.2c1.1-4.4,6.8-3.2,6.6,0.9c-0.2,3.3-3.3,4.1-4.9,3c-0.6-0.4-0.6-0.2-0.3,0.3
			C25.2,90.4,23.7,94.1,20.4,94.2L20.4,94.2L20.4,94.2z"/>
		<path class="st3" d="M55.1,44.9c-3.3,0.1-4.8,3.8-2.3,6.6c0.4,0.4,0.4,0.7-0.3,0.3c-1.6-1.1-4.8-0.4-4.9,3
			c-0.2,4.1,5.6,5.3,6.6,0.9c0.1-0.5,0.4-0.5,0.3,0.2c-0.1,1.8-0.7,3.4-1.4,5.1c1.3,0,2.7,0,3.9,0c-0.8-1.6-1.3-3.3-1.4-5.1
			c-0.1-0.7,0.3-0.7,0.3-0.2c1.1,4.4,6.8,3.2,6.6-0.9c-0.2-3.3-3.3-4.1-4.9-3c-0.6,0.4-0.6,0.2-0.3-0.3
			C59.8,48.6,58.4,44.9,55.1,44.9L55.1,44.9L55.1,44.9z"/>
		<path class="st3" d="M20.4,44.9c-3.3,0.1-4.8,3.8-2.3,6.6c0.4,0.4,0.4,0.7-0.3,0.3c-1.6-1.1-4.8-0.4-4.9,3
			c-0.2,4.1,5.6,5.3,6.6,0.9c0.1-0.5,0.4-0.5,0.3,0.2c-0.1,1.8-0.7,3.4-1.4,5.1c1.3,0,2.7,0,3.9,0c-0.8-1.6-1.3-3.3-1.4-5.1
			c-0.1-0.7,0.3-0.7,0.3-0.2c1.1,4.4,6.8,3.2,6.6-0.9c-0.2-3.3-3.3-4.1-4.9-3c-0.6,0.4-0.6,0.2-0.3-0.3
			C25.2,48.6,23.7,44.9,20.4,44.9L20.4,44.9L20.4,44.9z"/>
		<path class="st3" d="M69.3,88.3c1.3,0,1.9-1.6,0.9-2.8c-0.1-0.2-0.2-0.3,0.1-0.1c0.7,0.5,1.9,0.2,2-1.2c0.1-1.7-2.2-2.2-2.7-0.4
			c0,0.2-0.2,0.2-0.1-0.1c0-0.7,0.3-1.4,0.6-2.1c-0.5,0-1,0-1.6,0c0.3,0.7,0.5,1.4,0.6,2.1c0,0.3-0.1,0.3-0.1,0.1
			c-0.4-1.8-2.7-1.3-2.7,0.4c0.1,1.4,1.3,1.7,2,1.2c0.3-0.2,0.2-0.1,0.1,0.1C67.4,86.7,68,88.2,69.3,88.3L69.3,88.3z"/>
		<path class="st3" d="M6.2,17.3c-1.3,0-1.9,1.6-0.9,2.8c0.1,0.2,0.2,0.3-0.1,0.1c-0.7-0.5-1.9-0.2-2,1.2c-0.1,1.7,2.2,2.2,2.7,0.4
			c0-0.2,0.2-0.2,0.1,0.1c0,0.7-0.3,1.4-0.6,2.1c0.5,0,1,0,1.6,0c-0.3-0.7-0.5-1.4-0.6-2.1c0-0.3,0.1-0.3,0.1-0.1
			c0.4,1.8,2.7,1.3,2.7-0.4c-0.1-1.4-1.3-1.7-2-1.2C7,20.3,7,20.2,7.1,20.1C8.1,18.9,7.5,17.3,6.2,17.3L6.2,17.3z"/>
		<path class="st3" d="M2.9,12.8c-0.1-0.9-0.1-3.3,0-4c0.3-2.2,1.2-3.2,2.6-3.5c1.4-0.3,3.3,0,3.7,1.9L8,7.2C7.4,5.9,5.9,6.3,5,6.8
			C4.3,7.2,4,9,4.1,9.1c0,0,1.3-1,2.4-0.9c2.2,0.2,3.1,2.2,3.1,4c-0.1,2.2-0.8,3.9-3.1,4C4.2,16.2,3.2,14.9,2.9,12.8L2.9,12.8z
			 M8.5,12.3c0-1.5-0.7-2.7-2-2.8C5.2,9.4,3.9,10.6,4,12.2C4,13.7,4.6,15,6.2,15C7.9,15,8.4,13.3,8.5,12.3L8.5,12.3z"/>
		<path class="st3" d="M72.6,92.7c0.1,0.9,0.1,3.3,0,4c-0.3,2.2-1.2,3.2-2.6,3.5c-1.4,0.3-3.3,0-3.7-1.9l1.1,0
			c0.6,1.2,2.2,0.9,3,0.4c0.7-0.4,1-2.2,0.9-2.3c0,0-1.3,1-2.4,0.9c-2.2-0.2-3.1-2.2-3.1-4c0.1-2.2,0.8-3.9,3.1-4
			C71.3,89.4,72.4,90.6,72.6,92.7L72.6,92.7z M67.1,93.3c0,1.5,0.7,2.7,2,2.8c1.3,0.1,2.6-1.1,2.5-2.7c-0.1-1.6-0.7-2.9-2.3-2.9
			C67.6,90.5,67.1,92.2,67.1,93.3L67.1,93.3z"/>
	</g>
</g>
</svg>
