<?xml version="1.0" encoding="utf-8"?>
<!-- Generator: Adobe Illustrator 19.1.0, SVG Export Plug-In . SVG Version: 6.00 Build 0)  -->
<svg version="1.1" xmlns="http://www.w3.org/2000/svg" xmlns:xlink="http://www.w3.org/1999/xlink" x="0px" y="0px"
	 viewBox="0 0 75.3 105.3" style="enable-background:new 0 0 75.3 105.3;" xml:space="preserve">
<style type="text/css">
	.st0{display:none;}
	.st1{fill:#FFFFFF;}
	.st2{fill:none;stroke:#010101;stroke-width:0.9967;}
	.st3{fill:#010101;}
	.st4{fill:none;stroke:#010101;stroke-width:1.0006;}
	.st5{fill:#E1CF20;}
	.st6{fill:#262964;}
	.st7{fill:#D31F26;}
	.st8{fill:#14130F;}
	.st9{fill:none;stroke:#010101;stroke-width:0.9929;}
	.st10{fill:#F6EB16;}
	.st11{fill:none;stroke:#010101;stroke-width:1.83;}
	.st12{clip-path:url(#SVGID_2_);}
	.st13{clip-path:url(#SVGID_4_);}
</style>
<g id="Layer_1" class="st0">
</g>
<g id="Layer_2">
	<g>
		<path class="st1" d="M4,0.5h67.5c2,0,3.6,1.6,3.6,3.6v97.3c0,2-1.6,3.6-3.6,3.6H4c-2,0-3.6-1.6-3.6-3.6V4.1C0.5,2.1,2.1,0.5,4,0.5
			z"/>
		<path class="st4" d="M4,0.5h67.5c2,0,3.6,1.6,3.6,3.6v97.3c0,2-1.6,3.6-3.6,3.6H4c-2,0-3.6-1.6-3.6-3.6V4.1C0.5,2.1,2.1,0.5,4,0.5
			z"/>
		<path class="st7" d="M6.2,24c-0.7-1.2-1.5-2.4-2.4-3.3c1-1,1.7-2.2,2.4-3.3c0.7,1.2,1.5,2.4,2.4,3.3C7.7,21.6,6.9,22.8,6.2,24z"/>
		<path class="st7" d="M55.1,27.5c-1.7-2.9-3.6-5.7-5.8-8c2.3-2.4,4.1-5.2,5.8-8c1.7,2.9,3.6,5.7,5.8,8
			C58.7,21.9,56.8,24.7,55.1,27.5z"/>
		<path class="st7" d="M69.4,88.2c-0.7-1.2-1.5-2.4-2.4-3.3c1-1,1.7-2.2,2.4-3.3c0.7,1.2,1.5,2.4,2.4,3.3
			C70.8,85.9,70.1,87,69.4,88.2z"/>
		<path class="st7" d="M20.5,27.5c-1.7-2.9-3.6-5.7-5.8-8c2.3-2.4,4.1-5.2,5.8-8c1.7,2.9,3.6,5.7,5.8,8C24,21.9,22.2,24.7,20.5,27.5
			z"/>
		<path class="st7" d="M20.5,60.8c-1.7-2.9-3.6-5.7-5.8-8c2.3-2.4,4.1-5.2,5.8-8c1.7,2.9,3.6,5.7,5.8,8C24,55.1,22.2,57.9,20.5,60.8
			z"/>
		<path class="st7" d="M55.1,60.8c-1.7-2.9-3.6-5.7-5.8-8c2.3-2.4,4.1-5.2,5.8-8c1.7,2.9,3.6,5.7,5.8,8
			C58.7,55.1,56.8,57.9,55.1,60.8z"/>
		<path class="st7" d="M20.5,94c-1.7-2.9-3.6-5.7-5.8-8c2.3-2.4,4.1-5.2,5.8-8c1.7,2.9,3.6,5.7,5.8,8C24,88.3,22.2,91.1,20.5,94z"/>
		<path class="st7" d="M55.1,94c-1.7-2.9-3.6-5.7-5.8-8c2.3-2.4,4.1-5.2,5.8-8c1.7,2.9,3.6,5.7,5.8,8C58.7,88.3,56.8,91.1,55.1,94z"
			/>
		<path class="st7" d="M3,12.8c-0.1-0.9-0.1-3.3,0-4c0.3-2.2,1.2-3.2,2.6-3.5c1.4-0.3,3.3,0,3.7,1.9l-1.1,0C7.4,5.9,5.9,6.2,5,6.8
			C4.3,7.2,4,9,4.2,9.1c0,0,1.3-1,2.4-0.9c2.2,0.2,3.1,2.2,3.1,4c-0.1,2.2-0.8,3.9-3.1,4C4.2,16.1,3.2,14.9,3,12.8L3,12.8z
			 M8.5,12.2c0-1.5-0.7-2.7-2-2.8C5.2,9.3,3.9,10.6,4,12.1C4.1,13.7,4.7,15,6.2,15C7.9,15,8.5,13.3,8.5,12.2z"/>
		<path class="st7" d="M72.6,92.7c0.1,0.9,0.1,3.3,0,4c-0.3,2.2-1.2,3.2-2.6,3.5c-1.4,0.3-3.3,0-3.7-1.9l1.1,0
			c0.6,1.2,2.2,0.9,3,0.4c0.7-0.4,1-2.2,0.9-2.3c0,0-1.3,1-2.4,0.9c-2.2-0.2-3.1-2.2-3.1-4c0.1-2.2,0.8-3.9,3.1-4
			C71.4,89.3,72.4,90.6,72.6,92.7L72.6,92.7z M67.1,93.2c0,1.5,0.7,2.7,2,2.8c1.3,0.1,2.6-1.1,2.5-2.7c-0.1-1.6-0.7-2.9-2.3-2.9
			C67.6,90.5,67.1,92.2,67.1,93.2z"/>
	</g>
</g>
</svg>
