<?xml version="1.0" encoding="utf-8"?>
<!-- Generator: Adobe Illustrator 19.1.0, SVG Export Plug-In . SVG Version: 6.00 Build 0)  -->
<svg version="1.1" xmlns="http://www.w3.org/2000/svg" xmlns:xlink="http://www.w3.org/1999/xlink" x="0px" y="0px"
	 viewBox="0 0 75.3 105.3" style="enable-background:new 0 0 75.3 105.3;" xml:space="preserve">
<style type="text/css">
	.st0{display:none;}
	.st1{fill:#FFFFFF;}
	.st2{fill:none;stroke:#010101;stroke-width:0.9967;}
	.st3{fill:#010101;}
	.st4{fill:none;stroke:#010101;stroke-width:1.0006;}
	.st5{fill:#E1CF20;}
	.st6{fill:#262964;}
	.st7{fill:#D31F26;}
	.st8{fill:#14130F;}
	.st9{fill:none;stroke:#010101;stroke-width:0.9929;}
	.st10{fill:#F6EB16;}
	.st11{fill:none;stroke:#010101;stroke-width:1.83;}
	.st12{clip-path:url(#SVGID_2_);}
	.st13{clip-path:url(#SVGID_4_);}
</style>
<g id="Layer_1" class="st0">
</g>
<g id="Layer_2">
	<g>
		<path class="st1" d="M4,0.4h67.5c2,0,3.6,1.6,3.6,3.6v97.3c0,2-1.6,3.6-3.6,3.6H4c-2,0-3.6-1.6-3.6-3.6V4C0.4,2,2,0.4,4,0.4z"/>
		<path class="st4" d="M4,0.4h67.5c2,0,3.6,1.6,3.6,3.6v97.3c0,2-1.6,3.6-3.6,3.6H4c-2,0-3.6-1.6-3.6-3.6V4C0.4,2,2,0.4,4,0.4z"/>
		<path class="st7" d="M6.1,23.9c0,0-0.7-1.1-1.7-2.3c-0.7-0.8-1.2-1.8-1.3-2.5c-0.1-0.9,0.5-1.8,1.5-1.8c1,0,1.4,0.7,1.5,1.3
			c0.2-0.6,0.6-1.3,1.5-1.3c1,0,1.5,0.9,1.5,1.8c0,0.8-0.6,1.7-1.3,2.5C6.9,22.8,6.1,23.9,6.1,23.9z"/>
		<path class="st7" d="M69.3,81.4c0,0-0.7,1.1-1.7,2.3c-0.7,0.8-1.2,1.8-1.3,2.5c-0.1,0.9,0.5,1.8,1.5,1.8c1,0,1.4-0.7,1.5-1.3
			c0.2,0.6,0.6,1.3,1.5,1.3c1,0,1.5-0.9,1.5-1.8c0-0.8-0.6-1.7-1.3-2.5C70,82.5,69.3,81.4,69.3,81.4z"/>
		<path class="st7" d="M20.4,27.5c0,0-1.6-2.6-3.7-5.6c-1.4-2-2.5-4.2-2.6-6.1c-0.1-2.1,1-4.3,3.1-4.4c2.1-0.1,2.9,1.7,3.2,3.1
			c0.3-1.5,1.2-3.2,3.2-3.1c2.1,0.1,3.2,2.3,3.1,4.4c-0.1,1.9-1.2,4.1-2.6,6.1C22,24.9,20.4,27.5,20.4,27.5z"/>
		<path class="st7" d="M55,60.7c0,0-1.6-2.6-3.7-5.6c-1.4-2-2.5-4.2-2.6-6.1c-0.1-2.1,1-4.3,3.1-4.4c2.1-0.1,2.9,1.7,3.2,3.1
			c0.3-1.5,1.2-3.2,3.2-3.1c2.1,0.1,3.2,2.3,3.1,4.4c-0.1,1.9-1.2,4.1-2.6,6.1C56.6,58.1,55,60.7,55,60.7z"/>
		<path class="st7" d="M55,27.5c0,0-1.6-2.6-3.7-5.6c-1.4-2-2.5-4.2-2.6-6.1c-0.1-2.1,1-4.3,3.1-4.4c2.1-0.1,2.9,1.7,3.2,3.1
			c0.3-1.5,1.2-3.2,3.2-3.1c2.1,0.1,3.2,2.3,3.1,4.4c-0.1,1.9-1.2,4.1-2.6,6.1C56.6,24.9,55,27.5,55,27.5z"/>
		<path class="st7" d="M20.4,60.7c0,0-1.6-2.6-3.7-5.6c-1.4-2-2.5-4.2-2.6-6.1c-0.1-2.1,1-4.3,3.1-4.4c2.1-0.1,2.9,1.7,3.2,3.1
			c0.3-1.5,1.2-3.2,3.2-3.1c2.1,0.1,3.2,2.3,3.1,4.4c-0.1,1.9-1.2,4.1-2.6,6.1C22,58.1,20.4,60.7,20.4,60.7z"/>
		<path class="st7" d="M55,77.8c0,0-1.6,2.6-3.7,5.6c-1.4,2-2.5,4.2-2.6,6.1c-0.1,2.1,1,4.3,3.1,4.4c2.1,0.1,2.9-1.7,3.2-3.1
			c0.3,1.5,1.2,3.2,3.2,3.1c2.1-0.1,3.2-2.3,3.1-4.4c-0.1-1.9-1.2-4.1-2.6-6.1C56.6,80.4,55,77.8,55,77.8z"/>
		<path class="st7" d="M20.4,77.8c0,0-1.6,2.6-3.7,5.6c-1.4,2-2.5,4.2-2.6,6.1c-0.1,2.1,1,4.3,3.1,4.4c2.1,0.1,2.9-1.7,3.2-3.1
			c0.3,1.5,1.2,3.2,3.2,3.1c2.1-0.1,3.2-2.3,3.1-4.4c-0.1-1.9-1.2-4.1-2.6-6.1C22,80.4,20.4,77.8,20.4,77.8z"/>
		<path class="st7" d="M2.9,12.7c-0.1-0.9-0.1-3.3,0-4c0.3-2.2,1.2-3.2,2.6-3.5c1.4-0.3,3.3,0,3.7,1.9L8,7.1C7.4,5.8,5.8,6.1,5,6.7
			C4.3,7.1,3.9,8.9,4.1,9c0,0,1.3-1,2.4-0.9c2.2,0.2,3.1,2.2,3.1,4c-0.1,2.2-0.8,3.9-3.1,4C4.1,16,3.1,14.8,2.9,12.7L2.9,12.7z
			 M8.4,12.1c0-1.5-0.7-2.7-2-2.8c-1.3-0.1-2.6,1.1-2.5,2.7c0.1,1.6,0.7,2.9,2.3,2.9C7.9,14.9,8.4,13.2,8.4,12.1L8.4,12.1z"/>
		<path class="st7" d="M72.5,92.6c0.1,0.9,0.1,3.3,0,4c-0.3,2.2-1.2,3.2-2.6,3.5c-1.4,0.3-3.3,0-3.7-1.9l1.1,0
			c0.6,1.2,2.2,0.9,3,0.4c0.7-0.4,1-2.2,0.9-2.3c0,0-1.3,1-2.4,0.9c-2.2-0.2-3.1-2.2-3.1-4c0.1-2.2,0.8-3.9,3.1-4
			C71.3,89.3,72.3,90.5,72.5,92.6L72.5,92.6z M67,93.2c0,1.5,0.7,2.7,2,2.8c1.3,0.1,2.6-1.1,2.5-2.7c-0.1-1.6-0.7-2.9-2.3-2.9
			C67.6,90.4,67,92.1,67,93.2L67,93.2z"/>
	</g>
</g>
</svg>
