<?xml version="1.0" encoding="utf-8"?>
<!-- Generator: Adobe Illustrator 19.1.0, SVG Export Plug-In . SVG Version: 6.00 Build 0)  -->
<svg version="1.1" xmlns="http://www.w3.org/2000/svg" xmlns:xlink="http://www.w3.org/1999/xlink" x="0px" y="0px"
	 viewBox="0 0 75.3 105.3" style="enable-background:new 0 0 75.3 105.3;" xml:space="preserve">
<style type="text/css">
	.st0{display:none;}
	.st1{fill:#FFFFFF;}
	.st2{fill:none;stroke:#010101;stroke-width:0.9967;}
	.st3{fill:#010101;}
	.st4{fill:none;stroke:#010101;stroke-width:1.0006;}
	.st5{fill:#E1CF20;}
	.st6{fill:#262964;}
	.st7{fill:#D31F26;}
	.st8{fill:#14130F;}
	.st9{fill:none;stroke:#010101;stroke-width:0.9929;}
	.st10{fill:#F6EB16;}
	.st11{fill:none;stroke:#010101;stroke-width:1.83;}
	.st12{clip-path:url(#SVGID_2_);}
	.st13{clip-path:url(#SVGID_4_);}
</style>
<g id="Layer_1" class="st0">
</g>
<g id="Layer_2">
	<g>
		<path class="st1" d="M3.9,0.3h67.5c2,0,3.6,1.6,3.6,3.6v97.3c0,2-1.6,3.6-3.6,3.6H3.9c-2,0-3.6-1.6-3.6-3.6V3.9
			C0.3,1.9,1.9,0.3,3.9,0.3z"/>
		<path class="st4" d="M3.9,0.3h67.5c2,0,3.6,1.6,3.6,3.6v97.3c0,2-1.6,3.6-3.6,3.6H3.9c-2,0-3.6-1.6-3.6-3.6V3.9
			C0.3,1.9,1.9,0.3,3.9,0.3z"/>
		<path class="st3" d="M20.3,11.3c-3.1,4.4-6.4,6.9-6.4,10.4c0,1.1,0.6,3,2.5,3.4c1.2,0.2,2.9-0.8,2.9-2.8c0-0.4,0.4-0.4,0.4,0.2
			c-0.1,1.6-0.6,3.4-1.4,4.9c1.3,0,2.7,0,4,0c-0.8-1.5-1.3-3.4-1.4-4.9c0-0.5,0.4-0.6,0.4-0.2c0,2,1.7,3,2.9,2.8
			c1.9-0.4,2.5-2.3,2.5-3.4C26.7,18.2,23.4,15.7,20.3,11.3L20.3,11.3z"/>
		<path class="st3" d="M6,17c-1.4,1.8-3,2.9-3,4.3c0,0.5,0.3,1.3,1.2,1.4c0.6,0.1,1.4-0.3,1.4-1.2c0-0.2,0.2-0.2,0.2,0.1
			c0,0.7-0.3,1.4-0.7,2.1c0.6,0,1.3,0,1.9,0c-0.4-0.6-0.6-1.4-0.7-2.1c0-0.2,0.2-0.2,0.2-0.1c0,0.8,0.8,1.3,1.4,1.2
			c0.9-0.2,1.2-0.9,1.2-1.4C9,19.9,7.5,18.9,6,17L6,17z"/>
		<path class="st3" d="M69.2,88c-1.4-1.8-3-2.9-3-4.3c0-0.5,0.3-1.3,1.2-1.4c0.6-0.1,1.4,0.3,1.4,1.2c0,0.2,0.2,0.2,0.2-0.1
			c0-0.7-0.3-1.4-0.7-2.1c0.6,0,1.3,0,1.9,0c-0.4,0.6-0.6,1.4-0.7,2.1c0,0.2,0.2,0.2,0.2,0.1c0-0.8,0.8-1.3,1.4-1.2
			c0.9,0.2,1.2,0.9,1.2,1.4C72.2,85.1,70.6,86.2,69.2,88L69.2,88z"/>
		<path class="st3" d="M54.9,11.3c-3.1,4.4-6.4,6.9-6.4,10.4c0,1.1,0.6,3,2.5,3.4c1.2,0.2,2.9-0.8,2.9-2.8c0-0.4,0.4-0.4,0.4,0.2
			c-0.1,1.6-0.6,3.4-1.4,4.9c1.3,0,2.7,0,4,0c-0.8-1.5-1.3-3.4-1.4-4.9c0-0.5,0.4-0.6,0.4-0.2c0,2,1.7,3,2.9,2.8
			c1.9-0.4,2.5-2.3,2.5-3.4C61.3,18.2,58,15.7,54.9,11.3z"/>
		<path class="st3" d="M20.3,44.5c-3.1,4.4-6.4,6.9-6.4,10.4c0,1.1,0.6,3,2.5,3.4c1.2,0.2,2.9-0.8,2.9-2.8c0-0.4,0.4-0.4,0.4,0.2
			c-0.1,1.6-0.6,3.4-1.4,4.9c1.3,0,2.7,0,4,0c-0.8-1.5-1.3-3.4-1.4-4.9c0-0.5,0.4-0.6,0.4-0.2c0,2,1.7,3,2.9,2.8
			c1.9-0.4,2.5-2.3,2.5-3.4C26.7,51.4,23.4,48.9,20.3,44.5L20.3,44.5z"/>
		<path class="st3" d="M20.3,93.8c-3.1-4.4-6.4-6.9-6.4-10.4c0-1.1,0.6-3,2.5-3.4c1.2-0.2,2.9,0.8,2.9,2.8c0,0.4,0.4,0.4,0.4-0.2
			c-0.1-1.6-0.6-3.4-1.4-4.9c1.3,0,2.7,0,4,0c-0.8,1.5-1.3,3.4-1.4,4.9c0,0.5,0.4,0.6,0.4,0.2c0-2,1.7-3,2.9-2.8
			c1.9,0.4,2.5,2.3,2.5,3.4C26.7,86.8,23.4,89.4,20.3,93.8L20.3,93.8z"/>
		<path class="st3" d="M54.9,93.8c-3.1-4.4-6.4-6.9-6.4-10.4c0-1.1,0.6-3,2.5-3.4c1.2-0.2,2.9,0.8,2.9,2.8c0,0.4,0.4,0.4,0.4-0.2
			c-0.1-1.6-0.6-3.4-1.4-4.9c1.3,0,2.7,0,4,0c-0.8,1.5-1.3,3.4-1.4,4.9c0,0.5,0.4,0.6,0.4,0.2c0-2,1.7-3,2.9-2.8
			c1.9,0.4,2.5,2.3,2.5,3.4C61.3,86.8,58,89.4,54.9,93.8z"/>
		<path class="st3" d="M54.9,44.5c-3.1,4.4-6.4,6.9-6.4,10.4c0,1.1,0.6,3,2.5,3.4c1.2,0.2,2.9-0.8,2.9-2.8c0-0.4,0.4-0.4,0.4,0.2
			c-0.1,1.6-0.6,3.4-1.4,4.9c1.3,0,2.7,0,4,0c-0.8-1.5-1.3-3.4-1.4-4.9c0-0.5,0.4-0.6,0.4-0.2c0,2,1.7,3,2.9,2.8
			c1.9-0.4,2.5-2.3,2.5-3.4C61.3,51.4,58,48.9,54.9,44.5z"/>
		<path class="st3" d="M2.8,12.6c-0.1-0.9-0.1-3.3,0-4C3.1,6.4,4,5.4,5.4,5c1.4-0.3,3.3,0,3.7,1.9l-1.1,0C7.3,5.7,5.7,6,4.9,6.6
			C4.2,7,3.8,8.8,4,8.9c0,0,1.3-1,2.4-0.9c2.2,0.2,3.1,2.2,3.1,4c-0.1,2.2-0.8,3.9-3.1,4C4,15.9,3,14.7,2.8,12.6L2.8,12.6z M8.3,12
			c0-1.5-0.7-2.7-2-2.8C5,9.1,3.7,10.4,3.8,11.9c0.1,1.6,0.7,2.9,2.3,2.9C7.8,14.8,8.3,13.1,8.3,12L8.3,12z"/>
		<path class="st3" d="M72.4,92.5c0.1,0.9,0.1,3.3,0,4c-0.3,2.2-1.2,3.2-2.6,3.5c-1.4,0.3-3.3,0-3.7-1.9l1.1,0
			c0.6,1.2,2.2,0.9,3,0.4c0.7-0.4,1-2.2,0.9-2.3c0,0-1.3,1-2.4,0.9c-2.2-0.2-3.1-2.2-3.1-4c0.1-2.2,0.8-3.9,3.1-4
			C71.2,89.1,72.2,90.4,72.4,92.5L72.4,92.5z M66.9,93c0,1.5,0.7,2.7,2,2.8c1.3,0.1,2.6-1.1,2.5-2.7c-0.1-1.6-0.7-2.9-2.3-2.9
			C67.5,90.3,66.9,92,66.9,93z"/>
	</g>
</g>
</svg>
