<?xml version="1.0" encoding="utf-8"?>
<!-- Generator: Adobe Illustrator 19.1.0, SVG Export Plug-In . SVG Version: 6.00 Build 0)  -->
<svg version="1.1" xmlns="http://www.w3.org/2000/svg" xmlns:xlink="http://www.w3.org/1999/xlink" x="0px" y="0px"
	 viewBox="0 0 75.3 105.3" style="enable-background:new 0 0 75.3 105.3;" xml:space="preserve">
<style type="text/css">
	.st0{display:none;}
	.st1{fill:#FFFFFF;}
	.st2{fill:none;stroke:#010101;stroke-width:0.9967;}
	.st3{fill:#010101;}
	.st4{fill:none;stroke:#010101;stroke-width:1.0006;}
	.st5{fill:#E1CF20;}
	.st6{fill:#262964;}
	.st7{fill:#D31F26;}
	.st8{fill:#14130F;}
	.st9{fill:none;stroke:#010101;stroke-width:0.9929;}
	.st10{fill:#F6EB16;}
	.st11{fill:none;stroke:#010101;stroke-width:1.83;}
	.st12{clip-path:url(#SVGID_2_);}
	.st13{clip-path:url(#SVGID_4_);}
</style>
<g id="Layer_1" class="st0">
</g>
<g id="Layer_2">
	<g>
		<path class="st1" d="M3.5,0.5H71c2,0,3.6,1.6,3.6,3.6v97.3c0,2-1.6,3.6-3.6,3.6H3.5c-2,0-3.6-1.6-3.6-3.6V4.1
			C-0.1,2.1,1.5,0.5,3.5,0.5z"/>
		<path class="st4" d="M3.5,0.5H71c2,0,3.6,1.6,3.6,3.6v97.3c0,2-1.6,3.6-3.6,3.6H3.5c-2,0-3.6-1.6-3.6-3.6V4.1
			C-0.1,2.1,1.5,0.5,3.5,0.5z"/>
		<path class="st7" d="M5.7,24c-0.7-1.2-1.5-2.4-2.4-3.3c1-1,1.7-2.2,2.4-3.3c0.7,1.2,1.5,2.4,2.4,3.3C7.1,21.6,6.4,22.8,5.7,24z"/>
		<path class="st7" d="M54.6,27.5c-1.7-2.9-3.6-5.7-5.8-8c2.3-2.4,4.1-5.2,5.8-8c1.7,2.9,3.6,5.7,5.8,8
			C58.1,21.9,56.3,24.7,54.6,27.5z"/>
		<path class="st7" d="M68.8,88.2c-0.7-1.2-1.5-2.4-2.4-3.3c1-1,1.7-2.2,2.4-3.3c0.7,1.2,1.5,2.4,2.4,3.3
			C70.3,85.9,69.5,87,68.8,88.2z"/>
		<path class="st7" d="M19.9,27.5c-1.7-2.9-3.6-5.7-5.8-8c2.3-2.4,4.1-5.2,5.8-8c1.7,2.9,3.6,5.7,5.8,8
			C23.5,21.9,21.7,24.7,19.9,27.5z"/>
		<path class="st7" d="M37.2,44.2c-1.7-2.9-3.6-5.7-5.8-8c2.3-2.4,4.1-5.2,5.8-8c1.7,2.9,3.6,5.7,5.8,8C40.8,38.5,39,41.3,37.2,44.2
			z"/>
		<path class="st7" d="M19.9,60.8c-1.7-2.9-3.6-5.7-5.8-8c2.3-2.4,4.1-5.2,5.8-8c1.7,2.9,3.6,5.7,5.8,8
			C23.5,55.1,21.7,57.9,19.9,60.8z"/>
		<path class="st7" d="M54.6,60.8c-1.7-2.9-3.6-5.7-5.8-8c2.3-2.4,4.1-5.2,5.8-8c1.7,2.9,3.6,5.7,5.8,8
			C58.1,55.1,56.3,57.9,54.6,60.8z"/>
		<path class="st7" d="M19.9,94c-1.7-2.9-3.6-5.7-5.8-8c2.3-2.4,4.1-5.2,5.8-8c1.7,2.9,3.6,5.7,5.8,8C23.5,88.3,21.7,91.1,19.9,94z"
			/>
		<path class="st7" d="M54.6,94c-1.7-2.9-3.6-5.7-5.8-8c2.3-2.4,4.1-5.2,5.8-8c1.7,2.9,3.6,5.7,5.8,8C58.1,88.3,56.3,91.1,54.6,94z"
			/>
		<path class="st7" d="M4,16.2c0.7-3.8,1.5-6.7,3.5-9.9H3.4v1.3H2.3V5.1h6L9,6.3c-2.2,2.4-4.1,10-3.8,9.9H4z"/>
		<path class="st7" d="M70.5,89.3C69.8,93.1,69,96,67,99.1h4.1v-1.3h1.1v2.5h-6l-0.7-1.2c2.2-2.4,4.1-10,3.8-9.9H70.5z"/>
	</g>
</g>
</svg>
