<?xml version="1.0" encoding="utf-8"?>
<!-- Generator: Adobe Illustrator 19.1.0, SVG Export Plug-In . SVG Version: 6.00 Build 0)  -->
<svg version="1.1" xmlns="http://www.w3.org/2000/svg" xmlns:xlink="http://www.w3.org/1999/xlink" x="0px" y="0px"
	 viewBox="0 0 75.3 105.3" style="enable-background:new 0 0 75.3 105.3;" xml:space="preserve">
<style type="text/css">
	.st0{display:none;}
	.st1{fill:#FFFFFF;}
	.st2{fill:none;stroke:#010101;stroke-width:0.9967;}
	.st3{fill:#010101;}
	.st4{fill:none;stroke:#010101;stroke-width:1.0006;}
	.st5{fill:#E1CF20;}
	.st6{fill:#262964;}
	.st7{fill:#D31F26;}
	.st8{fill:#14130F;}
	.st9{fill:none;stroke:#010101;stroke-width:0.9929;}
	.st10{fill:#F6EB16;}
	.st11{fill:none;stroke:#010101;stroke-width:1.83;}
	.st12{clip-path:url(#SVGID_2_);}
	.st13{clip-path:url(#SVGID_4_);}
</style>
<g id="Layer_1" class="st0">
</g>
<g id="Layer_2">
	<g>
		<path class="st1" d="M4.2,0.6h67.5c2,0,3.6,1.6,3.6,3.6v97.3c0,2-1.6,3.6-3.6,3.6H4.2c-2,0-3.6-1.6-3.6-3.6V4.1
			C0.6,2.2,2.2,0.6,4.2,0.6z"/>
		<path class="st2" d="M4.2,0.6h67.5c2,0,3.6,1.6,3.6,3.6v97.3c0,2-1.6,3.6-3.6,3.6H4.2c-2,0-3.6-1.6-3.6-3.6V4.1
			C0.6,2.2,2.2,0.6,4.2,0.6z"/>
		<path class="st3" d="M55.3,11.6c-3.3,0.1-4.8,3.8-2.3,6.6c0.4,0.4,0.4,0.7-0.3,0.3c-1.6-1.1-4.8-0.4-4.9,3
			c-0.2,4.1,5.6,5.3,6.6,0.9c0.1-0.5,0.4-0.5,0.3,0.2c-0.1,1.8-0.7,3.4-1.4,5.1c1.3,0,2.7,0,3.9,0c-0.8-1.6-1.3-3.3-1.4-5.1
			c-0.1-0.7,0.3-0.7,0.3-0.2c1.1,4.4,6.8,3.2,6.6-0.9c-0.2-3.3-3.3-4.1-4.9-3c-0.6,0.4-0.6,0.2-0.3-0.3
			C60.1,15.4,58.6,11.7,55.3,11.6L55.3,11.6L55.3,11.6z"/>
		<path class="st3" d="M20.7,11.6c-3.3,0.1-4.8,3.8-2.3,6.6c0.4,0.4,0.4,0.7-0.3,0.3c-1.6-1.1-4.8-0.4-4.9,3
			c-0.2,4.1,5.6,5.3,6.6,0.9c0.1-0.5,0.4-0.5,0.3,0.2c-0.1,1.8-0.7,3.4-1.4,5.1c1.3,0,2.7,0,3.9,0c-0.8-1.6-1.3-3.3-1.4-5.1
			c-0.1-0.7,0.3-0.7,0.3-0.2c1.1,4.4,6.8,3.2,6.6-0.9c-0.2-3.3-3.3-4.1-4.9-3c-0.6,0.4-0.6,0.2-0.3-0.3C25.4,15.4,24,11.7,20.7,11.6
			L20.7,11.6L20.7,11.6z"/>
		<path class="st3" d="M55.3,94.2c-3.3-0.1-4.8-3.8-2.3-6.6c0.4-0.4,0.4-0.7-0.3-0.3c-1.6,1.1-4.8,0.4-4.9-3
			c-0.2-4.1,5.6-5.3,6.6-0.9c0.1,0.5,0.4,0.5,0.3-0.2c-0.1-1.8-0.7-3.4-1.4-5.1c1.3,0,2.7,0,3.9,0c-0.8,1.6-1.3,3.3-1.4,5.1
			c-0.1,0.7,0.3,0.7,0.3,0.2c1.1-4.4,6.8-3.2,6.6,0.9c-0.2,3.3-3.3,4.1-4.9,3c-0.6-0.4-0.6-0.2-0.3,0.3
			C60.1,90.4,58.6,94.1,55.3,94.2L55.3,94.2L55.3,94.2z"/>
		<path class="st3" d="M20.7,94.2c-3.3-0.1-4.8-3.8-2.3-6.6c0.4-0.4,0.4-0.7-0.3-0.3c-1.6,1.1-4.8,0.4-4.9-3
			c-0.2-4.1,5.6-5.3,6.6-0.9c0.1,0.5,0.4,0.5,0.3-0.2c-0.1-1.8-0.7-3.4-1.4-5.1c1.3,0,2.7,0,3.9,0c-0.8,1.6-1.3,3.3-1.4,5.1
			c-0.1,0.7,0.3,0.7,0.3,0.2c1.1-4.4,6.8-3.2,6.6,0.9c-0.2,3.3-3.3,4.1-4.9,3c-0.6-0.4-0.6-0.2-0.3,0.3C25.4,90.4,24,94.1,20.7,94.2
			L20.7,94.2L20.7,94.2z"/>
		<path class="st3" d="M38,28.3c-3.3,0.1-4.8,3.8-2.3,6.6c0.4,0.4,0.4,0.7-0.3,0.3c-1.6-1.1-4.8-0.4-4.9,3c-0.2,4.1,5.6,5.3,6.6,0.9
			c0.1-0.5,0.4-0.5,0.3,0.2c-0.1,1.8-0.7,3.4-1.4,5.1c1.3,0,2.7,0,3.9,0c-0.8-1.6-1.3-3.3-1.4-5.1c-0.1-0.7,0.3-0.7,0.3-0.2
			c1.1,4.4,6.8,3.2,6.6-0.9c-0.2-3.3-3.3-4.1-4.9-3c-0.6,0.4-0.6,0.2-0.3-0.3C42.7,32,41.3,28.3,38,28.3L38,28.3L38,28.3z"/>
		<path class="st3" d="M55.3,44.9c-3.3,0.1-4.8,3.8-2.3,6.6c0.4,0.4,0.4,0.7-0.3,0.3c-1.6-1.1-4.8-0.4-4.9,3
			c-0.2,4.1,5.6,5.3,6.6,0.9c0.1-0.5,0.4-0.5,0.3,0.2c-0.1,1.8-0.7,3.4-1.4,5.1c1.3,0,2.7,0,3.9,0c-0.8-1.6-1.3-3.3-1.4-5.1
			c-0.1-0.7,0.3-0.7,0.3-0.2c1.1,4.4,6.8,3.2,6.6-0.9c-0.2-3.3-3.3-4.1-4.9-3c-0.6,0.4-0.6,0.2-0.3-0.3
			C60.1,48.6,58.6,44.9,55.3,44.9L55.3,44.9L55.3,44.9z"/>
		<path class="st3" d="M20.7,44.9c-3.3,0.1-4.8,3.8-2.3,6.6c0.4,0.4,0.4,0.7-0.3,0.3c-1.6-1.1-4.8-0.4-4.9,3
			c-0.2,4.1,5.6,5.3,6.6,0.9c0.1-0.5,0.4-0.5,0.3,0.2c-0.1,1.8-0.7,3.4-1.4,5.1c1.3,0,2.7,0,3.9,0c-0.8-1.6-1.3-3.3-1.4-5.1
			c-0.1-0.7,0.3-0.7,0.3-0.2c1.1,4.4,6.8,3.2,6.6-0.9c-0.2-3.3-3.3-4.1-4.9-3c-0.6,0.4-0.6,0.2-0.3-0.3C25.4,48.6,24,44.9,20.7,44.9
			L20.7,44.9L20.7,44.9z"/>
		<path class="st3" d="M38,77.6c-3.3-0.1-4.8-3.8-2.3-6.6c0.4-0.4,0.4-0.7-0.3-0.3c-1.6,1.1-4.8,0.4-4.9-3c-0.2-4.1,5.6-5.3,6.6-0.9
			c0.1,0.5,0.4,0.5,0.3-0.2c-0.1-1.8-0.7-3.4-1.4-5.1c1.3,0,2.7,0,3.9,0c-0.8,1.6-1.3,3.3-1.4,5.1c-0.1,0.7,0.3,0.7,0.3,0.2
			c1.1-4.4,6.8-3.2,6.6,0.9c-0.2,3.3-3.3,4.1-4.9,3c-0.6-0.4-0.6-0.2-0.3,0.3C42.7,73.8,41.3,77.5,38,77.6L38,77.6L38,77.6z"/>
		<path class="st3" d="M69.6,88.3c1.3,0,1.9-1.6,0.9-2.8c-0.1-0.2-0.2-0.3,0.1-0.1c0.7,0.5,1.9,0.2,2-1.2c0.1-1.7-2.2-2.2-2.7-0.4
			c0,0.2-0.2,0.2-0.1-0.1c0-0.7,0.3-1.4,0.6-2.1c-0.5,0-1,0-1.6,0c0.3,0.7,0.5,1.4,0.6,2.1c0,0.3-0.1,0.3-0.1,0.1
			c-0.4-1.8-2.7-1.3-2.7,0.4c0.1,1.4,1.3,1.7,2,1.2c0.3-0.2,0.2-0.1,0.1,0.1C67.7,86.7,68.2,88.2,69.6,88.3L69.6,88.3z"/>
		<path class="st3" d="M6.4,17.3c-1.3,0-1.9,1.6-0.9,2.8c0.1,0.2,0.2,0.3-0.1,0.1c-0.7-0.5-1.9-0.2-2,1.2c-0.1,1.7,2.2,2.2,2.7,0.4
			c0-0.2,0.2-0.2,0.1,0.1c0,0.7-0.3,1.4-0.6,2.1c0.5,0,1,0,1.6,0c-0.3-0.7-0.5-1.4-0.6-2.1c0-0.3,0.1-0.3,0.1-0.1
			c0.4,1.8,2.7,1.3,2.7-0.4c-0.1-1.4-1.3-1.7-2-1.2c-0.3,0.2-0.2,0.1-0.1-0.1C8.3,18.9,7.7,17.3,6.4,17.3L6.4,17.3z"/>
		<path class="st3" d="M2.8,13c0.1-1.5,0.6-2,1.6-2.8C3.6,9.6,3.3,8.7,3.3,7.9c0.2-1.8,1.6-2.8,3.2-2.7c1.6,0,2.9,1.3,3,2.6
			C9.6,9,9.2,9.5,8.4,10.2C9.4,11,10,11.5,10,13c0,1.5-1.3,3.2-3.4,3.3C4.4,16.3,2.8,14.5,2.8,13L2.8,13z M8.9,13
			c0.1-1.3-1.1-2.2-2.4-2.3c-1.3,0-2.5,1.1-2.5,2.3c0,1.3,1.5,2,2.5,2C7.6,15.1,8.8,14.2,8.9,13z M8.4,8.2c0-1.1-1-1.9-2.1-1.9
			c-1,0-2,0.8-2,1.7c0,1.2,1.2,1.8,2.1,1.8C7.4,9.8,8.4,9.1,8.4,8.2z"/>
		<path class="st3" d="M66,92.5c0.1,1.5,0.6,2,1.6,2.8c-0.8,0.6-1.2,1.5-1.1,2.3c0.2,1.8,1.6,2.8,3.2,2.7c1.6,0,2.9-1.3,3-2.6
			c0.1-1.2-0.3-1.7-1.1-2.3c1-0.8,1.6-1.4,1.6-2.8c0-1.5-1.3-3.2-3.4-3.3C67.6,89.3,65.9,91.1,66,92.5L66,92.5z M72,92.5
			c0.1,1.3-1.1,2.2-2.4,2.3c-1.3,0-2.5-1.1-2.5-2.3c0-1.3,1.5-2,2.5-2C70.8,90.5,71.9,91.4,72,92.5L72,92.5z M71.6,97.3
			c0,1.1-1,1.9-2.1,1.9c-1,0-2-0.8-2-1.7c0-1.2,1.2-1.8,2.1-1.8C70.6,95.7,71.6,96.5,71.6,97.3z"/>
	</g>
</g>
</svg>
