<?xml version="1.0" encoding="utf-8"?>
<!-- Generator: Adobe Illustrator 19.1.0, SVG Export Plug-In . SVG Version: 6.00 Build 0)  -->
<svg version="1.1" xmlns="http://www.w3.org/2000/svg" xmlns:xlink="http://www.w3.org/1999/xlink" x="0px" y="0px"
	 viewBox="0 0 75.3 105.3" style="enable-background:new 0 0 75.3 105.3;" xml:space="preserve">
<style type="text/css">
	.st0{display:none;}
	.st1{fill:#FFFFFF;}
	.st2{fill:none;stroke:#010101;stroke-width:0.9967;}
	.st3{fill:#010101;}
	.st4{fill:none;stroke:#010101;stroke-width:1.0006;}
	.st5{fill:#E1CF20;}
	.st6{fill:#262964;}
	.st7{fill:#D31F26;}
	.st8{fill:#14130F;}
	.st9{fill:none;stroke:#010101;stroke-width:0.9929;}
	.st10{fill:#F6EB16;}
	.st11{fill:none;stroke:#010101;stroke-width:1.83;}
	.st12{clip-path:url(#SVGID_2_);}
	.st13{clip-path:url(#SVGID_4_);}
</style>
<g id="Layer_1" class="st0">
</g>
<g id="Layer_2">
	<g>
		<path class="st1" d="M3.9,0.5h67.5c2,0,3.6,1.6,3.6,3.6v97.3c0,2-1.6,3.6-3.6,3.6H3.9c-2,0-3.6-1.6-3.6-3.6V4.1
			C0.3,2.1,1.9,0.5,3.9,0.5z"/>
		<path class="st4" d="M3.9,0.5h67.5c2,0,3.6,1.6,3.6,3.6v97.3c0,2-1.6,3.6-3.6,3.6H3.9c-2,0-3.6-1.6-3.6-3.6V4.1
			C0.3,2.1,1.9,0.5,3.9,0.5z"/>
		<path class="st7" d="M6.1,24c-0.7-1.2-1.5-2.4-2.4-3.3c1-1,1.7-2.2,2.4-3.3c0.7,1.2,1.5,2.4,2.4,3.3C7.6,21.6,6.8,22.8,6.1,24z"/>
		<path class="st7" d="M55,27.5c-1.7-2.9-3.6-5.7-5.8-8c2.3-2.4,4.1-5.2,5.8-8c1.7,2.9,3.6,5.7,5.8,8C58.6,21.9,56.7,24.7,55,27.5z"
			/>
		<path class="st7" d="M69.3,88.2c-0.7-1.2-1.5-2.4-2.4-3.3c1-1,1.7-2.2,2.4-3.3c0.7,1.2,1.5,2.4,2.4,3.3C70.7,85.9,70,87,69.3,88.2
			z"/>
		<path class="st7" d="M20.4,27.5c-1.7-2.9-3.6-5.7-5.8-8c2.3-2.4,4.1-5.2,5.8-8c1.7,2.9,3.6,5.7,5.8,8
			C23.9,21.9,22.1,24.7,20.4,27.5z"/>
		<path class="st7" d="M37.7,44.2c-1.7-2.9-3.6-5.7-5.8-8c2.3-2.4,4.1-5.2,5.8-8c1.7,2.9,3.6,5.7,5.8,8
			C41.2,38.5,39.4,41.3,37.7,44.2z"/>
		<path class="st7" d="M20.4,60.8c-1.7-2.9-3.6-5.7-5.8-8c2.3-2.4,4.1-5.2,5.8-8c1.7,2.9,3.6,5.7,5.8,8
			C23.9,55.1,22.1,57.9,20.4,60.8z"/>
		<path class="st7" d="M55,60.8c-1.7-2.9-3.6-5.7-5.8-8c2.3-2.4,4.1-5.2,5.8-8c1.7,2.9,3.6,5.7,5.8,8C58.6,55.1,56.7,57.9,55,60.8z"
			/>
		<path class="st7" d="M20.4,94c-1.7-2.9-3.6-5.7-5.8-8c2.3-2.4,4.1-5.2,5.8-8c1.7,2.9,3.6,5.7,5.8,8C23.9,88.3,22.1,91.1,20.4,94z"
			/>
		<path class="st7" d="M55,94c-1.7-2.9-3.6-5.7-5.8-8c2.3-2.4,4.1-5.2,5.8-8c1.7,2.9,3.6,5.7,5.8,8C58.6,88.3,56.7,91.1,55,94z"/>
		<path class="st7" d="M37.7,77.4c-1.7-2.9-3.6-5.7-5.8-8c2.3-2.4,4.1-5.2,5.8-8c1.7,2.9,3.6,5.7,5.8,8
			C41.2,71.7,39.4,74.5,37.7,77.4z"/>
		<path class="st7" d="M2.5,13c0.1-1.5,0.6-2,1.6-2.8C3.3,9.5,3,8.6,3,7.9C3.2,6,4.6,5.1,6.2,5.2c1.6,0,2.9,1.3,3,2.6
			c0.1,1.2-0.3,1.7-1.1,2.3c1,0.8,1.6,1.4,1.6,2.8c0,1.5-1.3,3.2-3.4,3.3C4.1,16.3,2.5,14.4,2.5,13L2.5,13z M8.6,13
			c0.1-1.3-1.1-2.2-2.4-2.3c-1.3,0-2.5,1.1-2.5,2.3c0,1.3,1.5,2,2.5,2C7.3,15,8.5,14.1,8.6,13z M8.1,8.2c0-1.1-1-1.9-2.1-1.9
			c-1,0-2,0.8-2,1.7c0,1.2,1.2,1.8,2.1,1.8C7.1,9.8,8.1,9,8.1,8.2L8.1,8.2z"/>
		<path class="st7" d="M65.7,92.5c0.1,1.5,0.6,2,1.6,2.8c-0.8,0.6-1.2,1.5-1.1,2.3c0.2,1.8,1.6,2.8,3.2,2.7c1.6,0,2.9-1.3,3-2.6
			c0.1-1.2-0.3-1.7-1.1-2.3c1-0.8,1.6-1.4,1.6-2.8c0-1.5-1.3-3.2-3.4-3.3C67.2,89.2,65.6,91,65.7,92.5L65.7,92.5z M71.7,92.5
			c0.1,1.3-1.1,2.2-2.4,2.3c-1.3,0-2.5-1.1-2.5-2.3c0-1.3,1.5-2,2.5-2C70.5,90.4,71.6,91.3,71.7,92.5z M71.3,97.3
			c0,1.1-1,1.9-2.1,1.9c-1,0-2-0.8-2-1.7c0-1.2,1.2-1.8,2.1-1.8C70.2,95.7,71.3,96.4,71.3,97.3L71.3,97.3z"/>
	</g>
</g>
</svg>
