<?xml version="1.0" encoding="utf-8"?>
<!-- Generator: Adobe Illustrator 19.1.0, SVG Export Plug-In . SVG Version: 6.00 Build 0)  -->
<svg version="1.1" xmlns="http://www.w3.org/2000/svg" xmlns:xlink="http://www.w3.org/1999/xlink" x="0px" y="0px"
	 viewBox="0 0 75.3 105.3" style="enable-background:new 0 0 75.3 105.3;" xml:space="preserve">
<style type="text/css">
	.st0{display:none;}
	.st1{fill:#FFFFFF;}
	.st2{fill:none;stroke:#010101;stroke-width:0.9967;}
	.st3{fill:#010101;}
	.st4{fill:none;stroke:#010101;stroke-width:1.0006;}
	.st5{fill:#E1CF20;}
	.st6{fill:#262964;}
	.st7{fill:#D31F26;}
	.st8{fill:#14130F;}
	.st9{fill:none;stroke:#010101;stroke-width:0.9929;}
	.st10{fill:#F6EB16;}
	.st11{fill:none;stroke:#010101;stroke-width:1.83;}
	.st12{clip-path:url(#SVGID_2_);}
	.st13{clip-path:url(#SVGID_4_);}
</style>
<g id="Layer_1" class="st0">
</g>
<g id="Layer_2">
	<g>
		<path class="st1" d="M3.9,0.4h67.5C73.4,0.4,75,2,75,4v97.3c0,2-1.6,3.6-3.6,3.6H3.9c-2,0-3.6-1.6-3.6-3.6V4
			C0.3,2,1.9,0.4,3.9,0.4z"/>
		<path class="st4" d="M3.9,0.4h67.5C73.4,0.4,75,2,75,4v97.3c0,2-1.6,3.6-3.6,3.6H3.9c-2,0-3.6-1.6-3.6-3.6V4
			C0.3,2,1.9,0.4,3.9,0.4z"/>
		<path class="st7" d="M6.1,23.9c0,0-0.7-1.1-1.7-2.3c-0.7-0.8-1.2-1.8-1.3-2.5c-0.1-0.9,0.5-1.8,1.5-1.8c1,0,1.4,0.7,1.5,1.3
			c0.2-0.6,0.6-1.3,1.5-1.3c1,0,1.5,0.9,1.5,1.8c0,0.8-0.6,1.7-1.3,2.5C6.8,22.8,6.1,23.9,6.1,23.9z"/>
		<path class="st7" d="M69.3,81.4c0,0-0.7,1.1-1.7,2.3c-0.7,0.8-1.2,1.8-1.3,2.5c-0.1,0.9,0.5,1.8,1.5,1.8c1,0,1.4-0.7,1.5-1.3
			c0.2,0.6,0.6,1.3,1.5,1.3c1,0,1.5-0.9,1.5-1.8c0-0.8-0.6-1.7-1.3-2.5C70,82.5,69.3,81.4,69.3,81.4z"/>
		<path class="st7" d="M37.7,44.1c0,0-1.6-2.6-3.7-5.6c-1.4-2-2.5-4.2-2.6-6.1c-0.1-2.1,1-4.3,3.1-4.4c2.1-0.1,2.9,1.7,3.2,3.1
			c0.3-1.5,1.2-3.2,3.2-3.1c2.1,0.1,3.2,2.3,3.1,4.4c-0.1,1.9-1.2,4.1-2.6,6.1C39.2,41.5,37.7,44.1,37.7,44.1z"/>
		<path class="st7" d="M20.4,27.5c0,0-1.6-2.6-3.7-5.6c-1.4-2-2.5-4.2-2.6-6.1c-0.1-2.1,1-4.3,3.1-4.4c2.1-0.1,2.9,1.7,3.2,3.1
			c0.3-1.5,1.2-3.2,3.2-3.1c2.1,0.1,3.2,2.3,3.1,4.4c-0.1,1.9-1.2,4.1-2.6,6.1C21.9,24.9,20.4,27.5,20.4,27.5z"/>
		<path class="st7" d="M55,60.7c0,0-1.6-2.6-3.7-5.6c-1.4-2-2.5-4.2-2.6-6.1c-0.1-2.1,1-4.3,3.1-4.4c2.1-0.1,2.9,1.7,3.2,3.1
			c0.3-1.5,1.2-3.2,3.2-3.1c2.1,0.1,3.2,2.3,3.1,4.4c-0.1,1.9-1.2,4.1-2.6,6.1C56.6,58.1,55,60.7,55,60.7z"/>
		<path class="st7" d="M55,27.5c0,0-1.6-2.6-3.7-5.6c-1.4-2-2.5-4.2-2.6-6.1c-0.1-2.1,1-4.3,3.1-4.4c2.1-0.1,2.9,1.7,3.2,3.1
			c0.3-1.5,1.2-3.2,3.2-3.1c2.1,0.1,3.2,2.3,3.1,4.4c-0.1,1.9-1.2,4.1-2.6,6.1C56.6,24.9,55,27.5,55,27.5z"/>
		<path class="st7" d="M20.4,60.7c0,0-1.6-2.6-3.7-5.6c-1.4-2-2.5-4.2-2.6-6.1c-0.1-2.1,1-4.3,3.1-4.4c2.1-0.1,2.9,1.7,3.2,3.1
			c0.3-1.5,1.2-3.2,3.2-3.1c2.1,0.1,3.2,2.3,3.1,4.4c-0.1,1.9-1.2,4.1-2.6,6.1C21.9,58.1,20.4,60.7,20.4,60.7z"/>
		<path class="st7" d="M37.7,61.2c0,0-1.6,2.6-3.7,5.6c-1.4,2-2.5,4.2-2.6,6.1c-0.1,2.1,1,4.3,3.1,4.4c2.1,0.1,2.9-1.7,3.2-3.1
			c0.3,1.5,1.2,3.2,3.2,3.1c2.1-0.1,3.2-2.3,3.1-4.4c-0.1-1.9-1.2-4.1-2.6-6.1C39.2,63.8,37.7,61.2,37.7,61.2L37.7,61.2z"/>
		<path class="st7" d="M55,77.8c0,0-1.6,2.6-3.7,5.6c-1.4,2-2.5,4.2-2.6,6.1c-0.1,2.1,1,4.3,3.1,4.4c2.1,0.1,2.9-1.7,3.2-3.1
			c0.3,1.5,1.2,3.2,3.2,3.1c2.1-0.1,3.2-2.3,3.1-4.4c-0.1-1.9-1.2-4.1-2.6-6.1C56.6,80.4,55,77.8,55,77.8z"/>
		<path class="st7" d="M20.4,77.8c0,0-1.6,2.6-3.7,5.6c-1.4,2-2.5,4.2-2.6,6.1c-0.1,2.1,1,4.3,3.1,4.4c2.1,0.1,2.9-1.7,3.2-3.1
			c0.3,1.5,1.2,3.2,3.2,3.1c2.1-0.1,3.2-2.3,3.1-4.4c-0.1-1.9-1.2-4.1-2.6-6.1C21.9,80.4,20.4,77.8,20.4,77.8z"/>
		<path class="st7" d="M2.5,12.9c0.1-1.5,0.6-2,1.6-2.8C3.3,9.5,3,8.6,3,7.8C3.2,6,4.6,5,6.2,5.1c1.6,0,2.9,1.3,3,2.6
			C9.3,8.9,8.9,9.4,8.1,10c1,0.8,1.6,1.4,1.6,2.8c0,1.5-1.3,3.2-3.4,3.3C4.1,16.2,2.5,14.4,2.5,12.9L2.5,12.9z M8.6,12.9
			c0.1-1.3-1.1-2.2-2.4-2.3c-1.3,0-2.5,1.1-2.5,2.3c0,1.3,1.5,2,2.5,2C7.3,14.9,8.5,14,8.6,12.9L8.6,12.9z M8.1,8.1
			c0-1.1-1-1.9-2.1-1.9c-1,0-2,0.8-2,1.7c0,1.2,1.2,1.8,2.1,1.8C7.1,9.7,8.1,8.9,8.1,8.1L8.1,8.1z"/>
		<path class="st7" d="M65.7,92.4c0.1,1.5,0.6,2,1.6,2.8c-0.8,0.6-1.2,1.5-1.1,2.3c0.2,1.8,1.6,2.8,3.2,2.7c1.6,0,2.9-1.3,3-2.6
			c0.1-1.2-0.3-1.7-1.1-2.3c1-0.8,1.6-1.4,1.6-2.8c0-1.5-1.3-3.2-3.4-3.3C67.2,89.1,65.6,90.9,65.7,92.4L65.7,92.4z M71.7,92.4
			c0.1,1.3-1.1,2.2-2.4,2.3c-1.3,0-2.5-1.1-2.5-2.3c0-1.3,1.5-2,2.5-2C70.5,90.4,71.6,91.3,71.7,92.4z M71.3,97.2
			c0,1.1-1,1.9-2.1,1.9c-1,0-2-0.8-2-1.7c0-1.2,1.2-1.8,2.1-1.8C70.2,95.6,71.3,96.4,71.3,97.2L71.3,97.2z"/>
	</g>
</g>
</svg>
