<?xml version="1.0" encoding="utf-8"?>
<!-- Generator: Adobe Illustrator 19.1.0, SVG Export Plug-In . SVG Version: 6.00 Build 0)  -->
<svg version="1.1" xmlns="http://www.w3.org/2000/svg" xmlns:xlink="http://www.w3.org/1999/xlink" x="0px" y="0px"
	 viewBox="0 0 75.3 105.3" style="enable-background:new 0 0 75.3 105.3;" xml:space="preserve">
<style type="text/css">
	.st0{display:none;}
	.st1{fill:#FFFFFF;}
	.st2{fill:none;stroke:#010101;stroke-width:0.9967;}
	.st3{fill:#010101;}
	.st4{fill:none;stroke:#010101;stroke-width:1.0006;}
	.st5{fill:#E1CF20;}
	.st6{fill:#262964;}
	.st7{fill:#D31F26;}
	.st8{fill:#14130F;}
	.st9{fill:none;stroke:#010101;stroke-width:0.9929;}
	.st10{fill:#F6EB16;}
	.st11{fill:none;stroke:#010101;stroke-width:1.83;}
	.st12{clip-path:url(#SVGID_2_);}
	.st13{clip-path:url(#SVGID_4_);}
</style>
<g id="Layer_1" class="st0">
</g>
<g id="Layer_2">
	<g>
		<path class="st1" d="M3.7,0.3h67.5c2,0,3.6,1.6,3.6,3.6v97.3c0,2-1.6,3.6-3.6,3.6H3.7c-2,0-3.6-1.6-3.6-3.6V3.9
			C0.2,1.9,1.8,0.3,3.7,0.3z"/>
		<path class="st4" d="M3.7,0.3h67.5c2,0,3.6,1.6,3.6,3.6v97.3c0,2-1.6,3.6-3.6,3.6H3.7c-2,0-3.6-1.6-3.6-3.6V3.9
			C0.2,1.9,1.8,0.3,3.7,0.3z"/>
		<path class="st3" d="M20.2,11.3c-3.1,4.4-6.4,6.9-6.4,10.4c0,1.1,0.6,3,2.5,3.4c1.2,0.2,2.9-0.8,2.9-2.8c0-0.4,0.4-0.4,0.4,0.2
			c-0.1,1.6-0.6,3.4-1.4,4.9c1.3,0,2.7,0,4,0c-0.8-1.5-1.3-3.4-1.4-4.9c0-0.5,0.4-0.6,0.4-0.2c0,2,1.7,3,2.9,2.8
			c1.9-0.4,2.5-2.3,2.5-3.4C26.6,18.2,23.3,15.7,20.2,11.3z"/>
		<path class="st3" d="M5.9,17c-1.4,1.8-3,2.9-3,4.3c0,0.5,0.3,1.3,1.2,1.4c0.6,0.1,1.4-0.3,1.4-1.2c0-0.2,0.2-0.2,0.2,0.1
			c0,0.7-0.3,1.4-0.7,2.1c0.6,0,1.3,0,1.9,0c-0.4-0.6-0.6-1.4-0.7-2.1c0-0.2,0.2-0.2,0.2-0.1c0,0.8,0.8,1.3,1.4,1.2
			c0.9-0.2,1.2-0.9,1.2-1.4C8.9,19.9,7.4,18.9,5.9,17L5.9,17z"/>
		<path class="st3" d="M69.1,88c-1.4-1.8-3-2.9-3-4.3c0-0.5,0.3-1.3,1.2-1.4c0.6-0.1,1.4,0.3,1.4,1.2c0,0.2,0.2,0.2,0.2-0.1
			c0-0.7-0.3-1.4-0.7-2.1c0.6,0,1.3,0,1.9,0c-0.4,0.6-0.6,1.4-0.7,2.1c0,0.2,0.2,0.2,0.2,0.1c0-0.8,0.8-1.3,1.4-1.2
			c0.9,0.2,1.2,0.9,1.2,1.4C72.1,85.1,70.5,86.2,69.1,88L69.1,88z"/>
		<path class="st3" d="M54.8,11.3c-3.1,4.4-6.4,6.9-6.4,10.4c0,1.1,0.6,3,2.5,3.4c1.2,0.2,2.9-0.8,2.9-2.8c0-0.4,0.4-0.4,0.4,0.2
			c-0.1,1.6-0.6,3.4-1.4,4.9c1.3,0,2.7,0,4,0c-0.8-1.5-1.3-3.4-1.4-4.9c0-0.5,0.4-0.6,0.4-0.2c0,2,1.7,3,2.9,2.8
			c1.9-0.4,2.5-2.3,2.5-3.4C61.2,18.2,57.9,15.7,54.8,11.3z"/>
		<path class="st3" d="M37.5,27.9c-3.1,4.4-6.4,6.9-6.4,10.4c0,1.1,0.6,3,2.5,3.4c1.2,0.2,2.9-0.8,2.9-2.8c0-0.4,0.4-0.4,0.4,0.2
			c-0.1,1.6-0.6,3.4-1.4,4.9c1.3,0,2.7,0,4,0c-0.8-1.5-1.3-3.4-1.4-4.9c0-0.5,0.4-0.6,0.4-0.2c0,2,1.7,3,2.9,2.8
			c1.9-0.4,2.5-2.3,2.5-3.4C43.9,34.8,40.6,32.3,37.5,27.9z"/>
		<path class="st3" d="M20.2,44.5c-3.1,4.4-6.4,6.9-6.4,10.4c0,1.1,0.6,3,2.5,3.4c1.2,0.2,2.9-0.8,2.9-2.8c0-0.4,0.4-0.4,0.4,0.2
			c-0.1,1.6-0.6,3.4-1.4,4.9c1.3,0,2.7,0,4,0c-0.8-1.5-1.3-3.4-1.4-4.9c0-0.5,0.4-0.6,0.4-0.2c0,2,1.7,3,2.9,2.8
			c1.9-0.4,2.5-2.3,2.5-3.4C26.6,51.4,23.3,48.9,20.2,44.5z"/>
		<path class="st3" d="M20.2,93.8c-3.1-4.4-6.4-6.9-6.4-10.4c0-1.1,0.6-3,2.5-3.4c1.2-0.2,2.9,0.8,2.9,2.8c0,0.4,0.4,0.4,0.4-0.2
			c-0.1-1.6-0.6-3.4-1.4-4.9c1.3,0,2.7,0,4,0c-0.8,1.5-1.3,3.4-1.4,4.9c0,0.5,0.4,0.6,0.4,0.2c0-2,1.7-3,2.9-2.8
			c1.9,0.4,2.5,2.3,2.5,3.4C26.6,86.8,23.3,89.4,20.2,93.8z"/>
		<path class="st3" d="M54.8,93.8c-3.1-4.4-6.4-6.9-6.4-10.4c0-1.1,0.6-3,2.5-3.4c1.2-0.2,2.9,0.8,2.9,2.8c0,0.4,0.4,0.4,0.4-0.2
			c-0.1-1.6-0.6-3.4-1.4-4.9c1.3,0,2.7,0,4,0c-0.8,1.5-1.3,3.4-1.4,4.9c0,0.5,0.4,0.6,0.4,0.2c0-2,1.7-3,2.9-2.8
			c1.9,0.4,2.5,2.3,2.5,3.4C61.2,86.8,57.9,89.4,54.8,93.8z"/>
		<path class="st3" d="M37.5,77.2c-3.1-4.4-6.4-6.9-6.4-10.4c0-1.1,0.6-3,2.5-3.4c1.2-0.2,2.9,0.8,2.9,2.8c0,0.4,0.4,0.4,0.4-0.2
			c-0.1-1.6-0.6-3.4-1.4-4.9c1.3,0,2.7,0,4,0c-0.8,1.5-1.3,3.4-1.4,4.9c0,0.5,0.4,0.6,0.4,0.2c0-2,1.7-3,2.9-2.8
			c1.9,0.4,2.5,2.3,2.5,3.4C43.9,70.2,40.6,72.8,37.5,77.2z"/>
		<path class="st3" d="M54.8,44.5c-3.1,4.4-6.4,6.9-6.4,10.4c0,1.1,0.6,3,2.5,3.4c1.2,0.2,2.9-0.8,2.9-2.8c0-0.4,0.4-0.4,0.4,0.2
			c-0.1,1.6-0.6,3.4-1.4,4.9c1.3,0,2.7,0,4,0c-0.8-1.5-1.3-3.4-1.4-4.9c0-0.5,0.4-0.6,0.4-0.2c0,2,1.7,3,2.9,2.8
			c1.9-0.4,2.5-2.3,2.5-3.4C61.2,51.4,57.9,48.9,54.8,44.5z"/>
		<path class="st3" d="M2.4,12.8c0.1-1.5,0.6-2,1.6-2.8C3.2,9.3,2.8,8.4,2.9,7.7C3,5.8,4.5,4.9,6,4.9c1.6,0,2.9,1.3,3,2.6
			c0.1,1.2-0.3,1.7-1.1,2.3c1,0.8,1.6,1.4,1.6,2.8c0,1.5-1.3,3.2-3.4,3.3C3.9,16,2.3,14.2,2.4,12.8L2.4,12.8z M8.4,12.8
			c0.1-1.3-1.1-2.2-2.4-2.3c-1.3,0-2.5,1.1-2.5,2.3c0,1.3,1.5,2,2.5,2C7.2,14.8,8.3,13.9,8.4,12.8z M8,8C8,6.8,6.9,6,5.9,6
			c-1,0-2,0.8-2,1.7c0,1.2,1.2,1.8,2.1,1.8C6.9,9.6,7.9,8.8,8,8L8,8z"/>
		<path class="st3" d="M65.5,92.3c0.1,1.5,0.6,2,1.6,2.8c-0.8,0.6-1.2,1.5-1.1,2.3c0.2,1.8,1.6,2.8,3.2,2.7c1.6,0,2.9-1.3,3-2.6
			c0.1-1.2-0.3-1.7-1.1-2.3c1-0.8,1.6-1.4,1.6-2.8c0-1.5-1.3-3.2-3.4-3.3C67.1,89,65.4,90.8,65.5,92.3L65.5,92.3z M71.5,92.3
			c0.1,1.3-1.1,2.2-2.4,2.3c-1.3,0-2.5-1.1-2.5-2.3c0-1.3,1.5-2,2.5-2C70.3,90.2,71.5,91.1,71.5,92.3z M71.1,97.1
			c0,1.1-1,1.9-2.1,1.9c-1,0-2-0.8-2-1.7c0-1.2,1.2-1.8,2.1-1.8C70.1,95.5,71.1,96.2,71.1,97.1L71.1,97.1z"/>
	</g>
</g>
</svg>
