<?xml version="1.0" encoding="utf-8"?>
<!-- Generator: Adobe Illustrator 19.1.0, SVG Export Plug-In . SVG Version: 6.00 Build 0)  -->
<svg version="1.1" xmlns="http://www.w3.org/2000/svg" xmlns:xlink="http://www.w3.org/1999/xlink" x="0px" y="0px"
	 viewBox="0 0 75.3 105.3" style="enable-background:new 0 0 75.3 105.3;" xml:space="preserve">
<style type="text/css">
	.st0{display:none;}
	.st1{fill:#FFFFFF;}
	.st2{fill:none;stroke:#010101;stroke-width:0.9967;}
	.st3{fill:#010101;}
	.st4{fill:none;stroke:#010101;stroke-width:1.0006;}
	.st5{fill:#E1CF20;}
	.st6{fill:#262964;}
	.st7{fill:#D31F26;}
	.st8{fill:#14130F;}
	.st9{fill:none;stroke:#010101;stroke-width:0.9929;}
	.st10{fill:#F6EB16;}
	.st11{fill:none;stroke:#010101;stroke-width:1.83;}
	.st12{clip-path:url(#SVGID_2_);}
	.st13{clip-path:url(#SVGID_4_);}
</style>
<g id="Layer_1" class="st0">
</g>
<g id="Layer_2">
	<g>
		<path class="st1" d="M3.7,0.6h67.5c2,0,3.6,1.6,3.6,3.6v97.3c0,2-1.6,3.6-3.6,3.6H3.7c-2,0-3.6-1.6-3.6-3.6V4.1
			C0.1,2.2,1.7,0.6,3.7,0.6z"/>
		<path class="st2" d="M3.7,0.6h67.5c2,0,3.6,1.6,3.6,3.6v97.3c0,2-1.6,3.6-3.6,3.6H3.7c-2,0-3.6-1.6-3.6-3.6V4.1
			C0.1,2.2,1.7,0.6,3.7,0.6z"/>
		<path class="st3" d="M54.7,11.6c-3.3,0.1-4.8,3.8-2.3,6.6c0.4,0.4,0.4,0.7-0.3,0.3c-1.6-1.1-4.8-0.4-4.9,3
			c-0.2,4.1,5.6,5.3,6.6,0.9c0.1-0.5,0.4-0.5,0.3,0.2c-0.1,1.8-0.7,3.4-1.4,5.1c1.3,0,2.7,0,3.9,0c-0.8-1.6-1.3-3.3-1.4-5.1
			c-0.1-0.7,0.3-0.7,0.3-0.2c1.1,4.4,6.8,3.2,6.6-0.9c-0.2-3.3-3.3-4.1-4.9-3c-0.6,0.4-0.6,0.2-0.3-0.3C59.5,15.4,58,11.7,54.7,11.6
			L54.7,11.6L54.7,11.6z"/>
		<path class="st3" d="M20.1,11.6c-3.3,0.1-4.8,3.8-2.3,6.6c0.4,0.4,0.4,0.7-0.3,0.3c-1.6-1.1-4.8-0.4-4.9,3
			c-0.2,4.1,5.6,5.3,6.6,0.9c0.1-0.5,0.4-0.5,0.3,0.2c-0.1,1.8-0.7,3.4-1.4,5.1c1.3,0,2.7,0,3.9,0c-0.8-1.6-1.3-3.3-1.4-5.1
			C20.6,22,20.9,22,21,22.4c1.1,4.4,6.8,3.2,6.6-0.9c-0.2-3.3-3.3-4.1-4.9-3c-0.6,0.4-0.6,0.2-0.3-0.3
			C24.9,15.4,23.4,11.7,20.1,11.6L20.1,11.6L20.1,11.6z"/>
		<path class="st3" d="M54.7,94.2c-3.3-0.1-4.8-3.8-2.3-6.6c0.4-0.4,0.4-0.7-0.3-0.3c-1.6,1.1-4.8,0.4-4.9-3
			c-0.2-4.1,5.6-5.3,6.6-0.9c0.1,0.5,0.4,0.5,0.3-0.2c-0.1-1.8-0.7-3.4-1.4-5.1c1.3,0,2.7,0,3.9,0c-0.8,1.6-1.3,3.3-1.4,5.1
			c-0.1,0.7,0.3,0.7,0.3,0.2c1.1-4.4,6.8-3.2,6.6,0.9c-0.2,3.3-3.3,4.1-4.9,3c-0.6-0.4-0.6-0.2-0.3,0.3C59.5,90.4,58,94.1,54.7,94.2
			L54.7,94.2L54.7,94.2z"/>
		<path class="st3" d="M20.1,94.2c-3.3-0.1-4.8-3.8-2.3-6.6c0.4-0.4,0.4-0.7-0.3-0.3c-1.6,1.1-4.8,0.4-4.9-3
			c-0.2-4.1,5.6-5.3,6.6-0.9c0.1,0.5,0.4,0.5,0.3-0.2c-0.1-1.8-0.7-3.4-1.4-5.1c1.3,0,2.7,0,3.9,0c-0.8,1.6-1.3,3.3-1.4,5.1
			c-0.1,0.7,0.3,0.7,0.3,0.2c1.1-4.4,6.8-3.2,6.6,0.9c-0.2,3.3-3.3,4.1-4.9,3c-0.6-0.4-0.6-0.2-0.3,0.3
			C24.9,90.4,23.4,94.1,20.1,94.2L20.1,94.2L20.1,94.2z"/>
		<path class="st3" d="M37.4,44.9c-3.3,0.1-4.8,3.8-2.3,6.6c0.4,0.4,0.4,0.7-0.3,0.3c-1.6-1.1-4.8-0.4-4.9,3
			c-0.2,4.1,5.6,5.3,6.6,0.9c0.1-0.5,0.4-0.5,0.3,0.2c-0.1,1.8-0.7,3.4-1.4,5.1c1.3,0,2.7,0,3.9,0c-0.8-1.6-1.3-3.3-1.4-5.1
			c-0.1-0.7,0.3-0.7,0.3-0.2c1.1,4.4,6.8,3.2,6.6-0.9c-0.2-3.3-3.3-4.1-4.9-3c-0.6,0.4-0.6,0.2-0.3-0.3
			C42.2,48.6,40.7,44.9,37.4,44.9L37.4,44.9L37.4,44.9z"/>
		<path class="st3" d="M69,88.3c1.3,0,1.9-1.6,0.9-2.8c-0.1-0.2-0.2-0.3,0.1-0.1c0.7,0.5,1.9,0.2,2-1.2c0.1-1.7-2.2-2.2-2.7-0.4
			c0,0.2-0.2,0.2-0.1-0.1c0-0.7,0.3-1.4,0.6-2.1c-0.5,0-1,0-1.6,0c0.3,0.7,0.5,1.4,0.6,2.1c0,0.3-0.1,0.3-0.1,0.1
			c-0.4-1.8-2.7-1.3-2.7,0.4c0.1,1.4,1.3,1.7,2,1.2c0.3-0.2,0.2-0.1,0.1,0.1C67.1,86.7,67.7,88.2,69,88.3L69,88.3z"/>
		<path class="st3" d="M20.1,33.8c-3.3,0.1-4.8,3.8-2.3,6.6c0.4,0.4,0.4,0.7-0.3,0.3c-1.6-1.1-4.8-0.4-4.9,3
			c-0.2,4.1,5.6,5.3,6.6,0.9c0.1-0.5,0.4-0.5,0.3,0.2c-0.1,1.8-0.7,3.4-1.4,5.1c1.3,0,2.7,0,3.9,0c-0.8-1.6-1.3-3.3-1.4-5.1
			c-0.1-0.7,0.3-0.7,0.3-0.2c1.1,4.4,6.8,3.2,6.6-0.9c-0.2-3.3-3.3-4.1-4.9-3c-0.6,0.4-0.6,0.2-0.3-0.3
			C24.9,37.6,23.4,33.9,20.1,33.8L20.1,33.8L20.1,33.8z"/>
		<path class="st3" d="M20.1,72c-3.3-0.1-4.8-3.8-2.3-6.6c0.4-0.4,0.4-0.7-0.3-0.3c-1.6,1.1-4.8,0.4-4.9-3c-0.2-4.1,5.6-5.3,6.6-0.9
			c0.1,0.5,0.4,0.5,0.3-0.2c-0.1-1.8-0.7-3.4-1.4-5.1c1.3,0,2.7,0,3.9,0c-0.8,1.6-1.3,3.3-1.4,5.1c-0.1,0.7,0.3,0.7,0.3,0.2
			c1.1-4.4,6.8-3.2,6.6,0.9c-0.2,3.3-3.3,4.1-4.9,3c-0.6-0.4-0.6-0.2-0.3,0.3C24.9,68.3,23.4,72,20.1,72L20.1,72L20.1,72z"/>
		<path class="st3" d="M54.7,33.8c-3.3,0.1-4.8,3.8-2.3,6.6c0.4,0.4,0.4,0.7-0.3,0.3c-1.6-1.1-4.8-0.4-4.9,3
			c-0.2,4.1,5.6,5.3,6.6,0.9c0.1-0.5,0.4-0.5,0.3,0.2c-0.1,1.8-0.7,3.4-1.4,5.1c1.3,0,2.7,0,3.9,0c-0.8-1.6-1.3-3.3-1.4-5.1
			c-0.1-0.7,0.3-0.7,0.3-0.2c1.1,4.4,6.8,3.2,6.6-0.9c-0.2-3.3-3.3-4.1-4.9-3c-0.6,0.4-0.6,0.2-0.3-0.3C59.5,37.6,58,33.9,54.7,33.8
			L54.7,33.8L54.7,33.8z"/>
		<path class="st3" d="M54.7,72c-3.3-0.1-4.8-3.8-2.3-6.6c0.4-0.4,0.4-0.7-0.3-0.3c-1.6,1.1-4.8,0.4-4.9-3c-0.2-4.1,5.6-5.3,6.6-0.9
			c0.1,0.5,0.4,0.5,0.3-0.2c-0.1-1.8-0.7-3.4-1.4-5.1c1.3,0,2.7,0,3.9,0c-0.8,1.6-1.3,3.3-1.4,5.1c-0.1,0.7,0.3,0.7,0.3,0.2
			c1.1-4.4,6.8-3.2,6.6,0.9c-0.2,3.3-3.3,4.1-4.9,3c-0.6-0.4-0.6-0.2-0.3,0.3C59.5,68.3,58,72,54.7,72L54.7,72L54.7,72z"/>
		<path class="st3" d="M5.9,17.3c-1.3,0-1.9,1.6-0.9,2.8c0.1,0.2,0.2,0.3-0.1,0.1c-0.7-0.5-1.9-0.2-2,1.2c-0.1,1.7,2.2,2.2,2.7,0.4
			c0-0.2,0.2-0.2,0.1,0.1c0,0.7-0.3,1.4-0.6,2.1c0.5,0,1,0,1.6,0c-0.3-0.7-0.5-1.4-0.6-2.1c0-0.3,0.1-0.3,0.1-0.1
			c0.4,1.8,2.7,1.3,2.7-0.4c-0.1-1.4-1.3-1.7-2-1.2c-0.3,0.2-0.2,0.1-0.1-0.1C7.8,18.9,7.2,17.3,5.9,17.3L5.9,17.3z"/>
		<path class="st3" d="M2.8,14.1l1-0.3c0.4,1,1.2,1.3,2,1.3c1.5-0.1,1.9-1.8,2.1-3.2c-0.6,0.6-1.4,0.9-2.2,0.9
			c-2.3-0.1-2.9-2-2.9-3.9C2.6,7.1,3.3,5.9,4.5,5.4c0.6-0.3,2-0.3,2.7,0.1c1.4,0.8,2,2.1,1.9,5.2c0,2.6-0.5,5.5-3.3,5.6
			C4.1,16.4,2.9,15.2,2.8,14.1L2.8,14.1z M6.7,11.3c0.5-0.3,0.7-0.6,1-1C7.9,10,7.9,9.8,7.9,9.1C7.7,7.2,6.8,6.1,5.4,6.4
			C4.6,6.5,4.2,6.9,3.9,7.7C3.4,9.2,4,11,5.1,11.4C5.6,11.6,6.3,11.6,6.7,11.3z"/>
		<path class="st3" d="M72.1,91.4l-1,0.3c-0.4-1-1.2-1.3-2-1.3c-1.5,0.1-1.9,1.8-2.1,3.2c0.6-0.6,1.4-0.9,2.2-0.9
			c2.3,0.1,2.9,2,2.9,3.9c0.1,1.6-0.6,2.8-1.8,3.4c-0.6,0.3-2,0.3-2.7-0.1c-1.4-0.8-2-2.1-1.9-5.2c0-2.6,0.5-5.5,3.3-5.6
			C70.7,89.1,71.9,90.3,72.1,91.4L72.1,91.4z M68.1,94.2c-0.5,0.3-0.7,0.6-1,1c-0.2,0.3-0.2,0.5-0.2,1.2c0.1,1.9,1.1,2.9,2.5,2.7
			c0.8-0.1,1.2-0.6,1.5-1.4c0.5-1.5-0.1-3.3-1.2-3.7C69.3,93.9,68.5,94,68.1,94.2z"/>
	</g>
</g>
</svg>
