<?xml version="1.0" encoding="utf-8"?>
<!-- Generator: Adobe Illustrator 19.1.0, SVG Export Plug-In . SVG Version: 6.00 Build 0)  -->
<svg version="1.1" xmlns="http://www.w3.org/2000/svg" xmlns:xlink="http://www.w3.org/1999/xlink" x="0px" y="0px"
	 viewBox="0 0 75.3 105.3" style="enable-background:new 0 0 75.3 105.3;" xml:space="preserve">
<style type="text/css">
	.st0{display:none;}
	.st1{fill:#FFFFFF;}
	.st2{fill:none;stroke:#010101;stroke-width:0.9967;}
	.st3{fill:#010101;}
	.st4{fill:none;stroke:#010101;stroke-width:1.0006;}
	.st5{fill:#E1CF20;}
	.st6{fill:#262964;}
	.st7{fill:#D31F26;}
	.st8{fill:#14130F;}
	.st9{fill:none;stroke:#010101;stroke-width:0.9929;}
	.st10{fill:#F6EB16;}
	.st11{fill:none;stroke:#010101;stroke-width:1.83;}
	.st12{clip-path:url(#SVGID_2_);}
	.st13{clip-path:url(#SVGID_4_);}
</style>
<g id="Layer_1" class="st0">
</g>
<g id="Layer_2">
	<g>
		<path class="st1" d="M3.7,0.5h67.5c2,0,3.6,1.6,3.6,3.6v97.3c0,2-1.6,3.6-3.6,3.6H3.7c-2,0-3.6-1.6-3.6-3.6V4.1
			C0.1,2.1,1.7,0.5,3.7,0.5z"/>
		<path class="st4" d="M3.7,0.5h67.5c2,0,3.6,1.6,3.6,3.6v97.3c0,2-1.6,3.6-3.6,3.6H3.7c-2,0-3.6-1.6-3.6-3.6V4.1
			C0.1,2.1,1.7,0.5,3.7,0.5z"/>
		<path class="st7" d="M5.9,24c-0.7-1.2-1.5-2.4-2.4-3.3c1-1,1.7-2.2,2.4-3.3c0.7,1.2,1.5,2.4,2.4,3.3C7.4,21.6,6.6,22.8,5.9,24z"/>
		<path class="st7" d="M54.8,27.5c-1.7-2.9-3.6-5.7-5.8-8c2.3-2.4,4.1-5.2,5.8-8c1.7,2.9,3.6,5.7,5.8,8
			C58.3,21.9,56.5,24.7,54.8,27.5z"/>
		<path class="st7" d="M69,88.2c-0.7-1.2-1.5-2.4-2.4-3.3c1-1,1.7-2.2,2.4-3.3c0.7,1.2,1.5,2.4,2.4,3.3C70.5,85.9,69.8,87,69,88.2z"
			/>
		<path class="st7" d="M20.1,27.5c-1.7-2.9-3.6-5.7-5.8-8c2.3-2.4,4.1-5.2,5.8-8c1.7,2.9,3.6,5.7,5.8,8
			C23.7,21.9,21.9,24.7,20.1,27.5z"/>
		<path class="st7" d="M54.8,49.7c-1.7-2.9-3.6-5.7-5.8-8c2.3-2.4,4.1-5.2,5.8-8c1.7,2.9,3.6,5.7,5.8,8C58.3,44,56.5,46.8,54.8,49.7
			z"/>
		<path class="st7" d="M20.1,49.7c-1.7-2.9-3.6-5.7-5.8-8c2.3-2.4,4.1-5.2,5.8-8c1.7,2.9,3.6,5.7,5.8,8C23.7,44,21.9,46.8,20.1,49.7
			z"/>
		<path class="st7" d="M37.5,60.8c-1.7-2.9-3.6-5.7-5.8-8c2.3-2.4,4.1-5.2,5.8-8c1.7,2.9,3.6,5.7,5.8,8C41,55.1,39.2,57.9,37.5,60.8
			z"/>
		<path class="st7" d="M20.1,94c-1.7-2.9-3.6-5.7-5.8-8c2.3-2.4,4.1-5.2,5.8-8c1.7,2.9,3.6,5.7,5.8,8C23.7,88.3,21.9,91.1,20.1,94z"
			/>
		<path class="st7" d="M54.8,94c-1.7-2.9-3.6-5.7-5.8-8c2.3-2.4,4.1-5.2,5.8-8c1.7,2.9,3.6,5.7,5.8,8C58.3,88.3,56.5,91.1,54.8,94z"
			/>
		<path class="st7" d="M54.8,71.8c-1.7-2.9-3.6-5.7-5.8-8c2.3-2.4,4.1-5.2,5.8-8c1.7,2.9,3.6,5.7,5.8,8C58.3,66.2,56.5,69,54.8,71.8
			z"/>
		<path class="st7" d="M20.1,71.8c-1.7-2.9-3.6-5.7-5.8-8c2.3-2.4,4.1-5.2,5.8-8c1.7,2.9,3.6,5.7,5.8,8C23.7,66.2,21.9,69,20.1,71.8
			z"/>
		<path class="st7" d="M2.8,14.1l1-0.3c0.4,1,1.2,1.3,2,1.3c1.5-0.1,1.9-1.8,2.1-3.2c-0.6,0.6-1.4,0.9-2.2,0.9
			c-2.3-0.1-2.9-2-2.9-3.9C2.7,7.1,3.3,5.9,4.5,5.4c0.6-0.3,2-0.3,2.7,0.1c1.4,0.8,2,2.1,1.9,5.2c0,2.6-0.5,5.5-3.3,5.6
			C4.2,16.4,3,15.2,2.8,14.1L2.8,14.1z M6.8,11.3c0.5-0.3,0.7-0.6,1-1C7.9,9.9,8,9.7,7.9,9C7.8,7.2,6.8,6.1,5.4,6.3
			C4.6,6.4,4.2,6.9,3.9,7.7C3.5,9.2,4.1,11,5.1,11.4C5.6,11.6,6.4,11.5,6.8,11.3L6.8,11.3z"/>
		<path class="st7" d="M72.1,91.4l-1,0.3c-0.4-1-1.2-1.3-2-1.3c-1.5,0.1-1.9,1.8-2.1,3.2c0.6-0.6,1.4-0.9,2.2-0.9
			c2.3,0.1,2.9,2,2.9,3.9c0.1,1.6-0.6,2.8-1.8,3.4c-0.6,0.3-2,0.3-2.7-0.1c-1.4-0.8-2-2.1-1.9-5.2c0-2.6,0.5-5.5,3.3-5.6
			C70.7,89.1,72,90.3,72.1,91.4L72.1,91.4z M68.1,94.2c-0.5,0.3-0.7,0.6-1,1C67,95.6,67,95.7,67,96.5c0.1,1.9,1.1,2.9,2.5,2.7
			c0.8-0.1,1.2-0.6,1.5-1.4c0.5-1.5-0.1-3.3-1.2-3.7C69.3,93.9,68.5,93.9,68.1,94.2L68.1,94.2z"/>
	</g>
</g>
</svg>
