<?xml version="1.0" encoding="utf-8"?>
<!-- Generator: Adobe Illustrator 19.1.0, SVG Export Plug-In . SVG Version: 6.00 Build 0)  -->
<svg version="1.1" xmlns="http://www.w3.org/2000/svg" xmlns:xlink="http://www.w3.org/1999/xlink" x="0px" y="0px"
	 viewBox="0 0 75.3 105.3" style="enable-background:new 0 0 75.3 105.3;" xml:space="preserve">
<style type="text/css">
	.st0{display:none;}
	.st1{fill:#FFFFFF;}
	.st2{fill:none;stroke:#010101;stroke-width:0.9967;}
	.st3{fill:#010101;}
	.st4{fill:none;stroke:#010101;stroke-width:1.0006;}
	.st5{fill:#E1CF20;}
	.st6{fill:#262964;}
	.st7{fill:#D31F26;}
	.st8{fill:#14130F;}
	.st9{fill:none;stroke:#010101;stroke-width:0.9929;}
	.st10{fill:#F6EB16;}
	.st11{fill:none;stroke:#010101;stroke-width:1.83;}
	.st12{clip-path:url(#SVGID_2_);}
	.st13{clip-path:url(#SVGID_4_);}
</style>
<g id="Layer_1" class="st0">
</g>
<g id="Layer_2">
	<g>
		<path class="st1" d="M3.9,0.4h67.5C73.4,0.4,75,2,75,4v97.3c0,2-1.6,3.6-3.6,3.6H3.9c-2,0-3.6-1.6-3.6-3.6V4
			C0.3,2,1.9,0.4,3.9,0.4z"/>
		<path class="st4" d="M3.9,0.4h67.5C73.4,0.4,75,2,75,4v97.3c0,2-1.6,3.6-3.6,3.6H3.9c-2,0-3.6-1.6-3.6-3.6V4
			C0.3,2,1.9,0.4,3.9,0.4z"/>
		<path class="st7" d="M20.3,49.6c0,0-1.6-2.6-3.7-5.6c-1.4-2-2.5-4.2-2.6-6.1c-0.1-2.1,1-4.3,3.1-4.4c2.1-0.1,2.9,1.7,3.2,3.1
			c0.3-1.5,1.2-3.2,3.2-3.1c2.1,0.1,3.2,2.3,3.1,4.4C26.5,39.8,25.4,42,24,44C21.9,47,20.3,49.6,20.3,49.6z"/>
		<path class="st7" d="M6,23.9c0,0-0.7-1.1-1.7-2.3C3.6,20.7,3.1,19.8,3,19c-0.1-0.9,0.5-1.8,1.5-1.8c1,0,1.4,0.7,1.5,1.3
			c0.2-0.6,0.6-1.3,1.5-1.3c1,0,1.5,0.9,1.5,1.8c0,0.8-0.6,1.7-1.3,2.5C6.8,22.8,6,23.9,6,23.9z"/>
		<path class="st7" d="M69.2,81.4c0,0-0.7,1.1-1.7,2.3c-0.7,0.8-1.2,1.8-1.3,2.5c-0.1,0.9,0.5,1.8,1.5,1.8c1,0,1.4-0.7,1.5-1.3
			c0.2,0.6,0.6,1.3,1.5,1.3c1,0,1.5-0.9,1.5-1.8c0-0.8-0.6-1.7-1.3-2.5C69.9,82.5,69.2,81.4,69.2,81.4z"/>
		<path class="st7" d="M20.3,27.5c0,0-1.6-2.6-3.7-5.6c-1.4-2-2.5-4.2-2.6-6.1c-0.1-2.1,1-4.3,3.1-4.4c2.1-0.1,2.9,1.7,3.2,3.1
			c0.3-1.5,1.2-3.2,3.2-3.1c2.1,0.1,3.2,2.3,3.1,4.4c-0.1,1.9-1.2,4.1-2.6,6.1C21.9,24.9,20.3,27.5,20.3,27.5z"/>
		<path class="st7" d="M54.9,49.6c0,0-1.6-2.6-3.7-5.6c-1.4-2-2.5-4.2-2.6-6.1c-0.1-2.1,1-4.3,3.1-4.4c2.1-0.1,2.9,1.7,3.2,3.1
			c0.3-1.5,1.2-3.2,3.2-3.1c2.1,0.1,3.2,2.3,3.1,4.4C61.1,39.8,60,42,58.6,44C56.5,47,54.9,49.6,54.9,49.6z"/>
		<path class="st7" d="M54.9,27.5c0,0-1.6-2.6-3.7-5.6c-1.4-2-2.5-4.2-2.6-6.1c-0.1-2.1,1-4.3,3.1-4.4c2.1-0.1,2.9,1.7,3.2,3.1
			c0.3-1.5,1.2-3.2,3.2-3.1c2.1,0.1,3.2,2.3,3.1,4.4c-0.1,1.9-1.2,4.1-2.6,6.1C56.5,24.9,54.9,27.5,54.9,27.5z"/>
		<path class="st7" d="M37.6,60.7c0,0-1.6-2.6-3.7-5.6c-1.4-2-2.5-4.2-2.6-6.1c-0.1-2.1,1-4.3,3.1-4.4c2.1-0.1,2.9,1.7,3.2,3.1
			c0.3-1.5,1.2-3.2,3.2-3.1c2.1,0.1,3.2,2.3,3.1,4.4c-0.1,1.9-1.2,4.1-2.6,6.1C39.2,58.1,37.6,60.7,37.6,60.7z"/>
		<path class="st7" d="M54.9,55.7c0,0-1.6,2.6-3.7,5.6c-1.4,2-2.5,4.2-2.6,6.1c-0.1,2.1,1,4.3,3.1,4.4c2.1,0.1,2.9-1.7,3.2-3.1
			c0.3,1.5,1.2,3.2,3.2,3.1c2.1-0.1,3.2-2.3,3.1-4.4c-0.1-1.9-1.2-4.1-2.6-6.1C56.5,58.3,54.9,55.7,54.9,55.7z"/>
		<path class="st7" d="M20.3,55.7c0,0-1.6,2.6-3.7,5.6c-1.4,2-2.5,4.2-2.6,6.1c-0.1,2.1,1,4.3,3.1,4.4c2.1,0.1,2.9-1.7,3.2-3.1
			c0.3,1.5,1.2,3.2,3.2,3.1c2.1-0.1,3.2-2.3,3.1-4.4c-0.1-1.9-1.2-4.1-2.6-6.1C21.9,58.3,20.3,55.7,20.3,55.7z"/>
		<path class="st7" d="M54.9,77.8c0,0-1.6,2.6-3.7,5.6c-1.4,2-2.5,4.2-2.6,6.1c-0.1,2.1,1,4.3,3.1,4.4c2.1,0.1,2.9-1.7,3.2-3.1
			c0.3,1.5,1.2,3.2,3.2,3.1c2.1-0.1,3.2-2.3,3.1-4.4c-0.1-1.9-1.2-4.1-2.6-6.1C56.5,80.4,54.9,77.8,54.9,77.8z"/>
		<path class="st7" d="M20.3,77.8c0,0-1.6,2.6-3.7,5.6c-1.4,2-2.5,4.2-2.6,6.1c-0.1,2.1,1,4.3,3.1,4.4c2.1,0.1,2.9-1.7,3.2-3.1
			c0.3,1.5,1.2,3.2,3.2,3.1c2.1-0.1,3.2-2.3,3.1-4.4c-0.1-1.9-1.2-4.1-2.6-6.1C21.9,80.4,20.3,77.8,20.3,77.8z"/>
		<path class="st7" d="M3,14l1-0.3c0.4,1,1.2,1.3,2,1.3c1.5-0.1,1.9-1.8,2.1-3.2c-0.6,0.6-1.4,0.9-2.2,0.9c-2.3-0.1-2.9-2-2.9-3.9
			C2.8,7,3.5,5.8,4.7,5.3C5.3,5,6.7,5,7.3,5.3c1.4,0.8,2,2.1,1.9,5.2c0,2.6-0.5,5.5-3.3,5.6C4.3,16.3,3.1,15.1,3,14L3,14z M6.9,11.2
			c0.5-0.3,0.7-0.6,1-1c0.2-0.3,0.2-0.5,0.2-1.2C7.9,7.1,7,6,5.6,6.2C4.8,6.3,4.3,6.8,4.1,7.6c-0.5,1.5,0.1,3.3,1.2,3.7
			C5.8,11.5,6.5,11.4,6.9,11.2L6.9,11.2z"/>
		<path class="st7" d="M72.3,91.3l-1,0.3c-0.4-1-1.2-1.3-2-1.3c-1.5,0.1-1.9,1.8-2.1,3.2c0.6-0.6,1.4-0.9,2.2-0.9
			c2.3,0.1,2.9,2,2.9,3.9c0.1,1.6-0.6,2.8-1.8,3.4c-0.6,0.3-2,0.3-2.7-0.1c-1.4-0.8-2-2.1-1.9-5.2c0-2.6,0.5-5.5,3.3-5.6
			C70.9,89,72.1,90.2,72.3,91.3L72.3,91.3z M68.3,94.1c-0.5,0.3-0.7,0.6-1,1c-0.2,0.3-0.2,0.5-0.2,1.2c0.1,1.9,1.1,2.9,2.5,2.7
			c0.8-0.1,1.2-0.6,1.5-1.4c0.5-1.5-0.1-3.3-1.2-3.7C69.5,93.8,68.7,93.9,68.3,94.1L68.3,94.1z"/>
	</g>
</g>
</svg>
