<?xml version="1.0" encoding="utf-8"?>
<!-- Generator: Adobe Illustrator 19.1.0, SVG Export Plug-In . SVG Version: 6.00 Build 0)  -->
<svg version="1.1" xmlns="http://www.w3.org/2000/svg" xmlns:xlink="http://www.w3.org/1999/xlink" x="0px" y="0px"
	 viewBox="0 0 75.3 105.3" style="enable-background:new 0 0 75.3 105.3;" xml:space="preserve">
<style type="text/css">
	.st0{display:none;}
	.st1{fill:#FFFFFF;}
	.st2{fill:none;stroke:#010101;stroke-width:0.9967;}
	.st3{fill:#010101;}
	.st4{fill:none;stroke:#010101;stroke-width:1.0006;}
	.st5{fill:#E1CF20;}
	.st6{fill:#262964;}
	.st7{fill:#D31F26;}
	.st8{fill:#14130F;}
	.st9{fill:none;stroke:#010101;stroke-width:0.9929;}
	.st10{fill:#F6EB16;}
	.st11{fill:none;stroke:#010101;stroke-width:1.83;}
	.st12{clip-path:url(#SVGID_2_);}
	.st13{clip-path:url(#SVGID_4_);}
</style>
<g id="Layer_1" class="st0">
</g>
<g id="Layer_2">
	<g>
		<path class="st1" d="M3.9,0.3h67.5c2,0,3.6,1.6,3.6,3.6v97.3c0,2-1.6,3.6-3.6,3.6H3.9c-2,0-3.6-1.6-3.6-3.6V3.9
			C0.3,1.9,1.9,0.3,3.9,0.3z"/>
		<path class="st4" d="M3.9,0.3h67.5c2,0,3.6,1.6,3.6,3.6v97.3c0,2-1.6,3.6-3.6,3.6H3.9c-2,0-3.6-1.6-3.6-3.6V3.9
			C0.3,1.9,1.9,0.3,3.9,0.3z"/>
		<path class="st3" d="M20.3,11.3c-3.1,4.4-6.4,6.9-6.4,10.4c0,1.1,0.6,3,2.5,3.4c1.2,0.2,2.9-0.8,2.9-2.8c0-0.4,0.4-0.4,0.4,0.2
			c-0.1,1.6-0.6,3.4-1.4,4.9c1.3,0,2.7,0,4,0c-0.8-1.5-1.3-3.4-1.4-4.9c0-0.5,0.4-0.6,0.4-0.2c0,2,1.7,3,2.9,2.8
			c1.9-0.4,2.5-2.3,2.5-3.4C26.7,18.2,23.4,15.7,20.3,11.3z"/>
		<path class="st3" d="M6,17c-1.4,1.8-3,2.9-3,4.3c0,0.5,0.3,1.3,1.2,1.4c0.6,0.1,1.4-0.3,1.4-1.2c0-0.2,0.2-0.2,0.2,0.1
			c0,0.7-0.3,1.4-0.7,2.1c0.6,0,1.3,0,1.9,0c-0.4-0.6-0.6-1.4-0.7-2.1c0-0.2,0.2-0.2,0.2-0.1c0,0.8,0.8,1.3,1.4,1.2
			c0.9-0.2,1.2-0.9,1.2-1.4C9,19.9,7.5,18.9,6,17L6,17z"/>
		<path class="st3" d="M20.3,71.6c-3.1-4.4-6.4-6.9-6.4-10.4c0-1.1,0.6-3,2.5-3.4c1.2-0.2,2.9,0.8,2.9,2.8c0,0.4,0.4,0.4,0.4-0.2
			c-0.1-1.6-0.6-3.4-1.4-4.9c1.3,0,2.7,0,4,0c-0.8,1.5-1.3,3.4-1.4,4.9c0,0.5,0.4,0.6,0.4,0.2c0-2,1.7-3,2.9-2.8
			c1.9,0.4,2.5,2.3,2.5,3.4C26.7,64.7,23.4,67.2,20.3,71.6z"/>
		<path class="st3" d="M69.2,88c-1.4-1.8-3-2.9-3-4.3c0-0.5,0.3-1.3,1.2-1.4c0.6-0.1,1.4,0.3,1.4,1.2c0,0.2,0.2,0.2,0.2-0.1
			c0-0.7-0.3-1.4-0.7-2.1c0.6,0,1.3,0,1.9,0c-0.4,0.6-0.6,1.4-0.7,2.1c0,0.2,0.2,0.2,0.2,0.1c0-0.8,0.8-1.3,1.4-1.2
			c0.9,0.2,1.2,0.9,1.2,1.4C72.2,85.1,70.6,86.2,69.2,88L69.2,88z"/>
		<path class="st3" d="M54.9,11.3c-3.1,4.4-6.4,6.9-6.4,10.4c0,1.1,0.6,3,2.5,3.4c1.2,0.2,2.9-0.8,2.9-2.8c0-0.4,0.4-0.4,0.4,0.2
			c-0.1,1.6-0.6,3.4-1.4,4.9c1.3,0,2.7,0,4,0c-0.8-1.5-1.3-3.4-1.4-4.9c0-0.5,0.4-0.6,0.4-0.2c0,2,1.7,3,2.9,2.8
			c1.9-0.4,2.5-2.3,2.5-3.4C61.3,18.2,58,15.7,54.9,11.3z"/>
		<path class="st3" d="M20.3,33.4c-3.1,4.4-6.4,6.9-6.4,10.4c0,1.1,0.6,3,2.5,3.4c1.2,0.2,2.9-0.8,2.9-2.8c0-0.4,0.4-0.4,0.4,0.2
			c-0.1,1.6-0.6,3.4-1.4,4.9c1.3,0,2.7,0,4,0c-0.8-1.5-1.3-3.4-1.4-4.9c0-0.5,0.4-0.6,0.4-0.2c0,2,1.7,3,2.9,2.8
			c1.9-0.4,2.5-2.3,2.5-3.4C26.7,40.4,23.4,37.8,20.3,33.4z"/>
		<path class="st3" d="M54.9,33.4c-3.1,4.4-6.4,6.9-6.4,10.4c0,1.1,0.6,3,2.5,3.4c1.2,0.2,2.9-0.8,2.9-2.8c0-0.4,0.4-0.4,0.4,0.2
			c-0.1,1.6-0.6,3.4-1.4,4.9c1.3,0,2.7,0,4,0c-0.8-1.5-1.3-3.4-1.4-4.9c0-0.5,0.4-0.6,0.4-0.2c0,2,1.7,3,2.9,2.8
			c1.9-0.4,2.5-2.3,2.5-3.4C61.3,40.4,58,37.8,54.9,33.4z"/>
		<path class="st3" d="M20.3,93.8c-3.1-4.4-6.4-6.9-6.4-10.4c0-1.1,0.6-3,2.5-3.4c1.2-0.2,2.9,0.8,2.9,2.8c0,0.4,0.4,0.4,0.4-0.2
			c-0.1-1.6-0.6-3.4-1.4-4.9c1.3,0,2.7,0,4,0c-0.8,1.5-1.3,3.4-1.4,4.9c0,0.5,0.4,0.6,0.4,0.2c0-2,1.7-3,2.9-2.8
			c1.9,0.4,2.5,2.3,2.5,3.4C26.7,86.8,23.4,89.4,20.3,93.8z"/>
		<path class="st3" d="M54.9,93.8c-3.1-4.4-6.4-6.9-6.4-10.4c0-1.1,0.6-3,2.5-3.4c1.2-0.2,2.9,0.8,2.9,2.8c0,0.4,0.4,0.4,0.4-0.2
			c-0.1-1.6-0.6-3.4-1.4-4.9c1.3,0,2.7,0,4,0c-0.8,1.5-1.3,3.4-1.4,4.9c0,0.5,0.4,0.6,0.4,0.2c0-2,1.7-3,2.9-2.8
			c1.9,0.4,2.5,2.3,2.5,3.4C61.3,86.8,58,89.4,54.9,93.8z"/>
		<path class="st3" d="M54.9,71.6c-3.1-4.4-6.4-6.9-6.4-10.4c0-1.1,0.6-3,2.5-3.4c1.2-0.2,2.9,0.8,2.9,2.8c0,0.4,0.4,0.4,0.4-0.2
			c-0.1-1.6-0.6-3.4-1.4-4.9c1.3,0,2.7,0,4,0c-0.8,1.5-1.3,3.4-1.4,4.9c0,0.5,0.4,0.6,0.4,0.2c0-2,1.7-3,2.9-2.8
			c1.9,0.4,2.5,2.3,2.5,3.4C61.3,64.7,58,67.2,54.9,71.6z"/>
		<path class="st3" d="M37.6,44.5c-3.1,4.4-6.4,6.9-6.4,10.4c0,1.1,0.6,3,2.5,3.4c1.2,0.2,2.9-0.8,2.9-2.8c0-0.4,0.4-0.4,0.4,0.2
			c-0.1,1.6-0.6,3.4-1.4,4.9c1.3,0,2.7,0,4,0c-0.8-1.5-1.3-3.4-1.4-4.9c0-0.5,0.4-0.6,0.4-0.2c0,2,1.7,3,2.9,2.8
			c1.9-0.4,2.5-2.3,2.5-3.4C44,51.4,40.7,48.9,37.6,44.5z"/>
		<path class="st3" d="M3,13.9l1-0.3c0.4,1,1.2,1.3,2,1.3C7.4,14.7,7.9,13,8,11.6c-0.6,0.6-1.4,0.9-2.2,0.9c-2.3-0.1-2.9-2-2.9-3.9
			C2.8,6.9,3.5,5.7,4.7,5.1c0.6-0.3,2-0.3,2.7,0.1c1.4,0.8,2,2.1,1.9,5.2c0,2.6-0.5,5.5-3.3,5.6C4.3,16.2,3.1,15,3,13.9L3,13.9z
			 M6.9,11.1c0.5-0.3,0.7-0.6,1-1c0.2-0.3,0.2-0.5,0.2-1.2C7.9,6.9,7,5.9,5.6,6.1C4.8,6.2,4.3,6.7,4.1,7.5C3.6,9,4.2,10.8,5.3,11.2
			C5.8,11.4,6.5,11.3,6.9,11.1z"/>
		<path class="st3" d="M72.3,91.2l-1,0.3c-0.4-1-1.2-1.3-2-1.3c-1.5,0.1-1.9,1.8-2.1,3.2c0.6-0.6,1.4-0.9,2.2-0.9
			c2.3,0.1,2.9,2,2.9,3.9c0.1,1.6-0.6,2.8-1.8,3.4c-0.6,0.3-2,0.3-2.7-0.1c-1.4-0.8-2-2.1-1.9-5.2c0-2.6,0.5-5.5,3.3-5.6
			C70.9,88.9,72.1,90.1,72.3,91.2L72.3,91.2z M68.3,94c-0.5,0.3-0.7,0.6-1,1c-0.2,0.3-0.2,0.5-0.2,1.2c0.1,1.9,1.1,2.9,2.5,2.7
			c0.8-0.1,1.2-0.6,1.5-1.4c0.5-1.5-0.1-3.3-1.2-3.7C69.5,93.7,68.7,93.7,68.3,94z"/>
	</g>
</g>
</svg>
