<?xml version="1.0" encoding="utf-8"?>
<!-- Generator: Adobe Illustrator 19.1.0, SVG Export Plug-In . SVG Version: 6.00 Build 0)  -->
<svg version="1.1" xmlns="http://www.w3.org/2000/svg" xmlns:xlink="http://www.w3.org/1999/xlink" x="0px" y="0px"
	 viewBox="0 0 75.3 105.3" style="enable-background:new 0 0 75.3 105.3;" xml:space="preserve">
<style type="text/css">
	.st0{display:none;}
	.st1{fill:#FFFFFF;}
	.st2{fill:none;stroke:#010101;stroke-width:0.9967;}
	.st3{fill:#010101;}
	.st4{fill:none;stroke:#010101;stroke-width:1.0006;}
	.st5{fill:#E1CF20;}
	.st6{fill:#262964;}
	.st7{fill:#D31F26;}
	.st8{fill:#14130F;}
	.st9{fill:none;stroke:#010101;stroke-width:0.9929;}
	.st10{fill:#F6EB16;}
	.st11{fill:none;stroke:#010101;stroke-width:1.83;}
	.st12{clip-path:url(#SVGID_2_);}
	.st13{clip-path:url(#SVGID_4_);}
</style>
<g id="Layer_1" class="st0">
</g>
<g id="Layer_2">
	<g>
		<path class="st1" d="M3.6,0.5h67.5c2,0,3.6,1.6,3.6,3.6v97.3c0,2-1.6,3.6-3.6,3.6H3.6c-2,0-3.6-1.6-3.6-3.6V4
			C0,2.1,1.6,0.5,3.6,0.5z"/>
		<path class="st2" d="M3.6,0.5h67.5c2,0,3.6,1.6,3.6,3.6v97.3c0,2-1.6,3.6-3.6,3.6H3.6c-2,0-3.6-1.6-3.6-3.6V4
			C0,2.1,1.6,0.5,3.6,0.5z"/>
		<path class="st3" d="M37.3,44.8c-3.3,0.1-4.8,3.8-2.3,6.6c0.4,0.4,0.4,0.7-0.3,0.3c-1.6-1.1-4.8-0.4-4.9,3
			c-0.2,4.1,5.6,5.3,6.6,0.9c0.1-0.5,0.4-0.5,0.3,0.2c-0.1,1.8-0.7,3.4-1.4,5.1c1.3,0,2.7,0,3.9,0c-0.8-1.6-1.3-3.3-1.4-5.1
			c-0.1-0.7,0.3-0.7,0.3-0.2c1.1,4.4,6.8,3.2,6.6-0.9c-0.2-3.3-3.3-4.1-4.9-3c-0.6,0.4-0.6,0.2-0.3-0.3
			C42.1,48.6,40.6,44.9,37.3,44.8L37.3,44.8L37.3,44.8z"/>
		<path class="st3" d="M68.9,88.2c1.3,0,1.9-1.6,0.9-2.8c-0.1-0.2-0.2-0.3,0.1-0.1c0.7,0.5,1.9,0.2,2-1.2c0.1-1.7-2.2-2.2-2.7-0.4
			c0,0.2-0.2,0.2-0.1-0.1c0-0.7,0.3-1.4,0.6-2.1c-0.5,0-1,0-1.6,0c0.3,0.7,0.5,1.4,0.6,2.1c0,0.3-0.1,0.3-0.1,0.1
			c-0.4-1.8-2.7-1.3-2.7,0.4c0.1,1.4,1.3,1.7,2,1.2c0.3-0.2,0.2-0.1,0.1,0.1C67,86.6,67.6,88.1,68.9,88.2L68.9,88.2z"/>
		<path class="st3" d="M2.4,16.2v-0.9h0.9L5.2,5.1h1.1l2.1,10.1h0.7v0.9H6.7v-0.9h0.7l-0.3-1.5H4.6l-0.2,1.5H5v0.9H2.4z M6.8,12.6
			L5.8,7.2l-1,5.4H6.8z"/>
		<path class="st3" d="M65.5,89.2v0.9h0.9l1.9,10.1h1.1l2.1-10.1h0.7v-0.9h-2.5v0.9h0.7l-0.3,1.5h-2.5l-0.2-1.5h0.7v-0.9H65.5
			L65.5,89.2z M70,92.8l-1.1,5.4l-1-5.4H70L70,92.8z"/>
		<path class="st3" d="M5.8,17.2c-1.3,0-1.9,1.6-0.9,2.8C5,20.2,5,20.3,4.7,20.1c-0.7-0.5-1.9-0.2-2,1.2C2.7,23,5,23.5,5.4,21.7
			c0-0.2,0.2-0.2,0.1,0.1c0,0.7-0.3,1.4-0.6,2.1c0.5,0,1,0,1.6,0C6.2,23.2,6,22.5,6,21.8c0-0.3,0.1-0.3,0.1-0.1
			c0.4,1.8,2.7,1.3,2.7-0.4c-0.1-1.4-1.3-1.7-2-1.2c-0.3,0.2-0.2,0.1-0.1-0.1C7.7,18.8,7.1,17.2,5.8,17.2L5.8,17.2z"/>
	</g>
</g>
</svg>
