<?xml version="1.0" encoding="utf-8"?>
<!-- Generator: Adobe Illustrator 19.1.0, SVG Export Plug-In . SVG Version: 6.00 Build 0)  -->
<svg version="1.1" xmlns="http://www.w3.org/2000/svg" xmlns:xlink="http://www.w3.org/1999/xlink" x="0px" y="0px"
	 viewBox="0 0 75.3 105.3" style="enable-background:new 0 0 75.3 105.3;" xml:space="preserve">
<style type="text/css">
	.st0{display:none;}
	.st1{fill:#FFFFFF;}
	.st2{fill:none;stroke:#010101;stroke-width:0.9967;}
	.st3{fill:#010101;}
	.st4{fill:none;stroke:#010101;stroke-width:1.0006;}
	.st5{fill:#E1CF20;}
	.st6{fill:#262964;}
	.st7{fill:#D31F26;}
	.st8{fill:#14130F;}
	.st9{fill:none;stroke:#010101;stroke-width:0.9929;}
	.st10{fill:#F6EB16;}
	.st11{fill:none;stroke:#010101;stroke-width:1.83;}
	.st12{clip-path:url(#SVGID_2_);}
	.st13{clip-path:url(#SVGID_4_);}
</style>
<g id="Layer_1" class="st0">
</g>
<g id="Layer_2">
	<g>
		<path class="st1" d="M3.8,0.5h67.5c2,0,3.6,1.6,3.6,3.6v97.3c0,2-1.6,3.6-3.6,3.6H3.8c-2,0-3.6-1.6-3.6-3.6V4.1
			C0.2,2.1,1.8,0.5,3.8,0.5z"/>
		<path class="st4" d="M3.8,0.5h67.5c2,0,3.6,1.6,3.6,3.6v97.3c0,2-1.6,3.6-3.6,3.6H3.8c-2,0-3.6-1.6-3.6-3.6V4.1
			C0.2,2.1,1.8,0.5,3.8,0.5z"/>
		<path class="st7" d="M6,24c-0.7-1.2-1.5-2.4-2.4-3.3c1-1,1.7-2.2,2.4-3.3c0.7,1.2,1.5,2.4,2.4,3.3C7.5,21.6,6.7,22.8,6,24z"/>
		<path class="st7" d="M69.1,88.2c-0.7-1.2-1.5-2.4-2.4-3.3c1-1,1.7-2.2,2.4-3.3c0.7,1.2,1.5,2.4,2.4,3.3
			C70.6,85.9,69.9,87,69.1,88.2z"/>
		<path class="st7" d="M37.6,60.8c-1.7-2.9-3.6-5.7-5.8-8c2.3-2.4,4.1-5.2,5.8-8c1.7,2.9,3.6,5.7,5.8,8
			C41.1,55.1,39.3,57.9,37.6,60.8z"/>
		<path class="st7" d="M2.6,16.2v-0.9h0.9L5.4,5.1h1.1l2.1,10.1h0.7v0.9H6.9v-0.9h0.7l-0.3-1.5H4.8l-0.2,1.5h0.7v0.9H2.6L2.6,16.2z
			 M7.1,12.6L6,7.2l-1,5.4H7.1z"/>
		<path class="st7" d="M65.8,89.3v0.9h0.9l1.9,10.1h1.1l2.1-10.1h0.7v-0.9H70v0.9h0.7l-0.3,1.5h-2.5l-0.2-1.5h0.7v-0.9L65.8,89.3
			L65.8,89.3z M70.2,92.9l-1.1,5.4l-1-5.4H70.2L70.2,92.9z"/>
	</g>
</g>
</svg>
