<?xml version="1.0" encoding="utf-8"?>
<!-- Generator: Adobe Illustrator 19.1.0, SVG Export Plug-In . SVG Version: 6.00 Build 0)  -->
<svg version="1.1" xmlns="http://www.w3.org/2000/svg" xmlns:xlink="http://www.w3.org/1999/xlink" x="0px" y="0px"
	 viewBox="0 0 75.3 105.3" style="enable-background:new 0 0 75.3 105.3;" xml:space="preserve">
<style type="text/css">
	.st0{display:none;}
	.st1{fill:#FFFFFF;}
	.st2{fill:none;stroke:#010101;stroke-width:0.9967;}
	.st3{fill:#010101;}
	.st4{fill:none;stroke:#010101;stroke-width:1.0006;}
	.st5{fill:#E1CF20;}
	.st6{fill:#262964;}
	.st7{fill:#D31F26;}
	.st8{fill:#14130F;}
	.st9{fill:none;stroke:#010101;stroke-width:0.9929;}
	.st10{fill:#F6EB16;}
	.st11{fill:none;stroke:#010101;stroke-width:1.83;}
	.st12{clip-path:url(#SVGID_2_);}
	.st13{clip-path:url(#SVGID_4_);}
</style>
<g id="Layer_1" class="st0">
</g>
<g id="Layer_2">
	<g>
		<path class="st1" d="M3.6,0.4h67.5c2,0,3.6,1.6,3.6,3.6v97.3c0,2-1.6,3.6-3.6,3.6H3.6c-2,0-3.6-1.6-3.6-3.6V4C0,2,1.6,0.4,3.6,0.4
			z"/>
		<path class="st4" d="M3.6,0.4h67.5c2,0,3.6,1.6,3.6,3.6v97.3c0,2-1.6,3.6-3.6,3.6H3.6c-2,0-3.6-1.6-3.6-3.6V4C0,2,1.6,0.4,3.6,0.4
			z"/>
		<path class="st7" d="M5.8,23.9c0,0-0.7-1.1-1.7-2.3c-0.7-0.8-1.2-1.8-1.3-2.5c-0.1-0.9,0.5-1.8,1.5-1.8c1,0,1.4,0.7,1.5,1.3
			c0.2-0.6,0.6-1.3,1.5-1.3c1,0,1.5,0.9,1.5,1.8c0,0.8-0.6,1.7-1.3,2.5C6.5,22.8,5.8,23.9,5.8,23.9z"/>
		<path class="st7" d="M68.9,81.4c0,0-0.7,1.1-1.7,2.3c-0.7,0.8-1.2,1.8-1.3,2.5c-0.1,0.9,0.5,1.8,1.5,1.8c1,0,1.4-0.7,1.5-1.3
			c0.2,0.6,0.6,1.3,1.5,1.3c1,0,1.5-0.9,1.5-1.8c0-0.8-0.6-1.7-1.3-2.5C69.7,82.5,68.9,81.4,68.9,81.4z"/>
		<path class="st7" d="M37.3,60.7c0,0-1.6-2.6-3.7-5.6c-1.4-2-2.5-4.2-2.6-6.1c-0.1-2.1,1-4.3,3.1-4.4c2.1-0.1,2.9,1.7,3.2,3.1
			c0.3-1.5,1.2-3.2,3.2-3.1c2.1,0.1,3.2,2.3,3.1,4.4c-0.1,1.9-1.2,4.1-2.6,6.1C38.9,58.1,37.3,60.7,37.3,60.7z"/>
		<path class="st7" d="M2.4,16.1v-0.9h0.9L5.2,5.1h1.1l2.1,10.1h0.7v0.9H6.7v-0.9h0.7l-0.3-1.5H4.6l-0.2,1.5H5v0.9L2.4,16.1
			L2.4,16.1z M6.8,12.5L5.8,7.1l-1,5.4H6.8z"/>
		<path class="st7" d="M65.5,89.2v0.9h0.9l1.9,10.1h1.1l2.1-10.1h0.7v-0.9h-2.5v0.9h0.7l-0.3,1.5h-2.5l-0.2-1.5h0.7v-0.9H65.5
			L65.5,89.2z M70,92.8l-1.1,5.4l-1-5.4H70L70,92.8z"/>
	</g>
</g>
</svg>
