<?xml version="1.0" encoding="utf-8"?>
<!-- Generator: Adobe Illustrator 19.1.0, SVG Export Plug-In . SVG Version: 6.00 Build 0)  -->
<svg version="1.1" xmlns="http://www.w3.org/2000/svg" xmlns:xlink="http://www.w3.org/1999/xlink" x="0px" y="0px"
	 viewBox="0 0 75.3 105.3" style="enable-background:new 0 0 75.3 105.3;" xml:space="preserve">
<style type="text/css">
	.st0{display:none;}
	.st1{fill:#FFFFFF;}
	.st2{fill:none;stroke:#010101;stroke-width:0.9967;}
	.st3{fill:#010101;}
	.st4{fill:none;stroke:#010101;stroke-width:1.0006;}
	.st5{fill:#E1CF20;}
	.st6{fill:#262964;}
	.st7{fill:#D31F26;}
	.st8{fill:#14130F;}
	.st9{fill:none;stroke:#010101;stroke-width:0.9929;}
	.st10{fill:#F6EB16;}
	.st11{fill:none;stroke:#010101;stroke-width:1.83;}
	.st12{clip-path:url(#SVGID_2_);}
	.st13{clip-path:url(#SVGID_4_);}
</style>
<g id="Layer_1" class="st0">
</g>
<g id="Layer_2">
	<g>
		<path class="st1" d="M3.8,0.3h67.5c2,0,3.6,1.6,3.6,3.6v97.3c0,2-1.6,3.6-3.6,3.6H3.8c-2,0-3.6-1.6-3.6-3.6V3.9
			C0.2,1.9,1.8,0.3,3.8,0.3z"/>
		<path class="st4" d="M3.8,0.3h67.5c2,0,3.6,1.6,3.6,3.6v97.3c0,2-1.6,3.6-3.6,3.6H3.8c-2,0-3.6-1.6-3.6-3.6V3.9
			C0.2,1.9,1.8,0.3,3.8,0.3z"/>
		<path class="st3" d="M6,17c-1.4,1.8-3,2.9-3,4.3c0,0.5,0.3,1.3,1.2,1.4c0.6,0.1,1.4-0.3,1.4-1.2c0-0.2,0.2-0.2,0.2,0.1
			c0,0.7-0.3,1.4-0.7,2.1c0.6,0,1.3,0,1.9,0c-0.4-0.6-0.6-1.4-0.7-2.1c0-0.2,0.2-0.2,0.2-0.1c0,0.8,0.8,1.3,1.4,1.2
			C8.7,22.6,9,21.8,9,21.4C9,19.9,7.4,18.9,6,17z"/>
		<path class="st3" d="M69.1,88c-1.4-1.8-3-2.9-3-4.3c0-0.5,0.3-1.3,1.2-1.4c0.6-0.1,1.4,0.3,1.4,1.2c0,0.2,0.2,0.2,0.2-0.1
			c0-0.7-0.3-1.4-0.7-2.1c0.6,0,1.3,0,1.9,0c-0.4,0.6-0.6,1.4-0.7,2.1c0,0.2,0.2,0.2,0.2,0.1c0-0.8,0.8-1.3,1.4-1.2
			c0.9,0.2,1.2,0.9,1.2,1.4C72.1,85.1,70.6,86.2,69.1,88L69.1,88z"/>
		<path class="st3" d="M37.6,44.5c-3.1,4.4-6.4,6.9-6.4,10.4c0,1.1,0.6,3,2.5,3.4c1.2,0.2,2.9-0.8,2.9-2.8c0-0.4,0.4-0.4,0.4,0.2
			c-0.1,1.6-0.6,3.4-1.4,4.9c1.3,0,2.7,0,4,0c-0.8-1.5-1.3-3.4-1.4-4.9c0-0.5,0.4-0.6,0.4-0.2c0,2,1.7,3,2.9,2.8
			c1.9-0.4,2.5-2.3,2.5-3.4C44,51.4,40.7,48.9,37.6,44.5z"/>
		<path class="st3" d="M2.6,16V15h0.9L5.4,4.9h1.1L8.6,15h0.7V16H6.9V15h0.7l-0.3-1.5H4.8L4.6,15h0.7V16H2.6L2.6,16z M7.1,12.4L6,7
			l-1,5.4H7.1z"/>
		<path class="st3" d="M65.8,89.1V90h0.9l1.9,10.1h1.1L71.8,90h0.7v-0.9H70V90h0.7l-0.3,1.5h-2.5L67.8,90h0.7v-0.9H65.8L65.8,89.1z
			 M70.2,92.7l-1.1,5.4l-1-5.4H70.2L70.2,92.7z"/>
	</g>
</g>
</svg>
