<?xml version="1.0" encoding="utf-8"?>
<!-- Generator: Adobe Illustrator 19.1.0, SVG Export Plug-In . SVG Version: 6.00 Build 0)  -->
<svg version="1.1" xmlns="http://www.w3.org/2000/svg" xmlns:xlink="http://www.w3.org/1999/xlink" x="0px" y="0px"
	 viewBox="0 0 75.3 105.3" style="enable-background:new 0 0 75.3 105.3;" xml:space="preserve">
<style type="text/css">
	.st0{display:none;}
	.st1{fill:#FFFFFF;}
	.st2{fill:none;stroke:#010101;stroke-width:0.9967;}
	.st3{fill:#010101;}
	.st4{fill:none;stroke:#010101;stroke-width:1.0006;}
	.st5{fill:#E1CF20;}
	.st6{fill:#262964;}
	.st7{fill:#D31F26;}
	.st8{fill:#14130F;}
	.st9{fill:none;stroke:#010101;stroke-width:0.9929;}
	.st10{fill:#F6EB16;}
	.st11{fill:none;stroke:#010101;stroke-width:1.83;}
	.st12{clip-path:url(#SVGID_2_);}
	.st13{clip-path:url(#SVGID_4_);}
</style>
<g id="Layer_1" class="st0">
</g>
<g id="Layer_2">
	<g>
		<path class="st1" d="M3.6,0.6h67.5c2,0,3.6,1.6,3.6,3.6v97.3c0,2-1.6,3.6-3.6,3.6H3.6c-2,0-3.6-1.6-3.6-3.6V4.1
			C0,2.2,1.6,0.6,3.6,0.6z"/>
		<path class="st4" d="M3.6,0.6h67.5c2,0,3.6,1.6,3.6,3.6v97.3c0,2-1.6,3.6-3.6,3.6H3.6c-2,0-3.6-1.6-3.6-3.6V4.1
			C0,2.2,1.6,0.6,3.6,0.6z"/>
		<path class="st3" d="M68.9,88.3c1.3,0,1.9-1.6,0.9-2.8c-0.1-0.2-0.2-0.3,0.1-0.1c0.7,0.5,1.9,0.2,2-1.2c0.1-1.7-2.2-2.2-2.7-0.4
			c0,0.2-0.2,0.2-0.1-0.1c0-0.7,0.3-1.4,0.6-2.1c-0.5,0-1,0-1.6,0c0.3,0.7,0.5,1.4,0.6,2.1c0,0.3-0.1,0.3-0.1,0.1
			c-0.4-1.8-2.7-1.3-2.7,0.4c0.1,1.4,1.3,1.7,2,1.2c0.3-0.2,0.2-0.1,0.1,0.1C67,86.7,67.6,88.2,68.9,88.3L68.9,88.3z"/>
		<path class="st3" d="M5.7,17.3c-1.3,0-1.9,1.6-0.9,2.8C5,20.2,5,20.3,4.7,20.2c-0.7-0.5-1.9-0.2-2,1.2c-0.1,1.7,2.2,2.2,2.7,0.4
			c0-0.2,0.2-0.2,0.1,0.1c0,0.7-0.3,1.4-0.6,2.1c0.5,0,1,0,1.6,0C6.2,23.3,6,22.6,6,21.9c0-0.3,0.1-0.3,0.1-0.1
			c0.4,1.8,2.7,1.3,2.7-0.4c-0.1-1.4-1.3-1.7-2-1.2c-0.3,0.2-0.2,0.1-0.1-0.1C7.6,18.9,7.1,17.3,5.7,17.3L5.7,17.3z"/>
		<path class="st3" d="M5.7,5.2v1.2h1.1c0,0,0,1.1,0,3.5c0,2.3,0.1,3.4-0.1,4.1c-0.4,1.5-2.6,1.5-3,0.4c-0.3-0.6-0.2-1.1-0.2-1.8
			H2.4c0,0,0,0.3,0,0.7c0,1.7,0.6,2.5,1.9,2.8c1.3,0.4,2.9-0.2,3.5-1.3C8.1,14.1,8,14.1,8,10.1c0-2.7,0-3.8,0-3.8h1V5.2L5.7,5.2
			L5.7,5.2z"/>
		<path class="st3" d="M68.9,100.4v-1.2h-1.1c0,0,0-1.1,0-3.5c0-2.3-0.1-3.4,0.1-4.1c0.4-1.5,2.6-1.5,3-0.4c0.3,0.6,0.2,1.1,0.2,1.8
			h1.2c0,0,0-0.3,0-0.7c0-1.7-0.6-2.5-1.9-2.8c-1.3-0.4-2.9,0.2-3.5,1.3c-0.3,0.7-0.3,0.7-0.3,4.7c0,2.7,0,3.8,0,3.8h-1v1.2
			L68.9,100.4L68.9,100.4z"/>
		<path class="st5" d="M54,10.6c0.3-0.4,1.5,2.5,2.3,4.6c0.4,1.1,0.9,1.9,0.7,2.2c-0.6,0.6-2,0.1-3.1-0.8c-1.1-0.9-1.9-2.2-1.9-2.2
			L54,10.6z M64,12.7l0,1.7c-1,0.9-2.2,2-3.6,3.6l3.8,0c0,20.7,0,62.1,0,62.1s-4.2-4.3-4.1-4.3c0,0-0.1-25-0.1-41.9
			c0-0.1,2.2-0.1,2.4-1.2c0.1-0.7-2.4-0.6-2.4-0.7c0-7.6,0-12.9,0-12.9l-2.2-0.1L64,12.7z M50.8,20.5c0.3,0.7,0.8,3.2,1.2,3.1
			c1.8-0.6,2.4,2.1,0.5,2.2c-0.7,0.1-1.5-0.9-2-2.1C50.4,23.2,50.6,20.3,50.8,20.5L50.8,20.5z M50.4,24.3c0.5,0.9,1.1,4.1,2,3.9
			c0.9-0.2,1.5,0.6,1.4,1.3c-0.5,1.9-3.7,0.1-4.6-0.4C49.6,28.2,50.2,25.7,50.4,24.3z M57.3,33.4c-0.8,1.7-0.5,3.1,0.1,4.8
			c-2,0.8-3.9,1.8-5.8,2.9c0,0-0.1-6.7,0.5-9.8c0.2-0.5,1-0.1,1.5,0.1C54.9,32,56.2,32.6,57.3,33.4L57.3,33.4z M22.7,64.3
			c0.4,3.2,0.1,8.1-0.5,10.1c-0.2,0.7-4.7-2.3-5.1-2.5c0.9-1.7-0.3-5.5-0.2-4.8C17.3,66.8,22.6,64,22.7,64.3z M24.6,77.5
			c-0.1,0.2-0.4,2.6-0.5,2.6c-0.3,0-0.8-2.3-1.7-3.1c-1.7,0.2-1.8-0.9-1.5-1.5c-0.1-0.2,0.5-0.8,1.1-0.7
			C23.4,75.4,25.3,75.9,24.6,77.5z M43.6,81.6l-1.2,7c-3.1,0.4-6,1-8.8,0.6c0.5-7.3,1.4-13.6,3.7-14.7l-4.8-3.9c0,0-5.4,3.4-5.1,3.3
			c0.1,0,0.2-2.9,0.3-7.4c-0.1-11.9-7-23.9-7.2-23.8c-0.1-0.1,5.8-0.6,10.1,1.3l0.2-15.8c0,0-2.1-1.1-2.5-1.6
			c-0.8-2.7,1.3-3.4,2.6-2.8c0.6-2.1,1.5-7.2,1.5-7.2c2.9-0.5,5.8-0.8,8.7-0.7c-0.5,2.4-0.8,4.3-1,6.7c-0.4,3.6-1.1,7.1-3,7.9
			c0.3-0.1,4.8,3.7,4.8,3.7l5.4-3.3c-1.7,11.3,1.2,22.4,6.4,31.3c-2.6,0.3-5.5,0.2-10.1-1.2l0.3,15.7C48.9,78.8,46.2,82.7,43.6,81.6
			L43.6,81.6z M24,83c0,0.2-0.1,1.9-0.1,1.9c-0.7-0.8-1.3-3.3-1.4-3.3c0,0-0.9,0.1-1.2-0.2c-0.9-1,0-2.2,0.9-2
			C23.1,79.8,24.1,81.4,24,83z M14.5,29.5c0,0,0.2,28,0.2,42c-3.5-0.1-2.8,1.9,0,1.7l0,12.9l1.9,0.1c0,0-3.6,3.8-5.9,6.2l-0.1-1.2
			l3.5-3.8l-3.6,0l0-62.1L14.5,29.5z M20.5,94.5c-0.9,0.2-1.8-3.8-3.3-6.3c1.7-1,4.4,0.9,5,2.5C21.8,92,20.5,94.5,20.5,94.5z"/>
		<path class="st6" d="M64.7,97V8.6H9.9V97H64.7z M46.6,78.4c-0.1-0.1-0.2-0.3-0.2-0.3s0.1,0,0.2-0.1c6.4-2.4,13.2-7.6,13.3-7.8V76
			l4.2,4.5v15.8H47.5l-4.8-8.2c0.3-2.1,1-6.3,1-6.3c0.4,0.1,1.9,0.2,2.8-0.9C46.9,80.3,47.1,79.6,46.6,78.4z M15.6,60.2L14.9,61
			l1.1-0.1l-0.8,0.8l1.2,0l-1,0.8l1.3,0l-1,0.8l1.4-0.1l-1,0.9l1.4,0l-1,0.9l1.4,0l-0.9,0.8l1.2,0l-1.3,1c-0.6-0.3-1.3-0.4-2.1-0.4
			l0-6.4L15.6,60.2z M14.6,71.3c-3.1,0-3.8,1.7,0,1.9C14.5,77.5,14.8,86,14.8,86l2.1,0.1c0,0-5.6,6-6.1,6.5
			c-0.5-20.3-0.5-67.3-0.5-67.3l4.2,4.3l0,13.3c1.4,1.4,2.2,3.6,3.1,4.9l2.3,1.1l-0.5,1.9l0.2,0.5l0.7-2.7l-2.5-1.2l-0.3-0.5
			l0.4-2.5l-2.4-0.8L15.2,43l0.2-2.4l-0.5-0.2v-0.5l0.5,0l0.2-2.7L14.9,37v-0.6c0,0,0.4,0,0.6,0c0.3,0.1,0.7,0.7,0.7,0.7l-0.2,3
			l3,0.6l0.2,0.3l-0.6,3l3.2,1c-0.3-0.8-0.8-1.6-1.1-2.4c0.4-0.1,0.9-0.2,1.3-0.3c0.1-4.1,0-8.4,0.1-12.3c2.6-0.2,1.4,0.1,2.5,0
			c0.4,0,0.8-0.4,0.8-0.8c0-0.3-0.1-0.5-0.4-0.7l0.4-0.2l0.8,0.9l-1.6,1.6l0,0.4l2-2l-0.9-1l0.5-0.3l0.8,0.8c0,0,1.7-1.8,1.6-1.8
			c-0.1,0-0.1-0.1-0.2-0.2c-1.2-2.6,0.4-3.9,2.5-3.2c0.5-2.4,1-4.6,1.4-7.2c1.5-0.6,8.6-0.9,8.6-0.8l0.2,0.3c0,0.1,0.2-0.2,0.2-0.2
			c0-0.2,6.2,0.2,9.2,0.7c0,0,0.1,0.3,0,0.7c0,0.8,0,0.8-0.7,0.7c-1.4-0.1-2.5,0.4-3,1.7c-0.2,0.7-0.1,1.3,0.2,3.2
			c0.4,1.8,0.4,1.6,0.3,1.9c-0.1,0.3-0.4,0.6-0.8,1c-0.3,0.3-0.4,0.8-0.1,0.5c0.2-0.3,0.5-0.4,0.8-0.5c0.7-0.4,0.7-0.7,0.3-2.2
			c-0.2-0.7-0.4-1.5-0.4-1.6c0-0.3,0.1-0.2,0.5,0.1c0.3,0.2,0.6,0.4,0.8,0.5c0.8,0.4,0.5,0-0.3-0.6c-0.6-0.5-0.7-0.7-0.2-0.4
			c0.6,0.2,1.4,0.1,2-0.1c0.1-0.1,0.2-0.1,0.2,0.1c0,0.2-0.1,0.6-0.1,1.7c-0.1,2.6-0.7,5.4-2.4,7c-2.5,2.3-6.5,0.7-8.8-1.4l-0.2,0.4
			c1.5,1.3,4.1,2.9,6.7,2.6c-1.1,0.9-3.4,2.4-3.4,2.4c-1.6-1.2-2.8-2.3-4.6-3.6l-0.3,0.2l4.9,3.9l5.2-3.5c0,0-0.2,3.3-0.3,4.5l2.3-2
			l-1.8-2.6l1.9-1.9c0,0-0.3,0,0-0.5c0.5-1.1,0.8-2.8,1.1-4.5c0-1.3,0.3-2.7,0.4-3.9c0.2,1.1,0.4,1.6,0.8,2.6
			c0.4,0.9,0.5,0.9,0.9,0.8c2.2-0.2,1.2,4.1-1.4,1.3c-0.1-0.1-0.3-0.3-0.3-0.2c-0.1,0.2,0.7,2.4,1,3c0.3,0.6,0.3,0.6,0.8,0.6
			c0.9-0.1,1.1,0.2,1.2,1.1c-0.1,1.7-2,1-3.1,0.5c-0.1-0.1,0.6,0.6,0.8,0.8c0.3,0.3,0.4,0.5,0.4,0.5l-0.1,0.9l-1.8,1.7l1.5,2.2
			l-0.1,0.8l-1.6,1.9l1.7,1.8l0,0.7L50.1,43l1.8,1.5L52,45l-1.1,2.3l2,1.4l0.2,0.9L52.2,52l2,1.2l0.4,1.1L54,56.4l2.1,1l0.6,1.2
			l-0.4,2.3l2.4,0.7l0.6,1l-0.1,2l0.6,0.1l0,0.5l-0.6,0c0,0,0.1,0.1,0,1.1c-0.1,1.7-0.1,1.6,0.3,1.7c0.8,0.1,0.6,0.7-0.2,0.6
			c-0.1,0-0.2,0-0.3,0c-0.2,0-0.4-0.3-0.4-0.3l0.2-3.1l-3-0.5l-0.3-0.4l0.5-2.9L53,60.4l-0.4-0.7l0.8-3l-2.9-1.3l-0.2-0.6l1.2-2.7
			L49,50.9l-0.2-0.6l1.5-2.7l-3-2.2c0,0,0.1,0.2,0.2,0.6l2.4,1.7L48.6,50c0,0-0.1-0.2-0.2-0.1c0.1,0.4,0.1,0.8,0.1,1.2l1.2,3.3
			l-4,2.7c1.7,1,3.9,1,5.9,1.4c0,0,0.1,0.3,0.2,0.5c0.6,0.9,1.1,2.1,1.8,3.4c-0.5,0.2-0.7,0.2-1.2,0.3c-0.7,4-1.4,8.6-2.5,12.1
			c-0.5,0-0.9,0.4-0.9,0.9c0,0.3,0.1,0.5,0.3,0.7c-0.1,0-0.2,0.1-0.4,0.1c-0.2,0-0.8-0.7-0.8-0.7l1.7-1.7l0-0.6
			c-0.7,0.7-2.2,2.2-2.2,2.2l0.9,0.9l-0.4,0.2L47.4,76l-1.6,1.7l-0.4-0.3c0.5-0.7,0.9-1,1.7-1.8c-0.4-0.5-2.1-2.1-2.1-2.1l0,0.6
			l1.6,1.6l-1.6,1.6L45,77.3l-1.3-0.5c0.5,0.4,1.5,0.8,2,1.2c2.4,1.4,0.1,4.3-2.1,3.6c-0.1-0.2-1.2,6.2-1.1,6.5
			c-0.1,1-0.1,0.9,0.2,1.4c1,2.4,4,6.9,4,6.9l-26.8,0.2c0.3-0.5,0.6-1,0.8-1.6c0,0-1.5-1.6-2.1-3.7c-0.3-1.2-0.8-2.2-1.5-3l0.1-0.1
			c2.1-0.8,4.5,1.1,5.3,3.1l1.2-2c-0.6-0.1,8.1,1,10.2,0.7c-0.2,0-0.4-0.2-0.3-0.8c0.2-1,0.6-4.8,0.6-4.8c0.4-3.6,0.8-8.2,3.1-9.7
			c0,0-0.4-0.4-0.7-0.6l0.3,0.3c0,0.1-0.1,0.2-0.1,0.2c-0.5,0.4-1.1,1.3-1.1,1.3c-2-1.7-5-3.2-6.9-2.6c-0.7,0.2-1.1,0.9-1.4,0.3
			c0.5-3.1,0.5-6.6,0.3-9.3c-0.3-6-1.6-9.5-2.9-13.7c0.7-0.2,4.1-2.6,4.1-2.6c0-0.3-4.2-1.3-5.8-1.1l-0.3-0.3l0,0.1
			c-0.2,0.1-0.4,0.4-0.4,0.7c0,0.4,0.4,0.8,0.8,0.8l0.2,0c0.2,0.5,0.4,1,0.4,1l-2.3-1l0.8-2.6l-0.3-0.6L21,48.5l3,1.3l0.2,0.6
			l-1.2,2.5l2.7,1.6l0.1,0.5l-1.4,2.7l2.6,2l-1.9,2.4l2.3,2l0,0.3l-1.9,2.2l2,2l0.1,0.8l-2.2,1.9l1.9,2.7c-0.8,0.5-1.2,1.1-1.7,1.7
			l-0.5-0.2l1.7-1.3l-1.8-2.6l-1.9,1.7l1,1.7l-0.6-0.3L22.7,74l0.1-0.9l1.8-1.7l-1.6-2.3l0-0.4c0,0,1-1.1,1.7-2l-2-2.2l1.6-2.1
			l-2.1-1.8l0.1,0.5l1.5,1.3l-1.2,1.4c-0.1,0.9,0.1,2.3-0.3,3c0.7,0.7,0.3,2.4,0,2.9c0.7,0.8,0.3,2.6-0.1,2.6c0.5,0.6,0.3,2-0.1,2.4
			c-0.1,0.1,1.8,0.8,3.1,1.7c-1,1.9-0.8,3.8-1.1,4.4c-0.4-1.3-1-2.7-1.5-3.7c-0.1-0.1-0.2-0.1-0.3-0.1c-2.1-0.2-1.9-1.9-0.3-2.3
			c0,0-3.1-2.4-4.7-2.6c0,0,0-0.1,0-0.2c0.2-0.5,0.4-1.3,0.4-2c0.1-1.1-0.4-2.7-0.4-2.7l0.7-0.4c0.1-0.6,0.9-0.6,0.9-1
			c-0.2-1.7-3.5-8.3-4.2-9C14.4,61.5,14.9,66.6,14.6,71.3L14.6,71.3z M15.4,59.3l-0.5,0.4l0-0.7L15.4,59.3z M14.8,58.2l0.3,0.2
			l-0.3,0.3L14.8,58.2z M48.4,49.8c-0.1-0.3-0.1-0.6-0.2-1c0.4-0.1,0.7-0.5,0.7-0.9c0-0.5-0.4-0.9-0.9-0.9l-0.2,0
			c-0.1-0.5-0.3-0.9-0.4-1.2l-0.2-0.1c0.5,1.7-0.5,2.6,0.9,4.1C48.2,49.9,48.3,49.9,48.4,49.8z M19.5,96.3l-8.7-0.1V93l6.7-7.2
			l-2.6,0l0-12.3c0.7-0.3,1.4-0.8,2-1.2l4.1,2.3l0.3,0.2c0,0-0.1,0-0.4,0.2c-0.5,0.3-0.6,1.1-0.4,1.6c0.3,0.9,1.1,0.8,1.6,0.8
			c0.5,0.4,0.9,1.7,1.3,2.5c0.2,0.4,0.3,0.7,0.4,0.9c0,0.2,0,0.4,0,0.4s-0.1,0-0.2-0.3c-0.7-1.4-2.2-2-3-0.7c-0.4,0.8-0.1,1.7,0.6,2
			c0.2,0.1,0.9,0,0.9,0c0,0,0.5,0.7,1.2,3c0.3,1,0.4,3,0.1,3.3c-0.4,0.5-0.6,1.3-0.9,1.9c-0.2,0.3-0.2,0.1-0.4-0.3
			c-0.9-1.3-2.5-2.3-4-2.3c-1,0-1.4,0.4-1.1,0.7c0.6,0.6,1,1.4,1.1,2.1c0.4,1.7,0.9,3.2,2.1,4.5L19.5,96.3z M23.9,88.2
			c-0.1-0.1,0-0.3,0-0.6c0.1-0.7,0.1-0.8,0.5-0.6c0.8,0.4,2,0,2.7-0.7c0.9-1,0.9-1.9,0.4-3.9c-0.6-2.2-0.6-2.5,0.1-2.9
			c0.4-0.4,0.9-1.2,0.7-1.2l-0.1,0.1c-0.1,0.1-0.5,0.4-0.8,0.6c-0.9,0.6-1.1,0.9-0.7,2c0.4,1.1,0.7,2.2,0.5,2.2
			c-0.1,0-0.4-0.3-0.6-0.4c-0.4-0.2-1.2-0.6-1.3-0.6c-0.1,0,0,0.1,0.4,0.4c1,0.7,1.5,1.3,0.5,0.9c-0.5-0.2-1.1-0.1-1.4,0
			c-0.4,0.1-0.6,0.2-0.6,0.1c-0.1-0.7,0-1.4,0-2c0,0,0.1-0.5,0.1-1c0.2-2,0.5-3.6,1.4-4.7c2.9-3.6,6.1-2.5,9.8,0.3
			c-1.4,3.8-1.3,6.8-1.6,8c-0.3,0.1-0.7-0.1-0.9-0.2c-0.5-0.3-1.1-0.5-1.7-0.5c-0.5,0-0.6,0-0.6-0.1c0-0.1,0.9-0.4,1.4-0.5
			c0.9-0.2,0.9-0.4,0.1-0.3c-0.8,0.1-1.6,0.4-2.5,1c-0.6,0.4-0.6,0.4-0.5,0.9c0,0.1,0.1,0.3-0.2,0.4c-0.3,0.1-0.2,0.2-0.1,0.4
			l0.2,0.1l0,0.3c1.1,0.9,2.9,0.9,4.5,0c0.1,0,0.2,0.1,0.1,0.3c-0.2,0.4-1.8,0.8-3,0.8c-0.5,0-0.6-0.1-1.5-0.3
			c-0.3-0.1-0.5-0.1-0.6-0.1c-0.1,0.1,0.1,0.5,0.3,0.6c0.9,0.6,2.1,0.6,3.9-0.1c0.9-0.4,0.8-0.5,0.5,1.3c-0.1,0.5-0.2,0.9-0.2,0.9
			S25.2,88.8,23.9,88.2z M25.2,86.5c-0.4,0-0.8-0.1-1-0.3c-0.3-0.4,0-0.5,0.5-0.3c0.7,0.3,1.4,0.1,2-0.3c0.4-0.2,0.5-0.1,0.1,0.2
			C26.5,86.3,25.8,86.5,25.2,86.5z M31.3,85.9c-0.7,0-1.4-0.1-1.7-0.4c-0.3-0.3,0-0.3,0.6-0.1c0.9,0.4,2.1,0.2,3.1-0.3
			c0.5-0.3,0.7-0.3,0.6,0C33.6,85.6,32.4,85.9,31.3,85.9z M25.3,85.6c-0.7,0-1.3-0.2-1.2-0.5c0-0.1,0.1-0.1,0.6,0.1
			c0.5,0.2,1.2,0.1,1.8-0.1c0.6-0.2,0.7-0.2,0.5,0C26.7,85.5,26,85.7,25.3,85.6z M23.9,85.3c-0.7-1.1-0.8-2.7-1.6-3.6
			c-1.4,0.3-2.1-1.1-0.9-2c0.6-0.3,1.3-0.1,1.9,0.8c0.5,0.8,0.7,1.4,0.7,1.9C23.9,83.5,24,84.2,23.9,85.3z M32.2,84.8l-0.3,0
			c-0.2-0.8-0.7-0.8-1,0l-0.2,0C30.9,83.7,31.8,83.7,32.2,84.8z M32.7,84.8c-0.1,0-0.2-0.1-0.3-0.3c-0.1-0.4,0-0.4,0.3-0.2
			c0.3,0.2,0.5,0.3,0.3,0.4C32.9,84.7,32.8,84.7,32.7,84.8z M30,84.5c-0.1-0.1-0.1-0.2,0-0.3c0.1-0.1,0.2-0.1,0.4-0.2
			c0.1,0,0.2,0,0.2,0.2c0,0.2-0.1,0.4-0.2,0.5C30.2,84.7,30,84.6,30,84.5z M26.2,84.6l-0.2,0c-0.3-0.7-0.9-0.7-1.1-0.1l-0.2,0
			C25,83.4,25.9,83.6,26.2,84.6z M26.6,84.5c-0.2,0-0.5-0.3-0.3-0.5c0.1-0.1,0.7,0,0.8,0.2C27.1,84.3,26.9,84.5,26.6,84.5z
			 M24.3,84.4c-0.1,0-0.1-0.1-0.1-0.1c-0.1-0.3,0.3-0.4,0.4-0.3C24.6,84.1,24.4,84.3,24.3,84.4z M29.8,81.3c0.6-0.2,0.9-0.7,0.8-1.2
			c0-0.5-0.3-0.8-0.6-0.9c-0.7-0.2-1.2,0.3-1.9,0.5c-0.3,0.1-0.2,0.5,0,0.6c0.3,0.2,0.6,0.1,1.2-0.3c1-0.8,1.3,0.7,0.3,1
			C29.4,81.1,29.5,81.4,29.8,81.3z M59.8,46.7l-0.4-0.1l0.4-0.5C59.8,46.2,59.8,46.6,59.8,46.7L59.8,46.7z M58.7,45.1l0.8-0.9
			l-1.1,0.1l0.7-0.8l-1.1,0l0.8-0.9l-1.1,0l0.8-0.8l-1.1,0l0.7-0.8L57,41l0.9-0.9l-1.3,0l1-0.9l-1.3,0l0.4-0.4l-0.3-0.2
			c-0.3,0.2-2.3,0.8-2.4,1.2c0.4,0.1,1.7-0.5,1.8-0.4c0.5,2.3,2.7,7.3,4.2,8.8l0.1-14.2c0.2-0.2,0.6-0.1,0.8-0.2
			c0.7,0,2-1.2,1.3-1.4C61.9,32.3,60,32,60,31.9c-0.2-4.1,0.1-8.3,0-12.7c-0.5-0.1-2.2-0.2-2.2-0.2s6.3-6.6,6.4-6.4
			c-0.1,7-0.1,20.8,0.1,20.9c0,0.4-0.1,1.3-0.1,1.3l0.1,43.8c0,0,0,0.2,0.1,0.3c0.1,0.2,0.1,0.3,0.1,0.9c0,0.4,0,0.5,0,0.5l-4.3-4.6
			l0-12.7c0,0-4.1-6-5-8.8c-2-4.1-1.8-10.2-3.1-12.5l-0.1,0c0-0.3,0-0.5-0.1-0.5c-0.1-0.8-0.2-1.8-0.2-1.8l0.4-0.7l-0.5-0.6l0-1.7
			l0.7-0.7l-0.6-0.8l0.2-1.6l0.5-0.4l-0.3-0.4c0,0,0-0.6,0.1-1.2c0.1-0.4,0.5-0.4,1.4,0.1c1.3,0.5,2.6,1.4,3.7,2.1
			c-0.1,0.8-1.1,2.7,0.3,4.8c0.5,0.4,2.1,0.3,2.2,0.3l0,6.5 M59.8,45.8l-0.7,0.1l0.7-0.7L59.8,45.8z M26.8,78.1
			c0.1,0,0.1-0.1,0.2-0.2c0.1-0.1,0.2-0.1,0.6-0.1c0.4,0,0.5,0,0.8-0.1c0.3-0.1,0.3-0.1,0.5,0c0.3,0.1,0.6,0.2,0.9,0.1
			c0.4-0.1,0.6-0.1,0.9,0c0.2,0.1,0.3,0.1,0.4-0.1c0-0.1,0.2-0.4,0.3-0.6c0.3-0.4,0.2-0.5-0.3-0.3c-0.4,0.1-1,0.2-1.6,0
			c-0.4-0.2-0.8-0.1-1.4,0.1c-0.5,0.2-1,0.3-1.4-0.1c-0.3-0.2-0.3-0.1-0.2,0.4C26.6,77.9,26.6,78.2,26.8,78.1z M44.9,76.5
			c0.5,0,0.9-0.4,0.9-0.9s-0.4-0.9-0.9-0.9C44.7,74.9,44.6,76.5,44.9,76.5z M27.7,76.5c0.5-0.2,1.3-0.4,2.1-0.2
			c0.7,0.2,0.5-0.3-0.2-0.4c-0.5,0-0.5,0-0.1-0.4c0.3-0.3-0.1-0.3-0.3-0.1c-0.3,0.2-1,0.2-1.4,0c-0.2-0.1-0.2,0.3,0,0.3
			c0.5,0.2,0.4,0.2-0.2,0.4C27.4,76.2,27.4,76.6,27.7,76.5z M44.9,76.2c-0.3-0.1-0.1-1.2,0-1.2c0.3,0,0.6,0.3,0.6,0.6
			S45.3,76.2,44.9,76.2z M49.7,76.2c-0.2,0.1-0.4-0.3-0.4-0.6c0-0.3,0.3-0.6,0.6-0.6c0.4,0.4,0.5,0.8,0,1.1L49.7,76.2z M47.4,75.3
			l1.9-1.9l-1.9-1.9l-1.9,2L47.4,75.3z M24.7,74.5c-0.3,0-0.5-0.2-0.5-0.5c0-0.3,0.2-0.5,0.5-0.5c0.3,0,0.5,0.2,0.5,0.5
			C25.2,74.3,25,74.5,24.7,74.5z M47.4,73.9c-0.3,0-0.5-0.2-0.5-0.5c0-0.3,0.2-0.5,0.5-0.5c0.3,0,0.5,0.2,0.5,0.5
			C47.9,73.6,47.7,73.9,47.4,73.9z M27.1,73.4l-1.4-1.9l1.7-1.5l-0.1,0.9c-0.4,0.1-0.7,0.4-0.7,0.8c0,0.3,0.2,0.6,0.5,0.7L27.1,73.4
			z M49.9,73.3l0-0.5L48.2,71l1.7-1.8l0-0.5L47.7,71L49.9,73.3z M45,73.3l2.1-2.2l-2-2.2l0,0.6l1.6,1.7L45,72.7L45,73.3z M14.5,72.9
			c-0.4,0-0.8-0.1-0.9-0.4c-0.1-0.2-0.1-0.3-0.3-0.4c-0.3-0.1-0.6,0-0.6,0l0.5,0.1c0.3,0.3,0.3,0.5-0.2,0.5c-0.2,0-0.6,0-0.6-0.2
			c-0.1-0.6,0.7-1,1.7-0.9c0.7,0.1,0.7-0.2,0.8-0.5c0-0.1,0.1-0.3,0.2-0.5c0.2-0.4,0.3-0.4,0.2-0.6c-0.2-0.2-0.4-0.5-0.4-0.8l0-2.4
			c0,0,1.5,0,2,0.4c0.5,1,0.9,3.1,0.1,4.3c-0.3,0.3-0.7,0.5-1.1,0.9C15.5,72.8,15,72.9,14.5,72.9z M22.9,72.7l0.1-0.7
			c0.4-0.1,0.7-0.4,0.7-0.8c0-0.4-0.2-0.6-0.5-0.8l0-0.6l1.1,1.6L22.9,72.7z M27.2,72.2c-0.2-0.1-0.3-0.3-0.3-0.5
			c0-0.2,0.1-0.4,0.4-0.5L27.2,72.2z M50,71.9c0.8-0.4,0.5-1.9,0-1.8c-0.5,0-0.9,0.4-0.9,0.9S49.5,71.9,50,71.9z M45,71.9
			c0.5,0,0.9-0.4,0.9-0.9c0-0.5-0.4-0.9-0.9-0.9C44.4,70.3,44.7,71.9,45,71.9z M22.9,71.7l0.1-1c0.2,0.1,0.3,0.3,0.3,0.5
			C23.3,71.4,23.2,71.6,22.9,71.7z M50,71.6c-0.3,0-0.6-0.3-0.6-0.6s0.3-0.6,0.6-0.6C50.2,70.4,50.3,71.5,50,71.6z M45,71.6
			c-0.4,0-0.1-1.1,0-1.2c0.3,0,0.6,0.3,0.6,0.6C45.6,71.4,45.4,71.6,45,71.6z M25,71.1l2-2l-2-2.2l-1.6,2L25,71.1z M47.4,70.7l1.9-2
			l-1.8-1.9l-1.9,2L47.4,70.7z M59.9,69.6l-0.7-0.7l0.7,0V69.6z M25.1,69.5c-0.3,0-0.5-0.2-0.5-0.5c0-0.3,0.2-0.5,0.5-0.5
			s0.5,0.2,0.5,0.5C25.6,69.3,25.4,69.5,25.1,69.5z M47.4,69.3c-0.3,0-0.5-0.2-0.5-0.5c0-0.3,0.2-0.5,0.5-0.5c0.3,0,0.5,0.2,0.5,0.5
			C47.9,69,47.7,69.3,47.4,69.3z M45,68.7l2.1-2.2l-2-2.2l0,0.5l1.6,1.6L45,68.2L45,68.7z M49.9,68.7l0-0.6l-1.7-1.7l1.8-1.8
			l-0.1-0.5l-2.2,2.3L49.9,68.7z M27.3,68.1l-1.5-1.5l1.5-1.7l0,0.9c-0.3,0.1-0.5,0.4-0.5,0.8c0,0.4,0.2,0.6,0.5,0.8L27.3,68.1z
			 M23.1,68l0-0.6c0.3-0.1,0.6-0.4,0.6-0.8c0-0.4-0.3-0.7-0.6-0.8l0-0.5l1.2,1.3L23.1,68z M58.1,67.7c0,0-0.5-0.5-0.7-0.8
			c0.1-0.2,0.2-0.4,0.2-0.6c0-0.5-0.4-0.9-0.9-0.9c-0.1,0-0.3,0-0.4,0.1c-0.1-0.1-0.5-0.7-0.5-0.7l2.4,0.4L58.1,67.7z M45,67.4
			c0.5,0,0.9-0.4,0.9-0.9c0-0.5-0.4-0.9-0.9-0.9C44.1,65.7,44.3,67.3,45,67.4z M50,67.3c1.3-0.1,0.9-1.8,0-1.8
			c-0.5,0-0.9,0.4-0.9,0.9S49.5,67.3,50,67.3z M23.1,67.1l0-1c0.2,0.1,0.4,0.3,0.4,0.5C23.4,66.8,23.3,67,23.1,67.1z M45,67.1
			c-0.6-0.2-0.4-1.2,0-1.2c0.3,0,0.6,0.3,0.6,0.6C45.6,66.8,45.3,67.1,45,67.1z M50,67c-0.3,0-0.6-0.3-0.6-0.6s0.3-0.6,0.6-0.6
			C50.8,65.9,50.6,67,50,67z M27.3,67c-0.2-0.1-0.3-0.3-0.3-0.5c0-0.2,0.1-0.4,0.3-0.5L27.3,67z M57.3,66.7l-0.7-0.9l0.2,0
			c0.3,0,0.6,0.3,0.6,0.6C57.4,66.5,57.3,66.6,57.3,66.7z M25.1,66.3l1.6-2l-2-1.8l-1.4,1.8L25.1,66.3z M47.4,66.1l2-2L48,62.5
			l0.8,0.1l1.1,1.2l0-0.4l-0.6-0.7l0.7,0c0.2-0.4-1.2-0.4-2.1-0.5c-1.1-0.2-3.4-1-2.9-0.4l0.6,0.2l-0.6,0.7l0,0.5l1-1l0.3,0.1
			L45,63.5l0.1,0.4l1.7-1.7l0.5,0.1l-1.7,1.7L47.4,66.1z M25,64.9c-0.3,0-0.5-0.2-0.5-0.5s0.2-0.5,0.5-0.5c0.3,0,0.5,0.2,0.5,0.5
			S25.2,64.9,25,64.9z M47.5,64.6c-0.3,0-0.5-0.2-0.5-0.5s0.2-0.5,0.5-0.5c0.3,0,0.5,0.2,0.5,0.5S47.7,64.6,47.5,64.6z M58.7,64.5
			c0,0,0.1-1.6,0.2-2.4l-2.6-0.7L56,64L58.7,64.5z M59.8,64.4l-0.4,0l0.1-1.5l0.4,0.4L59.8,64.4z M55,63.7c0,0-0.3-0.4-0.6-0.9
			c0.2-0.2,0.3-0.4,0.3-0.6c0-0.5-0.4-0.9-0.9-0.9c-0.1,0-0.2,0-0.3,0c-0.1-0.2-0.3-0.6-0.3-0.6l2.2,0.7L55,63.7z M27.2,63.5
			l-1.7-1.4l1.4-1.7l0.1,0.7c-0.3,0.1-0.5,0.4-0.5,0.8c0,0.4,0.3,0.8,0.7,0.8L27.2,63.5z M57.4,63.5c-0.3,0-0.5-0.2-0.5-0.5
			s0.2-0.5,0.5-0.5s0.5,0.2,0.5,0.5S57.7,63.5,57.4,63.5z M22.5,63.3c0.4,0,0.8-0.4,0.8-0.8c0-0.4-0.4-0.8-0.8-0.8
			C22.4,61.6,22.3,63.1,22.5,63.3z M22.5,63.1c0-0.2-0.1-1.1,0-1.1c0.3,0,0.5,0.2,0.5,0.5C23.1,62.8,22.8,63.1,22.5,63.1z
			 M54.3,62.5c-0.2-0.3-0.4-0.7-0.6-1l0.1,0c0.3,0,0.6,0.3,0.6,0.6C54.4,62.3,54.4,62.4,54.3,62.5z M27.1,62.4
			c-0.2-0.1-0.4-0.3-0.4-0.5c0-0.2,0.1-0.4,0.3-0.5L27.1,62.4z M24.7,61.9l1.5-2L24,58.2l-1.3,2.2L24.7,61.9z M58.4,61.1l-1.7-0.5
			l0.3-1.7c0,0.1,0.1,0.3,0.2,0.5c-0.1,0.1-0.1,0.3-0.1,0.4c0,0.5,0.4,0.9,0.9,0.9l0.1,0C58.3,61,58.4,61.1,58.4,61.1z M55.9,60.7
			l0.5-2.7l-2.5-1l-0.6,2.9L55.9,60.7z M24.4,60.7c-0.3,0-0.5-0.2-0.5-0.5s0.2-0.5,0.5-0.5c0.3,0,0.5,0.2,0.5,0.5
			S24.7,60.7,24.4,60.7z M57.9,60.4c-0.3-0.1-0.5-0.3-0.5-0.6l0-0.1C57.6,60,57.8,60.2,57.9,60.4z M22.3,60.4l1.3-2.5l-2.3-1.6
			l0.2,0.5l1.6,1.2l-1,1.8L22.3,60.4z M54.8,59.4c-0.3,0-0.5-0.2-0.5-0.5s0.2-0.5,0.5-0.5c0.3,0,0.5,0.2,0.5,0.5
			S55.1,59.4,54.8,59.4z M52.4,59.2l-0.5-0.9c0.2-0.2,0.4-0.4,0.4-0.7c0-0.5-0.4-0.9-0.9-0.9l-0.2,0l-0.4-0.8l2.3,1L52.4,59.2z
			 M21.8,59.2c0.2,0,0.4-0.1,0.6-0.2c0.1-0.1,0.2-0.3,0.2-0.6c0-0.4-0.4-0.8-0.8-0.8C21.2,57.7,21.5,59.1,21.8,59.2z M26.6,59
			l-1.9-1.4l1.1-2.1c0,0,0.1,0.4,0.3,1c-0.3,0.1-0.5,0.4-0.5,0.7c0,0.4,0.4,0.8,0.8,0.8h0C26.5,58.3,26.6,58.7,26.6,59z M21.8,58.9
			c-0.3-0.1-0.2-1,0-1.1c0.3,0,0.5,0.2,0.5,0.5C22.3,58.7,22.1,58.9,21.8,58.9z M51.8,58l-0.5-1l0.1,0c0.3,0,0.6,0.3,0.6,0.6
			C52,57.7,51.9,57.9,51.8,58z M26.4,57.7c-0.3,0-0.5-0.3-0.5-0.5c0-0.2,0.1-0.4,0.3-0.5C26.2,57.1,26.3,57.4,26.4,57.7z M23.9,57.5
			l1.3-2.6l-2.4-1.5l-1.1,2.5L23.9,57.5z M55.9,57l-1.5-0.7l0.4-1.5l0.2,0.4c-0.1,0.1-0.1,0.3-0.1,0.5c0,0.5,0.3,0.8,0.8,0.9
			L55.9,57z M53.6,56.2l0.7-2.6L52,52.5L51,55L53.6,56.2z M55.5,56.1c-0.2-0.1-0.3-0.3-0.3-0.5l0-0.1L55.5,56.1z M23.4,55.9
			c-0.3,0-0.5-0.2-0.5-0.5s0.2-0.5,0.5-0.5c0.3,0,0.5,0.2,0.5,0.5S23.7,55.9,23.4,55.9z M21.3,55.8l1.1-2.7l-2.5-1.4l0.2,0.5
			l1.9,1.1l-0.8,2L21.3,55.8z M52.7,54.9c-0.3,0-0.5-0.2-0.5-0.5s0.2-0.5,0.5-0.5c0.3,0,0.5,0.2,0.5,0.5S52.9,54.9,52.7,54.9z
			 M20.5,54.5c0.4,0,0.8-0.4,0.8-0.8c0-0.4-0.4-0.8-0.8-0.8C19.7,52.9,20.1,54.5,20.5,54.5z M50.2,54.4c-0.2-0.3-0.3-0.6-0.4-0.9
			c0.2-0.2,0.4-0.4,0.4-0.7c0-0.5-0.4-0.9-0.8-0.9l-0.1,0l-0.1-0.5l2,1C50.8,53.1,50.6,53.7,50.2,54.4z M20.5,54.2
			c-0.2-0.1-0.3-1,0-1.1c0.3,0,0.5,0.2,0.5,0.5C21,54,20.8,54.2,20.5,54.2z M25.3,53.9l-1.9-1.1l1-2.1l0.3,1
			c-0.2,0.1-0.3,0.4-0.3,0.7c0,0.4,0.4,0.8,0.8,0.8L25.3,53.9z M49.7,53.2l-0.3-1c0.3,0,0.5,0.3,0.5,0.6
			C49.9,53,49.9,53.1,49.7,53.2z M25,52.8c-0.2,0-0.4-0.3-0.4-0.5c0-0.2,0.1-0.3,0.2-0.4L25,52.8z M54,52.8l-1.5-0.9l0.7-1.8
			l0.2,0.6c-0.1,0.2-0.2,0.4-0.2,0.6c0,0.4,0.3,0.8,0.7,0.9L54,52.8z M22.6,52.7l0.9-2.5l-2.6-1.4l-0.7,2.5L22.6,52.7z M53.8,51.8
			c-0.2-0.1-0.3-0.3-0.3-0.5l0-0.2L53.8,51.8z M51.8,51.7l1.1-2.5l-2.2-1.5l-1.2,2.6L51.8,51.7z M21.8,51.3c-0.3,0-0.5-0.2-0.5-0.5
			s0.2-0.5,0.5-0.5c0.3,0,0.5,0.2,0.5,0.5S22.1,51.3,21.8,51.3z M19.2,50.2c0.2-0.1,0.4-0.4,0.4-0.7c0-0.4-0.4-0.8-0.8-0.8
			c-0.1,0-0.2,0-0.3,0C18.3,49,18.6,50.2,19.2,50.2z M51.1,50.3c-0.3,0-0.5-0.2-0.5-0.5c0-0.3,0.2-0.5,0.5-0.5
			c0.3,0,0.5,0.2,0.5,0.5C51.6,50,51.4,50.3,51.1,50.3z M18.6,49l0.1,0c0.3,0,0.5,0.2,0.5,0.5c0,0.2-0.1,0.3-0.2,0.4
			C18.6,50.3,18.6,48.9,18.6,49z M48.2,48.6c-0.1-0.4-0.2-0.8-0.3-1.2l0.1,0c0.3,0,0.6,0.3,0.6,0.6C48.6,48.3,48.4,48.5,48.2,48.6z
			 M20.5,48.3l0.7-2.8l-2.6-1l-0.5,2.6L20.5,48.3z M52.7,48.2l-1.4-1c0,0,0.5-1.1,0.8-1.7l0.1,0.5c-0.2,0.2-0.4,0.4-0.4,0.7
			c0,0.4,0.3,0.8,0.7,0.9L52.7,48.2z M23.1,48.1c-0.3,0-0.5-0.2-0.5-0.5c0-0.2,0.1-0.3,0.2-0.4c0.1,0.3,0.3,0.5,0.4,0.9L23.1,48.1z
			 M52.5,47.4c-0.2-0.1-0.4-0.3-0.4-0.5c0-0.2,0.1-0.3,0.2-0.4L52.5,47.4z M50.4,47l1.3-2.2l-1.9-1.4l-1.5,2.2L50.4,47z M19.6,46.9
			c-0.3,0-0.5-0.2-0.5-0.5c0-0.3,0.2-0.5,0.5-0.5c0.3,0,0.5,0.2,0.5,0.5C20.1,46.7,19.9,46.9,19.6,46.9z M17.4,46.2L17,45.7
			c0.1-0.1,0.2-0.3,0.2-0.5c0-0.4-0.4-0.8-0.8-0.8l-0.2,0L16,44l1.7,0.6L17.4,46.2z M50,45.6c-0.3,0-0.5-0.2-0.5-0.5
			s0.2-0.5,0.5-0.5c0.3,0,0.5,0.2,0.5,0.5S50.3,45.6,50,45.6z M16.9,45.4l-0.5-0.8h0C16.9,44.7,17.1,45.1,16.9,45.4z M47.7,45.4
			l1.8-2.4l-2.4-1.8l0,0.5l1.7,1.3l-1.3,1.8L47.7,45.4z M21.4,44.6L19,43.9l0.5-2.4l0.6,0.9c-0.2,0.1-0.2,0.4-0.2,0.6
			c0,0.4,0.4,0.8,0.8,0.8l0.3,0L21.4,44.6z M47.3,44.2c0.5,0,0.8-0.4,0.8-0.9c0-0.5-0.4-0.9-0.9-0.9c-0.2,0-0.3,0.3,0,0.3
			c0.3,0,0.6,0.3,0.6,0.6c0,0.3-0.2,0.6-0.6,0.6L47.3,44.2L47.3,44.2z M18.1,43.9l0.4-2.7l-2.7-0.6l-0.2,2.5L18.1,43.9z M51.8,43.9
			l-1.3-0.9l1-1.4l0.1,0.4c-0.2,0.2-0.4,0.4-0.4,0.7c0,0.4,0.2,0.7,0.6,0.8L51.8,43.9z M20.6,43.5c-0.3,0-0.5-0.2-0.5-0.5
			c0-0.1,0-0.2,0.1-0.3l0.5,0.9L20.6,43.5z M29.1,43.2L29,43.1l0.5-0.5l0-0.4L28.6,43l-0.3-0.1l1.1-1.1l0.1-0.4L28,42.8l-0.6-0.2
			L29,41l-1.9-2l-1.9,2l1.4,1.5l-0.7-0.1c-0.3-0.3-0.6-0.8-1.1-1.1l0.1,0.4c0,0,0.6,0.6,0.5,0.7l-0.5,0c-0.6,0.2,0.8,0.4,2.1,0.6
			C27.6,43,29.7,43.9,29.1,43.2L29.1,43.2z M51.7,43.2c-0.1-0.1-0.2-0.3-0.2-0.5c0-0.1,0-0.3,0.1-0.4L51.7,43.2z M17.2,42.7
			c-0.3,0-0.5-0.2-0.5-0.5c0-0.3,0.2-0.5,0.5-0.5c0.3,0,0.5,0.2,0.5,0.5C17.6,42.5,17.4,42.7,17.2,42.7z M49.7,42.6l1.5-2L49.5,39
			l-1.8,2.1L49.7,42.6z M15,42.1l-0.1,0v-1.4l0.2,0L15,42.1z M27.1,41.5c-0.3,0-0.5-0.2-0.5-0.5c0-0.3,0.2-0.5,0.5-0.5
			c0.3,0,0.5,0.2,0.5,0.5C27.6,41.3,27.3,41.5,27.1,41.5z M49.5,41.4c-0.3,0-0.5-0.2-0.5-0.5c0-0.3,0.2-0.5,0.5-0.5
			c0.3,0,0.5,0.2,0.5,0.5C50,41.1,49.8,41.4,49.5,41.4z M47.1,41l2-2.4L47,36.4l0,0.5l1.7,1.8l-1.6,1.8L47.1,41z M24.7,40.8l2.1-2.1
			l-2.1-2.1l0,0.5l1.6,1.6l-1.5,1.5L24.7,40.8z M29.3,40.5l0-0.6L28,38.7l1.3-1.4l0-0.6l-1.9,1.9L29.3,40.5z M18.7,40.3l-2.4-0.5
			l0.1-2.3l0.6,0.7c-0.1,0.1-0.2,0.3-0.2,0.5c0,0.4,0.4,0.8,0.8,0.8c0.1,0,0.2,0,0.3-0.1L18.7,40.3z M51.4,39.9l-1.2-1.3l1.1-1.3
			l0,0.4c-0.3,0.1-0.5,0.5-0.5,0.8c0,0.4,0.2,0.7,0.6,0.8L51.4,39.9z M47,39.6c0.4-0.1,0.7-0.4,0.7-0.9s-0.3-0.8-0.7-0.9v0.3
			c0.2,0.1,0.4,0.3,0.4,0.6c0,0.3-0.2,0.5-0.4,0.6V39.6z M29.4,39.5c0.4-0.2,0.2-1.6,0-1.6c-0.4,0-0.8,0.4-0.8,0.8
			S29,39.5,29.4,39.5z M24.7,39.3c0.4,0,0.8-0.4,0.8-0.8c0-0.4-0.4-0.8-0.8-0.8C24.4,37.9,24.5,39.3,24.7,39.3z M17.7,39.2
			c-0.3,0-0.5-0.2-0.5-0.5c0-0.1,0-0.2,0.1-0.3l0.6,0.8L17.7,39.2z M29.4,39.2c-0.3,0-0.5-0.2-0.5-0.5s0.2-0.5,0.5-0.5
			C29.4,38.3,29.5,39.2,29.4,39.2z M51.4,39.1c-0.2-0.1-0.3-0.3-0.3-0.5c0-0.2,0.1-0.4,0.2-0.5L51.4,39.1z M24.7,39.1
			c-0.1-0.2-0.1-1.1,0-1.1c0.3,0,0.5,0.2,0.5,0.5C25.2,38.8,25,39.1,24.7,39.1z M27.1,38.3l1.9-1.9l-2-2l-1.9,2L27.1,38.3z
			 M49.4,38.2l1.7-1.9l-1.7-2.2l-2,2L49.4,38.2z M58.8,38.1c-0.5,0-1-0.1-1.2-0.4c-0.8-1.1-0.6-3.4,0-4.1c1.3-1.2,2-1.5,3.4-1.2
			c-0.2,0.7,0.5,1,0.6,0.9l0-0.1c-0.5-0.1-0.5-0.7-0.4-0.7c0.5,0,0.9,0,1,0.3c0,0.2-0.1,0.4-0.4,0.6c-0.4,0.3-2.1,0.3-2.1,0.3
			c0,0,0,0.5-0.2,0.8c-0.2,0.2-0.4,0.5-0.2,0.6c0.2,0.1,0.4,0.4,0.5,0.7c0.1,0.7,0,2.3,0,2.3C59.4,38.1,59.1,38.1,58.8,38.1z
			 M27.1,36.9c-0.3,0-0.5-0.2-0.5-0.5s0.2-0.5,0.5-0.5c0.3,0,0.5,0.2,0.5,0.5S27.4,36.9,27.1,36.9z M49.4,36.7
			c-0.3,0-0.5-0.2-0.5-0.5c0-0.3,0.2-0.5,0.5-0.5c0.3,0,0.5,0.2,0.5,0.5C49.9,36.5,49.7,36.7,49.4,36.7z M24.7,36.2l2-2.1l-2.2-2.2
			l0.1,0.6l1.6,1.6l-1.5,1.6L24.7,36.2z M29.3,36.2l0.1-0.6l-1.4-1.5l1.3-1.3l0-0.7l-1.9,2L29.3,36.2z M51.4,35.4l-1.1-1.6l1.4-1.2
			l0,0.5c-0.4,0.1-0.7,0.5-0.7,0.9c0,0.4,0.2,0.7,0.6,0.8L51.4,35.4z M47.1,35.1c0-0.3,0-0.6,0.1-0.9c0.4-0.1,0.6-0.5,0.6-0.9
			c0-0.4-0.2-0.7-0.5-0.8c0-0.3,0.1-0.5,0.1-0.9l1.4,2L47.1,35.1z M14.9,35l0-5.6l-4.1-4.2V9.3h16.7l4.3,7.3
			c0.1,0.1,0.2,0.1,0.3,0.2l-1.3,6.8c-2-0.9-3.7,1.5-2.6,3.4C22,29.3,14.9,35,14.9,35L14.9,35z M24.7,35c0.4,0,0.8-0.4,0.8-0.8
			s-0.4-0.8-0.8-0.8C24.2,33.6,24.5,34.9,24.7,35z M29.4,34.9c0.2-0.3,0.3-1.6,0-1.6c-0.4,0-0.8,0.4-0.8,0.8
			C28.6,34.6,28.9,34.9,29.4,34.9z M24.7,34.7c-0.4-0.3,0-1,0-1.1c0.3,0,0.5,0.2,0.5,0.5S25,34.7,24.7,34.7z M29.4,34.6
			c-0.3,0-0.5-0.2-0.5-0.5s0.2-0.5,0.5-0.5C29.3,33.7,29.5,34.6,29.4,34.6z M51.5,34.4c-0.2-0.1-0.3-0.3-0.3-0.5
			c0-0.2,0.2-0.5,0.4-0.6L51.5,34.4z M47.2,33.9c0-0.4,0-0.7,0.1-1c0.2,0.1,0.2,0.3,0.2,0.5C47.6,33.6,47.4,33.8,47.2,33.9z
			 M27.1,33.7l1.9-1.9l-2-2l-1.9,2L27.1,33.7z M49.5,33.2l2-1.6l-1.3-2l-0.4-0.3L48,31L49.5,33.2z M57.5,33.1l-4.6-2.5
			c0,0,1.2-0.5,1.2-1.3c0-0.9-0.6-1.6-1.7-1.4c-0.2,0-0.4-0.1-0.6-0.6c-0.5-1.1-0.9-2.2-0.7-2.2c0.6,0.5,0.5,0.5,1.2,0.8
			c1.3,0.3,2-0.8,1.6-1.8c-0.4-0.9-1-0.9-1.6-0.8c-0.1,0-0.2-0.1-0.2-0.2c-0.2-0.4-0.5-1.1-0.7-2.2c-0.4-1.7-0.4-3.8-0.2-4.3
			c0.4-0.7,0.9-1.7,0.9-1.7c1,1.9,3.1,3.5,5.5,2.9c0.1-0.1,0.1-0.3,0-0.5c-0.8-1-0.9-1.9-1.2-2.9c-0.7-2.6-2.1-4-2.1-3.8l0.7-1.4
			c0,0,6.4,0,9.1,0v3.1L57,19.4l2.7,0.1l-0.1,12.3C58.6,32,57.5,33.1,57.5,33.1z M27.1,32.3c-0.3,0-0.5-0.2-0.5-0.5s0.2-0.5,0.5-0.5
			c0.3,0,0.5,0.2,0.5,0.5S27.4,32.3,27.1,32.3z M49.8,31.8c-0.3,0-0.5-0.2-0.5-0.5s0.2-0.5,0.5-0.5c0.3,0,0.5,0.2,0.5,0.5
			S50,31.8,49.8,31.8z M29.3,31.3l0-0.5l-1.4-1.4l1.3-1.3c0.2-0.3,0.7-0.2,0.8-0.2c-0.1-0.3-0.4-0.3-0.7-0.4l-1.8,1.9L29.3,31.3z
			 M29.3,30.2c0.3-0.1,0.3-1.5,0-1.6c-0.4,0-0.8,0.4-0.8,0.8C28.5,29.9,28.9,30.2,29.3,30.2z M24.6,30c0-0.1-0.1-1,0-1.1
			c0.3,0,0.5,0.2,0.5,0.5S24.9,30,24.6,30z M29.3,30c-0.3,0-0.5-0.2-0.5-0.5c0-0.3,0.2-0.5,0.5-0.5C29.4,29,29.5,29.9,29.3,30z
			 M45.6,29.7l0.3,0c0.3,0,0.6,0.2,0.7,0.2l0.1-0.3l-0.3-0.2c-0.1-0.1-0.1-0.1,0.1-0.2c0.1,0,0.3,0,0.3-0.2c0.1-0.1,0.1-0.2,0-0.2
			c-0.5,0-1.2,0.2-1.9,0c-0.4-0.1-0.6-0.2-0.7-0.2c-0.1,0.1,0.3,0.5,0.7,0.6c0.4,0.1,0.6,0,0.4,0.2l-0.2,0.1c0,0.1,0.1,0.3,0.2,0.3
			C45.4,29.9,45.5,29.7,45.6,29.7L45.6,29.7z M43.3,28.4l0.2-0.1c0.3-0.2,0.6-0.4,1.6-0.1c0.5,0.2,1.1,0,1.4-0.1
			c0.3-0.1,0.6-0.1,0.9,0c0.3,0.1,0.6,0.4,0.6,0.1c0-0.1,0-0.4,0-0.6c0-0.5,0-0.8-0.4-0.5c-0.1,0.2-0.3,0.2-0.6,0
			c-0.2-0.1-0.4-0.2-0.6,0c-0.3,0.2-0.5,0.2-0.9,0c-0.2-0.1-0.5-0.1-0.7,0.1c-0.5,0.3-0.8,0-0.9-0.3c-0.1-0.2-0.2,0.1-0.5,0.8
			C43.2,28.1,43.1,28.4,43.3,28.4z M45.5,25.8c0.3-0.1,0.6-0.2,0.9-0.4c0.5-0.4,0-0.7-0.3-0.6c-0.2,0-0.3,0.1-0.5,0.2
			c-0.7,0.5-1.1,0.4-1.1-0.2c-0.1-0.6,0.8-0.9,0.8-1.1c-0.1-0.2-0.6,0.1-0.8,0.4C43.5,25.3,44.4,26.4,45.5,25.8z M42,22.7
			c0.9-0.1,2.3-0.6,3-1.1c0.5-0.4,0.7-0.5,0.5-0.7c-0.2-0.2-0.4-0.2-0.1-0.5c0.1-0.1,0.3-0.3,0.3-0.4c0-0.2-1.3-0.9-2.1-1
			c-0.6-0.1-1.5,0-2,0.2c-0.7,0.3-0.7,0.5-0.1,0.3c0.5-0.1,1.1-0.3,1.7-0.2c0.5,0,1,0.2,1.4,0.3c0.8,0.3,0.7,0.6-0.1,0.3
			c-0.9-0.4-2.1-0.4-3.2,0.1c-0.4,0.2-0.6,0.4-0.6,0.3l-0.1-0.2c0-0.1,0,0.2-0.1,0.6c0,0.3-0.1,0.8-0.1,0.8l0.1-0.3
			c0-0.6,0.3-0.6,1.1-0.1c0.9,0.5,1.4,0.5,2.3,0.5c0.4,0,0.4,0.1-0.1,0.3c-0.3,0.1-0.7,0.2-1.3,0.4C41.9,22.5,41.7,22.7,42,22.7z
			 M49.1,21.5c-0.3,0-0.6-0.3-0.7-0.9l0.3,0c0.1,0.8,0.7,0.7,1,0.1l0.3,0C49.7,21.3,49.4,21.5,49.1,21.5z M48.2,21.4
			c-0.1,0-0.8-0.3-0.8-0.4c0-0.1,0.2-0.2,0.4-0.3c0.2-0.1,0.2-0.1,0.3,0.1C48.2,21,48.4,21.4,48.2,21.4z M49.8,21.4
			c0-0.1,0.2-0.4,0.3-0.5c0.2-0.1,0.3,0.2,0.2,0.3C50.2,21.3,49.9,21.5,49.8,21.4L49.8,21.4z M43.2,21.4c-0.4,0-0.8-0.4-0.9-0.9
			l0.2,0c0.2,1.1,1,0.8,1.2,0.1l0.3,0.1C43.8,21.1,43.5,21.3,43.2,21.4L43.2,21.4z M44.1,21.3c-0.1,0-0.1-0.1,0-0.4
			c0.1-0.1,0.1-0.2,0.2-0.2c0.2,0,0.3,0.1,0.3,0.2c0.1,0.1-0.1,0.2-0.3,0.3C44.2,21.3,44.1,21.3,44.1,21.3z M42.3,21.2
			c-0.1,0-0.2,0-0.4-0.1c-0.6-0.2-0.6-0.3-0.3-0.5c0.1-0.1,0.2-0.1,0.3-0.1c0.3-0.1,0.3,0.1,0.3,0.2c0,0.1,0.1,0.2,0.1,0.3
			C42.4,21.1,42.4,21.2,42.3,21.2z M50.4,20.3c-0.1,0-0.3-0.1-0.7-0.3c-0.6-0.2-1.2-0.1-1.9,0.1c-0.3,0.1-0.4,0.2-0.3,0
			c0.1-0.1,0.6-0.4,1.1-0.5C49.4,19.4,50.4,19.8,50.4,20.3L50.4,20.3z M47.7,19.6c-0.1,0,0-0.1,0.2-0.3c0.3-0.3,0.7-0.5,1.1-0.6
			c0.9-0.2,1.6,0.1,1.6,0.6c0,0.4-0.1,0.4-0.5,0.1c-0.4-0.2-1.2-0.2-1.9,0C48,19.4,47.7,19.6,47.7,19.6L47.7,19.6z M40.9,19.1
			c0.7-0.2,1.4-0.4,2-0.5c0.7-0.1,1.7,0,2.2,0.3c0.4,0.2,0.5,0.1,0.4-0.3c-0.1-0.2-0.3-0.5-0.8-0.7c-0.7-0.3-2.4,0.2-3.7,0.8
			C40.3,19.1,40.4,19.3,40.9,19.1L40.9,19.1z M51.9,14.1l-1.1,2C43,14.5,34.7,15.6,32.1,16c0,0-2.8-4.7-3.8-6.3
			c-0.1-0.2-0.4-0.8-0.4-0.8l26.4,0c-0.4,0.7-0.7,1.7-0.7,1.7c0.8,0.3,1.4,1.5,1.8,2.6c0.3,0.9,0.9,3.1,1.7,4.2
			C55.8,18.1,52.4,16.4,51.9,14.1z"/>
		<path class="st7" d="M28.2,9.1l26.2,0L50.9,16c-6.4-1-12.6-0.8-18.8,0.1L28.2,9.1L28.2,9.1z M63.9,14.7L64,18l-3.4-0.1L63.9,14.7z
			 M35.3,36.8l0,10c-1.4-1-2.7-1.9-4.1-2.7l0.1-10.3L35.3,36.8z M46.7,38.9c0.2,5.6,1.1,7.8,1.6,10.7l-4.9,3.2l0-11.6L46.7,38.9z
			 M60,48.8l0,13.9c-4.5-6.4-7.3-13-8.1-21.8c1.2-0.5,2.4-1,3.6-1.5C56.8,42.9,58.3,46,60,48.8z M14.8,43.1
			c4.1,5.3,6.6,12.3,7.9,20.9l-3.8,1.8c-1.3-3.1-2.5-6.3-4.1-8.8L14.8,43.1z M30.9,52.4l0,11.6l-3.2,2.1c-0.2-4.1-0.8-7.9-1.6-10.7
			L30.9,52.4z M39.4,58.5c1.2,0.9,2.4,1.7,3.8,2.4L43,71.2l-3.6-2.8L39.4,58.5z M13.9,87.6c0,0-2.3,2.3-3.1,3.1l0-3.1L13.9,87.6z
			 M42.4,89.1l4.2,7.3l-26.5,0.2l3.4-7.3C30.6,90.5,36.6,89.9,42.4,89.1z"/>
		<path class="st3" d="M30.3,23.8c-0.1,0-0.9,0.5-1.3,1.4c-0.5,0.9,0,1.8-0.2,1.8c-0.8-0.3-0.6-1.9-0.3-2.4c0.2-0.4,0.7-0.7,1.2-0.8
			C30.2,23.7,30.3,23.8,30.3,23.8L30.3,23.8z M28.9,27.3c0.2,0,0.2,0,0.4,0.1c0.2,0.2,0.3,0.3,0.4,0.3c0.1,0,0.2,0,0.2,0.1
			c0,0.1-0.1,0.1-0.3,0c-0.1,0-0.4,0.2-0.4,0.2l0,15.3c-1.2-0.5-3-0.8-4.4-1l-0.1-13.7c0,0-2,1.1-2.8,1.5l0,12.2l-1.4,0.2l2.3,4.6
			c0.3-0.2,4.8,0.2,5.9,0.9l-4.1,2.5c0.4,1.3,0.8,2.5,1.1,3.8l0.1,0.1c0.1,0.3,0.1,0.5,0.2,0.8l0,0.2c0.9,3,1.5,7,1.6,10.6l-0.1,0
			l0,2.2l0.1-0.1l0,1l-0.1,0.1c0,0.2,0,0.6,0,0.6l0.2,0.1l-0.1,1.7l-0.2,0l-0.1,2.6l5.1-3.3c0,0,3.4,2.4,4.8,3.7
			c-1.6,1.1-2,3.3-2.4,5c-0.4,1.8-0.5,3.2-0.7,4.7c-0.1,1.6-0.4,3.7-0.6,4.7c-0.1,0.6-0.1,0.7,0.1,0.7c0.1,0,0,0-0.1,0
			c-3.3,0.1-6.8-0.4-10-0.8c0,0-0.8,1.5-1,2c0,0-0.2-0.5-0.3-0.8c-0.4-0.7-1.3-1.5-2-1.9c-0.3-0.2-1.1-0.5-1.6-0.5
			c-0.3-0.1-0.8,0-1.2,0.2c-0.1,0.1-0.2,0.1-0.2,0.2c0,0.1,0.1,0.1,0.2,0.3c0.1,0.1,0.3,0.3,0.3,0.5c0.2,0.5,0.6,1.2,0.8,2
			c0.5,1.5,1,3.2,2.2,4l-0.9,1.7l27.3,0l-4.2-7.2l-0.2-0.3C42.5,89,42.5,89,42.5,89c0.3-2.5,0.7-5,1.2-7.4c0,0,0.1,0.2,0.9,0.2
			c2.4,0,3.2-2.7,1.2-3.8c-0.2-0.1-0.5-0.3-0.8-0.5l-1.2-0.7l1.4,0.6l0.1-15.8c0,0,2.8,0.9,4.7,0.9l0,13.7l2.6-1.4l0.1-12.2l1.4-0.1
			c0,0-0.5-1.2-0.7-1.4c-0.2-0.5-0.8-1.6-1.3-2.2c-0.1-0.2-0.5-0.8-0.5-0.8c-1.9-0.1-3.8-0.3-5.6-1.1l4.1-2.7
			c-1.7-4.8-3.8-11.9-2.6-23.3l-0.3,0.2L47,32.5L41.9,36l-6.3-5.1c0,0,0.5,0,0.6,0c1.6,0.1,2.7-1.6,3.1-3c0.7-2.4,0.8-3,1.1-6.8
			c0.1-1.5,0.4-3,0.7-4.4c0.2-0.7,0.1-0.8,0.1-0.8c-3.2-0.1-6.5,0.2-9,0.8c0,0-1.1,5-1.4,7.2c-0.4-0.2-0.7-0.3-1-0.3
			C27.4,23.8,27.6,27.2,28.9,27.3L28.9,27.3z M39.9,96.2l-1.3-4.6l3.2-0.3l2.6,4.8L39.9,96.2z M20.4,96.3l3.3-6.9
			c6.8,1,10.8,1.1,18.7-0.1l4.1,6.9l-1.1,0l-3.1-5.5l-4.6,0.5l1.3,5.1l-1.2,0l-1.3-5l-7.1,0c-0.2,1.7-0.7,4.9-0.7,4.9l-1.3,0l0.9-5
			L24,90.6l-2.4,5.6L20.4,96.3z M29.6,96.2L30,92l5.9,0l0.9,4.3L29.6,96.2z M22.4,96.3l2-5l2.9,0.4l-0.8,4.6L22.4,96.3z M18.8,91.4
			c-0.1-0.4-0.3-0.8-0.3-0.9c-0.5-1.3-0.7-1.7-1-2.2l0-0.1c1.4-0.7,4,1,4.7,2.6c-0.1,0.2-0.4,0.8-0.4,0.8c-0.2-0.4,0-0.7-0.2-1
			c0-0.1-0.3,0.9-0.3,0.9S21,91,20.9,90.1c0-0.1-0.4,0.6-0.4,0.6c-0.5-0.6-0.4-1.7-0.4-1.7c-0.5,0.6-0.2,1-1-0.6
			c-0.1,0.2,0,0.3-0.2,0.3c-0.4-0.1-0.9-0.4-1-0.3c0.2,0.3,0.7,0.5,0.8,0.8l-0.4,0c0.4,0.2,0.8,0.4,1.1,0.9c-0.1,0-0.5,0-0.4,0
			c0.6,0.5,1.4,0.9,0.2,0.8c0.8,0.6,1.7,0.9,0.3,0.9c1,0.5,1.2,0.7,1.1,0.8c-0.1,0-0.4-0.1-0.9,0c0.8,0.3,1.1,0.5,1.1,0.6
			c0,0.1-0.3,0.2-0.6,0.5c0,0,0.3-0.1,0.5,0.1c0,0-0.2,0.4-0.3,0.7C19.4,93.5,19.1,92.2,18.8,91.4z M10.4,93.1c0,0,4.4-4.8,6.6-7.1
			l-2.1,0l-0.1-12.9c-0.7-0.1-2,0-2.5-0.5c-0.3-0.4,0.9-1.3,1.5-1.1c0.4,0.1,1,0,1,0l0-14.4c1.4,2.6,2.5,4.3,4,8.8
			c-0.5,0.3-0.9,0.6-1,0.6c0.6,1.4,1,3.7,0.2,5.7l-0.6-0.3c0.4-1.2,0.6-3-0.1-4.7l-0.2,0.2c0,0,0.2,0.3,0.3,0.7
			c0.1,0.3,0.2,0.7,0.2,1.2c0,0.8,0,1.4-0.2,2c-0.1,0.2-0.2,0.5-0.2,0.6c0,0.1-0.1,0.2-0.1,0.2c1.7,0.7,2.9,1.7,4.4,2.4l0.1,0.1
			c0.2,0.1,0.1,0.1-0.2,0.3c-0.6,0.2-0.9,0.5-0.8,1.1c0,0.8,0.5,1.2,1.5,1.1c0.4,0,0.4,0,0.4,0.1c0.1,0.3,0.7,1.4,0.7,1.5
			c0,0,0.1,0.3,0.2,0.6c0.2,0.5,0.4,0.9,0.5,1.4c0,0.2,0.2,0.3,0.2,0.1c0.3-1.8,0.5-2.8,1-3.9c0.1-0.3,0.2-0.6,0.2-0.6
			c0,0-0.8-0.4-1.2-0.6c-1.4-0.6-2.1-1-1.9-1c0.2-0.1,0.2-0.2,0.2-0.5c0.1-0.8,0.1-1.2,0-1.5c-0.1-0.3-0.1-0.3,0.1-0.4
			c0.2-0.1,0.2-0.1,0.2-0.8c0.1-0.8,0-1.3,0-1.3l-0.4-0.5l0.4-0.5l0.1-2.1l-0.5-0.4l0.5-0.5l-0.2-1.9l0.1-0.3
			c-0.8-8-3.8-16.1-8.2-21.6l0-13.2L10.2,25L10.4,93.1z M10.8,92.3v-1l3.7-4l-3.7-0.1v-0.9l5.7,0L10.8,92.3z M10.8,90.5l0-2.9l2.8,0
			L10.8,90.5z M36.4,89.1l-0.6,0c0-0.6,0.3-3.3,0.5-5.7c0.3-2.7,0.9-5,1.1-5l0.6,0.3C37,81.8,36.8,85.8,36.4,89.1z M33.7,89.1
			c0.1-1.7,0.4-2.8,0.5-4.8c0.1-2.4,0.5-5.4,1.6-7.8c0.4-0.8,1-1.6,2-2c1.6-0.6,3,1.4,1.9,2.9c-0.9,1.2-2.2,1.2-2.7,0
			c-0.3-1,0.8-2.2,1.6-1.9c0.6,0.3,0.5,1.4-0.2,1.6c-0.3,0.1-0.5-0.3-0.4-0.6c0.1-0.3,0.1-0.4,0-0.3c-0.6,0.4-0.2,1.5,0.6,1.1
			c1-0.5,0.9-2.1-0.2-2.1c-1.3-0.1-2.3,1.5-3,4.6c-0.7,3.5-0.5,6.5-1.2,9.3L33.7,89.1z M35.4,89.1l-0.7,0c0.1-0.3,0.1-0.5,0.1-0.8
			c0.3-1.8,0.4-4.5,0.7-6.5c0.4-2.9,1.1-4.7,1.1-4.5c0.1,0.4,0.3,0.6,0.5,0.9c-0.7,1.9-1,3.7-1.2,5.4C35.7,85.5,35.7,87.3,35.4,89.1
			z M38.4,88.9l-0.6,0c0.2-3.9,0.8-7.4,1.1-8.9c0.1-0.5,0.1-0.7,0.2-0.7c0.1,0,0.3,0.1,0.6,0.3C39.2,79.6,38.7,86.3,38.4,88.9z
			 M37.4,89L36.8,89c0.1-1.4,0.3-3.6,0.6-5.6c0.3-2.4,0.7-4.5,0.9-4.5l0.5,0.2C38.5,79,37.6,86.2,37.4,89z M38.7,88.9
			c0.4-2.9,0.5-6.4,1.4-9.1l0.6,0.3c-0.2-0.1-0.6,1.8-0.8,3.9c-0.1,1.8-0.5,3.8-0.6,4.9L38.7,88.9z M39.7,88.8
			c0.2-1,0.2-2.6,0.4-3.8c0.2-1.6,0.5-4.8,0.8-4.7l0.6,0.3c-0.3-0.1-0.9,6-1.3,8.1L39.7,88.8z M41.3,88.5l-0.6,0.1
			c0.3-2.4,0.9-7.9,1.2-7.9l0.6,0.3C42.3,82,41.7,85.3,41.3,88.5z M41.7,88.4c0.3-2.6,0.5-5.2,1.1-7.3l0.7,0.3c0,0-0.5,2.2-0.7,3.8
			c-0.2,1.5-0.2,1.8-0.3,2.2c-0.1,0.9-0.2,0.9-0.2,0.9L41.7,88.4z M13.7,85.8l0.1-12.5l0.7,0l0,12.5L13.7,85.8z M12,85.7
			c-0.3,0-0.5-0.2-0.5-0.5c0-0.3,0.2-0.5,0.5-0.5c0.3,0,0.5,0.2,0.5,0.5C12.5,85.4,12.3,85.7,12,85.7z M23.7,81.1
			c-0.5-0.9-0.9-1.3-1.4-1.5c-0.8-0.3-1.9,0.5-1.5,1.6c0.2,0.6,0.8,0.7,1.5,0.6c0,0,0.3,0.2,0.7,1.3c0.4,1.3,1.1,2.6,1.1,2.6
			C24,84,24.4,82.4,23.7,81.1z M11.3,84.5c-0.3,0-0.5-0.2-0.5-0.5c0-0.3,0.2-0.5,0.5-0.5c0.3,0,0.5,0.2,0.5,0.5
			C11.8,84.3,11.5,84.5,11.3,84.5z M12.6,84.5c-0.3,0-0.5-0.2-0.5-0.5c0-0.3,0.2-0.5,0.5-0.5c0.3,0,0.5,0.2,0.5,0.5
			C13.1,84.3,12.9,84.5,12.6,84.5z M23.7,84.6c-0.5-1-0.6-1.7-1-2.6c-0.2-0.4-0.4-0.7-0.4-0.7c-1.5,0.7-2-1-0.8-1.6
			c1.2-0.5,2.5,1.5,2.3,3.8C23.8,84.1,23.7,84.6,23.7,84.6z M12,83.3c-0.3,0-0.5-0.2-0.5-0.5c0-0.3,0.2-0.5,0.5-0.5
			c0.3,0,0.5,0.2,0.5,0.5C12.5,83.1,12.2,83.3,12,83.3z M10.7,82.4v-1.1l2.6-2.5v1L10.7,82.4z M44.7,81.6c-0.5,0-0.7-0.2-0.4-0.3
			c1.1-0.4,1.6-1.1,1.6-2.3c0-0.6-0.1-0.7,0.3-0.4C47.2,79.9,45.8,81.6,44.7,81.6z M43.8,81.1c-0.1,0-0.2,0-0.4,0
			c-0.3-0.1-0.2-0.1,0.3-0.4c0.9-0.6,1.2-1.2,1.3-2.5c0-0.2,0-0.3,0-0.4l0.1,0c0.2,0,0.3,0.2,0.3,0.4C46.1,79.3,45,81.1,43.8,81.1z
			 M42.8,80.7l-0.2,0c-0.2-0.1-0.1-0.1,0.3-0.4c0.7-0.5,1.1-1.3,1.2-2.2c0.1-0.6-0.4-1.2,0.4-0.7c0.5,0.4,0.4,1.6-0.1,2.4
			C44,80.3,43.2,80.7,42.8,80.7z M10.7,80.9v-1.2l2.6-2.5v1.2L10.7,80.9z M42,80.3c-0.3,0-0.4-0.2-0.1-0.4c0.8-0.5,1.3-1.5,1.3-2.6
			c0-0.6-0.1-0.8,0.3-0.3c0.7,0.7,0.2,2.5-1.1,3.2C42.3,80.3,42.1,80.3,42,80.3z M41.1,80c-0.5,0-0.6-0.2-0.1-0.5
			c0.8-0.6,1.4-1.6,1.4-2.5c0-0.4,0-0.5,0.2-0.3c1,0.7-0.1,3.3-1.4,3.4L41.1,80z M24.1,79.9c-0.1,0-0.3-0.4-0.7-1.3
			c-0.3-0.9-0.8-1.9-0.9-2c0,0-0.2,0-0.3,0.1c-1.1,0.6-1.9-1.1-0.8-1.7c0.8-0.4,1.5,0,2.1,1.4C24.3,78,24.5,79.2,24.1,79.9
			L24.1,79.9z M40.2,79.4c-0.1,0-0.3,0-0.4-0.1c-0.3-0.1-0.2-0.3,0.2-0.5c0.4-0.3,0.6-0.4,0.9-0.8c0.4-0.6,0.5-0.8,0.5-1.6
			c0-0.6,0.2-0.7,0.6-0.1C42.6,77.3,41.3,79.4,40.2,79.4z M39.1,78.9c-0.4,0-0.7-0.2-0.3-0.4c1.3-0.7,1.8-1.7,1.6-2.9
			c-0.1-0.4,0.4-0.1,0.6,0.5c0.4,0.8-0.3,2.2-1.3,2.7C39.6,78.8,39.3,78.9,39.1,78.9z M24.5,77.8c-0.1,0-0.2-0.2-0.4-0.8
			c-0.1-0.3-0.3-0.8-0.4-0.9c-0.1-0.2-0.1-0.3-0.1-0.3c0.1-0.1,0.7,0.1,0.9,0.3c0.3,0.3,0.4,1.1,0.2,1.5
			C24.6,77.7,24.5,77.8,24.5,77.8z M12,76.8c-0.3,0-0.5-0.2-0.5-0.5s0.2-0.5,0.5-0.5c0.3,0,0.5,0.2,0.5,0.5S12.3,76.8,12,76.8z
			 M62.9,76c-0.3,0-0.5-0.2-0.5-0.5c0-0.3,0.2-0.5,0.5-0.5s0.5,0.2,0.5,0.5C63.4,75.8,63.1,76,62.9,76z M42.4,75.9
			c-0.5,0-0.7-0.2-0.8-1.1c-0.1-0.6-0.2-0.6-1.1-0.5c-0.9,0.2-1.3-0.1-1.3-1.1c-0.1-0.8,0-0.8-1.1-0.8c-1,0-1.2-0.1-1.3-1.2
			c-0.1-0.8-0.1-0.8-1.1-0.8c-1.1,0-1.2-0.1-1.3-1.1c-0.1-0.8-0.1-0.9-0.8-0.8c-0.7,0.1-2,0.1-2.3,0c-0.6-0.1-0.6-0.1-0.8,0.7
			c-0.2,1.1-0.4,1.2-1.7,1.1c-0.7-0.1-0.7-0.1-0.8,0.5c-0.1,0.8-0.3,1-0.3,0.3c0-1.7,0.1-1.8,1.2-1.5c0.8,0.2,0.9,0.1,0.9-0.8
			c0.1-0.7,0.2-1,0.5-1.1c0.2-0.1,0.9,0,1.2,0.1c0.1,0,0.8,0,1.5,0c1.9,0,1.9,0,1.9,1.3c0,0.6,0.1,0.7,1.1,0.6
			c1.2,0,1.2-0.1,1.4,1.4c0.1,0.5,0.1,0.5,1.1,0.5c1.1,0,1.4,0,1.3,0.9c-0.1,0.8,0.1,1.1,1.1,0.9c1-0.2,1.2,0.2,1.3,0.9
			c0.1,0.7,0.1,0.5,0.6,0.6c0.5,0,0.5,0.6-0.1,0.7C42.5,75.9,42.4,75.9,42.4,75.9z M11.2,75.6c-0.3,0-0.5-0.2-0.5-0.5
			s0.2-0.5,0.5-0.5s0.5,0.2,0.5,0.5S11.5,75.6,11.2,75.6z M12.6,75.6c-0.3,0-0.5-0.2-0.5-0.5c0-0.3,0.2-0.5,0.5-0.5
			c0.3,0,0.5,0.2,0.5,0.5C13.1,75.4,12.9,75.6,12.6,75.6z M62.1,74.8c-0.3,0-0.5-0.2-0.5-0.5c0-0.3,0.2-0.5,0.5-0.5
			c0.3,0,0.5,0.2,0.5,0.5C62.6,74.5,62.4,74.8,62.1,74.8z M63.5,74.8c-0.3,0-0.5-0.2-0.5-0.5s0.2-0.5,0.5-0.5c0.3,0,0.5,0.2,0.5,0.5
			S63.8,74.8,63.5,74.8z M37.6,74.3l-5.2-3.9l-4.9,3.3l0-1.2l4.8-3.2c0,0,4.1,3.2,6.1,4.8L37.6,74.3z M11.9,74.3
			c-0.3,0-0.5-0.2-0.5-0.5c0-0.3,0.2-0.5,0.5-0.5c0.3,0,0.5,0.2,0.5,0.5C12.4,74,12.2,74.3,11.9,74.3z M20.4,73.6l-1.2-2l1.2-0.9
			l-1.1-1.4l1.2-1.2l-1.3-0.8l1.2-1.7l1.7-0.8L20.4,67l1.4,1l-1.3,1.5l1.2,1.6l-1.2,1l1.3,2.2l-0.1,0.1L20.4,73.6z M43,74.1
			l-9.1-6.8c0,0-0.8-0.6-1.1-0.8c-0.5-0.3-0.6-0.2-1.1,0.2c-1.1,0.7-3.9,2.6-3.9,2.6l0-1c0,0,2.8-2.1,4.3-3c0.2-0.1,0.5,0,0.6,0.1
			c3.4,2.7,6.8,5.3,10.2,7.9L43,74.1z M22.2,74c0-0.1-0.2-0.1-0.2-0.2c-0.4-0.6-1.1-1.7-1.1-1.7l1.3-1l-1.2-1.5l1.5-1.5l-1.5-1
			c0,0,0.9-1.4,1.6-2.1l0,1.1l-0.6,0.7l0.7,0.5l0,1.5l-0.7,0.7l0.6,0.7l-0.1,1.7l-0.6,0.5l0.5,0.7L22.2,74z M62.8,73.6
			c-0.3,0-0.5-0.2-0.5-0.5c0-0.3,0.2-0.5,0.5-0.5c0.3,0,0.5,0.2,0.5,0.5C63.3,73.4,63.1,73.6,62.8,73.6z M10.8,71.8l2.5-2.3v1.1
			L10.8,73V71.8z M61.4,72.9v-1.3l2.7-2.5v1.2L61.4,72.9z M10.8,71.5v-1.3l2.5-2.4v1.3L10.8,71.5z M13.7,71.3l-0.1-41.4l-2.9-3.1
			l0-1l3.7,3.9l0.1,41.7L13.7,71.3z M61.4,71.4v-1.4l2.7-2.5v1.4L61.4,71.4z M43,71.1l-3.6-2.8l0-9.7c1.4,1.1,2.6,1.7,3.7,2.3
			L43,71.1z M11.9,68c-0.3,0-0.5-0.2-0.5-0.5c0-0.3,0.2-0.5,0.5-0.5c0.3,0,0.5,0.2,0.5,0.5C12.4,67.8,12.2,68,11.9,68z M38.4,67.5
			l0-9.9l0.7,0.6l0,9.8L38.4,67.5z M62.7,67.4c-0.3,0-0.5-0.2-0.5-0.5c0-0.3,0.2-0.5,0.5-0.5c0.3,0,0.5,0.2,0.5,0.5
			C63.2,67.2,62.9,67.4,62.7,67.4z M11.3,66.7c-0.3,0-0.5-0.2-0.5-0.5c0-0.3,0.2-0.5,0.5-0.5s0.5,0.2,0.5,0.5
			C11.8,66.5,11.5,66.7,11.3,66.7z M12.7,66.6c-0.3,0-0.5-0.2-0.5-0.5s0.2-0.5,0.5-0.5c0.3,0,0.5,0.2,0.5,0.5S12.9,66.6,12.7,66.6z
			 M38,66.7l-2.2-2l2.2-2.1l0,1l-1.2,1.2l1.3,1.3L38,66.7z M37.1,66.5l-1.8-1.3l0.3-0.3L37.1,66.5z M61.9,66.2
			c-0.3,0-0.5-0.2-0.5-0.5c0-0.3,0.2-0.5,0.5-0.5c0.3,0,0.5,0.2,0.5,0.5C62.4,66,62.2,66.2,61.9,66.2z M63.4,66.2
			c-0.3,0-0.5-0.2-0.5-0.5s0.2-0.5,0.5-0.5s0.5,0.2,0.5,0.5S63.7,66.2,63.4,66.2z M27.8,66c-0.3-4-0.6-6.7-1.6-10.5l4.7-3l0,11.5
			L27.8,66z M14.9,56.9l0-13.6c4.4,6.3,6.8,13.7,7.6,20.7c0,0-2.4,1.1-3.5,1.8C17.7,62.9,18.3,62.9,14.9,56.9z M11.9,65.4
			c-0.3,0-0.5-0.2-0.5-0.5s0.2-0.5,0.5-0.5s0.5,0.2,0.5,0.5S12.1,65.4,11.9,65.4z M62.7,64.9c-0.3,0-0.5-0.2-0.5-0.5
			c0-0.3,0.2-0.5,0.5-0.5c0.3,0,0.5,0.2,0.5,0.5C63.1,64.7,62.9,64.9,62.7,64.9z M35,64.9l-1.7-1.3l0-1l2.1,2L35,64.9z M35.6,64.4
			l-2.2-2.1l2.3-2.3l2.2,2.1L35.6,64.4z M19.4,64.3l2.1-0.9c-0.8-7.2-2.9-12.6-5.6-17l-0.1,10.1C17.2,58.9,18.3,61.6,19.4,64.3z
			 M10.7,64.2V63l2.6-2.4v1.1L10.7,64.2z M35.6,63.6l1.4-1.3l-1.4-1.3l-1.3,1.3L35.6,63.6z M61.4,63.7v-1.2L64,60v1.3L61.4,63.7z
			 M32.5,63l0-11.6l0.6-0.3l0,12.1L32.5,63z M35.6,62.9L35,62.2l0.7-0.7l0.6,0.6L35.6,62.9z M10.7,62.7v-1.3l2.6-2.4l0,1.3
			L10.7,62.7z M39.3,57.8c-2.7-2.3-4.7-5.8-7-7.8c-0.9-0.8-3.1-2-4.3-2.4c-1.4-0.4-2.4-0.6-3.8-0.6c-1.1,0-1.1,0-1.1,0l-0.5-0.8
			l0.8,0l0-2.9c-0.8,0-1.6,0-2.4,0.1l-0.3-0.5c5.5-0.8,10.9,1.3,14.1,4c1.5,1.2,2.7,2.7,4.1,4.9c2.8,4.4,7.8,6.5,12.4,6.6l0.4,0.6
			l-0.8,0c0,0-0.1,0.6-0.1,1.5c0,1.1,0,1.2,0.1,1.3c0.6,0.1,2.2,0,2.2,0l0.3,0.6C48.1,62.8,42.7,60.9,39.3,57.8z M61.4,62.2V61
			l2.6-2.4v1.2L61.4,62.2z M33.2,62.1l0.1-1.1l1.2-1.2l-1.3-1.3l0-0.9l2.3,2.1L33.2,62.1z M50,61.7c0.1,0,0.2,0,0.2,0
			c0-0.1,0-0.5,0.1-2.2c0-0.6,0.1-0.6-0.4-0.7c-0.4,0-1.4-0.3-2-0.3c-0.5-0.1-0.4,0.1-0.6,0.5c-0.2,0.5-0.3,0.9-0.5,1.5
			c-0.2,0.6-0.1,0.6,1.1,0.9C48.8,61.6,49.6,61.7,50,61.7z M38.1,61.8L36,59.7l2-2.1l0,1c-0.4,0.4-0.9,0.8-1.2,1.2l1.2,1.2
			L38.1,61.8z M48.5,61.1l-0.2-0.4l-0.5-0.1l0.1-0.4l-0.3-0.4l0.3-0.3l0-0.5l0.4,0l0.4-0.3l0.3,0.4l0.4,0l0,0.5l0.3,0.2l-0.3,0.3
			l0,0.5l-0.5-0.1L48.5,61.1z M51.8,60.5l-0.3-0.2l0.3-0.2l0-0.4l0.2-0.2l0.8,1.5l-0.5-0.2L51.9,61L51.8,60.5z M45.8,60.8
			c0.3,0,0.3-0.5,0.6-1.4c0.4-1.3,0.4-1.2-0.3-1.4c-0.3-0.1-1-0.3-1.3-0.5c-0.8-0.4-0.8-0.4-1.2,0.1c-0.1,0.2-0.4,0.8-0.6,1.1
			c-0.5,0.8-0.5,0.7,0.4,1.1c0.5,0.2,0.8,0.3,1.8,0.8C45.5,60.8,45.6,60.8,45.8,60.8z M45,60l-0.4-0.2l-0.4,0.2l-0.1-0.4l-0.5-0.2
			l0.1-0.4l-0.2-0.3l0.4-0.1l0.3-0.6l0.4,0.3l0.4-0.2l0.1,0.3l0.5,0.2l-0.2,0.4l0.2,0.5l-0.5,0L45,60z M35.8,59.5l-2.3-2.3l2.1-2.1
			l2.3,2.3L35.8,59.5z M11.9,59.1c-0.3,0-0.5-0.2-0.5-0.5s0.2-0.5,0.5-0.5c0.3,0,0.5,0.2,0.5,0.5S12.1,59.1,11.9,59.1z M41.9,59
			c0.1,0,0.2-0.1,0.3-0.4c0-0.1,0.3-0.6,0.6-1c0.6-0.9,0.6-0.9,0-1.2c-0.2-0.2-0.8-0.6-1.3-1.1C41,54.9,41.1,55,40.1,56
			c-0.6,0.6-1,0.8-0.8,1.2c0.6,0.5,1.1,0.9,1.8,1.4C41.5,58.9,41.7,59,41.9,59z M35.6,58.8l1.4-1.3L35.5,56l-1.3,1.3L35.6,58.8z
			 M58.8,59.2l0-10.4c-1.5-2.6-3-5.1-3.8-8l-2.2,1.1C53.8,50.4,56.2,55.1,58.8,59.2z M62.7,58.5c-0.3,0-0.5-0.2-0.5-0.5
			s0.2-0.5,0.5-0.5c0.3,0,0.5,0.2,0.5,0.5S62.9,58.5,62.7,58.5z M35.6,58L35,57.4l0.6-0.7l0.7,0.7L35.6,58z M11.3,57.9
			c-0.3,0-0.5-0.2-0.5-0.5c0-0.3,0.2-0.5,0.5-0.5c0.3,0,0.5,0.2,0.5,0.5C11.8,57.7,11.5,57.9,11.3,57.9z M12.6,57.8
			c-0.3,0-0.5-0.2-0.5-0.5s0.2-0.5,0.5-0.5c0.3,0,0.5,0.2,0.5,0.5S12.9,57.8,12.6,57.8z M41.6,57.9l-0.4-0.3l-0.4,0.2l0-0.5
			l-0.4-0.2l0.3-0.4l-0.2-0.5l0.4,0l0.3-0.4l0.3,0.3l0.6,0l0.1,0.5l0.3,0.2L42.2,57l0.1,0.4l-0.5,0L41.6,57.9z M63.4,57.3
			c-0.3,0-0.5-0.2-0.5-0.5s0.2-0.5,0.5-0.5s0.5,0.2,0.5,0.5S63.7,57.3,63.4,57.3z M62,57.3c-0.3,0-0.5-0.2-0.5-0.5
			c0-0.3,0.2-0.5,0.5-0.5c0.3,0,0.5,0.2,0.5,0.5C62.5,57.1,62.2,57.3,62,57.3z M33.3,56.1l1.2-1.1l-1.2-1.2l0-0.9l2.1,2.1L33.3,57
			L33.3,56.1z M44.9,56.4l4.4-3l0.3,0.7l-4,2.6L44.9,56.4z M11.9,56.6c-0.3,0-0.5-0.2-0.5-0.5s0.2-0.5,0.5-0.5
			c0.3,0,0.5,0.2,0.5,0.5S12.2,56.6,11.9,56.6z M38.5,56.3c0.2,0,0.4-0.3,0.8-0.7c0.4-0.4,0.9-0.9,1-1c0.3-0.2,0.3-0.3-0.2-0.9
			c-0.2-0.2-0.5-0.6-0.7-0.8c-0.2-0.3-0.6-0.6-0.6-0.7c-0.2-0.2-0.3-0.2-1.3,0.5c-1.2,0.9-1.2,0.7-0.1,2.2
			C38,55.8,38.3,56.3,38.5,56.3z M62.7,56c-0.3,0-0.5-0.2-0.5-0.5c0-0.3,0.2-0.5,0.5-0.5c0.3,0,0.5,0.2,0.5,0.5
			C63.2,55.8,62.9,56,62.7,56z M36.6,55.8l-0.8-0.9l0.1-0.1L36.6,55.8z M10.7,55.6v-1.5l2.5-2.3v1.4L10.7,55.6z M38.4,55.2l-0.3-0.4
			l-0.5,0l0.1-0.5l-0.3-0.2l0.3-0.4l0-0.5l0.4,0.1l0.3-0.4l0.3,0.4l0.4,0l0,0.5l0.4,0.2l-0.3,0.3l0,0.5l-0.6,0L38.4,55.2z
			 M26.2,55.2l-0.2-0.8l6.2-4l0.5,0.6L26.2,55.2z M42.3,54.6l-0.5-0.4l6.5-4.2l0.2,0.5L42.3,54.6z M61.3,54.8v-1.2l2.7-2.6v1.3
			L61.3,54.8z M35.6,54.5L35.6,54.5l-2.2-2l0.4-0.4L35.6,54.5z M41.5,53.9l-0.1-12.1l0.6,0.4l0,11.5L41.5,53.9z M41.1,53.6l-0.5-0.4
			l0.4-0.4L41.1,53.6z M10.7,53.7v-1.2l2.5-2.4v1.3L10.7,53.7z M61.3,53.1V52l2.7-2.6v1.2L61.3,53.1z M35.8,53c0.1,0,0.1,0,0.3-0.1
			c0.1-0.1,0.4-0.3,0.6-0.4c0.7-0.5,1.4-0.9,1.4-1c0.1-0.1-0.7-1.1-1.7-2.3c-0.4-0.5-0.4-0.6-0.8-0.1c-0.3,0.4-1.5,1.4-1.5,1.7
			c0.1,0.3,0.5,0.7,1.5,2C35.6,52.9,35.7,53,35.8,53z M40.4,52.9l-1.6-2.3l0.2-0.2l2,2L40.4,52.9z M43.6,52.6l0-11.3l3.1-2.2
			c-0.1,0,0.4,6.8,1.5,10.4L43.6,52.6z M36,52.2l-0.3-0.6l-0.5,0.1l0.1-0.5l-0.4-0.3l0.4-0.5l0-0.4l0.4,0.1l0.4-0.4l0.3,0.5l0.6,0
			l-0.1,0.5l0.4,0.3l-0.4,0.3l-0.1,0.5l-0.4,0L36,52.2z M33.3,52.1l-0.1-0.5l0.3,0.2L33.3,52.1z M41.1,51.3l0,0.7l-1.9-1.9l2-1.9
			l0,0.9L40,50.2L41.1,51.3z M25.1,51.6l-0.3-0.8l4-2.5l0.8,0.4L25.1,51.6z M11.9,50.3c-0.3,0-0.5-0.2-0.5-0.5
			c0-0.3,0.2-0.5,0.5-0.5c0.3,0,0.5,0.2,0.5,0.5C12.4,50,12.2,50.3,11.9,50.3z M37.3,48.6l1.4,1.4l-0.2,0.2L37.3,48.6z M33.7,49.9
			c0.5-0.4,1.5-1.6,1.5-1.8c0-0.2-1.4-1.4-2.3-2c-0.3-0.2-0.4-0.2-0.5,0c-1.5,2.2-1.5,2.1-0.9,2.5c0.6,0.5,1.3,1.1,1.7,1.4
			C33.5,50.1,33.5,50.1,33.7,49.9z M39,49.8l-2.3-2.2l2.1-2.1l2.2,2.4L39,49.8z M62.6,49.6c-0.3,0-0.5-0.2-0.5-0.5
			c0-0.3,0.2-0.5,0.5-0.5c0.3,0,0.5,0.2,0.5,0.5C63.1,49.4,62.9,49.6,62.6,49.6z M33.4,49.2L33,48.8L32.5,49l-0.1-0.5L32,48.3
			l0.2-0.5l0-0.6l0.5,0.1l0.3-0.5l0.5,0.5l0.5,0l0,0.5l0.5,0.2l-0.3,0.3l0.2,0.5l-0.6-0.1L33.4,49.2z M11.2,49
			c-0.3,0-0.5-0.2-0.5-0.5c0-0.3,0.2-0.5,0.5-0.5c0.3,0,0.5,0.2,0.5,0.5C11.7,48.7,11.5,49,11.2,49z M40.2,47.8l-1.4-1.4l-1.3,1.2
			l1.3,1.4L40.2,47.8z M12.6,49c-0.3,0-0.5-0.2-0.5-0.5s0.2-0.5,0.5-0.5c0.3,0,0.5,0.2,0.5,0.5S12.9,49,12.6,49z M63.3,48.4
			c-0.3,0-0.5-0.2-0.5-0.5c0-0.3,0.2-0.5,0.5-0.5c0.3,0,0.5,0.2,0.5,0.5C63.8,48.2,63.6,48.4,63.3,48.4z M61.8,48.4
			c-0.3,0-0.5-0.2-0.5-0.5s0.2-0.5,0.5-0.5c0.3,0,0.5,0.2,0.5,0.5S62.1,48.4,61.8,48.4z M38.9,48.3l-0.6-0.6l0.6-0.6l0.6,0.7
			L38.9,48.3z M30.4,47.9c0.3-0.2,1.2-1.9,1.3-2.2c0-0.1-0.4-0.4-0.9-0.6c-0.4-0.2-1.9-0.8-2-0.8c-0.3-0.1-0.3,0-0.4,0.2
			c0,0.1-0.1,0.5-0.3,0.9c-0.4,1.5-0.6,1.4,0.1,1.6c0.2,0.1,1,0.3,1.4,0.5C30.1,47.7,30.3,47.9,30.4,47.9z M11.9,47.6
			c-0.3,0-0.5-0.2-0.5-0.5c0-0.3,0.2-0.5,0.5-0.5c0.3,0,0.5,0.2,0.5,0.5C12.4,47.4,12.2,47.6,11.9,47.6z M35.6,46.9l-0.1-9.8
			l0.8,0.6l0,9.8L35.6,46.9z M39,45.3l2.1-2.2l0,1.1L40,45.3l1.2,1.3l0,0.8C40.4,46.7,39.7,46,39,45.3z M62.6,47.1
			c-0.3,0-0.5-0.2-0.5-0.5c0-0.3,0.2-0.5,0.5-0.5c0.3,0,0.5,0.2,0.5,0.5C63.1,46.9,62.9,47.1,62.6,47.1z M30.1,47.2l-0.4-0.4
			L29.3,47l-0.2-0.4l-0.5-0.1l0.2-0.6l-0.3-0.4l0.5-0.1l0.1-0.6l0.5,0.3L30,45l0.3,0.5l0.6,0l-0.3,0.5l0.3,0.4l-0.4,0L30.1,47.2z
			 M36.6,47.1l0-0.9l0.9-0.9l-0.9-1l0-1l1.9,1.9L36.6,47.1z M26.8,46.5c0.2,0,0.2-0.2,0.3-0.9c0-0.1,0.1-0.5,0.2-0.9
			c0.3-1,0.3-1-0.5-1.2c-0.5-0.1-2.6-0.6-2.7-0.2c-0.1,0.6-0.1,2-0.1,2.4c0,0.2,0,0.3,0.2,0.3C25.2,46.3,26.3,46.5,26.8,46.5z
			 M35.2,46.5c-1.2-0.8-2.4-1.7-3.8-2.5l0-10.1l3.8,2.9L35.2,46.5z M10.8,46.5v-1.2l2.6-2.5V44L10.8,46.5z M25.8,46l-0.2-0.5
			l-0.5,0.2l0-0.6l-0.4-0.3l0.5-0.2l0-0.7l0.5,0.2l0.4-0.3l0.4,0.4l0.5,0l-0.2,0.6l0.3,0.3l-0.4,0.2l0,0.6l-0.5-0.3L25.8,46z
			 M61.2,46.1v-1.2l2.8-2.6v1L61.2,46.1z M22.3,45.4l-0.6-1.1l0.2-0.4l0.4,0.2l0.5-0.2l-0.1,0.6l0.4,0.3l-0.4,0.3l0,0.4L22.3,45.4z
			 M38.8,45l-2.1-2.2l2.2-2.3l2.1,2.3L38.8,45z M10.8,43.6l2.6-2.4v1.2l-2.6,2.4V43.6z M61.2,44.6v-1.2l2.8-2.6v1.1L61.2,44.6z
			 M38.8,44.2l1.4-1.4l-1.4-1.4l-1.4,1.4L38.8,44.2z M38.8,43.4l-0.6-0.6l0.6-0.6l0.6,0.6L38.8,43.4z M41.1,42.6L39,40.4l0.2-0.3
			l1.9,1.5L41.1,42.6z M36.6,42.4l-0.1-1l1.2-1l-1.1-1.1l0-1l2,2.1L36.6,42.4z M11.9,41.4c-0.3,0-0.5-0.2-0.5-0.5
			c0-0.3,0.2-0.5,0.5-0.5c0.3,0,0.5,0.2,0.5,0.5C12.4,41.2,12.2,41.4,11.9,41.4z M62.6,40.8c-0.3,0-0.5-0.2-0.5-0.5
			c0-0.3,0.2-0.5,0.5-0.5s0.5,0.2,0.5,0.5C63.1,40.6,62.8,40.8,62.6,40.8z M52.4,40.5l1.6-2.4l-1.2-0.8l1.2-1.6l-1.2-1.5l1.2-1.1
			l-1.2-2.1c0.5,0.1,1,0.4,1.4,0.7l0.9,1.8L54,34.4l1.1,1.3l-1.1,1.4l1.1,0.8l-1.3,1.9L52.4,40.5z M11.3,40.2
			c-0.3,0-0.5-0.2-0.5-0.5c0-0.3,0.2-0.5,0.5-0.5c0.3,0,0.5,0.2,0.5,0.5C11.8,39.9,11.6,40.2,11.3,40.2z M42.1,40.2l-10.8-8.4l0-1.1
			l10.8,8.3l4.6-3.3l0,1.2L42.1,40.2z M12.6,40.1c-0.3,0-0.5-0.2-0.5-0.5c0-0.3,0.2-0.5,0.5-0.5c0.3,0,0.5,0.2,0.5,0.5
			C13.1,39.9,12.9,40.1,12.6,40.1z M37.7,39l0.1,0l1.2,0.9l-0.3,0.3C38.8,40.2,38,39.3,37.7,39z M61.8,39.5c-0.3,0-0.5-0.2-0.5-0.5
			s0.2-0.5,0.5-0.5c0.3,0,0.5,0.2,0.5,0.5S62.1,39.5,61.8,39.5z M63.2,39.5c-0.3,0-0.5-0.2-0.5-0.5c0-0.3,0.2-0.5,0.5-0.5
			c0.3,0,0.5,0.2,0.5,0.5C63.7,39.3,63.4,39.5,63.2,39.5z M11.9,38.8c-0.3,0-0.5-0.2-0.5-0.5c0-0.3,0.2-0.5,0.5-0.5
			c0.3,0,0.5,0.2,0.5,0.5C12.4,38.6,12.2,38.8,11.9,38.8z M62.6,38.3c-0.3,0-0.5-0.2-0.5-0.5c0-0.3,0.2-0.5,0.5-0.5
			c0.3,0,0.5,0.2,0.5,0.5C63.1,38.1,62.8,38.3,62.6,38.3z M10.8,37.4v-1.1l2.4-2.4V35L10.8,37.4z M43.4,37c-0.4,0-0.8,0-1.5,0
			c-0.6,0-1.2,0-1.4,0c-0.8,0-1-0.2-1-1.1c0-0.7,0-0.7-1-0.8c-1.2,0-1.5-0.4-1.5-1.5c0-0.4-0.4-0.6-1-0.5c-1.1,0.2-1.3,0-1.4-1
			c-0.1-0.8,0-0.8-1-0.8c-1.1,0-1.3-0.2-1.3-1c0-0.5-0.1-0.6-0.5-0.7c-0.4,0-0.6-0.3-0.4-0.5c0,0,0.2-0.1,0.6-0.1c0.7,0,0.9,0.2,1,1
			c0.1,0.5,0.1,0.6,1,0.5c1.1,0,1.2,0,1.4,1c0.1,0.9,0.2,0.9,1.2,0.8c0.7-0.1,1.1,0.2,1.2,1c0.1,0.9,0.1,0.9,1.2,1
			c1,0,1.3,0.2,1.3,0.8c0,0.9,0.1,1,1.4,1c0.6,0,1.2,0,1.6,0c0.8,0.1,0.8,0.1,0.8-0.6c0.1-1.1,0.3-1.2,1.7-1.1c0.6,0,0.6,0,0.7-0.4
			c0.1-0.6,0.3-0.9,0.4-0.7c0.1,0.1,0.1,0.1,0,1c-0.1,0.9-0.1,0.9-1.3,0.9c-0.8-0.1-0.8-0.1-0.9,0.7C44.5,36.8,44.5,37,43.4,37z
			 M61.2,37.1v-1.2l2.8-2.6v1.2L61.2,37.1z M52.4,35.7l-0.6-0.8l0.2-1.6l0.5-0.4l-0.4-0.7l0.1-0.9l0.1-0.1l1,2l-1.2,1.1l1.2,1.5
			l-1.2,1.6l1.2,0.9L52,40.4c-0.3,0.3-0.3-0.9-0.3-0.9l0.6-0.9l-0.7-0.6h0l0-1.5L52.4,35.7z M51.6,36.4l-0.1,2l0.5,0.4l-0.4,0.7
			l0,1.7l0.1,0.1c1,12.5,7.1,19.9,8.1,21.6c0,0,0.2,0.2,0.2,0.6c0,0.2,0,1.3,0,2.4c0,5.9,0,10,0,10l4.5,4.8l0-1.8l-0.2-0.2l0-8
			l0.2,0c0,0,0.1-2.1,0-3.6l-0.3,0l0-5.5l0.2,0l0-3.6l-0.2,0c0,0-0.1-3.7,0-5.5l0.2,0l0-3.5l-0.2,0l0-5.1l0.3,0l-0.1-3.3l-0.2,0
			c-0.1-2.1,0-5.6,0-5.6l0.2,0l-0.1-3.3l-0.2,0l0.1-5.8l0.2,0l-0.1-3.4l-0.2,0l0-2.9l0.1,0l0-1.1l-0.1-0.3l0-3.8l0.1,0l0-1.9
			l-6.9,7.1l2.6,0.1l0,2.3c0,3.8-0.1,6.8,0.1,10.5c0,0,0.3,0.1,0.6,0.1c1.3,0.1,1.7,0.2,1.7,0.5c0,0.4-0.6,0.9-1.1,0.9
			c-0.1,0-0.3,0.1-0.3,0.1L61,75.5l3.1,3.3l0,1l-3.8-4.1L60.1,34l-0.1,0.1l0,14c-2-2.9-3.1-5.9-4.2-8.8l-0.4,0.1l0.1,0
			c1.1,3.7,2.5,6.4,4.3,9.3l0,13.6c-4.7-6.6-6.9-12.6-7.9-21.2l2.4-1.2l0.2-0.3l1.8-0.9l0.2,0.3l1.1-0.8c-0.8-1.5-0.8-3.6-0.1-4.7
			l-0.3-0.2c0-0.1-1.1,2.3,0.1,4.7l-0.8,0.5c-1.2-2.4-0.6-5-0.1-5.7c0,0-0.8-0.5-1.4-0.9c-0.7-0.4-1.2-0.7-2-0.9
			c-0.5-0.2-0.8,0-0.8,0l-0.2,1.4l0.4,0.5l-0.4,0.4l-0.2,2.1l0.5,0.5L51.6,36.4z M10.8,35.9v-1.3l2.4-2.3v1.3L10.8,35.9z M61.2,34.4
			l2.8-2.6v1.1l-2.8,2.7V34.4z M11.7,32.7c-0.3,0-0.5-0.2-0.5-0.5c0-0.3,0.2-0.5,0.5-0.5c0.3,0,0.5,0.2,0.5,0.5
			C12.2,32.4,12,32.7,11.7,32.7z M60.1,31.8l0-12.3l0.7,0l0,12.5L60.1,31.8z M62.6,32c-0.3,0-0.5-0.2-0.5-0.5s0.2-0.5,0.5-0.5
			s0.5,0.2,0.5,0.5S62.8,32,62.6,32z M12.4,31.5c-0.3,0-0.5-0.2-0.5-0.5s0.2-0.5,0.5-0.5c0.3,0,0.5,0.2,0.5,0.5S12.7,31.5,12.4,31.5
			z M11.1,31.5c-0.3,0-0.5-0.2-0.5-0.5s0.2-0.5,0.5-0.5c0.3,0,0.5,0.2,0.5,0.5S11.4,31.5,11.1,31.5z M61.8,30.7
			c-0.3,0-0.5-0.2-0.5-0.5s0.2-0.5,0.5-0.5c0.3,0,0.5,0.2,0.5,0.5S62.1,30.7,61.8,30.7z M36.3,30.7c-2.6-0.3-1.9-3-0.8-3.6
			c1.5-0.7,2.7,0.7,1.7,2.1c-0.7,1-2,0.4-1.5-0.8c0.3-0.6,0.9-0.6,0.9,0.1c-0.2,0.6,0,0.4,0.1,0.2c0.5-0.7-0.5-1.4-1.1-0.7
			c-0.3,0.4-0.4,0.9-0.3,1.3c0.2,0.7,1,1.1,1.8,0.4c1-1.3,1.6-2.9,1.9-4.7c0.7-3.9,0.7-7.9,1.3-9l0.6,0c-0.9,4.4-0.9,8.2-1.8,11.7
			C38.6,29.5,37.4,30.7,36.3,30.7z M63.1,30.7c-0.3,0-0.5-0.2-0.5-0.5s0.2-0.5,0.5-0.5c0.3,0,0.5,0.2,0.5,0.5S63.4,30.7,63.1,30.7z
			 M52.7,30.6c0.7,0,1.4-0.6,1.3-1.3c-0.1-0.9-0.6-1.3-1.4-1.2c-0.5,0-0.4,0.1-0.8-0.5c-0.3-0.5-1-2.6-1-2.9
			c0.4,0.5,1.2,1.3,1.9,1.3c0.8-0.1,1.5-0.8,0.9-1.9c-0.3-0.5-0.9-0.6-1.5-0.5c-0.9-1.4-1-2.8-1.3-4.4c0,0-0.3,3.4-0.5,4.8
			c-0.2,2.1-0.5,3.5-1.3,5.1c0.7,0.4,1.4,0.7,2.1,1c0.3,0.1,0.6,0.1,0.9,0.3C52.2,30.6,52.4,30.6,52.7,30.6z M11.7,30.3
			c-0.3,0-0.5-0.2-0.5-0.5s0.2-0.5,0.5-0.5c0.3,0,0.5,0.2,0.5,0.5S11.9,30.3,11.7,30.3z M51.3,29.2c-0.5-0.8-1-2-1.1-2.8
			c0-0.5,0.1-1.1,0.2-1.7c0-0.3,0.1,0,0.3,0.6c0.8,2.6,1,3,1.6,2.9c0.3-0.1,0.6-0.1,0.9,0c0.7,0.4,0.8,1.7-0.3,2
			C52.1,30.4,51.6,29.7,51.3,29.2z M51.3,29.9c-1-0.4-1.7-1-1.5-2c0.1-0.4,0.1-0.7,0.2-0.6c0.1,0,0.3,0.5,0.6,1.3
			C50.7,28.7,51.4,29.9,51.3,29.9z M34.2,29.8c-0.1,0-0.1,0-0.3-0.2c-0.8-0.8-0.4-2.6,0.7-3.1c0.4-0.3,1.3-0.3,1.3,0
			c0,0.1,0,0.1-0.1,0.1c-0.9,0-1.9,1.3-1.6,2.6C34.2,29.5,34.3,29.8,34.2,29.8z M62.5,29.4c-0.3,0-0.5-0.2-0.5-0.5s0.2-0.5,0.5-0.5
			c0.3,0,0.5,0.2,0.5,0.5S62.8,29.4,62.5,29.4z M33.4,29.2c-0.1,0-0.3-0.1-0.4-0.2c-0.8-0.9-0.1-2.5,1.1-3c0.5-0.2,0.8-0.1,0.7,0.2
			c-0.8,0.3-1.6,1.2-1.5,2.4C33.3,29,33.5,29.2,33.4,29.2z M49.6,29.1l-0.3-0.1l0.1-0.2C49.5,28.8,49.5,28.9,49.6,29.1z M32.5,29
			c-0.1,0-0.2,0-0.3-0.1c-0.5-0.5-0.6-1.8-0.1-2.5c0.2-0.3,0.9-0.9,1.1-0.9c0.2,0,0.4-0.1,0.8,0.1c0.1,0-0.1,0.1-0.3,0.3
			c-0.9,0.5-1.5,1.4-1.3,2.3C32.5,28.7,32.6,29,32.5,29z M31.6,28.5c-0.2,0-0.4-0.2-0.5-0.4c-0.6-0.8-0.1-2.6,1.1-3
			c0.8-0.2,1.1,0,0.5,0.4c-0.9,0.5-1.4,1.6-1.1,2.5C31.6,28.3,31.7,28.5,31.6,28.5z M30.6,27.9c-0.3,0-0.5-0.2-0.6-0.4
			c-0.2-0.5-0.2-1.3,0.1-1.9c0.3-0.5,0.9-1,1.5-1.1c0.2,0,0.3,0,0.4,0.1c0.3,0.1,0.2,0.1-0.3,0.4c-0.8,0.4-1.3,1.4-1.2,2.4
			C30.6,27.8,30.7,27.9,30.6,27.9z M61.2,28.1v-1.3l2.8-2.6v1.3L61.2,28.1z M37.8,27.9c-0.1-0.1-0.4-0.8-0.4-1
			c0.6-0.9,0.8-2.5,0.9-3.6c0.4-3.3,0.7-7.3,0.9-7.3l0.7,0c-0.3-0.2-0.6,5.5-1.2,9C38.7,25.3,38.1,28.1,37.8,27.9L37.8,27.9z
			 M29.5,27.3c-0.9-0.6-0.4-2.7,0.9-3.1c0.5-0.2,0.7-0.2,0.9,0c0.1,0.1,0.3,0.2-0.1,0.3c-1,0.3-1.7,1.2-1.5,2.2
			C29.7,27,29.9,27.7,29.5,27.3L29.5,27.3z M37.1,26.8l-0.4-0.3c0.5-1.4,0.6-3,0.8-4.6c0.2-1.9,0.4-3.9,0.7-5.8l0.7,0
			c-0.3,1.2-0.5,4.4-0.8,7.1C37.8,24.6,37.6,26.5,37.1,26.8L37.1,26.8z M36.4,26.3L35.8,26c0.2-0.8,0.4-1.6,0.5-2.4
			c0.3-1.8,0.4-4,0.9-7.4l0.6-0.1c-0.1,1.1-0.4,3.5-0.7,5.7C36.9,24.4,36.5,26.4,36.4,26.3z M61.2,26.4v-1.3l2.8-2.5v1.2L61.2,26.4z
			 M35.4,25.9l-0.5-0.3c0.4-1.4,0.5-2.8,0.7-4c0.2-1.7,0.4-3.4,0.7-5.4l0.6,0c-0.3,1.5-0.7,4.9-1,7.4C35.9,24.9,35.5,25.9,35.4,25.9
			z M50.6,23c0-1,0.2-2.5,0.2-2.5c0.1,0,0.3,2.2,1.3,3.2c1.1-0.5,2.1,0.7,1.3,1.6C51.9,26.6,50.6,23.9,50.6,23z M34.6,25.5l-0.8-0.4
			c0.1,0,0.3-0.5,0.5-1.3c0.5-2.5,1.1-7.5,1.2-7.5l0.6,0c-0.2,1.3-0.5,3.5-0.7,5.3C35,23.7,34.7,25.5,34.6,25.5L34.6,25.5z M33.5,25
			L33,24.7c0.1,0,0.3-0.6,0.4-1c0.5-2.5,0.8-4.7,1.1-7.2l0.6-0.1c0-0.1-0.6,4.8-1,7.3C33.8,24.5,33.6,25.1,33.5,25z M32.6,24.6
			L32,24.3c0.7-1.9,0.7-3.8,1.4-7.7l0.7-0.1c-0.3,2.5-0.6,5.2-1.2,7.6C32.8,24.4,32.6,24.6,32.6,24.6z M31.7,24.1L31,23.9l1.5-7.1
			l0.6-0.1c-0.4,2.1-0.6,4.4-1.1,6.3C31.9,23.4,31.9,23.8,31.7,24.1L31.7,24.1z M62.4,23c-0.3,0-0.5-0.2-0.5-0.5s0.2-0.5,0.5-0.5
			c0.3,0,0.5,0.2,0.5,0.5S62.7,23,62.4,23z M61.8,21.8c-0.3,0-0.5-0.2-0.5-0.5c0-0.3,0.2-0.5,0.5-0.5c0.3,0,0.5,0.2,0.5,0.5
			C62.3,21.6,62.1,21.8,61.8,21.8z M63.1,21.8c-0.3,0-0.5-0.2-0.5-0.5c0-0.3,0.2-0.5,0.5-0.5c0.3,0,0.5,0.2,0.5,0.5
			C63.6,21.6,63.4,21.8,63.1,21.8z M62.5,20.7c-0.3,0-0.5-0.2-0.5-0.5c0-0.3,0.2-0.5,0.5-0.5c0.3,0,0.5,0.2,0.5,0.5
			S62.7,20.7,62.5,20.7z M58,19l5.9-6.1l0,1.2l-4.1,4l4.1,0.1l0,0.8L58,19z M60.7,17.8l3.2-3.1l0,3.1L60.7,17.8z M57.3,17.6
			c0,0,0-0.1-0.3-0.6c-0.9-1.5-1.1-2.9-1.8-4.6c-0.4-0.9-1.2-1.8-1.4-1.8l1-1.8l-27,0.1l4.3,7.6c6.9-1.3,13-1.1,18.8,0
			c0.3-0.4,0.7-1.4,1-2C52.7,16.8,55.5,18.3,57.3,17.6z M56.3,17.4c-1.4,0-2.6-0.7-3.7-2.1c-0.3-0.5-0.5-0.7-0.5-0.9
			c0-0.2,0.5-0.9,0.5-0.9s0.3,0.7,0.3,1.1c0.4-1.4,0.5,0.2,0.7,0.7c0.5-1.4,0.7,0.5,0.7,1c0.6-0.9,0.6,0.6,0.9,0.8
			c0-0.8,0.5-0.2,1-0.1c-0.3-0.4-0.9-0.7-0.1-0.8c-0.7-0.5-1.1-0.4-0.4-0.7c-0.6-0.3-1.5-0.7-0.5-0.9c-0.6-0.4-1.6-0.6-0.5-0.9
			c-0.8-0.5-1.9-0.5-0.4-0.9c-0.6-0.3-1.5-0.4-0.4-0.7c-0.2-0.1-0.5-0.3-0.5-0.3l0.5-0.7c0,0,0.2,0,0.3,0.1c0.5,0.5,1,1.5,1.4,2.8
			c0.3,1,0.7,2,1.1,2.9C57,17.4,57,17.4,56.3,17.4L56.3,17.4z M32.2,15.7l-3.7-6.4l0.9,0l3.3,5.5l4.4-0.5l-1.5-4.9l1.3,0l1.3,4.8
			c2.5-0.1,4.9-0.1,6.9,0l0.7-4.9l1.3,0l-0.8,4.9l4.2,0.5l2.3-5.4l1.3,0c-0.8,1.4-2.9,6-3.3,6.5C41.6,14.3,36.9,15.1,32.2,15.7
			L32.2,15.7z M33.1,14.2l-2.8-4.9l4.5,0l1.5,4.6L33.1,14.2z M50.1,14.1c-0.9-0.3-1.9-0.3-2.8-0.4L48,9.3l4,0L50.1,14.1z M38.7,13.6
			l-1.1-4.3l7.6,0l-0.6,4.3C42.6,13.4,40.7,13.5,38.7,13.6z"/>
		<path class="st3" d="M54.6,94c3.3-0.1,4.8-3.8,2.3-6.6c-0.4-0.4-0.4-0.7,0.3-0.3c1.6,1.1,4.8,0.4,4.9-3c0.2-4.1-5.6-5.3-6.6-0.9
			c-0.1,0.5-0.4,0.5-0.3-0.2c0.1-1.8,0.7-3.4,1.4-5.1c-1.3,0-2.7,0-3.9,0c0.8,1.6,1.3,3.3,1.4,5.1c0.1,0.7-0.3,0.7-0.3,0.2
			c-1.1-4.4-6.8-3.2-6.6,0.9c0.2,3.3,3.3,4.1,4.9,3c0.6-0.4,0.6-0.2,0.3,0.3C49.9,90.3,51.3,94,54.6,94L54.6,94L54.6,94z"/>
		<path class="st3" d="M20,11.5c3.3,0.1,4.8,3.8,2.3,6.6c-0.4,0.4-0.4,0.7,0.3,0.3c1.6-1.1,4.8-0.4,4.9,3c0.2,4.1-5.6,5.3-6.6,0.9
			c-0.1-0.5-0.4-0.5-0.3,0.2c0.1,1.8,0.7,3.4,1.4,5.1c-1.3,0-2.7,0-3.9,0c0.8-1.6,1.3-3.3,1.4-5.1c0.1-0.7-0.3-0.7-0.3-0.2
			c-1.1,4.4-6.8,3.2-6.6-0.9c0.2-3.3,3.3-4.1,4.9-3c0.6,0.4,0.6,0.2,0.3-0.3C15.2,15.3,16.7,11.6,20,11.5L20,11.5L20,11.5z"/>
	</g>
</g>
</svg>
