<?xml version="1.0" encoding="utf-8"?>
<!-- Generator: Adobe Illustrator 19.1.0, SVG Export Plug-In . SVG Version: 6.00 Build 0)  -->
<svg version="1.1" xmlns="http://www.w3.org/2000/svg" xmlns:xlink="http://www.w3.org/1999/xlink" x="0px" y="0px"
	 viewBox="0 0 75.3 105.3" style="enable-background:new 0 0 75.3 105.3;" xml:space="preserve">
<style type="text/css">
	.st0{display:none;}
	.st1{fill:#FFFFFF;}
	.st2{fill:none;stroke:#010101;stroke-width:0.9967;}
	.st3{fill:#010101;}
	.st4{fill:none;stroke:#010101;stroke-width:1.0006;}
	.st5{fill:#E1CF20;}
	.st6{fill:#262964;}
	.st7{fill:#D31F26;}
	.st8{fill:#14130F;}
	.st9{fill:none;stroke:#010101;stroke-width:0.9929;}
	.st10{fill:#F6EB16;}
	.st11{fill:none;stroke:#010101;stroke-width:1.83;}
	.st12{clip-path:url(#SVGID_2_);}
	.st13{clip-path:url(#SVGID_4_);}
</style>
<g id="Layer_1" class="st0">
</g>
<g id="Layer_2">
	<g>
		<path class="st1" d="M3.6,0.5h67.5c2,0,3.6,1.6,3.6,3.6v97.3c0,2-1.6,3.6-3.6,3.6H3.6c-2,0-3.6-1.6-3.6-3.6V4.1
			C0,2.1,1.6,0.5,3.6,0.5z"/>
		<path class="st4" d="M3.6,0.5h67.5c2,0,3.6,1.6,3.6,3.6v97.3c0,2-1.6,3.6-3.6,3.6H3.6c-2,0-3.6-1.6-3.6-3.6V4.1
			C0,2.1,1.6,0.5,3.6,0.5z"/>
		<path class="st7" d="M5.9,24c-0.7-1.2-1.5-2.4-2.4-3.3c1-1,1.7-2.2,2.4-3.3c0.7,1.2,1.5,2.4,2.4,3.3C7.4,21.6,6.6,22.8,5.9,24z"/>
		<path class="st7" d="M68.8,88.2c-0.7-1.2-1.5-2.4-2.4-3.3c1-1,1.7-2.2,2.4-3.3c0.7,1.2,1.5,2.4,2.4,3.3
			C70.3,85.9,69.5,87,68.8,88.2z"/>
		<path class="st7" d="M20.1,27.5c-1.7-2.9-3.6-5.7-5.8-8c2.3-2.4,4.1-5.2,5.8-8c1.7,2.9,3.6,5.7,5.8,8
			C23.7,21.9,21.8,24.7,20.1,27.5z"/>
		<path class="st7" d="M54.6,94c-1.7-2.9-3.6-5.7-5.8-8c2.3-2.4,4.1-5.2,5.8-8c1.7,2.9,3.6,5.7,5.8,8C58.1,88.3,56.3,91.1,54.6,94z"
			/>
		<path class="st6" d="M10,96.8V8.7h54.6v88.1H10z M29.7,23.3c-2-0.5-1.9,1.4-0.5,1.5c1.6,0.1,2.3-2.6,1.5-3.7
			C30.7,21.1,30.1,23.2,29.7,23.3z M17,34.3l-2.3,1l0,1.8C15.7,36.3,16.4,35.4,17,34.3L17,34.3z M33,87c-0.5-0.2-1-0.7-0.9-0.8
			c0,0,0.3,0,0.5,0.1c1.8,0.8,3.3,0.7,5.4-0.1c0.2-0.1,0.4,0.3,0.3,0.4C37.4,88.1,34.3,87.6,33,87L33,87z M32.1,84.9
			c-0.4-0.6,0.1-0.2,0.3,0c1.4,1.3,3.2,1.7,4.8,0.5l0.1-0.2c0-0.1,0,0-0.7,0.2c-1.5,0.6-2.8,0.1-4-0.9c-0.5-0.4-0.8-0.6-0.8-0.7
			c0-0.1,0.1-0.2,0.3-0.1c0.1,0,0.4,0.1,0.6,0.1c0.4,0,0.3,0,0.7-0.2c0.8-0.4,1.6-0.5,2.5-0.4c0.2,0,0.5,0.1,0.5,0.1
			c0.2-0.1-0.1-0.3-0.8-0.9c-0.1-0.1-0.3-0.2-0.4-0.3C35,82,35.1,82,35.2,82c0.3,0,1.7,1.1,2.1,1.8c0.1,0.2,0.2,0.2,0.2,0.4
			c0,0.2-0.1,0.4,0.2,0.7c0.2,0.2,0.3,0.6,0.3,0.6c0,0,0,0.1-0.2,0c-0.1,0-0.1-0.1-0.2-0.1c-0.1,0-0.3,0.1-0.5,0.2
			C35.2,87,33.5,86.4,32.1,84.9L32.1,84.9z M36.2,84.8c0,0-0.1-0.7-0.3-0.9c-0.4-0.4-1-0.5-1.3-0.1c-0.2,0.2-0.4,0.9-0.4,0.9
			l0.4,0.1c0-0.1,0-0.6,0.3-0.8c0.1-0.1,0.5-0.1,0.6,0c0.2,0.1,0.4,0.6,0.4,0.8C36,84.8,36.3,84.8,36.2,84.8L36.2,84.8z M33.9,83.8
			c-0.3,0.1-0.6,0.2-0.7,0.4c-0.1,0.2,0.3,0.3,0.5,0.4c0.3,0.1,0.3,0.1,0.4-0.1c0.1-0.1,0.1-0.3,0.2-0.5
			C34.5,83.6,34.3,83.6,33.9,83.8z M36.8,84.4c0.2-0.2,0.2-0.3,0-0.4c-0.1-0.1-0.2-0.2-0.4-0.2c-0.2-0.1-0.4-0.2-0.2,0.2l0.2,0.5
			C36.6,84.6,36.7,84.6,36.8,84.4z M11.5,68c0.1,0,1-0.3,1.4-0.5c0.3-0.1,0.4-0.1,0.2-0.3c0-0.1-0.1-0.3-0.1-0.5l0-0.3
			c-0.6-0.1-1.4,0.2-1.7,0.6C11.1,67.3,11.1,67.9,11.5,68L11.5,68z M11.3,69.4c0.2,0.2,0.2,0.2,0.7,0c0.2-0.1,0.6-0.3,0.8-0.3
			c0.6-0.2,0.6-0.1,0.5-0.5c-0.1-0.2-0.1-0.3-0.1-0.5c0-0.2,0.1-0.2-0.1-0.3c-0.3-0.1-1.7,0.4-2,0.8C11.1,69,11.1,69.2,11.3,69.4
			L11.3,69.4z M44.1,83.4c0,0.3,0,0.8,0,1.1c0,0.5,0.2,0.7,0.4,0.4c0.2-0.7,0.3-1.8,0.8-2.3c0.4-0.1,0.9,0.1,1.2-0.2
			c0.6-0.6,0.1-1.3-0.5-1.4C44.9,80.9,44.1,82.4,44.1,83.4z M47.1,81.7c0,0.7-0.6,1.1-1.3,1c-0.3-0.1-0.4,0-0.5,0.4
			c-0.4,1.1-0.6,2.2-0.7,2.9c0,0.6-0.3,2.3-0.1,2.8c1.9,2.4,4,4.9,6.2,7.3h13.3V80.4l-3.8-3.6l0-5.8c-4.1,1.9-8.2,3.9-12.3,5.9
			c0.9,2.9-2.1,3.5-2.8,1.6c-0.6,0.5-1,3.4-0.8,3.5c0,0,0.1,0.1,0.2-0.1c0.2-0.4,0.5-0.6,0.8-0.8C46,80.5,47,80.7,47.1,81.7z
			 M36.6,81.4c-0.6-0.5-0.3-1.3,0.2-1.5c0.3-0.1,0.7-0.1,1.2,0.1c0.4,0.2,0.7,0.2,1.2,0.1c0.3,0,0.2,0.6-0.1,0.8
			c-0.2,0.1-0.7,0.1-1.3-0.3c-1.1-0.6-1.5,0.2-0.9,0.9C37.3,81.8,36.7,81.5,36.6,81.4L36.6,81.4z M14.6,71.9c0.6-0.4,0.3-1-0.2-1.1
			c-0.7,0-0.9,0.8-0.4,1.1c0,0.1-0.3,0-0.4-0.1c-0.2-0.2,0-0.8-0.2-0.8c-0.2,0-1.6,0.5-1.8,0.6c-0.7,0.4,0,1.2,0.3,1.1
			C12.7,72.6,13.8,72.4,14.6,71.9z M11.3,70.7c0,0.4,0.1,0.5,0.4,0.6c0.5-0.1,1-0.3,1.5-0.5c0.4-0.1,0.5-0.3,0.2-0.5
			c-0.1-0.1-0.2-0.2-0.1-0.5c0.1-0.3,0-0.3-0.1-0.3c-0.1,0-0.4,0.1-1.2,0.4c-0.4,0.2-0.5,0.2-0.6,0.4C11.3,70.4,11.3,70.5,11.3,70.7
			L11.3,70.7z M15.6,75.6c0.1-0.1,0.3-0.8,0.3-0.9c0-0.3-0.2-0.3-0.4-0.2c-0.2,0.2-0.2,0.5-0.3,0.7l-0.1,0.2
			C15.2,75.7,15.5,75.7,15.6,75.6L15.6,75.6z M17.3,72c6.6-7.1,10.7-16.9,3.6-30.4c-0.4-0.4-1.1,1-1.1,1l-0.9,0.8
			c4.9,8.4,4,18.1-1.9,24.9l0,0.4c0,1,0.3,0.9,0.7,0.5c0.4-0.5,0.1-0.1,0,0.1c-0.2,0.2-0.4,0.5-0.5,0.6C17.2,70.5,17.5,71.6,17.3,72
			L17.3,72z M16.8,69.9c-0.1-0.2-0.1-0.6-0.2-1c0-0.2,0-0.4,0-0.6c-0.1-0.4-0.2-1.4-0.4-1.6c-0.2-0.2-0.5-0.4-0.9-0.4
			c-0.4,0-0.4,0-0.5,0.1c-0.1,0.2,0,1.2,0.1,1.6c0.1,0.4,0.1,0.7-0.1,1.1c0,0.2-0.1,0.2,0,0.2c0.3,0,0.4-0.4,0.6-0.3
			c0,0-0.1,0.4-0.2,0.7c-0.2,0.4-0.2,0.8,0,1.4c0.1,0.3,0.1,0.4,0,0.6c0,0.1-0.1,0.6-0.1,1c0.2,0.5,0.1,0.8,0,0.9
			c-0.2,0.4-0.3,1-0.2,1.4c0,0.1,0.2,0,0.3-0.2c0.1-0.5,0.3-0.6,0.7-0.6c0.3,0,0.3,0.1,0.4,0c0.2-0.3,0.8-1.4,0.8-1.7
			C17.2,71.6,17.2,71,16.8,69.9L16.8,69.9z M20,74.9c0.2-0.1,0.5-0.5,0.5-0.6c0-0.1-1.1-1.2-1.6-1.5c-0.2-0.1-0.3,0-0.7,0.5
			c-0.3,0.4-0.4,0.4-0.3,0.5c0.1,0.1,1.2,0.8,1.6,1C19.6,74.9,19.8,74.9,20,74.9L20,74.9z M22.1,73c-0.2-0.1-1.5-1.6-1.9-1.7
			c-0.2,0-0.6,0.5-0.6,0.6c0,0.1,0.8,0.9,1.4,1.4c0.2,0.1,0.4,0.3,0.4,0.3C21.6,73.5,22.1,73.2,22.1,73z M23.5,71.6
			c0-0.1-0.1-0.3-0.5-0.6c-0.9-0.9-1.4-1.3-1.6-1.3c-0.2,0.1-0.5,0.6-0.5,0.8c0.1,0.1,1.6,1.5,1.8,1.6
			C22.9,72.3,23.5,71.7,23.5,71.6L23.5,71.6z M24.9,70.1c0-0.1,0-0.2-0.2-0.4c-0.1-0.1-0.6-0.6-1.1-1.1c-1-0.9-1-0.9-1.3-0.5
			C22,68.6,22,68.6,23,69.5c1,1,1.2,1.2,1.4,1.2C24.6,70.6,24.9,70.4,24.9,70.1z M14.2,69.3c-0.2-0.1-0.3,0-0.5,0.1
			c-0.7,0.6,0.3,1.4,0.7,0.9C14.8,70,14.8,69.4,14.2,69.3L14.2,69.3z M26.4,68.6c0-0.1-0.2-0.3-0.9-1c-1.8-1.7-1.7-1.6-1.9-1.5
			c-0.1,0.1-0.4,0.5-0.4,0.7c0,0.1,0.2,0.3,1.5,1.5c0.8,0.7,1,0.9,1.1,0.9C26.1,69.1,26.4,68.9,26.4,68.6L26.4,68.6z M14.3,68.7
			c0.3-0.2,0.4-0.5,0.2-0.8c-0.4-0.3-0.9-0.1-0.9,0.4C13.7,68.7,14,68.8,14.3,68.7z M27.9,67.2c0-0.2-3-3-3.2-3
			c-0.1,0-0.3,0.1-0.4,0.4c-0.1,0.3-0.1,0.4,0,0.6c0.2,0.2,0.8,0.7,1.4,1.3c0.3,0.3,0.7,0.7,0.8,0.8c0.3,0.3,0.7,0.6,0.8,0.6
			C27.4,67.7,27.7,67.6,27.9,67.2z M14.1,66.9c0-0.1,0-0.2-0.1-0.3c-0.2-0.2-0.6-0.1-0.7,0.2C13.3,67.4,14.1,67.5,14.1,66.9z
			 M16.4,44.8L17,43l1.8,0l0.3-1.8l1.9-0.3l0-1.9l1.8-0.2l-0.1-2l1.6-0.4l-0.1-1.8l1.5-0.5l-0.1-1.6l0.3-0.2l-0.6-0.7l-0.6,0.2
			l0,1.6L23.1,34l0.2,1.8l-1.5,0.3l0,2L20,38.3l-0.1,1.8l-1.7,0.3l-0.3,1.7l-1.6,0.1l-0.5,1.5l-1.1,0v1L16.4,44.8z M36,77.2
			c-0.1-0.1,0.1-0.1,0.3,0c0.3,0.2,0.7,0.3,0.9,0.3c0.1,0,0.5-0.1,0.9-0.2c0.5-0.2,0.9-0.2,1.4-0.1c0.4,0,0.7,0.1,0.8,0.1
			c0.2,0,0.7-0.3,0.8-0.5c0.3-0.5,0.2,0.4,0.2,0.5c0,0.5,0.1,1-0.3,0.8c-0.2-0.1-0.6-0.2-0.8,0c-0.3,0.2-0.5,0.2-0.8,0
			c-0.3-0.1-0.4-0.1-0.6,0.1c-0.2,0.2-0.8,0.1-1.1,0c-0.5-0.1-0.8-0.2-1.1,0.1c-0.2,0.1-0.2,0-0.4-0.4C36.1,77.7,36,77.3,36,77.2
			L36,77.2z M37.3,76.9c0-0.1,0.2-0.3,0.4-0.4c0.5-0.3,1.6-0.3,2.4,0c0.4,0.1,0.5,0.4,0.1,0.3c-0.8-0.2-1.8-0.3-2.6,0.1L37.3,76.9
			L37.3,76.9z M38,75.6c-0.6-0.2-0.8-0.4-0.8-0.5c0-0.1,0.1-0.1,0.6,0.1c0.6,0.2,1.3,0.3,1.9,0.1c0.4-0.2,0.6-0.3,0.6-0.2
			c0,0.1-0.2,0.4-0.5,0.5C39.2,75.9,38.4,75.8,38,75.6L38,75.6z M49.9,74.1l0.4-0.1l-0.1-1.7l1.5-0.4l-0.1-1.7l1.6-0.6l-0.1-1.9
			l1.7-0.3l0.2-1.7l1.6-0.1l0.3-1.8l1.7-0.1l0.3-1.5l1.1,0l0-0.9l-1.8,0L57.9,63l-1.7,0l-0.4,1.8l-1.7,0L54,66.8L52.3,67v2.1
			l-1.6,0.4l0.1,1.8l-1.6,0.6l0.2,1.7L49.9,74.1z M60.4,34c-0.2,0.2-0.3,0.5-0.2,0.7c0.2,0.6,1,0.4,1.1,0c0-0.2-0.1-0.5-0.3-0.5
			l-0.2-0.1c0-0.1,0.3-0.2,0.4-0.2c0.2,0.1,0.4,0.4,0.4,0.6c0,0.1,0,0.3,0,0.3c0.4,0,0.8-0.2,1.2-0.3c0.7-0.2,0.9-0.6,0.8-1
			c-0.1-0.4-0.5-0.5-1-0.3C61.9,33.5,61.1,33.6,60.4,34L60.4,34z M31.3,75.9c2.3-1.6,3.7-2.6,6.6-2.7c-1.1-0.4-1.2-1-1.5-1.6
			c-3.7,0.3-5.6,1.5-7.4,2.6C29.7,74.6,30.5,75,31.3,75.9z M44.2,73.7c-1.1-0.8-2.5-1.3-3.8-1.6l-1.1,1.1
			C39.2,73.1,42.3,73.2,44.2,73.7L44.2,73.7z M54.9,63.2c-7.2-11.1-2.4-20.9,2.7-27.2c0.2-0.2,0.2-0.2,0.2-0.4
			c0-0.2-0.1-1.3-0.1-1.9C48.4,43,48.2,55,54,64.6C54.4,64.2,55.2,63.7,54.9,63.2L54.9,63.2z M56,62.3c-1.2-2-7.5-12.7,2.1-24.7
			c0,0,0-0.6-0.1-0.8c-0.1-0.4-0.3-0.6-0.3-0.6c-4.1,6.1-10,13.7-2.6,27L56,62.3z M50.5,42.1c0.1-0.1,0.4-0.5,0.4-0.7
			c0-0.2-0.1-0.3-1.2-1.4c-1.5-1.5-1.7-1.7-1.9-1.7c-0.2,0-0.6,0.4-0.6,0.6c0,0.1,0.4,0.5,1.4,1.6C50.4,42.3,50.3,42.2,50.5,42.1
			L50.5,42.1z M51.8,39.4c0-0.1-0.1-0.3-0.5-0.6c-0.8-0.9-2-2-2.1-2c-0.1,0-0.5,0.3-0.6,0.5c-0.1,0.1-0.1,0.2,0,0.3
			c0.1,0.2,2,2,2.6,2.5C51.5,40.3,51.8,39.6,51.8,39.4L51.8,39.4z M52.6,38.3c0.1-0.1,0.4-0.6,0.4-0.7c0-0.1-0.5-0.6-1.1-1.1
			c-1.1-1.1-1.2-1.2-1.5-0.9c-0.3,0.2-0.4,0.5-0.4,0.5c0,0.1,1.7,1.8,2.1,2.1C52.4,38.3,52.4,38.3,52.6,38.3z M61.1,38.2
			c0.5-0.5-0.1-1.1-0.5-0.8c-0.2,0.1-0.3,0.4-0.2,0.5C60.4,38.2,60.8,38.3,61.1,38.2z M62.1,38c0.9-0.2,1.3-0.4,1.5-0.7
			c0.1-0.2,0.1-0.3,0-0.6c-0.1-0.3-0.3-0.4-0.8-0.1c-0.4,0.2-1.2,0.3-1.5,0.5c-0.1,0.1-0.1,0.1,0,0.2c0.2,0.1,0.3,0.2,0.3,0.4
			C61.5,38.1,61.6,38.2,62.1,38L62.1,38z M61.2,36.7c0.4-0.2,0.3-0.8-0.1-1c-0.6-0.2-1,0.6-0.5,1C60.7,36.8,61,36.7,61.2,36.7z
			 M62.6,36.4c0.6-0.2,0.9-0.4,1-0.7c0.1-0.3,0.1-0.4,0.1-0.7c0-0.4-0.2-0.4-0.8-0.1c-0.3,0.1-1.6,0.5-1.7,0.6
			c0.7,0.4,0.5,0.6,0.5,1.1C61.8,36.7,62.1,36.6,62.6,36.4L62.6,36.4z M54.1,35.8c0-0.2-1.7-1.9-1.9-1.9c-0.3,0-0.7,0.4-0.6,0.7
			c0,0.1,1.7,1.8,1.9,1.9C53.7,36.6,54.1,36.1,54.1,35.8z M55.1,34.7c0.1-0.1,0.2-0.2,0.3-0.3c0.2-0.3,0.2-0.4-0.1-0.6
			c-0.1-0.1-0.4-0.4-0.8-0.7c-0.4-0.4-0.7-0.7-0.8-0.7c-0.3,0-0.8,0.4-0.8,0.7c0,0.1,1.4,1.4,1.7,1.6C54.8,34.9,54.9,34.9,55.1,34.7
			z M57.5,32.2c0,0-0.3-0.2-0.8-0.5c-1.5-0.8-1.5-0.8-2-0.4c-0.2,0.1-0.3,0.3-0.3,0.3c0,0.1,0.3,0.4,0.7,0.8c0.9,0.8,1.1,1,1.2,1
			C56.6,33.2,57.4,32.4,57.5,32.2z M59.6,31.4c0.2-0.2,0.4-1,0.3-1.1c-0.1-0.1-0.3-0.1-0.4,0c-0.1,0.1-0.4,1.1-0.4,1.2
			C59.1,31.6,59.4,31.5,59.6,31.4L59.6,31.4z M43.3,63.9c0.1,0,0.4-0.2,0.8-0.5c0.4-0.4,1.8-1.2,1.9-1.5c0.1-0.2,0-0.5-0.1-0.5
			c-0.1,0-0.1,0.1-1,0.7c-0.6,0.4-1.7,1.2-1.8,1.4C43,63.6,43.2,63.9,43.3,63.9z M43.2,69.1c0.9-0.6,1.7-1.3,2.9-2.1
			c0.1-0.1,0.1-0.3,0.1-0.5c-0.1-0.2-0.2-0.1-0.5,0.1c-0.9,0.6-1.8,1.3-2.6,1.8c-0.2,0.2-0.5,0.3-0.4,0.4
			C42.7,69.1,43.1,69.1,43.2,69.1z M44.1,69.5c0.6-0.5,1.3-1,2-1.5c0.1-0.1,0.1-0.4,0-0.5c-0.1-0.1,0-0.1-0.2,0
			c-0.3,0.2-1.8,1.2-2.1,1.5c-0.2,0.1-0.3,0.2-0.3,0.3C43.7,69.4,43.9,69.5,44.1,69.5L44.1,69.5z M44.9,69.9
			c0.1-0.1,1.2-0.8,1.3-0.9c0.1-0.1,0.1-0.6,0-0.6c-0.3,0.2-1.7,1.1-1.7,1.2C44.6,69.8,44.8,69.9,44.9,69.9L44.9,69.9z M46,70
			c0.2-0.2,0.2-0.2,0.2-0.4c0-0.3-0.1-0.3-0.5,0c-0.3,0.2-0.5,0.3-0.4,0.5C45.5,70.5,45.8,70.2,46,70L46,70z M46.1,70.6
			c0.1,0,0.1-0.1,0.1-0.2c0-0.1,0-0.1-0.2-0.1C45.7,70.4,46,70.7,46.1,70.6z M41.9,68.9c0.2-0.5,0.4-0.9,0.7-1.3
			c1.5-1.3,1-2.9,0.1-4.2c1.2-1.7,2.4-3.4,3.4-5.1l0-2.6l0.1,0c0,5.8,0.2,15.2,0.2,15.2l1.2,0.9l-0.2,0.1
			C47.7,71.8,44.1,69.6,41.9,68.9L41.9,68.9z M43,68.2c1-0.8,2-1.4,3-2.2c0.1-0.1,0.2-0.1,0.2-0.3c0-0.4-0.1-0.4-0.4-0.1
			c-0.2,0.1-0.8,0.5-1.3,0.9c-0.6,0.4-1.2,0.8-1.3,0.9c-0.6,0.7-0.8,1-0.7,1.1C42.4,68.6,42.6,68.5,43,68.2L43,68.2z M44.1,66.4
			c0.5-0.3,1.8-1.2,1.9-1.3c0.2-0.2,0.2-0.5,0.1-0.5c-0.1,0-1,0.6-1.9,1.2c-0.4,0.3-0.5,0.4-0.5,0.7C43.7,66.6,43.8,66.6,44.1,66.4z
			 M44.6,65.1c1.6-1.1,1.5-1,1.5-1.5c0-0.1,0-0.2-0.1-0.2c0,0-0.3,0.2-0.6,0.4c-0.3,0.2-0.7,0.5-0.9,0.7c-0.6,0.4-0.7,0.5-0.7,0.7
			c0,0.2,0.1,0.4,0.2,0.4C43.9,65.5,44.3,65.3,44.6,65.1z M44.4,64.2c0.7-0.5,1.5-1.1,1.6-1.2c0.1-0.2,0.1-0.5-0.1-0.5
			c-0.7,0.5-1.6,1.1-2.2,1.6c-0.1,0.1-0.2,0.1-0.2,0.2c0,0.1,0.1,0.3,0.2,0.3C43.8,64.6,44,64.4,44.4,64.2L44.4,64.2z M43.9,62.4
			c0.6-0.4,1.1-0.8,1.6-1.2c0.4-0.3,0.5-0.4,0.5-0.7c0-0.2-0.2-0.1-0.9,0.4c-0.5,0.3-0.8,0.5-0.9,0.7c-0.1,0.3-0.6,0.6-0.6,0.9
			C43.6,62.6,43.7,62.6,43.9,62.4L43.9,62.4z M45.6,60.1c0.4-0.3,0.5-0.3,0.4-0.7C46,59,45.9,59,45.5,59.7c-0.3,0.4-0.4,0.5-0.3,0.6
			C45.3,60.4,45.4,60.3,45.6,60.1z M44.1,56.7c0-0.2-0.1-0.2-0.3,0c-0.4,0.4-0.5,0.6-0.2,0.7c0.1,0.1,0.2,0.1,0.3-0.1
			C44,56.9,44,56.8,44.1,56.7z M41.8,60c-0.1-0.2-0.3-0.5-0.5-0.5c-0.2-0.1-0.3-0.1-0.5,0.1c-0.2,0.2-0.1,0.3,0.2,0.6
			c0.2,0.2,0.2,0.3,0.4,0.3C41.6,60.4,41.9,60.2,41.8,60z M33.2,68.3c-0.1-0.2-0.4-0.5-0.5-0.4c-0.1,0-0.2,0.2-0.2,0.3
			c0,0.2,0.2,0.4,0.4,0.4C33.1,68.5,33.3,68.5,33.2,68.3z M34.3,67.9c-0.2-0.2-0.7-0.8-0.7-0.8c-0.1,0-0.4,0.3-0.4,0.4
			c0,0.1,0.4,0.7,0.5,0.8C34,68.3,34.6,68.3,34.3,67.9z M35.6,68c0-0.1-1.3-1.5-1.4-1.5c-0.1,0-0.4,0.3-0.4,0.4c0,0.1,0.4,0.6,0.8,1
			c0.2,0.2,0.2,0.2,0.4,0.2C35.3,68.1,35.6,68.2,35.6,68L35.6,68z M37.8,67.7c0-0.3-0.1-0.4-0.7-1.1c-0.2-0.2-0.6-0.6-0.8-0.9
			c-0.4-0.5-0.6-0.6-0.8-0.6c-0.1,0-0.3,0.2-0.3,0.4c0,0.1,1.1,1.3,2,2.3c0.2,0.2,0.3,0.3,0.5,0.2C37.8,67.9,37.8,67.8,37.8,67.7
			L37.8,67.7z M36.1,64.4c-0.2,0.2-0.3,0.3-0.3,0.4c0,0.2,1.8,2.2,2,2.2c0.1,0,0.1,0,0.1-0.2c0.1-0.7-0.1-0.9-0.5-1.3
			C37.1,65.2,36.5,64.2,36.1,64.4L36.1,64.4z M39.4,63.1c-0.5-0.6-0.8-0.9-0.9-0.9c-0.1,0-0.2,0.1-0.3,0.2c-0.2,0.2-0.2,0.2-0.1,0.4
			c0.1,0.1,0.2,0.3,0.4,0.5c0.3,0.3,0.4,0.4,0.6,0.2C39.2,63.4,39.5,63.2,39.4,63.1z M39.1,61.6c-0.1,0-0.3,0.2-0.3,0.3
			c0,0.1,0.4,0.6,0.7,0.9c0.2,0.2,0.3,0.3,0.5,0.1c0.1-0.2,0.1-0.3,0-0.5C39.8,62.2,39.4,61.6,39.1,61.6L39.1,61.6z M40.6,61.7
			c0-0.2-0.5-0.9-0.7-0.9c-0.1,0-0.4,0.3-0.4,0.5c0,0.1,0.1,0.3,0.3,0.5c0.4,0.4,0.5,0.5,0.6,0.5C40.4,62.1,40.6,61.9,40.6,61.7z
			 M41.1,60.9c0-0.1-0.1-0.3-0.3-0.6c-0.3-0.3-0.4-0.4-0.6-0.1c-0.1,0.1-0.1,0.2-0.1,0.2c0,0.1,0.5,0.8,0.7,0.8
			C41,61.3,41.1,61.1,41.1,60.9L41.1,60.9z M40.2,62.7c0,0.2-0.1,0.4-0.4,0.5c-1.7,1.2-1.6,3.2-2,5c-2.7,0-7,1.1-7,1.1l14.4-14.6
			c0,0,0.2,0,0.1,0.2c-1.2,0.8-1.1,2.5-1.9,3.3C42.2,59.7,41,61.1,40.2,62.7L40.2,62.7z M32.4,68.6c0-0.2-0.1-0.2-0.3-0.1
			c-0.1,0.1-0.1,0.2,0.1,0.2C32.3,68.7,32.3,68.7,32.4,68.6z M36.8,68c0.1-0.1-0.1-0.3-0.8-1.1c-0.8-0.9-1-1.1-1.1-1.1
			c-0.1,0-0.4,0.3-0.4,0.4c0,0.1,0.1,0.2,0.3,0.4c0.2,0.2,0.4,0.5,0.6,0.7c0.3,0.4,0.5,0.6,0.6,0.7c0.1,0.1,0.2,0.1,0.4,0.1
			C36.7,68.1,36.8,68.1,36.8,68z M38.1,65.3c0.1-0.2,0.1-0.3,0.1-0.4c0-0.1-1-1.1-1.2-1.2c-0.2-0.1-0.6,0.3-0.5,0.5
			c0,0.1,0.3,0.4,0.7,0.8c0.4,0.5,0.6,0.7,0.7,0.7C38.1,65.6,38.1,65.5,38.1,65.3L38.1,65.3z M38.5,64.2c0.1-0.1,0.1-0.2,0.1-0.3
			c0-0.1-0.2-0.3-0.4-0.5c-0.4-0.5-0.6-0.6-0.8-0.3c-0.2,0.2-0.2,0.3,0.3,0.8C38.3,64.5,38.3,64.5,38.5,64.2L38.5,64.2z M42.3,59.5
			c0.2-0.2,0.2-0.3,0-0.5l-0.2-0.2c-0.1-0.2-0.3-0.1-0.5,0.1c-0.1,0.1-0.1,0.2-0.1,0.2c0,0,0.1,0.2,0.2,0.3
			C42,59.7,42.1,59.7,42.3,59.5L42.3,59.5z M42.9,58.7c0.1-0.2,0.1-0.4-0.1-0.6c-0.2-0.2-0.3-0.2-0.4,0c-0.2,0.2-0.2,0.3,0,0.5
			C42.6,58.9,42.8,58.9,42.9,58.7z M43.4,58.1c0.2-0.2,0.2-0.3,0-0.5c-0.1-0.2-0.3-0.2-0.4-0.1c-0.2,0.1-0.2,0.3,0,0.6
			C43.1,58.2,43.2,58.3,43.4,58.1L43.4,58.1z M32.3,89.2c3,0.3,6.1,0.6,11.7-0.3l0-1.9c-1.7,1.4-4,0.4-4.2-1.1c0-1.4,0.4-3,0.7-4.2
			c0.2-0.9,0.3-1.2,0.1-1.4c-0.5-0.3-1.3-0.3-1.6-0.9c-0.1-0.3-0.1-0.6,0-0.4c0.1,0.1,0.6,0.4,1.1,0.5c0.8,0.2,0.9,0.2,1,0.5
			c0.1,0.2-0.1,0.9-0.3,1.5c-0.1,0.4-0.3,1.1-0.3,1.3c0,0.1,0.1,0.2,0.2,0.1c0.1,0,0.3-0.3,0.5-0.4c0.7-0.7,0.9-0.6,0.3,0
			c-0.2,0.3-0.6,0.6-0.6,0.6c0,0.1,0.1,0.1,0.4,0c0.4-0.2,1.4-0.1,1.9,0.1c0.6,0.3,0.6,0.3,0.6-0.6c-0.1-1.6-0.4-3.5-0.9-4.9
			c-0.8-2.2-2.4-4.3-4.8-4.2c-3,0.2-4.7,1.3-6.7,2.7c1.2,2.7-0.5,4.8-1.2,5c-0.1,0,0.8,2.7,1.2,4.1C31.8,86.7,32.3,89.2,32.3,89.2
			L32.3,89.2z M44.9,24.2c-0.1-0.2-1.7-5.5-2.2-7.8c-4.4-0.3-7.7-0.6-11.6,0.5l0,1.6c0,0.2,0.2,0.2,0.3,0.1c1.8-1,3.8-0.5,3.9,1.9
			c0.1,0.9-0.3,1.6-0.3,2.5c0,0.8-0.7,1.8-0.3,2.4c0,0.1,0.3,0.2,0.7,0.4c0.7,0.3,0.9,0.5,1,1c0.1,0.3-0.1,0.5-0.2,0.2
			c0-0.2-0.1-0.4-0.9-0.6c-0.8-0.3-1-0.6-1.1-0.8c-0.1-0.2-0.1-0.4,0-0.8c0.2-0.8,0.4-1.6,0.4-2c0-0.1-0.2-0.1-0.3,0.1
			c-0.2,0.2-1.3,0.9-1.3,0.9c0,0,0.2-0.3,0.5-0.6c0.4-0.3,0.8-0.7,0.8-0.8c0-0.1-0.1,0-0.4,0.1c-0.6,0.2-1.3,0.1-1.7-0.1
			c-0.4-0.2-0.7-0.3-0.7-0.2c-0.1,2.4,0.2,4.8,1.2,6.8c0.9,1.7,2.8,3.9,5.6,3.4c2.9-0.5,5.7-2.8,5.6-2.8
			C42.6,27.1,43.8,25.3,44.9,24.2L44.9,24.2z M22,89.4c-1.3-1.3-4.5-2.7-6.7-3.3c-0.2,0-0.4-0.1-0.4,0.1l0,4.4l-4,3.7V96h8.5
			l5.6-8.2l0.3-0.1c-1-4.4-2.6-7.8-3.6-9.6c0,0-1.4,1.2-2.7-0.3c-0.7-0.8-0.3-2.2,0.4-2.7c-0.6-0.4-1.7-1.2-2.5-1.4
			c-0.2,0-0.4,0.3-0.5,0.6c-0.1,0.5-0.4,0.9-0.5,1.4c-0.2,0.4-0.3,0.5-0.6,0.3C15,76,14.8,76,14.8,76l0,5.2
			C17.9,82.2,21.1,84.9,22,89.4L22,89.4z M34.7,33.9l0.9-1c-1.4-0.2-2.9-0.4-4.7-1C32.1,32.8,33.4,33.4,34.7,33.9z M29.7,31.1
			c1.6,0.5,3.6,1.8,6.2,1.3c-2.3-0.9-4.1-3.1-4.8-7.4c-0.2,0.8-0.5,2.6-1,2.8c-0.7-2.9-3.7-1.2-2.5,1.1c-3,2.1-6.7,3.3-10,4.9
			c0,0-0.5,1.5-3,3.6c-0.5-2.5,0.1-6.1-0.2-8.6l-3.9-3.7c0.1,0.7,0,1.1,0,2c0.1,0.1,0.3,0.2,0.4,0.3c0.3,14.2-0.1,28.2-0.1,41.1
			c0,7.9,0.2,16.1,0.1,23.6l-0.1,0.3l0,1.8l4-3.8c0,0-0.2-2.7,0-4.7c2.5,0.5,4.8,1.7,6.9,3c0.3,0.1-1.3-5.2-6.9-7.5c0,0,0-1.6,0-5.2
			c0-3.4-0.1-3.8-0.1-3.8c-0.2,0.2-3.1,1.2-3.3,1.1c0.1,0-0.8-6.1,0-7l2.8,0.1c0.8,0.6,0.5-0.1,0.9-0.3c0.3-0.1,1.6,0.4,1.6,0.4
			c5.3-6.2,4.7-16.5,1-22.2c-1,0.8-2,1.9-3,2.3l0-3.2c5-3.2,10.5-12.6,10.1-12.6c0,0,1.6,1.5,2.2,2.4l-5,7.2c1.1,2.3,2.3,4.4,3,6.4
			c0.1,0.3,0.4,0.3,0.5,0.6c0.1,0.2-0.2,0.6-0.2,0.9c1,4,1.3,8.3,0.3,12.1c-0.2,0.9,0.2,1.6,0.7,2.2l-0.5-0.5
			c-0.2-0.1-0.5,0.3-0.6,0.8c0,0.3,0.2,0.4,0.4,0.6c0.4,0.3,1.9,1.8,2.6,2.5c0.6,0.6,0.7,0.6,1.2,0.2c0.1-0.1,0.2-0.3,0.3-0.3
			l0.2-0.2l9-8.8c1-1-8.9,9.2-8.9,9.2s-4.8,4.8-6,5.9c-1.2,1.2-1.4,1.5-1.4,1.6c-0.1,0.2,0.4,0.2,0.6,0.1c0,0-0.2,0-0.4,0
			c-1.3-0.2-1.7,1.1-2.5,1.4c-2.1,1.5-0.7,3.9,1.3,3.1l0.5-0.2c1.2,2.3,3,6.4,3.8,10L25.2,88l-5.3,8H50c-2.2-2.2-4-4.8-5.9-6.8
			c-3,0.9-12.1,0.7-11.9,0.3c0,0-1.4-5.6-2.1-8.3c2.5-2.1,2.2-5.5-1.4-6.9c2.6-2.1,5.2-2.8,7.8-2.9c0.8,2.1,2.8,2.2,3.7,0.3
			c0,0,3.5,1.1,4.7,2.2c-1.9-0.2-3.7-0.6-5.6-0.7c1.7,0.7,3.4,2.4,3.9,4.3c0.3,0.7,0.7,3,0.8,3c0,0,0.6-2.7,1.1-2.5
			c1.2,2.6,3.4,0.6,2.5-1.4c3.2-1.5,6.7-3.2,9.7-4.6c0.9-1.3,2.9-3.7,3.1-3.7c0,0,3.9-22.1,3.9-29.5c-0.1-8.9,0.2-18.8-0.2-27.1V9.4
			h-8.1L50,17.9l0,0.2c0.8,3.5,1.8,6.4,3.4,9.6c2.2-1.7,4.1,1.1,2.4,2.7c-0.3,0.3-0.2,0.4,0.1,0.6c0.3,0.2,2.4,1.3,2.5,1.3
			c0.4-0.6,0.5-1.4,0.7-2c0.1-0.2,0.2-0.3,0.6-0.2c0.5,0.1,0.5,0.3,0.4-2.7l0-2.6c-2.8-1.3-6.6-4.6-6.7-8.1c1.6,1.2,5.4,2.9,6.4,3.1
			c0.4,0.1,0.4-0.6,0.4-1c0.1,0.1,0.2,1.3,0.2,1.3c-1.7-0.5-2.5-0.4-6.7-2.8c0.7,3.4,4.1,6.1,6.6,7.3c0,0,0.1,1.6,0.1,3.4
			c0,5.5,0,5.7,0,5.7c0,0,1.4-0.3,1.7-0.5c0.7-0.5,1.7-0.1,1.9,0.3c0.2,2.1,0,4,0,6c-1.1,0.1-1.8,0.3-2.3,0.3
			c-0.4,0-0.6-0.1-0.8-0.3c-0.5-1.2-0.5-0.4-0.6,0.5c-0.1,0.3-1.4-0.2-1.6-0.3c-5.9,6.8-5.4,14.7-1.4,21.9c0.7-0.4,1.8-1.3,2.9-1.9
			c0,0.9,0,2.8,0,2.8c-4.6,3.4-10.2,12.4-10,12.4l-1.9-2.2c0,0,1.2-1.9,1.6-2.4l0.1-0.6l2.9-4.2c-1.2-2.8-2.9-4.9-3.3-7.6
			c-1.9-8.7,0.2-13,0-13.3l-0.1-0.2c-0.1-0.1,0-0.1,0.1-0.2c0.1-0.2,0.4-0.7,0.3-0.9c-0.1-0.1-1.6-1.7-2.9-2.9
			c-0.7-0.7-0.7-0.8-1-0.4c-0.1,0.1-0.5,0.5-0.5,0.5c-4.8,4.5-8.6,8.5-13.5,13.3l-0.2-0.2c7-7,14.1-13.9,21.1-21l-1.2,0l0.2-0.2
			c0.7,0,1.3-0.2,1.8-0.5c1-0.7,2.4-1.7,2.5-2.7c-0.1-1.9-1.6-2.1-2.8-1.2c-1.6-2.9-2.8-6.3-3.5-9.5c0-0.2-0.3-0.4-0.3-0.6
			c0.3-1.1,5.7-8.4,5.7-8.4H25.1l5.8,6.9c0-0.3,8.2-1.2,11.9-0.1l2.3,8.1c-2.1,2-2.7,5.3,1.1,7c0.1,0.2-0.4,0.4-0.4,0.4
			c0.1-0.1,0.2-0.2,0.1-0.3c-1-0.5-2.1-1.6-2.1-1.6c-2.3,1.8-4.4,2.8-6.5,2.9c0,0,1.1,0.8,1.3,1.6l-0.1,0c-0.2-0.3-0.8-1.2-1.2-1.4
			c-0.7-0.2-1.2,0-1.8,0.4L34.7,34C32.9,33.4,30.8,32.5,29.7,31.1L29.7,31.1z M29.4,51l0.8-0.8c0.1-0.6,0.3-1.4,1-2.2
			c0.8-0.9,1.7-1.8,2.3-2.7c0.8-1,1.2-1.9,1-2.3c1.1-0.2,2.2-1.2,2.2-3.1c0-1,0.5-2.4,0.5-2.4c0,0,8-0.3,13.5-5.5
			c0,0,0.4,0.1,0.3,0.2c-2.1,2.1-4.3,3.6-6.9,4.6L29.7,51.2L29.4,51z M31,49.4c0.2-0.2,0.3-0.3,0.1-0.4c-0.2-0.2-0.5,0.2-0.5,0.5
			C30.6,49.7,30.8,49.6,31,49.4L31,49.4z M31.8,48.7c0.2-0.2,0.2-0.3,0-0.4c-0.2-0.2-0.5-0.1-0.6,0.2C31.1,48.8,31.5,48.9,31.8,48.7
			L31.8,48.7z M32.4,48c0.1-0.1,0.2-0.2,0.2-0.2c0-0.1-0.3-0.4-0.4-0.4c-0.2,0-0.4,0.3-0.4,0.4c0,0.1,0.3,0.4,0.4,0.4
			C32.2,48.2,32.3,48.1,32.4,48z M33,46.7c-0.2-0.2-0.3-0.2-0.5,0c-0.2,0.2-0.2,0.4,0.1,0.6c0.2,0.2,0.2,0.2,0.5,0
			C33.3,47.2,33.3,47,33,46.7z M33.8,46.6c0.2-0.2,0.2-0.3,0-0.6c-0.2-0.2-0.4-0.2-0.6,0C33,46.2,33,46.3,33,46.3
			c0,0.1,0.4,0.5,0.5,0.5L33.8,46.6L33.8,46.6z M34.5,45.9c0.2-0.2,0.2-0.3-0.1-0.6c-0.2-0.2-0.4-0.2-0.6-0.1
			c-0.2,0.2-0.2,0.4,0.1,0.6C34.1,46.1,34.3,46.2,34.5,45.9z M35.3,45.1c0.1-0.1,0.1-0.1,0-0.3c-0.1-0.2-0.6-0.6-0.7-0.6
			c-0.2,0-0.3,0.2-0.3,0.5c0,0.2,0.1,0.3,0.4,0.6c0.2,0.2,0.1,0.2,0.3,0.1L35.3,45.1L35.3,45.1z M35.9,44.6c0.3-0.3,0.2-0.4-0.5-1.1
			c-0.2-0.2-0.3-0.3-0.4-0.3c-0.2,0-0.2,0.1-0.2,0.2c-0.1,0.3,0,0.5,0.4,0.9C35.6,44.8,35.6,44.8,35.9,44.6z M36.6,43.8
			c0.1-0.1,0.2-0.2,0.2-0.3c0-0.1-0.6-0.7-0.8-0.9c-0.1-0.1-0.3,0-0.5,0.1c-0.1,0.1-0.1,0.1-0.1,0.2c0,0.2,0.8,0.9,0.9,0.9
			C36.4,43.9,36.5,43.9,36.6,43.8z M37.3,43.1c0.1-0.1,0.2-0.3,0.2-0.3c0-0.1-0.6-0.8-0.8-0.9c-0.2-0.1-0.2,0-0.4,0.2
			c-0.2,0.3-0.1,0.4,0.2,0.8c0.3,0.4,0.4,0.5,0.5,0.5C37.1,43.3,37.2,43.2,37.3,43.1z M37.9,42.4c0.2-0.1,0.3-0.3,0.3-0.4
			c-0.1-0.2-1.1-1.3-1.2-1.3c-0.2-0.1-0.2,0.1-0.2,0.6v0.3l0.5,0.5C37.9,42.7,37.8,42.5,37.9,42.4L37.9,42.4z M38.8,41.6l0.2-0.3
			c-0.4-0.5-1.7-2.2-1.9-2.1l0,0.1c-0.1,0.2-0.1,0.5,0,0.8c0.4,0.4,1.3,1.6,1.6,1.7C38.6,41.8,38.7,41.8,38.8,41.6L38.8,41.6z
			 M39.5,40.9l0.1-0.2c0-0.1-0.1-0.2-0.3-0.4c-0.1-0.2-0.4-0.5-0.7-0.8c-1.2-1.5-1.3-1.6-1.5-1.4c-0.1,0.1-0.1,0.4-0.1,0.6
			c0.1,0.2,1.4,1.8,1.8,2.2C39.2,41.1,39.3,41.1,39.5,40.9z M40.2,40.3c0.1-0.1,0.2-0.2,0.2-0.3c0-0.1-0.2-0.3-0.4-0.5
			c-0.2-0.2-0.5-0.6-0.7-0.9c-0.5-0.7-0.5-0.7-0.9-0.7c-0.6-0.1-0.5,0.1,0.2,0.9c0.2,0.2,0.5,0.6,0.7,0.8c0.5,0.6,0.7,0.9,0.8,0.9
			C40,40.4,40.1,40.4,40.2,40.3L40.2,40.3z M40.9,39.6c0.3-0.3,0.2-0.3-0.8-1.4c-0.3-0.3-0.4-0.4-0.6-0.4c-0.3,0-0.3,0.1-0.3,0.2
			c0,0.1,1.3,1.6,1.4,1.7C40.7,39.7,40.7,39.7,40.9,39.6L40.9,39.6z M41.6,38.8l0.2-0.3c0-0.1-0.3-0.5-0.6-0.7
			c-0.1-0.1-0.3-0.2-0.4-0.2c-0.2,0-0.5,0.1-0.5,0.2c0,0.1,0.4,0.5,0.7,0.9C41.3,39,41.4,39,41.6,38.8L41.6,38.8z M42.2,38.2
			c0.2-0.2,0.2-0.3,0-0.5c-0.1-0.2-0.2-0.2-0.4-0.2c-0.5,0-0.5,0.1-0.1,0.5C42,38.3,42,38.4,42.2,38.2z M42.9,37.5
			c0.2-0.2,0-0.4-0.3-0.2l-0.1,0.2C42.4,37.7,42.7,37.7,42.9,37.5z M31.4,39.5c-0.7,0.4-1.8,1.2-2.5,1.8c0,0.1,0,0.4,0,0.6
			c0.4-0.3,1.8-1.2,2.4-1.7C31.3,40,31.4,39.7,31.4,39.5L31.4,39.5z M32.6,37.5c0-0.1-0.1,0-0.3,0.1c-0.3,0.2-2.4,1.8-3,2.3
			c-0.2,0.2-0.4,0.3-0.5,0.3c0,0.1,0,0.5,0,0.6c0.5-0.4,2.7-1.9,2.8-1.9C31.9,38.6,32.4,37.9,32.6,37.5L32.6,37.5z M32.4,42.4
			c0,0-2.7,3.2-3.6,4.8c0,0,0,1.8,0,2.9l-0.1,0c0,0,0-2.8,0-5.9c-0.1-7.7-0.2-9.6-0.2-9.6l-0.9-0.6l0-0.3c0,0,3.9,2.7,5.8,3.1
			C31.9,39.1,30.6,39.9,32.4,42.4L32.4,42.4z M29.2,46.3c0.1-0.1,0-0.1-0.1-0.1L29,46.3c0,0.1,0,0.1,0.1,0.1L29.2,46.3z M29.8,45.3
			c0.4-0.5,0.7-0.8,0.8-1.1c-0.2,0-1.7,1-1.7,1.1c0,0.5-0.1,0.6,0.3,0.4C29.4,45.6,29.6,45.5,29.8,45.3L29.8,45.3z M29.9,44.2
			c0.4-0.3,1.9-1.2,2.1-1.6c0.1-0.2-0.1-0.4-0.2-0.3c0,0-2.2,1.3-3,2c-0.1,0.1-0.1,0.2,0,0.4C29,44.9,29.2,44.7,29.9,44.2L29.9,44.2
			z M29.4,43.5c0.5-0.3,1.5-1,1.8-1.2c0.5-0.3,0.5-0.4,0.4-0.7c-0.1-0.1-0.2-0.1-0.3-0.1c-1.3,0.9-1.4,1.1-2.4,1.7
			c-0.1,0.2-0.1,0.4,0.1,0.5C29,43.8,29.1,43.7,29.4,43.5L29.4,43.5z M29.4,42.5c1.2-0.9,1.8-1.3,1.9-1.4c0-0.1,0.1-0.5,0-0.6
			c-0.4,0.3-1.6,1.1-2.4,1.7c0,0.1,0,0.4,0,0.5C29,42.9,29.1,42.8,29.4,42.5L29.4,42.5z M29.3,39.4c0.9-0.6,1.7-1.2,2.6-1.8
			c0.8-0.5,0.9-0.6,0.6-0.8c-0.1-0.1-0.3-0.1-0.4-0.1c-1,0.8-2.1,1.6-3.2,2.4c0,0.1,0,0.4,0,0.5C28.8,39.8,29,39.6,29.3,39.4
			L29.3,39.4z M29.2,38.5c0.1-0.1,0.5-0.4,1-0.7c1.3-0.9,1.5-1,1.5-1.1c0-0.3-0.4-0.3-0.7-0.1c-0.6,0.5-2.1,1.4-2.1,1.6
			c0,0.2,0,0.4,0,0.5C28.9,38.8,29,38.7,29.2,38.5L29.2,38.5z M29.6,37.2c1.3-0.9,1.3-0.9,1.3-1c0-0.1-0.1-0.1-0.3-0.1
			c-0.2,0-0.2,0-0.6,0.3c-0.8,0.6-1.1,0.7-1.1,0.9l0,0.3C28.9,37.7,29,37.6,29.6,37.2z M29.6,36.3c0.3-0.2,0.5-0.4,0.5-0.4
			c0-0.1-0.2-0.3-0.3-0.3c-0.2,0-0.3,0.1-0.7,0.4c-0.3,0.3-0.4,0.2-0.4,0.4c0,0.1,0,0.3,0.1,0.4C28.9,36.9,29.1,36.8,29.6,36.3z
			 M29.1,35.7c0.3-0.2,0.3-0.3,0.1-0.5c-0.2-0.2-0.4-0.2-0.5-0.1c-0.1,0.1,0,0.6,0,0.7C28.7,35.9,28.9,35.9,29.1,35.7L29.1,35.7z
			 M35.1,30.6c0-0.1,0.5-0.5,0.9-0.5c0.5-0.1,1,0,1.5,0.2c0.4,0.2,0.7,0.6,0.2,0.3c-0.5-0.2-1.6-0.2-2,0
			C35.2,30.7,35.1,30.7,35.1,30.6L35.1,30.6z M34.7,28.8c0,0,0.5,0.1,0.8,0.2c0.7,0.2,1.3,0.1,2.1-0.1c0.2-0.1,0.3,0.1,0.2,0.2
			c-0.4,0.3-0.9,0.4-1.3,0.5C35.5,29.6,34.5,29.1,34.7,28.8L34.7,28.8z M30.1,27.5c0.4-0.2,0.9-3,0.7-3.4c-0.5,0.8-1,1.1-1.8,1
			c-1.3-0.2-1.3-1.8-0.3-2c0.4-0.1,0.9,0.2,1,0.1c0.4-0.2,0.8-1.6,0.9-2.1c0.1-0.5,0.2-1.7,0.2-2.1c0-0.8,0-2.1,0-2.1l-6.2-7.5H10.9
			c0,0,0,10.5,0,15.8l3.8,3.7l0,6c4.3-1.9,8.5-3.9,12.6-6c-0.5-0.6-0.5-2,0.4-2.5C29,25.6,30.1,26.6,30.1,27.5L30.1,27.5z
			 M33.5,28.7c0-0.3,0.3-0.6,0.3-1c0-0.1,0.1-0.2,0.3-0.1c0.3,0.1,0.3,0,0.6-0.1c0.5-0.2,0.7-0.2,1.1-0.1c0.3,0.1,0.3,0.1,0.6,0
			c0.3-0.2,0.7-0.3,1-0.2c0.4,0.2,0.6,0.2,0.9,0.1c0.1-0.1,0.3-0.3,0.3-0.3c0.2,0.3,0.1,0.7,0.3,0.9c0.2,0.4,0.1,0.7-0.1,0.5
			c-0.5-0.4-0.9-0.4-1.7-0.3c-0.4,0.1-0.6,0.2-1.1,0.1c-1.5-0.2-1.6-0.1-1.9,0.1C33.8,28.8,33.6,28.8,33.5,28.7L33.5,28.7z M37.5,26
			c-0.4-0.1-0.9-0.5-1.3-0.4c-0.4,0-0.7-0.5-0.5-0.8c0.4-0.4,1,0,1.2,0.2c0.5,0.4,0.6,0.4,0.8,0.4c0.8,0,0.7-0.8,0.3-1.1
			c-0.2-0.3-0.3-0.4-0.2-0.5c0.1-0.1,0.3,0,0.6,0.3c0.5,0.5,0.5,1.4-0.1,1.7C38,26,37.8,26.1,37.5,26z M39.3,23.3
			c-0.4-0.3-1.1-0.9-1.3-1.1c-0.3-0.4-0.4-0.6-0.4-0.9c0-0.2,0.1-0.4-0.1-0.5c-0.2-0.1-0.3-0.4-0.3-0.6c0-0.1,0.2,0,0.3,0.1
			c0.1,0,0.1-0.1,0.3-0.2c1.6-1.1,2.9-0.9,4.4-0.1c0.4,0.2,1.6,1.1,1,0.8c0,0-0.4-0.2-0.8-0.4c-1.3-0.6-2.8-1-3.9-0.2
			c-0.2,0.1-0.3,0.3-0.2,0.3c0.7-0.1,1.3-0.4,2-0.4c1,0,1.6,0.5,2.4,0.9c0.8,0.4,1,0.5,0.7,0.8c-0.1,0.1-0.2,0.1-0.6,0.1
			c-0.4,0-0.5,0-0.7,0.1c-0.6,0.4-1.5,0.6-2.2,0.6c-0.9-0.1-1-0.1-1,0c0,0.1,0.2,0.2,0.4,0.5c0.2,0.2,0.5,0.4,0.5,0.5
			C39.8,23.6,39.5,23.5,39.3,23.3z M39,22c0-0.1-0.2-0.5-0.3-0.7c-0.1-0.1-0.2-0.1-0.4,0.1c-0.2,0.1-0.2,0.2,0,0.4
			C38.6,22.1,39,22.1,39,22z M40.3,22c0.3-0.2,0.7-0.8,0.5-1c-0.1-0.1-0.2,0-0.4,0.3c-0.1,0.2-0.2,0.4-0.3,0.4
			c-0.3,0.2-0.7,0-0.8-0.4c-0.1-0.3-0.2-0.4-0.3-0.3c-0.2,0.2,0,0.8,0.4,1C39.7,22.1,40.1,22.1,40.3,22z M41.4,21.9
			c0.4-0.1,0.5-0.3,0.5-0.4c0-0.1-0.3-0.3-0.5-0.3l-0.3,0.1c-0.1,0.2-0.3,0.6-0.3,0.7C40.9,22.1,41,22.1,41.4,21.9L41.4,21.9z
			 M42.6,19.3c-1.8-0.7-3.1-0.9-4.8-0.2c-0.5,0.2-0.8,0.3-0.9,0.1c0-0.2,0.4-0.6,0.8-0.9c1.2-0.5,2.6-0.6,3.7,0
			c0.4,0.2,1.7,1.1,1.7,1.2C43.1,19.5,43,19.4,42.6,19.3z M63.2,39c0.4-0.2,0.6-0.7,0.4-0.9l-0.3-0.1c-0.1,0-1.2,0.3-1.5,0.4
			c-0.1,0.1-0.1,0.2,0,0.3c0.1,0.1,0.1,0.2,0.1,0.3c0,0.2,0,0.3,0.1,0.3C62.3,39.3,62.7,39.3,63.2,39L63.2,39z M61.6,39.4
			c0.1-0.2,0.1-0.5-0.2-0.7c-0.2-0.1-0.3,0-0.4,0.1C60.7,39.5,61.4,39.7,61.6,39.4z M60.1,39.7c0.1-0.7,0-2.9,0-2.9
			s-0.4,0.3-0.6,0.3c0.1-0.3,0.2-0.4,0.3-0.7c0.1-0.3,0.1-0.9,0.1-1.2c0-0.4-0.3-0.4,0-1c0.1-0.3,0.2-0.7,0-1.1
			c-0.1-0.2-0.1-0.3,0.1-0.6c0.2-0.2,0.1-0.4,0.1-0.9c0-0.7,0-0.8-0.2-0.2c-0.3,0.5-0.5,0.4-0.9,0.3c-0.5,1-1,2.1-1,3
			c0,0.6,0,0.6,0.3,1.8c0.1,0.4,0.2,0.6,0.2,1.1c0,0.5,0,0.7,0.1,1C58.7,39.1,59.2,39.9,60.1,39.7L60.1,39.7z M44.1,86.1l0-1
			c0,0-1.7,0.5-2.5,0.2c-0.9-0.2-0.9-0.3-0.8-0.2c0,0.2,0.7,0.5,1.3,0.6c0.4,0.1,1.3,0,1.7-0.1c0.2-0.1,0.3,0,0.2,0.1
			c-1,0.8-2.3,0.4-3.1-0.2C40.3,85,40,85,40.3,85.6C41.4,87.8,44.1,86.5,44.1,86.1L44.1,86.1z M43,84.5l0.4,0c0,0-0.1-0.7-0.3-0.8
			c-0.4-0.4-1-0.3-1.3,0.1c-0.2,0.2-0.3,0.8-0.3,0.8l0.3,0C41.9,84.3,42.3,82.9,43,84.5L43,84.5z M41.5,83.5
			c-0.2-0.1-0.7,0.2-0.9,0.3c-0.1,0.1-0.1,0.1,0,0.2c0.2,0.3,0.6,0.4,0.6,0.3C41.3,84.3,41.5,83.6,41.5,83.5z M44,84.3
			c0-0.2-0.1-0.5-0.4-0.7c-0.1,0-0.3-0.1-0.2,0.1c0,0.2,0.1,0.4,0.2,0.6c0.1,0.1,0.1,0.2,0.2,0.1C43.8,84.4,43.9,84.4,44,84.3
			L44,84.3z M60.1,70.5l0-1.8c-0.9,0.9-2,2.4-2.4,3L60.1,70.5z M33.1,22.1c0.4-0.2,0.7-0.7,0.6-0.9c-0.1-0.2-0.2,0-0.4,0.2
			c-0.3,0.4-0.3,0.4-0.5,0.4c-0.2,0-0.3-0.1-0.5-0.4c-0.1-0.3-0.2-0.3-0.3-0.2c0,0.1,0,0.1,0,0.4C32.1,22.2,32.6,22.4,33.1,22.1z
			 M34.1,22c0.4-0.1,0.5-0.2,0.5-0.3c0-0.1-0.4-0.3-0.5-0.3c-0.1,0.1-0.5,0.6-0.5,0.7C33.6,22.2,33.8,22.1,34.1,22z M31.7,21.7
			c0-0.1,0-0.3-0.1-0.3c-0.1-0.2-0.4,0-0.4,0.2c0,0.2,0.2,0.3,0.4,0.3C31.8,21.9,31.7,21.9,31.7,21.7z M34.1,20.7
			c0.6,0.2,0.9,0.2,0.6-0.1c-0.4-0.5-2.5-1.1-3.6-0.3c-0.1,0.1-0.1,0.5,0,0.5C32,20.3,33.1,20.3,34.1,20.7L34.1,20.7z M32,19
			c-0.5,0.2-1,0.4-1,0.7c-0.1,0.4,0.1,0.4,0.7,0.2c0.8-0.3,1.8-0.2,2.5,0.3c0.5,0.4,0.7,0.3,0.6-0.1C34.5,18.9,32.8,18.7,32,19
			L32,19z"/>
		<path class="st5" d="M63.9,11.9l-3.7,3.6l0.1,4.3c0.4,0.7-5.6-1.9-6.6-2.7c0.1,2.9,4,6.1,6.6,7.3l0.1,9.2c1-0.5,2.3-0.9,3.3-0.9
			C64.1,26.5,64.6,18.3,63.9,11.9z M43.6,16.4c-0.4,0-0.6,0.1-0.6,0.3c-0.1,0,1.4,5.4,2,7.6c-1.3,1.3-2.6,3.6-0.7,5.7
			c0.4,0.4,1.2,0.8,1.9,1.3c0.3,0.3-3.9,3.1-7.7,3.1c-1.2-2.7-2.9-1.2-3.8-0.3c-0.7-0.1-3.4-1.7-4.8-2.6l0-0.5
			c0.1,0.6,5.4,2,5.7,1.4c-0.2,0-2.4-1.5-3-3c-0.8-1.7-1.5-4-1.5-4c-0.3,0.9-0.2,2.1-1,2.5c-0.2-2.8-4.2-1.4-2.3,1.4
			c-1.1,0.3-2.1,0.9-3.2,1.4c2.3,3.1,5.4,5.1,8.7,6.4c-0.4,0.9-3,3-0.9,5.5c0.1,0.1-2,2.4-3.1,4.2c-0.8,1.4-0.5,2.4-0.5,2.4
			c2.9-3.3,4.5-6.1,4.5-6.1c0,0.4,3.4,0.2,3.3-2.9c0.1-0.8,0.2-1.7,0.5-2.5c5.2,0.2,9.7-1.6,13.5-5.5c0,0,0.8,0.2,1.3,0.3
			c1.3,0,2.1-0.7,2.7-1.3c0.6-0.5,1.1-0.9,1.3-1.4c0.7-3.2-2.5-2-2.7-1.8c-1.9-2.5-3.5-9.8-3.7-9.9C48.6,17.8,45,16.4,43.6,16.4
			L43.6,16.4z M30.8,21.3c-0.1,0-0.6,2.3-1.1,2.2c-1.9-1.2-1.9,1.3-0.3,1.2C30.7,24.7,31.5,22.5,30.8,21.3L30.8,21.3L30.8,21.3z
			 M10.6,25.6c0.1,13.6,0.3,27.3,0.6,40.9c1.2-0.3,2.1-0.5,3.3,0c0.1-3.9-0.2-13.6-0.1-23.1c4.6-3.6,7.8-7.5,10.1-12.7l-7,3.3
			c0,0-2.3,3.3-3,3.5c-0.1-0.5-0.2-6-0.1-8.4L10.6,25.6z M26.2,34l-1.4,2c0,0,0,6.9,0.1,10.2c0.1,0.7,0.7,1.3,0.2,1.9
			c0.3,0,1.6,8.9,0.4,12.5c-0.2,0.6,0,1.1,0.3,1.3c1.7,1.9,2.7,3.8,5,2.7c2.5-2.3,6-6.3,6-6.3l-9.3-8.8C26.7,47.2,26.2,34,26.2,34z
			 M60.3,62.7c-4.2,3.8-8.1,7.7-9.7,12.4c2.3-0.9,4.4-2,6.6-3.1c1.1-1.3,1.9-2.5,3.1-3.8c0,0,0.1,5.6,0,8.4c1.1,0.8,3.7,3.4,3.7,3.4
			c0,0,0.7-39.7-0.8-40.7c-1.5,0.3-2.3,0.8-2.8-0.9C60,46.5,60.3,62.7,60.3,62.7L60.3,62.7z M45.6,40.3c-1.6,1.3-7.2,6.8-7.2,6.9
			c1.5,2.5,7.4,7.5,10.2,10.3l0.4,14.3c0.4-0.6,0.7-1.1,1.2-1.6c0,0-0.1-7.2-0.2-10.6c-0.1-1-0.3-1.8-0.2-1.9c-0.8-4.1-1.1-8.6,0-13
			C47,42.3,46.1,40.8,45.6,40.3L45.6,40.3z M46,56.6L46,56.6c-1.4,2-4,6.2-4.2,6.2c-0.1-0.1-2.7,0-3.2,1.7c-0.4,1.3-0.5,2.4-0.8,3.7
			c-5.3-0.2-9.3,1.5-13.4,5.3c-2,0-3.5,0.5-4.2,1.3c-1,0.8-1.3,1.4-1.3,2.2c0.1,1.4,2.6,1.6,2.8,0.6c0.1,0,2.5,5.4,2.7,6.3
			c0.6,1.5,1.1,4.3,1.2,4.3c0.9,0.1,6.3,1.6,6.3,1c0.5-0.2-1.8-7.9-1.8-7.9c4.1-3.5-0.4-7.1-1.5-7c2.3-1.7,5-2.8,8-2.9
			c0.5,1.6,2.6,2.5,3.7,0.3c0,0,4.6,1.6,4.6,2.2c-1.9-0.3-3.5-0.4-5.3-0.6c3.6,2,3.7,4.6,4.5,7.2C44,80,45,78,45,78
			c1.2,2.7,3.6,0.8,2.6-1.4l2.9-1.4c0.3-0.2-4.4-5.5-8.6-6.2c0.2-0.4,0.3-0.8,0.5-1.1c1.1-1.1,1.9-2.6,0.3-4.4
			c1.1-1.5,3.6-5.2,3.4-5.2C46.1,58.3,46.2,56.6,46,56.6L46,56.6z M10.9,73.5c0,0-0.1,12.7,0,19c-0.1,0.3-0.2,1.7-0.2,1.7l3.9-3.7
			l0.1-4.7c1-0.2,7.3,3,6.8,3c0.5-0.2-2.9-6.6-6.9-7.4c-0.1-3.6-0.1-7.8-0.2-8.9C13.1,72.6,10.9,73.5,10.9,73.5z M45.4,81.1
			c-1.1,0.3-1.5,2.6-1.2,3.7c0.1,0.2,0,0.3,0.2,0c0.4-0.6,0.3-1.9,1-2.5C47.5,82.9,47.3,80.3,45.4,81.1z"/>
		<path class="st7" d="M20.2,96l5.1-7.8c6.1,2.1,12.4,2.1,18.8,1.1l5.7,6.7h-2.3l-3.6-5.1c-1.3,0.3-2.6,0.4-4,0.6l1.7,4.5h-1.8
			l-1.3-4.4c-3.1,0.1-5.2-0.2-7.3-0.4L30.4,96h-1.8l1.2-5c-1.5-0.3-2.9-0.5-4.1-0.9L21.9,96H20.2z M26.1,91.4l2.1,0.6l-1,4h-3.9
			L26.1,91.4z M31.7,96l0.6-3.5c1.4,0.3,3.3,0.3,5.3,0.3l0.9,3.2H31.7z M41.8,92.7l1.7-0.4L46,96h-3.1L41.8,92.7z M17.2,70.2
			c8.2-9.6,7.1-19.6,2.6-27.8l1-1c5.3,8.7,6.4,21-3.3,30.5C17.3,71.4,17.2,70.2,17.2,70.2z M50,59.5c1.2,2,1.9,4.1,3.2,6.1l-3,4
			L50,59.5z M14.6,65.8c-0.1-6.3,0-19.1,0-19.1l2.8-2.1c3.3,4,5.1,14.7-0.8,21.8C16.1,66,14.9,66.1,14.6,65.8L14.6,65.8z M54,64.5
			c-7.6-12.9-3.7-22.3,3.6-30.6c0,0.6,0,1.3,0.1,1.9c-6.3,7.2-8.8,17.9-2.6,27.6L54,64.5z M40.2,62.7l3.5-4.7c0,0,0.7-1.9,1.2-2.4
			l0.6-0.6c0.2,0.2,0.6,0.6,0.6,0.6L45.8,57c-1.3,2-2.6,4-4.1,5.9C41.7,63,40.5,62.7,40.2,62.7z M58.6,39.7c0.1-0.1,1.5,0.5,1.5,0.5
			l0.1,19.4l-2.8,1.8C56.7,61.8,50.4,49,58.6,39.7L58.6,39.7z M29.6,47.9c1.3-1.7,2.6-3.2,3.8-4.8c0.3,0.1,1.1,0.1,1.1,0.1
			c0.1,0-0.3,1.3-1.2,2.2c-2.5,3-3,3.5-3.1,4.7c0,0.4-0.9,0.8-0.9,0.8l-0.6-0.7C28.9,49.4,29.2,48.6,29.6,47.9L29.6,47.9z
			 M21.8,40.4l2.8-3.7l0.2,9.7L21.8,40.4z M30.8,16.2l-5.5-6.8H28l3.3,4.8l3.9-0.4l-1.4-4.4h1.6l1.1,4.3c2.4,0.1,4.7,0.2,7,0.5
			l1.2-4.8h1.6l-1.5,5l4.4,1.2l3.9-6.2h1.9l-5.6,8C42.3,15.2,36.5,15.4,30.8,16.2L30.8,16.2z M46.6,13.4l1.2-4l3.7,0L48.7,14
			L46.6,13.4z M37.6,12.4l-0.8-3h6.6l-0.8,3.4C40.8,12.5,39.2,12.4,37.6,12.4L37.6,12.4z M29.7,9.4h2.6l1,3.1l-1.5,0.2L29.7,9.4z"/>
		<path class="st3" d="M24.5,9l6.3,7.6c1.3-0.5,8-1.2,12-0.3c0.7,2.7,1.4,5.5,2.2,8c0,0-0.2,0.3-0.4,0.5c-2.5,2.9-0.7,5.8,1.6,6.7
			c-0.4,0.9-4.9,3.1-7.6,2.8c0,0-0.8-2-2.5-1.3c-0.6,0.2-0.8,0.7-1.3,1.1c-1.6-0.5-3.8-1.6-4.9-2.7c2.1,1,4.1,1.6,6.2,1.3
			c0,0-0.3-0.2-0.5-0.3c-0.2-0.1-0.6-0.3-0.9-0.6c-1-0.6-1.6-1.4-2.3-2.8c-0.8-1.4-0.9-2.8-1.3-4.1c-0.2,0.7-0.3,2.4-0.9,2.8
			c-0.1,0.1-0.2,0.1-0.3-0.3c-0.4-1.3-2-1.2-2.6-0.2c-0.3,0.8-0.2,1.2,0.1,1.9l-1,0.5v0.2l-0.6,0.3l-0.1-0.1c-2.8,1.3-5.5,2.7-8.3,4
			c0,0-1.5,2.5-2.9,3.5l-0.1-8.5l-4.1-3.7l0,2c0,0,0.2,0.2,0.3,0.3c0.1,14.2,0,28.2,0,41.1l0,11.9l-0.2,0l0,1.4l0.3,0.1l0,2l-0.1,0
			l0,1.2l0.2,0l0,7l-0.2,0.3l0,2l4.3-4.1l0.1-4.6c3.4,0.6,6.9,3.1,6.9,3.1c-0.6-3.9-4.7-7-7-7.7l0-9.1c0,0-1.7,0.7-2.6,0.8
			c-0.4,0.1-0.6,0-0.8-0.3c-0.1-0.2-0.2-0.4,0-0.9c0.1-0.2,0.1-0.3,0-0.5c-0.1-0.3-0.1-0.4,0-1c0.1-0.3,0.1-0.5-0.1-0.8
			c-0.1-0.3-0.1-0.4-0.1-0.6c0.1-0.5,0.2-0.6,0.1-0.8c-0.1-0.4-0.2-0.7,0-1c0.6-1.1,2-0.8,2.8-0.8c0.4,0.4,0.6,0.7,0.7,0
			c0.3-0.7,1.3,0,1.8,0.3c4.2-5.6,6.2-13.2,1-22.7l-2.9,2.3l0-2.9c3.9-2.5,8.2-8.1,10.1-12.6c0.6,0.7,1.3,1.5,2,2.2l-0.4,0.7
			l-0.1-0.1c-1.2,2.3-4.5,6.6-4.5,6.6c1.2,2.2,2.3,4.5,3.2,6.8l0.2-0.1l0.2,0.7l-0.4,0.1c1.4,4.7,1.5,9,0.4,13l0.3,1.1
			c0,0,1.5,1.5,1.9,1.9c1.1,1,2.2,2.2,2.2,2.2l1.4-1.4l-0.1-0.1l12.1-12l0.8,0.7c-7.4,7.5-20.2,20.3-20.2,20.3l-0.4,0.1
			c-0.3,0-0.6,0.1-0.9,0c-0.4,0-0.4,0-0.8,0.1c-0.4,0.2-0.6,0.4-1,0.9c-0.2,0.2-0.3,0.3-0.5,0.4c-2.5,1.5-0.2,4.5,1.9,2.9
			c1.6,3,2.9,6.5,3.6,10L25.1,88l-5.6,8.4h2.2l0.2-0.4h-1.6l5.2-7.5c6.6,1.8,12.7,2.1,18.8,1l5.4,6.5h-2.1l0.3,0.4l2.7,0L44.3,89
			c-2.3,0.6-8.2,1.1-11.9,0.5c-0.6-2.8-1.5-5.8-2.2-8.2c3.6-2.8,0.9-6.5-1.3-7c-0.1-0.2,4.5-3,7.7-2.8c0.9,2.2,3,1.9,3.7,0.2
			c1.3,0.5,3.1,1,4.5,2.1c-1.8-0.4-4-0.6-5.8-0.7c3.4,1.3,4.3,4.1,4.7,6.6c0.1,0.4,0.3,1,0.3,1c0.3-0.9,0.5-1.9,1.1-2.7
			c0.3,0.9,1.2,1.6,2.2,1.1c0.6-0.4,0.8-1.1,0.6-2.1c0-0.3-0.1-0.4-0.1-0.4l0.7-0.4l0.1,0.1c0,0,0.8-0.3,1.2-0.5l-0.1-0.2l7.5-3.6
			c0,0,1.9-2.7,3-3.7c0,3.2,0,4.5,0,8.2l0.4,0.4c0.4,0.4,1.2,1.1,3.1,2.8c0.4,0.4,0.7,0.6,0.7,0.6l-0.1-55.3h-0.1v-1.1l0.1,0v-2.8
			l-0.1,0v-0.9l0.1-0.1l0-7.5l-0.1,0l0-1.8l-4.2,4.5l0,4.2c-1.9-0.2-4.2-1.4-5.8-2.4c-0.5-0.3-0.8-0.4-0.8-0.2
			c0.2,2.5,3.8,6.3,6.6,7.3l0,9.4c0,0,0.7-0.3,1.1-0.5l0.1,0.2l0.9-0.4l0.1-0.2l0.8-0.1c0,0.2,0,0.1,0,0.1c0.7,0.2,1,0.7,0.7,1.2
			c-0.1,0.2-0.1,0.4,0,0.5c0.3,0.5,0.4,0.9,0,1.3c-0.1,0.2-0.1,0.4,0,0.6c0.4,0.8,0.2,0.7-0.1,1.2c-0.1,0.3,0.3,0.6,0.2,0.9
			c-0.1,0.2-0.3,0.5-0.4,0.6c-0.2,0.1-0.3-0.1-0.3-0.1s-0.6,0.2-1,0.3c-0.4,0.1-1.1,0.4-1.3-0.2c-0.1-0.3,0-0.6,0-0.9l-0.6-0.1
			l0,1.6c-0.3,0.2-1.7-0.5-1.7-0.5c-5.7,7.4-5.5,15.5-1.3,22.4c0,0.1,3-2,3-2s0,1.7,0,2.7c-3.7,3.1-7.3,7.2-9.9,12.3l-1.6-1.9
			c0.3-0.2,0.3-0.6,0.3-0.9l1.2-1.7l0-0.4l3-4.2c0,0.3-3.1-5.6-3.5-7.6l0.2-0.1c-1.4-5.3-1.1-9.1-0.1-13.4l-0.3-0.3l-4-4
			c-0.3,0.3-0.6,0.6-1,0.9l-0.3,0.1c-2.1,2-4.1,3.9-6.1,6l0,0.3c-2,2-4,4-6.1,6l-0.7-0.7c7.1-7.1,20.5-20.4,20.5-20.4
			s0.1-0.1,0.2-0.1c0.4,0,0.7-0.1,1.1-0.2c0.4-0.1,0.5-0.1,0.7-0.3c0.1-0.1,0.3-0.3,0.4-0.4c0.2-0.1,0.6-0.5,1.3-1.1
			c0.4-0.4,0.7-0.9,0.7-1.4c0-0.9-0.6-1.6-1.3-1.7c-0.3,0-0.9,0.1-1.2,0.3c-0.2,0.2-0.3,0.2-0.4,0.2c-1.5-2.9-2.9-6.7-3.5-9.7
			c0-0.2,0-0.3,0.1-0.5c0.1-0.2,0.3-0.5,0.5-0.7c1.8-2.8,3.7-5.2,5.2-7.8h-2.2l-0.3,0.4H55l-5.5,7.9C39.5,14,31.2,16.1,31,16.1
			l-5.5-6.7H28L27.7,9L24.5,9z M29.4,9l0.3,0.4h2.6L32.2,9H29.4z M33.8,9.4h1.6L35.3,9h-1.7L33.8,9.4z M36.7,9l0.1,0.4h6.6L43.5,9
			H36.7z M44.7,9.4h1.6L46.5,9h-1.7L44.7,9.4z M48,9l-0.1,0.4h3.7L51.8,9H48z M63.9,12l0.1,1.2l-2.7,2.8l0,4l-0.8-0.2l0-4.1L63.9,12
			z M63.2,14.6c0,1.2-0.2,2.4,0.1,3.6c0.2,0.6,0.5,1.3,0.5,2l-0.9,0c-0.1-0.4-0.2-0.8-0.3-1.2c-0.3-1.1-0.6-2.3-0.4-3.4L63.2,14.6z
			 M43.8,16.6c0,0.1,0.1,0.6,0.2,1c0.5,2.6,1.1,4.6,1.7,6.5c0.8,2.5,2,5.6,3.2,7.1c0.2,0.2,0.2,0.4,0.2,0.5
			c-0.1,0.2-0.6-0.1-0.9-0.4c-0.1-0.1-0.4-0.5-0.6-0.9c-0.4-0.8-1-1.9-1-2c0-0.1-0.2-0.6-0.5-1.2c-0.4-1-0.7-1.8-1-2.9
			c-0.3-0.9-0.5-1.9-0.8-2.9c-0.5-1.6-0.8-2.9-1.1-4.3c0-0.2-0.1-0.5-0.1-0.5C43.3,16.4,43.7,16.5,43.8,16.6z M44.1,16.7
			c-0.1,0,0.5-0.1,0.6,0.1c0,0,0.1,0.4,0.2,0.7c0.5,2.4,1.2,4.9,2,7.2c0.6,1.9,1.4,3.7,2.2,5.2c0.3,0.5,0.7,1,1.1,1.6
			c0.3,0.3,0.3,0.4,0.2,0.4c-0.1,0.1-0.2,0.1-0.5,0c-0.3-0.1-0.6-0.4-0.9-0.8c-0.1-0.1-0.2-0.3-0.3-0.5c-1.3-2.3-2.1-4.4-2.8-6.6
			c-0.7-2.2-1.4-4.5-1.8-7.1L44.1,16.7L44.1,16.7z M45.7,17c0.1,0.1,0.2,0.3,0.3,0.8c0.5,2.2,1,4.2,1.6,6c0.3,1,0.6,2,1,2.9
			c0.6,1.5,1.3,2.8,2.2,4c0.3,0.4,0.8,0.8,1.3,1.1c0.3,0.2,0.4,0.2,0.3,0.3c0,0.1-0.3,0.1-0.4,0.1c-0.5-0.1-1.2-0.5-1.4-0.7
			c-1.5-1.6-2.6-4.3-3.3-6.4c-1.3-3.7-2.4-8.4-2.2-8.2C45,16.8,45.6,16.9,45.7,17L45.7,17z M46.4,17.2l0.2,0
			c0.3,0.1,0.3,0.1,0.4,0.4c0.5,2.1,1,4,1.5,5.8c0.6,1.8,1.2,3.5,2.1,5.3c0.7,1.3,1.5,2.2,2.4,2.7c0.3,0.1,0.5,0.3,0.5,0.3l0,0.2
			c0,0.1-0.1,0.1-0.3,0.1c-0.4,0-0.7-0.1-1.2-0.4c-1.2-0.8-2.2-2.6-2.6-3.7c-0.6-1.3-1.1-2.6-1.5-4c-0.8-2.6-1.3-4.3-1.7-6.5
			C46.1,17.2,46.2,17.2,46.4,17.2L46.4,17.2z M63.9,20.7l0,0.8c-3,0.2-6-1.1-8.4-2.2c1.8,2.4,3.8,4.6,8.4,5l0,0.8
			c-6-0.1-10.3-6.2-10-7.7C56.4,18.9,60.8,20.8,63.9,20.7L63.9,20.7z M47.3,17.5c0.1,0,0.3,0.1,0.4,0.1c0.5,1.8,0.9,3.9,1.7,5.9
			c1,2.5,1.6,4.7,3.4,6.8c0.6,0.6,1.7,0.6,1.7,0.6s-0.1,0.3-0.3,0.4c-0.4,0.1-0.7,0.1-1,0c-1.1-0.5-1.9-1.6-2.3-2.4
			c-0.4-0.6-1.4-3-2.2-5.4c-0.9-2.7-1.6-5.4-1.5-6L47.3,17.5z M48.3,17.8c0.1,0,0.2,0,0.3,0.1c0.1,0.1,0.2,0.1,0.2,0.3
			c0,0.1,0,0.4,0.1,0.8c0.4,1.9,1,3.5,1.6,5c0.5,1.4,1.1,2.9,1.8,4.1c0.4,0.6,0.7,1.2,1,1.5c0.6,0.6,1.7,0.7,2,0
			c0.2-0.4,0.1-0.9-0.2-1.2c-0.3-0.3-0.9-0.1-0.9,0.2c0,0.1,0.1,0,0.4,0c0.6-0.1,0.8,1,0,1.2c-1,0.2-1.7-1.1-0.8-1.9
			c1.5-1,2.6,0.4,2.2,1.7c-0.3,0.8-0.9,1.2-1.6,1.2c-1,0-1.4-0.3-2.3-1.7c-1.1-1.8-1.6-3.6-2.4-5.5c-0.7-1.9-1.2-3.9-1.5-5.6
			L48.3,17.8L48.3,17.8z M49.2,18.1l0.3,0.1l0.1,0.1c1.3,4.8,2.4,7.7,3.5,9.7c0,0,0,0.4-0.1,0.5c-0.1,0.2-0.2,0.1-0.4-0.2
			c-0.7-1.4-1.4-2.9-2-4.4c-0.7-1.8-1.4-3.7-1.7-5.5C49.1,18.2,49.1,18.1,49.2,18.1L49.2,18.1z M58.1,20.8c0.2,0,0.3,0.2,0.3,0.3
			c0,0.2-0.2,0.3-0.3,0.3s-0.3-0.2-0.3-0.3C57.8,21,57.9,20.8,58.1,20.8z M30.7,20.8c-0.4,0.5-0.7,2.4-1.1,2.5c-0.4,0-1-0.3-1.3,0.1
			c-0.4,0.5-0.2,1,0.4,1.3c0.2,0.1,0.8,0.1,1.1,0.1C31,24.3,31.5,22.3,30.7,20.8L30.7,20.8z M59.4,21.3c0.3,0,0.5,0.2,0.5,0.5
			s-0.2,0.5-0.5,0.5c-0.3,0-0.5-0.2-0.5-0.5S59.1,21.3,59.4,21.3z M30.8,21.5c0.4,1.1,0,2.4-0.6,2.9c-0.5,0.4-1.3,0.5-1.7,0.1
			c-0.4-0.3-0.2-1.2,0.5-1.1c0.2,0,0.5,0.2,0.7,0.4C30.1,23.8,30.6,21.5,30.8,21.5L30.8,21.5z M61.1,21.8c0.3,0,0.6,0.2,0.6,0.6
			c0,0.3-0.2,0.6-0.6,0.6c-0.3,0-0.6-0.2-0.6-0.6C60.6,22,60.8,21.8,61.1,21.8z M63.1,22.2c0.3,0,0.6,0.3,0.6,0.6s-0.3,0.6-0.6,0.6
			c-0.3,0-0.6-0.3-0.6-0.6S62.7,22.2,63.1,22.2z M44.9,24.7c0.1,0,0.1,0.1,0.2,0.2c0.1,0.3,0.1,0.4-0.1,0.6
			c-1.7,2.4-0.2,4.8,2.3,5.1c0.2,0,0.3,0.3,0.4,0.5c0,0.1,0,0.1-0.6,0.1c-0.4,0-0.7,0-0.9-0.1c-0.9-0.2-2-1-2.4-1.8
			c-0.5-0.8-0.6-1.7-0.3-2.9c0.2-0.7,0.5-1.2,0.8-1.7C44.7,24.8,44.8,24.7,44.9,24.7z M61.3,25l0,8.2l-0.9,0.3l0-8.7L61.3,25z
			 M62.9,25.3c1.1,2.7,1.1,5.2,0.2,7.4l-1,0.1c1.4-3.2,0.8-5.5,0-7.7L62.9,25.3z M10.7,25.8l3.5,3.3l0.1,37.2l-0.6-0.2l-0.2-36.6
			l-2.9-2.6L10.7,25.8z M45.3,25.9L45.3,25.9c0.1,0,0.2,0.1,0.3,0.4c0.1,0.3,0.1,0.3,0,0.5c-0.5,1.2-0.1,2.3,1.1,2.7
			c0.3,0.1,0.3,0.1,0.5,0.5c0.1,0.2,0.2,0.3,0.1,0.4c-0.1,0-0.2,0.1-0.7,0c-1.8-0.6-2.4-2.6-1.6-4.1C45.1,26,45.2,25.9,45.3,25.9
			L45.3,25.9L45.3,25.9z M31.1,25.7c0,0,0.4,1.3,0.3,1.6c-0.1,0.6-0.9,1.5-1.6,1.8c-0.7,0.3-1.7,0.1-2.1-0.3c-1.5-1.8,1.3-3.6,2-1.7
			c0.4,1.2-1.3,1.5-1.4,0.6c0-0.2,0.1-0.3,0.3-0.5c0.2-0.1,0.2-0.3,0-0.3c-0.7,0.2-0.7,0.9-0.4,1.2c0.6,0.6,1.3,0.3,1.8-0.2
			C30.8,27.4,30.9,26.5,31.1,25.7L31.1,25.7z M45.8,27.1c0,0,0.7,1.7,0.8,1.9c0,0.2-0.2,0.2-0.5-0.1c-0.3-0.2-0.4-0.4-0.5-0.9
			C45.5,27.8,45.5,27.2,45.8,27.1z M31.6,27.8c0.2,0,0.3,0.6,0.2,0.9c-0.1,0.5-1.4,1.4-2.4,1.5c-0.2,0-0.4,0.1-0.4,0.1
			c-0.2,0-0.4-0.1-0.6-0.3c-0.2-0.2-0.2-0.3-0.2-0.4c0,0,0.5,0,0.8,0c1,0,1.8-0.7,2.4-1.6C31.5,27.9,31.6,27.8,31.6,27.8L31.6,27.8z
			 M11.7,28.2c0,0,0.7,0.6,1,1c0,1.6-0.6,3.4-0.6,4.9c0,1.3,0.8,2.3,0.9,3.4c0,0.7-0.2,1.8-0.5,2.6c-0.3,0.8-0.5,1.6-0.5,2.3
			c0,1.8,1.3,3.8,0.9,5.6c-0.4,1.7-0.9,2.7-0.8,3.6c0.2,1.7,1.2,3.3,0.9,4.7c-0.2,1.3-0.8,2.7-0.8,3.9c0.1,1.4,0.6,2.6,0.7,3.8
			c0.1,0.8-0.1,2.1-0.1,2.1l-1,0.1c0.5-2-0.3-3.7-0.6-5.6c-0.3-1.6,0.5-2.9,0.7-4.2c0.1-0.8,0-1.7-0.4-2.7c-0.8-2-0.5-3.3,0.1-5
			c0.7-1.8-0.3-3.3-0.5-5.1c-0.1-1.5,0-2.6,0.5-4c0.4-1.3,0.5-2.1-0.1-3.3c-0.4-0.8-0.5-1.3-0.5-2.3C11.2,31.8,11.8,30.6,11.7,28.2
			L11.7,28.2z M32.1,29c0.1,0,0.2,0.1,0.2,0.3c0,0.4-0.6,0.9-1.6,1.4c-0.5,0.2-0.8,0.3-1.1,0.1c-0.3-0.1-0.3-0.3,0-0.3
			c0.8-0.2,1.4-0.6,2-1.1C31.8,29.2,32,29,32.1,29L32.1,29z M27.5,29.3c2.6,2.8,5.2,4.3,7.2,4.9L34.3,35c-2.6-1-5.2-2.4-7.5-5.4
			L27.5,29.3z M32.5,29.8c0.1,0,0.3,0.3,0.3,0.4c0,0.1-0.1,0.2-0.2,0.4c-0.2,0.2-0.3,0.3-0.8,0.6c-0.6,0.3-0.9,0.4-1.2,0.3
			c-0.3-0.1-0.2-0.2,0.5-0.6c0.3-0.2,0.8-0.5,1-0.7C32.3,29.9,32.5,29.8,32.5,29.8z M25.6,30.2c2.1,2.9,4.9,4.9,8.2,5.9l-0.5,0.7
			c-3-1-5.9-2.9-8.5-6.2L25.6,30.2z M33.1,30.5c0.1,0,0.4,0.3,0.4,0.4l-0.1,0.2c-0.1,0.1-0.7,0.6-1,0.7c-0.2,0.1-0.4,0.1-0.6,0
			c-0.3-0.1-0.2-0.2,0.2-0.5c0.2-0.1,0.5-0.4,0.7-0.5C32.9,30.7,33.1,30.5,33.1,30.5L33.1,30.5z M24.5,30.7
			c-0.1,0.1-3.2,7.2-9.7,12.2l0-1.2C18.3,38.9,21,35,23,31.5L24.5,30.7z M33.7,31.3c0.1,0,0.2,0.1,0.2,0.2c0.1,0.2,0,0.3-0.4,0.6
			c-0.2,0.2-0.3,0.2-0.5,0.2c-0.5,0-0.5-0.1,0.1-0.6C33.4,31.4,33.6,31.3,33.7,31.3L33.7,31.3z M46.4,31.6l1.4,0.1
			c0.4,0.3-5.4,4-9.3,3.7l0.1-0.9C42.1,34.6,46.5,31.8,46.4,31.6z M34.7,32c0.3,0.2,0.7,0.4,0.6,0.5c-0.1,0.1-1.1,0-1.3-0.1
			c-0.2-0.1-0.2-0.1,0.1-0.4C34.3,31.6,34.4,31.8,34.7,32z M22.4,31.7c-2.2,3.8-4.8,7.3-7.8,9.6l0-2c2.8-2.2,5-6.2,5-6.2L22.4,31.7z
			 M49.6,32l0.7,0.4c-4.1,3.8-8.6,5.5-12.9,5.1l0.3-0.8C44.7,37.2,49.4,32.1,49.6,32L49.6,32z M50.7,32.1l0.2,0
			c-1.4,1.3-3.3,2.8-4.5,3.6c-5.9,6-10.9,10.8-16,16.1L29.6,51l0.7-0.8c0-1.5,1.9-3.3,3-4.6c0.5-0.5,1.3-1.9,1.2-2.5
			c0-0.1,0-0.2,0-0.2c1.8-0.4,2.2-1.8,2.2-3.1c0.1-0.9,0.2-1.6,0.5-2.3C45.3,38.2,50.4,32.3,50.7,32.1z M36.7,33
			c0.9,0,1.6,0.7,1.6,1.7c0,0.4-0.2,0.8-0.7,1.9c-0.6,1-0.6,1.6-0.9,2.7l-0.6-0.5l-1,0.9l0-1.4c0,0,0.4-0.5,0.9-1.1
			c0.7-0.8,1.4-1.9,1.4-2.5c0-0.6-0.6-1.1-1.3-0.7c-0.6,0.4-0.8,1.1-1.1,3.2c-0.1,0.4-0.1,0.8-0.1,0.9c-0.1,0.3-0.9,1-0.9,1
			l-0.4-1.5l-0.8,0.1c0.9-1,1.7-2.2,2.1-3.5C35.3,33.5,35.9,33,36.7,33L36.7,33z M19.1,33.3c0,0-1.6,3.3-4.4,5.5l0-1.3
			c1.6-1.3,2.9-3.5,2.9-3.5L19.1,33.3z M57.8,33.4c-5.6,5.8-12.9,16.5-3.8,31.4l1.2-1.4c-7.3-13.5-2.1-20.6,2.7-27.6L57.8,33.4z
			 M27.6,33.9c1.6,1.2,3.3,2.3,5.5,3.1c-0.1,0.4-3.1,3-1,5.3c0.1,0.1-0.1,0.4-0.5,0.9c-1,1.4-2.1,2.4-2.9,4l0,3l-0.9-0.8L27.6,33.9z
			 M57.6,34.2l0,1.7C49.3,46,50.3,55.1,55,63.5l-0.9,0.9C46.4,51.1,51.2,41.1,57.6,34.2L57.6,34.2z M37.1,35.2c-0.4,1-2,2.6-2,2.6
			s0.2-1.6,0.3-2.1c0.1-0.4,0.3-0.9,0.6-1.2C36.7,33.8,37.4,34.6,37.1,35.2z M26.1,34.3l0.2,13.5l-1.2-1.2l-0.2-10.3L26.1,34.3z
			 M24.6,36.9l0.2,9.2c-1.2-2.8-2.8-5.8-2.8-5.7C22,40.4,23.3,38.6,24.6,36.9z M33.8,39.8c0,0,0.2-0.1,0.5-0.5
			c0.6-0.6,0.7-0.6,0.6,0.2c0,0.3,0,0.7,0,0.7c0.4-0.2,1.2-1.2,1.4-1c0.2,0.2,0.3,0.5,0.3,1.1c0,1.1-0.6,2.1-1.6,2.4
			c-2.7,0.8-4.5-2.3-2.6-4.2c0.2-0.2,0.7-0.6,1-0.5C33.6,38.6,33.6,39.2,33.8,39.8L33.8,39.8z M60.4,38.8c0.2,0.4,0.4,0.9,0.9,1
			c-0.1,13.2,0,36.4,0,36.4l2.6,2.5l0,1.1l-3.5-3.2C60.4,76.7,60.2,49.2,60.4,38.8z M63,39.4c0.1,1.3-0.1,2.6,0.1,3.9
			c0.2,0.9,0.5,1.7,0.6,2.6c0,0.8,0,1.3-0.4,2.4c-0.2,0.8-0.3,0.9-0.3,1.7c-0.1,1.1,0.2,2.1,0.5,3c0.4,1.2,0.3,2.6-0.3,4.4
			c-0.2,0.7-0.2,1-0.2,1.6c0.1,1.3,0.5,2.5,0.8,3.7c0.1,0.7,0,1.7-0.4,3.2c-0.2,0.6-0.3,1.6-0.3,2c0,0.4,0.1,1.2,0.3,1.5
			c0.6,1.6,0.6,1.9,0.7,2.9c0,0.7-0.2,1.5-0.5,2.1c-0.4,1-0.1,2.1,0,3.2l-1.1-0.9c-0.3-1-0.2-1.9,0.1-2.6c0.4-1.1,0.5-1.3,0.5-1.9
			c0-0.9-0.5-1.9-0.7-2.5c-0.4-1.1-0.4-2.2,0-3.3c0.2-0.6,0.4-1.7,0.5-2.1c0.1-0.9,0-1.6-0.4-3.3c-0.2-0.8-0.3-1.2-0.3-2
			c0-0.8,0.1-1.6,0.4-2.5c0.4-1.5,0.4-2.4-0.1-3.8c-0.4-1.2-0.5-1.9-0.4-2.8c0.1-0.5,0.2-1,0.4-1.5c0.5-1.1,0.5-2.2,0.2-3.3
			C62,42.8,62,41.7,62,39.7L63,39.4z M60.1,40.2c-0.1,9,0,19.3,0,19.3s-2.7,1.9-2.7,1.8c-3.4-5.7-4.7-14,1.3-21.6
			C58.7,39.7,59.7,40.1,60.1,40.2L60.1,40.2z M19.6,42.3C24.4,51.4,25,60.6,17,70c0.3,0.8,0.2,1.6,0.1,2.4
			c1.6-1.2,14.1-13.8,3.5-31.3L19.6,42.3z M44.3,41.6l2.4,0.1l0.2,2.1l-0.8,0.8c0,0,0-0.4,0-0.8c0-0.5-0.1-0.9-0.1-0.9
			c0,0-0.1,0.6-0.1,1.1l0,0.9l-0.3,0.3c-0.4,0.4-0.4,0.3-0.4-0.2c0-1.1,0-1.2-0.1-1.1c0,0-0.1,0.4-0.1,1c0,0.4,0,0.9-0.1,1
			c-0.1,0.2-0.5,0.6-0.6,0.6c-0.1,0-0.1-0.2-0.1-0.8c0-0.6-0.1-0.9-0.2-0.7c0,0-0.1,0.6-0.1,1.1c0,0.5,0,0.9-0.1,0.9
			c-0.1,0.2-0.6,0.6-0.7,0.6c-0.1,0-0.1-0.4-0.1-1c0-0.3,0-0.5-0.1-0.6c-0.1-0.1-0.1,0.2-0.1,1.1l0,0.9l-0.3,0.3
			c-0.5,0.5-0.5,0.5-0.5-0.4c0-0.7,0-1-0.1-0.9c-0.1,0.1-0.1,0.4-0.1,1c0,0.6,0,0.9,0,1c0,0.1-0.2,0.2-0.3,0.4
			c-0.2,0.2-0.3,0.4-0.4,0.4c0-0.7-0.1-2.2-0.1-2.2l-2.5-0.1c0,0,0.5-0.6,0.7-0.7c0.1-0.1,0.3-0.1,0.9,0c0.4,0,1,0,1,0
			c0.2-0.1-0.2-0.1-0.8-0.2c-0.4,0-0.5,0-0.9-0.1l0.4-0.4l0.3-0.3l0.8,0c0.5,0,0.8,0,0.9,0c0.5-0.1,0-0.2-0.5-0.2
			c-0.5,0-0.8,0-0.8-0.1c0-0.1,0.6-0.6,0.8-0.7c0.1,0,0.5,0,0.9,0c0.7,0,1,0,1-0.1c0-0.1-0.5-0.1-0.9-0.1c-0.9,0-1,0-0.3-0.6
			l0.3-0.3l0.6,0c0.9,0,1.3,0,1.3-0.1c0-0.1-0.6-0.1-1-0.1c-0.3,0-0.5,0-0.5,0c0.2-0.3,0.4-0.5,0.7-0.8l0.8,0c0.6,0,0.9,0,0.9-0.1
			c0-0.1-0.2-0.1-0.5-0.1c-0.4,0-0.8,0-0.8-0.1c-0.1-0.1,0.1-0.2,0.3-0.4L44.3,41.6L44.3,41.6z M20.7,41.6
			c6.7,10.9,4.3,22.7-3.2,30.1l-0.2-1.4c7-8.6,8.3-17.4,2.6-27.8L20.7,41.6z M33.1,43.1c-1.2,1.8-3,3.6-3.7,5.1
			c-0.1,0.2-0.2,0.5-0.4,0.6c-0.1,0-0.1-0.2-0.1-0.7c0-0.4,0.1-0.5,0.2-0.8c0.9-1.7,2-3,3.3-4.6L33.1,43.1z M33.4,43.2l1.1,0.1
			c-0.2,0.8-0.6,1.3-1,1.9c-0.5,0.7-1.1,1.3-1.8,2.1c-1,1.2-1.5,2.4-1.5,2.9c-0.3,0.3-0.4,0.5-0.8,0.7l-0.6-0.6
			C29.3,47.8,31.6,45.6,33.4,43.2L33.4,43.2z M46.9,44.2l0.4,0c1.2,0.1,2,0.1,2,0.2c0,0,0.1,0.2,0.1,0.4c0,0.3,0,0.5-0.2,1.2
			C49.2,46.6,49,47,49,47c-0.1,0.1-0.2,0-0.3-0.7c0-0.4-0.1-0.7-0.1-0.7c0,0-0.1,0.4-0.1,0.8c0,0.8,0,1-0.2,1.3
			c-0.5,0.4-0.5,0.4-0.5-0.4c0-0.3-0.1-0.8-0.1-0.8c-0.1-0.1-0.1,0.4-0.1,1.1v0.8l-0.2,0.2C47.1,49,47,49.1,46.9,49
			c-0.1-0.1,0-0.2,0-0.7c0-0.5-0.1-0.9-0.2-0.8c0,0,0,0.5,0,1c0,0.5,0,0.9,0,0.9c0,0.1-0.5,0.6-0.6,0.6c-0.1,0-0.2-0.6-0.2-1.1
			c0-0.3-0.1-0.4-0.1-0.2c0,0,0,0.5,0,0.9v0.8l-0.3,0.3c-0.4,0.4-0.5,0.4-0.5-0.2c0-0.5,0-0.8-0.1-0.8c-0.1,0-0.1,0.2-0.1,0.8
			c0,0.4,0,0.8-0.1,0.8c0,0.1-0.2,0.3-0.3,0.4C44.2,52,44,52.1,44,52.1c-0.1,0-0.1-0.5-0.1-0.7c0,0,0-0.3,0-0.7c0-0.8,0-0.7-1.2-0.8
			c-1.4,0-1.4-0.1-1-0.5c0.4-0.4,0.4-0.4,1.3-0.3c0.8,0.1,0.9,0,0.9,0l0.1-0.1c0,0-0.3,0-0.6-0.1c-0.9-0.1-1-0.1-0.6-0.5l0.2-0.2h1
			c0.6,0,1.1,0,1.1-0.1c0.1-0.1-0.2-0.1-0.8-0.2c-0.3,0-0.6,0-0.7-0.1c-0.2,0-0.1-0.2,0.2-0.5l0.3-0.2h0.8c0.8,0,1.2-0.1,1.2-0.2
			c0-0.1-0.2-0.1-0.6-0.1c-0.6,0-1-0.1-1-0.1c0.1-0.3,0.3-0.4,0.6-0.6l0.9,0c0.9,0,1.1,0,1.1-0.2c0-0.1-0.4-0.1-0.9-0.1
			c-0.3,0-0.7-0.1-0.7-0.2c0,0,0.1-0.2,0.3-0.4l0.3-0.3l0.8,0c0.5,0,1,0,1,0c0.1-0.1-0.2-0.2-0.7-0.2c-0.8,0-0.9-0.1-0.4-0.5
			L46.9,44.2z M17.4,44.7c4.4,7.9,3.7,15.3-0.9,21.6c-0.5-0.3-1.1-0.5-1.7-0.5l-0.1-19L17.4,44.7z M48.8,47.8c0.1,0,0.1,0.1,0.1,0.4
			c0,0.2-0.1,0.5-0.1,0.6c-0.1,0.1-0.1,0.1-0.5,0.1c-0.5-0.1-0.5-0.2,0.1-0.7C48.6,47.9,48.7,47.8,48.8,47.8L48.8,47.8z M25.3,48.1
			c0,0,0.6,0,0.9,0c0,0,0,1.5,0.2,2.3l1.9,0.1l-0.7,0.8l-1.4,0C26,51.2,25.6,49.2,25.3,48.1L25.3,48.1z M47.6,49c0.3,0,1,0.1,1,0.2
			c0.1,0.1,0.1,0.2,0,1.2c0,0.3,0,1.1,0,1.6c0,1,0,1-0.1,1c-0.2,0-0.2,0-0.2-0.7c0-0.4-0.1-0.7-0.1-0.7c-0.1,0,0,0.3,0,1v0.9
			c-0.1,0.1-0.3,0.3-0.5,0.4c-0.1,0-0.2-0.2-0.2-0.6c-0.1-0.5-0.1-0.8-0.2-0.7c0,0,0,0.5,0,0.9l0.1,0.7l-0.3,0.3
			c-0.3,0.3-0.4,0.4-0.4,0.3c-0.1-0.3,0.1-1.9-0.3-2.1c0,0-0.5,0-0.9-0.1c-0.8,0-1.2,0-1.4-0.1c-0.1-0.1,0.3-0.5,0.5-0.6
			c0.1-0.1,0.3-0.1,0.9,0c0.8,0.1,1.1,0,1-0.1c0,0-0.4-0.1-0.7-0.1c-0.6-0.1-0.8-0.1-0.8-0.2c0.1-0.3,0.3-0.4,0.5-0.6l0.3,0
			c0.2,0,0.5,0.1,0.9,0.1s0.9,0,0.7,0c0.1-0.1-0.2-0.2-0.7-0.2c-0.8-0.1-0.9-0.2-0.5-0.6l0.3-0.3c0.4,0,0.9,0,1.3,0.1
			c0.3,0.1,0.5,0,0.5-0.1c0-0.1-0.2-0.1-0.5-0.1c-0.1,0-0.8,0-0.9-0.2C47,49.4,47.3,49,47.6,49L47.6,49z M28.4,50.8
			c0.1,0,0.1,0.3,0.1,1.1c0,0.9,0,1,0.1,1.1c0.1,0.1,0.3,0.1,1,0.1c1.2,0.1,1.2,0.1,0.8,0.5c-0.3,0.3-0.3,0.2-0.5,0.2
			c-0.6-0.1-1.6-0.1-1.6,0c-0.1,0.1,0,0.1,0.6,0.2c0.7,0.1,0.9,0.1,0.9,0.2c0,0.1-0.1,0.2-0.3,0.3l-0.3,0.2l-0.7,0
			c-0.8,0-1.2,0-1.2,0.1c0,0.1,0.4,0.1,1.1,0.2c0.2,0,0.4,0,0.4,0.1c0,0.1-0.3,0.5-0.6,0.7c-0.2,0.1-0.2,0.1-1,0
			c-0.8,0-0.9,0-0.7,0.2c0,0,0.2,0,0.5,0.1c0.5,0,0.7,0.1,0.7,0.2c0,0.1-0.4,0.6-0.6,0.7C27,57,26.9,57,26.5,57
			c-0.3,0-0.4-0.1-0.4-0.4c0-0.1,0-1,0.1-1.9c0-1.8,0.1-1.9,0.3-1.9c0.1,0,0.1,0.1,0.2,0.7c0,0.6,0.1,0.8,0.2,0.8c0,0,0-0.3,0-0.9
			c0-1,0-1.1,0.3-1.4c0.1-0.1,0.2-0.2,0.3-0.1c0.1,0.4,0.1,0.8,0.1,1.2c0,0.4,0.1,0.5,0.2,0.1c0-0.6,0-1.1,0-1.7l0.4-0.4
			C28.2,50.9,28.3,50.8,28.4,50.8L28.4,50.8z M26.1,51.5c0.1,0,0.9,0,1.1,0c-0.2,0.3-0.6,0.7-0.9,0.9C26.1,52.5,26.1,51.7,26.1,51.5
			z M48.7,53.3l0.2,1.2l-1.3-0.1L48.7,53.3z M31.1,53.5L31.1,53.5c0.1,0,0.1,0.3,0.2,1.4c0,0.5,0.1,0.9,0.1,1c0,0,0.2,0.1,0.5,0.1
			c0.2,0,0.7,0,1,0c0.7,0,0.7,0.1,0.3,0.5l-0.3,0.3l-0.9,0c-0.9,0-1,0-1,0.1c0,0.1,0.2,0.1,0.4,0.1c0.1,0,0.4,0,0.6,0
			c0.5,0,0.5,0.1,0.1,0.5L32,57.7l-0.3,0c-0.4-0.1-1.6,0-1.7,0c-0.1,0.1,0,0.2,0.6,0.2c0.8,0,1,0.1,1,0.2c0,0-0.1,0.2-0.3,0.3
			L31,58.7l-1-0.1c-0.7,0-1,0-1,0c0,0.1,0.1,0.1,0.8,0.2c0.7,0.1,0.8,0.1,0.6,0.5c-0.3,0.4-0.4,0.4-1,0.4c-0.6-0.1-1.3-0.1-1.4,0
			c-0.1,0.1,0,0.2,0.4,0.2c0.7,0,1.1,0.1,1.1,0.2c0,0.1-0.2,0.4-0.4,0.6L29,60.8l-0.8-0.1c-0.8-0.1-1.2,0-1,0.1c0,0,0.3,0.1,0.6,0.1
			c0.6,0,0.9,0.1,0.9,0.2c0,0-0.1,0.2-0.3,0.4c-0.2,0.2-0.4,0.3-0.4,0.3l-2.4-0.2c0,0-0.1-0.4,0.1-1.6c0.2-1,0.3-1.3,0.4-1.1
			c0,0.1,0.1,0.3,0.1,0.5c0,0.4,0.1,0.7,0.2,0.7c0.1,0,0.1-0.2,0-0.8c-0.1-0.8-0.1-0.8,0.2-1.2c0.3-0.3,0.4-0.3,0.5-0.2
			c0,0,0.1,0.4,0.1,0.7c0.1,0.5,0.1,0.7,0.2,0.6c0,0,0.1-0.2,0-1l-0.1-0.8l0.3-0.4c0.3-0.3,0.4-0.3,0.4-0.3c0,0.1,0.1,0.4,0.1,0.8
			c0,0.6,0.1,0.8,0.2,0.7c0,0,0-1.4,0-1.7c0-0.2,0-0.2,0.2-0.5c0.3-0.3,0.5-0.5,0.5-0.5c0.1,0,0.2,0.3,0.2,0.8c0,0.5,0,0.7,0.1,0.7
			c0.1,0.2,0.1-0.4,0.1-0.9l0-1l0.3-0.3c0.3-0.3,0.3-0.3,0.4-0.2c0.1,0.1,0.1,0.2,0.1,0.7c0,0.7,0.2,1,0.2,0.5c0-0.1,0-0.3,0-0.5
			c0-0.1,0-0.5,0-0.7c0-0.4,0-0.5,0.1-0.7C30.6,53.8,31,53.5,31.1,53.5L31.1,53.5z M44.7,54.2c0,0,0.5,0.5,0.5,0.6
			c0,0.1-0.2,0.3-0.5,0.6c-0.5,0.5-0.6,0.6-0.6,1.1c0,0.2-0.1,0.5-0.4,1c-0.2,0.4-0.4,0.8-0.4,0.8c-0.8,1-1.6,1.9-3.1,4
			c-0.1,0.2-0.1,0.4-0.2,0.5c-0.1,0.1-0.2,0.2-0.3,0.2c-0.1,0-0.3,0.2-0.4,0.3c-0.5,0.4-0.9,1-1.1,1.6c-0.1,0.4-0.1,0.7-0.3,1.8
			c-0.1,0.5-0.3,1.3-0.3,1.3c-3.1,0-6.1,0.5-8.7,2L44.7,54.2z M48.9,54.7l0.7,3.2l-0.7,0l-0.1-2.3l-2.2-0.2l0.8-0.8L48.9,54.7z
			 M45.5,55c0.2,0.2,0.4,0.4,0.6,0.6c-0.6,2-2.5,4.6-4.4,7.2l-1.4-0.2c0-0.1,1.9-2.8,2.8-3.8c0.4-0.4,0.6-0.8,0.9-1.5
			c0.1-0.2,0.3-0.8,0.5-1.4C44.9,55.6,45.5,55,45.5,55L45.5,55z M46.3,55.7l1,1.1l0.3,15c-1.6-1.3-3.5-2.2-5.5-2.9l0.4-0.8l0.4-0.4
			c1.4-1.5,1.1-3.1,0-4.2c1.3-1.9,2.4-3.2,3.4-5.1l0-1.2C46.2,55.9,46.3,55.7,46.3,55.7L46.3,55.7z M33.8,56.3
			c0.1,0,0.1,0.3,0.2,1.1c0,0.7,0.1,1.1,0.1,1.2c0.1,0.1,0.1,0.1,1,0.1c0.9,0,1.1,0.1,1.1,0.2c0,0-0.1,0.2-0.3,0.3l-0.3,0.3l-0.8,0
			c-0.4,0-0.9,0-1,0c-0.1,0.1,0.2,0.2,0.6,0.2c0.2,0,0.6,0,0.7,0.1c0.2,0.1,0.1,0.2-0.3,0.5l-0.3,0.3l-0.7,0c-0.4,0-0.9,0-1,0
			c-0.2,0.1-0.1,0.1,0.3,0.1c0.6,0,1.1,0.1,1.1,0.2c0,0-0.1,0.2-0.3,0.4l-0.3,0.3l-1.1,0c-1,0-1.2,0.1-0.3,0.2
			c0.3,0,0.8,0.1,0.9,0.1l0.1,0.1c0,0.1-0.4,0.6-0.6,0.7c-0.1,0.1-0.2,0.1-0.4,0c-0.2-0.1-1.2,0-1.3,0c-0.1,0.1,0.1,0.1,0.4,0.1
			c0.4,0,0.9,0.1,0.9,0.2c0,0.1-0.2,0.3-0.4,0.5c-0.1,0.1-0.4,0-1,0c-0.5,0-0.8,0.1-0.8,0.1c0,0,0.2,0.1,0.5,0.1
			c0.3,0,0.7,0.1,0.7,0.1l-0.5,0.7l-2.3,0L28.2,62l0.2-0.2c0.4-0.5,0.5-0.4,0.6,0.5c0.1,0.7,0.1,0.9,0.2,0.8c0,0,0-0.4,0-1
			c0-0.5-0.1-0.9-0.1-0.9c0-0.1,0.5-0.7,0.6-0.6c0.1,0,0.2,0.2,0.2,0.9c0,0.5,0.1,0.6,0.2,0.5c0,0,0.1-0.3,0-0.9l-0.1-0.8l0.2-0.3
			c0.4-0.5,0.5-0.5,0.6,0.4c0,0.6,0.1,0.9,0.2,0.9c0,0,0-0.4,0-1.1l0-1l0.3-0.3c0.2-0.2,0.3-0.3,0.3-0.3c0.1,0,0.2,0.2,0.2,0.8
			C32,60,32,60.1,32.1,60c0,0,0-0.4,0-0.9l-0.1-1l0.3-0.3c0.2-0.2,0.4-0.3,0.4-0.3c0.1,0,0.2,0.3,0.2,0.7c0,0.4,0.1,0.7,0.2,0.8
			c0,0,0.1-0.2,0-0.9c0-1.1,0-1.1,0.4-1.6C33.7,56.4,33.7,56.3,33.8,56.3L33.8,56.3z M46,56.7l0,1.5c-0.6,1.3-1.9,3.1-3.3,5.1
			L42,62.9C43.7,60.6,45.1,58.5,46,56.7L46,56.7z M26.4,57.2l0.1,0c0.4,0,0.4,0.1,0,0.5c-0.1,0.1-0.3,0.2-0.4,0.2
			c-0.1,0-0.1,0-0.1-0.3C26.1,57.3,26.1,57.2,26.4,57.2L26.4,57.2z M48.8,58.3l1,1L50,70L49,71.7L48.8,58.3z M50,59.7
			c0.9,2.2,1.9,4.2,2.9,5.8l-2.7,3.8L50,59.7z M40.9,63c1.2,0,2.4,1,2.5,2c0.3,1.2-0.3,2.4-1.3,2.8c-0.3,0.1-0.5,0.1-0.5,0.1
			c-0.1-0.7-0.1-1.4-0.2-2.1c0,0-0.6,0.8-0.9,1c-0.2,0.1-0.2,0.1-0.2-0.1c0-0.4,0-1.3,0-1.3L38.9,67c0,0-0.1-0.2-0.3-0.5
			c-0.5-1.2,0.1-2.5,1.1-3.1C40.1,63.1,40.5,63,40.9,63z M60.1,62.9l0,1.3c-2.3,1.8-5.5,5.4-8.2,10.3L50.6,75
			C52.5,70.5,56.5,66,60.1,62.9z M60.1,64.7l0,2c-2,1.9-3.7,3.9-5.2,6.5c-0.9,0.4-2.5,1.2-2.5,1.2C52.2,74.2,56.8,67,60.1,64.7
			L60.1,64.7z M40,66.3c0.1,0,0.1,0.2,0.1,0.4c-0.1,0.6-0.1,0.8-0.3,1.1c-0.7,0.9-1.9,2-2,3.1c-0.1,0.6,0.4,1.1,0.8,1.1
			c1.4-0.2,1.5-2.6,1.7-3.9c0-0.3,0.1-0.6,0.1-0.7c0.3-0.4,0.6-0.7,1-1l0.2,1.9l0.8-0.3c-2.2,3-1.6,3.2-2.7,4.4
			c-1.1,1.1-3.2-0.2-2.6-1.9c0.5-1.2,1.2-2.3,1.4-3.6c0.1-0.4,0.1-0.6,0.1-0.6l0.5,1C39.1,67.2,39.8,66.4,40,66.3L40,66.3z M60.2,67
			l0,1.3c-1,1.2-1.9,2-3,3.7l-1.7,0.8C56.6,70.7,58.4,68.7,60.2,67L60.2,67z M39.8,68.2c0,0,0.1,0.6-0.1,1.8
			c-0.1,0.5-0.6,2.1-1.5,1.8c-0.7-0.6,0.2-1.8,0.6-2.3C39.1,69,39.5,68.6,39.8,68.2L39.8,68.2z M37.6,68.3l-0.5,1
			c-4.1,0-8.1,1.5-11.6,4.5l-0.9-0.3C28.4,69.9,33.1,68.2,37.6,68.3z M41.9,69.1c4.6,1.5,6.7,3.8,8.5,6.2l-0.7,0.4
			c-1.8-2.4-4.1-4.5-8.3-5.8L41.9,69.1z M36.6,70.5l-0.2,0.8c-2.6,0.1-5.3,1-7.9,2.8l-1-0.2C30.2,72,33.2,70.8,36.6,70.5z
			 M48.4,76.2l-0.8,0.4c-2.4-3.2-4.6-4.1-7.2-4.9l0.3-0.7C44.1,71.9,46.5,73.6,48.4,76.2z M14.4,72.4l0.1,8.5l-0.6-0.1l-0.1-8.2
			L14.4,72.4z M13,72.9c-1.1,4.2-0.3,5.3,0.2,7.8l-0.9-0.1c-0.9-2.5-1-4.8-0.2-7.4L13,72.9z M41.2,73.5c0.1,0.1-0.1,0.3-0.2,0.4
			c-0.2,0.1-0.1,0.1-0.4,0c-0.3-0.1-0.6-0.3-0.6-0.4C40.2,73.5,41.1,73.5,41.2,73.5z M42,73.6c0.2,0,0.6,0,0.6,0.1
			c0,0.1-0.2,0.2-0.5,0.5c-0.5,0.4-0.7,0.4-0.9,0.3c-0.2-0.2-0.1-0.3,0.1-0.6C41.6,73.7,41.8,73.6,42,73.6L42,73.6z M23.5,73.7
			c0.3,0,0.9,0.4,1.2,0.8c0.3,0.5,0.7,1.1,1,1.6c0.7,1.2,1.3,2.5,1.7,3.7c1.2,3,1.9,6,2.5,8.9c0,0.2-0.2,0.2-0.4,0.2
			c-0.1,0-0.2-0.1-0.2-0.1c-0.3-0.7-0.3-1.4-0.5-2.2c-0.5-1.8-0.7-2.8-1.6-5.3c-0.5-1.3-1.2-3.1-1.9-4.5c-0.5-0.9-1-1.7-1.8-2.5
			c-0.2-0.2-0.4-0.4-0.4-0.4C23.2,73.8,23.3,73.7,23.5,73.7L23.5,73.7z M43.2,73.8c0.3,0.1,1,0.2,0.7,0.4c-1,0.4-1.3,0.8-1.8,1.2
			c-0.1,0-0.4-0.4-0.4-0.5C42.2,74.4,42.7,74.2,43.2,73.8z M25,73.8c0.4,0,0.8,0.5,1,0.8c1.3,1.8,2.3,4.5,3.2,7.1
			c1,2.8,1.6,5.5,1.8,7.4c0,0.1-0.1,0.1-0.3,0.1c-0.3,0-0.3-0.1-0.4-0.3c-0.7-3.1-1.5-6.4-2.6-9.1c-0.6-1.5-1.2-2.9-2.1-4.4
			c-0.6-0.9-1-1.4-0.9-1.5C24.7,73.8,24.8,73.8,25,73.8L25,73.8L25,73.8z M22.1,73.8c0.6,0,1.5,0.7,2.1,1.5c1.3,1.8,2.1,3.9,2.8,5.9
			c0.9,2.3,1.5,4.9,1.9,7c0.1,0.3,0.2,0.4-0.1,0.5c-0.4-0.1-0.4-0.1-0.5-0.6c-0.2-0.5-0.2-1.1-0.4-1.7c-0.9-3.2-1.9-6.7-3.5-9.6
			c-2-3.2-2.5-2.3-2.9-2.8C21.6,73.9,21.9,73.8,22.1,73.8L22.1,73.8z M26.9,74.6c1.7,3,2.4,4.8,3,6.6c0.8,2.7,1.7,4.9,2.1,8
			c0,0-0.4,0-0.6-0.1c-0.1-0.1-0.2-0.4-0.2-0.6c-0.4-2.2-1.1-4.9-1.8-7c-0.8-2.3-1.7-4.5-3-6.6c-0.4-0.6-0.4-0.8-0.2-0.8
			C26.6,74.1,26.7,74.4,26.9,74.6L26.9,74.6z M44.6,74.3c0.1,0,0.1,0,0.3,0c0.2,0.1,0.3,0.1,0.3,0.2c0,0.1-0.1,0.2-0.6,0.3
			c-0.3,0.1-1,0.4-1.5,0.8c-0.2,0.2-0.4,0.4-0.5,0.4c-0.1,0-0.4-0.3-0.4-0.4C42.7,75.1,43.8,74.3,44.6,74.3L44.6,74.3z M21.2,74.4
			c1.4,0,2.6,1.7,3.1,2.8c0.2,0.4,0.5,0.9,0.8,1.4c1.2,2.6,2.2,5.9,2.6,8c0.2,1,0.5,1.7,0.4,1.9c-0.1,0.1-0.4,0-0.5-0.1
			c-0.1-0.1-0.1-0.3-0.2-0.7c-0.3-1.1-0.9-4.2-2.3-7.4c0-0.1-0.7-2.1-1.9-4.1c-0.5-0.8-1.3-1.3-2-1.5c-0.4-0.1-0.5,0-0.5-0.2
			c0-0.1,0.1-0.2,0.2-0.2C21,74.4,21.1,74.4,21.2,74.4L21.2,74.4z M30.2,81.1c-0.1,0-0.2-0.2-0.3-0.5c0-0.2-0.1-0.3,0.2-0.4
			c1.8-1.9,0.2-4.7-2-4.9c-0.2,0-0.5,0-0.6-0.1c-0.1-0.1-0.3-0.5-0.4-0.6C30.3,73.7,33.6,78.2,30.2,81.1L30.2,81.1z M45.6,74.9
			c0.2,0,0.6,0.4,0.5,0.5c-0.1,0.1-0.4,0.1-0.9,0.2c-1.1,0.2-1.5,0.9-2,1.4c-0.1,0-0.2,0-0.3-0.2c-0.1-0.1-0.1-0.3-0.1-0.3
			C43.3,75.6,44.8,74.8,45.6,74.9L45.6,74.9z M20.5,75.1c0.9,0,1.8,0.4,2.3,1.2c1.9,2.8,3.9,9,4.4,12c-0.1,0.1-0.2,0.1-0.4,0
			c-0.1,0-0.1-0.1-0.2-0.4c-0.6-2.2-1.2-4.4-2-6.4c-0.4-1-0.8-2-1.3-2.9c-0.3-0.6-0.8-1.6-1-1.9c-0.5-0.9-1.5-1.2-2.1-0.9
			c-0.6,0.3-0.7,1.2-0.2,1.6c0.4,0.3,1,0.2,1.3-0.2c0.1-0.2,0.1-0.3,0-0.4l-0.2,0c0,0.5-0.7,0.6-1,0.4c-0.5-0.4-0.2-1.5,1.1-1
			c0.5,0.3,0.7,0.8,0.4,1.3c-0.2,0.5-0.6,0.8-1.2,0.8c-0.7,0-1.5-0.5-1.5-1.4c0-0.7,0.3-1.2,0.9-1.6C20.1,75.1,20.2,75.1,20.5,75.1
			L20.5,75.1z M28.1,75.5c2.2,0.1,3.2,2.7,2,4.3c-0.3,0.4-0.5,0.3-0.6-0.2c-0.1-0.2-0.1-0.2,0-0.4c1-1,0.2-2.9-1.5-3
			c0,0-0.3-0.5-0.3-0.7C27.9,75.5,28,75.5,28.1,75.5L28.1,75.5z M46.4,75.7c0.2,0,0.5,0.4,0.5,0.5c0,0.1-0.1,0.1-0.5,0
			c-0.9-0.2-1.8,0.4-2.6,1.5c-0.4,0.7-0.4,0.6-0.6,0c-0.1-0.3-0.1-0.3,0.3-0.9C44.3,76,45.4,75.6,46.4,75.7L46.4,75.7z M47.3,76.9
			c0.8,0.7,0.4,2.3-0.6,2.4c-0.9,0.1-1.7-0.9-1.2-1.6c0.4-0.4,0.8-0.5,1.1-0.1c0.3,0.4,0.2,0.9-0.3,0.9l-0.1,0.1
			c0,0.1,0.4,0.1,0.5,0c0.3-0.3,0.3-0.7,0-1c-0.2-0.3-0.6-0.5-1-0.4c-0.6,0.2-1.3,1.1-1.6,2.1c-0.1,0.3-0.2,0.6-0.2,0.6
			c-0.1,0.1-0.1,0.1-0.2,0.1c-0.1,0-0.2-0.7-0.2-0.9c0-0.2,0.2-0.7,0.4-1.1C44.7,76.7,46.2,75.9,47.3,76.9L47.3,76.9z M28.5,76.6
			c0.9,0.1,1.6,1.3,1.2,2.2c-0.1,0.2-0.3,0.3-0.4,0.2c0,0-0.2-0.5-0.4-0.9c-0.2-0.4-0.4-0.9-0.4-1C28.4,76.8,28.3,76.6,28.5,76.6z
			 M22.4,77.3c1,1.8,1.9,3.9,2.6,5.9c0.6,1.6,1,3.1,1.3,4.5c0,0.1,0.1,0.2,0,0.3c-0.1,0.1-0.6-0.1-0.6-0.1c-0.9-3-1.5-5.9-3.6-9.7
			c0,0-0.1-0.1-0.1-0.2c0-0.2,0-0.5,0.2-0.7C22.2,77.2,22.3,77.2,22.4,77.3L22.4,77.3z M10.9,80.7c4.8,0.3,8.6,2.4,10.6,7.8
			c-0.7-0.4-4.3-3.2-10.5-3.5l0-0.7c4.5,0,8.8,2.3,8.7,2.3c-1.7-3.4-5.8-4.8-8.8-4.9L10.9,80.7z M44.5,81.8
			c-0.3,0.5-0.3,0.5-0.4,0.9c0,0.1,0,1,0.1,1.5c0,0.6,0,0.9,0.1,1c0.1,0.1,0.3,0.1,0.3,0c0,0,0.1-0.2,0.1-0.3
			c0.4-1.5,0.6-2.1,0.7-2.3c0.1-0.1,0.1-0.1,0.6-0.1c1,0.1,1.3-1.1,0.7-1.6C45.8,80.5,44.9,81.3,44.5,81.8z M45.5,82.1
			c-0.7,0.6-0.7,1.4-0.9,2.2c-0.1,0.5-0.3,0.8-0.3,0c-0.1-1.1,0-1.9,0.5-2.5c0.3-0.5,0.8-0.8,1.2-0.8c0.9-0.1,1,0.7,0.8,1.1
			C46.5,82.3,46,82.5,45.5,82.1z M12.1,82.5c0.3,0,0.6,0.3,0.6,0.6c0,0.3-0.3,0.6-0.6,0.6c-0.3,0-0.6-0.3-0.6-0.6
			C11.5,82.8,11.8,82.5,12.1,82.5z M14.2,82.9c0.3,0,0.6,0.3,0.6,0.6s-0.3,0.6-0.6,0.6s-0.6-0.3-0.6-0.6S13.8,82.9,14.2,82.9z
			 M16,83.5c0.3,0,0.5,0.2,0.5,0.5s-0.2,0.5-0.5,0.5s-0.5-0.2-0.5-0.5S15.7,83.5,16,83.5z M17.3,84.4c0.2,0,0.4,0.2,0.4,0.4
			c0,0.2-0.2,0.4-0.4,0.4c-0.2,0-0.4-0.2-0.4-0.4C16.9,84.5,17.1,84.4,17.3,84.4z M12.7,85.5c-0.1,0.7,0,1.4,0.1,1.9
			c0.4,1,0.2,2.9,0.2,2.9L12,91.4c0.1-1,0.2-2,0.1-2.8c0-0.5-0.3-1.1-0.3-1.6c-0.1-0.5,0-1.5,0-1.5L12.7,85.5z M14.4,85.8l0,4.5
			l-3.6,3.5l0-0.9l3.1-3l-0.1-4.1L14.4,85.8z M23.3,96l-0.2,0.4h4.1l0.1-0.4H23.3z M28.6,96l-0.1,0.4h1.9l0.1-0.4
			C30.4,96,29.4,96,28.6,96z M31.7,96l-0.1,0.4h7L38.5,96H31.7z M39.8,96l0.1,0.4h1.9L41.6,96H39.8z M42.9,96l0.1,0.4h3.2L46,96
			H42.9z"/>
		<path class="st7" d="M5.9,5.1v1.2H7c0,0,0,1.1,0,3.5c0,2.3,0.1,3.4-0.1,4.1c-0.4,1.5-2.6,1.5-3,0.4c-0.3-0.6-0.2-1.1-0.2-1.8H2.5
			c0,0,0,0.3,0,0.7c0,1.7,0.6,2.5,1.9,2.8c1.3,0.4,2.9-0.2,3.5-1.3c0.3-0.7,0.3-0.7,0.3-4.7c0-2.7,0-3.8,0-3.8h1V5.1H5.9L5.9,5.1z"
			/>
		<path class="st7" d="M68.8,100.3v-1.2h-1.1c0,0,0-1.1,0-3.5c0-2.3-0.1-3.4,0.1-4.1c0.4-1.5,2.6-1.5,3-0.4c0.3,0.6,0.2,1.1,0.2,1.8
			h1.2c0,0,0-0.3,0-0.7c0-1.7-0.6-2.5-1.9-2.8c-1.3-0.4-2.9,0.2-3.5,1.3c-0.3,0.7-0.3,0.7-0.3,4.7c0,2.7,0,3.8,0,3.8h-1v1.2H68.8
			L68.8,100.3z"/>
	</g>
</g>
</svg>
