<?xml version="1.0" encoding="utf-8"?>
<!-- Generator: Adobe Illustrator 19.1.0, SVG Export Plug-In . SVG Version: 6.00 Build 0)  -->
<svg version="1.1" xmlns="http://www.w3.org/2000/svg" xmlns:xlink="http://www.w3.org/1999/xlink" x="0px" y="0px"
	 viewBox="0 0 75.3 105.3" style="enable-background:new 0 0 75.3 105.3;" xml:space="preserve">
<style type="text/css">
	.st0{display:none;}
	.st1{fill:#FFFFFF;}
	.st2{fill:none;stroke:#010101;stroke-width:0.9967;}
	.st3{fill:#010101;}
	.st4{fill:none;stroke:#010101;stroke-width:1.0006;}
	.st5{fill:#E1CF20;}
	.st6{fill:#262964;}
	.st7{fill:#D31F26;}
	.st8{fill:#14130F;}
	.st9{fill:none;stroke:#010101;stroke-width:0.9929;}
	.st10{fill:#F6EB16;}
	.st11{fill:none;stroke:#010101;stroke-width:1.83;}
	.st12{clip-path:url(#SVGID_2_);}
	.st13{clip-path:url(#SVGID_4_);}
</style>
<g id="Layer_1" class="st0">
</g>
<g id="Layer_2">
	<g>
		<path class="st1" d="M3.7,0.4h67.5c2,0,3.6,1.6,3.6,3.6v97.3c0,2-1.6,3.6-3.6,3.6H3.7c-2,0-3.6-1.6-3.6-3.6V4
			C0.2,2,1.8,0.4,3.7,0.4z"/>
		<path class="st2" d="M3.7,0.4h67.5c2,0,3.6,1.6,3.6,3.6v97.3c0,2-1.6,3.6-3.6,3.6H3.7c-2,0-3.6-1.6-3.6-3.6V4
			C0.2,2,1.8,0.4,3.7,0.4z"/>
		<path class="st7" d="M5.9,23.9c0,0-0.7-1.1-1.7-2.3C3.5,20.7,3,19.8,2.9,19c-0.1-0.9,0.5-1.8,1.5-1.8c1,0,1.4,0.7,1.5,1.3
			c0.2-0.6,0.6-1.3,1.5-1.3c1,0,1.5,0.9,1.5,1.8c0,0.8-0.6,1.7-1.3,2.5C6.7,22.8,5.9,23.9,5.9,23.9L5.9,23.9z"/>
		<path class="st7" d="M69.1,81.4c0,0-0.7,1.1-1.7,2.3c-0.7,0.8-1.2,1.8-1.3,2.5c-0.1,0.9,0.5,1.8,1.5,1.8c1,0,1.4-0.7,1.5-1.3
			c0.2,0.6,0.6,1.3,1.5,1.3c1,0,1.5-0.9,1.5-1.8c0-0.8-0.6-1.7-1.3-2.5C69.8,82.5,69.1,81.4,69.1,81.4z"/>
		<path class="st7" d="M5.9,5.1v1.2H7c0,0,0,1.1,0,3.5c0,2.3,0.1,3.4-0.1,4.1c-0.4,1.5-2.6,1.5-3,0.4c-0.3-0.6-0.2-1.1-0.2-1.8H2.6
			c0,0,0,0.3,0,0.7c0,1.7,0.6,2.5,1.9,2.8c1.3,0.4,2.9-0.2,3.5-1.3C8.3,14,8.2,14,8.2,10c0-2.7,0-3.8,0-3.8h1V5.1L5.9,5.1L5.9,5.1z"
			/>
		<path class="st7" d="M69.1,100.2v-1.2H68c0,0,0-1.1,0-3.5c0-2.3-0.1-3.4,0.1-4.1c0.4-1.5,2.6-1.5,3-0.4c0.3,0.6,0.2,1.1,0.2,1.8
			h1.2c0,0,0-0.3,0-0.7c0-1.7-0.6-2.5-1.9-2.8c-1.3-0.4-2.9,0.2-3.5,1.3c-0.3,0.7-0.3,0.7-0.3,4.7c0,2.7,0,3.8,0,3.8h-1v1.2H69.1
			L69.1,100.2z"/>
		<path class="st5" d="M64.2,12.6l-3.9,2.5l-0.1,2.9c-2.3-1.1-3.3-2.9-3.6-5C56,13.9,56.2,18,56.2,18c-0.6,0.3-0.8,0.7-1.2,1.1
			c0.4,0.6,1.4,1.6,1.4,1.6c0,0-0.5,4.3,0.1,4.5c0.5-1.8,1.2-3.4,3.8-5.1c0,0,0,6.8-0.1,13.5c-1.1-0.7-3.4-2.1-4.8-3.5
			c1.9-2.5,0-5.7-2.9-3.6c-1.8-1-2.1-5.7-2.6-8.2c-0.1-0.5-0.5-2-0.5-2s-6.1-1.7-8.7-1.6c2.2,5.7,1.8,12.7-8,14.1
			c-4.7,2.1-10,4.5-15.3,9c-1,6.6-4.4,9.9-6.8,11.7c0,2.7,0,5.3,0.1,8.1c0,0,2.2-1.4,2.5-1.2c1.8,12,8.6,14.4,7.9,14.7
			c-0.1,0.1-2.2,2.2-2.2,2.2l-8.2-5.4c-0.3,8.3-0.1,16.7,0,25c1.4-0.8,4.1-2.8,4.1-2.8l0-2.8c0-0.3,3.7,2.3,3.7,5.5
			c0.3,0.2,0.9-4.5,0.3-5l1.5-1.6l-1.7-1.6c0,0,0.4-2.7-0.4-4.2c-0.6,3.5-3.4,4.6-3.4,4.6l-0.1-12.8l5.2,3.3
			c-2.8,3.8,2.1,5.1,2.7,3.2c3.2,3,2,6.5,3.3,10.7l9,1.7c-3.7-6.9,0.3-14.8,7.6-14.2c1.4-0.6,2.6-1.4,2.6-1.4s-0.9-1.5-2.1-2.9
			l-15.6-0.3l7.3-13.7L30,58.5c0,0,3.9-8.3,3-8.9c-0.3-0.2-0.2-2.9-0.2-2.9l4.3,0.2c0.2-1.9-2.1-9.2-5.2-13.9L49.5,33l-9.9,13.8
			l5.3,0.2l-3.2,6.5l0.5,5.1l-4.7,0.2c0.8,7,6,14.5,7.9,16.8c3-0.7,8.7-5.1,12.2-7.8C58.1,63,59.7,59,64,56l0-7.8
			c0,0-2.4,1.6-2.4,1.5c0-1.7-0.9-5.2-2.5-8.3c-1.7-3.4-4.6-6.4-5.2-6.6c1.5-2.3,2.1-2.5,2.1-2.5l8.2,5.3L64.2,12.6z M22.9,29.2
			c0,0-1.6,0.6-3,0.6c-2.5,0.1-4.4,0.3-5.4,2.4c-0.2,0.6,0.2,0.9,0.6,1C17,30.9,21.9,33.9,22.9,29.2z M11.9,39.9
			c0,0.3,0.4,0.9,0.6,0.3c0.2-0.4,0.2-1,0-1.4C11.9,38.5,11.9,39.6,11.9,39.9z M38.8,51.2l-2.4,0l0,2.9l2.4,0L38.8,51.2z M62.6,65.4
			c-0.1,0.3-0.3,1.6,0.3,1.3C63.6,66.2,63,63.7,62.6,65.4z M60.3,72.6c-0.3-0.4-1.2,0.6-1.9,0.7c-3.2,0.2-5.6-0.3-6,3.1
			c1.9-1.2,4.5-0.6,6.2-1C59.8,74.9,61.1,73.8,60.3,72.6z"/>
		<path class="st6" d="M10.1,96.9V8.4h54.9v88.4H10.1z M12.6,39.6c0-0.9-0.3-1.2-0.6-0.6c-0.1,0.1-0.3,1.6,0.3,1.7
			C12.6,40.6,12.6,39.9,12.6,39.6z M11.7,40.6c0-0.2-0.1-0.3,0.1-2c-0.5-0.2-1-1.1-0.6-1.6c0.1-0.2,0.1-0.3,0-0.4
			c-0.1-0.4-0.1-0.8,0.3-1.1c0.3-0.2,0.3-0.2,0.2-0.5c-0.2-0.6,0-1.2,0.6-1.4c0.4-0.1,0.3-0.2,0.4-0.4c0.1-0.6,0.4-0.9,1-0.8
			c0.5,0.1,0.6,0.1,0.6-0.2c0.1-0.7,1-1.5,2.1-2c0.6-0.3,1.5-0.4,3.3-0.4c1,0,2.3-0.2,3-0.8c0.1-0.1,0.3-0.4,0.3-0.4
			c0.1,0.1,0.1,0.8-0.2,1.4c-0.8,1.9-1.8,2.4-4.7,2.4c-0.9,0-2.1,0.1-2.7,0.6c-0.2,0.2-0.3,0.3-0.2,0.4c1.2,0.2,2.4,0.7,3.1,3.1
			c2.2-1.5,5.6-3.9,9.9-6c-0.5-2.8,1.9-3.3,3.3-2.7c0,0,0-0.2,0-0.4c-0.1-0.2-0.1-0.5-0.4-0.8c-0.1-0.1-0.4-0.4-0.4-0.6
			c0.1-0.3,0.1-0.4-0.2-0.7c-0.2-0.2-0.1-0.6,0-0.8c0.1-0.3,0.3-0.7,0.1-0.9c-0.3-0.3-1.2-0.7-1.7-1c-0.5-0.4-0.5-0.7,0.2-2
			c0.4-0.7,0.7-1.5,1-2.1c0.4-0.8,0.5-1.3,0.2-1.8c-0.3-0.6-0.3-1.3-0.3-1.3c0,0-3.2-4.5-4.5-6.2H10.9v33.9l2.6-2.4l-0.7-0.8
			c-0.1,0.5,0,0.9-0.6,1C11.9,40.8,11.7,40.8,11.7,40.6z M20.5,85.9c0.1-1.3-0.6-3.5-1.5-5.1c0,1.2,0.1,2.6-0.1,3.7L20.5,85.9z
			 M43.9,89.4c-0.1,0-1.1-0.1-1.7-0.1c-2-0.1-3.3-1.1-4.2-2.4c-0.2-0.3-0.1-0.3,0.4,0.1c1.3,1.1,2.6,1.7,3.7,1.5
			c1.6-0.2,2.4,0.4,2.2,1C44.2,89.6,44.2,89.5,43.9,89.4z M38.6,86.4c-0.3-0.3-0.3-0.4,0-0.1c1.1,0.8,2.5,2,4.2,1.3
			c0.4-0.2,0-0.2-0.6-0.1c-0.9,0.1-2-0.4-3.4-1.3c-0.7-0.5-0.4-0.8,0.4-0.5c0.2,0.1,0.5,0.2,0.6,0.2c0.7-0.5,2.3-0.5,2.2-0.5
			c0.2-0.2-0.4-0.4-1.3-0.7c-0.6-0.2-0.7-0.3-0.3-0.3c0.4,0,0.9,0.2,1.3,0.4c0.7,0.4,1,0.7,1.2,0.7c0.3,0,0.7,0.1,0.1,0.3
			c-0.3,0.1-0.2,0.2-0.2,0.4c0,0.5,0.1,0.5,0.3,0.7c0.4,0.4,0.5,1.1,0,0.7c-0.1-0.1-0.1,0-0.4,0.2C41.2,88.3,39.9,87.6,38.6,86.4
			L38.6,86.4z M41.9,86.6c0.1-0.1,0.2-0.5,0.3-0.6c0-0.2-0.2-0.1-0.3,0c-0.2,0.2-0.4,0.5-0.2,0.6C41.7,86.6,41.8,86.7,41.9,86.6z
			 M41.3,86.4l0.4-0.7c-0.1,0-1.4,0.2-1.2,0.4C40.6,86.3,41.3,86.4,41.3,86.4z M42.8,84.1c-0.6-0.3-0.8-1-0.3-1.5
			c0.4-0.4,1-0.4,1.8,0.1c0.3,0.2,0.4,0.3,0.6,0.2c0.3-0.1,0.4,0.1,0.4,0.3c-0.1,0.5-0.9,0.7-1.4,0.1c-0.7-0.8-1.5-0.2-1.2,0.3
			c0.1,0.3,0.3,0.3,0.6,0.5C43.2,84.1,42.9,84.2,42.8,84.1z M40,80.5c1-0.3,2.5,0.8,3.3,0.6c0.3-0.1,0.3,0.4-0.1,0.6
			c-0.4,0.2-1,0.1-2.3-0.6c-1.1-0.6-1.9,0.4-1.2,1.1c0.2,0.1,0.4,0.2,0.6,0.2c0.4,0,0.5,0.1,0,0.2c-0.3,0.1-0.8,0-1-0.3
			C38.8,81.8,39,80.7,40,80.5z M18.8,77.4c0-1.2,0.6-1.9,0.6-1.9L15,72.5L15,84.7c2.2-1.4,3-3.2,3.1-5.5c4.4,4.9,3,11,0.3,14.4
			c-0.1-2.1-0.7-4.6-3.3-5.8l0,2.5l-4.3,3v2.9h10l4.8-7.2c-0.9-3.2-0.7-5.8-1.3-7.3c-0.4-1.2-1.3-2.7-1.8-2.5
			C20.7,80.6,18.9,78.9,18.8,77.4z M22.6,78.8c1.6,1.1,2,3,2.3,4.6l0.8,5.6c0.1,0.3,0.1,0.6-0.2,0.8c-1.4,2-4.2,6.2-4.2,6.2
			l27.6,0.2c-1.5-2.1-2.6-4.3-4-6c0.1-0.1-0.1-1.3-0.3-1.7c-0.2-0.4-0.3-0.6-0.1-1c0.4-0.9,0.8-1.9,1.2-2.7c0.7-1.6,0.8-1.6-0.2-2.1
			C44.2,82,44,81.8,44.3,81c0.1-0.3,0.1-0.4-0.3-0.5c-0.2,0-0.6-0.1-0.8-0.2c-0.8-0.2-0.6-0.1-0.8,0.1c-0.2,0.1-0.4-0.3-0.7-0.8
			c-0.3-0.6-0.4-0.6,0.1-0.3c0.9,0.5,2.5,0.3,1.9-0.3c-0.3-0.3-0.5-0.5-0.5-1.1c0-0.7,0-0.9-0.4-1c-0.9-0.2-1.9-0.1-2.8,0.1
			c-2.6,0.7-4.7,2.9-5.5,4.6C34.4,82,34.8,82,35,82c0.9-0.1,1.5,1.3,0.9,1.9c-0.3,0.3-0.5,0.1-0.2-0.2c0.3-0.6-0.2-1.4-0.8-1.2
			c-0.9,0.2-0.9,1.4-1,2.1c-0.3,2.2,0.8,5.3,1.1,5.9l0,0.1l-0.2,0.1c-0.2-0.2-0.7-2.1-1-3.4c-0.5-3.6,0.4-7,3.4-8.9
			c2.7-1.9,4-1.5,5.5-1.6c0.5-0.2,1.2-0.5,1.8-0.7c4.8-2.5,9.1-4.9,13.1-8.2c2.9-2.2,4.3-4,6.8-6.3L64.1,49c0,0-0.3-0.2-0.3-0.4
			c0.2-0.8-1.3,0.6-2.3,1c-0.6-5.8-3.7-11.5-7.5-14.8l0.2-0.2c0,0,1.3,0.8,1.9,1.2v-0.8l-1.5-1c-0.1-0.3,0-0.3,0.3-0.3l1.2,0.9v-0.7
			l-1-0.6l0.3-0.4l0.5,0.3c-0.2-0.6,0.1-0.6,0.4-0.2c0.1,0.2,0.3,0.4,0.4,0.6L57,34l0.9,0.6c0,0,0-0.3,0-0.4c0.1-0.5,1.2,1,1.1,1.1
			l0.9,0.6c0.2-0.3,1,0.3,1,0.6c0.1,0.1,3.1,2.1,3.1,2.1l0-1.1l0.3-0.4l0.1-24.5l-4,2.5l0,3c-1.9-0.6-3.5-3.3-3.7-5
			c-0.1-0.1-0.7,3.3-0.4,4.8c-0.5,0.4-1.3,1.2-1.3,1.2l1.5,1.6c0,0-0.3,2.5-0.2,3.8c0.1,0.6,0.1,0.7,0.2,0.7c0.1,0,0.3-0.2,0.3-0.3
			c0.4-1.5,1.5-3.8,3.5-4.6c0.1,0,0,13.4,0,13.4l-5-3.4C55,30,55.6,30,55.9,28.9c0.9-2.9-2.2-4-3.4-2.3c-0.2,0-1-1-1.2-1.5
			c-0.9-1.9-1.1-4-1.3-5.6c-0.1-0.8-0.4-2-0.6-2.8c-0.1-0.4-0.1-0.7,0.1-1.1c1.2-2.4,3.4-4,4.2-6.4L26.2,9.2c1.8,1.4,3.3,5.5,4.9,6
			c-0.8,0.1-0.5,0.8-0.2,1.5c0.4,0.9,0.3,1.1-0.6,2.9c-1.4,2.7-1.4,2.4-0.1,3.3c0.8,0.5,1,0.7,0.9,1.4c-0.1,0.7-0.2,0.5,0.5,0.6
			c0.4,0,0.7,0.1,0.8,0.2c0.2,0.1,0.3,0.2,0.6,0.1c0.4-0.1,0.4,0,0.4,0.3c0,0.1,0.2,0.4,0.3,0.5c0.2,0.3,0.1,0.3-0.2,0.1
			c-0.9-0.6-2.4-0.3-1.8,0.3c0.2,0.3,0.5,1.1,0.5,1.5c0,0.7,0.5,1,1.5,0.9c1.9-0.1,6.3-2.6,7.3-5.3c-2.2,0.8-1.8-2-1-1.9
			c0,0-0.2,0.5-0.2,0.8c0,1,0.8,1.1,1.4,0.4c0.2-0.4,0.5-1.7,0.4-3.3c-0.2-1.9-0.9-4-1.1-4.5c3.2,7.7,0.3,11.1-4.2,13.3
			c-1.7,0.7-2,0.7-3,0.8c-0.7,0.1-1.3,0.4-2,0.6c-3.9,1.8-8.6,4.1-12.8,7.6c-3,2.3-5.5,4.3-7.9,6.9l0,13.5c0.7-0.1,1.9-0.8,2.6-1.2
			c0.8,5.1,3.4,10.9,7.7,14.4l-0.1,0.2c-0.6-0.4-1.2-0.8-1.8-1.1l0,0.6l1.4,1c0,0.2-0.2,0.4-0.2,0.4l-1.2-0.8l0,0.7l0.9,0.6
			c0.2,0.3-0.3,0.4-0.3,0.4l-0.5-0.4l0,0.4c-0.1,0.5-0.9-0.6-1.1-1.1l-0.8-0.5c0.1,0.3-0.2,0.4-0.4,0.3c-0.6-0.3-0.6-0.8-0.7-1.1
			l-1-0.7c-0.2,1-1.2-0.4-1.1-0.7l-1.3-0.9c0.1,0-0.5,0.1-0.7,0c-0.2-0.1-0.3-0.8-0.3-0.8l-0.8-0.5v0.9l8.2,5.7l-0.1,0.2l-8.5-5.9
			L10.7,93l4.2-2.9c-0.1-1,0.1-1.8,0-2.9c2.1,1.3,2.9,2.2,3.8,5c0.6-1.6,0.5-3.1,0.2-4.5c0.5-0.4,1.1-0.9,1.4-1.6
			c-0.5-0.7-1-0.9-1.6-1.6c0-0.8,0.4-3.2-0.2-4c0,0-1.2,3.5-3.6,4.5c-0.1-3.7,0-12.9,0-12.9s2.5,1.8,3.8,2.5c0.6,0.3,1,0.5,1,0.8
			c0,0.1-0.2,0.3-0.3,0.4C19.3,76,19,77,19.1,77.8c0,0.6,0.3,0.9,0.6,1.2C20.5,79.9,22,79.5,22.6,78.8z M27.6,72.3l9.8-13.7
			c1.2,5.1,3.1,9.7,5.7,13.9L27.6,72.3z M32.4,57.8c0,0,0.7-1.4,1-2.1h-1.2l0.7-0.8h1.8l-1,2h0.8l1-2h2.8l-1,2H38l1-2h2.6l-0.9,2
			h0.6l0.5-1l0.1,1.9h-2.6l1-2.1h-0.8l-1.1,2.1h-2.4l1-2.1h-0.9L35,57.8H32.4z M40.3,50.5l1-2.2h-0.8l-1.1,2.2h-2.6l1-2.1l-0.6,0
			c-0.4,0.7-1.1,2-1.1,2h-2.7c0,0,0.8-1.4,1.1-2.2h-0.7l-0.5,0.9c-0.2-0.3-0.1-1.2-0.1-1.6h2.6l-1,2.1h0.8l1.1-2.1h2.7l-1.1,2.1h0.6
			l1.1-2h2.8l-1,2h0.9l-0.4,0.9H40.3z M37.8,46.7l-0.5,0.1c-0.7-5.7-3.8-11.5-5.1-13.9l15.7,0.2L37.8,46.7z M56.2,13.8
			c0,0-1.5,1.9-1.6,5.2l1.4-1.1C55.9,14.5,56.2,13.8,56.2,13.8z M54.6,19.2c0,2.4,0.6,3.9,1.4,5.1c0-1.5,0.2-3.1,0.3-3.5L54.6,19.2z
			 M15.8,65.1l-5.1-3.5v0.8l6,4.1L15.8,65.1z M14.9,63.3c-1.4-0.7-4.1-2.8-4.1-2.8v0.7l4.4,3.1c0.1,0.1,0.2,0.1,0.2,0
			C15.3,64,15.1,63.6,14.9,63.3z M13.7,60.2l-2.9-2v0.6c0.7,0.7,3.2,2.3,3.2,2.3L13.7,60.2z M10.8,57.7l2.7,1.8l-0.2-0.8l-1.9-1.3
			L10.8,57.7z M59.9,33.2l0.1-12.6c-2.8,1.4-3.4,5.3-3.3,5.4c-2.8-2.9-3.9-9.3,0.1-13.5c0.3,1.4,0.4,3.3,3.2,5.1l0.1-2.7l3.9-2.5
			V9.2h-9.5c-1.5,1.9-2.9,4-4.4,6c-0.5,0.7-0.7,1.1-0.6,1.5c1,3.4,0.8,7.7,2.8,9.7c2.7-2.5,5.2,1.3,3.1,3.6L59.9,33.2z M19.1,87.8
			c0.4,1.2,0.1,3.5,0.1,3.5c0.4-0.2,1.6-3.6,1.3-4.9 M34.2,24.7c-0.7-0.2-1.2-0.5-1.9-0.4c-0.6,0.1-0.7-0.1-0.4-0.4
			c0.4-0.4,0.9-0.5,1.7-0.1c2.5,1.3,2.5-0.6,1.4-0.7c-0.3,0-0.3-0.2,0-0.2C36.8,22.9,36.2,25.2,34.2,24.7z M31.3,22.8
			c-0.3-0.1-0.7-0.3-0.9-0.3c-0.4,0.1-0.4-0.1-0.3-0.3c0.1-0.6,0.7-0.5,1.5,0c1.1,0.7,1.5-0.3,0.5-0.9c-0.3-0.2-0.2-0.2,0-0.2
			c0.5,0,1,0.7,0.9,1.3C32.6,23.3,31.7,23,31.3,22.8z M34.5,21.1c-0.7-0.1-1.8-1.1-2.3-1.2c-0.3,0-0.6,0-0.7-0.1
			c-0.3-0.3,0.5-0.3,0.5-0.5c0-0.3,0-0.5,0-0.6c-0.1-0.2-0.7-0.9-0.6-1.3c0,0,0.3,0.2,0.4,0.2c1.3-0.7,2.2-0.4,3.3,0.1
			c0.5,0.2,1.6,1.1,1.6,1.2c0,0.2-0.5-0.2-0.9-0.5c-1-0.7-1.9-1.2-3.1-0.8c-0.2,0.1-0.2,0.1,0.5,0.1c0.6,0,1.1,0.2,1.9,0.7
			c0.2,0.1,0.4,0.4,0.6,0.4c1,0.5,1.2,1,0.6,0.8c-0.1,0-0.4-0.2-0.7-0.3c-0.5-0.2-0.3-0.1-0.7,0.1c-0.2,0.1-0.5,0.2-0.8,0.3
			c-0.2,0-1,0-0.7,0.4c0.4,0.4,1,0.6,1.4,0.8C35.1,21.1,34.9,21.1,34.5,21.1z M34.6,19.5c0.5-0.2,0.1-0.6-0.5-0.7
			c-0.1,0-0.4,0.6-0.4,0.8C33.7,19.7,34.4,19.6,34.6,19.5z M33.3,19.6c0.1-0.1,0.5-0.6,0.5-0.7c0-0.3-0.4-0.2-0.5,0.1
			C33.2,19.4,33.1,19.7,33.3,19.6z M31.8,16.8c-0.4-0.2-0.9-0.9-0.3-0.8c0.1,0,0.8,0.1,1.2,0.1c1.5,0,3,0.7,3.9,1.7
			c0.5,0.5,0.6,1,0,0.6C34.8,16.7,33.7,17,31.8,16.8z M46.5,75.3L46,75.6c0,0.3,0.1,0.2,0.3,0.5c0,0-0.3,0.1-0.6,0
			c-0.4,0-0.5,0-0.3,0.3c0.1,0.1,0.2,0.3,0.2,0.3s-0.2,0-0.5,0c-0.5-0.1-0.7-0.1-0.5,0.2l0.1,0.2c-0.3-0.1-1-0.4-1-0.4l-0.4,0.1
			C44.2,78.5,47.4,77.4,46.5,75.3L46.5,75.3z M62,72.8c0.5-0.4,0.3-0.9-0.5-1.3c-0.3-0.2-0.3-0.2-0.8,0.1c-0.6,0.4-0.6,0.4-0.2,0.8
			C61.1,73,61.7,73.1,62,72.8z M60.2,71.6c0.5-0.2,0.3-0.2,0.3-0.6c-0.1-0.5,0.2-0.6,0.3-1.1c0.1-0.3-0.2-0.2-0.6,0.3
			c-0.4,0.3-0.5,0.4-0.5,0.2c0-0.1-0.3-0.5-0.5-0.5c-0.2,0-0.2-0.1,0-0.4c0.4-0.5,0.5-1.1,0.3-1.7c-0.3-0.7-0.4-0.8-1.2-0.2
			c-0.4,0.3-0.9,0.6-1.2,1c-0.2,0.3-0.1,0.6,0.2,1.2C58.1,71.4,59.2,72.1,60.2,71.6z M62.8,71.6c0.8-0.3,0.5-1.2-0.8-2.1
			c-0.8-0.5-1-0.5-0.3,0c0.4,0.4,0.5,0.5,0.3,0.8c-0.1,0.2-0.3,0.5-0.2,0.7C62,71.4,62.4,71.8,62.8,71.6z M17.8,70.2l-0.9-0.6v0.8
			l0.9,0.5V70.2z M61.3,70.9c0.2-0.1,0.3-0.5,0.3-0.6c0-0.4-0.5-0.3-0.8,0.1C60.5,70.8,60.9,71.2,61.3,70.9z M63.2,69.7
			c0.4-0.4,0.2-0.9-0.6-1.4c-0.3-0.2-0.5-0.3-0.4,0.1c0,0.1-0.1,0.3-0.2,0.4c-0.3,0.3-0.2,0.4,0.6,0.9C63,69.9,63,69.9,63.2,69.7z
			 M17.8,68.9l-0.9-0.5V69l0.9,0.6V68.9z M15.9,69.6l0-0.7l-1.1-0.8l0,0.8L15.9,69.6z M60.2,69.3c-0.1,0.4,0.4,0.2,0.5,0.2
			c0.1-0.2,0-0.2,0-0.2C60.6,69.2,60.2,69.2,60.2,69.3z M60.5,68.8c0.2-0.1,0.2,0,0.2-0.4c0-0.5,0-0.6,0.4-0.8
			c0.3-0.2,0.3-0.2,0.3-0.5c0-0.4,0-0.6,0.6-0.7c0.2,0,0.3-0.1,0.4-0.3c0-0.3-0.4-0.8-1-1.1c-0.1,0-1.4,1.1-1.7,1.5l-0.2,0.2
			l0.3,0.5c0.4,0.8,0.3,1.1,0.1,2.1c0,0.3,0.2,0.2,0.2-0.1C60,69,60,68.9,60.5,68.8z M62.5,66.1c-0.1,0.6,0.2,1,0.5,0.7
			c0.2-0.2,0.3-1.5,0.2-1.8C62.5,64.3,62.5,65.9,62.5,66.1z M52.4,76.3c2.3-1.4,5.3-0.2,7-1.4c0.8-0.9,1.6-1.4,1.1-2
			c-0.3-0.5-0.6-0.5-0.6-0.5c0,0-1.2,1.1-3,0.8C53.9,73.2,52.5,74.1,52.4,76.3z M56.4,73.1c1.5,0.1,2.7-0.2,3.2-0.6
			c0.3-0.3,0.4-0.3-0.1-0.4c-1.1-0.1-2.3-1.4-2.7-2.7c-0.1-0.3-0.2-0.6-0.2-0.6c-3,2.4-9.7,6.3-9.7,6.3c0.4,2.1-1.1,3.3-3.1,2.6
			c-0.4,0-0.3,0.4-0.2,0.6c0.1,0.3,0.4,0.6,0.4,0.6c0.3,0.3,0.4,0.4,0.3,0.7c0,0.2,0,0.2,0.1,0.3c0.3,0.2,0.3,0.4,0.1,0.9
			c-0.2,0.7-0.2,0.8,0.3,1.2c0.6,0.4,1.9,0.8,1.7,1.4c-0.4,1.4-1.1,2.6-1.7,3.8c-0.2,0.4-0.2,0.9,0,1.2c0.2,0.4,0.2,0.9,0.5,1.3
			c1.5,2.3,2.9,4.3,4.3,6.3h14.5V62.4c0,0-2.4,2.2-2.4,2.4c0,0.2,0.5,0.5,0.8,0.5c0-0.1,0-0.5,0-0.6c0-0.2,0.7-0.2,0.9,0
			c0.2,0.1,0.1,0.9,0,1.6c-0.1,0.5-0.1,0.5,0.1,0.9c0.3,0.4,0.4,0.7,0.3,1.1c0,0.2,0,0.4,0,0.6c0.2,0.4,0.1,0.9-0.1,1.1
			c-0.3,0.3-0.3,0.4-0.2,0.6c0.2,0.6,0.1,1.2-0.6,1.5c-0.1,0-0.2,0.2-0.3,0.3c-0.3,1-0.9,1-1.7,0.7c-0.6,2.2-2.9,2.8-4.5,2.7
			c-1.7-0.1-3.5,0.1-4.3,1.2C52.3,74.3,53.5,73,56.4,73.1z M61.6,68.6c0.3-0.1,0.3-0.4,0.1-0.6c-0.4-0.3-0.8,0-0.6,0.4
			C61.2,68.7,61.3,68.7,61.6,68.6z M15.9,67.7l-1.2-0.8l0,0.7l1.2,0.7L15.9,67.7z M18.1,68.2l-0.8-1c-2.4-1.5-4.5-3.1-6.5-4.5l0,0.9
			l0.6,0.3c0,0,0-0.2,0.1-0.3c0.1-0.2,0.7,0.4,0.9,0.9c0.1,0.1,0.2,0.4,0.2,0.4l0.8,0.4l0-0.3c0-0.5,0.8,0.2,1.2,0.9
			c0.1,0.2,0.2,0.4,0.2,0.4l0.7,0.4c0.3-0.4,1,0.1,1.2,0.6c0.2,0.6,0.7,0.7,0.7,0.7L18.1,68.2z M13.8,68.1l0-0.7l-1.2-0.8l0,0.7
			L13.8,68.1z M63.4,68.2c0-0.2-0.1-0.9-0.4-0.9c-0.2,0-0.4,0.2-0.4,0.4C62.5,67.9,63.4,68.4,63.4,68.2z M62.4,67.3
			c0.3-0.3-0.1-0.7-0.5-0.5c-0.5,0.2-0.3,0.6,0.2,0.6C62.3,67.4,62.4,67.4,62.4,67.3z M13.7,66.8l0-0.7l-1.1-0.7l0,0.7L13.7,66.8z
			 M11.5,66.6l0-0.6l-0.7-0.5v0.8L11.5,66.6z M11.5,64.6l-0.7-0.5v0.7l0.8,0.4L11.5,64.6z M14.6,62.5c-0.1-0.2-0.4-0.9-0.4-0.9
			l-3.4-2.4V60L14.6,62.5L14.6,62.5z M13,56.9l0-0.3l-0.3,0.2L13,56.9z M12.3,57l-0.5,0.3l1.4,0.9l-0.1-0.7L12.3,57z M62,49.1
			l0.4-0.3l-0.7-0.4l0,0.4L62,49.1z M62.7,48.7l0.5-0.4l-1.6-1.1l0.1,0.7L62.7,48.7z M63.8,48.1v-0.5l-2.6-1.8l0.2,0.9
			c0.5,0.3,1,0.7,1.6,1.1C63.4,48,63.4,48.1,63.8,48.1z M63.8,47.2v-0.8l-3-2l0.2,0.9L63.8,47.2z M63.8,46l0-0.8l-3.7-2.4l0.4,1.1
			L63.8,46z M63.8,43.9l-4.6-3.1l0.6,1.2l4.1,2.7V43.9z M63.8,42.8L58,38.9l0.7,1.1l5.2,3.5V42.8z M63.8,41.5l-0.2,0
			c0,0.6-0.6,0.2-0.8-0.5c-0.2-0.4-0.2-0.5-0.2-0.5l-1.2-0.8c0,0.2,0.1,0.6,0.1,0.6l-0.8-0.5l-0.2-0.8l-1.4-0.9c0,0.2,0.1,0.4,0,0.4
			c0,0-0.4-0.2-0.6-0.5c-0.2-0.3-0.2-0.6-0.2-0.6l-1.1-0.7l-0.3,0c0,0-0.1-0.1-0.3-0.2c-0.3-0.5-0.6-0.5-0.9-0.7
			c0,0,0.8,0.9,1.2,1.4c0.4,0.5,0.8,0.8,0.8,0.8l6.2,4.1V41.5z M63.8,40.2l-0.5-0.3l0,0.8l0.4,0.3V40.2z M15.8,38.6
			c0,0-0.1-0.1-0.2-0.4c-0.3-0.7-0.4-1-0.2-1.8c0.1-0.4-0.2-0.5-0.4-0.1c-0.1,0.3-0.3,0.5-0.5,0.5c-0.2,0-0.2,0-0.1,0.3
			c0.1,0.3-0.1,0.7-0.4,0.8c-0.3,0.1-0.3,0.2-0.2,0.5c0.1,0.4-0.3,0.8-0.7,0.7c-0.5,0-0.3,0.5,0.3,0.9c0.2,0.2,0.3,0.3,0.5,0.2
			C14.4,39.7,15.3,39.1,15.8,38.6z M62.5,40.1l0-0.7l-1.4-0.9l0.2,1L62.5,40.1z M63.8,39.8V39l-0.6-0.4l0,0.8L63.8,39.8z M12.9,38.6
			c0.1,0.1,0.3,0.1,0.5,0c0.2-0.1,0.1-0.3-0.1-0.4C13,38.1,12.7,38.5,12.9,38.6z M12.4,38.3c0-0.2,0.2-0.4,0.3-0.4
			c0.3,0,0.2-0.2-0.1-0.4c-0.1-0.1-0.4-0.3-0.5-0.4c-0.5-0.3-0.9,0.2-0.6,0.6C11.9,38.3,12.3,38.5,12.4,38.3z M62.3,38.8L62.2,38
			L61,37.2l0.1,0.9L62.3,38.8z M17.9,36.8c0.1-0.1,0.1-0.2,0.1-0.4c0-0.5-0.3-1.1-0.6-1.6c-0.3-0.4-0.6-0.7-0.9-0.9
			c-0.9-0.5-2.2-0.3-2,0.3c0.1,0.4,0.1,0.8-0.3,1c-0.2,0.1-0.3,0.3,0,0.3c0.2,0,0.7-0.2,0.9-0.5c0.3-0.5,0.5-0.7,0.4,0
			c0,0.3,0,0.3,0.5,0.3c0.7,0,0.5,0.1,0.2,0.4c-0.6,0.4-0.7,1.2-0.4,1.8c0.2,0.4,0.3,0.6,0.5,0.5C16.7,37.9,17.5,37.2,17.9,36.8z
			 M60.2,37.8L59,37l0,0.9l1.3,0.8L60.2,37.8z M14,37c-0.4-0.6-1,0.2-0.6,0.5C13.6,37.7,14.2,37.4,14,37z M13,37.1
			c-0.1-0.2,0.3-0.5,0.3-0.6c0.1-0.3-1.2-1.2-1.6-0.7c-0.3,0.4-0.1,0.7,0.7,1.2C12.8,37.4,13.1,37.4,13,37.1z M60.1,36.5L59,35.8
			l0,0.7l1.2,0.7L60.1,36.5z M58.1,37.2v-0.7L57,35.7l0,0.8L58.1,37.2z M14.5,36.3c0.2-0.2,0.1-0.3-0.3-0.2c-0.2,0-0.3,0-0.3,0.1
			C13.9,36.4,14.3,36.5,14.5,36.3z M13.6,36c0-0.1-0.1-0.2-0.3-0.3c-0.4-0.4-0.5-0.6-0.1-0.9c0.6-0.4,0-1-0.7-0.8
			c-0.6,0.2-0.6,0.8-0.2,1.1C12.7,35.5,13.5,36.3,13.6,36z M58.1,35.3L57,34.5v0.7l1.1,0.6V35.3z M13.8,35.3c0.5-0.3,0.5-0.9,0-0.6
			c-0.2,0.1-0.5,0.4-0.5,0.5C13.4,35.4,13.6,35.4,13.8,35.3z M14.2,33.9c0.6-0.3,0.5-0.7-0.1-1.1c-0.8-0.4-1.3,0.4-0.7,1
			C13.7,34.1,13.8,34.1,14.2,33.9z M15,33.2c1-1.1,1.7-1.1,3.1-1c3.5,0,4.6-1.7,4.5-2.8c-1.7,0.9-3.2,0.4-4.9,0.6
			c-2.8,0.6-3.1,2-3.3,2.7L15,33.2z M29.1,29.5c0.9,0,0.9,0,0.5-0.7c0.9,0.1,1.2,0.5,0.9-0.3c0.5,0.2,0.7,0.3,1.2,0.5l0.3-0.2
			c-1.9-1.8-3.9-0.3-3.4,1.6l0.7-0.3L29.1,29.5z"/>
		<path class="st7" d="M33.7,96.2l0.4-2.1l3.9,0.2c0,0,0.5,1.3,0.6,1.9L33.7,96.2z M24.7,96.1l2.1-3.4l2.9,0.8L29,96.2L24.7,96.1z
			 M30.4,96.2l0.9-3.6c-1.7-0.4-3.2-0.6-5.1-1.1l-3,4.7l-1.8,0c1.6-2.1,4.4-6.3,4.4-6.3c6.5,2.2,13.1,2.6,19.7,1.4
			c0,0,2.4,3.2,3.3,5l-1.7-0.1l-2.1-3.6c-1.5,0.2-2.9,0.4-4.5,0.4l1.1,3.2l-1.7,0l-1-3.1c-1.9-0.1-3.4,0.1-5.6-0.3l-0.8,3.4
			L30.4,96.2z M42.7,96.2l-0.6-2.2l2.1-0.2c0,0,1,1.7,1.5,2.5L42.7,96.2z M23.9,75.4c2.6-4,11.8-16.7,11.8-16.7l1.3,0.1
			c0,0-8.2,11.5-12.2,17.3L23.9,75.4z M10.6,69.2l3.2,2.3l0,18l-3.3,2.3L10.6,69.2z M23.9,39.7l1.9,3.8c-8.2,7.8-6.6,17-2.2,23.6
			c0,0-0.6,1.5-1.8,3c-6-4-7.8-14.2-7.8-14.3C20.7,49.9,21.6,48,23.9,39.7z M57.6,67.8c0.4-5.8,3.3-9.6,6.4-11.9l0.2,5.9
			C62.2,63.8,60,65.8,57.6,67.8z M49,61.9c7.2-6.8,7.5-16.4,2.2-23.4l2.2-3c3.1,3.3,6,6.7,7.3,14.7c-4.6,3.6-8.6,9.6-9.7,15.6
			L49,61.9z M39.1,54.1l0-2.8l2.7,0L41.7,54L39.1,54.1z M33.4,54l0-2.8l2.7,0l0,2.8L33.4,54z M38,46.7c0,0,9-12.6,12.5-17.1l0.7,0.6
			L39.3,46.7L38,46.7z M17.1,37.9c0,5-3.2,8.9-6.4,11.5l0-5.6L17.1,37.9z M64.1,13.9l0,22l-3-1.8l0.3-18.5L64.1,13.9z M49.7,15.2
			c-6.8-1.8-13.1-2.3-19.6-0.9c-0.9-1-3.7-5.3-3.7-5.3l1.7,0l2.3,3.8l4.5-0.6l-1.1-3.1l1.8,0l0.9,3c0,0,3.6,0,5.6,0.3
			c0.3-1.1,0.9-3.3,0.9-3.3l2,0c-0.3,1.1-1,3.6-1,3.6c1.7,0.2,4.7,1,4.8,1c1.1-1.5,2.1-3.1,3.1-4.6l2,0
			C53.3,10.2,49.8,15.3,49.7,15.2z M48.4,12.6l-3-0.7l0.8-2.7l4.2,0L48.4,12.6z M31.1,11.6l-1.4-2.5h2.7l0.9,2.2L31.1,11.6z
			 M37.2,11.1l-0.4-2h4.9l-0.5,2.1L37.2,11.1z"/>
		<path class="st3" d="M26,9l4.4,6.3c0,0,2.4-0.5,4.8-0.6c2.4-0.1,5.2,0,5.2,0.1c0,0,0.7,2.3,1,3.4c0.3,1.5,0.3,3.2-0.1,4.3
			c-0.5,1.7-0.8,2.2-1.9,3.3c-0.9,0.8-2.1,1.7-3.3,2.2c-1.7,0.7-1.9,0.7-2.9,0.8c-0.7,0-0.7,0.1-1.1,0.2c-0.1,0-0.2,0.2-0.3,0.2
			l-0.2,0c-5.6,2.5-10,5.2-13.3,7.7l-0.1,0.2c-0.3,0.2-0.5,0.4-0.8,0.6l-0.2,0c-3.9,3-6.1,5.5-6.9,6.2l0.1,14c0,0,1.8-0.9,2.7-1.5
			c0.6,5.4,3.3,10.7,7.6,14.4l-1.9,2.6l-8.5-5.9l0.1,25.9l4.5-3.2v-2.7c1.4,0.9,2.7,1.3,3.6,5.4c0.8-1.5,0.7-3.6,0.4-5.1
			c0,0,1.2-0.9,1.5-1.7l-1.7-1.5c0,0,0.4-3.6-0.4-4.4c-0.6,1.6-1.1,3.4-3.5,4.7l0-12.6c1.2,0.7,2.3,1.6,3.4,2.3l0.2,0l1.2,0.8
			c0,0-0.1,0.3-0.2,0.4c-1.5,2.2,1,4.9,2.9,3.3c0.8-0.6,2.2,2,2.5,4.6c0.3,1.7,0.4,3.7,0.9,5.1c0.1,0.4,0.1,0.7-0.2,0.9
			C24,91.9,21,96.2,21,96.2h2.2l0.2-0.3h-1.6c1.4-1.9,2.7-4,4.2-5.8c5.4,2,14.2,2.5,19.5,1.3c1.1,1.5,2.2,3.2,3.2,4.7h-1.5l0.2,0.3
			h2.1L45,90.1c-3,0.9-10.3,0.5-10.2,0.5c0,0,0,0-0.3-0.8c-1.3-4.1-1.4-7.7,1.8-10.6c1.7-1.5,3.5-2.5,5.6-2.3c0.9,0,1-0.1,1.3-0.2
			c0.2-0.1,0.7-0.2,0.7-0.2l2.1-1.2l0.3-0.1l0.6-0.3l0.1-0.1l1-0.5l0.1,0l1.3-0.8l0-0.1L50,73l0.1,0.1c0.1,0,5.2-3.3,7.3-5.2l0.1,0
			c2.5-2,5.8-5.2,6.8-6.4l-0.1-6l-0.1-0.1l0-6.7h-0.2l0-0.8c-1.1,0.4-2.3,1.4-2.4,1.4c-0.7-5.6-3.3-10.8-7.5-14.6l1.8-2.5l8.4,5.6
			l0-1.6h0.1c0.1-6.3,0.2-22.7,0.2-22.7l-0.1,0l0-1.3l-4.3,2.7l-0.1,2.8c-1.9-0.6-3.1-2.9-3.5-4.9c-0.6,0.2-0.8,2.4-0.6,5.1
			c-0.6,0.4-1,0.7-1.3,1.2c0.5,0.6,1,1.1,1.5,1.6C56.2,21,56,24.6,56.2,25c0.1,0.3,0.5,0.3,0.5-0.1c0.6-2.8,3.2-4.7,3.4-4.5l-0.1,13
			l-4.7-3.3c1-1.1,1.2-3,0-4c-1.3-0.9-2.5-0.1-2.8,0.5c-1.5-1-2.1-4.7-2.3-6.2c-0.1-0.7-0.2-1.7-0.4-2.5c-0.1-0.5-0.3-1.1-0.3-1.6
			c0-0.2,0-0.3,0.2-0.6l4.6-6.6l-2.4,0l0,0l1.9,0l-4.2,5.9c-6.3-2-12.7-2.4-19.7-1.2l-3.4-4.8l1.6,0L28,9L26,9L26,9z M29.6,9
			l0.1,0.1l2.7,0l0-0.1L29.6,9z M33.6,9.1l0.1,0.1l1.8,0l-0.1-0.1L33.6,9.1L33.6,9.1z M43,9.1L43,9.1l2,0.1l0-0.1L43,9.1z M36.8,9.1
			L36.8,9.1l4.9,0.1l0-0.1L36.8,9.1L36.8,9.1z M46.2,9.1L46.2,9.1l4.2,0.1l0-0.1L46.2,9.1L46.2,9.1z M64,12.8l0,0.9l-2.8,1.8
			C61.1,19.3,61,33.9,61,33.9l-0.7-0.4l0.1-18.3C60.5,15.1,63,13.5,64,12.8L64,12.8z M56.6,13.5L56.6,13.5l0.1,0.2h-0.2L56.6,13.5z
			 M56.8,14l0.1,0.3l-0.4,0l0.1-0.3L56.8,14L56.8,14z M63.9,14.2v0.6l-2.4,1.5v-0.6L63.9,14.2z M56.4,14.6l0.6,0l0.1,0.3h-0.8
			L56.4,14.6z M40.7,14.8l0.4,0.1c1,2.3,1.2,4.4,1.4,6.5c0.4,2.7,1.2,5.4,1.7,6.6l-0.6,0c-0.1,0-1.4-3.9-1.7-6.3
			c-0.1-0.5,0-0.9-0.1-1.3C41.7,18.5,41.5,17.2,40.7,14.8L40.7,14.8z M41.5,14.9L42,15c0.4,1.7,0.9,3.2,1.2,4.9
			c0.4,2.7,0.6,5.4,1.8,8l-0.5,0c-0.8-1.8-1.3-3.6-1.6-5.7c-0.2-1.2-0.2-2-0.4-3.1C42.4,17.9,42,16.4,41.5,14.9L41.5,14.9z M42.3,15
			l0.5,0.1c0.4,1.7,1,3.5,1.1,5c0.3,3,0.8,5.9,1.8,7.9l-0.4,0c-1.5-2.9-1.5-5.4-1.9-8.1C43.2,18.2,42.7,16.6,42.3,15L42.3,15z
			 M43.2,15.1l0.5,0.1c0.3,1.6,0.9,3.5,1.1,5.2c0.2,3,0.8,5.2,1.9,7.6l-0.5,0c-1.3-2.3-1.5-5.2-1.9-8.1C44,18.3,43.5,16.7,43.2,15.1
			z M63.9,15.1v0.7l-2.4,1.6v-0.7L63.9,15.1z M44,15.3l0.5,0.1c0.3,1.6,0.9,3.3,1.1,4.8c0.2,2.6,0.7,5.3,1.8,7.8l-0.5,0
			c-1.1-2.5-1.6-4.7-1.9-7.6C44.9,18.8,44.3,16.8,44,15.3z M57.3,15.3l0.2,0.4l-1.2,0.1l0-0.5L57.3,15.3L57.3,15.3z M44.8,15.4
			l0.6,0.1c0.6,2.5,0.8,4.9,1.2,7.3c0.5,3,1.1,4.5,1.6,5l-0.5,0c-1.2-2.6-1.6-5.2-1.9-7.8C45.6,18.5,45.1,17,44.8,15.4z M45.7,15.6
			l0.5,0.1c0.5,2.1,0.8,4,1,5.9c0.4,3.6,1.6,6.3,1.9,6.4l-0.5,0c-1.1-1.5-1.5-4.1-2-7.7C46.3,18.6,46.1,17.1,45.7,15.6z M46.5,15.7
			l0.5,0.1c0,0,0.5,1.8,0.8,4.2c0.3,2,0.4,6,2.6,8.2c1.1,1.1,3,2.1,4.3,1.1c0.6-0.5,0.9-1.2,0.6-2.1c-0.6-1.4-2.5-1.1-1.8,0.3
			c0.1,0.3-0.4,0.4-0.7,0c-0.3-0.4-0.2-0.8,0-1.1c0.5-0.8,1.8-0.9,2.6-0.2c1.2,1.2,0.7,3.3-0.9,4c-1.8,0.8-4.1-0.8-5-2.3
			c-1.5-2.6-1.8-5.1-2.1-7.8C47.1,18.7,46.8,17.2,46.5,15.7L46.5,15.7z M47.2,15.9l0.5,0.1c0,0,0.6,2.6,0.8,4.1
			c0.2,1.9,0.5,4.1,1.3,5.8c0.5,1.1,1.2,2,2,2.5c0.6,0.4,1.2,0.7,2,0.5c1-0.2,1-1.7,0.1-1.7c-0.5,0-0.2-0.5,0.2-0.5
			c1.4,0,1.4,2.2,0.1,2.6c-1.5,0.6-3.1-0.5-4.1-1.8c-1.8-2.7-1.7-5.2-2.1-7.4C47.9,19,47.3,16,47.2,15.9z M57.7,16l0.3,0.4l-1.8,0
			l0-0.4L57.7,16L57.7,16z M48,16.2l0.5,0.2c0,0,0.5,2,0.8,4.3c0.4,2.3,0.5,4.1,1.6,5.8c0.5,0.7,1.4,1.6,2,1.7
			c0.4,0.1,0.7,0,0.8-0.3c0.1-0.4,0.5-0.2,0.5,0.2c0,0.3-0.2,0.6-0.6,0.7c-1.7,0.3-3.3-1.9-3.8-3c-0.6-1.6-0.9-3.4-1.2-5.6
			C48.6,19.2,48.1,16.2,48,16.2z M63.9,16.2l0,0.7l-2.4,1.5v-0.7L63.9,16.2z M48.8,16.4l0.6,0.2c0,0,0.5,1.7,0.7,3.9
			c0.3,2.2,0.9,4.7,2,6c0.1,0.1,0.2,0.2,0.2,0.3c0.1,0.2,0,0.5-0.1,0.5c-2-1-2.5-5.3-2.7-6.7C49.3,18.4,48.8,16.4,48.8,16.4z
			 M56.6,16.7l1.8,0.1l0.4,0.4l-2.3,0C56.2,16.9,56.3,16.9,56.6,16.7z M63.9,17.3v0.6l-2.4,1.6v-0.6L63.9,17.3z M56.6,17.5l2.6,0
			l0.9,0.5l-4,0L56.6,17.5L56.6,17.5z M63.9,18.2V19l-2.4,1.5v-0.7L63.9,18.2z M55.7,18.4l4.4,0l0,0.5l-4.8-0.1L55.7,18.4z
			 M55.1,19.2l5,0l0,0.5l-4.5,0L55.1,19.2L55.1,19.2z M63.9,19.3V20l-2.4,1.5v-0.7L63.9,19.3z M56,20.1l3.8,0l-0.4,0.4l-2.9,0
			L56,20.1L56,20.1z M63.9,20.3V21l-2.4,1.5v-0.7L63.9,20.3z M58.9,20.9l-0.5,0.5l-2,0l0.1-0.4L58.9,20.9z M63.9,21.4v0.8l-2.4,1.5
			V23L63.9,21.4z M56.4,21.6l1.6,0L57.8,22l-1.4,0L56.4,21.6L56.4,21.6z M41.7,22.2c0.2,1.9,1.6,5.7,1.6,5.7l-0.5,0
			c0,0-1-2.4-1.3-4.7C41.4,23,41.6,22.3,41.7,22.2L41.7,22.2z M56.3,22.3l1.3,0l-0.3,0.5l-1,0L56.3,22.3L56.3,22.3z M63.9,22.5v0.7
			l-2.4,1.5V24L63.9,22.5z M56.3,23.1l0.8,0l-0.2,0.5l-0.6,0L56.3,23.1z M63.9,23.5v0.7l-2.4,1.5V25L63.9,23.5z M41.2,23.6
			c0.2,1.4,1.3,4.1,1.4,4.3l-0.5,0c0,0.1-1.1-2.5-1.2-3.6C40.9,24.2,41,23.7,41.2,23.6L41.2,23.6z M56.3,23.9l0.5,0l-0.1,0.3l-0.4,0
			L56.3,23.9L56.3,23.9z M56.3,24.5l0.3,0l-0.1,0.2h-0.2L56.3,24.5L56.3,24.5z M63.9,24.5v0.6l-2.4,1.6v-0.5L63.9,24.5z M40.6,24.6
			c0.4,1.1,0.7,2.2,1.2,3.3l-0.5,0c-0.4-0.8-0.6-1.7-0.9-2.5C40.3,25,40.4,24.7,40.6,24.6L40.6,24.6z M40.1,25.3l0.9,2.6h-0.5
			c-0.2-0.5-0.5-1.1-0.6-1.6C39.7,25.7,39.7,25.7,40.1,25.3z M63.9,25.5v0.7l-2.4,1.5v-0.6L63.9,25.5z M39.5,26
			c0.1,0,0.1,0.1,0.2,0.4l0.5,1.4l-0.6,0c-0.2-0.4-0.3-0.8-0.3-1.3c0-0.2-0.1-0.4,0.1-0.5L39.5,26L39.5,26z M38.8,26.6
			c0.1,0,0.1,0.2,0.2,0.5l0.3,0.8l-0.6,0c-0.2-0.4-0.2-0.7-0.2-1.1C38.6,26.6,38.7,26.6,38.8,26.6L38.8,26.6z M63.9,26.6v0.7
			l-2.4,1.5v-0.7L63.9,26.6z M38.2,27.1l0.2,0.8l-0.5,0c-0.1-0.2,0-0.4,0-0.6L38.2,27.1z M37.5,27.5L37.5,27.5c0.1,0.4,0,0.4,0,0.4
			l-0.8,0C36.7,27.9,37.3,27.5,37.5,27.5L37.5,27.5z M63.9,27.7v0.6l-2.4,1.5v-0.6L63.9,27.7z M34.9,28.6l14.7,0l0.5,0.7
			c0,0-1.4,0-6.1,0c-3.9,0.1-11.9-0.1-11.9-0.1l0.8-0.4C33.9,28.9,34.9,28.6,34.9,28.6z M63.9,28.7v0.6l-2.4,1.5v-0.6L63.9,28.7z
			 M22.6,29.3c-1.2,0.5-2.3,0.7-3.1,0.6c-1.8-0.1-4.5,0.6-5,2.3c-0.2,0.6-0.2,0.6,0.2,0.9c0.2,0.2,0.3,0.3,0.3,0.3
			c0.3-0.3,0.7-0.7,1.1-0.9c0.5-0.2,0.8-0.2,1.7-0.2c1.9-0.1,2.3-0.2,2.8-0.3c1-0.3,2.1-1.3,2.1-2.4C22.6,29.4,22.6,29.3,22.6,29.3z
			 M22.6,29.4c-0.2,2.4-2.8,2.7-3.9,2.6c-2.3-0.1-3.2,0.5-3.5,1C15,33.1,15,33.1,15,33c0.3-1.3,2.4-1.4,3.4-1.3
			c2.6,0.1,3.3-1.1,3.2-1.2c-0.2,0.1-0.3,0.2-0.5,0.3c-0.1,0-0.1,0-0.3-0.1c0,0-0.3,0.6-0.6,0c0,0-0.2,0.5-0.7,0.1
			c0,0-0.3,0.4-0.7,0c-0.4,0.4-0.6,0.2-0.8-0.1c-0.1,0.1-0.5,0.6-0.8,0c-0.3,0.2-0.5,0.5-0.8,0.3c-0.7,0.1-1.3,0.8-1.5,1.5
			c-0.1,0.2-0.2,0.3-0.2,0c-0.1-0.7,1-1.9,2.1-2.2c0.9-0.3,1.5-0.4,3.4-0.4C21.2,30,22.6,29.4,22.6,29.4z M50.4,29.6l0.7,0.5
			l-12,16.6l-1.1,0L50.4,29.6z M31.2,29.6h1.4v2.3h-1.2L31,31.3c0.1,0.1,0.2,0.1,0.4,0.1c0.4,0,0.7-0.3,0.7-0.7
			c0-0.4-0.3-0.7-0.7-0.7c-0.4,0-0.7,0.3-0.7,0.7l0,0.1l-0.4-0.7c0,0,0.2-0.1,0.6-0.3C30.9,29.7,31.2,29.6,31.2,29.6z M35.4,29.6
			h2.3v2.3h-2.3V29.6z M40.5,29.6h2.4v2.3l-2.4,0V29.6L40.5,29.6z M45.6,29.6H48v2.3h-2.4V29.6z M63.9,29.7l0,0.7l-2.4,1.5v-0.7
			L63.9,29.7z M46.7,29.9c-0.4,0-0.8,0.3-0.8,0.8s0.3,0.8,0.8,0.8c0.4,0,0.8-0.3,0.8-0.8S47.1,29.9,46.7,29.9z M36.6,30
			c-0.4,0-0.8,0.3-0.8,0.8s0.3,0.8,0.8,0.8c0.4,0,0.8-0.3,0.8-0.8S37,30,36.6,30z M41.6,30c-0.4,0-0.8,0.3-0.8,0.8s0.3,0.8,0.8,0.8
			c0.4,0,0.8-0.3,0.8-0.8S42,30,41.6,30z M44.2,30.1c0.4,0,0.6,0.3,0.6,0.6s-0.3,0.6-0.6,0.6s-0.6-0.3-0.6-0.6
			C43.5,30.4,43.8,30.1,44.2,30.1z M34,30.1c0.4,0,0.6,0.3,0.6,0.6c0,0.4-0.3,0.6-0.6,0.6c-0.4,0-0.6-0.3-0.6-0.6S33.6,30.1,34,30.1
			z M49.3,30.1c0.2,0,0.3,0.1,0.4,0.2l-0.7,1c-0.2-0.1-0.3-0.3-0.3-0.5C48.7,30.4,49,30.1,49.3,30.1z M39.2,30.1
			c0.4,0,0.6,0.3,0.6,0.6s-0.3,0.6-0.6,0.6c-0.4,0-0.6-0.3-0.6-0.6C38.5,30.4,38.8,30.1,39.2,30.1z M31.3,30.1
			c0.3,0,0.5,0.2,0.5,0.5c0,0.3-0.2,0.5-0.5,0.5c-0.3,0-0.5-0.2-0.5-0.5C30.9,30.4,31.1,30.1,31.3,30.1z M29.9,30.2
			c4.1,5.3,6.3,10.6,7.3,16.4l-0.7,0c-1.1-6.3-3.7-11.7-7.2-16.1L29.9,30.2L29.9,30.2z M46.7,30.2c0.3,0,0.5,0.2,0.5,0.5
			s-0.2,0.5-0.5,0.5c-0.3,0-0.5-0.2-0.5-0.5S46.4,30.2,46.7,30.2z M36.6,30.2c0.3,0,0.5,0.2,0.5,0.5c0,0.3-0.2,0.5-0.5,0.5
			c-0.3,0-0.5-0.2-0.5-0.5C36,30.4,36.3,30.2,36.6,30.2z M41.6,30.2c0.3,0,0.5,0.2,0.5,0.5s-0.2,0.5-0.5,0.5c-0.3,0-0.5-0.2-0.5-0.5
			S41.3,30.2,41.6,30.2z M54.4,30.6c0.3,2.1-0.3,3.4-1.8,3.6c-2,0.3-2.3,0.4-2.3,2.3c0,2.3-0.3,2.9-2,3.1c-1.8,0.2-2.2,0.4-2.1,2.7
			c0.1,1.6-0.5,2.3-1.9,2.6c-1.1,0.2-2,0.6-2.4,1.7l-1,0c0.3-1.7,2-2.6,3.1-2.6c1.2-0.3,1.4-0.7,1.3-2.8c-0.1-1.6,0.4-2.1,2.3-2.4
			c1.5-0.3,1.8-0.7,1.8-1.9c-0.2-2.6,0-3,1.5-3.3c0.8-0.2,2-0.3,2.4-0.8c0.5-0.7,0.4-1.2,0.3-2L54.4,30.6L54.4,30.6z M63.9,30.7v0.7
			l-2.4,1.5v-0.7L63.9,30.7z M28,31.1c-0.5,2.3,1.3,2.8,2.4,3.1c1.3,0.4,1.6,1.1,1.4,3.3c-0.1,1.7,0.1,2.1,1.2,2.7
			c1.7,0.9,2.1,2.1,1.4,3.9c-0.5,1.1-0.2,1.4,0.1,2.4l-0.8,0c-0.1,0-0.7-1.2-0.2-2.5c0.7-1.6,0.7-2.4-0.9-3.1
			c-1.2-0.5-1.6-1.1-1.6-2.2c0-0.5,0-0.7,0.1-1.7c0.1-1.3-0.3-1.9-2.2-2.6c-0.9-0.3-1.4-1.1-1.6-2.2c0-0.3,0-0.7,0-0.7L28,31.1
			L28,31.1z M56.7,31.3l7.3,4.9l-0.1,1.1l-7.7-5.2L56.7,31.3z M52,31.4c0.4,0,0.6,0.3,0.6,0.6c0,0.4-0.3,0.6-0.6,0.6
			s-0.6-0.3-0.6-0.6C51.3,31.7,51.6,31.4,52,31.4z M29,31.7c0.3,0,0.6,0.3,0.6,0.6c0,0.3-0.3,0.6-0.6,0.6c-0.3,0-0.6-0.3-0.6-0.6
			C28.5,32,28.7,31.7,29,31.7z M63.9,31.8l0,0.7l-2.4,1.5v-0.7L63.9,31.8L63.9,31.8z M31.6,32.2h16.6l-0.4,0.6L32,32.6L31.6,32.2z
			 M25.9,32.2c2.2,2.9,4.4,5.8,6,11.4l-0.7,0.3c-1.4-4.5-3.5-8.2-6-11.3L25.9,32.2L25.9,32.2z M63.9,32.7v0.7l-1.8,1.1l-0.5-0.4
			L63.9,32.7z M24.9,32.8l0.3,0.4c0,0-0.4,0.3-0.8,0.6c-1.1,0.8-1.2,0.9-1.3,1.4c-0.2,1.2,1.1,1.8,2.3,1.1c0.4-0.2,1.4-0.8,1.4-0.8
			l0.3,0.4c0,0-1.4,1-2.2,1.3c-1.8,0.5-3.1-1.8-1.8-3.1c0.2-0.2,0.6-0.5,1-0.7C24.5,33.1,24.9,32.8,24.9,32.8z M32.3,33.1l15.3,0.1
			l-9.8,13.4l-0.4,0C36.7,41.6,34.8,37.2,32.3,33.1L32.3,33.1z M25.7,33.7l0.9,1.3c0,0-0.6,0.6-1.5,1.1c-0.8,0.4-1.6-0.3-1.1-1
			C24.4,34.3,25.7,33.7,25.7,33.7z M63.9,33.8v0.7l-1.1,0.7l-0.5-0.3L63.9,33.8z M25.5,34.3c-0.4,0-1.1,0.5-1.4,0.9
			c-0.1,0.2-0.1,0.3,0,0.5c0.1,0.2,0.3,0.2,0.8-0.1c1-0.6,1.2-0.9,0.8-1.2L25.5,34.3L25.5,34.3L25.5,34.3z M25.5,34.6l0.2,0
			c0.2,0.1,0.1,0.3-0.1,0.4c0-0.1-0.4-0.1-0.3,0.2c-0.1,0.2-0.1,0.2-0.3,0.2c-0.2,0-0.3,0.1-0.3,0.1c-0.2,0.1-0.4,0.1-0.4,0
			c0-0.1,0.1-0.4,0.2-0.4c0.1,0,0.1-0.1,0.2-0.1c0-0.2,0.2-0.2,0.3-0.2c0.1,0,0.3,0,0.3-0.1L25.5,34.6z M63.9,34.7v1l-0.8-0.5
			L63.9,34.7z M21.5,34.9c2.8,3.3,4.8,6.8,6.1,11.7L27,46.9c-0.8-3.4-2.1-7-6-11.7L21.5,34.9z M54.1,34.9c1.3,1.1,6.4,6,7.4,14.6
			L60.8,50c-0.6-4.6-2.3-9.8-7.2-14.5L54.1,34.9z M51.6,35.2c0.4,0,0.6,0.3,0.6,0.6c0,0.4-0.3,0.6-0.6,0.6c-0.4,0-0.6-0.3-0.6-0.6
			S51.2,35.2,51.6,35.2z M20.7,35.5c0,0,0.6,0.6,0.6,0.7c0,0.3-0.2,0.4-1.6,0.9c-0.2,0.1-1.2,0.3-1.2,0.3l0-0.5
			c0.5-0.2,1.9-0.5,2-0.8c0-0.1-0.2-0.4-0.1-0.4L20.7,35.5z M30,35.6c0.3,0,0.6,0.3,0.6,0.6s-0.3,0.6-0.6,0.6
			c-0.3,0-0.6-0.3-0.6-0.6S29.7,35.6,30,35.6z M53.5,35.7c4.2,4.1,6.5,9.2,7.1,14.5c-4.9,4-8.2,9-9.6,15.3c-0.7-1.1-1.2-2.4-1.8-3.6
			c6.5-5.8,7.9-16.2,2.3-23.4L53.5,35.7L53.5,35.7z M27.7,36.5L28,37c0,0-0.1,0.1-1,0.6c-1.3,0.8-1.6,1.4-1.1,2.2
			c0.5,0.9,1,0.9,2.4,0.2c0.5-0.2,0.9-0.5,0.9-0.5l0.2,0.5c0,0-0.6,0.5-1.9,1c-1.2,0.4-2.3-0.3-2.5-1.7c-0.2-1,0.3-1.5,2-2.5
			C27.3,36.8,27.7,36.5,27.7,36.5z M47.8,36.8c0.4,0,0.6,0.3,0.6,0.6c0,0.4-0.3,0.6-0.6,0.6c-0.4,0-0.6-0.3-0.6-0.6
			S47.4,36.8,47.8,36.8z M21.7,36.8l0.4,0.4c0,0-0.2,0.2-1.1,0.8c-0.9,0.5-0.9,0.4-0.5,0.8c0.8,0.7,1.9,2.2,1.9,2.5
			c0,0.4-0.3,0.7-1,1c-0.3,0.2-1.7,0.6-1.9,0.7c-0.4,0-0.5,0.2-0.1,0.6c0.7,0.8,1.3,2.5,1,3c-0.3,0.6-0.6,0.7-3.1,0.8
			c-0.3,0-0.4-0.1-0.3,0.3c0.1,0.3,0.2,0.6,0.5,1.8c0.2,1,0.2,1.5-0.2,1.7c-0.2,0.1-2,0.1-2.7-0.1c-0.8-0.2-0.9-0.2-0.8,0.4
			c0.2,0.7,0.3,2.8-0.3,3.1c-0.2,0.2-0.5,0.1-1.5-0.2c-0.7-0.2-1.2-0.5-1.2-0.5l0-0.6c0.5,0.2,2,0.9,2.4,0.7
			c0.5-0.7-0.2-3.2-0.5-3.7c-0.3-0.6,0-0.8,0.7-0.4c0.4,0.3,3.7,1.6,3.5,0.4c-0.2-1.1-0.6-2.4-1.3-3.2c-0.6-0.7-0.3-1,0.4-0.7
			c1.3,0.6,3.9,0.4,3.8-0.2c-0.2-1-1-2.3-2.2-3.3c-0.3-0.3-0.3-0.4,0-0.5c1.1-0.1,4.3-0.4,3.8-1.2c-0.4-0.6-0.9-1.3-1.3-1.7
			c-0.7-0.6-1.4-0.9-1.7-1l0-0.5C19.9,38,20.7,37.5,21.7,36.8L21.7,36.8z M18.2,37.2c-0.5,5.5-2.8,10-7.5,13.1l0-0.6
			c4.1-3.1,6.1-7.5,6.6-11.8L18.2,37.2z M22.2,37.5l0.4,0.3c0,0-0.1,0.2-0.7,0.6c-0.4,0.3-0.3,0.2,0,0.6c0.3,0.3,0.7,0.9,0.7,0.9
			l-0.1,0.8c-0.5-0.7-0.9-1.2-1.6-2c-0.4-0.4-0.3-0.4,0.2-0.7C21.5,38,21.8,37.7,22.2,37.5z M28.2,37.6L28.2,37.6
			c0,0,0.8,1.4,0.8,1.5c-0.4,0.4-1.6,1-2.1,0.9c-0.7-0.2-0.9-1-0.1-1.5C27.4,38,28.1,37.6,28.2,37.6L28.2,37.6L28.2,37.6z M32.8,38
			c0.3,0,0.6,0.3,0.6,0.6c0,0.3-0.3,0.6-0.6,0.6s-0.6-0.3-0.6-0.6S32.4,38,32.8,38z M28.1,38.1c-0.6,0.1-1.1,0.6-1.4,0.9
			c-0.1,0.1,0,0.5,0.1,0.6c0.1,0.2,0.4,0.1,0.7,0c0.1-0.1,0.4-0.2,0.5-0.3c0.4-0.2,0.6-0.3,0.6-0.5C28.5,38.5,28.3,38.1,28.1,38.1z
			 M17,38.3c0.1,0.6-0.2,1.7-0.5,2.3c-1.2,1.6-3,2.4-4.7,3c-0.4,0.1-0.9,0.1-0.9,0.1C13.3,41.2,15.3,39.4,17,38.3z M28.1,38.3
			c0.2,0,0.3,0.2,0.2,0.3c-0.3,0.1-0.4,0-0.4,0.2c0,0,0,0.3-0.4,0.3c-0.1,0-0.3,0-0.3,0C27,39.4,26.7,39.1,27,39
			c0.1,0,0.3-0.1,0.3-0.2c0-0.2,0.2-0.3,0.3-0.2c0.1,0,0.2,0,0.3-0.1C27.9,38.3,28,38.3,28.1,38.3L28.1,38.3L28.1,38.3z M12.1,38.6
			l-0.1,0c-0.1,0.1-0.3,1.8-0.2,1.9c0.2,0.2,0.6,0.2,0.7,0c0.1-0.7,0.1-1.2,0.2-1.7C12.7,38.7,12.3,38.6,12.1,38.6L12.1,38.6z
			 M12.3,38.8c0.1,0,0.1,0.1,0.1,0.2c0,0.3,0,0.9-0.1,1.2c-0.1,0.3-0.3,0.2-0.3,0c-0.1-0.2,0-0.9,0.1-1.2
			C12.2,38.8,12.3,38.8,12.3,38.8z M23.2,38.8l0.4,0.5c-0.9,8.1-6.7,15.2-12.8,18l0-0.5C17.9,53,22.1,46.8,23.2,38.8z M51.3,38.8
			l0.8,1.1l-1.1,0L51.3,38.8z M18.3,39.2c0.4,0,2.4,1.2,2.1,1.9c-0.2,0.5-1.9,0.5-2.7,0.5l0.1-0.5c0,0,0.2,0.1,1.1,0
			c0.9-0.1,0.9-0.4-0.2-1.1c-0.5-0.3-0.6-0.4-0.6-0.4L18.3,39.2L18.3,39.2z M23.9,39.8c0.6,1.1,1.2,2.2,1.8,3.6
			c-7.6,7.2-7,17-2.2,23.5l-2.1,2.8c-4.1-4-6.4-8.8-7.2-14C20.3,51.3,23.1,44.8,23.9,39.8L23.9,39.8z M52.2,40.2l0.5,0.9l-1.1,0
			L52.2,40.2z M47.5,40.6c0.4,0,0.6,0.3,0.6,0.6s-0.3,0.6-0.6,0.6s-0.6-0.3-0.6-0.6C46.9,40.9,47.2,40.6,47.5,40.6z M29.8,40.8
			l0.2,0.5c0,0.1-1.5,0.6-2,1.2c-0.5,0.6-0.4,1.2-0.2,1.6c0.4,0.6,0.8,0.7,1.5,0.5c0.6-0.2,1.1-0.4,1.7-0.7L31,44
			c0,0-0.9,0.5-1.5,0.9c-0.2,0.1-0.5,0.2-0.8,0.2c-1.5,0-2.3-2-1.1-3.1c0.2-0.2,0.8-0.5,1.3-0.8C29.3,41,29.8,40.8,29.8,40.8z
			 M49.7,41.1c5,7.2,1.6,15.1-1.6,17.9L48,58.1c5.4-6.2,3.5-13.4,1.3-16.6L49.7,41.1L49.7,41.1z M52.9,41.4l0.4,0.9l-1.2-0.1
			L52.9,41.4z M32.9,41.7c0.3,0,0.6,0.3,0.6,0.6s-0.3,0.6-0.6,0.6c-0.3,0-0.6-0.3-0.6-0.6C32.3,41.9,32.5,41.7,32.9,41.7z
			 M49.1,41.8c4.4,6.4,1.9,16.5-6.4,19.6l0-0.7c8.5-3.6,9.3-13,5.9-18.4L49.1,41.8L49.1,41.8z M30.2,41.8l0.6,1.5
			c-0.7,0.5-1,0.5-1.7,0.7c-0.6,0.1-1.1-0.9-0.6-1.3C28.9,42.3,29.5,42.1,30.2,41.8z M16.1,41.8c0.1,0,0,0.2-0.3,0.9
			c-0.6,1.4-0.6,1.4-2.1,1.7c-0.8,0.1-1.3,0.2-1.9,0.1c-0.8-0.1-1.2-0.3-0.6-0.4c1.5-0.3,3.2-1.1,4.3-1.9C15.8,42,16,41.8,16.1,41.8
			z M43.8,42c0.4,0,0.7,0.3,0.7,0.7c0,0.4-0.3,0.7-0.7,0.7c-0.4,0-0.7-0.3-0.7-0.7S43.4,42,43.8,42z M22.1,42.2l-0.1,0.6
			c0,0-0.9,0.5-1.3,0.6c-0.3,0.1-0.3,0.2-0.2,0.5c0.2,0.6,0.6,1.3,0.6,1.3L20.8,46c-0.2-0.8-0.5-1.6-0.9-2.3
			c-0.4-0.6-0.5-0.6,0.1-0.7C20.8,42.8,21.4,42.6,22.1,42.2z M30,42.4c-0.4,0-1.3,0.4-1.4,0.7c-0.1,0.2,0,0.5,0.2,0.5
			c0.4,0.2,1.4-0.2,1.6-0.5c0.1-0.1,0-0.3-0.1-0.5C30.2,42.6,30.2,42.4,30,42.4z M30,42.7L30,42.7c0.1,0,0.4,0.3,0.1,0.3
			c-0.1,0-0.2,0-0.3,0.1c0,0.2-0.2,0.2-0.4,0.2l-0.2,0.1c-0.2,0.1-0.4,0.1-0.4,0c-0.1-0.1,0.1-0.3,0.3-0.3c0,0,0.1-0.1,0.2-0.2
			c0-0.2,0.2-0.1,0.3-0.1C29.8,42.9,29.9,42.7,30,42.7L30,42.7z M53.5,42.7l0.3,0.9l-1.1-0.1L53.5,42.7z M48.2,42.9
			c0.4,0.1,0.6,0.5,0.4,0.8c-0.2,0.3-0.5,0.3-0.8,0.3c0.3,0.3,0.4,0.8,0.1,1.1c-0.4,0.4-1.2-0.2-1.2-0.3L48.2,42.9z M17.1,43.2
			c0,0,1.8,1.5,1.8,2.2c0,0.3-0.1,0.3-0.3,0.4c-0.7,0.2-2.6-0.4-2.6-0.4l0.2-0.5c0.3,0.1,1.8,0.5,1.9,0.3c0.1-0.2-1.2-1.5-1.2-1.5
			L17.1,43.2z M25.9,43.9l0.2,0.7l-0.7-0.2L25.9,43.9z M53.9,44l0.2,1L53,44.8L53.9,44z M32,44l0.2,0.6c-7.6,3.6-9.9,11.7-5.9,18.4
			l-0.5,0.6C20.5,55,25.9,46.2,32,44z M14.6,44.6c0.2,0,0.2,0.1,0.2,0.2c0,0.1-0.8,1.1-1,1.3c-0.5,0.2-2.6-0.7-2.9-1.3
			c-0.1-0.2,0.1-0.1,0.6,0C12.6,45.1,13.8,44.7,14.6,44.6L14.6,44.6z M34.9,44.6c0.3,0,0.6,0.3,0.6,0.6s-0.3,0.6-0.6,0.6
			s-0.6-0.3-0.6-0.6S34.6,44.6,34.9,44.6z M25.1,44.7l0.1,0.9l-0.9-0.1L25.1,44.7z M10.9,45.4c0.6,0.5,1.4,1,2.2,1.1
			c0.5,0.1,0.3,0.2-0.1,0.6c-0.4,0.4-0.4,0.5-0.8,0.3c-0.7-0.4-1.5-1.2-1.4-1.6C10.8,45.6,10.8,45.4,10.9,45.4z M54.3,45.5l0.1,1
			L53.3,46L54.3,45.5z M24,45.8l0.4,0.9l-1,0L24,45.8L24,45.8z M47.9,46c0.5,0,0.6,0.3,0.6,0.6c0,0.1,0,0.3,0,0.3
			c0.6-0.4,1.3-0.1,1.3,0.5c0,0.8-0.4,0.8-1.1,0.7c0.4,0.6-0.1,1.2-0.7,1c-0.6-0.2-0.5-0.9-0.2-1.2c-1.5,0.2-1.8,2.3-0.2,2.9
			c-0.3-0.5-0.4-1.2,0.3-1.3c0.7-0.1,1,0.4,0.7,1c0.6-0.2,1.2,0.1,1,0.8c-0.2,0.8-0.9,0.7-1.3,0.2c0.3,0.7-0.4,1.2-0.9,0.9
			c-0.8-0.4-0.4-1.2,0.1-1.4c-2-0.2-2.5,2.6-1,3c-0.4-0.2-0.4-1.3,0.4-1.2c0.9,0.2,0.6,1,0.1,1.3c0.7-0.1,1.3,0.4,0.9,1
			c-0.5,0.7-1.1,0.2-1.4-0.3c0.1,0.6-0.3,1-0.8,0.8c-0.9-0.4-0.2-1.4,0.5-1.4c-1.4-0.8-3.3,0.9-2.2,2.3c0-0.7,0.3-1.2,0.7-1.1
			c0.4,0,0.7,0.5,0.6,0.8c-0.1,0.3-0.4,0.5-0.8,0.6c1.1,0.1,1.2,0.9,0.7,1.3c-0.8,0.6-1.1-0.1-1.3-0.5c-0.2,1.1-1.4,0.7-1.4-0.1
			c0-0.8,0.9-0.8,1.1-0.8c0,0-0.8-0.8-1.6-0.9l0-0.5c3.3-2,4.4-5.6,3.3-9l0.2-0.2c0.5,0.4,1.1,1.3,2,1c0,0-0.2-0.2-0.3-0.3
			C46.9,46.6,47.2,46,47.9,46z M26.5,46.6l0.3,0.5c-4.9,5.8-4,12.4-1.2,16.8l-0.4,0.5C22.7,61.2,20.7,53.4,26.5,46.6L26.5,46.6z
			 M10.9,46.7c0.4,0.2,0.7,0.6,1.1,0.9c0.3,0.2,0.3,0.3,0,0.5c-0.5,0.5-0.9-0.2-1-0.5C10.7,47.1,10.7,46.7,10.9,46.7L10.9,46.7z
			 M30.1,46.7c0.4,0,0.6,0.4,0.6,0.7c0,0.1,0,0.2,0,0.2s0.1-0.1,0.2-0.3c0.4-0.7,1.3-0.3,1.2,0.5c-0.1,0.4-0.7,0.5-0.9,0.4
			c0.2,0.5,0.6,0.6,1.2,0.8c0.2,0,0.5,0.1,0.5,0.1l0,0.3c-3,1.9-4.6,5-3.5,9.4L29,59.3c-0.6-1.4-1.1-1.4-2.1-1.5
			c0,0,0.2,0.2,0.4,0.3c0.3,0.4,0.2,1-0.2,1c-1,0.1-1-0.5-0.8-1l-0.3,0.2c-0.4,0.2-0.8,0-0.9-0.5c0-0.5,0.1-0.8,0.6-0.8
			c0.2,0,0.4,0,0.4,0s-0.1-0.2-0.1-0.3c-0.2-0.4,0.3-0.8,0.7-0.7c0.7,0.2,0.7,0.8,0.2,1.3c1.1,0.1,1.7-0.6,1.6-1.4
			c-0.1-0.9-0.5-1.4-1.4-1.5c0,0,0.1,0.2,0.2,0.3c0.2,0.4-0.1,0.9-0.6,0.9c-0.5,0-0.8-0.4-0.6-0.9c0-0.1,0.2-0.2,0.2-0.3L26,54.7
			c-0.6,0.1-1-0.4-0.7-0.9c0.2-0.4,0.7-0.5,1.1-0.3l0.1,0.1l-0.1-0.2c-0.1-0.5,0.1-0.7,0.6-0.7c0.7,0,1,0.6,0.5,1.1
			c-0.1,0.1-0.3,0.3-0.3,0.3c0,0.1,1,0.2,1.5-0.4c0.6-0.6,0.7-1.9,0.1-2.3c-0.1-0.1-0.3-0.2-0.3-0.2c0.3,0.6-0.2,1.2-0.7,1.1
			c-0.9-0.2-0.8-1-0.2-1.2c0,0-0.6-0.2-0.8-0.5c-0.2-0.3-0.2-0.7,0.1-0.9c0.4-0.3,0.9-0.1,1.2,0.3c0.2-0.5,0.4-0.8,1-0.5
			c0.5,0.2,0.4,0.8,0,1.1c-0.2,0.1-0.4,0.2-0.4,0.2s0.4,0.2,0.9,0.2c1,0,1.8-1.2,1.4-2.1c-0.1-0.2-0.3-0.4-0.3-0.4s0,0.3-0.1,0.4
			c-0.2,0.5-0.8,0.5-1.1,0.2c-0.3-0.3-0.2-0.6,0-0.8c0.2-0.2,0.3-0.2,0.6-0.3c-0.3-0.1-0.6-0.2-0.7-0.4c-0.1-0.3,0-0.6,0.3-0.8
			C29.8,46.7,30,46.7,30.1,46.7L30.1,46.7z M54.5,46.8l0.1,1l-1.1-0.4L54.5,46.8z M23.2,46.9l0.4,0.9l-1.1,0L23.2,46.9L23.2,46.9z
			 M45.3,46.9c1,3.7-0.4,6.3-3,8.4l-0.3-0.4c2.1-1.8,3.6-3.8,2.9-7.5L45.3,46.9z M14.9,46.9c0,0,1.5,2,1.2,2.7
			c-0.4,0.6-2.8-0.7-2.8-0.8l0.3-0.3c0.4,0.2,1.6,0.8,1.8,0.7c0.1-0.6-0.6-1.4-0.9-1.9L14.9,46.9z M33.1,46.9l11.6,0.2l-0.3,0.6
			l-0.9,0l-1.8,3.2l-8.4,0L33.1,46.9L33.1,46.9z M20.1,47.2L19.7,48c-0.4,0.1-1.5,0.1-1.6,0.2c0.1,0.4,0.3,1.5,0.3,1.5l-0.4,0.6
			c-0.1-0.7-0.3-1.6-0.5-2.3c-0.2-0.6-0.1-0.4,1.1-0.5C19,47.4,19.6,47.3,20.1,47.2z M22.5,48.1l0.5,0.9l-1,0L22.5,48.1z M10.8,48.2
			c0.1,0,0.4,0.3,0.4,0.4c0,0.2-0.4,0.3-0.4,0.3C10.8,48.8,10.8,48.3,10.8,48.2L10.8,48.2z M54.7,48.2l0,1.1l-1.2-0.5L54.7,48.2z
			 M63.8,48.4l0,0.7c-4.2,2-10.4,7.5-12.2,17.4l-0.4-0.4C53,56.7,59.2,51.1,63.8,48.4z M21.8,49.4l0.5,0.8l-0.9,0.1L21.8,49.4z
			 M54.7,49.7l-0.1,0.9L53.5,50L54.7,49.7z M32.9,49.9c0,0.2,0,0.4,0,0.6c-2.6,1.7-3.4,4.3-3,7.6l-0.4,0.5
			C28.7,55.6,29.6,51.9,32.9,49.9z M11.8,50c0,0,1,2.2,0.6,2.7c-0.4,0.3-1.2-0.2-1.6-0.4l0-0.5c0,0,0.3,0.2,0.6,0.3
			c0.6,0.3,0.6-0.1,0.3-1c-0.1-0.3-0.2-0.7-0.2-0.7L11.8,50z M62.7,50.1c0.3,0.2,1.1,0.4,1.1,0.4l0,0.6l-1.8-0.6L62.7,50.1z
			 M21.2,50.8l0.7,0.7l-0.9,0.2L21.2,50.8z M61.9,50.8l0.2,0c0.6,0,1.7,0.5,1.7,0.5l0,0.7c-0.6-0.2-1.3-0.5-1.9-0.6
			c-0.5-0.1-0.5,0.2-0.5,0.9c0,0.9,0.2,1.8,0.7,2.7c0.4,0.8,0.2,1-0.4,0.6c-1.1-0.7-3.4-1.3-3.7-0.9c-0.4,0.4,0.4,2.7,1.2,3.7
			c0.3,0.4,0.4,0.5,0.2,0.7c-0.1,0.1-0.3,0.1-0.7,0c-1.2-0.4-2.9-0.5-3.4-0.1c-0.5,0.3,0.8,2.5,1.9,3.3c0.7,0.5,0.6,0.8-0.6,0.8
			c-1.9,0-3.3,0.4-3.2,0.9c0.1,0.9,1.3,2,2.7,2.7c0.8,0.3,0.5,0.5-0.1,0.7c-0.9,0.3-1.8,0.8-2.7,1.3l-0.4-0.5c0,0,0.9-0.6,1.9-1.1
			c0.2-0.1,0.2-0.2-0.1-0.4c-1-0.9-1.8-1.8-1.9-2.5c-0.2-0.6,0.2-1,1.1-1.4c0.6-0.2,0.8-0.3,1.3-0.4c0.7-0.2,0.7-0.2,0.4-0.8
			c-0.1-0.3-0.4-0.7-0.5-0.9c-1.1-1.9-0.5-2.6,2-2.6c0.6,0,0.7,0,0.7-0.3c-0.1-0.9-0.5-1.9-0.5-2.6c0.1-1.1,1.3-1.4,3.3-0.9
			C61,54.4,61,54.4,61,54C60.6,52.4,60.9,50.9,61.9,50.8L61.9,50.8z M54.6,51l-0.2,1.1l-1.1-0.7L54.6,51z M14.1,51.2l3,0.2L16.6,52
			l-1.8,0l-0.1,1.5L14.1,54L14.1,51.2z M33.4,51.3h2.5l0,2.6h-2.5L33.4,51.3z M36.4,51.3h2.3v2.6l-2.3,0L36.4,51.3L36.4,51.3z
			 M39.1,51.3h2.5l0,2.6h-2.4L39.1,51.3z M60.6,51.5c-0.1,0.7,0.1,1.9,0.1,2.4c0,0.2-0.1,0.1-0.8,0c-0.4-0.1-1.7-0.2-1.7-0.2
			l0.5-0.6c0.4,0.1,0.8,0,1.2,0.1c0-0.4,0-1.3,0-1.3L60.6,51.5L60.6,51.5z M20.8,52.1l0.7,0.7L20.6,53L20.8,52.1z M54.4,52.3
			l-0.3,1.1l-1-0.9L54.4,52.3z M62.4,52.3c0.5,0,0.9,0.2,1.4,0.6l0,0.6l-1-0.4c0,0.6,0.6,1.8,0.6,1.8L62.9,55
			c-0.4-0.7-0.7-1.3-0.7-2C62.2,52.8,62.2,52.3,62.4,52.3z M20.5,53.4l0.8,0.5l-0.9,0.4L20.5,53.4z M54.1,53.7l-0.4,1.1l-0.9-1
			L54.1,53.7z M10.8,54.1l2.2,0.7l-0.4,0.4l-1.8-0.6L10.8,54.1z M41.7,54.4l0.2,4.1l-11.6-0.1l0.4-0.6l0.8,0l2-3.4L41.7,54.4z
			 M20.3,54.7l0.9,0.6l-0.9,0.4L20.3,54.7z M63.8,55l0,0.7c-2.8,2.1-5.8,5.7-6.4,12l-0.8,0.6C57.1,62.2,59.7,57.9,63.8,55L63.8,55z
			 M53.6,55.1l-0.4,1l-0.8-1L53.6,55.1z M56.9,55.3c0,0.6,0.5,2.5,0.5,2.5c-0.8,0-1.5-0.1-2.3,0.2l0.4-0.7c0,0,0.4,0,0.7-0.1
			c0.7-0.1,0.6-0.1,0.4-0.6c-0.1-0.5-0.2-0.6-0.2-0.6L56.9,55.3z M59.1,55.4c0.8,0,1.9,0.7,2.4,1.1l-0.3,0.3c-0.1,0-1.1-0.6-2-0.7
			c0.3,0.5,0.4,1,1,1.8l-0.4,0.4c-0.1,0-1.6-2.3-1.2-2.8C58.8,55.4,58.9,55.4,59.1,55.4z M14,55.9c1,6.1,3.4,10.3,7.2,14.1l-0.4,0.5
			c-4.5-4.1-6.9-9.3-7.5-14.2L14,55.9L14,55.9z M20.2,56.2l0.8,0.4l-0.8,0.5L20.2,56.2z M63.8,56.2l0,0.9l-0.5-0.5
			C63.5,56.4,63.6,56.3,63.8,56.2z M53,56.4l-0.6,1l-0.7-1L53,56.4z M63,56.8c0.7,0.1,1,1.6,0.7,1.9c-0.1-0.2-1.1-0.8-1.6-1.1
			C62.1,57.5,62.9,56.9,63,56.8z M51.1,57.6l1.2,0.1l-0.6,1L51.1,57.6z M20.3,57.6l0.9,0.5l-0.8,0.6L20.3,57.6z M62.1,58
			c0.2,0,0.3,0.1,0.5,0.2c0.8,0.5,1.3,1,1.2,1.4c0,0.2-0.1,0.3-0.3,0.1c-0.2-0.3-1.1-0.6-1.8-0.8c-0.5-0.1-0.6-0.2-0.4-0.4
			C61.6,58.2,61.8,58,62.1,58z M47.8,58.4c1.3,4.9,3.6,8.7,6.4,11.8l-0.6,0.5c-2.2-2.5-4.5-5.4-6.5-11.7L47.8,58.4z M50.3,58.7
			l1.2,0.2l-0.7,0.9L50.3,58.7z M33.6,58.8c0.1,0-0.4,2.1-2.3,2.2c-1.2,0.2-1.3,0.4-1.3,2.3c0,2.5-0.4,3.1-2.5,3.3
			c-1.4,0.1-1.5,0.4-1.3,2.4c0.2,1.9-0.5,2.8-2.2,2.8c-1.5,0.1-2.1,0.8-2.1,2.2c0,0.6,0,0.7,0,0.7l-1,0.1c0,0,0-0.9,0.1-1.4
			c0.3-1.8,1.1-2.5,2.7-2.5c1.3-0.1,1.5-0.3,1.4-2.2c0-2-0.1-1.9,0.4-2.4c0.3-0.3,0.7-0.5,1.4-0.5c2.1-0.2,2.2-0.3,2.2-2.5
			c-0.2-1.8,0.3-2.8,1.4-2.9c2.3-0.2,2.2-1.4,2.1-1.5L33.6,58.8L33.6,58.8L33.6,58.8z M38.2,58.8c1.3,7.2,5.5,13.9,7.8,16.4
			l-0.4,0.2c-3.4-4.2-6.4-9-7.9-16.6L38.2,58.8L38.2,58.8z M35.8,58.8l1,0l-12.1,17l-0.6-0.5L35.8,58.8L35.8,58.8z M37.2,58.8
			c1.1,4.1,2,8.2,5.6,13.6l-15.1-0.1L37.2,58.8z M41.4,58.8c0.1,0,0.4,2.1-0.1,3.1c-0.5,1.3-0.2,2.1,0.8,2.6c1.8,0.8,2.2,1.7,2,3.7
			c-0.2,1.4,0.3,2.1,1.6,2.6c1.6,0.5,2.3,1.4,2.3,2.8C48,73.8,48,74,48,74l-0.9,0.5c0,0,0-0.2,0-0.4c0.2-1.6-0.1-2-1.9-2.7
			c-1.7-0.7-2.2-1.5-1.9-3.5c0.1-0.7,0-1.3-0.3-1.8c-0.5-0.8-1.5-0.8-2.2-1.6c-0.6-0.6-0.7-1.5-0.2-3c0.3-0.9,0.4-1.3,0.1-2.1
			c-0.2-0.5-0.2-0.6-0.2-0.6L41.4,58.8z M20.4,59l1,0.3l-0.8,0.8L20.4,59z M61.2,59.2c0.4,0,1,0.1,1.6,0.4c1.3,0.6,1.5,1.2,0.4,0.9
			c-0.6-0.2-1.5-0.1-2.4,0.1c-0.9,0.2-0.9,0.2-0.6-0.3C60.6,59.6,60.7,59.2,61.2,59.2z M56.6,59.5c0.8,0,1.6,0.2,2.3,0.5l-0.2,0.4
			c-0.5-0.1-1-0.3-1.8-0.3c0.3,0.6,0.7,0.9,1.2,1.5L57.8,62c0,0.1-1.5-1.1-1.8-1.9C55.9,59.7,56,59.5,56.6,59.5z M39.7,59.6
			c0.4,0,0.7,0.3,0.7,0.7S40.1,61,39.7,61c-0.4,0-0.7-0.3-0.7-0.7C39,59.9,39.4,59.6,39.7,59.6z M54.1,59.6l1.1,2.3
			c-0.7,0.3-1.5,0.5-2.2,0.8l0.1-0.7c0,0,0.3,0,1.1-0.3c0.4-0.2-0.4-1.3-0.4-1.3L54.1,59.6z M49.5,59.8l1.2,0.2l-0.8,0.9L49.5,59.8z
			 M27.6,59.8c0.3,0,0.7,0.5,0.7,0.5l-1.4,2c-0.7-0.1-0.5-1.2,0.1-1.2c0.1,0,0.4,0,0.4,0s-0.2-0.1-0.3-0.3
			C26.7,60.4,27.1,59.8,27.6,59.8z M46.3,60.3c1.6,0,1.7,2,1.4,2.7c-0.2,0.5-0.6,0.7-1.6,1.2c-0.9,0.4-1,0.4-1,0.4l-0.2-0.5
			c0,0,0.5-0.2,1.1-0.5c1.2-0.5,1.5-0.8,1.3-1.7c-0.2-1.2-1.1-1.4-2.9-0.6c-0.2,0.1-0.5,0.2-0.5,0.2l-0.1-0.2c0,0,1.5-0.8,2.3-1
			C46.1,60.3,46.2,60.3,46.3,60.3z M20.8,60.5l0.9,0.3L21,61.5L20.8,60.5z M62.3,60.8c0.8,0,1.5,0.1,1.5,0.4c0,0.1,0,0.2-0.8,0.3
			c-1.1,0.2-3,1.1-4.1,2c-0.6,0.5-0.5,0.4-0.2-0.4c0.3-0.8,0.7-1.7,0.9-1.8C60.2,60.9,61.4,60.8,62.3,60.8z M48.9,60.9l0.8,0.2
			l-0.5,0.5L48.9,60.9z M46.2,61.3c0.3,0,0.4,0.1,0.5,0.4c0.2,0.6,0,0.9-0.9,1.3c-0.4,0.2-0.8,0.5-1.2,0.5L44,62
			c0,0,0.2-0.1,0.8-0.3C45.5,61.4,45.9,61.3,46.2,61.3z M43.5,61.5c1.8,5.2,4.1,8.6,6.5,11.4l-0.6,0.4c-2.5-3-4.8-6.5-6.5-11.7
			L43.5,61.5z M63.8,61.6l0.1,0.1c0,0.2-3.3,3.4-5.2,5c-0.9,0.7-0.8,0.7-0.9,0.6c0-0.5,0.3-2.5,0.5-2.8c1.3-1.3,3.2-2.4,5.1-2.8
			C63.6,61.7,63.7,61.6,63.8,61.6z M46.1,61.7c-0.2,0-0.6,0.1-1,0.3c-0.6,0.3-0.7,0.6-0.4,0.9c0.1,0.2,0.3,0.1,0.9-0.1
			c0.6-0.3,0.9-0.4,0.9-0.6C46.5,61.9,46.3,61.7,46.1,61.7z M46.1,61.8c0.1,0,0.2,0.1,0.2,0.2c0,0.1-0.1,0.2-0.3,0.2l-0.3,0.1
			c-0.1,0.1-0.1,0.2-0.3,0.2l-0.3,0c-0.3,0.3-0.6,0-0.4-0.2c0-0.1,0.2-0.1,0.2-0.1c0.1,0,0.3,0,0.3-0.1c0-0.1,0.2-0.2,0.3-0.2
			c0.1,0,0.3-0.1,0.3-0.1L46.1,61.8L46.1,61.8L46.1,61.8z M31.2,61.9c0.4,0,0.7,0.3,0.7,0.7c0,0.4-0.3,0.7-0.7,0.7
			c-0.4,0-0.7-0.3-0.7-0.7C30.5,62.2,30.8,61.9,31.2,61.9z M21.2,61.9l1.1,0.1l-0.7,0.9L21.2,61.9z M42.1,62.4
			c0.4,0,0.7,0.3,0.7,0.7s-0.3,0.7-0.7,0.7s-0.7-0.3-0.7-0.7S41.8,62.4,42.1,62.4z M21.6,63.2l1.1,0.1l-0.7,0.9L21.6,63.2z
			 M27.6,63.4c0.4,0,0.7,0.3,0.7,0.7c0,0.4-0.3,0.7-0.7,0.7c-0.4,0-0.7-0.3-0.7-0.7C27,63.7,27.3,63.4,27.6,63.4z M56.1,63.8
			c0.5,0,1,0,1,0L57,64.4c-0.6,0.1-1.3-0.1-1.9,0.2c0.2,0.4,1.6,0.9,1.7,1l-0.1,0.6c0,0.1-2.3-0.9-2.4-1.9
			C54.3,64,55.3,63.8,56.1,63.8z M48.1,64.4c1.3,0,2,1.9,1.5,2.7c-0.2,0.4-0.7,0.8-1.3,1.2c-0.3,0.2-1.1,0.6-1.1,0.6l-0.3-0.5
			c0,0,0.3-0.1,0.6-0.3c0.7-0.4,2.2-1.3,1.5-2.5c-0.4-0.6-1-0.8-2.2-0.1c-0.9,0.5-1.1,0.5-1.1,0.5l-0.2-0.4
			C45.4,65.5,47.2,64.4,48.1,64.4z M52.4,64.5c0.6,1.2,1.7,2.2,2,2.4c0,0-1.1,0.7-1.7,1.1l-0.4-0.4l0.9-0.8l-1-1.5L52.4,64.5z
			 M22.3,64.6l1,0l-0.4,0.9L22.3,64.6L22.3,64.6z M62.5,64.7c-0.1,0.6-0.1,1.2-0.2,2c0.2,0.2,0.4,0.3,0.6,0.3
			c0.2-0.6,0.3-1.4,0.2-2.1C63,64.8,62.8,64.8,62.5,64.7z M62.8,64.9L62.8,64.9c0.2,0.1,0.2,0.2,0.2,0.3c0,0.4,0.1,0.9-0.1,1.3
			c-0.1,0.2-0.3,0.1-0.3-0.2c0-0.4,0.1-0.7,0.1-1.1C62.7,65.1,62.8,65,62.8,64.9z M48.1,65.5c0.7,0.1,0.9,0.6,0.7,1
			c-0.6,0.8-1.2,0.9-2.1,1.4l-0.8-1.5C45.9,66.4,47.5,65.5,48.1,65.5z M48,65.8c-0.5,0.1-0.7,0.3-1.1,0.5c-0.5,0.2-0.6,0.6-0.3,0.9
			c0.3,0.4,1.6-0.5,1.8-0.8c0.1-0.2,0.1-0.4-0.1-0.5C48.2,65.9,48.1,65.8,48,65.8z M23.2,65.9l1,0l-0.5,0.8L23.2,65.9z M48,66l0.1,0
			c0.2,0.1,0.2,0.3-0.1,0.4c-0.1,0-0.3,0-0.3,0.2c0,0.1-0.2,0.2-0.3,0.2c-0.1,0-0.3,0-0.3,0.1c-0.1,0.2-0.2,0.2-0.3,0.1
			c-0.1-0.1-0.1-0.3,0.2-0.4c0.1,0,0.2-0.1,0.3-0.2c0-0.1,0.1-0.2,0.2-0.2c0.2,0,0.3-0.1,0.4-0.2L48,66z M42.2,66.1
			c0.4,0,0.7,0.3,0.7,0.7s-0.3,0.7-0.7,0.7s-0.7-0.3-0.7-0.7S41.8,66.1,42.2,66.1z M27.4,67.3c0.4,0,0.7,0.3,0.7,0.7
			s-0.3,0.7-0.7,0.7c-0.4,0-0.7-0.3-0.7-0.7C26.7,67.7,27,67.3,27.4,67.3z M56.6,67.9l0,0.5c0,0-1.1,0.5-1.7,0.8
			c-0.2,0.1-0.1,0.3-0.1,0.6L54.4,70c0,0-0.4-0.3-0.5-0.5C53.8,68.9,55.8,68.1,56.6,67.9z M10.8,68l7.9,5.4l-0.5,0.8l-7.4-5L10.8,68
			z M50.7,68.1c0.5,0,0.9,0.3,1.3,0.9c0.8,1.2,0.4,2.1-1.2,3.1C50,72.6,50,72.6,50,72.6l-0.4-0.5c0,0,0.5-0.3,0.8-0.5
			c1.3-0.8,1.7-1.6,1.1-2.4c-0.6-0.8-1.1-0.7-2.7,0.3C48.4,69.8,48,70,48,70l-0.4-0.5c0,0,0.9-0.5,1.2-0.7
			C49.6,68.4,50.2,68.1,50.7,68.1z M45.1,68.5c0.4,0,0.7,0.3,0.7,0.7c0,0.4-0.3,0.7-0.7,0.7c-0.4,0-0.7-0.3-0.7-0.7
			S44.7,68.5,45.1,68.5z M23.6,68.7c0.4,0,0.7,0.3,0.7,0.7c0,0.4-0.3,0.7-0.7,0.7c-0.4,0-0.7-0.3-0.7-0.7
			C22.9,69,23.2,68.7,23.6,68.7z M50.6,69.2c0.3,0,0.5,0.2,0.6,0.4c0.3,0.7-0.1,1.2-1.5,1.9c-0.1,0.1-0.4,0.2-0.4,0.2l-1-1.4
			c0,0,0.4-0.2,0.7-0.4C49.8,69.5,50.3,69.3,50.6,69.2z M50.5,69.6l-0.2,0.1c-0.3,0.2-0.9,0.4-1.2,0.8c-0.2,0.2-0.1,0.4,0.2,0.7
			c0.3,0.2,1.6-0.8,1.6-1.1C50.8,69.8,50.7,69.6,50.5,69.6z M10.8,69.7l0.2,0.1L10.8,70V69.7z M50.5,69.8l0.2,0.1
			c0.1,0.1,0,0.3-0.2,0.4c-0.1,0-0.3,0-0.3,0.2c0,0.1-0.2,0.2-0.3,0.2c-0.2,0-0.2,0.1-0.3,0.1c-0.1,0.1-0.3,0.2-0.4,0
			c-0.1-0.1,0.1-0.4,0.2-0.4c0,0,0.1,0,0.3-0.2c0-0.1,0.2-0.2,0.3-0.2c0.1,0,0.2-0.1,0.2-0.2L50.5,69.8z M11.4,70l0.3,0.2l-0.8,0.6
			v-0.5L11.4,70z M12,70.4l0.4,0.3l-1.6,1.1v-0.6L12,70.4z M12.8,70.9l0.5,0.3l-2.4,1.6v-0.6L12.8,70.9z M13.7,71.4v0.5l-2.8,2v-0.5
			L13.7,71.4z M14,71.7l0.6,0.4L14.7,90l-3.8,2.6l0-0.8l3.2-2.3L14,71.7L14,71.7z M59.9,72.2c-0.9,1-2,1-3,1c-2.7,0-4.4,0.2-4.7,3.4
			c1.1-0.8,2.3-0.9,3.6-0.9c1.7,0,2.5-0.1,3.2-0.5c1.1-0.6,1.8-1.6,1.7-2.3C60.5,72.9,60.2,72.3,59.9,72.2z M13.7,72.4V73l-2.8,1.9
			v-0.6L13.7,72.4z M45.9,72.4c0.4,0,0.7,0.3,0.7,0.7s-0.3,0.7-0.7,0.7c-0.4,0-0.7-0.3-0.7-0.7C45.3,72.8,45.6,72.4,45.9,72.4z
			 M27.5,72.5c5,0.2,15.6,0.1,15.6,0.1l0.6,0.8L27,73.2L27.5,72.5z M60,72.5c0.2,0,0.2,0.2-0.1,0.5c-0.6,0.6-1.2,0.9-3.2,0.8
			c-2.1,0-2.9,0.3-3.4,1.2c-0.2,0.3-0.2,0.4,0.1,0.2c0.2-0.2,0.6-0.7,0.8-0.2c0.4-0.2,0.7-0.6,0.8-0.1c0.1,0,0.7-0.6,0.8-0.1
			c0.3-0.3,0.5-0.4,0.7,0c0.4-0.2,0.6-0.6,0.9-0.1c0.3-0.2,0.6-0.5,0.8-0.1c0.3-0.1,0.6-0.6,0.7-0.2c0,0,1-0.6,1.3-1.2
			c0.2-0.5,0.4-0.2,0.2,0.4c-0.7,1.3-1.9,1.8-4.5,1.8c-1.6,0-2.3,0.2-2.8,0.5c-0.8,0.5-0.4-0.7,0.2-1.5c0.7-0.9,1.6-1.2,3.8-1.1
			c1.2,0,2-0.2,2.4-0.4C59.7,72.7,59.9,72.6,60,72.5z M23.2,72.8c0.4,0,0.7,0.3,0.7,0.7s-0.3,0.7-0.7,0.7c-0.4,0-0.7-0.3-0.7-0.7
			S22.8,72.8,23.2,72.8z M13.7,73.3V74l-2.8,1.9v-0.6L13.7,73.3z M27.3,73.6h2.2V76h-2.2V73.6z M32.2,73.6h2.4V76h-2.4V73.6z
			 M37.5,73.7h2.3V76h-2.3V73.7z M42.4,73.8l1.5,0.1c0,0,0.8,1.1,1.2,1.6L44,76l-1.6,0V73.8L42.4,73.8z M28.4,73.9
			c-0.4,0-0.8,0.3-0.8,0.8s0.3,0.8,0.8,0.8c0.4,0,0.8-0.3,0.8-0.8S28.8,73.9,28.4,73.9z M33.4,74c-0.4,0-0.8,0.3-0.8,0.8
			s0.3,0.8,0.8,0.8c0.4,0,0.8-0.3,0.8-0.8S33.9,74,33.4,74z M38.6,74c-0.4,0-0.8,0.3-0.8,0.8s0.3,0.8,0.8,0.8c0.4,0,0.8-0.3,0.8-0.8
			S39,74,38.6,74z M26.3,74.2c0.2,0.1,0.3,0.3,0.3,0.5c0,0.3-0.3,0.6-0.6,0.6c-0.1,0-0.2,0-0.3-0.1L26.3,74.2z M28.4,74.2
			c0.3,0,0.5,0.2,0.5,0.5c0,0.3-0.2,0.5-0.5,0.5c-0.3,0-0.5-0.2-0.5-0.5C27.9,74.4,28.1,74.2,28.4,74.2z M41.1,74.2
			c0.3,0,0.6,0.3,0.6,0.6c0,0.3-0.3,0.6-0.6,0.6c-0.3,0-0.6-0.3-0.6-0.6C40.5,74.5,40.8,74.2,41.1,74.2z M43.7,74.2
			c-0.4,0-0.8,0.3-0.8,0.8s0.3,0.8,0.8,0.8c0.4,0,0.8-0.3,0.8-0.8S44.2,74.2,43.7,74.2z M30.9,74.2c0.3,0,0.6,0.3,0.6,0.6
			c0,0.3-0.3,0.6-0.6,0.6c-0.3,0-0.6-0.3-0.6-0.6C30.3,74.5,30.5,74.2,30.9,74.2z M33.4,74.3c0.3,0,0.5,0.2,0.5,0.5
			c0,0.3-0.2,0.5-0.5,0.5c-0.3,0-0.5-0.2-0.5-0.5C32.9,74.5,33.1,74.3,33.4,74.3z M13.7,74.3v0.6l-2.8,2v-0.6L13.7,74.3z M38.6,74.3
			c0.3,0,0.5,0.2,0.5,0.5c0,0.3-0.2,0.5-0.5,0.5c-0.3,0-0.5-0.2-0.5-0.5C38.1,74.5,38.3,74.3,38.6,74.3z M36,74.3
			c0.3,0,0.6,0.3,0.6,0.6s-0.3,0.6-0.6,0.6c-0.3,0-0.6-0.3-0.6-0.6S35.7,74.3,36,74.3z M43.7,74.5c0.3,0,0.5,0.2,0.5,0.5
			c0,0.3-0.2,0.5-0.5,0.5c-0.3,0-0.5-0.2-0.5-0.5C43.2,74.7,43.4,74.5,43.7,74.5z M21.7,75c1.3,0,2.7,0.7,3.5,1.8
			c1.2,1.6,2,3.7,2.4,6.4c0.2,1.4,0.8,5.4,1.2,6.4l-0.5-0.1c-0.1,0-0.7-2.6-1.1-6c-0.1-1.3-0.4-2.9-1.1-4.4
			c-0.8-1.7-2.3-3.5-4.1-3.6c-1.1-0.1-2.1,0.6-2.3,1.6c-0.2,0.8,0.3,1.5,0.9,1.7c0.6,0.2,1.3,0.1,1.4-0.7c0-0.1,0-0.3,0-0.4
			c0.3,0,0.5,0.1,0.6,0.3c0.1,0,0,1.2-0.9,1.4c-1.1,0.4-2.3-0.7-2.4-1.8c-0.1-0.9,0.6-2.1,1.5-2.4C21,75.1,21.4,75,21.7,75z
			 M13.7,75.4V76l-2.8,2v-0.6L13.7,75.4z M21.8,75.8c1.6,0,3.1,1.7,3.8,2.9c0.7,1.2,1.2,3.1,1.4,5c0.3,3.1,0.9,5.6,1,5.7l-0.4-0.1
			c-0.1,0.1-0.7-2.7-1-5.8c-0.2-1.7-0.8-3.5-1.6-4.8c-0.7-1.2-1.7-2.1-2.8-2.3c-0.7-0.1-1.4,0.1-1.6,0.9c-0.1,0.4,0.2,0.9,0.7,0.9
			c0.1,0,0.2,0,0.3,0c0.3,0-0.2,0.5-0.4,0.5c-1-0.1-1.5-1.5-0.7-2.2C20.8,76,21.3,75.8,21.8,75.8z M25.2,76.2l17.8,0.2
			c0,0,0,0.3-1.1,0.3c-0.9,0-1.5,0.1-2.2,0.3l-14,0L25.2,76.2z M13.7,76.4V77l-2.8,2v-0.7L13.7,76.4z M21.9,76.7
			c0.3,0,0.7,0.1,1,0.2c2.2,1.3,3,4.4,3.3,6.4c0.4,3,0.9,5.7,1,5.8L26.7,89c-0.1,0-0.6-2.6-0.9-5.4c-0.3-2.3-1.1-4.7-2.6-5.6
			c-1-0.7-1.2-0.8-1.7-0.4c-0.4,0.3-0.8-0.2-0.5-0.6C21.2,76.8,21.6,76.7,21.9,76.7z M13.7,77.5V78l-2.8,2v-0.6L13.7,77.5z
			 M26.6,77.5c0,0,1.5,2.5,2,6.5c0.2,2.1,1,5.7,1.1,5.7l-0.5-0.1c-0.5-2.1-0.8-4.1-1.1-5.9c-0.3-2-0.6-3.9-1.8-6.2L26.6,77.5
			L26.6,77.5L26.6,77.5z M26.9,77.5l0.5,0c0.8,1.5,1.6,3.9,1.9,6.2c0.3,2,0.5,4.1,1.2,6.2L30,89.8c-0.6-1.7-0.8-3.9-1.2-6
			C28.5,81.4,27.9,79.3,26.9,77.5L26.9,77.5z M29.8,77.5c0.8,2.1,1.3,3.1,1.7,5.7c0.3,2,0.7,4.5,1.6,7.2l-0.5,0
			c-0.7-1.8-1.2-4.3-1.4-6.6c-0.3-3.2-1.8-6.2-1.8-6.2L29.8,77.5L29.8,77.5z M29,77.5c0-0.1,1.5,2.9,1.9,6.2
			c0.2,2.2,0.7,4.4,1.4,6.5l-0.5,0c-0.6-0.6-1-3.7-1.4-6.5c-0.5-2.9-1.1-4.7-1.8-6.2L29,77.5L29,77.5L29,77.5z M27.8,77.5l0.4,0
			c1.1,2.4,1.6,3.9,1.9,6.2c0.4,3,0.8,5.7,1.3,6.4l-0.5,0c-0.7-2.1-1-4.3-1.3-6.4C29.3,81.3,28.7,79.3,27.8,77.5L27.8,77.5z
			 M30.1,77.5l0.5,0c0.9,1.8,1.6,3.9,1.8,6.4c0.1,1.3,0.4,3.4,1.4,6.5l-0.4,0c-0.8-2.1-1.3-4.6-1.6-6.8C31.6,81.5,31,79.6,30.1,77.5
			L30.1,77.5z M33.2,77.6c0.5,1.2,0.9,2.4,1.1,3.7l-0.3,0.6c-0.4-1.7-0.9-2.9-1.4-4.2L33.2,77.6z M30.9,77.6l0.6,0
			c1.1,2.5,1.6,5.1,1.7,5.9c0,0,0.1,0.8,0.2,1c0,2.1,0.3,3.7,1.1,6l-0.4,0c-0.9-2.7-1.2-4.6-1.4-6.4C32.6,81.8,31.9,79.4,30.9,77.6
			L30.9,77.6z M32.3,77.6c0.6,1.6,1.1,3.1,1.5,4.6c0,0.3-0.1,0.7-0.3,1c-0.5-1.9-0.9-3.8-1.7-5.6L32.3,77.6L32.3,77.6z M33.5,77.6
			l0.5,0l1,2.8l-0.4,0.4C34.3,79.9,34,78.9,33.5,77.6z M36.3,77.6l0.4,0.8l-0.4,0.3c0,0-0.4-0.8-0.5-1.2L36.3,77.6z M37.1,77.6
			l0.2,0.5l-0.3,0.2l-0.2-0.7L37.1,77.6z M34.3,77.6l0.5,0c0.2,0.6,0.7,2,0.7,2L35.2,80C35.2,80,34.5,78.2,34.3,77.6L34.3,77.6z
			 M35.1,77.6l0.4,0c0.1,0.4,0.5,1.4,0.5,1.4l-0.3,0.3L35.1,77.6z M37.4,77.6l0.4,0l-0.1,0.1l-0.3,0.1L37.4,77.6z M23,78.3
			c1.8,1,2.3,3.9,2.5,5.5c0.3,2.8,0.7,5.1,0.8,5.1l-0.4-0.1c0,0-0.3-1.4-0.5-2.8c-0.2-1.1-0.3-2.1-0.4-2.5c0-0.3-0.1-0.6-0.1-0.7
			c-0.3-1.1-0.3-1.4-0.7-2.1c-0.3-0.7-0.4-0.8-1-1.4c-0.2-0.2-0.4-0.4-0.5-0.5C22.8,78.5,23,78.3,23,78.3z M13.7,78.4V79l-2.8,2
			v-0.6L13.7,78.4z M13.7,79.4V80l-2.8,1.9v-0.6L13.7,79.4z M13.7,80.4V81l-2.8,2v-0.6L13.7,80.4z M18.4,81h0.2l0,0.4l-0.4,0
			L18.4,81L18.4,81z M13.7,81.5v0.6L10.8,84v-0.6L13.7,81.5z M18.1,81.8l0.6,0l0,0.4l-0.8,0L18.1,81.8L18.1,81.8z M17.7,82.5l1,0
			v0.4l-1.2,0L17.7,82.5L17.7,82.5z M13.7,82.6v0.7l-2.8,1.9v-0.7L13.7,82.6z M17.2,83.2l1.4,0l0,0.3l-1.7,0L17.2,83.2z M13.7,83.6
			v0.6l-2.8,1.8v-0.6L13.7,83.6z M16.6,83.9l2,0l0,0.3l-2.2,0L16.6,83.9L16.6,83.9z M13.7,84.6v0.6l-2.8,1.8v-0.6L13.7,84.6z
			 M15.9,84.6l2.6,0.1l0.5,0.5l-4,0L15.9,84.6L15.9,84.6z M15.1,85.5l4.5,0.1l0.3,0.3l-4.8,0L15.1,85.5L15.1,85.5z M13.7,85.7v0.7
			l-2.8,1.9v-0.6L13.7,85.7z M15.1,86.3l4.9,0l-0.4,0.4l-4.6,0L15.1,86.3L15.1,86.3z M13.7,86.8v0.6l-2.8,1.9v-0.7L13.7,86.8z
			 M15,87.1l4.3,0l-0.5,0.4l-3,0.1L15,87.1L15,87.1z M13.7,87.8v0.6l-2.8,2v-0.6L13.7,87.8z M16.3,87.9l2.5,0l0,0.3l-2.2,0
			L16.3,87.9z M17,88.6l1.9,0L19,89l-1.7,0L17,88.6L17,88.6z M13.7,88.9v0.5l-2.8,2v-0.6L13.7,88.9z M19,89.3l0,0.4l-1.1,0l-0.3-0.4
			L19,89.3L19,89.3z M19,90.1l0,0.4l-0.8,0L18,90.1L19,90.1L19,90.1z M18.3,90.8l0.6,0l-0.1,0.3l-0.5,0L18.3,90.8L18.3,90.8z
			 M18.5,91.7h0.3l-0.1,0.3h-0.2L18.5,91.7z M24.7,96.1l-0.1,0.2H29l0-0.2H24.7z M30.4,96.1l-0.1,0.3h2l0.1-0.3H30.4z M33.7,96.2
			l-0.1,0.2h5.1l-0.1-0.2H33.7z M39.8,96.2l0.1,0.3h1.7l-0.1-0.3H39.8z M45.7,96.2l-3,0l0.1,0.3h3.1L45.7,96.2L45.7,96.2z"/>
		<path class="st7" d="M20.2,27.5c0,0-1.6-2.6-3.7-5.6c-1.4-2-2.5-4.2-2.6-6.1c-0.1-2.1,1-4.3,3.1-4.4c2.1-0.1,2.9,1.7,3.2,3.1
			c0.3-1.5,1.2-3.2,3.2-3.1c2.1,0.1,3.2,2.3,3.1,4.4c-0.1,1.9-1.2,4.1-2.6,6.1C21.8,24.9,20.2,27.5,20.2,27.5L20.2,27.5z"/>
		<path class="st7" d="M54.8,77.8c0,0-1.6,2.6-3.7,5.6c-1.4,2-2.5,4.2-2.6,6.1c-0.1,2.1,1,4.3,3.1,4.4c2.1,0.1,2.9-1.7,3.2-3.1
			c0.3,1.5,1.2,3.2,3.2,3.1c2.1-0.1,3.2-2.3,3.1-4.4c-0.1-1.9-1.2-4.1-2.6-6.1C56.4,80.4,54.8,77.8,54.8,77.8z"/>
	</g>
</g>
</svg>
