<?xml version="1.0" encoding="utf-8"?>
<!-- Generator: Adobe Illustrator 19.1.0, SVG Export Plug-In . SVG Version: 6.00 Build 0)  -->
<svg version="1.1" xmlns="http://www.w3.org/2000/svg" xmlns:xlink="http://www.w3.org/1999/xlink" x="0px" y="0px"
	 viewBox="0 0 75.3 105.3" style="enable-background:new 0 0 75.3 105.3;" xml:space="preserve">
<style type="text/css">
	.st0{display:none;}
	.st1{fill:#FFFFFF;}
	.st2{fill:none;stroke:#010101;stroke-width:0.9967;}
	.st3{fill:#010101;}
	.st4{fill:none;stroke:#010101;stroke-width:1.0006;}
	.st5{fill:#E1CF20;}
	.st6{fill:#262964;}
	.st7{fill:#D31F26;}
	.st8{fill:#14130F;}
	.st9{fill:none;stroke:#010101;stroke-width:0.9929;}
	.st10{fill:#F6EB16;}
	.st11{fill:none;stroke:#010101;stroke-width:1.83;}
	.st12{clip-path:url(#SVGID_2_);}
	.st13{clip-path:url(#SVGID_4_);}
</style>
<g id="Layer_1" class="st0">
</g>
<g id="Layer_2">
	<g>
		<path class="st1" d="M3.7,0.3h67.5c2,0,3.6,1.6,3.6,3.6v97.3c0,2-1.6,3.6-3.6,3.6H3.7c-2,0-3.6-1.6-3.6-3.6V3.9
			C0.2,1.9,1.8,0.3,3.7,0.3z"/>
		<path class="st2" d="M3.7,0.3h67.5c2,0,3.6,1.6,3.6,3.6v97.3c0,2-1.6,3.6-3.6,3.6H3.7c-2,0-3.6-1.6-3.6-3.6V3.9
			C0.2,1.9,1.8,0.3,3.7,0.3z"/>
		<path class="st3" d="M5.9,17c-1.4,1.8-3,2.9-3,4.3c0,0.5,0.3,1.3,1.2,1.4c0.6,0.1,1.4-0.3,1.4-1.2c0-0.2,0.2-0.2,0.2,0.1
			c0,0.7-0.3,1.4-0.7,2.1c0.6,0,1.3,0,1.9,0c-0.4-0.6-0.6-1.4-0.7-2.1c0-0.2,0.2-0.2,0.2-0.1c0,0.8,0.8,1.3,1.4,1.2
			c0.9-0.2,1.2-0.9,1.2-1.4C8.9,19.9,7.4,18.9,5.9,17L5.9,17z"/>
		<path class="st3" d="M69.1,88c-1.4-1.8-3-2.9-3-4.3c0-0.5,0.3-1.3,1.2-1.4c0.6-0.1,1.4,0.3,1.4,1.2c0,0.2,0.2,0.2,0.2-0.1
			c0-0.7-0.3-1.4-0.7-2.1c0.6,0,1.3,0,1.9,0c-0.4,0.6-0.6,1.4-0.7,2.1c0,0.2,0.2,0.2,0.2,0.1c0-0.8,0.8-1.3,1.4-1.2
			c0.9,0.2,1.2,0.9,1.2,1.4C72.1,85.1,70.5,86.2,69.1,88L69.1,88z"/>
		<path class="st3" d="M5.9,4.9v1.2H7c0,0,0,1.1,0,3.5c0,2.3,0.1,3.4-0.1,4.1c-0.4,1.5-2.6,1.5-3,0.4c-0.3-0.6-0.2-1.1-0.2-1.8H2.6
			c0,0,0,0.3,0,0.7c0,1.7,0.6,2.5,1.9,2.8c1.3,0.4,2.9-0.2,3.5-1.3c0.3-0.7,0.3-0.7,0.3-4.7c0-2.7,0-3.8,0-3.8h1V4.9L5.9,4.9
			L5.9,4.9z"/>
		<path class="st3" d="M69.1,100.1v-1.2H68c0,0,0-1.1,0-3.5c0-2.3-0.1-3.4,0.1-4.1c0.4-1.5,2.6-1.5,3-0.4c0.3,0.6,0.2,1.1,0.2,1.8
			h1.2c0,0,0-0.3,0-0.7c0-1.7-0.6-2.5-1.9-2.8c-1.3-0.4-2.9,0.2-3.5,1.3c-0.3,0.7-0.3,0.7-0.3,4.7c0,2.7,0,3.8,0,3.8h-1v1.2H69.1
			L69.1,100.1z"/>
		<path class="st6" d="M10.1,8.3v88.4h54.9V8.3H10.1z M27.5,8.8l24.9,0.1l-3.9,5.9c-5-1.6-13.2-0.6-17.4,0.2
			C30,13.2,28.4,10.9,27.5,8.8z M10.8,9h16l3.7,6.8c0.1,0.2,0,0.6-0.1,0.8c-0.5,1.3-0.9,2.1-1.8,3.6c-0.9,1.5-1.2,2.8-0.9,3.7
			c0,0.1,0.1,0.3,0.1,0.4c-0.1,0.5-0.4,1-0.9,1.3c-0.4,0.1-1.1,0.1-1.5,0.5c-0.4,0.4-0.7,0.9-0.6,1.8c0,0.3,0.1,0.6,0.1,0.6
			c-4.8,2-8.2,4.3-8.1,4.4c0,0-4.2-1.9-5.9-2.4V9z M53.2,9h11v31.3l-4.1-2.7c0.3-0.2,0.6-0.4,0.9-0.6l0.3,0c0.7-0.2,1.2-0.7,1-1.3
			c-0.2-0.4,0.1-0.4,0.3-0.7c0.2-0.4,0.2-0.7,0-1c-0.1-0.1,0-0.2,0.1-0.5c0.3-0.4,0.1-1.1-0.3-1.3c0-0.1,0-0.2,0.1-0.3
			c0.1-0.6-0.1-1.1-0.6-1.2c-0.3-0.1-0.3-0.1-0.2-0.3c0.2-0.4,0-0.5-0.4-0.7c-0.5-0.2-0.4-0.3,0.3-0.6c1.4-0.6,1.7-2.5,0.8-4.2
			c-0.1-0.2-0.4-0.7-0.7-1.1c-0.3-0.4-0.5-0.7-0.5-0.7l1.8-2.6c0,0-1.3-1.5-1.7-2.4c0.1-0.4,1.4-1.7,1.6-3c0.3-2-1.2-3.2-2.7-3.1
			c-1,0.1-2.2,0.7-2.1,2.6c0,0.6,0.3,1.2,0.7,1.9c0.3,0.5,0.6,1.1,1,1.6l-1.9,2.5l1.9,2.4l-0.1,0.1c-0.2,0.3-0.7,1.2-1,1.7
			c-0.7,1.4-0.9,2.9,0.5,3.9c0.2,0.2,0.4,0.3,0.5,0.4c0.1,0.1,0.1,0.2-0.2,0.3c-0.3,0.1-0.5,0.1-0.8,0.2c-0.9,0.3-1.8,0.8-2.4,1.4
			c-0.4,0.3-0.9,1.2-1.3,1.9c-0.4,0.8-0.5,1-0.5,1l-6.5-4.2l-0.2-0.2c-0.1-0.1-0.1-0.2,0-0.4c0.1-0.1,0.1-0.5,0-0.8
			c0-0.5,0-0.5,0.3-1c0.1-0.2,0.2-0.4,0.1-0.6c-0.1-0.3-0.1-0.2,0.1-0.4c0.1-0.1,0.2-0.1,0.2-0.2c0-0.1,0-0.4,0-0.8
			c0-0.9,0-0.8,0.5-1.2c0.6-0.5,0.8-0.7,0.9-0.9c0.1-0.3,0-0.5-0.3-1.2c-0.2-0.3-0.4-0.7-0.5-0.9c-0.2-0.4-0.5-0.9-0.7-1.4
			c-0.2-0.4-0.2-1,0-1.4c0.3-0.5,0.3-0.8,0.3-1.7c0-0.9-0.1-0.8,0.2-1.1C50.5,13.3,53.2,9,53.2,9z M60.2,12.4l0.1,0
			c0.5,0,1.1,0.2,1.6,0.7c0.7,0.7,0.6,1.6,0.4,2.7c-0.1,0.3-0.2,0.6-0.4,0.9c-0.1,0.2-0.2,0.3-0.2,0.4c0,0-0.2,0.3-0.4,0.6
			c-0.2,0.3-0.4,0.7-0.4,0.7s0.3,0.6,0.9,1.3c0.4,0.6,0.7,1.2,0.7,1.1c0,0-0.1,0.3-0.3,0.5C61.8,21.8,61,23,61,23.1l-0.1,0.1
			c0,0.1,0.2,0.2,0.4,0.6c1.5,2,1.7,3.8,0.6,4.8c-0.6,0.5-1.1,0.7-1.7,0.6c-1.1-0.1-2.1-1-2-2.4c0.1-0.6,0-0.8,0.4-1.5
			c0.2-0.4,0.5-1.1,0.8-1.4c0.2-0.2,0.4-0.6,0.4-0.6s-0.5-0.8-1.5-2c-0.2-0.2-0.3-0.5-0.3-0.5l1.7-2.5c0,0-0.2-0.5-0.5-1
			c-0.7-1-1.1-2-1.1-2.6C58.1,13.2,59.1,12.4,60.2,12.4z M64.4,47.5c-1,0.5-1.9,2.3-0.1,1.1l0,1c-1,1.4-2.9,0.4-2.4-1.1
			c-1.3,0.2-1.5-1.2-1.5-1.8c-1.7-0.4-1.1-2.2-1.1-2.2c-1-0.8-1.2-1.7-0.4-2.6c-0.8-0.5-1-0.8-1.9-1.2c0.7,6.1,4,9.3,7.5,12.1
			c-0.1,0-0.1,2-0.3,1.6c-5-3.7-8.2-7.9-8.7-14.8c0,0.1-2.4-1.8-2.7-1.7c-0.8,11.1,8.1,18.4,11.7,19.8l0,1.6
			c-5.6-2.4-11.8-9.6-13-18l-3.3,5.1L47,45.9l5.3-8.4l-3.6-2.3l-5.9,9.3c0,0-0.2,0.8,0.3,0.8c8.2,0.9,20.5,10.7,16.4,26.8
			c-0.4-0.1-0.9-0.4-0.9-0.4c0.6-1.4,2.4-10.3-3-17.6c-2.5-3.3-6.3-6.8-12.5-7.9c0.5,1,0.3,3.4,0.3,3.4l1.4,0.3
			c-0.5-0.5-0.9-0.9-1.1-1.5c-0.3-0.9,0.1-1.4,1.1-0.9c0.4,0.2,0.5,0.2,0.8-0.1c0.8-0.6,1.6,0,1.4,1c0,0.1,0,0.2,0.4,0.3
			c0.8,0.1,1.7,0.5,2.2,1.1c0.3,0.3,0.3,0.3,0.6,0.1c0.6-0.5,1.5,0.2,1.4,1c-0.1,0.4,0,0.5,0.2,0.6c1.1,0.5,1.4,0.8,1.8,1.8
			c0.1,0.4,0.2,0.5,0.3,0.5c0,0,0.2-0.1,0.4-0.1c0.8-0.3,1.3,0.7,0.7,1.5c-0.1,0.2,0,0.3,0.2,0.4c0.7,0.4,1.2,1.3,1.3,2.3
			c0,0.4,0.1,0.4,0.4,0.3c0.9,0,1.4,1.2,0.6,1.7c-0.3,0.2-0.2,0.4,0,0.6c0.5,0.6,0.7,1.1,0.6,1.8c-0.1,1,0,1,0.3,1.1
			c0.9,0.3,0.7,1.8-0.2,1.8c0.6,1.5-0.2,3.3-0.2,3.3c1.7,1,0.2,2-0.3,1.8c0,0-0.3,0.7,0,1c-1.5,2-3.5,2.3-5.6,3.3l-0.1-7
			c0.9,0.7,1.8,1.4,2.7,2.1c0,0,0.2-0.1,0-0.3c-0.4-0.4-1.4-1-1.7-1.3c-0.6-0.5-2.8-2.6-3.2-3.1c-0.2-0.3-0.4-0.1-0.4-0.1
			c0.3,0.5,0.5,1,0.8,1.5c0.7,1,1.5,2.2,1.4,3.3c0,0.6-0.3,1.3-0.4,1.6c-0.1,0.4-0.8-0.1-0.6-0.4c0.3-1,0.6-1.8-0.5-3.4
			c-0.5-0.8-1.2-2.2-1.2-2.2l-0.4,0.1l0,9.1c-0.4,0-1.3,0.3-1.1,0.3c2.9-0.6,3.9,3.6,1,3.8c-0.5,0-1.1,0.9-1.2,1.5
			c0,1.2,0.2,2.5-0.7,3.7c-0.2,0.3-0.3,0.8-0.6,1.2c-1.1,1.9-1.6,3-1.5,3.5c0,0.1,0.1,0.3,0.1,0.3c-3.5,0.9-6.1,1.1-9.6,1.2
			c0-0.1,1.2-3.5,2.1-5.2c0.7-1.3,1-2.2,0.8-2.4c-2.8,0.1-2.3-3.9,0.4-3.8c0,0,0.7-2.3,1.4-3.4c0.7-0.4,2.1,0.1,2.9-0.4
			c1.9-0.6,3.1,1.6,3.1,1.6l0.5-2.1l-16.6-0.1c0,0-1.6,0.7-2.5,0.3c-0.6-0.2-1.4-0.8-1.4-0.8c0,0,6.4-10.3,7.4-11.7
			c0.1-0.1-0.2-0.4-0.2-0.4c0-0.3-7.6,11.9-7.6,11.9c-4.3-2.7-9.7-6.2-14.4-9.2l0-4.6c3.5-2.2,3.2-3.1-0.1-0.7l-0.1-1.7
			c2.4-2.2,0.4-1.5-0.1-0.7c0-0.5-0.1-1.3,0.2-1.6c1.1-1,2.3-0.1,2.4,1.4c1.4,0.3,1.2,1.5,1.6,2c1.4,0.8,0.7,2,1,2.4
			c1.5,0.9,0.5,2.5,0.1,2.4c0.2,0.1,2,1.4,2.2,1.3c-0.2-6.5-6.7-11.8-7.6-12.4l0.2-1.4c0,0,9,5.7,8.9,15l2.9,1.7
			c-0.3-9.5-4.5-15.9-11.8-19.9l-0.1-1.8c6.1,2.8,11.7,8.5,13,17.9l3.4-5.2l1.2,0.6l-5.4,8.6l3.4,2.2c2.6-3.4,4.8-7.6,6.1-9.6
			c0-0.2-0.1-0.4-0.1-0.4c-12.8-2.1-20.1-14.1-16.6-26.7l0.9,0.4c-2.7,9.3,1.7,22.7,15.7,25.4c0-1-0.2-3.4-0.2-3.4s-1.8-0.6-1.6-0.3
			c0.4,0.4,1.5,2,1,2.6c-0.3,0-0.8-0.1-1.4-0.5c-0.2-0.2-0.2-0.1-0.5,0.1c-0.7,0.7-1.6,0.3-1.6-0.7c0-0.4,0-0.5-0.6-0.5
			c-0.9,0-1.3-0.2-1.8-0.9c-0.4-0.5-0.3-0.5-0.8-0.4c-0.8,0.4-1.5-0.4-1.3-1.1c0.1-0.3,0-0.4-0.4-0.5c-0.7-0.1-1.6-1.1-1.7-1.8
			c0-0.2-0.1-0.2-0.6-0.2c-0.9,0-1.3-0.5-1-1.2c0.2-0.4,0.2-0.6-0.1-0.8c-0.4-0.3-0.7-0.6-0.9-1c-0.1-0.3-0.2-0.5-0.3-1.2
			c0-0.2-0.1-0.3-0.4-0.3c-0.9-0.1-1.2-1-0.6-1.6c0.2-0.2,0.2-0.2-0.1-0.6c-0.6-0.8-0.8-1.7-0.5-2.4c0.1-0.2,0-0.4-0.2-0.4
			c-0.8-0.2-0.8-1.1,0-1.6c0.2-0.1,0.2-0.2,0.1-0.5c-0.3-0.5-0.3-1.9,0-2.5c0.2-0.4,0.2-0.4-0.1-0.6c-0.6-0.4-0.4-1.5,0.3-1.7
			c0.4-0.1,0.4-0.1,0.3-0.6c-0.2-0.8-0.2-1,0.3-1.3c1.2-0.8,4.4-2.4,4.4-2.4l1.1-0.5c0,0,0.1,6.4,0,7.2c0,0.3,0.3,0.5,0.6,0.9
			c0.7,0.7,1.1,1.5,2,2.1c0,0,0.6-0.3,1-0.6l0-9.2c0.1-0.2,0.1-0.2,0.4-0.3c0.2,0,0.7-0.1,0.9-0.1c0.4-0.1,0.5-0.3-0.1-0.2
			c-0.2,0-0.4,0.1-0.7,0.1c-1.7,0.5-2.9-2.1-1.6-3.4c0.2-0.2,1.2-0.6,1.6-0.6c0.1,0,0.5-0.4,0.7-0.8c0.2-0.4,0.3-0.7,0.2-1.1
			c-0.3-0.9,0-2.2,0.9-3.6c1-1.4,1.7-2.9,2.1-4.5c3.4-0.4,6.3-1.2,9.3-1.1c0.1,1-3.4,7.1-2.6,7.5c2.7,0.7,1.8,3.9-0.3,3.8
			c-0.3,0-0.3,0-0.5,0.7c-0.4,1-0.6,1.8-1,2.7c0,0.2-1.4,0.2-2.5,0.2c-0.5,0.4-2.6,1.4-3.7-1.2l0,2.2c0,0,15.6-0.2,18.4,0.1
			c0.1-0.7,1.5,0.5,1.5,0.5l-7.6,12l0.4,0.3c1.1-1.3,7.7-12,7.7-12l14.4,9.3c-0.1,1.4,0,4.5,0,4.5c-3.9,2.1-2.7,3.2,0,0.6L64.4,47.5
			z M40.6,14.8c0,0,4.1,0,6.1,0.4c1.8,0.3,1.7,0.2,1.7,1.5c0,0.9,0,0.9-0.2,1.3c-0.4,0.8-0.4,1.6,0.3,2.7c0.7,1.1,1.2,1.9,1.2,2
			c0,0.2,0,0.5-0.6,0.9c-0.7,0.5-0.8,0.8-0.8,1.3c0,0.4-0.1,0.5-0.3,0.5c-0.1,0-0.4,0.2-0.8,0.3c-0.6,0.3-0.6,0.3-1.2,0.3
			c-0.3,0-0.4-0.1-0.5-0.1c-0.2,0.1-0.3,0.6-0.3,0.8c0,0.1,0.1,0,0.3,0c1-0.3,2.4-0.2,2.5,0c0.2,0.2,0.2,0.5-0.1,0.7
			c-0.2,0.3-0.3,0.5-0.2,0.9c0.1,0.6,0,0.9-0.3,1.1c-1,0.7-2.3,0.8-4.4,0.3c-2.2-0.4-3.7-1.3-5-2.8c-0.6-0.7-0.7-0.9-0.4-1
			c0.3-0.1,0.7-0.1,1.1-0.3c1.6-0.7,1.5-3.5-0.6-3.8C37,22,39.6,17.9,40.6,14.8z M42.6,16.8c-0.8,0.4-1.2,0.9-1.2,1.2
			c0,0.1,0,0.1,0.4-0.1c1-0.7,3.8-1.7,4.8-1.1c0.7,0.4,1,0.3,0.6-0.3C46.2,15.1,43.6,16.2,42.6,16.8z M45.3,17.2c-0.1,0-0.2,0-0.3,0
			c-0.7,0.2-1.5,0.8-2.2,1.3c-0.3,0.3-0.8,0.8-0.9,0.9c-0.2,0.3,0.2,0.6,0.7,0.4c0.3-0.2,0.3-0.1,0.6-0.1c0.6,0.2,1.4,0.5,2.5,0.4
			c0.1,0,0.1,0,0.1,0.1c-0.1,0.2-0.5,0.5-1,0.9c-0.3,0.2-0.5,0.4-0.5,0.4c-0.1,0.1,0.3,0.1,0.7-0.1c0.6-0.3,1.2-1,1.6-1.6l0.1-0.2
			c0-0.1-0.2-0.1-0.3-0.1l-0.1-0.2c0-0.2,0-0.4,0.1-0.7c0-0.2,0.2-0.3,0.4-0.5c0.6-0.6,0.5-0.9-0.2-0.4C46.2,18,46.1,18,46,18
			c-1.2,0-1.8,0-2.8,0.8c-0.4,0.3-0.7,0.4-0.3,0c0.6-0.5,1.3-1.1,2.1-1.3c0.5-0.1,1,0.3,1.2,0.2C46.2,17.4,45.7,17.2,45.3,17.2
			L45.3,17.2z M45.1,18.9c0.1,0.1,0.3,0.5,0.3,0.7c0,0.2-0.3,0.1-0.4,0l-0.2-0.5C44.7,18.9,45,18.8,45.1,18.9z M44.5,19
			c0.1,0.1,0.2,0.4,0.3,0.7c-0.1,0.2-1.2-0.1-1.3-0.3C43.6,19.2,44.2,18.9,44.5,19z M46.5,22.2c-0.1,0-0.2,0-0.3,0.1
			c-0.5,0.5-0.3,1.4,0.3,1.7c0.3,0.1,0.8,0,1.4-0.2c0.3-0.1,0.6-0.1,0.6-0.1c0.3,0,0.4-0.4,0.2-0.6C48.5,23,48,23,47.5,23.4
			c-0.3,0.2-0.5,0.3-0.7,0.3c-0.5,0-0.8-0.6-0.3-1.2C46.7,22.4,46.6,22.3,46.5,22.2L46.5,22.2z M42.7,26.1c0.6,0.5,1.9,0.2,2.7-0.3
			c0.7-0.5,1-0.6,1.6-0.5c0.7,0.1,0.7-0.2,0.4-0.5c-0.4-0.4-1.2-0.3-2,0.2c-1.6,1.1-2.2,1.3-2.7,0.7c-0.5-0.6,0.1-1.4,0.7-1
			c0.5,0.3,0.5,0.1,0.3-0.1C42.5,23.5,41.7,25.3,42.7,26.1z M37,26.6c0.8,1,1.6,1.9,2.8,2.5l0,0.2l-3.8,0C36.3,28.9,37,26.6,37,26.6
			z M24.1,29.3c-0.1,1.6,0.2,2.5,1.1,3.6c1,1.2,0.9,3,0.3,4.1c-0.3,0.5-0.8-0.1-0.6-0.4c0.4-0.5,0.4-1.6,0.2-2.4
			c-0.4-1.2-1.3-1.8-1.7-3c-0.1-0.5-0.1-1.5-0.1-1.5L24.1,29.3z M25.3,29.4c0.1,0,0.2,0.1,0.3,0.2c0.5,0.5,0.4,1.8-0.2,2.6
			c-0.2,0.3-0.3,0.2-0.5-0.1c-0.2-0.2-0.2-0.3,0-0.7c0.2-0.4,0.3-0.9,0.2-1.5C25.2,29.6,25.2,29.4,25.3,29.4z M60.2,29.9
			c0.5,0,1.1,0.1,1.1,0.3c0.1,0.2-0.1,0.4-0.3,0.5c-0.7,0.3-1.6-0.1-1.4-0.6C59.6,29.9,59.9,29.9,60.2,29.9z M59,30
			c0.1,0,0.2,0,0.3,0.1c0.2,0.1-0.1,0.9,1,0.9c0.3,0,0.5,0,0.4,0.1c-0.1,0.2-0.5,0.5-1.1,0.5c-1.6,0.2-1.5,0.2-1.4,1.3
			c0,0.7,0,1-0.1,1.4c-0.2,0.8-0.2,1.5-0.1,1.3c0.2-0.3,0.5-1.3,0.5-1.9c0-0.9,0.3-1,0.4-0.4c0.1,0.4-0.1,0.6,0.1,1.1
			c0.2,0.2,0.2,0.2,0.1,0.6c-0.1,0.3,0,0.4,0.1,0.6c0.1,0.2,0.2,0.2,0.1,0.4c-0.2,0.5,0.1,1,0.6,1c0.2,0,0.3,0.1,0.2,0.2
			c-0.1,0.1-0.3,0.2-0.5,0.3l-5-3.2c0,0,0.4-0.7,0.5-0.9c0.7-1.6,1.3-2.3,3.4-3.1C58.7,30,58.9,30,59,30z M61.6,31
			c0.1,0,0.2,0.1,0.4,0.2c0.3,0.4,0,0.9-0.7,1.3c-0.6,0.4-0.8,0.4-1-0.2c0-0.1-0.1-0.2-0.2-0.3C60,32,60,31.9,60.2,31.8
			c0.1,0,0.4-0.2,0.6-0.3C61.2,31.2,61.5,31,61.6,31z M59.5,32.2c0.2,0,0.3,0,0.4,0.1c0.2,0.1,0.2,0.5,0,0.6c-0.4,0.2-1-0.1-1-0.4
			C59,32.3,59.2,32.2,59.5,32.2z M62.1,32.6c0.1,0,0.2,0.1,0.3,0.2c0.2,0.4,0,0.7-0.8,1.1c-0.5,0.3-1.2,0.4-1.1,0.2
			c0-0.1-0.2-0.7-0.2-0.8c0-0.1,0,0,0.7-0.2c0.2-0.1,0.5-0.2,0.7-0.3C61.8,32.7,61.9,32.6,62.1,32.6z M24.5,33.5
			c-0.4,0.9-0.4,1.3-0.3,2.2c0.1,0.8,0.3,1.2,1.1,2.3c0.6,0.9,0.8,1.2,0.7,1.5c-0.1,0.1-0.3,0.3-0.5,0.1c-0.3-0.4-0.5-0.9-0.8-1.3
			c-1.1-1.6-1.2-2-1.3-3.3c-0.1-0.6,0.3-1.8,0.6-2C24.3,32.9,24.6,33.3,24.5,33.5z M50.1,33.1c-0.3,0.2-0.5,0.7-0.6,1
			c0,0.2,0.2,0.1,0.7-0.7C50.3,33.3,50.2,33.1,50.1,33.1z M59.7,33.5c0.4,0,0.6,0.4,0.4,0.6c-0.3,0.3-0.8,0.1-0.8-0.3
			C59.3,33.6,59.3,33.5,59.7,33.5z M62.1,34.1c0.3,0,0.3,0.3,0.2,0.6c-0.2,0.3-0.4,0.4-1,0.6c-0.7,0.2-0.8,0.2-1-0.5
			c0-0.3,0-0.2,0.7-0.4c0.3-0.1,0.6-0.2,0.8-0.3C61.9,34.1,62,34.1,62.1,34.1z M19,34.4l0.2,1.4l0.3-1L19,34.4z M59.8,34.8
			c0.4,0,0.6,0.3,0.4,0.5c-0.1,0.1-0.4,0.1-0.5,0C59.4,35.2,59.4,34.8,59.8,34.8z M48.8,35.5l0.7,0.4l-5.7,9l-0.7,0L43,44.8
			L48.8,35.5z M61.7,35.6c0.4,0,0.5,0.4-0.1,0.8c-0.2,0.1-0.4,0.2-0.6,0.2c-0.3,0-0.4-0.1-0.4-0.2c-0.1-0.4-0.2-0.5,0.2-0.5
			c0.1,0,0.3,0,0.5-0.1C61.4,35.7,61.6,35.6,61.7,35.6z M59.9,36c0.3,0,0.5,0.3,0.3,0.5c-0.2,0.2-0.5,0.1-0.5-0.2
			C59.7,36.1,59.7,36,59.9,36z M19,36.7L17.5,38c0.6,0.7,1,1.3,1.5,2L19,36.7z M50.3,36.7c0.7,0,0.9,0.3,0.6,0.5
			c-0.4,0.3-0.8,0.3-1.3,0.2c-0.6-0.1-0.1-0.6,0.6-0.7L50.3,36.7z M49.6,37.7c0.1,0,0.3,0,0.6,0.1c0.4,0.1,1,0.6,1,0.9
			c0,0.4-0.8,0.2-1.4-0.4C49.3,37.9,49.3,37.7,49.6,37.7z M49,37.7c0.4,0,0.8,1.3,0.5,1.7c-0.3,0.4-0.8-0.4-0.7-1.1
			C48.8,38.1,48.9,37.7,49,37.7L49,37.7z M24.1,38c0.2,0.1,0.5,0.3,0.4,0.6c0,0.1-0.1,0.1-0.2,0C24.1,38.6,24,38.3,24.1,38L24.1,38z
			 M53,38.2l1.1,0.8L53,39V38.2z M48.3,39.8c0.9,0,1,0.3,0.4,0.6c-0.3,0.1-0.9,0.2-1.3,0.1C47,40.3,47.6,39.8,48.3,39.8z M55.3,40.3
			l0.1,0.8l-2.2,0.2l-0.1-0.8L55.3,40.3z M47.8,40.7c0.1,0,0.4,0.1,0.7,0.2c0.6,0.3,0.9,0.8,0.6,1c-0.3,0.1-0.8,0-1.1-0.4
			C47.6,41,47.6,40.7,47.8,40.7z M47.1,40.7c0.4,0,0.7,1.1,0.5,1.6c-0.1,0.3-0.3,0.2-0.6-0.3C46.8,41.6,46.7,40.8,47.1,40.7
			L47.1,40.7z M19.1,41l-0.9,1.9l1.7,1.5L19.1,41z M55.6,42.5l0.2,0.7l-2.1,0.5l-0.2-0.8L55.6,42.5z M46.5,42.6
			c0.3,0,0.5,0.1,0.6,0.2c0.2,0.2,0.1,0.2-0.3,0.4c-0.8,0.3-1.8,0.1-1.2-0.4C45.9,42.7,46.2,42.6,46.5,42.6z M60,42.6
			c-0.8,0.5,0,0.8,0.5,0.4C60.5,42.9,60.1,42.6,60,42.6z M45.9,43.7c0.6,0,1.7,0.8,1.4,1.2c-0.1,0.2-0.9,0-1.2-0.3
			c-0.4-0.4-0.6-0.9-0.4-0.9L45.9,43.7z M45.2,43.7c0.3-0.1,0.8,1.3,0.4,1.7c-0.1,0.1-0.2,0.1-0.4-0.1
			C44.8,44.9,44.9,44.2,45.2,43.7L45.2,43.7z M62.6,44.4c-0.1-0.1-0.2-0.2-0.3-0.3C59.6,45.2,60.3,46.2,62.6,44.4z M56.1,44.5
			l0.3,0.8l-2.1,0.8L54,45.3L56.1,44.5z M20.5,45.9l-0.7,1.9c0.8,0,1.5,0.4,2.2,0.7L20.5,45.9z M56.8,46.5l0.4,0.7l-2,1.1l-0.4-0.8
			L56.8,46.5z M11.3,47.9l0.8,0.6L10.9,50l-0.1-0.2l0-1.2L11.3,47.9z M57.9,48.4l0.5,0.7l-1.9,1.3L56,49.6L57.9,48.4z M13.3,49.3
			l0.9,0.7l-1.4,1.7l-0.8-0.6L13.3,49.3z M22.8,49.7l0,2l2,0.1L22.8,49.7z M46.4,50.6l2.3,1.3l-0.3-2C47.8,50,47,50.4,46.4,50.6z
			 M59.1,50.2l0.5,0.7l-1.7,1.5l-0.6-0.7L59.1,50.2z M15,50.7l0.8,0.7L14.4,53l-0.7-0.7L15,50.7z M60.6,51.8l0.6,0.6l-1.6,1.6
			L59,53.5L60.6,51.8z M16.9,52.6l0.6,0.7l-1.6,1.3l-0.6-0.7L16.9,52.6z M26.3,52.8l0.5,1.9c0-0.1,2-0.6,2.3-0.4L26.3,52.8z
			 M50.2,53l1.9,2l0.2-2L50.2,53z M62.2,53.3l0.7,0.5l-1.3,1.9l-0.8-0.6L62.2,53.3z M18.3,54.5l0.6,0.8l-1.7,1l-0.5-0.7L18.3,54.5z
			 M64,54.7l0.1,0.1l0,1.3l-0.5,0.8l-0.7-0.4L64,54.7z M53.1,56.2l1.7,3.1l0.5-2.3C54.6,57,53.6,56.6,53.1,56.2z M19.6,56.6l0.4,0.9
			l-1.8,0.8l-0.4-0.9L19.6,56.6z M20.6,58.8l0.3,0.9L19,60.3l-0.3-0.9L20.6,58.8z M12.1,60.4l0.6,0.4C15.8,59.2,14.8,58.7,12.1,60.4
			z M29.6,59.4c0.1,0,0.3,0.1,0.4,0.5c0.2,0.5,0.1,1.2-0.3,1.2c-0.2,0-0.3-0.7-0.3-0.8C29.3,59.7,29.5,59.4,29.6,59.4z M31.3,59.7
			l0.7,0.1l0,0.2l-5.9,9.3l-0.7-0.5L31.3,59.7z M28.1,59.9c0.2,0,0.6,0.2,0.9,0.5c0.2,0.2,0.4,0.5,0.4,0.7c0,0.1-0.2,0.1-0.3,0
			c-0.4-0.1-1-0.3-1.2-0.7C27.7,60.1,27.9,59.9,28.1,59.9z M55.2,60.2l0.8,3.8c0.2-1,0.8-1.5,1.1-2.3C56.1,61.3,55.7,60.8,55.2,60.2
			z M21.4,61l0.2,1l-2,0.5l-0.2-1L21.4,61z M28.8,61.4L28.8,61.4c0.8,0.1,0.9,0.2,0.4,0.6c-0.3,0.2-1.1,0.2-1.2,0
			C27.8,61.7,28.4,61.4,28.8,61.4L28.8,61.4z M14.4,61.9l0.6,0.4C16,61.5,14.9,61.4,14.4,61.9z M27.7,62.3c0.2,0,0.4,0.4,0.4,0.8
			c0.1,0.4,0.1,0.7,0,0.8c-0.2,0.2-0.3,0.3-0.5,0C27.3,63.3,27.3,62.3,27.7,62.3z M26.1,62.8c0.1,0,0.2,0,0.4,0.1
			c0.5,0.2,1.2,1,0.9,1.1c-0.4,0.2-1.4-0.3-1.5-0.8C25.8,63,25.9,62.9,26.1,62.8z M21.8,63.5l0,1l-2.1,0.1l-0.1-1L21.8,63.5z
			 M27,64.3c0.2,0,0.4,0,0.6,0.1c0.3,0.1,0.1,0.4-0.4,0.5c-0.3,0.1-0.8,0.1-1,0C25.7,64.6,26.3,64.3,27,64.3z M10.8,64.4
			c1.4,0.9,4.4,2.8,4.4,2.8c-0.1,0-0.3,0.1-0.4,0.2c-0.1,0.1-0.2,0.2-0.3,0.2c-0.2,0.1-0.3,0.1-0.4,0.1c-0.9,0.2-1.4,0.7-1.1,1.4
			c0.1,0.3,0.1,0.2-0.1,0.4c-0.5,0.5-0.5,0.7-0.3,1.3c0,0.1-0.7,0.9-0.1,1.5c0.3,0.3,0.3,0.1,0.2,0.7c0,0.4,0.1,0.7,0.6,0.8
			c0.3,0.1,0.3,0.1,0.2,0.4c-0.1,0.4,0,0.5,0.3,0.7c0.2,0.1,0.3,0.2,0.2,0.3c-1.9,0.9-2.4,2.6-0.7,5c0.2,0.3,0.7,1.1,0.7,1.1
			c-0.6,0.9-1.2,1.6-1.8,2.4l1.8,2.4c-0.3,0.4-0.9,1.3-1.4,2.2c-0.6,1.3-0.2,3.2,1.6,3.8c0.8,0.2,1.8,0,2.4-0.7
			c0.5-0.6,0.8-1.8,0.3-3c-0.6-1.4-1.3-2-1.5-2.4l1.9-2.3c0,0-1.3-1.9-1.8-2.5c3.5-4.3,0.6-5.5,0.1-5.9l-0.1-0.3
			c3.2-0.4,4.2-2.1,5.2-4.3c1.9,1.2,4.6,2.8,6.5,4.1c0.2,0.2,0.3,0.3,0.3,0.4c0,0.1-0.1,0.4-0.1,0.8c0.1,0.6,0,0.8-0.2,1
			c-0.2,0.2-0.2,0.3-0.1,0.5c0.1,0.4,0.1,0.4-0.1,0.6c-0.2,0.2-0.3,0.4-0.2,0.9c0,0.3,0.1,0.6,0,0.8c-0.1,0.3-0.4,0.4-0.9,0.7
			c-0.7,0.6-0.6,0.8,0.4,2.9c0.9,1.8,1,2.2,0.6,2.8c-0.3,0.5-0.4,0.9-0.3,1.7c0,0.2,0,0.4,0,0.5c0,0.2,0,0.2-0.1,0.4
			c-0.1,0.1-0.3,0.4-0.4,0.5c-1.2,1.8-4.4,6.5-4.4,6.5H10.8V64.4z M25.9,65.3c0.1,0,0.3,0.2,0.4,0.7c0.1,0.3,0.1,0.7-0.1,0.9
			c-0.3,0.3-0.8-0.5-0.6-1.1C25.7,65.4,25.8,65.3,25.9,65.3z M56.1,64.8c0,1.7,0,3.8-0.6,5.4l0.6,0.3c-0.2-1.6,0.1-3,1.5-3.7
			C57,66.3,56.5,65.5,56.1,64.8z M24.3,65.8l0.2,0c0.2,0.1,0.5,0.2,0.7,0.4c0.3,0.3,0.6,0.7,0.5,0.7c-0.5,0.2-1.8-0.5-1.6-1
			C24.1,65.9,24.2,65.8,24.3,65.8z M22,65.9l0,0.8l-1.2-0.8L22,65.9z M50.5,66.3c0.2,0,0.5,0.3,0.5,0.5c-0.1,0.2-0.2,0.2-0.3,0
			C50.5,66.5,50.4,66.3,50.5,66.3z M25.2,67.3c0.3,0,0.6,0.1,0.6,0.2c0,0.1-0.2,0.3-0.5,0.4c-0.7,0.2-1.2,0.1-1-0.3
			C24.4,67.4,24.8,67.3,25.2,67.3z M49.9,68.2c-0.3,0.5-0.3,2.3,0.2,3c0.8,0.9,1.6,2.1,1.5,3.7l-0.8,0.4c0-1.3,0-2.1-1-3.2
			c-1.2-1.3-0.9-3.6-0.5-4.2C49.7,67,50.2,68,49.9,68.2z M15.3,67.5c0.3,0,0.6,0.1,1.1,0.5c1.4,1,2.2,1.4,3.6,2.4
			c0.2,0.2,0.2,0.2,0.2,0.3c-0.5,2.1-2.1,3.7-4.4,4c-0.3,0-0.1-0.1-0.3-0.5c-0.2-0.3-0.5-0.5-0.8-0.5c-1,0-0.1-0.5,1-0.7
			c0.4-0.1,0.9-0.1,1.1-0.3c0.1,0-0.2-1.6,0.1-2.2c0.1-0.5,0-0.8-0.1-0.5c-0.1,0.2-0.2,0.7-0.3,1.3c-0.1,0.5-0.2,0.5-0.3,0.3
			c0-0.1,0-0.3,0-0.5c0.1-0.4-0.5-0.8-0.3-1.1c0.1-0.3,0-0.7-0.2-0.8c-0.1-0.2-0.1-0.4-0.1-0.5c0-0.3-0.2-0.7-0.6-0.8
			c-0.2-0.1-0.1-0.2,0.1-0.3L15.3,67.5z M14.2,68.1c0.1,0,0.2,0,0.3,0c0.2,0.1,0.3,0.8,0.1,0.8c-0.1,0-0.3,0-0.5,0.1
			c-0.6,0.2-0.9,0.2-0.9-0.2C13.1,68.4,13.7,68.1,14.2,68.1z M15,68.1c0.3,0,0.5,0.3,0.3,0.5c-0.2,0.2-0.5,0-0.5-0.2
			C14.8,68.3,14.9,68.1,15,68.1z M15.2,69.2l0.2,0.1c0.2,0.1,0.4,0.5,0.2,0.7c-0.1,0.1-0.4,0.1-0.6-0.1
			C14.7,69.5,14.9,69.2,15.2,69.2z M14.4,69.2c0.1,0,0.2,0,0.3,0.1c0,0.1,0,0.2,0,0.3c0.1,0.2,0.2,0.3,0.1,0.4
			c-0.5,0-1.5,0.6-1.8,0.6c-0.2,0-0.3-0.3-0.1-0.6C13.1,69.6,13.9,69.2,14.4,69.2z M14.7,70.4c0.1,0,0.1,0.1,0.1,0.2
			c0,0.1,0,0.4,0.1,0.5c0.1,0.2,0.2,0.3,0.2,0.4c-0.1,0-0.5,0.1-0.9,0.3c-0.5,0.3-1.7,1-1.4-0.2c0.1-0.4,0.6-0.7,1.4-1
			C14.4,70.5,14.6,70.4,14.7,70.4z M15.3,70.4c0.2,0,0.4,0.1,0.5,0.3c0.3,0.6-0.6,0.7-0.8,0.2C14.9,70.6,15.1,70.4,15.3,70.4z
			 M15.5,71.8c0.4,0,0.8,0.6,0.5,0.8c-0.2,0.1-0.5,0.1-0.8,0C14.8,72.4,14.9,71.8,15.5,71.8z M58,71.8c1.7,0.9,4,1.7,6.2,2.3V96H49
			l-4.2-7.3c0,0-0.1-0.2-0.2-0.3c-0.1-0.2-0.1-0.4,0-0.6c0.1-0.5,0.6-1.5,0.9-2.1c1-1.8,2.4-3.9,1.7-5.6c-0.1-0.2,0.8-1.3,0.8-1.3
			c1.4,0.1,2.5-0.8,2.1-2.9C53,74.7,55.3,73.8,58,71.8L58,71.8z M14.7,71.9c0,0-0.1,0.5,0.2,0.8c0.2,0.2,0.1,0.2-0.4,0.4
			c-0.2,0.1-0.4,0.3-0.5,0.4c-0.7,0.7-1.5-0.2-0.8-0.9C13.8,72.1,14.4,72,14.7,71.9L14.7,71.9z M49.6,72.4c0.2,0,0.6,0.4,0.5,0.5
			c-0.3,0.6-0.4,0.9-0.4,1.5c0,0.7,0.1,0.8-0.2,0.7C49.3,75,49,74.9,49,74.7C48.8,74.3,49.2,72.3,49.6,72.4z M14.5,74.1
			c0.3,0,0.6,0.1,0.7,0.3c0.1,0.2,0.1,0.3,0,0.4c-0.3,0.2-1.4,0.1-1.4-0.1C13.7,74.3,14.1,74.1,14.5,74.1z M30.4,74.5
			c1.3,0,2.8,0.3,3.9,0.8c1.6,0.6,3.1,2.2,3.4,2.9c0.1,0.2-0.1,0.2-0.3,0.2c-2,0.3-2.6,2.7-1,3.9c0.5,0.3,0.9,0.3,0.9,0.3
			c0.4,0-1.9,4.3-2.8,7.1c-2.8-0.1-4.9,0.3-7.7-0.6c-0.3-0.5-0.2-1.6,0-2.1c0.2-0.5,0.5-0.9,0.3-1.5c-0.2-1-1.1-2.3-1.5-3.2
			c-0.3-0.6-0.3-0.9,0.2-1.2c0.6-0.4,0.7-0.5,0.9-0.7c0.1-0.2,0.1-0.3,0.1-0.7c0-0.6,0-0.5,0.5-0.6c0.2,0,0.5-0.1,0.8-0.3
			c0.6-0.3,1-0.3,1.4-0.1c0.2,0,0.1-0.1,0.2-0.3c0-0.1,0.1-0.2,0.1-0.3c0-0.1-0.2-0.1-0.4,0c-0.9,0.1-1.6,0.2-2,0
			c-0.3-0.1-0.3-0.3-0.1-0.7c0.2-0.3,0.3-0.3,0.2-1c-0.1-0.8,0-1,0.4-1.3C28.5,74.6,29.4,74.5,30.4,74.5L30.4,74.5z M35.1,75.2h4.2
			c-0.4,0.7-0.9,1.7-1.1,2.6c0,0.1-0.1,0.1-0.2,0.1C37.4,77.1,36.7,76.2,35.1,75.2z M31.6,78.1c-0.5,0-1.1,0.3-1.9,0.7
			c-0.5,0.3-1,0.5-1.5,0.4c-0.3-0.1-0.4,0-0.4,0.1c-0.2,0.5,0.5,1,1.2,0.6c0.2-0.1,1.8-0.9,1.9-1c0.1-0.1,0.8-0.3,0.9-0.3
			c0.5,0,0.9,0.4,0.8,0.9c-0.1,0.6-1,0.7-1,0.1c0-0.4-0.2-0.2-0.2,0c0,0.2,0.1,0.6,0.3,0.7c0.8,0.5,1.8-0.5,1.3-1.4
			C32.6,78.4,32.2,78.1,31.6,78.1z M28.2,80.4c-0.5,0.1-0.9,0.3-1.4,0.3c-0.5,0.1-0.4,0.5-0.1,0.7c0.2,0.1,0.5,0.1,1.3-0.5
			c0.8-0.5,1.5,0.5,0.8,1.1c-0.4,0.3-0.1,0.4,0.1,0.2C29.6,81.7,29.2,80.2,28.2,80.4L28.2,80.4z M30.6,83c-0.1,0-0.2,0-0.3,0.1
			c-0.6,0.3-1,0.6-1.3,0.9c0,0.1,0,0.2,0,0.3l-0.1,0.3l0.2,0.2c0.1,0.2,0,0.7,0,1c0,0.2-0.3,0.2-0.4,0.3c-0.3,0.3-0.3,0.4,0.1,0.3
			c0.2-0.1,0.1-0.3,0.8-0.1c0.8,0.2,1.4-0.1,2.1-0.4c0.7-0.4,0.9-0.6,1-0.6c0,0.1,0,0.1-0.5,0.5c-1.2,1-2.2,1.3-2.9,0.9
			c-0.2-0.1-0.4-0.2-0.2,0.1c0,0,0.2,0.2,0.3,0.2c0.7,0.3,1.6,0,2.8-0.9c0.3-0.2,0.5-0.4,0.8-0.7c1-0.8,0.7-1.2-0.4-0.8
			c-0.3,0.1-0.4,0-0.9-0.2c-0.6-0.2-0.8-0.3-1.5-0.3c-0.6,0-0.7,0-0.7-0.1c0-0.1,0.4-0.6,0.9-0.8C30.7,83.3,30.8,83.1,30.6,83z
			 M31.8,85c0.1,0.1,0,0.2-0.5,0.4c-0.3,0.1-0.5,0.2-0.5,0.2c0,0.1-0.5-0.9-0.3-0.9C30.5,84.7,31.5,84.8,31.8,85z M30.1,84.9
			c0.1,0.2,0.2,0.4,0.2,0.6c0,0.1,0.1,0.2,0,0.2l-0.3-0.1c-0.1-0.2-0.2-0.7-0.2-0.8C30,84.8,30.1,84.8,30.1,84.9z M33.8,86.6
			c0,0-0.1,0-0.2,0.1c-1.8,1-3.9,1.6-5.2,1.1c-0.5-0.2-0.5-0.1-0.4,0.2c0.1,0.2,0.3,0.5,0.7,0.6c1.1,0.3,2.9-0.1,4.3-1
			C33.5,87.1,34,86.6,33.8,86.6z M44.2,89.4c0,0,3.4,6.4,3.7,6.7L22.5,96l4.3-6C26.8,90.3,37.1,91.7,44.2,89.4L44.2,89.4z"/>
		<path class="st7" d="M22.7,96l4.1-6c6.1,1.2,11.5,0.5,17.5-0.5l4,6.7L22.7,96z M54.8,73.5l0-3.6l1.3,0.5c-0.4-1.7,0.7-3.4,1.7-3.5
			c-3.2-2.4-0.5-5-0.6-5c-3.5-1.8-1.7-4.6-2-4.8c-4.3-1.1-2.6-4.5-2.9-4.1c-2.5,0.7-3.8-1.3-3.9-3c-2.1,1.2-5.5-0.5-4.4-2.4
			c0,0,1.1,0.5,1.3,0.4c1.8-1.3,1.6,0.6,2,0.9c1.3-0.2,2.1,0.8,2.4,1.3c1.9,0,1.8-0.5,1.9,1.4c1.5,0.4,1.4,1.2,2.2,2.2
			c1.8,0,1.5,0.6,1.1,1.6c1.3,1,1.4,1.9,1.6,2.8c1.4,0.5,1.7,0.7,0.8,1.9c1.3,1.9,0.7,3,0.9,3.1c1.6,1.1,0.8,1.6,0.1,2
			c0.2,1.5,0.4,1.7-0.1,3.3c1.8,1.3-0.3,1.9-0.4,1.8l0,1.3L54.8,73.5z M10.8,64.1l0-4.4l15.4,9.9l-1.9,3.1L10.8,64.1z M31.3,70.7
			l3.6-7.6l-1.3-8.3L44.1,55c1.2,2.7,1.9,4.9,4.9,9.3l-3.2,1l0.1,5.3L31.3,70.7z M40.2,68.7c-0.1-0.2-0.2-0.4-0.1-0.5
			c0-0.1,0.1-0.1,0.3-0.1c0.4,0.2,0.9,0.4,1.2,0c0.2-0.2,0.1-0.5,0-0.7c-0.3-0.5-1-0.1-1.3-0.1c-0.2,0-0.3-0.2-0.1-0.5
			c0.1-0.1,0.2-0.3,0.2-0.4c0.1-1.2-1.9-0.8-1.2,0.4c0.3,0.4,0.1,0.7-0.3,0.4c-0.5-0.3-1.2,0-1.2,0.6c0,0.5,0.6,0.8,1.1,0.5
			c0.1-0.1,0.2-0.1,0.3-0.2c0.2-0.1,0.4,0,0.3,0.2c-0.2,0.3-0.4,0.8-0.2,1.1c0.2,0.4,0.9,0.4,1.1,0.1C40.4,69.3,40.4,69,40.2,68.7z
			 M64.3,45.3l-15.5-10c1-1.2,1.5-2.2,2.1-3.2l13.4,8.6L64.3,45.3z M40.2,41.9l1.6,8.1l-10.8,0.2c-0.6-2.7-4.3-8.8-4.3-8.7l2.9-7.1
			l14.3,0L40.2,41.9z M36.1,38.9c0.3-0.2,0.3-0.6,0-1.1c-0.3-0.4-0.2-0.7,0.3-0.4c0.3,0.2,0.7,0.2,0.9,0.1c0.4-0.1,0.5-0.4,0.4-0.8
			c-0.1-0.4-0.5-0.5-1-0.4c-0.1,0-0.2,0.2-0.4,0.2c-0.3,0.1-0.4-0.2-0.1-0.6c0.3-0.5,0-1-0.5-1c-0.5,0-0.9,0.6-0.7,0.9
			c0.3,0.5,0.1,0.8-0.4,0.5c-0.7-0.5-1.5,0.1-1.2,0.8c0.2,0.3,0.7,0.4,1.3,0.2c0.4-0.2,0.6,0,0.3,0.5C34.5,38.8,35.4,39.6,36.1,38.9
			z M20.4,31l-0.1,4.3c-1.6-1-1.4-1-1.4-1c0.5,1.3-0.1,2.9-1.4,3.7c2.5,2.3,1.1,3.9,0.7,5c3.2,1.8,1.6,5,1.6,4.8
			c3.1,0,3,2.7,3.1,3.9c3.8-0.2,3.3,2.8,3.8,3.1c1.9-0.8,4-0.5,4.6,2c0.4,1.4-1,0.1-1.6,0.1c-2.1,1.3-1.7-0.7-1.8-1
			c-1.8,0.2-2-0.7-2.8-1.3c-1.9,0.4-1.7-0.3-1.6-1.4c-1.5-0.3-1.8-1.2-2.4-2.1c-2.1,0.1-1.2-1.4-1.2-1.7c-0.2-0.2-1.4-1.4-1.5-2.7
			c-2.1-0.6-0.8-1.7-0.7-2c-0.8-1-1-1.7-0.7-3c-1.9-0.9-0.3-1.7-0.2-2.2c-0.6-1.6-0.2-2.1,0.1-3c-1.2-1.4-0.5-1.3,0.4-2.2
			c0.1-0.2-0.2-0.9-0.2-1.3L20.4,31z M31.3,15.1l-3.4-6h24.2c0,0-2.6,3.6-3.6,5.5C42.4,13.5,36.8,14,31.3,15.1z"/>
		<path class="st5" d="M14.4,92.1c-2.1-0.5-2.5-3.1-0.5-5.4c0.2-0.2,0.3-0.5,0.3-0.5c-0.7-1.1-1-1.4-1.7-2.5
			c0.6-0.9,1.3-1.6,1.8-2.5c0-0.1-0.2-0.3-0.5-0.6c-1.4-2.1-1.6-2.9-0.9-4.2c0.7-1.2,2.3-1.3,3.3-0.3c1.1,1.1,1,2.1-0.4,4.2
			c-0.3,0.5-0.5,0.9-0.5,0.9c0.4,0.8,1,1.5,1.7,2.5c-0.6,0.8-1.3,1.5-1.8,2.4c0,0,0.1,0.2,0.2,0.3c2.2,2.5,2,5.4-0.5,5.6
			C14.9,92.1,14.6,92.1,14.4,92.1z M32.3,60c-0.1-0.1-8,12.7-8,12.7l0.9,0.6l7.6-11.8c0.1,0.1,0.2,0.2,0.2,0.3
			c0,0-6.3,10.2-7.3,11.8l1.6,1c2.3-1.1,12-0.2,18.5-0.5l-0.1,2.3c0,0-1.5-1.7-1.8-1.7c-1.5-0.1-3,0.6-4.1,0.5
			c-0.7,0.2-1.5,2.8-1.7,3.4c-1.3-0.1-2.5,1.2-2.2,2.4c0.4,1.4,1.1,1.3,1.9,1.3C37.7,83.8,35,88,35,90c2.9-0.2,6.1-0.3,9.1-1.2
			c0,0,1.1-3.3,2.6-5.4c0.5-0.8,0.7-2.1,0.5-2.8c-0.1-0.9,0.2-1.1,0.6-1.7c0.2-0.4,0.9-0.4,1-0.4c1.9-0.6,1.2-3,0.4-3.5
			c-1-0.6-2.5,0.3-3-0.8c-0.6-1.2-0.4-3.6-0.4-3.6l-14.5,0.1c0,0,4.1-7.8,4-7.8C34.1,62.2,32.3,60.1,32.3,60z M22.6,67.1
			c0.1-0.8,0.2-13.6-11.9-19.9l0.1-1.7c0.1-0.1,11,4.9,12.9,18l3.4-5.3l1.2,0.5C26.4,61.4,22.7,68.1,22.6,67.1z M15.2,62.5
			c0.5-1.5-0.3-0.7-1.1-0.8c-0.5-0.3-1-0.6-1.5-0.9c3.5-1.9,1.4-1.8-0.6-0.5c-0.5-0.3-1.2-0.9-1.3-0.9c4-2.6,2.5-2.6-0.1-0.8
			c0.1-1.7,0-1.1,0.1-1.7c2.2-2.3,0.1-1.1,0-1c-0.5-2.3,2-1.8,2.3-0.1c0.5,0.3,1.3,0.7,1.6,2.2c1.2,0.8,1.1,1.4,1,2.4
			c0.5,0.5,1.7,1.5,0.3,2.4L15.2,62.5z M10.6,51.9l0.1-1.3c0.2-0.5,9.5,6.1,8.8,14.7c0.1-0.1-1-0.6-1.4-0.9
			C18.2,58.1,11.5,52.6,10.6,51.9z M64.2,59.1C58,56.3,52,49.4,51.7,40.6l-3.5,5.9L47,45.9c0.1,0.1,2.8-4.8,5.5-8.3
			c0.8,11.2,5.2,16.4,11.9,20.2L64.2,59.1z M31.6,55c-6-0.7-14.8-9-12.2-20.1c0.4-1.1,6.2,5.1,6.2,5.1c0-0.3,5.2,8.1,5.1,9.7
			c4.4,1.2,13,0.1,13,0.1c7.1,1.6,14.6,9.3,11.9,20.2c0,0-1.9-1.2-3.5-2.7c-4.8-4.6-6.3-8.5-8-12.7C37.9,54.1,32.1,55.2,31.6,55z
			 M64.2,45.8c0.1,0.6,0,1.7,0.1,1.7c-1.6,1.7-1.8,1.8,0.2,1.2c-0.2,1.7-1.5,1.9-2.2,1.4C62,49.8,62,48.7,62,48.7
			c-1.2-0.3-1.6-0.7-1.5-2c-1.4-0.2-1.4-0.9-1.2-2.3c-1.3-0.7-1-1.9-0.2-2.4l0.6,0.4c-0.2,0.2-0.1,1.3,1,0.5c0,0,0.9,0.7,1.3,1
			c-3.2,2.1-1.3,1.6,0.7,0.3c0.4,0.3,0.9,0.7,1.2,0.9C61.4,47,60.5,48.6,64.2,45.8z M64.4,52.8l-0.1,1.5c-6.4-3.9-8.1-9.1-8.6-14.6
			c0,0,0.9,0.6,1.3,0.9C57.5,47.8,64,52.5,64.4,52.8z M29.3,34.2l15.4,0.1l-4.1,7.8l2.2,2.5c0,0,5.3-8.3,8-12.6l-0.9-0.6l-7.7,12
			l-0.3-0.3l7.6-12c-0.5-0.3-1.3-0.8-1.3-0.8S35,30.6,29.3,30.5c0.2-0.8,0.2-2.2,0.2-2.2c0.8,1.2,1.7,2.3,3.7,1.1c0,0,2.3,0.1,2.4,0
			c0.3-0.5,0.8-1.9,1.4-3.5c2.2-0.1,2-1.2,2.3-1.6c-0.2-3.2-1.9-1.5-1.8-2.6c0.5-2,3.1-6.7,2.7-7.1c-0.7-0.4-7.2,0.9-9.1,1.1
			c-0.2-0.1-1.1,3-2.1,4.3c-1.1,1.4-1.5,2.9-0.9,4.4c-0.6,1.6-1.7,1.4-2.5,1.9c-1,1.1-0.7,2.7,0.2,3.3c0.7,0.4,1.7,0.4,2.7-0.4
			L29.3,34.2z M59.8,23.2L58,20.8l1.7-2.5c-0.7-1.1-1.8-2.8-1.6-4.1c0.4-2.6,4-2.2,4.3,0.3c0.2,1.2-0.7,2.6-1.5,3.8
			c0.6,1,0.8,1.2,1.6,2.4c-0.5,0.9-1.7,2.6-1.7,2.6c0.7,1.3,1.8,2.6,1.7,3.9c-0.1,1.1-1.3,2.2-2.4,2C56.7,28.4,58.6,24.7,59.8,23.2z
			"/>
		<path class="st3" d="M27.3,8.7c1,1.8,3.7,6.6,3.7,6.6c6.4-1.3,11.8-1.7,17.5-0.4l4.1-6.1L27.3,8.7z M28.2,9.1h1.2l2.3,4.7l3.9-0.8
			l-0.7-3.9l1.1,0l0.6,3.7l5.8-0.1l0.7-3.6l1.1,0l-0.8,3.7l4.6,0.6l2.2-4.3h1.5l-3.4,5.3c-6.1-1.2-12.1-0.8-17.1,0.5L28.2,9.1z
			 M30.4,9.1h3.4l0.8,3.2c-0.4,0.2-2,0.6-2.5,0.5C31.5,11.7,30.8,10.1,30.4,9.1z M36.9,9.1h5.2l-0.4,2.7l-4.3,0.1L36.9,9.1z
			 M45.1,9.1h4l-1.6,3.3l-3-0.4L45.1,9.1z M60.3,12.4c-0.2,0-0.4,0-0.6,0.1c-1,0.2-1.6,1-1.6,2.3c0,0.6,0.4,1.6,1.1,2.6
			c0.3,0.5,0.5,0.9,0.5,0.9L58,20.8l1.8,2.4c0,0-0.3,0.3-0.5,0.6c-0.8,1.2-1.2,2.3-1.2,3.2c0.1,1,0.6,1.7,1.7,2.1
			c0.6,0.2,1.4,0,2-0.6c0.5-0.4,0.7-1,0.7-1.6c0-0.9-0.4-2-1.3-3.2c-0.2-0.3-0.4-0.6-0.4-0.6s1.2-1.7,1.7-2.5l-1.7-2.4
			c1.3-2,1.6-2.4,1.6-3.7C62.5,13.4,61.6,12.4,60.3,12.4z M60.1,12.5l0.2,0c1.5,0.1,2.3,1.2,2.1,2.7c-0.2,1.4-1.5,2.7-1.7,3.1
			c0.6,1,1.7,2.4,1.7,2.4c-0.5,0.9-1.7,2.6-1.7,2.6s0.1,0.1,0.1,0.3c1.3,1.8,1.6,2.7,1.6,3.8c-0.1,0.9-0.8,1.6-1.6,1.8
			c-1.3,0.2-2.5-0.7-2.6-2c-0.1-1.1,0.6-2.2,1.2-3.1c0.2-0.4,0.4-0.7,0.4-0.7l-1.8-2.4c0.6-0.9,1.3-1.8,1.8-2.5c0,0-0.3-0.4-0.5-0.8
			c-1-1.6-1.3-2.4-1.1-3.3C58.4,13.1,59.2,12.5,60.1,12.5z M60.2,13.3c-0.6,0-1.1,0.4-1.3,1c-0.3,1.1,0.9,2.8,1.4,3.3
			c1-1.2,1.6-2.5,1.3-3.4C61.4,13.7,60.8,13.3,60.2,13.3z M60.4,13.7c1,0,1.4,1.2,0.6,2.6c-0.3,0.5-0.7,1-0.7,1s-0.4-0.5-0.6-0.8
			c-0.9-1.4-0.7-2.5,0.4-2.7L60.4,13.7z M40.2,14.3c-2.7,0-6.2,0.5-9.3,1.2c-0.3,1.7-1.1,3.3-2,4.7c-0.9,1.4-1.2,2.7-0.9,3.6
			c0.3,0.8-0.5,2-1.3,2.1c-1,0.1-1.7,0.8-1.7,1.8c0,1.6,1.1,2.6,2.6,2.1c0.2,0,0.3,0.1,0.3,0.1l-0.1,9.4c-0.9,0.1-1.4,0.3-2.2,0.7
			c-1.4-1.6-2.5-2.7-3.5-3.4c0-2.1,0.1-4.2,0-6.3c-1.5,0.6-3.2,1.6-4.5,2.5c-0.5,0.3-0.5,0.5-0.3,1.2c0.1,0.4,0.1,0.5-0.3,0.6
			c-0.7,0.2-1,1.3-0.3,1.7c0.3,0.2,0.3,0.2,0.1,0.6c-0.3,0.7-0.3,1.9,0,2.4c0.2,0.3,0.2,0.4-0.1,0.5c-0.8,0.5-0.7,1.6,0.1,1.8
			c0.2,0.1,0.3,0.1,0.2,0.3c-0.3,0.7,0,1.7,0.6,2.4c0.3,0.4,0.3,0.4,0.1,0.6c-0.7,0.6-0.3,1.7,0.6,1.8c0.3,0,0.3,0,0.3,0.3
			c0.1,0.7,0.1,0.9,0.3,1.2c0.2,0.4,0.4,0.7,0.8,1c0.3,0.3,0.3,0.3,0.2,0.7c-0.3,0.7,0.2,1.5,1.1,1.4c0.4,0,0.4,0,0.5,0.1
			c0.2,0.8,1.1,1.7,1.8,1.8c0.4,0.1,0.4,0.2,0.3,0.5c-0.2,0.5-0.1,0.9,0.5,1.1c0.4,0.2,0.5,0.2,0.8,0.1c0.4-0.2,0.4-0.1,0.8,0.4
			c0.5,0.7,0.9,0.9,1.8,0.9c0.6,0,0.6,0,0.6,0.4c0,1,1,1.4,1.7,0.7c0.2-0.3,0.2-0.3,0.4-0.1c0.9,0.7,1.8,0.9,1.7,0.2
			c-0.2-1.5-1.3-2.4-1.3-2.4l1.3,0.4c0.1,1.6,0.1,3.5,0.4,4.8l-6,9.5c0,0-0.4-0.2-0.7-0.5c-0.6-0.4-1.3-0.8-1.7-1.1
			c-0.2-0.1-0.5-0.3-0.7-0.5c-0.2-0.2,0.1-0.4,0.2-0.6c1.4-2.5,3.5-5.4,5.1-8.3l-1.5-0.6c-1.2,1.8-2,3.3-3.1,5
			c-1.1-7.9-6.6-14.9-13.3-17.8l0,2.1c7,3.6,12.1,11,11.9,19.7c0,0-0.6-0.3-1.3-0.8c-0.4-0.3-1.2-0.8-1.3-0.8
			c0.3-9.7-9.3-15.4-9.3-15.1c0,0-0.1,1.3-0.1,1.8c4.1,2.7,7.3,7.7,7.6,12.2L16,63c1.1-0.6,0.8-2,0-2.4c-0.3-0.1-0.3-0.2-0.1-0.5
			c0.3-0.7-0.2-1.8-0.9-2c-0.3-0.1-0.3-0.2-0.4-0.6c0-0.7-0.4-1.2-1.2-1.4c-0.2,0-0.2,0-0.2-0.3c-0.1-1.5-1.5-2-2.6-1.1
			c-0.1,0.1-0.2,0.3-0.2,0.3l0,1.6c0.4-0.2,0.9-0.9,1.1-0.9c0.3,0,0.1,0.2-0.4,0.7c-0.4,0.3-0.7,0.6-0.7,0.6l0,2.1
			c0.6-0.4,1.2-0.8,1.8-1.2c0.5-0.3,0.7-0.5,0.8-0.4c0.1,0.1,0,0.3-0.3,0.4c-0.7,0.5-1.6,1.1-2.2,1.6l0,1.4l0.1,0.2l0,1.3l-0.1,0
			l0,1.6l14.8,9.4l7.5-11.9l0.1,0.1l-7.5,11.8c0,0,0.3,0.3,0.6,0.4c0.3,0.2,0.7,0.4,1,0.6c0.2,0.2,0.4,0.5,0.7,0.4
			c0.3-0.3,1.4-0.6,1.5-0.7c4.2-0.1,16.3,0,16.3,0l0.1,1.9c-0.5-1.9-2.3-2.3-3.7-1.4l-2.3,0c0,0-1.3,2.4-1.5,3.7
			c-1-0.1-2.2,0.8-2.3,1.7c-0.2,1.3,0.7,2.3,1.9,2.1c0,0-0.2,1.3-0.8,2.4C36,86.5,35.6,87.5,35,89c-0.4,1-0.2,1.1-0.2,1.2
			c3.4,0,6.5-0.4,9.7-1.4c0,0-0.1-0.2-0.1-0.4c-0.1-0.5,0.3-1.6,1.6-3.8c1-1.7,1.2-2.3,1.3-3.1c0-0.4,0-0.5-0.1-1.3l0-0.2
			c0.1-0.5,0.9-1.4,0.9-1.4c0,0,0.3-0.1,0.4-0.1c1.7-0.1,2.3-2.5,0.8-3.6c-0.7-0.4-1.1-0.5-1.9-0.3l0-9.2l1.1,0l1.2-0.6
			c1.9,1.6,3.1,3.2,5.1,4.5l0,0.1l-1.5-1l0,6c1.7-0.9,3.4-1.7,4.9-3l-0.3-0.3l0-0.9c1.5,0.1,1.6-1.7,0.4-2c0,0,0-0.1,0.1-0.4
			c0.4-0.8,0.4-1.5,0.1-2.3c-0.2-0.5-0.2-0.6,0-0.6c0.9,0,0.8-1.6-0.1-1.9c-0.3-0.1-0.3,0-0.2-1c0-0.7-0.1-1.2-0.7-1.9
			c-0.2-0.2-0.2-0.4,0.1-0.5c0.8-0.5,0.2-1.8-0.7-1.8c-0.4,0-0.4,0-0.4-0.3c-0.1-1-0.6-1.9-1.3-2.3c-0.2-0.1-0.2-0.2-0.1-0.4
			c0.6-0.8,0-1.9-0.8-1.6c-0.2,0.1-0.3,0.1-0.4,0.1c-0.1,0-0.1-0.1-0.2-0.4c-0.4-1-0.7-1.3-1.8-1.8c-0.2-0.1-0.2-0.2-0.1-0.6
			c0.2-0.8-0.9-1.5-1.5-1c-0.2,0.2-0.2,0.2-0.5-0.1c-0.5-0.6-1.4-1-2.2-1.1c-0.4,0-0.4-0.1-0.4-0.2c0.2-1-0.7-1.6-1.5-1
			c-0.4,0.3-0.5,0.3-0.8,0.1c-0.8-0.4-1.1-0.5-1.2-0.1c0,0.3,0,0.7,0.1,1c0.2,0.7,0.4,0.9,1,1.4c0,0-0.9-0.3-1.1-0.3
			c0,0-0.1-3.2-0.7-4.9l5.8-9.3l3.3,2.2L46.7,46l1.6,0.6c0,0,2.1-3.5,3.2-5.1c0.7,8.4,7.2,15.8,13.1,18c0,0,0-1.2,0-1.8
			c-6.2-2.7-12.1-10.4-11.8-19.5l2.5,1.6c0.7,7.3,3.9,11.7,9.3,15.3v-2.3c-3.7-2.7-6.7-6.3-7.6-12c0,0,1.2,0.8,1.8,1.2l-0.2,0.2
			c-0.7,0.6-0.5,1.7,0.4,2.3c0.1,0.1,0.1,0.1,0,0.5c-0.3,0.7,0.1,1.6,0.8,1.8c0.4,0.1,0.4,0.1,0.4,0.6c0,0.9,0.4,1.3,1.3,1.5
			c0.1,0,0.1,0,0.1,0.4c0,1,0.9,1.6,1.8,1.2c0.3-0.1,1.1-0.8,1.1-0.8V48c0,0-0.4,0.3-0.6,0.5c-0.5,0.4-0.6,0.5-0.6,0.2
			c0-0.2,0.2-0.4,0.7-0.8c0.2-0.2,0.6-0.5,0.6-0.5v-1.8c0,0-0.2-0.3-0.2-0.7c0-0.2,0.1-0.5,0.1-0.5l0.2,0l0-2.1L64.4,42l0-1.4
			l-14.6-9.4l-7.6,12.1L42,43.1l7.6-12l-2-1.3l-1.2,0.6c0,0-8.5-0.1-16.7,0c0,0,0-0.2,0-0.9c0-0.8,0-0.9,0.2-0.6
			c0.3,0.8,1.2,1.2,2.1,1.2c0.5,0,0.6,0,1.2-0.4c0.2-0.1,0.3-0.1,1.3-0.1c1.1,0,1.3,0,1.3-0.3c0.4-0.9,0.8-1.9,1-2.7
			c0.1-0.4,0.2-0.5,0.2-0.6c0.1-0.1,0.1,0,0.3-0.1c0.7,0,0.9-0.1,1.5-0.6c1-1.1,0.4-3.2-1.1-3.2c-0.4,0-0.1-1.1,0.7-2.8
			c0.9-1.8,1-2.1,1.5-3.3c0.3-0.8,0.4-1.3,0.5-1.7H40.2z M40.1,14.8c0.2,0.2-0.3,1.5-1.3,3.4c-0.8,1.6-1.1,2.4-1.3,3
			c0,0.2-0.1,0.4-0.2,0.5c-0.1,0.2-0.1,0.3-0.3,0.4c-0.1,0.1-0.3,0.2-0.4,0.3c-0.3,0.2-0.3,0.1-0.3-0.3c0.1-0.8,0.4-1.6,1.1-3
			c0.6-1.1,1.1-2.4,1.5-3.6c0.1-0.3,0.1-0.6,0.3-0.7C39.6,14.8,39.8,14.8,40.1,14.8z M38.9,14.9c0.1,0.1-0.5,1.9-1.7,4.3
			c-1.5,3.1-1.6,5.2-0.2,5.8c1.1,0.4,2.1-0.7,1.5-1.6c-0.3-0.4-1-0.4-1.2,0c-0.1,0.2,0,0.5,0.3,0.2c0.3-0.5,1,0.1,0.8,0.6
			c-0.1,0.4-0.6,0.7-1,0.6c-1.5-0.3-1.2-2.3,0.3-2.5c1.4-0.1,2.1,1.8,1.1,2.9c-0.3,0.4-0.7,0.5-1.4,0.5c-0.9,0-1.8-0.8-1.7-1.5
			c0.1-0.7,0.1-1.2-0.1-1.7c-0.1-0.2-0.2-0.3-0.2-0.5c0-0.6,0.5-1.5,1.6-3.7c0.4-0.8,0.9-2.2,1.1-3.1c0.1-0.3,0-0.3,0.1-0.4
			C38.4,14.9,38.7,14.8,38.9,14.9z M37.7,14.9c0.2,0-0.3,1.6-0.9,3c-0.5,1.1-1.1,2.4-1.6,3.7c-0.2,0.3-0.3,0.3-0.6,0.1
			c-0.4-0.2-0.3-0.5,0.6-2.2c0.6-1.3,1.2-2.7,1.7-4.1c0-0.2,0.1-0.3,0.2-0.4C37.3,14.9,37.5,14.9,37.7,14.9z M36.5,15.1
			c0.1,0.2-0.7,2.3-1.8,4.8c-0.3,0.5-0.4,1-0.7,1.5c-0.1,0.1-0.6,0.2-0.8,0.2c-0.2,0,0-0.5,0.7-1.9c0.6-1.1,0.7-1.5,1-2.2
			c0.2-0.5,0.5-1.4,0.8-2.2l0.1-0.2C36,15.1,36.3,15,36.5,15.1z M35.3,15.3l0,0.2c-0.2,0.9-0.6,1.7-0.9,2.5c0,0.1-0.4,0.8-0.8,1.6
			c-0.4,0.8-0.7,1.5-0.8,1.6c0,0.1-0.2,0.5-0.3,0.8c-0.7,1.5,0.1,2.6,1,2.7c1.4,0.1,1.6-1.9,0.6-2.1c-0.4-0.1-0.8,0.1-0.8,0.6
			c0,0.2,0.3,0.5,0.2,0.2c0-0.6,0.8-0.6,0.9-0.1c0.2,1-0.9,1.5-1.6,0.7c-0.3-0.3-0.3-0.7-0.2-1c0.1-0.9,1.1-1.5,2.1-0.8
			c1.3,0.9,0.8,2.9-0.8,3.2c-0.6,0.1-1.3,0-1.7-0.5c-0.3-0.3-0.5-0.7-0.5-1.3c0-0.3-0.1-0.6,0-1c0.1-1,0.9-2.5,1.5-3.8
			c0.5-1.1,0.9-2.4,1.4-3.6C34.7,15.2,35.4,15.1,35.3,15.3z M34.1,15.4c0.1,0-0.3,1.2-0.9,2.6c-0.6,1.3-1.4,2.9-1.8,4.2
			c-0.1,0.3-0.2,0.3-0.6-0.1c-0.2-0.2-0.1-0.5,0.6-2c1.1-2.3,1.6-3.3,1.7-3.9c0.1-0.3,0.1-0.6,0.3-0.7
			C33.7,15.4,33.9,15.3,34.1,15.4z M33,15.7c-0.1,0.4-0.5,1.5-1.2,2.9c-0.4,0.9-0.8,1.8-1.3,2.7c-0.2,0.6-0.2,0.6-0.6,0.6
			c-0.7,0.1-0.7,0.1-0.1-1.1c0.2-0.4,0.5-1,0.8-1.5c0.4-0.8,1.1-2.4,1.4-3.2c0.1-0.2,0.2-0.4,0.3-0.5C32.3,15.7,32.8,15.5,33,15.7z
			 M31.5,15.8c0.1,0,0.2,0,0.3,0.1c0,0.3-0.7,2-1.2,2.8c-0.1,0.2-0.3,0.6-0.4,0.9c-0.6,0.9-1.3,2.7-1.5,3.4c-0.3,1.2,1,2,1.7,1.2
			c0.4-0.5,0-1.4-0.6-1.2c-0.2,0.1-0.1,0.2,0.2,0.2c0.5,0,0.5,0.8,0,1c-0.6,0.2-1-0.3-1-0.8c0-1.1,1.2-1.5,1.9-0.9
			c0.7,0.6,0.8,2-0.3,2.6c-1.1,0.5-2.4-0.2-2.7-1.5c-0.2-1,0-1.9,1-3.4c0.5-0.9,1.4-2.4,1.8-3.7c0.1-0.2,0.2-0.4,0.2-0.5
			C31.1,15.9,31.3,15.8,31.5,15.8z M60.3,18.9l-1.4,1.8c0.4,0.6,1.4,1.8,1.4,1.8l1.4-1.8L60.3,18.9z M60.3,20l0.6,0.8l-0.7,0.8
			l-0.6-0.8L60.3,20z M60.4,23.9c0,0-1.7,1.9-1.3,3.3c0.4,1.3,2.3,1.6,2.7-0.3c0-0.1,0-0.3,0-0.6C61.7,25.6,60.4,23.9,60.4,23.9z
			 M60.4,24.3c0,0,0.5,0.7,0.9,1.4c0.4,0.6,0.5,2.3-0.9,2.3c-0.8,0.1-1.5-0.9-0.9-2.1C59.6,25.4,60.4,24.3,60.4,24.3z M31.6,24.6
			c0.1,0,0.2,0.2,0.3,0.3c0.1,0.2-0.2,0.8-0.4,1.1c0,0-0.4,0.1-0.8,0.3c0-0.2,0.1-0.7,0.2-0.9C31.1,25.1,31.4,24.8,31.6,24.6
			L31.6,24.6z M28.1,24.7c0.2,0.2,0.4,0.5,0.4,0.6c0,0.2-0.3,0.5-0.5,0.7c-0.2,0.2-0.7,0.1-0.7-0.2C27.3,25.7,28,24.7,28.1,24.7z
			 M35.5,25.1c0.2,0.1,0.4,0.5,0.4,0.7c-0.3,1.6-1.4,3.6-1.4,3.6c0,0-0.7,0.1-1,0c0.8-1,1.3-2.4,1.6-3.5
			C35.3,25.3,35.4,25.1,35.5,25.1z M34.8,25.3c0.1,0,0.2,0.1,0.1,0.3c-0.4,1.8-1.4,3.7-2.2,4.1c-1,0.5-2.1,0.1-2.5-0.7
			c-0.5-0.8-0.4-2.2,1.2-2.5c0.9-0.1,1.9,0.6,1.4,1.8c-0.6,0.9-2.1,0.4-1.6-0.7c0.3-0.4,1-0.1,0.8,0.4c-0.1,0.2,0,0.4,0.2,0.2
			c0.5-0.5-0.4-1.4-1-1c-1,0.7,0.2,2.4,1.4,1.7c0.3-0.2,1-1.4,1.2-2.3c0.1-0.4,0.2-0.7,0.4-1C34.4,25.5,34.7,25.3,34.8,25.3z
			 M32.2,25.4c0.1,0,0.1,0,0.2,0.1c0.1,0.1,0.3,0.2,0.2,0.3c0,0.2-0.1,0.5-0.3,0.7c-0.1,0-0.4-0.2-0.6-0.2c-0.1,0,0-0.3,0.1-0.5
			C32,25.5,32.1,25.4,32.2,25.4L32.2,25.4z M29,25.4c0.1,0,0.4,0.2,0.5,0.2c0,0.2-0.3,0.7-0.7,1.3c-0.4,0.5-0.4,0.5-0.6,0
			c-0.2-0.3-0.2-0.3,0.3-0.9C28.7,25.6,28.8,25.5,29,25.4L29,25.4z M30.5,25.6c0,0.1-0.1,0.4-0.1,0.5c-0.5,1.6-1.8,3.1-2.8,3.5
			c-1.3,0.4-2.5-0.3-2.6-1.9c0-1.9,2.3-2.4,3-0.7c0.3,0.8-0.5,2-1.3,1.8c-0.7-0.2-1-1.3-0.4-1.6c0.4-0.2,0.8,0.1,0.7,0.5
			c0,0.1,0,0.2,0.1,0.1c0.4-0.1,0.2-0.8-0.3-1c-0.8-0.4-1.5,0.8-0.9,1.6c0.7,1,1.7,0.8,2.4-0.4c0.1-0.2,0.3-0.5,0.4-0.7
			c0.4-0.4,0.5-0.6,0.8-1.2c0.2-0.3,0.3-0.5,0.4-0.6C30,25.6,30.1,25.6,30.5,25.6z M33.4,25.7c0.2,0,0.3,0.1,0.3,0.3
			c0,0.2-0.3,1-0.4,1.1l-0.2,0.3c-0.2-0.5-0.4-0.7-0.5-0.8c0-0.2,0.1-0.3,0.2-0.5C33,25.8,33.2,25.7,33.4,25.7z M36.2,25.9
			c0.2,0,0.5,0.1,0.5,0.2c0.2,0.3-1,3.2-1.1,3.2l-0.9,0C35.3,28.1,35.8,27,36.2,25.9L36.2,25.9z M48.2,30.4l1.1,0.7l-7.4,11.8
			l-1.1-0.8L48.2,30.4z M29.6,30.7c7,0,16.5,0,16.5,0l-0.4,0.8c0,0-10.5-0.1-16.1-0.1V30.7z M20.2,31.2l0,3.9c-0.7-0.6-2.9-2-2.9-2
			C17.3,33.1,19.2,31.8,20.2,31.2z M50,31.6l0.7,0.4l-7.8,12.4l-0.4-0.9L50,31.6z M29.6,31.7h1.1V33h-1.1V31.7z M32.1,31.7h1.3V33
			h-1.3V31.7z M35,31.7h1.4V33H35V31.7z M37.8,31.7h1.4V33h-1.4V31.7z M40.7,31.8H42V33h-1.4V31.8z M43.5,31.8h1.4v0.9L44.7,33h-1.2
			V31.8z M51,32.2l13.3,8.6l0,1.2L50.4,33L51,32.2z M50.1,33.2l0.1,0.1l-0.6,0.9l-0.1-0.1L50.1,33.2z M29.6,33.3h14.9l-0.4,0.8
			l-14.4,0V33.3z M17.4,33.7c0.1,0,0.3,0.1,0.6,0.3c0.7,0.4,1.2,1.3,0.9,1.6c-0.3,0.3-0.9-0.3-1.3-1.2
			C17.3,33.9,17.3,33.7,17.4,33.7z M43.7,34.4l-4.8,7.7c-1.1-1.5-2.3-2.8-5-1.9c-1.4-1.1-2.9-1.2-4.4-0.3l0-5.4L43.7,34.4z M19,34.4
			l0.4,0.3c-0.1,0.2-0.2,0.5-0.2,0.8C19.2,35.2,19.1,34.8,19,34.4L19,34.4z M49.5,34.5l14.8,9.7v0.9l-15.3-9.8L49.5,34.5z
			 M17.1,34.7c0.2,0,0.4,0.1,0.5,0.2c0.2,0.3,0.1,0.8-0.2,1c-0.6,0.4-1.4-0.4-0.9-0.9C16.7,34.8,16.9,34.7,17.1,34.7z M19.5,34.9
			l0.8,0.6c-1.4,8,2.6,16,11.2,18.5l0.1,1c0,0-3.7-1.1-5.3-2.3c-2.2-1.5-4.1-3.6-5.3-6c-0.9-1.6-1.4-3.3-1.7-4.7
			C19,39.6,19,37.2,19.5,34.9z M18.6,35.9c0.3,0,0.3,0.2,0.1,0.7c-0.3,0.6-0.8,0.9-1.6,1.3c-0.4,0.2-0.5,0.1-0.5-0.4
			c0.1-0.7,0.6-1.2,1.4-1.5C18.2,36,18.4,35.9,18.6,35.9z M21,36c0.1,0.1,0.2,0.1,0.3,0.3c-0.3,0.1-0.5,0.3-0.5,0.6
			c0,0.4,0.3,0.7,0.7,0.7c0.3,0,0.6-0.2,0.7-0.6c0.1,0.1,0.2,0.2,0.3,0.3c-0.2,0.4-0.5,0.7-1,0.7c-0.6,0-1.1-0.5-1.1-1.1
			C20.4,36.5,20.7,36.2,21,36L21,36z M21.5,36.6l0.1,0l0.2,0.2l0,0.2c0,0.2-0.2,0.4-0.4,0.4s-0.4-0.2-0.4-0.4
			C21.1,36.7,21.3,36.6,21.5,36.6z M19,36.8c-0.1,1-0.1,2.1,0,3.2c-0.2-0.9-0.6-1.5-1.4-1.9C18.1,37.7,18.6,37.3,19,36.8L19,36.8z
			 M22.8,37.6l0.7,0.6c-0.6,8.4,6.8,11.7,7,11.5l0.3,1C25.8,49,22.2,43.7,22.8,37.6L22.8,37.6z M64.2,57.9l0,1.1
			c-5.8-2.3-12.4-10.6-12.4-18.5c-1.5,2.3-2.3,3.8-3.6,5.9l-1-0.5c1.7-2.5,3.3-5.2,5-7.6c0.2-0.3,0.3-0.4,0.4,0.2
			C52.5,41.1,53.3,52.4,64.2,57.9z M16.9,38.3c0.2,0,0.5,0.1,0.8,0.3c0.5,0.4,1.1,1.5,0.9,1.7c-0.2,0.2-1,0-1.4-0.5
			C16.5,39,16.4,38.3,16.9,38.3z M21.4,38.4c0.6,0,1.1,0.5,1.1,1.1c0,0.6-0.5,1.1-1.1,1.1s-1.1-0.5-1.1-1.1
			C20.4,38.8,20.9,38.4,21.4,38.4z M23.8,38.5l0.7,0.8c0.1,7.1,5.7,9.3,5.7,9.3l0.2,0.8C30.1,49.4,23.4,46.4,23.8,38.5z M21.4,38.8
			c-0.4,0-0.7,0.3-0.7,0.7c0,0.4,0.3,0.7,0.7,0.7s0.7-0.3,0.7-0.7C22.1,39.1,21.8,38.8,21.4,38.8z M21.4,39.1c0.2,0,0.4,0.2,0.4,0.4
			c0,0.2-0.2,0.4-0.4,0.4c-0.2,0-0.4-0.2-0.4-0.4C21.1,39.2,21.2,39.1,21.4,39.1z M25,39.7l0.5,0.6c0,0-0.4,0.2-0.6,0
			C24.7,40.1,24.8,39.7,25,39.7z M55.7,40l1,0.7c0.5,4.8,3.2,9.1,7.4,12.2l0,1.2C59.1,50.6,56.3,46,55.7,40z M16.8,40L16.8,40
			c0.7,0,1,1,0.3,1.3c-0.4,0.2-0.9-0.1-0.9-0.5c0-0.3,0.2-0.6,0.5-0.7L16.8,40z M25.5,40.7c0.2,0,0.3,0.1,0.5,0.3
			c0.5,0.5,0.5,0.7,0,0.9c-0.7,0.3-1.2-0.1-1-0.7C25.1,40.8,25.3,40.7,25.5,40.7z M18.5,40.7l0.2,0c0.5,0.2-0.6,2.2-1.3,2.4
			c-0.5,0.1-0.5,0-0.4-0.7C17.2,41.6,18,40.7,18.5,40.7z M21.7,40.7c0.6,0,1.1,0.5,1.1,1.1c0,0.6-0.5,1.1-1.1,1.1
			c-0.6,0-1.1-0.5-1.1-1.1C20.7,41.2,21.1,40.7,21.7,40.7z M21.7,41.1c-0.4,0-0.7,0.3-0.7,0.7c0,0.4,0.3,0.7,0.7,0.7
			c0.4,0,0.7-0.3,0.7-0.7C22.4,41.4,22.1,41.1,21.7,41.1z M19.1,41.2c0.1,1,0.3,1.9,0.7,3.1c-0.4-0.7-1-1-1.5-1.3
			C18.6,42.4,19.1,41.8,19.1,41.2z M21.7,41.4c0.2,0,0.4,0.2,0.4,0.4c0,0.2-0.2,0.4-0.4,0.4c-0.2,0-0.4-0.2-0.4-0.4
			C21.3,41.6,21.5,41.4,21.7,41.4z M27.7,41.5c1.1,0,1.9,0.9,1.8,1.8c0,1,0.1,1.7,0,2.9l-0.9-1.6c0-0.5,0.1-0.8,0-1.3
			c-0.1-1.2-1.3-1.1-1.4-0.9l-0.4-0.6C27.2,41.6,27.5,41.5,27.7,41.5z M31.6,41.7c1,0,1.6,0.6,1.7,1.6c0.1,2,0,6.5,0,6.5l-2.2,0
			l-1.2-3c0,0,0-0.3,0-0.5c0.1-1,0-2.1,0.1-2.9C29.9,42.4,30.7,41.7,31.6,41.7z M26.4,42c0.1,0,0.3,0,0.4,0.1c0.5,0.5,0.5,0.9,0,1.1
			c-0.7,0.3-1.1,0.3-1.3-0.2C25.3,42.6,25.9,42,26.4,42z M59.1,42.1l0.6,0.4c0,0-0.1,0.2-0.2,0.3c-0.3,0.6,0.2,0.9,1,0.6
			c0.1-0.1,0.3-0.1,0.3-0.1l0.5,0.3c0,0-0.3,0.2-0.7,0.4c-0.9,0.5-1.6,0.3-1.9-0.5c-0.1-0.3,0-0.7,0.2-0.9
			C58.9,42.3,59.1,42.1,59.1,42.1z M35.1,42.2c0.9,0,1.7,0.6,1.9,1.6c0.1,0.4,0,6.1,0,6.1l-3.4,0l0.1-5.9c0-0.4,0-0.7,0.2-1
			C34.2,42.4,34.6,42.2,35.1,42.2z M31.5,42.5c-0.7,0-1.1,1.2-0.4,1.7c0.3,0.2,0.3,0.3,0.1,1c-0.2,0.9,0,2,0.4,2.7
			c0.3,0.5,0.3,0.3,0.1-0.2c-0.2-0.9-0.1-1.6,0.4-2.6c0.5-0.9,0.9-2.3-0.6-2.5L31.5,42.5z M60.1,42.7l0.3,0.2L60.3,43
			c-0.1,0.1-0.4,0.1-0.4,0C59.7,42.9,60.1,42.7,60.1,42.7z M35.3,43.1c-0.7,0-1.2,1.4-0.3,1.7c0.2,0.1,0.3,0.3,0.1,0.6
			c-0.2,0.3-0.4,1.2-0.3,1.5c0,0.5,0.2,1.1,0.3,1.4c0.3,0.6,0.2,0.4,0.1-0.3c0-0.8,0.1-1.4,0.6-2.1C36.3,44.9,37.1,43.4,35.3,43.1
			L35.3,43.1z M22.4,43.1c0.6,0,1.1,0.5,1.1,1.1c0,0.6-0.5,1.1-1.1,1.1c-0.6,0-1.1-0.5-1.1-1.1C21.3,43.6,21.8,43.1,22.4,43.1z
			 M27.3,43.3c0.2,0,0.3,0.1,0.5,0.4c0.5,0.7,0.4,0.8-0.5,1.3c-0.9,0.5-1.6-0.8-0.7-1.4C26.9,43.4,27.1,43.3,27.3,43.3L27.3,43.3z
			 M17.6,43.3c1,0,2.5,1.4,1.8,1.6c-0.1,0-0.2,0-0.3,0C17.8,44.9,16.4,43.3,17.6,43.3z M22.4,43.5c-0.4,0-0.7,0.3-0.7,0.7
			c0,0.4,0.3,0.7,0.7,0.7c0.4,0,0.7-0.3,0.7-0.7C23.1,43.8,22.8,43.5,22.4,43.5z M61.5,43.7l0.5,0.3c0,0-0.3,0.1-0.7,0.3
			c-1,0.5-1.2,0.9-0.9,1.2c0.1,0.1,0.3,0.2,0.5,0.1c0.7-0.3,1.3-0.7,1.9-1.1l0.4,0.3c0,0-1.5,1-2.3,1.5c-1.3,0.6-2-0.7-1.3-1.5
			C60.2,44.3,60.8,44.1,61.5,43.7z M22.4,43.8c0.2,0,0.4,0.2,0.4,0.4c0,0.2-0.2,0.4-0.4,0.4c-0.2,0-0.4-0.2-0.4-0.4
			C22,44,22.2,43.8,22.4,43.8z M62.2,44.2l0.3,0.2c0,0,0,0-0.9,0.5c-0.9,0.5-0.9,0.5-1,0.4c0,0,0-0.2,0.3-0.4
			C61.4,44.5,62.3,44.2,62.2,44.2z M39,44.2c0.6,0,1.2,0.3,1.6,0.9c0.2,0.5,0.2,0.9,0.2,1.4l0,3.3h-3.5c0,0-0.2-2.3,0-4.1
			C37.4,44.7,38.2,44.2,39,44.2z M28.2,44.7c0.2,0,0.4,0.2,0.6,0.7c0.2,0.5,0.1,0.7-0.6,1L28,46.4c-0.7-0.1-0.9-0.8-0.5-1.3
			C27.8,44.9,28,44.7,28.2,44.7z M63.5,45l0.3,0.2c0,0-0.2,0.1-1.3,1c-0.9,0.7-1,0.8-0.8,1.2c0.2,0.3,0.5,0.3,0.9-0.1
			c0.6-0.5,1.6-1.3,1.6-1.3l0,0.6c-0.7,0.5-1.4,1.4-2.1,1.8c-1.2,0.6-2.1-1-1-1.9C62.1,45.8,63.5,45,63.5,45z M39.1,45
			c-0.9,0-1.2,1.3-0.3,1.6c0.3,0.1,0.3,0.2,0.1,0.9c-0.1,0.4-0.1,0.9-0.1,1.2c0.1,0.4,0.2,0.4,0.1,0c0-0.2,0.2-0.9,0.5-1.3
			C40.4,46.2,40.1,45,39.1,45z M18,45.1c0.6,0,0.9,0.8,0.4,1.2c-0.4,0.3-1.1-0.1-1.1-0.5c0-0.3,0.3-0.7,0.6-0.7L18,45.1z M19.7,45.1
			c0.2,0,0.3,0.3,0.3,0.8c0,0.8-0.3,1.5-0.8,1.9c-0.7,0.6-0.8-1-0.2-2C19.3,45.3,19.6,45.1,19.7,45.1z M64.1,45.3
			c0.2,0,0.1,0.1-0.1,0.3c-0.2,0.1-0.4,0.3-1.2,1c-0.1,0.1-0.4,0.3-0.5,0.4c-0.3,0.2-0.5,0.1-0.4-0.1C62.1,46.7,63.9,45.3,64.1,45.3
			z M23.5,45.4c0.6,0,1.1,0.5,1.1,1.1c0,0.6-0.5,1.1-1.1,1.1s-1.1-0.5-1.1-1.1C22.4,45.8,22.9,45.4,23.5,45.4z M23.5,45.7
			c-0.4,0-0.7,0.3-0.7,0.7c0,0.4,0.3,0.7,0.7,0.7s0.7-0.3,0.7-0.7C24.1,46,23.8,45.7,23.5,45.7z M10.8,45.8
			c7.2,3.6,11.6,10.4,12.7,18.1l3.5-5.5l0.9,0.4L22.9,67l-0.2-0.1c0-8.1-4.1-15.7-11.9-19.9L10.8,45.8z M23.5,46
			c0.2,0,0.4,0.2,0.4,0.4c0,0.2-0.2,0.4-0.4,0.4s-0.4-0.2-0.4-0.4C23.1,46.2,23.3,46,23.5,46z M20.5,46.1c0.3,0.7,0.7,1.4,1.3,2.2
			c-0.6-0.6-1.3-0.5-1.9-0.6L20.5,46.1z M29,46.2c0.1,0,0.2,0,0.3,0.2c0.3,0.4,0.3,0.8,0.1,1c-0.3,0.3-0.7,0.2-0.9-0.2
			C28.3,46.7,28.7,46.3,29,46.2z M64.2,46.8l0,0.6c0,0-0.1,0.2-0.3,0.3c-0.4,0.4-0.9,1-1,1.1c-0.1,0.5,0.4,0.7,0.8,0.3
			c0.2-0.1,0.4-0.3,0.4-0.3v0.8c-0.4,0.3-0.8,0.7-1.4,0.6c-0.3-0.1-0.6-0.4-0.7-0.7c-0.2-1,0.7-1.5,1.4-2.2
			C63.9,47.1,64.2,46.8,64.2,46.8z M25,47.3L25,47.3c0.6,0,1.1,0.5,1.1,1.1c0,0.6-0.5,1.1-1.1,1.1S24,49,24,48.4
			C24,47.8,24.4,47.4,25,47.3z M46.3,47.6c0.6,0,0.9,0.8,0.4,1.2c-0.2,0.2-0.6,0.3-0.8,0.1C45.2,48.5,45.7,47.6,46.3,47.6z
			 M45.1,48.2c0.3,0.4,0.6,1.4,0.4,1.6c-0.4,0.4-1.7-1-1.6-2C44,47.2,45,48.1,45.1,48.2z M29.6,47.6c0.2,0,0.3,0.2,0.2,0.3
			c-0.1,0.1-0.2,0.1-0.4,0.1C29.2,47.9,29.3,47.6,29.6,47.6z M25,47.7c-0.4,0-0.7,0.3-0.7,0.7c0,0.4,0.3,0.7,0.7,0.7
			s0.7-0.3,0.7-0.7C25.7,48,25.4,47.7,25,47.7z M20,48c1.3,0,2.6,1,1.5,1.2c-0.9,0.1-1.4,0-2.1-0.6c-0.3-0.3-0.2-0.5,0.4-0.6L20,48z
			 M25,48c0.2,0,0.4,0.2,0.4,0.4c0,0.2-0.2,0.4-0.4,0.4s-0.4-0.2-0.4-0.4C24.6,48.2,24.8,48,25,48z M26.8,49L26.8,49
			c0.6,0,1.1,0.5,1.1,1.1c0,0.6-0.5,1.1-1.1,1.1c-0.6,0-1.1-0.5-1.1-1.1C25.8,49.5,26.2,49,26.8,49z M47.6,49c0.3,0,0.6,0.1,0.7,0.2
			c0.2,0.2-0.1,0.5-0.7,0.8c-0.7,0.3-1.8,0.3-1.8-0.1C45.8,49.5,46.8,49,47.6,49z M22.1,49.3c0.6,0,0.7,1.8,0.2,2.7
			c-0.3,0.5-0.6,0.1-0.9-0.7C21.2,50.5,21.6,49.3,22.1,49.3z M26.8,49.4c-0.4,0-0.7,0.3-0.7,0.7c0,0.4,0.3,0.7,0.7,0.7
			c0.4,0,0.7-0.3,0.7-0.7C27.5,49.7,27.2,49.4,26.8,49.4z M48.8,49.5l0.2,0.1c0.6,0.3,1.1,1.8,0.8,2.4c-0.4,0.7-1.1-0.6-1.1-1.9
			C48.6,49.7,48.7,49.5,48.8,49.5L48.8,49.5z M20.4,49.6L20.4,49.6c0.6,0,1,0.8,0.5,1.2c-0.2,0.2-0.6,0.2-0.8,0.1
			c-0.4-0.3-0.4-1,0-1.2C20.2,49.6,20.3,49.6,20.4,49.6z M26.8,49.7c0.2,0,0.4,0.2,0.4,0.4c0,0.2-0.2,0.4-0.4,0.4
			c-0.2,0-0.4-0.2-0.4-0.4C26.5,49.8,26.6,49.7,26.8,49.7z M22.9,49.8c0.3,0.5,1.6,1.7,1.8,1.8c-0.6-0.2-1.2-0.1-1.7,0
			C23,51.2,23.1,50.4,22.9,49.8z M43.6,49.9c8.7,2,14,11.3,11.9,19.9c0,0-0.7-0.4-0.9-0.6c0.3-1.5,0.5-3.9,0.1-6.3
			c-0.7-4-3.9-10-11.2-12C43.5,50.7,43.6,49.9,43.6,49.9z M48.2,50c0.1,0.6,0.2,1.2,0.3,1.7c-0.6-0.4-1.3-0.8-2-1.1
			C47.1,50.4,47.5,50.4,48.2,50z M50.8,50.1c0.3,0,0.7,0.2,0.7,0.7c0,0.2-0.2,0.5-0.4,0.6c-0.6,0.3-1.2-0.3-0.9-0.9
			C50.3,50.3,50.5,50.2,50.8,50.1z M28.9,50.4c0.6,0,1.1,0.5,1.1,1.1c0,0.6-0.5,1.1-1.1,1.1c-0.6,0-1.1-0.5-1.1-1.1
			C27.8,50.8,28.3,50.4,28.9,50.4z M28.9,50.8c-0.4,0-0.7,0.3-0.7,0.7c0,0.4,0.3,0.7,0.7,0.7c0.4,0,0.7-0.3,0.7-0.7
			C29.5,51.1,29.2,50.8,28.9,50.8z M10.8,50.9c4.3,2.6,8.2,8,8.5,14.1l-1-0.7c-0.5-4.1-2.6-8.6-7.5-12.3
			C10.8,52,10.8,51.6,10.8,50.9z M34.8,50.9h5.6v1.2l1.7-0.9v2.7l-1.7-1V54h-5.6v-1.2l-1.7,0.8l0-2.7l1.7,1V50.9z M28.9,51.1
			c0.2,0,0.4,0.2,0.4,0.4s-0.2,0.4-0.4,0.4c-0.2,0-0.4-0.2-0.4-0.4S28.6,51.1,28.9,51.1z M31.1,51.3L31.1,51.3l0.1,0.4l0,0
			c-0.4,0-0.7,0.3-0.7,0.7s0.3,0.7,0.7,0.7c0.1,0,0.2,0,0.3,0l0.1,0.4c-0.1,0-0.2,0-0.3,0c-0.6,0-1.1-0.5-1.1-1.1
			C30.1,51.8,30.5,51.3,31.1,51.3z M43.7,51.4L43.7,51.4c0.6,0,1.1,0.5,1.1,1.1c0,0.5-0.4,0.9-0.8,1l-0.1-0.4
			c0.3-0.1,0.5-0.3,0.5-0.6c0-0.4-0.3-0.7-0.7-0.7l0,0L43.7,51.4L43.7,51.4z M51.1,51.8c1.3,0,1.9,0.8,0.8,1.1
			c-0.5,0.1-1.1,0.1-1.8-0.2C49.6,52.4,50.3,51.8,51.1,51.8z M23.8,51.8c0.3,0,0.6,0,0.8,0.2c0.5,0.3,0.5,0.4-0.1,0.8
			c-0.8,0.5-2.7,0-2.2-0.5C22.7,52,23.3,51.8,23.8,51.8z M31.1,51.9L31.1,51.9l0.2,0.7l-0.2,0.1c-0.2,0-0.4-0.2-0.4-0.4
			S30.9,51.9,31.1,51.9z M43.8,52.1c0.2,0,0.4,0.2,0.4,0.4c0,0.2-0.1,0.3-0.3,0.4L43.8,52.1z M46.1,52.4c0.6,0,1.1,0.5,1.1,1.1
			c0,0.6-0.5,1.1-1.1,1.1c-0.6,0-1.1-0.5-1.1-1.1C45,52.8,45.5,52.4,46.1,52.4z M25.4,52.6l0.2,0.1c0.6,0.5,1,1.6,0.7,2.4
			c-0.2,0.8-1.2-0.6-1.2-1.7C25.1,52.9,25.2,52.6,25.4,52.6z M52.9,52.7c0.1,0,0.2,0.1,0.3,0.2c0.4,0.7,0.4,2,0,2.4
			c-0.2,0.2-0.3,0.2-0.6-0.3C52.2,54.2,52.5,52.7,52.9,52.7z M46.1,52.7c-0.4,0-0.7,0.3-0.7,0.7c0,0.4,0.3,0.7,0.7,0.7
			c0.4,0,0.7-0.3,0.7-0.7C46.7,53,46.4,52.7,46.1,52.7z M26.3,52.9c0.8,0.5,1.6,1,2.5,1.3c-0.8-0.2-1.4,0.1-2,0.4
			C26.9,54,26.6,53.5,26.3,52.9z M50.3,53.1c0.6,0.1,1.2,0.2,1.9,0.1c-0.1,0.6-0.2,1.2-0.1,1.8C51.6,54.2,51,53.6,50.3,53.1z
			 M46.1,53c0.2,0,0.4,0.2,0.4,0.4c0,0.2-0.2,0.4-0.4,0.4c-0.2,0-0.4-0.2-0.4-0.4C45.7,53.2,45.9,53,46.1,53z M24.6,53.4
			c0.5,0.2,0.5,0.8,0,1.1c-0.6,0.4-1.4-0.3-1-0.9C23.9,53.3,24.2,53.3,24.6,53.4z M48.2,53.7c0.6,0,1.1,0.5,1.1,1.1
			c0,0.6-0.5,1.1-1.1,1.1c-0.6,0-1.1-0.5-1.1-1.1C47.1,54.2,47.6,53.7,48.2,53.7z M54.4,53.9c0.1,0,0.2,0,0.3,0.1
			c0.4,0.2,0.5,0.7,0.2,1c-0.3,0.3-0.8,0.3-1-0.1C53.6,54.4,54,53.9,54.4,53.9z M44.2,54.1c5.2,1.8,8.7,7.6,7.9,13.1l-0.7-0.6
			c0.5-3.2-1.2-9.2-7.1-11.7L44.2,54.1z M48.2,54.1c-0.4,0-0.7,0.3-0.7,0.7c0,0.4,0.3,0.7,0.7,0.7s0.7-0.3,0.7-0.7
			C48.9,54.4,48.6,54.1,48.2,54.1z M48.2,54.4c0.2,0,0.4,0.2,0.4,0.4c0,0.2-0.2,0.4-0.4,0.4s-0.4-0.2-0.4-0.4
			C47.8,54.6,48,54.4,48.2,54.4z M28.4,54.5c0.3,0,0.7,0,0.8,0.2c0.1,0.3-0.5,0.9-1.4,1c-0.3,0-1.1,0.1-1.2-0.1
			C26.5,55.2,27.4,54.5,28.4,54.5z M11.8,54.7c0.7,0,1.5,0.9,0.8,1.7c-0.6,0.6-1.7,1.4-1.7,1.4v-0.5c0,0,1.1-0.8,1.2-1.2
			c0-0.4-0.4-0.7-0.8-0.4l-0.4,0.3l0-0.9C11.1,54.8,11.5,54.7,11.8,54.7z M29.8,54.9c0.5,0,1.7,1.9,1.4,2.3
			c-0.2,0.3-1.2-0.4-1.6-1.1C29.4,55.7,29.5,55,29.8,54.9L29.8,54.9z M37.9,55.1c0,0,0.1,4.3-0.2,4.8c-1,1.8-3.1,0.8-3.3-0.5
			c-0.1-0.8-0.1-4.3-0.1-4.3L37.9,55.1z M38.2,55.1h3.4c0,0,0,6.1-0.2,6.5c-0.1,0.3-0.6,0.8-0.9,0.9c-1,0.4-2.1-0.2-2.3-1.3
			C38,60.3,38.2,55.1,38.2,55.1L38.2,55.1z M41.9,55.1h2.2c0,0,0.1,0.3,0.2,0.6c0.2,0.5,0.7,1.8,0.7,1.9c0.3,0.4,0.3,4.4,0,4.8
			c-1,1.5-2.6,1.1-3.2-0.6C41.6,61.3,41.9,55.1,41.9,55.1z M44.5,55.3c4,1.9,7.1,6,6.7,11.1l-0.7-0.7c0.3-3.6-2.5-8.1-5.7-9.4
			L44.5,55.3z M50,55.4c0.6,0,1.1,0.5,1.1,1.1c0,0.6-0.5,1.1-1.1,1.1c-0.6,0-1.1-0.5-1.1-1.1C49,55.9,49.4,55.4,50,55.4z M54,55.5
			c0.4,0,0.9,0.1,1.2,0.4c0.4,0.4,0.5,0.6,0.2,0.7c-0.6,0.2-1.4,0-1.9-0.5C53,55.7,53.4,55.5,54,55.5z M50,55.8
			c-0.4,0-0.7,0.3-0.7,0.7c0,0.4,0.3,0.7,0.7,0.7c0.4,0,0.7-0.3,0.7-0.7C50.7,56.1,50.4,55.8,50,55.8z M28.8,55.9
			c0.6,0,0.8,0.8,0.4,1.2c-0.2,0.2-0.7,0.2-0.9,0.1C27.7,56.7,28.1,55.8,28.8,55.9z M36.3,56.1c-0.2,0.5-0.5,1.1-0.7,1.6
			c-0.7,1.1-0.6,1.9,0.1,2.2c1,0.6,1.8-0.9,0.8-1.5c-0.4-0.2-0.4-0.2-0.2-0.8C36.4,56.9,36.4,56.1,36.3,56.1z M50,56.1
			c0.2,0,0.4,0.2,0.4,0.4c0,0.2-0.2,0.4-0.4,0.4c-0.2,0-0.4-0.2-0.4-0.4C49.6,56.2,49.8,56.1,50,56.1z M39.9,56.3c0,0,0,0.3,0,0.8
			c0,0.8-0.1,1-0.6,2.1c-0.6,1.4-0.6,2.3,0.2,2.6c0.6,0.2,1.2-0.2,1.2-1c0-0.3-0.2-0.6-0.4-0.7c-0.2,0-0.5-0.1-0.4-0.2
			C40.1,59,40.8,57.5,39.9,56.3z M53.3,56.4c0.5,0.3,1.1,0.6,1.8,0.7c-0.3,0.8-0.3,1.4-0.4,2C54.4,58.2,53.9,57.3,53.3,56.4z
			 M13.3,56.5l0.1,0c0.5,0.1,0.9,0.7,0.8,1.2c-0.1,0.4-0.2,0.5-1.8,1.6c-0.9,0.6-1,0.6-1,0.6L11,59.6c0,0,0.4-0.3,1-0.7
			c1.2-0.8,1.4-1,1.3-1.4c-0.1-0.4-0.6-0.3-1.3,0.2c-1.1,0.8-1.2,0.9-1.2,0.9v-0.5c0,0,0.5-0.4,0.7-0.6C12,57.2,12.7,56.5,13.3,56.5
			z M45.3,56.7c0.1,0,0.2,0.1,0.2,0.2c0,0.1-0.1,0.1-0.2,0.1C45.1,57,45.1,56.8,45.3,56.7L45.3,56.7L45.3,56.7z M56.2,57.3
			c0.2,0.8-0.3,2.1-0.6,2.3c-0.3,0.3-0.5,0-0.6-0.8C55,58.1,55.8,56,56.2,57.3z M43.3,56.9c0.1,1.1,0.1,2.1-0.4,3
			c-0.7,1.2-0.5,2.2,0.2,2.4c0.7,0.2,1.4-0.3,1.2-1c0-0.2-0.3-0.6-0.5-0.6c-0.2-0.1-0.3-0.2-0.1-0.6c0.2-0.9,0.2-2-0.2-2.8
			C43.5,57.1,43.4,56.9,43.3,56.9z M45.8,57.2c0.6,0,0.9,0.8,0.4,1.2c-0.3,0.2-0.4,0.1-0.7-0.4C45.3,57.5,45.4,57.2,45.8,57.2z
			 M51.5,57.4c0.6,0,1.1,0.5,1.1,1.1c0,0.6-0.5,1.1-1.1,1.1s-1.1-0.5-1.1-1.1C50.5,57.9,50.9,57.4,51.5,57.4z M51.5,57.8
			c-0.4,0-0.7,0.3-0.7,0.7c0,0.4,0.3,0.7,0.7,0.7s0.7-0.3,0.7-0.7C52.2,58.1,51.9,57.8,51.5,57.8z M51.5,58.1c0.2,0,0.4,0.2,0.4,0.4
			c0,0.2-0.2,0.4-0.4,0.4s-0.4-0.2-0.4-0.4C51.1,58.3,51.3,58.1,51.5,58.1z M47,58.4l0.2,0c0.6,0.3,0.5,1-0.1,1.5
			c-0.4,0.3-0.6,0.2-0.9-0.6C46,58.9,46.5,58.4,47,58.4z M14.6,58.5l0.2,0c0.6,0.2,0.9,0.8,0.8,1.3c-0.3,0.8-1.4,1-2.2,1.4l-0.4-0.3
			c0,0,0.6-0.3,1.2-0.6c0.5-0.3,0.6-0.3,0.6-0.7C14.6,59,14.3,59,13,59.7c-0.6,0.3-1,0.6-1,0.6l-0.3-0.2c0.4-0.3,0.7-0.5,1.2-0.8
			C13.7,58.7,14.2,58.5,14.6,58.5L14.6,58.5z M57.6,58.9c0.2,0.6-0.2,1.1-0.8,0.9c-0.3-0.1-0.6-0.5-0.4-0.9
			C56.7,58.4,57.5,58.5,57.6,58.9z M45.5,58.7l1,1.7c0,0,0,0.5,0,0.7c0,1.1,0.3,1.5,0.9,1.4l0.3-0.1l0.4,0.7c0,0-0.4,0.2-0.6,0.2
			c-0.8,0.2-1.8-0.4-2-1.2C45.4,61.4,45.5,58.7,45.5,58.7z M14.3,59.4c0.3,0,0.2,0.2,0,0.3c-0.6,0.3-1.1,0.6-1.7,0.9l-0.4-0.2
			c0,0,0.3-0.2,0.5-0.3C13.4,59.7,14,59.4,14.3,59.4z M52.6,59.6c0.6,0,1.1,0.5,1.1,1.1c0,0.6-0.5,1.1-1.1,1.1
			c-0.6,0-1.1-0.5-1.1-1.1C51.5,60.1,52,59.6,52.6,59.6z M48.1,59.8c0.2,0,0.4,0.1,0.6,0.3c0.3,0.5,0,1-0.7,1.3
			c-0.4,0.2-0.4,0.1-0.9-0.5c-0.3-0.4-0.3-0.5,0-0.7C47.5,59.9,47.8,59.8,48.1,59.8z M10.8,59.9L26,69.7l-0.4,0.7l-14.7-9.6
			L10.8,59.9z M56,60c0.9,0,2.1,1.1,1.7,1.5l-0.2,0.1C56.2,61.5,54.7,60,56,60z M52.6,60c-0.4,0-0.7,0.3-0.7,0.7
			c0,0.4,0.3,0.7,0.7,0.7s0.7-0.3,0.7-0.7C53.2,60.3,52.9,60,52.6,60z M32.3,60.2l0.4,1l-7.6,12l-0.7-0.5L32.3,60.2z M52.6,60.3
			c0.2,0,0.4,0.2,0.4,0.4c0,0.2-0.2,0.4-0.4,0.4s-0.4-0.2-0.4-0.4C52.2,60.5,52.3,60.3,52.6,60.3z M55.3,60.4c0.4,0.7,1,1.1,1.7,1.4
			c-0.7,0.5-1,1.3-1,2C55.9,62.7,55.7,61.6,55.3,60.4z M15.4,60.8c0.2,0,0.3,0,0.4,0.1c1.4,1,0.1,1.9,0,1.9l-0.5-0.3
			c0.2-0.3,0.5-0.6-0.1-1c-0.3-0.1-0.7,0-1.1,0.3l-0.5-0.3C13.7,61.4,14.7,60.8,15.4,60.8z M48.8,61.3l0.2,0c0.8,0.2,0.7,1-0.1,1.4
			c-0.5,0.2-0.6,0.2-1-0.5C47.7,61.9,48.3,61.4,48.8,61.3z M15.1,61.6l0.2,0.1c0,0.2-0.4,0.4-0.4,0.4l-0.5-0.3
			C14.7,61.8,14.9,61.7,15.1,61.6z M57.7,61.9c0.1,0,0.2,0,0.2,0.2c0.2,0.7-0.6,1.9-1.2,2.1c-0.4,0.1-0.5-0.1-0.4-0.6
			C56.5,62.7,57.3,61.9,57.7,61.9z M33.2,61.9l1.2,0.9l-7.4,11.6l-1.3-0.8L33.2,61.9z M53.3,62c0.6,0,1.1,0.5,1.1,1.1
			c0,0.6-0.5,1.1-1.1,1.1c-0.6,0-1.1-0.5-1.1-1.1C52.2,62.5,52.7,62,53.3,62z M53.3,62.4c-0.4,0-0.7,0.3-0.7,0.7s0.3,0.7,0.7,0.7
			c0.4,0,0.7-0.3,0.7-0.7S53.7,62.4,53.3,62.4z M53.3,62.7c0.2,0,0.4,0.2,0.4,0.4s-0.2,0.4-0.4,0.4c-0.2,0-0.4-0.2-0.4-0.4
			S53.1,62.7,53.3,62.7z M36.3,62.7c0.8,0.9,1.7,2.9,4.8,2c1.1,0.9,2.5,1.4,4.4,0.4l0,5.4l-13.9,0L36.3,62.7z M10.9,62.9l13.7,9
			l-0.4,0.8l-13.3-8.5L10.9,62.9z M49.4,62.9L49.4,62.9c0.7,0.2,0.8,0.9,0.2,1.1c-0.3,0.1-0.4,0.1-0.8-0.4c-0.1-0.2-0.2-0.4-0.2-0.4
			C48.7,63.1,49.2,62.9,49.4,62.9L49.4,62.9z M58.2,63.6c0.2,0,0.5,0.1,0.6,0.4c0.2,0.4,0.1,0.7-0.3,0.9c-0.6,0.4-1.2-0.3-0.9-0.9
			C57.7,63.7,58,63.6,58.2,63.6z M49.6,64.3c0.3,0,0.6,0.3,0.4,0.5c-0.1,0.1-0.2,0.1-0.4-0.1C49.5,64.5,49.5,64.3,49.6,64.3z
			 M53.6,64.5c0.6,0,1.1,0.5,1.1,1.1c0,0.6-0.5,1.1-1.1,1.1c-0.6,0-1.1-0.5-1.1-1.1C52.5,64.9,53,64.5,53.6,64.5z M56.6,64.5
			c0.8,0,1.9,1.3,1.7,2.1c-0.1,0.2-0.5,0.1-1-0.3C56.5,65.8,56.1,64.5,56.6,64.5z M53.6,64.9c-0.4,0-0.7,0.3-0.7,0.7
			s0.3,0.7,0.7,0.7c0.4,0,0.7-0.3,0.7-0.7S53.9,64.9,53.6,64.9z M56.1,65c0.2,0.6,0.4,1.3,1.4,1.8c-1.5,0.7-1.8,1.9-1.6,3.5L55.6,70
			C56,68.6,56.2,67.1,56.1,65L56.1,65z M53.6,65.2c0.2,0,0.4,0.2,0.4,0.4s-0.2,0.4-0.4,0.4c-0.2,0-0.4-0.2-0.4-0.4
			S53.4,65.2,53.6,65.2z M53.4,66.9c0.6,0,1.1,0.5,1.1,1.1c0,0.4-0.2,0.7-0.5,0.9l-0.3-0.3c0.3-0.1,0.4-0.3,0.4-0.6
			c0-0.4-0.3-0.7-0.7-0.7c-0.4,0-0.6,0.3-0.7,0.6l-0.3-0.3C52.5,67.2,52.9,66.9,53.4,66.9z M58.2,67c0.5,0-0.3,1.4-1,1.8
			c-0.5,0.3-1.1,0.3-1,0C56.2,68.1,57.4,67,58.2,67z M53.4,67.5c0.2,0,0.4,0.2,0.4,0.4c0,0.2-0.2,0.4-0.4,0.4
			c-0.2,0-0.4-0.2-0.4-0.4C53,67.7,53.2,67.5,53.4,67.5z M58,68.8c0.2,0,0.5,0.1,0.6,0.3c0.1,0.3,0.1,0.5-0.2,0.8
			c-0.6,0.6-1.4,0-1-0.8C57.5,68.9,57.8,68.8,58,68.8z M56.1,69.4c0.8,0,1.5,1.1,1.3,1.7c-0.1,0.2-1.1-0.6-1.2-0.6
			C56.1,70.2,56.1,69.9,56.1,69.4z M54.9,70c0.9,0.6,1.8,1.1,2.7,1.6l-2.7,1.7L54.9,70z M31.2,70.8l14.3,0.1l0,0.6l-14.7,0
			L31.2,70.8L31.2,70.8z M30.6,71.8h1v1.2h-1.3v-0.6L30.6,71.8z M44.4,71.8h1.2V73h-1.2V71.8z M33,71.8h1.3V73H33V71.8z M35.8,71.8
			h1.4V73h-1.4V71.8z M38.7,71.8h1.4V73h-1.4V71.8z M41.6,71.8h1.3V73h-1.3V71.8z M29.7,73.3l15.9,0V74l-16.3,0L29.7,73.3z
			 M43.2,74.7c1.6,0,2.6,1.8,1.3,3c-1.2,1.2-3.1-0.3-2.1-1.6c0.5-0.7,1.9-0.1,1.5,0.6c-0.2,0.5-0.9,0.3-0.9-0.3
			c0-0.2-0.2-0.1-0.2,0.2c0,0.3,0.3,0.6,0.6,0.6c0.9,0,1.1-1.2,0.2-1.7c-0.8-0.4-1.7,0.1-1.9,1.1c0,0.1-0.2,0.4-0.3,0.6
			c-0.3,0.6-0.4,0.9-0.5,1.6c-0.1,0.1-0.3,0.2-0.4,0.3c-0.5,0.2-0.4,0.1-0.3-0.6c0.5-2.2,1.3-3.5,2.3-3.8
			C42.8,74.8,43,74.7,43.2,74.7z M48,74.8c1,0,1.7,0.8,1.9,1.4c0.6,1.9-2,3.1-2.9,1.4c-0.5-1,0.5-2.2,1.5-1.7
			c0.8,0.4,0.7,1.6-0.1,1.6c-0.4,0-0.7-0.4-0.5-0.7c0.1-0.1,0.3,0,0.3-0.2c0-0.1-0.1-0.2-0.4-0.1c-0.5,0.1-0.4,1.1,0.1,1.3
			c0.8,0.3,1.6-0.6,1.2-1.5c-0.5-1.1-1.8-1.1-2.4,0c-0.1,0.2-0.2,0.4-0.3,0.5c-0.9,1.2-1,1.4-1.2,2.1L45.1,79
			c-0.2,0-0.5,0.1-0.6,0.1c-0.1,0,0-0.5,0-0.5C45.1,76.7,46.7,74.9,48,74.8z M40.3,75.4c-0.2,0.4-0.8,1.6-1.3,3.3
			c-0.1-0.1-0.4-0.2-0.7-0.3c-0.1,0,0-0.1,0-0.3c0.2-0.8,0.7-2.2,1.2-2.9C39.7,75.2,40.5,75.1,40.3,75.4z M41.2,75.7
			c-0.5,0.7-1.1,2.5-1.2,3.5c0,0.1,0,0.3-0.1,0.4c-0.1,0.3-0.6-0.3-0.6-0.7c0-0.6,0.7-2.6,1.2-3.3c0.2-0.3,0.2-0.3,0.6-0.3
			C41.7,75.2,41.4,75.4,41.2,75.7L41.2,75.7z M14.7,75.3c-0.1,0-0.3,0-0.4,0.1c-0.8,0.2-1.7,1-1.8,1.9c0,0-0.1,0.6-0.1,1
			c0.3,1.2,0.9,2,1.8,3.2c0,0-1.1,1.6-1.8,2.4l1.7,2.5c-0.5,0.9-1.3,1.7-1.5,2.8c-0.3,1.5,0.5,3,2.2,3.2c1.3,0,2.1-0.8,2.3-2.1
			c0.1-0.9-0.3-1.9-1.6-3.7l-0.2-0.3c0,0,0.1-0.2,0.2-0.3c0.5-0.6,1.6-2.1,1.6-2.1l-1.8-2.5c0,0,0.1-0.2,0.2-0.4
			C17,79,17.3,78,17.1,77c-0.1-0.4-0.3-0.7-0.7-1C15.9,75.5,15.3,75.3,14.7,75.3L14.7,75.3z M14.7,75.5c0.6,0,1.1,0.2,1.6,0.7
			c1.1,1.1,1,2.1-0.4,4.2c-0.3,0.5-0.6,1-0.6,1l1.8,2.4c-0.6,0.8-1.2,1.5-1.8,2.4c0.3,0.5,0.8,1,1.1,1.5c0.4,0.6,0.6,1.3,0.7,1.9
			c0.1,1.2-0.7,2.5-2,2.6c-1.3,0-2.3-1.1-2.3-2.5c0-0.6,0.3-1.2,0.6-1.7c0.3-0.6,1.1-1.7,1.1-1.7l-1.7-2.5l1.8-2.4
			c0,0-1.3-1.6-1.7-2.8c-0.3-1.3,0.3-2.1,0.4-2.2C13.4,75.8,14,75.5,14.7,75.5L14.7,75.5z M13.5,79c0.3,0.7,0.7,1.2,1.2,1.7
			c0.4-0.5,0.9-1.2,1.2-1.9C17.3,75.6,12.2,75.4,13.5,79z M14.7,80.4c-0.6-0.8-1.1-1.4-1.1-2.4c-0.1-2,2.5-1.7,2.4,0
			C15.8,79,15.3,79.6,14.7,80.4z M46.6,77.3c0,0.3,0.3,0.7,0.3,0.9c-0.1,0.3-0.3,0.4-0.6,0.9c-0.1,0.1,0,0.1-0.2,0.1
			c-0.1,0-0.4-0.1-0.5-0.1c-0.1,0-0.2-0.1-0.1-0.2C45.8,78.3,46.1,77.6,46.6,77.3z M42.3,78.1L42,78.9L41.9,79c-0.2,0-0.3,0-0.5,0
			c-0.4,0,0.3-1.4,0.4-1.7C42,77.3,42.2,77.9,42.3,78.1z M42.6,78.3L42.6,78.3c0.2,0,0.4,0.1,0.6,0.2c0.1,0,0.1,0,0.1,0.2
			c-0.1,0.2-0.2,0.7-0.3,0.8c0,0-0.5-0.3-0.7-0.4C42.2,79,42.4,78.3,42.6,78.3z M47.1,78.4c0.2,0,0.4,0.2,0.5,0.3
			c0.1,0.1,0,0.2-0.2,0.6c-0.2,0.3-0.4,0.6-0.4,0.6c-0.1-0.1-0.4-0.2-0.5-0.4c-0.1-0.1,0.1-0.4,0.2-0.6C46.9,78.5,47,78.4,47.1,78.4
			z M44.2,78.4c0.2,0-0.1,0.9-0.1,1c-0.2,0.2-0.4,0.5-0.6,0.7c-0.1,0.1-0.4-0.1-0.4-0.3c0-0.1,0.3-0.9,0.4-1.1
			C43.5,78.5,44.1,78.4,44.2,78.4L44.2,78.4z M37.6,78.7l0.1,0c0.6,0,1.3,0.3,1.7,1c0.2,0.3,0.2,0.3,0.2,0.7
			c-0.1,0.7-0.1,1.2,0.1,1.7c0.2,0.5,0.2,0.7-0.4,1.8c-0.5,1.1-1.2,2.5-1.7,3.8c-0.2,0.6-0.4,1.2-0.5,1.7c-0.1,0.3-0.5,0.2-0.9,0.2
			c-0.2,0,0.3-1.3,1-2.9c0.6-1.3,1.4-2.7,1.7-4.2c0.3-1.2,0.2-1.6,0-2.1c-0.5-1.4-2.4-1.1-2.4,0.2c0,0.9,1,1.3,1.4,0.5
			c0.1-0.4-0.1-0.2-0.3,0c-0.3,0.4-0.9,0-0.8-0.6c0.1-0.8,1.1-1,1.6-0.4c0.5,0.7,0.4,1.4-0.4,1.9c-0.8,0.6-1.5,0.2-1.9-0.4
			C35.3,80.2,36.5,78.7,37.6,78.7L37.6,78.7z M41.5,79.2c0.8,0,1.6,0.7,1.8,1.2c0.1,0.4,0,0.8,0.1,1.1c0.1,0.3,0.2,0.4,0.1,0.7
			c-0.6,2.1-2.2,4.3-2.9,6.7c-0.1,0.2-0.2,0.2-0.4,0.2c-0.3,0.1-0.4,0.1-0.4-0.1c0-0.1,0.1-0.4,0.2-1c0.2-0.6,0.7-1.7,0.9-2.2
			c0.6-1.2,1-2,1.5-3c0.1-0.2,0.1-0.3,0.2-0.6c0.6-1.2-0.1-2.3-1.3-2.3c-1,0-1.4,1.5-0.5,1.9c0.8,0.4,1.4-0.7,0.7-1.1
			c-0.2-0.1-0.2,0-0.1,0.2c0.3,0.4,0,0.9-0.4,0.7c-0.7-0.3-0.3-1.5,0.5-1.4c1.3,0.1,1.4,1.9,0.1,2.4c-1.8,0.6-2.7-2.2-1-3.1
			C40.9,79.3,41.2,79.2,41.5,79.2z M45.2,79.3c0.5,0,1,0.2,1.4,0.5c1,0.9,0.7,2.4-0.9,5.2c-0.5,0.9-1.1,2.1-1.4,2.9
			c-0.1,0.2-0.1,0.3-0.3,0.4c-0.3,0.2-0.6,0.2-0.7,0.1c-0.1-0.3,0.7-2.1,2.2-4.9c0.4-0.7,0.9-1.6,0.8-2.5c-0.1-0.7-0.7-1.2-1.5-1
			c-0.5,0.2-0.7,0.9-0.4,1.3c0.2,0.2,0.4,0.2,0.5,0.2c0.2,0,0.5-0.2,0-0.3c-0.5,0-0.7-0.6-0.2-0.9c0.6-0.4,1.3,0.1,1.3,0.9
			c-0.1,1.6-2.4,1.4-2.5-0.3C43.5,80,44.3,79.3,45.2,79.3z M38.7,81.8c0.4,0-0.3,1.9-1.3,4c-0.6,1.2-1,2.4-1.5,3.7
			c-0.1,0.2-0.8,0.2-0.8,0c1.3-4.1,2.2-4.8,2.6-6.4c0.1-0.3,0.1-0.7,0.1-0.7C38.2,82.3,38.4,81.9,38.7,81.8z M14.8,82.1l-1.4,1.8
			l1.3,1.9l1.4-1.8L14.8,82.1z M44.4,82.7c0,0.2-0.4,1.2-0.7,1.9c-1.3,2.7-1.7,3.4-1.9,4.1c0,0.1-0.1,0.2-0.2,0.2
			c-0.2,0.1-0.6,0.2-0.7,0.1c0.3-1.6,2.5-5.2,2.9-6.7C43.9,82.3,44.4,82.5,44.4,82.7L44.4,82.7z M45.5,82.5c0.1,0,0.1,0,0.1,0.2
			c0,0.2-0.3,0.7-0.7,1.5c-1.1,2.2-1.7,3.5-1.9,4.2c0,0.2-0.1,0.3-0.1,0.3c-0.2,0.1-0.7,0.3-0.7,0.1c0.2-1,0.8-1.7,2.5-5.8
			c0.1-0.1,0.1-0.2,0.2-0.2C45.1,82.6,45.3,82.5,45.5,82.5z M40.8,83.2c0,0.3-0.3,0.8-0.8,1.8c-0.8,1.7-1.3,2.9-1.7,4
			c-0.1,0.2-0.1,0.4-0.2,0.4c-0.1,0.1-0.7,0.1-0.7,0.1c-0.1-0.5,0.6-2.1,1.4-3.9c0.4-1,0.9-1.9,1.3-2.8C40.4,82.8,40.8,83,40.8,83.2
			z M42,82.8c0.2,0,0.1,0.4-0.5,1.5c-0.5,0.9-1.2,2.2-1.7,3.7c-0.1,0.3-0.3,0.7-0.3,0.9c-0.1,0.2-0.1,0.3-0.2,0.4
			c-0.2,0.1-0.6,0.1-0.7,0c-0.1-0.1,0.5-1.8,1.1-3.1c0.5-1.1,0.9-2,1.4-3c0.1-0.2,0.1-0.2,0.3-0.2C41.6,83,41.9,82.8,42,82.8
			L42,82.8z M14.8,83l0.7,0.9l-0.8,1l-0.7-1L14.8,83z M14.7,87c0,0-0.3,0.3-0.6,0.9c-0.9,1.5-0.9,2.6,0.1,3.3c0.4,0.2,1,0.2,1.4-0.1
			c1.2-1,0.3-2.5-0.5-3.5C15,87.3,14.7,87,14.7,87z M14.7,87.4c0.5,0.5,0.8,0.9,1.1,1.6c0.3,0.9,0.1,1.6-0.5,1.9
			c-1.1,0.5-2-0.7-1.5-1.9C14.1,88.1,14.7,87.4,14.7,87.4z M44.3,89.2c0.1,0.2-10,2.5-17.5,0.5l-4.6,6.6l26.3,0L44.3,89.2z
			 M43.9,89.6c0,0,2.4,4.2,3.6,6.3h-1.7l-2.4-5.1c-1.3,0.4-2.6,0.6-3.8,0.8l0.9,4.4h-1.3l-0.7-4.2c-1.8,0.1-3.7,0.2-5.6,0.1l-0.8,4
			h-1.3l0.8-4c-1.5-0.2-2.9-0.4-4.4-0.6l-2.5,4.6h-1.9l3.9-5.8C32.6,91.3,37.9,91,43.9,89.6L43.9,89.6z M43,91.9l1.9,4h-3.6
			l-0.7-3.6L43,91.9z M27.6,92.2l3.2,0.4l-0.8,3.3h-4.3L27.6,92.2z M37.9,92.7l0.4,3.2h-5.4l0.6-3.2L37.9,92.7z"/>
		<path class="st3" d="M20.2,11.3c-3.1,4.4-6.4,6.9-6.4,10.4c0,1.1,0.6,3,2.5,3.4c1.2,0.2,2.9-0.8,2.9-2.8c0-0.4,0.4-0.4,0.4,0.2
			c-0.1,1.6-0.6,3.4-1.4,4.9c1.3,0,2.7,0,4,0c-0.8-1.5-1.3-3.4-1.4-4.9c0-0.5,0.4-0.6,0.4-0.2c0,2,1.7,3,2.9,2.8
			c1.9-0.4,2.5-2.3,2.5-3.4C26.6,18.2,23.3,15.7,20.2,11.3z"/>
		<path class="st3" d="M54.8,93.8c-3.1-4.4-6.4-6.9-6.4-10.4c0-1.1,0.6-3,2.5-3.4c1.2-0.2,2.9,0.8,2.9,2.8c0,0.4,0.4,0.4,0.4-0.2
			c-0.1-1.6-0.6-3.4-1.4-4.9c1.3,0,2.7,0,4,0c-0.8,1.5-1.3,3.4-1.4,4.9c0,0.5,0.4,0.6,0.4,0.2c0-2,1.7-3,2.9-2.8
			c1.9,0.4,2.5,2.3,2.5,3.4C61.2,86.8,57.9,89.4,54.8,93.8z"/>
	</g>
</g>
</svg>
