<?xml version="1.0" encoding="utf-8"?>
<!-- Generator: Adobe Illustrator 19.1.0, SVG Export Plug-In . SVG Version: 6.00 Build 0)  -->
<svg version="1.1" xmlns="http://www.w3.org/2000/svg" xmlns:xlink="http://www.w3.org/1999/xlink" x="0px" y="0px"
	 viewBox="0 0 75.3 105.3" style="enable-background:new 0 0 75.3 105.3;" xml:space="preserve">
<style type="text/css">
	.st0{display:none;}
	.st1{fill:#FFFFFF;}
	.st2{fill:none;stroke:#010101;stroke-width:0.9967;}
	.st3{fill:#010101;}
	.st4{fill:none;stroke:#010101;stroke-width:1.0006;}
	.st5{fill:#E1CF20;}
	.st6{fill:#262964;}
	.st7{fill:#D31F26;}
	.st8{fill:#14130F;}
	.st9{fill:none;stroke:#010101;stroke-width:0.9929;}
	.st10{fill:#F6EB16;}
	.st11{fill:none;stroke:#010101;stroke-width:1.83;}
	.st12{clip-path:url(#SVGID_2_);}
	.st13{clip-path:url(#SVGID_4_);}
</style>
<g id="Layer_1" class="st0">
</g>
<g id="Layer_2">
	<g>
		<path class="st1" d="M3.6,0.3h67.5c2,0,3.6,1.6,3.6,3.6v97.3c0,2-1.6,3.6-3.6,3.6H3.6c-2,0-3.6-1.6-3.6-3.6V3.9
			C0.1,1.9,1.7,0.3,3.6,0.3z"/>
		<path class="st2" d="M3.6,0.3h67.5c2,0,3.6,1.6,3.6,3.6v97.3c0,2-1.6,3.6-3.6,3.6H3.6c-2,0-3.6-1.6-3.6-3.6V3.9
			C0.1,1.9,1.7,0.3,3.6,0.3z"/>
		<path class="st3" d="M5.8,17c-1.4,1.8-3,2.9-3,4.3c0,0.5,0.3,1.3,1.2,1.4c0.6,0.1,1.4-0.3,1.4-1.2c0-0.2,0.2-0.2,0.2,0.1
			c0,0.7-0.3,1.4-0.7,2.1c0.6,0,1.3,0,1.9,0c-0.4-0.6-0.6-1.4-0.7-2.1c0-0.2,0.2-0.2,0.2-0.1c0,0.8,0.8,1.3,1.4,1.2
			c0.9-0.2,1.2-0.9,1.2-1.4C8.8,19.9,7.3,18.9,5.8,17L5.8,17z"/>
		<path class="st3" d="M69,88c-1.4-1.8-3-2.9-3-4.3c0-0.5,0.3-1.3,1.2-1.4c0.6-0.1,1.4,0.3,1.4,1.2c0,0.2,0.2,0.2,0.2-0.1
			c0-0.7-0.3-1.4-0.7-2.1c0.6,0,1.3,0,1.9,0c-0.4,0.6-0.6,1.4-0.7,2.1c0,0.2,0.2,0.2,0.2,0.1c0-0.8,0.8-1.3,1.4-1.2
			c0.9,0.2,1.2,0.9,1.2,1.4C72,85.1,70.4,86.2,69,88L69,88z"/>
		<polygon class="st3" points="6.1,14.8 7.2,14.8 5.6,10.7 4.3,12.4 4.3,14.8 5.2,14.8 5.2,16 2.1,16 2.1,14.8 3.1,14.8 3.1,6 
			2.1,6 2.1,4.9 5.3,4.9 5.3,6 4.4,6 4.4,10.3 7.1,6 6.1,6 6.1,4.9 9.5,4.9 9.5,6 8.6,6 6.3,9.5 8.5,14.8 9.5,14.8 9.5,16 6.1,16 
			6.1,14.8 		"/>
		<polygon class="st3" points="68.7,90.3 67.6,90.3 69.2,94.4 70.5,92.6 70.5,90.3 69.6,90.3 69.6,89.1 72.7,89.1 72.7,90.3 
			71.7,90.3 71.7,99 72.7,99 72.7,100.1 69.5,100.1 69.5,99 70.4,99 70.4,94.7 67.7,99 68.7,99 68.7,100.1 65.3,100.1 65.3,99 
			66.2,99 68.5,95.5 66.3,90.3 65.3,90.3 65.3,89.1 68.7,89.1 68.7,90.3 		"/>
		<path class="st6" d="M10,8.3h54.9v88.4H10V8.3z M48.9,96.2c-2-3.7-5.3-9.8-5.4-9.8C42.4,87,30.2,88.6,24.4,87c-2,3-4,6-5.7,9
			L48.9,96.2z M30.2,85c-0.3,0-0.6,0.2-0.6,0c0-0.1,0.1-1,0.2-1.4c0.1-0.2,0.2,0.2,0.2,0.6c0,0.2,0.1,0.1,0.8,0.1
			c0.7,0,1.4,0.2,1.6,0.2c0.9,0.2,2.6,0.1,3.3-0.5c0.4-0.3,0.5,0,0.1,0.3c-1.9,1.4-3.3,0.9-4.9,0.6C30.7,85.1,30.5,85,30.2,85z
			 M31,83.7c-0.1-0.1-0.2-0.1-0.3,0c-0.6,0.3-0.4-0.1,0-0.5c0.2-0.2,0.2-0.3,0-0.4c-0.1-0.1-0.2-0.1-0.2-0.2c0.1-0.6,1-1.5,1.9-1.9
			c0.4-0.2,0.5,0,0,0.3c-0.8,0.5-1,0.8-0.6,0.7c0.8-0.3,1.6-0.1,2.7,0.4c0.3,0.2,0.4,0.2,0.7,0.2c0.2-0.2,0.4,0,0.5,0.1l0.2,0.1
			c0.6-0.1,0.2,0.2-0.6,0.9C33.8,84.3,32.2,84.8,31,83.7L31,83.7z M33.3,84c0.6-0.2,1.4-0.6,1.8-1c0.6-0.5,0.2-0.4-0.4-0.1
			c-0.9,0.4-1.6,0.6-2.6,0.6c-0.9,0-0.8-0.1-0.9,0.1C31.1,83.9,32.3,84.3,33.3,84z M31.6,82.5c0-0.2,0.1-0.4,0-0.5
			c-0.1-0.1-0.3,0-0.5,0.2c-0.1,0.2-0.1,0.2,0,0.3l0.2,0.1C31.6,82.8,31.6,82.6,31.6,82.5L31.6,82.5z M32,82.7
			c0.3-0.9,0.9-0.9,1.3,0l0.3,0c-0.6-1.7-1.8-0.8-1.9,0C31.9,82.7,32,82.7,32,82.7z M34.2,82.6c0.3-0.2,0.2-0.3-0.1-0.5
			c-0.3-0.1-0.4-0.2-0.4-0.1c0,0.2,0,0.5,0.1,0.6C33.9,82.7,34.1,82.6,34.2,82.6z M30.3,80c-0.1-0.1,0-0.2,0.2-0.3
			c1.2-0.6,0.3-1.7-0.6-0.9c-0.3,0.2-0.7,0.4-1.1,0.2c-0.3-0.1-0.3-0.5,0.1-0.6c0.1,0,0.5-0.1,0.6-0.2c1.6-0.9,2.5,1,1.3,1.7
			C30.6,80,30.3,80,30.3,80L30.3,80z M25.7,78.2c-0.7-0.3-0.7-1.3-0.1-1.7c0.4-0.3,0.8-0.3,1.9,0.2c0.8,0.4,1.2,0,1.2,0.4
			c0,0.3,0,0.5-0.5,0.6c-0.7,0.1-1.2-0.9-2.1-0.8c-0.7,0.1-0.6,0.9-0.1,1C26.6,78.2,26.2,78.4,25.7,78.2L25.7,78.2z M37.9,78.4
			c-0.1,0.1-0.2-0.2-0.1-0.4c0.3-0.8,0.6-1.4,0.9-2.1c0.2-0.6,0.4-0.8,0.5-0.8c0.1,0,0.2,0.1,0,0.4C38.9,76.2,37.9,78.4,37.9,78.4
			L37.9,78.4z M32.4,78.2c-0.3-0.2-0.2-0.5,0.1-0.3c0.4,0.3,1.1-0.2,1-0.8c-0.2-0.6-1-0.8-1.7-0.2c-1.1,0.9-2.3,0.9-2.3,0.2
			c0-0.2,0-0.2,0.4-0.3c0.5,0,1.1-0.3,1.4-0.5c1.3-0.8,2.8-0.3,2.5,1.1C33.7,78.2,32.9,78.5,32.4,78.2z M27.6,76.2
			c-0.1,0-0.3,0.1-0.4,0.1c-0.1-0.1-0.1-0.3-0.2-0.6c-0.2-0.5,0-0.3,0.3-0.2c0.4,0.2,0.8,0.1,1.1,0c0.3-0.1,0.8-0.1,1.5,0
			c0.6,0.1,0.9,0.1,1.4-0.1c0.6-0.2,0.4-0.1,0.3,0.2c-0.1,0.2-0.1,0.5-0.2,0.6c-0.4-0.2-0.7-0.1-0.9,0c-0.4,0.2-0.7,0.2-1.1,0.1
			c-0.3-0.2-0.5-0.2-0.8,0C28.2,76.5,28,76.2,27.6,76.2L27.6,76.2z M35.9,75.2c0.1-0.1,0.2-0.3,0.3-0.5c0.9-1.7,0.9-2.2,0.3-2.8
			c-0.8-0.8-1.5-0.4-2.3,1.1c-0.2,0.4-0.3,0.7-0.4,0.8c-0.1,0.1-0.2,0-0.2,0c-0.1-0.1,0.8-1.8,1.1-2.1c0.9-0.9,2.6-0.2,2.5,1.1
			c-0.1,0.6-0.2,1-0.8,2.2c-0.1,0.3-0.3,0.5-0.4,0.7C35.8,75.8,35.8,75.4,35.9,75.2L35.9,75.2z M27.8,75.1c0.1-0.6,2.1-0.9,2.6-0.1
			c0.1,0.1,0,0.1-0.2,0c-1-0.3-1.2-0.3-2.2,0.1C27.9,75.2,27.8,75.2,27.8,75.1L27.8,75.1z M35.3,75c0-0.1,0.1-0.3,0.2-0.5
			c0.7-1.3,0.8-1.6,0.6-1.9c-0.4-0.5-0.9-0.1-1.4,1.3c-0.2,0.5-0.3,0.4-0.4,0.3c-0.2-0.2,0.6-1.7,0.9-2c0.8-0.5,1.5,0.1,1.1,1.1
			c-0.3,0.5-0.5,1.2-0.8,1.6C35.4,75.2,35.3,75.2,35.3,75L35.3,75z M32.3,72.9c0-0.1,0-0.2,0.3-0.8c0.4-0.8,0.5-1.1,0.3-1.6
			c-0.3-0.8-1.3-1.1-2-0.5c-0.2,0.2-0.4,0.4-0.5,0.7c-0.2,0.5-0.4,1.2-0.6,1.3c-0.1,0.1-0.3,0.1-0.3-0.1c0.2-0.4,0.2-0.8,0.6-1.5
			c0.9-2,3.5-1.1,2.9,1c-0.2,0.8-0.5,1.3-0.6,1.5C32.5,73.1,32.3,73,32.3,72.9z M31.7,72.6c0-0.1,0.1-0.2,0.2-0.5
			c0.4-1.1,0.4-1.4-0.2-1.4c-0.4,0-0.4,0.2-0.8,1.1c-0.1,0.3-0.2,0.5-0.2,0.6c-0.1,0.1-0.2,0-0.3,0c-0.1-0.1,0.5-1.5,0.8-1.8
			c0.7-0.6,1.7,0.3,1.2,1.1c-0.2,0.6-0.4,1-0.5,1.1C31.8,72.8,31.7,72.7,31.7,72.6L31.7,72.6z M16.2,59.9L14,59.7
			c0.4,2.4,0.4,5,0,6.8c-0.3,1.6-0.3,2.8-0.2,4.1c0.1,1.6,0.8,3,1,4.7c0.1,1.2-0.1,2.5-0.4,3.7c-0.4,2-0.3,2.3-0.3,4.7
			c0.1,2.2-0.2,2.1-0.3,2c0,0,0-0.4,0-0.9c0-0.5,0-1.6-0.1-2.4c-0.1-1.6,0.1-3,0.2-3.6c0.3-1.2,0.5-2.4,0.4-3.7
			c-0.4-1.6-0.9-3.3-1.1-4.9c-0.2-1.9,0.3-3.9,0.5-5.3c0.2-1.4,0-3.7-0.4-4.7c-0.1-0.3-0.4-0.8-0.4-0.8c-0.3,0-0.7-0.1-1.1-0.1
			c0,9.4,0,18.8,0,28.2l2.1,1.9l2.1-2L16.2,59.9z M16.4,70.6c0,0,3.1,1.8,6.6,3.6c-0.3-2,0.7-2.4,1.7-2.6c-0.2-4,3.4-3.1,3.9,0.3
			l0.4,0c0.6-1.7,1.2-2.9,2.7-3.2c1.1-0.2,2.2,0.5,2.5,2.1c0-0.1,3.7-2.2,3.8,2.2c1.7-1,2.9-0.1,3.4,1.2c0.7-1.1,2.5-1.1,3.1-1.2
			c0.2-0.2,0.5-0.4,1.2-0.4c0.5,0,1.3-0.4,1.6,0.1c0.6,0.1,1,0,1.5,0.4c0.4,0.3,0.8,1,1.5,0.5c1.2-0.6,2.6-0.9,3.7-1.6l-0.2-0.3
			c0,0,0.2,0.2,0.4,0.3l0.8-0.4c-4.6-5.3-8.4-15.7-5.9-25.3c0.1-0.2-0.2-0.2-0.3-0.3c0-0.1,0.7,0,0.4,0.6c-0.3,1.8-0.6,3.8-0.7,5.4
			c0,0.2,0,0.4,0,0.4c10.3,4.8,9,15.1,6.4,18.7l0.4,0.6c0.2,0.1,8.1-4.5,7.8-4.7l1.5-0.8l-0.2-20.3l-5.9-0.5l0.1-0.2
			c0.1-1.2-0.1-3.1,0-4.6c0-4.4,0.1-5.9,0-6c-1.8-1.2-4.6-3-6.8-3.8c0.1,0,0,1.8-0.1,1.9c-2.1,0.7-1.1,1.6-1.9,2.5
			c-0.5,0.6-1.8,0.7-2.4,0c-0.7-0.7-1.1-2.3-1.1-2.3c-1.1,1.2-0.9,2.7-2.4,3.3c-2.4,1.2-3.2-2.4-3.1-2.3c-0.9,0.9-3.6,1.6-3.8-2.2
			c-1.2,1.1-2.5,0.6-3.1-0.8c-0.7,0-1.5,0.6-2.3,0.9c-0.7,0.3-1.5,0.5-2.2,0.5c-0.8,0.1-1.5,0.1-2.2-0.1c-0.3,0.1-1.1-0.2-1.3-0.7
			c-0.4-0.4-0.7-0.5-1-0.4c-1.2,0.6-2.4,0.8-3.8,1.4l0.1,0.2l-0.7,0.3c7,9.3,7.4,18.7,5.9,25.3c-0.1,0.2-0.1,0.4,0.1,0.6
			c-0.2,0-0.2,0-0.3-0.1l0.7-5.6c0-0.7,0.1-0.6-0.5-0.9c-0.5-0.2-1.1-0.5-1.5-0.7c-1.7-1.3-3.6-2.8-4.6-4.8
			c-2.7-4.2-1.8-9.2,0.2-13.2l-0.5-0.5c-5.9,3-9.4,6.2-9.4,6.2l0,19.9l6,0.7L16.4,70.6z M13.5,57.3c-0.2-0.2-0.7-0.3-0.9-0.1
			l-0.2,0.2c-0.3-0.1-0.5-0.1-0.5-0.4l0.3-0.4c0.2-0.3,0.6-0.5,1.1-0.6c0.2,0,0.5-0.1,0.6-0.1c0.4-0.2,0.6-0.6,0.1-0.4
			c-0.3,0.1-0.7,0.1-0.8-0.2c0-0.2-0.2-0.3-0.5-0.3c-0.4,0.1-0.8,0.3-1.1,0.5c-0.2,0.1-0.5,0.3-0.5,0.3c0,0.1-0.2-0.5-0.1-0.6
			c0.2,0,0.4,0,0.6-0.1c0.5-0.2,1-0.4,1.5-0.6c0.3-0.1,0.4-0.1,0.3-0.3c0-0.1-0.1-0.4,0-0.5c0.1-0.2,0.1-0.2,0-0.3
			c-0.2-0.2-0.8,0-1.5,0.4c-0.2,0.1-0.4,0.2-0.5,0.3c0.1-0.2,0-0.3,0-0.5c0.3,0,0.6-0.1,0.8-0.2c0.2-0.1,0.4-0.2,1-0.3
			c0.2,0,0.1-0.6-0.1-0.8c-0.2-0.2-0.5-0.2-0.9,0c-0.4,0.1-0.8,0.2-1.1,0.6c-0.3,0.3,0-0.5,0.6-0.8c0.3,0,0.8-0.1,1-0.2
			c0.2-0.1,0.3-0.6-0.1-0.8c-0.2-0.2,0.8-0.2,0.7-0.1l0.1,0.3c0.4,0.1,0.4,0.5,0.5,0.6c0.5,0.8,0.7,0.3,1,0c-0.1,1.7,0.5,1.9,0.6,2
			c-0.8,1.6-0.2,1.6,0.6,1.9c0,0-0.3,0.1-0.5,0.1c-0.3,0-0.9,0.3-1.2,0.6c-0.1,0.1-0.1,0-0.7,0c-0.5,0-0.6,0-0.8,0.1
			c-0.5,0.2-0.5,0.4,0,0.3c0.5-0.1,1,0.2,1.1,0.6l0,0.2c-0.1,0-0.3,0-0.3,0C13.6,57.6,13.5,57.5,13.5,57.3L13.5,57.3z M14.2,55.2
			c0.1-0.1,0.2-0.3,0-0.4c-0.1-0.1-0.6,0-0.7,0.1C13.2,55.1,13.8,55.5,14.2,55.2L14.2,55.2z M14.5,54.2c0.2-0.1,0.2-0.4,0-0.6
			c-0.2-0.3-0.9-0.1-0.9,0.3C13.6,54.2,14.1,54.5,14.5,54.2z M14.3,52.8c0-0.3-0.3-0.6-0.6-0.4C13.3,52.6,13.5,53,14,53
			C14.3,52.9,14.3,52.9,14.3,52.8z M13.1,51.4c-0.2,0.1-0.2,0.3,0,0.4C13.8,52.2,13.6,51.2,13.1,51.4z M60.8,53.4
			c-0.3-1.1-1.1,0-1.1,0c0-1.1,0.2-1.6-0.7-2c0.9-1.3,0.7-1.5-0.2-2c0.1,0,1.2-0.2,1.4-0.9c0,0,1.8,0.5,2-0.5
			c-0.5,0.2-1.5,0.3-1.5-0.7c0.1,0,0.3,0,0.3,0.1c-0.1,0.6,1,0.8,1.2,0.3c0,0,0.4,0.3,0.6,0.3c0,0-0.5,0.8-1,0.9
			c-0.9,0.3-1.2,0.4-1.2,0.6c0,0.1,0.1,0.1,0.4,0.1c0.6,0,0.6,0.2,0.6,0.3c0.1,0.2,0.1,0.2,0.3,0.2c0.6-0.2,1-0.3,1.4-0.8l0.2,0.5
			c0-0.1-0.5,0.1-1.2,0.5c-0.6,0.3-0.8,0.4-0.9,0.5c-0.1,0.1,0.1,0.3,0.1,0.5c0,0.2-0.1,0.3,0,0.4c0.1,0.1,0.3,0.1,0.5,0
			c0.5-0.1,0.9-0.3,1.3-0.6c-0.1,0.2,0.1,0.6,0.1,0.6s-0.2-0.2-0.4-0.1C62.5,51.8,62,52,61.8,52c-0.1,0-0.2,0.1-0.3,0.1
			c-0.1,0.1-0.1,0.2-0.1,0.4c0,0.2,0,0.3,0.1,0.3c0.2,0.1,0.6,0,1.1-0.1c0.2-0.1,0.6-0.3,0.6-0.3l-0.1,0.6c-0.2-0.2-0.6,0-0.9,0.1
			c-0.2,0.1-0.2,0.2-0.2,0.3c-0.1,0.2,0.1,0.4,0.3,0.5c0.1,0.1,0.3,0,0.3,0c-0.8,0.3-0.7,0.4-1.1,0.2C61.1,53.9,60.9,53.7,60.8,53.4
			L60.8,53.4z M61.6,53.4c-0.1-0.2-0.4-0.2-0.5-0.2c-0.1,0.1-0.1,0.2,0,0.3C61.2,53.8,61.9,53.7,61.6,53.4z M61.2,52.6
			c0.2-0.3,0-0.6-0.4-0.6c-0.2,0-0.4,0.2-0.4,0.3C60.4,52.7,61,52.8,61.2,52.6L61.2,52.6z M60.8,51.7c0.4-0.1,0.5-0.4,0.2-0.7
			c-0.2-0.2-0.7-0.2-0.9,0C59.8,51.3,60.2,51.8,60.8,51.7z M61.1,50.4c0.2-0.1,0.2-0.3,0.1-0.5c-0.3-0.3-0.9-0.1-0.7,0.4
			C60.5,50.5,60.8,50.5,61.1,50.4z M18.6,40.8c0.3-0.1,0.5-0.4,0.9-0.5c0.2-0.1,0.2-0.1-0.1-0.3c-0.2-0.1-0.7-0.6-0.7-0.4
			C18.5,39.8,18.5,40.8,18.6,40.8z M26.4,51.9c0-0.2,0-0.5,0-0.8c0-0.5,0-0.3-0.3-0.2c-0.2,0.1-0.5,0.3-0.6,0.4
			c-0.4,0.2-0.4,0.2,0.2,0.5C26.4,52.1,26.4,52.1,26.4,51.9L26.4,51.9z M25.8,50.9c0.4-0.3,0.6-0.4,0.6-0.7c0-0.4,0-0.5-0.3-0.2
			c-1,0.8-2.1-0.8-1.2-1.7c0.2-0.2,0.4-0.5,0.4-0.5c0-0.5-0.6,0-1.1,0.7c-0.5,0.7-0.9,1.5-0.4,2.3C24.3,51.2,25.1,51.3,25.8,50.9
			L25.8,50.9z M23.4,49.8c0-0.3,0.1-0.5,0.1-0.6c0.1-0.3,0.1-0.3-0.4-0.1c-0.2,0.1-0.5,0.1-0.6,0.1c-0.4,0-0.3,0.1,0.3,0.7
			C23.5,50.4,23.5,50.5,23.4,49.8L23.4,49.8z M24.9,47.3c0.1-0.2-0.1-0.2-0.2-0.2c0,0-0.2,0.2-0.5,0.4c-0.8,0.6-1.4,0.7-1.8,0.2
			c-0.4-0.5-0.2-1.1,0.7-1.8c0.4-0.3,0.5-0.3,0.3-0.4c-0.1-0.1-0.2-0.1-0.7,0.3c-1.2,0.8-1.5,1.3-1.4,2.1c0,0.3,0.2,0.5,0.4,0.6
			C22.7,49.6,24.3,48.2,24.9,47.3z M26.1,47.8L26,46.7c-1.2-1-2.3-2.8-2.7-4.2c-0.4-1.3-0.1-4,0-3.8l-0.6-1.2
			c-0.6,1.3-0.8,3.3-0.2,5.3C23,44.4,24,46.5,26.1,47.8L26.1,47.8z M21.1,47.1c0.4-0.7,0.4-0.7-0.3-0.7c-0.8,0-0.7-0.1-0.3,0.6
			C20.9,47.6,20.8,47.7,21.1,47.1z M21.6,46.1c0.5-0.2,0.4-0.1,1-0.5c0.7-0.5,0.8-0.7,0-0.4c-0.9,0.5-1.8,0.4-2.1-0.3
			c-0.3-0.5,0.3-1.2,1.2-1.5c0.3-0.1,0.5-0.2,0.5-0.3c0-0.4-1.6,0.1-2.3,0.8C18.8,45.2,19.9,46.7,21.6,46.1L21.6,46.1z M19.5,44.2
			c0-0.1,0.2-0.2,0.3-0.4c0.5-0.5,0.1-0.4-0.3-0.5c-0.2-0.1-0.4-0.2-0.6-0.1c-0.2,0,0.1,0.5,0.2,0.8C19.3,44.6,19.3,44.6,19.5,44.2z
			 M21.2,43c0.8-0.1,0.9-0.2,0.9-0.3c0-0.2-0.1-0.1-0.5-0.1c-1.1,0.1-1.8-0.1-1.9-0.7c-0.2-0.6,0.6-1.2,1.5-1.1
			c0.5,0,0.9-0.2,0.6-0.3c-0.2-0.1-1.6-0.1-1.9,0c-1,0.3-1.4,0.8-1.3,1.6c0.1,0.9,0.6,1.2,1.8,1.1C20.7,43.1,21,43,21.2,43z
			 M21.9,40c0-0.1-0.2-0.2-1-0.3c-1-0.2-1.5-1.1-0.9-1.7c0.2-0.2,0.8-0.3,1.1-0.3c0.7,0.1,1.1,0.3,1.1,0c0-0.2-0.2-0.2-1.4-0.5
			c-1.9-0.4-2.9,1.5-1.4,2.4C19.9,40.1,21.9,40.3,21.9,40L21.9,40z M22.3,37.3c0-0.1-0.1-0.1-0.2-0.2c-0.2-0.1-0.3-0.1-0.8-0.4
			c-0.6-0.4-0.8-1.3-0.4-1.7c0.4-0.4-0.3-0.9-0.9-0.5c-0.6,0.5-0.6,1.3,0.1,1.9C20.8,37,22.3,37.6,22.3,37.3z M19.3,37.2
			c0.7-0.3,1.1-0.1,0.6-0.6c-0.3-0.3-0.5-1-0.7-0.4c-0.2,0.4-0.3,1-0.3,1.1C19,37.4,18.9,37.3,19.3,37.2z M42.6,35.6
			c-0.8-0.2-1.3-1.1-1.1-1.9c0.1-0.5,0.6-1.6,0.6-1.7c0.3-0.3,0.3,0.1,0,0.7c-0.3,0.6-0.5,1.1-0.4,1.5c0.1,0.5,0.3,0.9,0.9,1.1
			c0.4,0.1,0.7-0.1,1-0.2c0.3-0.2,0.6-0.8,1-1.6c0.1-0.2,0.3-0.9,0.5-0.5c0.1,0.2-0.7,1.7-1,2.1C43.7,35.4,43.1,35.7,42.6,35.6z
			 M47.1,35.1c0.4,0.4,1,0.5,1.4,0.4c1-0.4,1.4-1.3,1.1-2.8c-0.2-0.8-0.4-1.4-0.5-1.5c-0.1-0.1-0.2,0-0.2,0.2
			c-0.1,0.1,0,0.3,0.1,0.7c0.5,1.7,0.3,2.4-0.2,2.8c-0.8,0.5-1.6-0.1-1.8-1.3c0-0.2-0.2-0.6-0.2-0.6c-0.1-0.2-0.6-0.1-0.4,0.4
			C46.4,33.8,46.8,34.8,47.1,35.1z M51.3,30.7c0-0.6-1.2-3.2-1.3-2.9c0,0,0,0.6,0,0.8c0,0.1,0.1,0.2,0.1,0.3c1.1,1.9,0.9,3.3,0,3.6
			c-0.3,0.1-0.4,0.3-0.2,0.4c0.3,0.3,1-0.3,1.1-0.5C51.4,31.9,51.4,31,51.3,30.7z M33.4,30.2c0.4-0.5,1.3-2,1.6-2.8
			c0.8-2.5,1.7-5.3,2-7.9c0-0.3,0-0.8,0.1-0.9c-0.1-0.1-0.5,0-0.6,0c-0.1,0.1,0,0.3,0,0.5c-0.4,2.9-1.1,5.6-2.1,8.3
			c-0.5,1.2-0.9,2-1.4,2.8c-0.1,0.1-0.2,0.3-0.3,0.4c-0.1,0.2,0,0.3,0.1,0.2C32.9,30.8,33.2,30.5,33.4,30.2L33.4,30.2z M32,31
			c1.3-1.8,2.2-3.9,2.9-6.5c0.5-1.6,0.8-3.3,1.1-5c0-0.4,0.1-0.6,0-0.7c-0.2,0-0.5,0-0.6,0.1c-0.1,0.1,0,0.3-0.1,0.8
			c-0.2,1.3-0.4,2.5-0.8,4.2c-1.1,3.7-2.1,5.7-3.4,7.5c-0.1,0.2-0.2,0.2-0.2,0.3c0,0.1,0.1,0.1,0.4,0C31.5,31.4,31.8,31.2,32,31
			L32,31z M30,31.9c0.6-0.4,1.7-1.9,2.5-3.6c0.9-2,1.6-4.3,2.1-6.2c0.2-0.9,0.5-3,0.5-3.1c-0.1-0.2-0.7,0-0.6,0.1
			c0,0-0.6,3.4-1.3,5.3c-1.2,3.5-2.3,5.9-3.4,7c-0.1,0.2-0.4,0.4-0.4,0.4s0,0.1,0.1,0.2C29.7,32,29.9,32,30,31.9L30,31.9z M29,31.8
			c1.4-0.8,3.1-4.6,4.5-9.3c0.2-0.8,0.7-3.5,0.7-3.5s-0.6,0-0.7,0.1c-0.1,0.2-0.1,0.6-0.3,1.6c-0.6,3-1.5,5.7-2.9,8.4
			c-0.6,1.2-1.6,2.3-2.2,2.6c-0.4,0.2-0.5,0.4-0.2,0.4c0.4,0,0.5,0.1,0.8-0.1L29,31.8z M48.6,73.7c-1.1,0-2,1-2.8,2.3
			c-1.7,2.7-2.9,7.1-3.2,9.5l0.6-0.1c-0.1,0,1.2-6.3,3.2-9c1.1-1.7,1-1.7,1.6-1.9c0.8-0.2,1.4,0.6,1,1.1c-0.1,0.2-0.3,0-0.2-0.2
			c0.1-0.8-1-0.9-1.3-0.2c-0.4,0.9,0.6,1.7,1.5,1.3c0.8-0.3,1.2-1.5,0.6-2.3C49.4,73.9,49,73.7,48.6,73.7z M43,73.6
			c-1.3,1.6-1.9,3.3-2.7,5.6c-0.8,2.3-1.3,4.5-1.6,7l0.7-0.1c0-1.6,1.8-9.4,4.3-12.4c0.1-0.2,0.3-0.3,0.2-0.4
			C43.7,73,43.1,73.4,43,73.6z M45.8,73c-1.7,1.4-3,4.4-3.9,7.1c-0.9,3-1.4,5.7-1.3,5.7l0.7-0.1c0-0.2,1.9-10.7,5.4-12.6
			c0.3-0.2,0.4-0.3,0.1-0.4C46.4,72.7,46.1,72.8,45.8,73z M47.6,73c-3.6,0.5-6,11.7-6.1,12.6l0,0.1l0.7-0.1l0-0.1
			c0.5-2.9,1-4.9,2.1-7.5c0.9-1.9,2.1-4.4,3.9-4.6c0.1,0,0.3,0,0.2-0.1C48.4,73,47.9,73,47.6,73L47.6,73z M26,69.5
			c-1.3,0.3-1.4,1.9-0.5,3.9c0.1,0.2,0.1,0.2,0.1,0.3c0.1,0.1,0.3-0.1,0.3-0.2c0-0.2-0.1-0.4-0.2-0.8c-0.5-1.4-0.4-2.2,0.1-2.6
			c1.4-0.7,1.7,0.7,1.9,1.4c0.1,0.2,0.1,0.4,0.2,0.4c0.3,0,0.4-0.1,0.4-0.1c0,0-0.4-1.3-0.6-1.7C27.5,69.5,26.6,69.3,26,69.5
			L26,69.5z M16.5,71l0,16.7L14,90c-1.1-0.9-2.5-2.4-2.5-2.4l0-28.2l-0.8-0.1c-0.2,12.1,0,24.5,0,36.6h7.4l6.1-9.7l0.1-0.2
			c0.1-0.2,0.1-0.5,0-1.5c0-0.4,0-0.7,0-0.8c-0.1-0.1-0.2,0-0.3,0c-0.1,0.1-0.2,0-0.1-0.1c0-0.1,0.2-0.3,0.3-0.4
			c0.3-0.6,0.4-0.8,0.3-1.4c0-0.2-0.2-0.3-0.3-0.5c-1-1.5-1.5-3.8-0.9-5.5c0.2-0.7,0.1-0.9-0.2-1.5L16.5,71z M49,53
			c-0.7-0.3-0.7-0.3-0.7,0.3c0,0.5,0,0.6,0.2,0.5c0.3-0.1,0.6-0.3,0.8-0.4C49.8,53.4,49.2,53.2,49,53z M51.7,54.8
			c-0.5-0.4-0.3-0.4-0.5,0.6c-0.1,0.6-0.2,0.6,0.4,0.4c0.3-0.1,1,0,0.7-0.4C52.3,55.3,51.8,54.8,51.7,54.8z M30.6,69.3
			c-0.8,0.5-1.6,2.9-1.6,2.9c-2.8,0.3-4,3.1-4.1,5.4c-0.1,1.8-0.2,4,0,4.2c1.8-0.8,2.5,0.1,2.7-0.1c0.1-0.1-0.4-0.5-1-0.8
			c-0.1-0.1-0.4-0.2-0.4-0.3c-0.2-0.2,0.4,0,0.9,0.3c0.5,0.4,0.6,0.3,0.4-0.8c-0.3-1.2-0.3-1.3,0.6-1.8c0.4-0.2,0.6-0.3,0.8-0.6
			c0.2-0.2,0.3-0.3,0.2,0.1c-0.1,0.6-0.7,0.8-1.1,1.1c-0.2,0.1-0.3,0.4-0.3,0.6c0,0.2,0.2,1.4,0.4,1.7c0.1,0.3,0.1,0.7,0.2,1.1
			c0.2,0.9,0.2,1.1,0.1,1.8c-0.1,0.4-0.1,0.6-0.1,0.9c0,0.2,0,0.5,0,0.5c0,0-0.5-0.5-1.6-0.1c-0.8,0.3-1.4,0-1.9-0.2
			c-0.1,0.4-0.1,0.8-0.1,1.2c4.6,0.8,8.5,0.7,11.7,0.4c0.1-1,0.5-4.1,1.4-6.9c0.4-1.2,0.8-2.4,1.2-3.2c0.3-0.6,0.6-0.9,0.7-1l0,0
			v-0.1c0-0.2-0.1-0.5-0.2-0.6c-0.4-0.3-1,0.1-1.2,0.8c-0.2,0.4-1,2.2-1,2.1c0,0-0.2,0-0.1-0.2c0.3-0.7,0.7-1.5,1-2.1
			c0.3-0.9,1-1.4,1.6-0.8c0.2,0.2,0.3,0.4,0.3,0.4l0.2-0.1c0.2-0.3-0.3-1-0.8-1.1c-0.7-0.2-1.2,0.3-2.1,2c-0.5,1-0.6,1.2-0.6,1.2
			c0,0-0.1,0-0.1-0.2c0.1-0.4,0.7-1.6,1.2-2.4c0.7-1.1,1.9-1.2,2.4-0.2c0.1,0.1,0.1,0.3,0.2,0.4c0.2,0.2,0.4,0.2,0.5-0.2
			c-0.1-0.2-0.5-1-0.8-1.2c-0.7-0.5-1.5-0.4-2.2,0.3c-0.2,0.1-0.3,0.4-0.8,1.4c-0.7,1.5-0.7,1.6-0.9,1.3c0.3-0.8,1-2,1.3-2.7
			c0.1-0.1,0.1-0.2,0.1-0.3c0-0.5,0.1-1.5-1.1-2.2c-1-0.5-2.3,0-2.7,1.1c-0.3,0.8-0.6,1.3-0.8,1.5c-0.2,0.2-0.2-0.1-0.2-0.1
			c0.3-0.7,0.8-1.5,0.9-2.2C33.9,69.1,31.9,68.3,30.6,69.3L30.6,69.3z M20.4,32.4c1.5-0.7,2.6-1.1,4.2-1.6c0.2-0.1,0.2-0.1,0-0.6
			c-1-2,1.7-3.6,2.7-1.6c0.1,0.3,0.2,0.4,0.3,0.3c0.2-0.3,0.5-0.7,0.8-1.2c1-1.6,1.5-3.5,2.1-5.2c0.2-1,0.6-2,0.6-3
			C29,15.9,25.3,9.2,25.3,9.2H10.8v29.3C14.8,35,17.6,33.8,20.4,32.4L20.4,32.4z M36.8,31.3c0.2-0.2,0.3-0.5,1-1.8
			c0.1-0.2,0.3-0.6,0.4-0.8c0.1-0.3,0.4-0.5,0.3,0.1c0,0.1-0.1,0.3-0.2,0.5c-0.2,0.4-0.4,0.8-0.6,1.2c-0.8,1.6-0.8,2.6,0.1,3.3
			c0.7,0.7,2.1,0.7,2.8-0.3c0.1-0.2,0.2-0.4,0.2-0.5c0.3-0.8,0.6-1.2,0.6-1.3c0.3-0.4,0.4,0.1-0.1,0.9c-0.6,0.9-0.6,2-0.1,2.7
			c0.7,1.1,2.1,1.1,3,0.2c0.5-0.5,0.8-1.2,1.1-2.1c0.1-0.2,0.1-0.3,0.2-0.5c0.1-0.2,0.2-0.2,0.5-0.3c1.9-0.4,3.4-2.3,3.7-4.4
			c0-0.3,0.1-0.8,0.1-1.1c0.1-0.6,0.1-3.7,0-3.9c0-0.1-0.1-0.2-0.2-0.2c-0.1,0-0.2,0-0.4,0.1c-0.6,0.2-0.9,0.3-1.5,0.1
			c-0.2-0.1-0.3-0.1-0.4-0.1c-0.3,0,0.1,0.4,0.8,0.8c0.3,0.2,0.6,0.4,0.3,0.4c-0.1,0-1-0.5-1.1-0.6c-0.4-0.3-0.3,0.1-0.1,0.9
			c0.3,1.2,0.1,1.5-0.8,1.9c-0.2,0.1-0.4,0.3-0.5,0.4c-0.5,0.7-0.4,0.2-0.1-0.2c0.4-0.4,0.2-0.6-0.7-0.3c-1,0.3-1.4,0.1-1.7-0.4
			c-0.3-0.6,0.3-1.4,0.7-1.4c0.2,0,0.1,0.1-0.1,0.2c-0.3,0.2-0.4,0.4-0.4,0.7c-0.1,0.7,0.4,0.9,1.1,0.5c0.3-0.2,0.6-0.4,0.8-0.4
			c0.2-0.1,0.6,0,0.6,0.2l0,0.3c0.1,0.2,0.4-0.1,0.5-0.2c0.5-0.4,0.5-0.4,0.3-1c-0.2-0.8-0.3-1.6-0.5-2.5c-0.1-0.4-0.1-1-0.1-1.4
			c0-0.2,0.1-0.7,0.1-1c0-0.3,0-0.8,0-0.8c0.5,0.4,0.7,0.4,1.2,0.3c0.7-0.3,1.2-0.3,1.8,0c0.2,0.1,0.4,0.2,0.4,0.2l0-1
			c0,0-0.6-0.1-1.6-0.3c-3.2-0.4-9.8-0.5-10-0.1c-0.1,0.1-0.1,0.8-0.3,1.8c-0.4,2-0.8,4-1.4,5.9c-0.1,0.4-0.2,0.6-0.2,0.6l0.2-0.2
			c0.3-0.4,0.1,0.5-0.4,1.5c0,0.1-0.1,0.2-0.1,0.2c0,0.1-0.3,0.8-0.5,1.2c-0.1,0.3-0.2,0.4-0.2,0.2c0.1-0.6,0.5-1.4,0.6-1.9
			c-0.3,0.5-0.8,1.3-1.2,1.8c-0.1,0.1,0,0.2,0.1,0.3c0.2,0.6,0.7,0.6,1.1,0.1c0.2-0.3,0.7-1.4,0.9-1.9c0.2-0.5,0.3-0.8,0.4-0.8
			c0.1-0.1,0.2,0.2-0.1,0.7c-0.7,1.5-1,2.3-1.3,2.6c-0.3,0.2-0.7,0.2-1-0.2c-0.4-0.7-0.8-0.5-0.4,0.3c0.4,0.7,1.3,0.8,1.8,0.1
			c0.2-0.2,0.9-1.7,1.1-2.2c0.1-0.3,0.3-0.6,0.3-0.6c0.2-0.1,0,0.6-0.8,2.1c-0.2,0.6-0.6,1.2-1.1,1.4c-1.2,0.3-1.4-0.4-1.8-1.1
			c-0.2-0.2-0.4,0.1-0.3,0.4c0.1,0.5,0.4,0.7,0.7,1C35.3,32.2,36.4,31.9,36.8,31.3L36.8,31.3z M42.3,34.4c-0.1-0.2-0.1-0.5,0-0.7
			c0.1-0.5,0.3-1,0.6-1.5c0.4-0.2,0.1,0.6,0,0.7c-0.5,1-0.5,1.4-0.1,1.5c0.4,0.1,0.6-0.1,1-1.1c0.2-0.5,0.3-0.7,0.3-0.7
			c0.1-0.1,0.2,0,0.2,0.1c-0.2,0.6-0.4,1.2-0.8,1.7C43.1,34.9,42.5,34.9,42.3,34.4L42.3,34.4z M38.6,33.6c-0.2,0-0.5-0.3-0.7-0.4
			c-0.7-0.6-0.6-1.5,0.3-3.2c0.1-0.1,0.3-0.6,0.4-0.8c0.1-0.3,0.3-0.2,0.3,0c0,0.1-0.2,0.5-0.4,0.9c-0.9,1.9-0.9,2.6,0,3.1
			c0.9,0.4,1.3,0.2,2-1.2c0.4-1.1,0.6-1.1,0.6-0.7c0,0.2-0.5,1.2-0.8,1.6C39.8,33.7,39.4,33.8,38.6,33.6L38.6,33.6z M38.7,32.7
			c-0.4-0.2-0.5-0.8-0.3-1.2c0.2-0.4,0.7-1.8,0.9-1.9c0.4,0,0.2,0.3-0.3,1.2c-0.5,1.1-0.5,1.5-0.1,1.6c0.4,0.2,0.6-0.2,1.1-1.5
			c0.1-0.2,0.2-0.4,0.3-0.4c0.1,0,0.2,0.1-0.1,0.7c-0.1,0.1-0.2,0.5-0.3,0.7C39.6,32.8,39.1,33,38.7,32.7L38.7,32.7z M45,30.3
			c-0.2-0.1-0.9-0.4-0.8-0.6l0.1,0c0.7,0.4,1.5,0.6,2.3-0.1c0.1-0.1,0.3,0,0.2,0.1C46.6,30.3,45.4,30.5,45,30.3z M42.9,29.5
			c0,0,0.1-0.2,0.1-0.4c0.1-0.3,0.1-0.5,0.1-0.5c0.3,0.2,0.8,0.2,1.1,0c0.3-0.2,0.9-0.2,1.1-0.1c0.3,0.2,0.5,0.1,0.7-0.1
			c0.2-0.2,0.2-0.1,0.7,0c0.3,0.1,0.4,0.2,0.6,0.2l0.2-0.1c0.1,0,0.1,0.3,0.2,0.7c0.1,0.3,0,0.4-0.2,0.2c-0.2-0.1-0.8-0.2-1.4,0
			c-0.4,0.1-0.5,0.1-0.9,0c-0.8-0.1-1.4-0.2-2,0.1C42.9,29.8,42.8,29.9,42.9,29.5L42.9,29.5z M40.9,28.1c-0.4-0.8,0.5-1.8,1.3-1.5
			c0.3,0.1,0.5,0.6,0.1,0.4c-1.8-0.4-1.3,2.3,0.6,0.9c1.3-0.9,2.2-1,2.3-0.2c0,0.3-0.3,0.3-0.5,0.3c-0.5,0.1-0.7,0.2-1.3,0.4
			C42.3,28.7,41.4,28.9,40.9,28.1L40.9,28.1z M47.9,28.4c-0.4-0.1-0.8-0.3-1.3-0.4c-0.5-0.1-0.7-0.3-0.6-0.6
			c0.1-0.3,0.5-0.4,1.2,0.1c0.8,0.5,1.3,0.6,1.6,0.4c0.6-0.4,0.3-0.9-0.3-1.1c-0.4-0.1-0.1-0.3,0.3-0.1c0.7,0.3,0.7,1.5,0,1.8
			C48.7,28.5,48.2,28.5,47.9,28.4z M41.8,24.2c0.5-0.3,1-0.6,1.2-0.8c0.1-0.1,0.3-0.4,0.1-0.3c-1,0.6-2.2,0.1-3.1-0.3
			c-0.4-0.2-0.3-0.1-0.6-0.1c-0.2,0-0.4,0.1-0.4-0.1l-0.2,0c-0.3,0-0.1-0.5,0.6-0.9c0.8-0.6,1.5-0.9,2.2-1.1c0.7-0.2,1.5-0.1,2,0.5
			c0.2,0.2,0.2,0.3,0.4,0.2c0.4-0.3,0.4,0.1,0.1,0.4c-0.3,0.2-0.2,0.3,0.1,0.5c0.1,0.1,0,0.2-0.1,0.4c0,0.1,0,0.2,0,0.3
			c-0.1,0.3-1.6,1.5-2.1,1.7C41.4,24.6,41.6,24.3,41.8,24.2L41.8,24.2z M42.8,22l-0.3,0c-0.3,0.9-0.8,1.2-1.3,0.1l-0.2,0
			C41.1,23.1,42.7,23.7,42.8,22z M41.2,22.9c-0.1-0.2-0.2-0.6-0.3-0.6c-0.3,0-0.7,0-0.6,0.2C40.4,22.8,41.3,23.1,41.2,22.9z
			 M43.2,22.7c0.3-0.2,0.3-0.3,0.2-0.5c-0.2-0.2-0.4-0.1-0.4,0.3C42.9,22.8,42.9,22.9,43.2,22.7z M39.5,22.1
			c1.8-0.8,2.5-0.9,3.3-0.7c0.2,0,0.3,0.1,0.4,0.1c0.4,0,0.1-0.4-0.5-0.7c-0.7-0.3-1.2-0.1-2.6,0.6C39.3,21.9,38.6,22.5,39.5,22.1
			L39.5,22.1z M44.8,21.1c0-0.1-0.1-0.4-0.2-0.5c0-0.1-0.1-0.2-0.1-0.2c-0.9,0.1-1.6,0-1.8-0.1c-1.3-0.3-2.5-0.2-3.5,0.1
			c-0.2,0.1-0.5,0.2-0.5,0.3l-0.2-0.1c0-0.1,0.6-0.6,0.9-0.7c1.1-0.5,2.2-0.6,3.5-0.3c0.8,0.3,1.4,0.3,1.9,0c0.3-0.1,0.1,0.2,0,0.5
			c-0.1,0.3,0,0.5,0,0.6C44.9,21.1,44.9,21.2,44.8,21.1L44.8,21.1z M64,96V66.6c-7.3,5.1-10.5,6.1-14,7.3c1.2,2.4-1.4,4.4-2.8,2
			c-1.5,1.7-3.6,7.6-3.6,9.6c0,0,4,6.9,5.9,10.4H64z M37.4,86.4c0.1-1.5,0.4-4,1.4-6.9c0.4-1.2,0.9-2.6,1.6-3.9
			c0.3-0.4,0.3-0.6,0-0.5c-0.2,0.1-1,1.1-1.2,1.3c-1.3,2.8-1.9,6.1-2.4,8.7c-0.1,0.6-0.1,1.3-0.1,1.3L37.4,86.4z M38.4,86.2
			c0.3-3.6,1.6-8.4,3.6-11.6c0.2-0.3,0.4-0.6,0.4-0.7c0-0.3-0.8,0.2-1.4,1.1c-0.7,1.3-1.3,2.7-1.8,4.3c-0.7,2.2-1.2,4.2-1.4,6.9
			L38.4,86.2z M40.3,85.9c0.2-2.1,0.8-4,1.4-5.9c0.7-2.3,1.5-4,2.5-5.6c0.3-0.5,0.7-1,1.1-1.4l0.1-0.2c-0.2,0-0.4,0-0.6,0.1
			c-0.3,0.1-0.6,0.5-0.8,0.8c-1.4,1.9-2.2,4-2.9,6.2c-0.7,2.1-1.2,4.1-1.3,6L40.3,85.9z M27.3,84.4c0.3,0,0.5,0,0.6,0
			c0.1-0.1,0.1-0.3,0.1-0.6c0.1-0.6,0-0.5-0.4-0.2c-0.6,0.6-1.6,0.8-2.3,0.5c-0.3-0.2-0.5-0.3-0.6-0.2c0,0.2,0,0.3,0.1,0.4
			C25.6,84.7,26.4,84.4,27.3,84.4z M26.6,83.9c0.4-0.1,0.8-0.4,1-0.7c0.2-0.3,0.2-0.4,0-0.3c-0.8,0.4-1.4,0.6-2.1,0.5
			c-1-0.2-1,0-0.4,0.4C25.7,84.1,26,84.1,26.6,83.9z M25.1,82.6c0.2-0.1,0.2-0.6,0.1-0.6c-0.1,0-0.3,0.2-0.4,0.4
			C24.8,82.7,25,82.7,25.1,82.6L25.1,82.6z M26.7,82.6l0.3,0c-0.1-1.2-1.4-1.2-1.6,0.1l0.2,0C25.8,81.7,26.5,81.7,26.7,82.6
			L26.7,82.6z M27.5,82.4c0.4-0.2,0.3-0.5-0.3-0.6c-0.3-0.1-0.3,0.2-0.1,0.6C27.2,82.6,27.2,82.6,27.5,82.4L27.5,82.4z M24.5,81
			c0-0.1-0.1-0.3-0.1-0.5c-0.4-0.9-0.7-2-0.6-3.3c0-1,0-1.3-0.2-1.3c-0.3,0.1-0.4,1.9-0.1,3.4C23.8,80.4,24.6,81.7,24.5,81z
			 M24.5,79.5c0-0.5,0.1-1.6,0-1.9c-0.1-0.3-0.3-0.6-0.4-0.7C24,76.9,24,77.1,24,77.7C24.2,79.1,24.4,80.2,24.5,79.5L24.5,79.5z
			 M24.7,77c0.1-0.2,0.1-0.4-0.2-0.9c-1-1.9-1.1-3.2-0.1-3.6c0.1-0.1,0.2-0.1,0.3-0.1c0.3-0.2,0.2-0.5-0.3-0.4
			c-1.3,0.4-1.5,1.6-0.5,3.8C24.5,77,24.6,77.1,24.7,77L24.7,77z M24.9,75.9l0.1-0.4c0-0.1-0.1-0.2-0.3-0.6c-0.4-0.9-0.4-1.3,0-1.6
			c0.1-0.1,0.3-0.1,0.3-0.2c0-0.1,0-0.4-0.1-0.4c-0.6,0-0.8,0.3-0.9,0.7c-0.2,0.5,0,1.2,0.5,2.2C24.7,75.8,24.8,76.3,24.9,75.9
			L24.9,75.9z M25.3,74.7c0.3-0.6,0-1.4-0.4-1.2c-0.3,0.2-0.3,0.4-0.1,0.9C25,75,25.1,75.1,25.3,74.7z M26.4,73c0.1-0.1,0-0.3-0.2-1
			c-0.2-0.6-0.1-1,0.3-1.1c0.5-0.1,0.7,0.7,0.8,1.1c0.1,0.3,0.2,0.4,0.4,0.2c0-0.1,0.1-0.1,0-0.4c-0.3-1.4-0.8-1.8-1.5-1.4
			c-0.7,0.3-0.6,1-0.1,2.5c0.1,0.2,0.1,0.3,0.2,0.4L26.4,73z M27,72.6c0.2-0.2,0.1-0.1,0-0.7c-0.2-0.6-0.3-0.8-0.5-0.6
			c-0.1,0.1-0.1,0.3,0.1,0.8C26.7,72.8,26.8,72.8,27,72.6L27,72.6z M54.6,70.4c1.1-0.7,0.6-2-0.8-2.5c-0.2-0.1-0.3-0.1-0.4-0.2
			c-0.6-0.3-1.1-0.4-1.1-0.2c0,0.1,0.2,0.2,0.8,0.5c0.9,0.4,1.1,1,0.7,1.6C53.5,70.1,54.1,70.6,54.6,70.4z M55.6,68.8
			c0.1-0.4,0.2-0.7,0.3-0.9c0.1-0.3,0-0.3-0.3-0.2c-0.6,0.3-1,0.1-0.7,0.6C55.2,68.7,55.5,69.2,55.6,68.8z M55.5,67.4
			c0.7-0.4,0.9-1.6,0.2-2.1c-0.2-0.1-0.4-0.3-0.8-0.4c-0.7-0.2-1.7-0.3-2-0.2c-0.1,0.1-0.1,0.2,0,0.3c0.1,0,0.3,0.1,0.5,0.1
			c1,0.1,1.5,0.4,1.5,1.1c0,0.7-0.6,1-1.7,0.8c-0.6-0.1-0.8-0.1-0.6,0.1c0.3,0.2,0.9,0.4,1.4,0.5C54.5,67.7,55.1,67.7,55.5,67.4
			L55.5,67.4z M52,67.3c0.8-1.8,1.2-6.7-3.4-10.1l0.2,1c2.7,2.4,3.4,5.5,2.8,8.3L52,67.3z M56.2,64c-0.3,0.2-0.5,0.4-0.9,0.6
			c-0.2,0.1-0.2,0.1,0.1,0.3c0.1,0.1,0.4,0.2,0.5,0.3c0.2,0.2,0.4,0.2,0.4,0.2C56.2,65,56.3,64.1,56.2,64z M54.8,64.3
			c0.9-0.3,1.4-0.8,1.3-1.5c-0.2-1.1-1.1-1.4-2.8-0.9c-0.8,0.2-0.9,0.6-0.1,0.4c1-0.3,1.8,0.1,1.7,0.9c-0.1,0.6-0.6,1-1.5,1
			c-0.5,0-0.6,0-0.6,0.2C52.9,64.5,54.4,64.4,54.8,64.3z M53.3,61.7c1.5-0.5,2.3-1.4,1.9-2.3c-0.4-1.1-1.8-1.1-3.1-0.1
			c-0.6,0.5-0.5,0.6,0.1,0.4c0.8-0.4,1.3-0.4,1.6-0.1c0.6,0.5,0.2,1.4-0.7,1.8c-0.4,0.2-0.6,0.3-0.6,0.4
			C52.5,61.9,52.6,61.9,53.3,61.7z M55.8,61.6c0-0.3-0.3-1.4-0.5-1.2c0,0.1-0.2,0.4-0.4,0.5c-0.5,0.5-0.4,0.3,0.1,0.4
			C55.4,61.5,55.8,61.7,55.8,61.6z M51.8,59.3c1.6-0.9,2.1-2.2,1.3-3.1c-0.7-0.8-1.9-0.3-3,1.1c-0.5,0.6-0.1,0.6,0.6,0
			c0.8-0.7,1.8-0.4,1.8,0.5c0,0.4-0.5,1-1,1.3c-0.2,0.1-0.2,0.2-0.1,0.3C51.4,59.5,51.5,59.4,51.8,59.3z M54.5,58.3
			c-0.1-0.2-0.7-1.3-0.8-1.3c-0.1,0.3-0.1,0.6-0.3,0.9c-0.2,0.4-0.2,0.4,0.5,0.4C54.4,58.3,54.5,58.4,54.5,58.3L54.5,58.3z
			 M49.9,57.1c1.3-1.4,1.4-3,0.2-3.3c-0.7-0.2-1.8,0.3-1.8,0.8c0,0.3,0.1,0.4,0.3,0.3c1.2-0.4,2.1,0.7,1,2c-0.3,0.4-0.3,0.5-0.2,0.5
			C49.6,57.5,49.7,57.4,49.9,57.1z M64,45.4V9.2h-7.6l-6.1,9.6l0,2.4c0,0.1,0.1,0.1,0.2,0c0.3-0.3,0.2,0-0.2,0.6
			c-0.4,0.6-0.3,1.1,0.2,1.8c0.9,1.4,1.4,3.9,1,5.3c-0.1,0.5-0.2,0.7-0.1,1c0.1,0.3,0.2,0.5,0.5,0.7c0.3,0.2,2.6,1.1,6.3,3.5l0-17
			l2.3-2.3l2.5,2.4l0.1,28.1C63.1,45.6,64,45.9,64,45.4L64,45.4z M62.7,17.3l-2.1-1.9l-2,1.9c0,9.1,0.1,27.9,0.1,27.9l2,0.1
			c0,0,0.1-0.4,0-1.5c-0.3-1.7-0.3-3.7,0.2-6.8c0.3-1.9,0-3.5-0.4-5.3C60,30.6,60,29.6,60,28.5c0.1-1.6,0.6-2.9,0.6-5.2
			c0-1.3,0-2.7,0-4.3c0-0.2,0.1-0.2,0.1,0c0.1,1.5,0.1,2.9,0.1,4.4c0,1.9-0.5,3.9-0.6,5.6c0,1.2-0.1,1.6,0.4,3.1
			c0.8,2.3,0.3,5.9,0.3,5.9c-0.3,2.3-0.6,5.2,0.6,7.4l1.1,0.1L62.7,17.3z M48.4,34.6c0.6-0.3,0.7-0.8,0.4-2
			c-0.1-0.2-0.1-0.5-0.1-0.6c-0.1-0.3-0.2-0.3-0.4-0.1c-0.1,0.1,0,0.2,0.2,0.8c0.2,1,0.1,1.3-0.3,1.3c-0.3,0-0.6-0.3-0.7-0.9
			c0-0.2-0.1-0.4-0.1-0.5c-0.1-0.1-0.2-0.1-0.3,0c-0.1,0.2,0.1,1.1,0.4,1.5C47.8,34.7,48,34.8,48.4,34.6z M48.2,33.7
			c0.1-0.2,0-0.9-0.1-1.3c-0.1-0.2-0.2-0.3-0.3-0.2c-0.2,0.1-0.2,0.3-0.1,0.7C47.8,33.7,47.9,33.8,48.2,33.7z M50.1,32.2
			c0.7-0.4,0.8-1.1,0.3-2.4C50.2,29.4,50,29,49.8,29c-0.1,0.3-0.1,0.5,0,0.6c0.1,0.1,0.1,0.3,0.2,0.5c0.4,0.9,0.3,1.5-0.1,1.8
			C49.5,32.1,49.8,32.3,50.1,32.2L50.1,32.2z M27.2,31.8c1.6-0.4,3.1-3,4.1-5.4c0.8-2.4,1.8-5,1.9-7.2c0,0-0.6,0-0.7,0.2
			c-0.1,0.1-0.1,0.4-0.2,0.8c-0.4,2-0.8,3.5-1.5,5.4c-0.5,1.3-1.1,2.8-2.5,4.8c-0.5,0.6-1,0.9-1.7,1c-0.2,0-0.5,0-0.5,0
			c-0.1,0.1,0,0.3,0.3,0.4C26.7,31.8,27,31.8,27.2,31.8L27.2,31.8z M49.8,31.4c0.3-0.3,0.3-0.6,0-1.3c-0.1-0.2-0.1-0.3-0.2-0.3
			c-0.2,0.1-0.4,0.6-0.3,1C49.5,31.5,49.6,31.7,49.8,31.4L49.8,31.4z M26.6,31c0.5-0.1,1.1-0.4,1.5-1.1c0.9-1.2,1.5-2.5,2-3.6
			c0.4-0.8,1-2.7,1.2-3.3c0.4-1.4,0.6-2.3,0.8-3.3c0-0.1,0-0.2,0-0.3c-0.2-0.1-0.6,0-0.7,0.1c-0.2,1.6-0.8,3.2-1.2,4.6
			c-0.7,2.3-2.5,6-3.6,6.1c-0.6,0.1-1.2-0.4-1.1-0.9c0.1-0.3,0.1-0.4,0.3-0.5c0.4-0.1,0.6,0.1,0.2,0.3c-0.5,0.4,0.4,1,0.9,0.6
			c0.9-0.7-0.4-2.1-1.4-1.5c-1.1,0.7-0.8,1.9-0.1,2.5C25.7,31,26.1,31.1,26.6,31L26.6,31z M34.7,29.4c0.7-0.7,1.2-1.7,1.6-2.8
			c0.8-2.6,1.5-5.7,1.8-8c0,0-0.6-0.1-0.7,0.1c-0.1,0.1,0,0.2-0.3,1.9c-0.4,2.5-1.1,5-2,7.2c-0.4,0.9-0.5,1-0.7,1.4
			C34,29.8,34.1,29.9,34.7,29.4L34.7,29.4z M50.2,23.9L50.2,23.9c-0.2,0.1-0.1,0.4,0.1,0.9c0.6,0.9,0.6,2.7,0.6,3.4
			c0,0.2,0,0.3,0,0.5c0.1,0.2,0.2,0.4,0.3,0c0.2-1.3,0-2.7-0.5-3.9C50.6,24.5,50.5,24.1,50.2,23.9L50.2,23.9z M50.7,27.8
			c0.1-0.4-0.1-1.8-0.3-2.3c-0.1-0.2-0.3-0.2-0.2,0c0,0.5-0.1,1.4,0,1.7C50.4,27.8,50.5,28.2,50.7,27.8L50.7,27.8z M49.4,22.1
			l-0.3,0c0,0.9-0.8,1.2-1.1,0.1l-0.2,0.1C48.1,23.8,49.5,23,49.4,22.1L49.4,22.1z M47.7,22.8c-0.1-0.4-0.1-0.6-0.4-0.4
			c-0.3,0.1-0.4,0.3-0.1,0.5C47.6,23,47.8,23,47.7,22.8L47.7,22.8z M49.8,22.5c0.1-0.2,0.1-0.4-0.1-0.4c-0.1,0-0.2,0.1-0.2,0.3
			C49.4,22.8,49.6,22.9,49.8,22.5L49.8,22.5z M49.9,21c0.1,0,0.1-0.2,0-0.4c-0.4-0.6-1.5-0.4-1.9-0.3c-0.5,0.1-0.6,0.1-0.9,0
			c-0.3,0-0.3,0-0.4,0.1c-0.1,0.1-0.1,0.3-0.1,0.7c0,0.3,0,0.4,0.1,0.4c0.4-0.4,0.9-0.8,1.6-0.9C49.2,20.5,49.9,21,49.9,21L49.9,21z
			 M46.9,21.8c0,0.1,0.1,0,0.4-0.1c1-0.6,1.6-0.5,2.4-0.2c0.2,0.1,0.3-0.1,0.1-0.3C48.8,20.3,47.5,20.9,46.9,21.8z M50.5,18l5.4-8.9
			L26,9l5.1,9.5C35.2,17.6,42,16.3,50.5,18L50.5,18z"/>
		<path class="st5" d="M24,87.8c0.6-1,3.8,0.7,3.9,1.4c1.9-1.5,4.1-1.6,5.9,0.3c1.9-2.1,3.9-1.9,5.9-0.7c-0.2-0.5,2.7-2.5,4.4-1.2
			l4.7,8.5l-30.3,0.1C20.4,93.4,21.9,90.2,24,87.8z M10.8,43.5c-0.2-0.5-0.8-5.2,0.9-5.3c2.7,1.2,6.2,5.6,7.8,8.2
			c2,3.3,4,10.9,2.9,10.6c-0.2,0,3.4,3.6,3.7,3.9c0.4,0.6-6.1,11.5-7.2,11.1c-0.3-0.1-2.5-1.4-2.5-1.4l0.1-3.6l0.1-7.3l-5.9-0.5
			l0.2-1.6c2,0.2,4,0.5,5.9,0.1c1.2-2.2,0.8-5.6-0.7-6.9c-0.8-0.5-1.5-0.3-2.3-0.2C10.5,49.9,12.1,44.5,10.8,43.5z M64,45.9l0,1.3
			c-2.1,0.5-5.8-1.3-6.9,1.6c0.1,3.1,0.8,4.5,1.3,5.5c0.4,0.8,2.9-0.1,3.8,0.7c2.6,3.2,2,7.5,2,11.3l-1.1,0.6
			C55.4,62.2,49.5,48,48.6,43.9c-0.1-2.6,7.1-11,7.1-11l2.6,1.6l-0.1,10.9C60.3,45.6,62.3,45.8,64,45.9z M48.7,35.9
			c-9,15.9-5.3,27.6,1.3,37.8l-0.6,0.1c-1.5-1.3-2.5-1.1-3.2-1.1c-1.4,0-1.8,0.4-2.6,0.5c-2.1,0.2-1.9,0.3-3.7-0.4
			c-2.2-1.8-5.2-3.2-7.6-4c-1.9,0.2-4.8,1.1-5.9,0.3C34,54.9,32.9,45.8,25,30.9c0.7,0.2,0.8,0.8,1.2,1c1.6,0.6,3.9,0.4,5.2-0.2
			c2.1-1,4.4,1.6,10.9,4.5c0.5,0.3,1.2-0.2,1.8-0.3c1.2-0.2,2.2-0.8,3.1-0.5C47.6,35.6,48.7,35.9,48.7,35.9L48.7,35.9z M30.5,17.3
			c-0.4-0.7-4.4-8.3-4.4-8.3l29.5,0.2l-4.4,7.3c-0.4,0.4-2.5,1.5-4.6-1c0,0.4-3.2,2.6-5.8-0.1c-1.6,1.5-3.3,2.3-6,0.7
			C34.8,16.5,32.7,18.6,30.5,17.3z"/>
		<path class="st7" d="M33.7,89.3c-2.9-2.7-5.8-0.3-5.8-0.1c-1.1-1.2-2.2-2.1-3.7-1.6l0-0.4c4.5,0.8,11.3,1,19.2-0.6l0.4,0.9
			c-2.1-0.8-3.2,0.3-4.2,1.5C36.3,86.7,35.4,88.6,33.7,89.3z M40.4,57.8l2,0c0.4,5.9,5.3,15,5.4,15c-0.3-0.5-3.6-0.1-3.6,0
			C42.5,68,40.6,63.2,40.4,57.8z M28.6,71.9c0,0-0.7-1.7-1-2.4c2.1-3.7,3.9-7.5,4.8-11.7l1.4,0C33.4,63.7,28.7,72.5,28.6,71.9z
			 M54.7,71.2c3.2-5.8,2.6-14.2-6.4-18.8c0,0,0.2-6.1,0.9-6.2c0.2,0,4.1-0.1,4.1-0.1c1-2.6,2.7-5.7,5-7.7l0.1,6.9
			c-1.7,0.2-2.8,0.7-3.3,2.1l-2.4,0.5c0.2,6.9,2.7,13.3,10.4,19c-1.8,1.6-8,4.8-8,4.7L54.7,71.2z M16.5,66.8l0.1-7.1
			c1.2-0.3,2.1,0.1,3-2c0,0,1.6,0.8,2.1,1C20.2,61.4,18.9,64.3,16.5,66.8z M31.7,54.2l0.1-3.6l3.4,0.1c-0.3,1.2-0.4,2.5,0,3.7
			L31.7,54.2z M39.4,54.1c0.2-1.2,0.4-2.4-0.1-3.6l3.7,0.1L43,54.2L39.4,54.1z M32.4,47c-0.6-7.1-5.4-15.2-5.5-15
			c0.6,0.1,1.6,0.4,2.1,0.1c0.7,0.1,1.2,0,1.3,0c0-0.2,4.5,10.3,3.9,14.9C34.1,47.2,32.6,47.2,32.4,47L32.4,47z M40.9,47.1
			c0.5-3.3,1.9-9.3,5-14.2c0.4,0.9,0.7,1.8,1.2,2.6c-2.4,3.5-3.9,7.5-4.8,11.6L40.9,47.1z M18.9,45.3c-1.5-3-7.5-7.7-7.2-7.2
			c2.5-2.3,5.3-3.7,8.1-5.2c0,0,0.5,0.5,0.4,0.6c-1.7,2.7-2.5,8.5-0.9,11.8c1.6,3.5,4.4,5.6,7.3,7.3c-0.2,2.2-0.3,3.8-0.9,6
			c0,0-1.8-1-3.3-1.6C22.2,52.9,21.3,49.1,18.9,45.3L18.9,45.3z M34.9,16c2.1,1.3,4,1.2,5.9-0.6c2.3,2.1,4.8,1.1,5.9,0.2
			c1,1.1,2.3,1.7,4.1,1.4l-0.5,1c0.1-0.5-12.9-1.4-19.2,0.4l-0.3-0.7C31.3,17.5,33.2,18.2,34.9,16L34.9,16z"/>
		<path class="st3" d="M25.7,8.7l5.3,9.9l0.2,0c7.3-1.4,13.1-1.6,19.3-0.5L56,8.8C46,8.7,25.7,8.7,25.7,8.7z M26.3,9.1l29.3,0
			l-1.6,2.7c-1-0.3-1.5,0.1-1.7,1.1c0,0-0.1-0.1-0.4-0.1c-1.4-0.2-1.6,1.8-0.3,2c0.3,0.1,0.4,0,0.4,0c-1.2,1-1.9,0.3-2.4,0
			c0,0.1-1.1,0.9-2.1,0c1.4,0.1,1.7-1.3,1-1.9c-0.1-0.1-0.3-0.3-0.3-0.3c0.3-0.3,0.4-0.7,0.2-1.1c-0.4-0.9-1.8-0.9-2,0.1
			c-0.1,0.4-0.1,0.5-0.1,0.5c-1.1,0.1-1.3,1.1-0.9,1.7c0.2,0.3,0.7,0.4,1.1,0.4c-0.6,0.8-1.9,0.6-2.5-0.1c-1,1.1-2,1-2.6,0.4
			c0.4,0,0.6,0,1-0.3c0.6-0.5,0.3-1.5-0.5-1.8c-0.2-0.1-0.3-0.1-0.3-0.1c0,0,0-0.1,0.1-0.3c0.2-1.7-2.3-1.5-2,0.1
			c0,0.2,0.1,0.3,0.1,0.3s-0.3,0-0.4,0.1c-1.4,0.6-0.4,2.4,0.6,2c0.1,0,0.4-0.2,0.4-0.2c-1.3,1.6-2.4,0.5-2.7,0.3
			c-0.9,1.3-2.4,0.4-2.5,0.3c0.1,0,0.4,0,0.7-0.2c0.9-0.5,0.6-1.6-0.1-1.9c-0.2-0.1-0.5-0.1-0.7-0.1c0,0,0-0.3,0-0.4
			c-0.4-1.6-2.4-0.8-1.9,0.6c0,0.1,0.2,0.2,0.2,0.2s-0.3,0.2-0.4,0.3c-0.9,0.9,0,2.3,1.1,1.7c0.1-0.1,0.3-0.2,0.3-0.2
			c-0.5,1-1.3,1.3-2.4,0.5c-0.7,1.1-1.8,0.6-2.1,0.1c1.1,0.1,1.7-1.9-0.3-2c-0.2-0.6-0.1-1.4-1.4-1.3L26.3,9.1z M40.6,12.6
			c0.2,0,0.4,0.2,0.4,0.4s-0.2,0.4-0.4,0.4s-0.4-0.2-0.4-0.4S40.4,12.6,40.6,12.6z M47.1,12.7c0.2,0,0.4,0.2,0.4,0.5
			c0,0.2-0.2,0.5-0.4,0.5c-0.2,0-0.4-0.2-0.4-0.5C46.7,12.9,46.9,12.7,47.1,12.7z M34.3,13.2c0.2,0,0.4,0.2,0.4,0.4
			c0,0.2-0.2,0.4-0.4,0.4c-0.2,0-0.4-0.2-0.4-0.4C33.9,13.4,34.1,13.2,34.3,13.2z M52.7,13.7l-0.4,0.7C51.9,14,52.2,13.5,52.7,13.7z
			 M29.2,14.6l-0.4-0.7C29.5,14,29.3,14.5,29.2,14.6z M40.5,14.3c2.5,2.9,4.8,2,6.2,0.1c0.6,1.6,2,2.8,4.5,1.7
			c-0.1,0.3-0.5,0.7-0.5,0.7c-2.1,0.6-3.2-0.4-4-1.4c-2.2,1.8-4.2,1.4-5.9-0.2c-1.4,1.8-3.8,2.2-6,0.7c-1,1.5-2.4,2.1-4.2,1.3
			l-0.4-0.6c0.3,0.2,3.5,1.6,4.4-1.7C35.7,16.8,39.5,16.9,40.5,14.3L40.5,14.3z M40.8,15.5c2.8,2.7,5.8,0.4,5.9,0.2
			c0,0.1,1.7,2.1,4,1.4l-0.4,0.7c-4.4-0.7-8.4-1.2-17.6,0.1c0,0,1.5-0.4,2.2-1.6C35.3,16.5,38.5,18.3,40.8,15.5z M30.9,17.7
			c0,0,1.2,0.1,1.3,0.2c0.1,0.1-1,0.4-1,0.4L30.9,17.7z M33.4,30.4c-0.1,0-0.2,0.1-0.3,0.2c-0.3,0.3-0.4,0.4-0.7,0.4
			c-0.2,0-0.8,0.3-1.1,0.6c-0.1,0.1-0.2,0.1-0.4,0.2c-0.2,0-0.4,0.1-0.5,0.1C30.2,32,30.1,32,30,32c-0.2,0.1-0.4,0.1-0.7,0
			C29,32,29,32,28.6,32.1c-0.5,0.1-0.8,0.1-1,0c-0.2-0.1-0.6-0.2-0.8-0.1c-0.3,0.1-1.2-0.4-1.2-0.7c0-0.1-0.5-0.5-0.6-0.5
			c-0.4-0.1-4.4,1.5-4.4,1.6c4.8,6,8.9,15.2,5.8,26.4l-0.5-0.3c0.5-2,0.6-4.1,0.8-6.2c-9.1-3.9-9.8-13.1-6.3-18.9l-0.6-0.6
			c-2.1,1.1-4.3,1.8-9.6,6.3l0,7.2c0,6.5,0,12.9,0,12.9c1.9,0.2,4,0.4,6.1,0.6c0,0,0,6.5-0.1,9c0,2.1,0,2,0,2l6.9,3.7
			c-0.5-1.9,0.7-2.7,1.7-2.6c-0.4-1.9,0.7-2.7,1.9-2.5c0.8,0.2,1.1,0.6,1.6,2.2c0.1,0.3,0.2,0.6,0.2,0.6l0.5,0c0.6-1.3,1-3,2.4-3.2
			c1.9-0.3,2.5,1,2.5,2.3c1.8-1.6,3.9-0.4,3.8,2c0.9-0.6,2.4-1.1,3.4,1.1c0.4-0.1,0.5-0.5,1.1-0.6c0.2,0,0.6-0.3,0.6-0.3l0-0.1
			c0,0,0.4-0.1,0.9-0.2c0.5,0.2,0.3,0.2,0.6-0.1c0.3-0.1,0.7-0.2,1.1-0.2c0.4,0,0.5,0.1,0.7,0c0.3-0.1,0.6-0.2,0.8,0
			c0.1,0.2,0.3,0.1,0.6,0.1c0.4,0,1,0.2,1.2,0.6c0.3,0.3,0.9,0.6,0.9,0.6l0.5-0.1l0.1-0.2l3.9-1.5c-7.9-8.8-7.7-20.4-5.8-26.3
			l0.7,0.3c-0.4,1.7-0.8,3.5-0.8,6.1c7.1,3.2,10.7,11.5,6.4,18.8l0.5,0.6c1.8-0.8,6.3-3.3,7.9-4.7l0.3,0c0,0,0.9-0.6,1.4-1l0.1-19.2
			L64.3,47l-0.1-1.1l-5.9-0.5c0.1-0.1,0.1-0.1,0.1-0.2l0-10.6c-0.2-0.3-5.1-3.2-7-3.9c-0.1,0,0,0.1,0,0.4c0.1,1-0.6,2-1.4,2
			c-0.3,0-0.3,0.1-0.3,0.7c0,0.9-0.3,1.4-1.2,1.7c-1.1,0.4-1.8-0.2-2.4-2.4c-0.2-0.6-0.5-0.4-0.7,0.4c-0.1,0.4-0.6,1.3-0.9,1.8
			c-0.2,0.4-0.6,0.6-1,0.8c-0.4,0.2-1.1,0.1-1.6-0.1c-0.8-0.4-1.1-0.9-1.4-2.1c0-0.2-0.1-0.1-0.4,0.1c-1.4,1.1-3.4,0-3.4-1.9
			c0-0.6,0-0.6-0.3-0.3c-1,0.8-2.3,0.4-2.8-0.9C33.6,30.5,33.5,30.4,33.4,30.4L33.4,30.4z M25.2,31.1c0.1,0,0.4,0.4,0.4,0.4
			c0.3,0.3,0.7,0.5,1.1,0.7c0-0.1,4.7,6.3,5.5,15.1l2.2,0c-0.4-8.5-2.7-12.6-3.8-15.2l0.8-0.3c1.8,3.4,3.9,10.3,3.8,16.3h-3.6
			c-0.5-6-2.8-11.9-6.1-16.4C25.3,31.4,25.1,31.1,25.2,31.1L25.2,31.1L25.2,31.1z M23.8,32l0.4,1.2c0,0,0-0.3,0.2-0.4
			c0.7-0.6,1.4,0.2,1.1,1.4c-0.1,0.4-0.2,1.1-0.2,1.1s-0.7-0.4-1.1-0.5c-1-0.4-1.3-1.3-0.6-1.4c0.1,0,0.4,0,0.4,0
			c-0.3-0.3-1-0.8-1-0.8L23.8,32z M27.1,32.1c0.3,0.2,1.1,0.4,1.5,0.2c0.4-0.1,0.6-0.1,1,0c0.2,0,0.6-0.1,0.6-0.1
			c2.1,4.5,3.6,9.9,3.8,14.8l-1.7,0c-0.6-5.2-2.6-10.5-5.2-14.5C27.2,32.4,27,32.1,27.1,32.1L27.1,32.1z M34.1,32.2
			c0.6,0,1.3,0.7,1.7,1.7c0.2,0.6,0.3,0.6,0.6,0.5c0.7-0.2,1.5,0.5,0.5,0.7c-0.9,0.2-0.4,2-0.5,2.2c-0.4,0.1-1.1-1.5-1.1-2
			c0-1.1-1-2.1-1.7-1.6c-0.3,0.2-0.3,0.4-0.4,0.3c-0.3-0.3-0.4-0.9,0-1.3C33.6,32.3,33.8,32.2,34.1,32.2z M53.4,32.6
			c0,0,0,1.5,0,1.8c-0.1,1-1.4,1.1-1.5,0.3c-0.2,0.3-0.4,0.7-0.4,1.1l-0.9-0.6c0.3-0.3,0.7-0.5,0.9-0.8c-0.7,0.1-1.1-0.5-0.6-1
			C51.4,32.7,52.8,32.7,53.4,32.6L53.4,32.6z M19.7,33l0.4,0.5c-3.6,6.5-2.3,14.7,6.4,19.1c-0.1,2-0.3,4-0.8,5.9l-3.2-1.6
			c0-7.3-4.1-14.3-10.6-18.9C14.3,36.1,16.9,34.4,19.7,33z M46,33.1c0.2,0.9,1,2.4,1,2.3c0-0.1-3.3,4.3-4.8,11.6l-1.2,0
			C41.9,42.1,43.5,37.6,46,33.1L46,33.1z M56.3,33.3l0.7,0.4c-3.4,2.9-5.7,6.6-7.4,10.6l-0.9-0.4C51.3,38.1,53.8,35.5,56.3,33.3z
			 M57.2,34c0.2,0,0.4,0.2,0.7,0.4c0.3,0.2,0.2,0.3-0.4,0.7c-0.7,0.6-0.8,0.5-0.8-0.3C56.8,34.3,56.9,34,57.2,34L57.2,34L57.2,34z
			 M56.4,34.8L56.4,34.8c0.1,0.3,0.1,0.7,0.1,1.2c-0.1,0.3-1,1.1-1.3,1.4c-0.1,0.1-0.2,0.1-0.2-0.1c0-0.2,0-0.6,0-0.9
			c0-0.1,0-0.2,0.1-0.3C55.5,35.6,56.1,34.8,56.4,34.8L56.4,34.8z M58.1,35L58.1,35l0,1.2c-0.3,0.1-1,0-1.2-0.1
			C56.9,36,58,35,58.1,35L58.1,35z M25.9,35.4l0.3,1.1l0.1-0.2c0.5-0.8,1.1-0.3,1.1,0.8c0,0.3-0.3,1.7-0.3,1.7s-1.9-0.9-2-1.3
			c-0.1-0.4,0.1-0.7,0.4-0.8c0.1,0,0.3,0,0.4,0L25,35.8L25.9,35.4z M47.3,35.5l0.8,0.3c-1.8,2.9-3.6,5.8-4.9,12.3h-3.6
			c0.5-4,1.5-7.9,3.3-11.8c0,0,0.7-0.2,1.1-0.3c0,0-2.9,6.8-3.3,11.2l1.7,0C43.4,43,45.1,38.6,47.3,35.5z M40.6,35.6
			c0.5,0,0.8,0.3,0.8,0.9c0,0.6-0.1,0.6-0.4,0.4c-0.5-0.3-0.9-0.3-1.4,0c-0.2,0.2-0.5,0.3-0.5,0.3s0.2-1,0.6-1.3
			C39.9,35.8,40.3,35.6,40.6,35.6z M38.7,37c0,0.3-0.1,0.5-0.2,0.7c0,0,0.3-0.1,0.4-0.2c0.6-0.3,1.3,0.3,1.3,0.9c0,0.4-0.4,0.9-1,1
			c-0.2,0-0.4-0.1-0.6-0.2c0.1,0.8,0.2,1.2-0.4,1.6c-0.5,0.3-1.5,0-1.4-0.9l0-0.5l-0.5,0.1c-1.4,0.1-1.4-1.6-0.3-1.9
			c0.4-0.1,0.9,0.3,0.9,0.3c-0.2-0.4-0.2-1.1,0.1-1.4C37.7,35.5,38.8,36.3,38.7,37L38.7,37z M50.5,36c0.1,0.6,0.3,1.3,0.3,1.9
			c-0.1,0.8-0.7,1.2-1.2,0.7l-0.2-0.2c-0.2,0.3-0.4,1.1-0.4,1.1L48.2,39c0,0,0.6-0.4,0.8-0.7l0.1-0.2c-0.5,0.2-0.9-0.3-0.8-0.8
			C48.5,36.6,49.8,36.3,50.5,36L50.5,36z M56.7,36.5c0.3,0,0.8,0.1,1.2,0.1c0.3,0.1,0.1,0.2-0.6,0.9c-0.6,0.6-0.6,0.6-1.1,0.6
			c-1.1,0-1.3,0-0.7-0.7c0.3-0.4,0.7-0.7,0.9-0.8L56.7,36.5L56.7,36.5z M54.6,36.6L54.6,36.6c0.1,0.1,0.1,0.4,0.1,0.9
			c0,0.5,0,0.5-0.2,0.8c-0.3,0.3-0.5,0.7-0.8,1c-0.2,0.3-0.2,0.2-0.4-0.4c-0.1-0.6-0.1-0.8,0.7-1.7C54.3,36.8,54.5,36.6,54.6,36.6z
			 M58.2,36.9l0,1.3c-2.4,2.3-4,4.9-5,7.8l-0.8-0.3C53.7,42,55.9,39.1,58.2,36.9L58.2,36.9z M37.8,37.7c-0.4,0-0.7,0.3-0.7,0.7
			c0,0.4,0.3,0.7,0.7,0.7c0.4,0,0.7-0.3,0.7-0.7C38.5,38,38.2,37.7,37.8,37.7z M37.8,37.9c0.3,0,0.5,0.2,0.5,0.5
			c0,0.3-0.2,0.5-0.5,0.5s-0.5-0.2-0.5-0.5S37.5,37.9,37.8,37.9z M11.6,38.2c7.3,4.8,10.6,12.1,10.6,18.5l-0.4-0.2
			c-0.4-9-5.3-14.5-10.5-18L11.6,38.2z M55.1,38.3c0.2,0,0.4,0,0.7,0.1c0.6,0,0.7,0.1,0.3,0.6c-0.1,0.1-0.3,0.4-0.5,0.6
			c-0.2,0.2-0.3,0.4-0.4,0.5c-0.1,0-1.2,0-1.5,0c-0.1,0,0-0.1,0.6-0.9C54.6,38.5,54.6,38.3,55.1,38.3L55.1,38.3L55.1,38.3z
			 M58.1,38.5c0,0,0.1,4.1,0,6.7c-1.7-0.1-2.7,0.6-3.1,1.8l-1.8-0.9C54.6,42.8,56.4,40.5,58.1,38.5z M53,38.6c0.1,0,0.1,0.2,0.2,0.6
			c0.1,0.7,0.1,0.8-0.2,1.2c-0.1,0.2-0.3,0.5-0.4,0.7c-0.2,0.3-0.3,0.4-0.3,0.2c-0.2-0.8-0.3-1.2-0.2-1.4c0.1-0.3,0.8-1.1,0.8-1.3
			L53,38.6z M11,38.7c5.9,3.7,10.2,10,10.4,17.6c0,0-1.3-0.6-2-1l0-0.7l0.4,0l0.1,0.8l0.9,0l-0.2-2.1l-1.4,0.1l-0.3-1.2l0.4-0.1
			l0.2,0.8l0.9-0.2L20,50.8l-1.4,0.4l-0.5-1.3l0.5-0.2l0.4,0.8l0.9-0.3L19,48.3L17.7,49L17,47.8l0.5-0.3l0.4,0.7l0.8-0.4l-1-1.7
			l-1.2,0.7l-0.6-0.9l0.4-0.3l0.4,0.5l0.7-0.5l-1.1-1.5L15.2,45l-0.9-1l0.4-0.3l0.6,0.5l0.7-0.6l-1.3-1.4l-1.1,1l-0.8-0.7l0.4-0.5
			l0.5,0.4l0.6-0.7l-1.4-1.2l-1.1,1.1l-1-0.7v-0.5c0.3,0.1,0.7,0.3,1,0.4l0.5-0.8l-1.5-1L11,38.7z M27.5,39l0.2,1.3
			c0.2-0.4,0.4-0.6,0.8-0.5c0.6,0.2,0.6,1.1,0.1,2.3c-0.1,0.2-0.2,0.4-0.2,0.4s-0.2-0.1-0.4-0.2c-0.3-0.2-0.9-0.5-1.2-1
			c-0.3-0.5-0.3-1.2,0.2-1.1c0.1,0,0.3,0.1,0.3,0.1l-0.8-1.1L27.5,39z M10.7,39.4l1,0.7l-0.2,0.4l-0.8-0.4V39.4z M36.4,39.7
			c0.3,0.4-0.7,1.7,0.6,2.1c0,0,0,0.3-0.3,0.5c-0.7,0.5-1.6-0.4-1.3-1.3C35.6,40.4,36.1,39.7,36.4,39.7z M39.2,39.8l0.5,0.4
			c0.8,0.7,0.8,1.8,0.1,2.2c-0.5,0.2-1,0-1.2-0.3c-0.1-0.2,0.1-0.3,0.2-0.3c0.3,0,0.6-0.6,0.5-1.3C39.3,40.1,39.2,39.8,39.2,39.8z
			 M48.2,40c0,0,0.1,0.9,0.2,1.3c0.4,1.1-0.1,1.8-0.9,1.4c-0.1-0.1-0.3-0.3-0.3-0.3l-0.1,1.3l-1.1-0.3c0.2-0.4,0.6-0.6,0.8-1.1
			c0,0-0.2,0-0.3,0c-0.6,0-0.9-0.7-0.2-1.3C46.9,40.7,48.2,40,48.2,40L48.2,40z M53.7,40.3c0.1,0,0.3,0,0.5,0c0.7,0,0.8-0.1,0.5,0.3
			c-0.1,0.2-0.4,0.6-0.5,0.8c-0.2,0.3-0.2,0.4-0.5,0.5c-0.4,0.1-0.9,0-1.3,0c-0.1,0,0.1-0.4,0.2-0.6c0.3-0.5,0.5-0.9,0.7-1
			C53.5,40.3,53.6,40.3,53.7,40.3L53.7,40.3z M51.6,40.7c0.1,0,0.1,0.1,0.2,0.4c0.2,0.7,0.2,0.7-0.1,1.3c-0.1,0.3-0.4,0.8-0.5,1
			C51,44,51,44,50.8,43.5c-0.3-0.9-0.3-0.8,0.2-1.8C51.3,41.1,51.5,40.7,51.6,40.7z M12.9,41l1,0.8L13.5,42L13,41.6l-0.8,0.8
			l1.3,1.2l1.1-1.1l0.9,1l-0.3,0.2l-0.5-0.5l-0.8,0.7l1.2,1.4l1.2-0.9l0.8,1l-0.3,0.2l-0.5-0.5l-0.8,0.6l1,1.4l1.2-0.7l0.7,1.2
			L18,47.8l-0.4-0.6l-0.9,0.5l0.8,1.6l1.3-0.6l0.5,1.3l-0.4,0.2l-0.3-0.8l-0.9,0.4l0.6,1.7l1.4-0.4l0.3,1.3l-0.4,0.1l-0.2-0.7
			L18.6,52l0.4,1.7l1.4-0.1l0.2,1.4l-0.4,0L20,54.3l-0.9,0c0,0.3,0,0.9,0,0.9l-0.5-0.3c-0.8-5.3-3.6-9.8-7.9-12.9l0-0.6l1,0.7
			C11.8,42,12.7,41.2,12.9,41L12.9,41z M53.5,42.2c0.3,0,0.2,0.2-0.2,0.9c-0.4,0.8-0.5,0.8-1.2,1c-0.9,0.2-0.9,0.3-0.4-0.8
			c0.2-0.4,0.3-0.8,0.5-0.9c0.2-0.2,0.7-0.1,1.2-0.2L53.5,42.2L53.5,42.2z M10.8,42.4c4.4,2.9,7.2,8.8,7.5,12.4c0,0-0.1-0.1-0.4-0.2
			c-0.3-0.2-0.4-0.3-0.5-0.7c-0.9-4.4-3.3-8.1-6.6-10.7L10.8,42.4z M50.4,43.2c0.2,0,0.5,1.3,0.4,1.6c-0.1,0.2-0.7-0.3-1-0.4
			C49.7,44.3,50.2,43.2,50.4,43.2L50.4,43.2z M29.2,43.2l0,1.4l0.3-0.3c0.3-0.2,0.8,0.1,0.8,0.5c0,0.6-0.1,0.8-0.5,1.6
			c-0.1,0.2-0.4,0.6-0.4,0.6s-0.5-0.4-1.1-1c-0.6-0.6-0.5-1.5,0-1.5c0.2,0,0.3,0.1,0.5,0.1c-0.1-0.4-0.6-1.2-0.6-1.2L29.2,43.2z
			 M46.3,44.3c0,0,0.3,0.4,0.6,1.4c0.3,1-0.2,1.7-0.8,1.3c-0.1-0.1-0.2-0.2-0.2-0.2c0,0.5,0,1.3,0,1.3l-1.1-0.2c0,0,0.6-0.9,0.6-1.2
			c0,0-0.1,0.1-0.4,0.1c-1.1,0-0.8-1.3,0.4-2C45.7,44.7,46.3,44.3,46.3,44.3L46.3,44.3z M52.5,44.3c0.2,0,0.1,0.2-0.1,0.7
			c-0.3,0.6-0.2,0.5-0.8,0.2c-0.8-0.4-0.8-0.5,0.3-0.8C52.1,44.4,52.3,44.3,52.5,44.3z M37.3,44.5c0.8,0,1.5,0.8,1.3,2
			c-0.2,2-0.1,1.9,0.1,2.1c0.4,0.4-0.1,0.6-0.6,0.2c-0.3-0.2-0.4-0.5-0.4-1.6c0-1.3-0.1-1.6-0.5-1.5c-0.3,0.1-0.4,0.3-0.3,1.2
			c0,1.2,0,1.5-0.5,1.9c-0.5,0.4-1,0-0.6-0.2c0.2-0.2,0.2-0.5,0.2-1.3C35.9,46.7,35.6,44.5,37.3,44.5z M58.3,45.5
			c1.6,0.1,5.7,0.4,5.7,0.4l0,1.2c-0.2,0.1-3.2-0.4-5.4-0.3c-0.5,0-0.9,0.2-1.3,0c0.4,0.2,0.3,2-1.3,1.5c-1.4-0.5-0.7-2.3,1-2.8
			C57.5,45.5,57.9,45.5,58.3,45.5L58.3,45.5z M49,46.3l3.5,1.7c0.5,6.6,2.7,13.5,10.4,18.8c-1.2,0.9-4.4,3.1-7.9,4.6l-0.3-0.3
			c4.2-7.3,1-15.3-6.4-18.9C48.4,50.3,48.6,48.3,49,46.3z M61.2,47.4c0.7,0,0.8,0.1,0.9,0.4c0.1,0.3,0.3,0.4,0.5,0.3
			c0.6-0.2,1,0.9,0.5,1.4c-0.3,0.3-0.3,0.4,0,0.4c0.6,0,0.6,0.8,0,1.3c-0.3,0.2-0.3,0.3,0,0.4c0.5,0.2,0.4,0.7-0.2,1.1
			c-0.3,0.2-0.3,0.3-0.1,0.3c0.7,0.2,0,1.2-0.8,1c-0.3-0.1-0.6,0-0.9,0.2c-0.8,0.3-0.9,0.4-1.8,0.3c-0.8-0.1-1.1-0.4-1.3-1.1
			c-0.4-1.4-0.9-2.9-0.9-4.3c-0.1-0.9,1.4-1.7,2.2-1.8C59.9,47.2,60.6,47.4,61.2,47.4L61.2,47.4z M13.8,47.4c0.8,0,1.4,0.7,1.4,1.5
			s-0.6,1.5-1.4,1.5s-1.4-0.7-1.4-1.5S13,47.4,13.8,47.4z M29.8,47.9l-0.1,1.3l0.3-0.2c0.4-0.3,1,0,0.8,0.5c0,0.4-0.8,1.7-1.1,2
			c0,0-1.2-1.3-1.3-1.6c-0.3-0.6,0.1-1.2,0.6-0.9l0.3,0.2L28.9,48L29.8,47.9z M13.9,48c-0.5,0-1,0.3-0.9,0.8c0,0.2,0.3-0.1,0.6-0.3
			c0.2-0.1,0.5-0.2,0.7,0c0.2,0.1,0.3,0.3,0.4,0.4c0.1,0.1,0.2,0.2,0.3,0.2l0-0.2C14.8,48.2,14.3,48,13.9,48L13.9,48z M52.8,48.2
			l0.5,0.3c0.7,9.3,5.4,14.8,10.2,18l-0.4,0.2C57.1,62.8,53,55.9,52.8,48.2L52.8,48.2z M53.5,48.5c0,0,1.3,0.7,2,1l0,0.8l-0.5,0
			l-0.2-0.8L54,49.7l0.3,1.9l1.5-0.2l0.2,1.2l-0.5,0.1L55.2,52l-0.9,0.2l0.6,1.9l1.4-0.4l0.4,1.2L56.3,55L56,54.3l-0.9,0.3l0.7,1.8
			l1.4-0.5l0.6,1.2l-0.4,0.2l-0.4-0.7l-0.9,0.4l1,1.7l1.3-0.7l0.6,0.9l-0.5,0.3l-0.4-0.6l-0.7,0.5l1.1,1.5l1.1-0.8l0.8,1l-0.4,0.3
			l-0.6-0.6l-0.7,0.6l1.3,1.5l1.1-1l0.8,0.8l-0.2,0.3l-0.5-0.3l-0.7,0.8l1.4,1.2l1.1-1.2l0.9,0.7v0.5L63.2,64l-0.6,0.9l1.4,1.1
			l0,0.4C56,61.5,54,54.1,53.5,48.5L53.5,48.5z M37.3,48.6c0.3,0,0.7,0.3,1.3,1c1.7,2,1.2,5-1,6.6c-0.3,0.2-0.4,0.2-0.8-0.1
			c-2.2-2-2.4-4.6-0.4-6.9C36.7,48.9,37,48.6,37.3,48.6L37.3,48.6z M45.3,48.9c0.4,0.6,0.9,1.3,1,2.1c0,0.8-0.5,0.9-1.1,0.5
			c-0.1,0.4,0.2,1.2,0.2,1.2l-1-0.1c0,0,0.4-0.7,0.4-1.1c-0.7,0.5-1.2-0.1-1.1-0.6C43.9,50,44.6,49.4,45.3,48.9L45.3,48.9z
			 M37.3,49.4c-0.1,0-0.2,0.1-0.3,0.2c-0.6,0.5-1,1.1-1.3,1.7c-0.5,1.3-0.2,2.8,1,3.9c0.6,0.6,0.8,0.5,1.7-0.7
			c0.7-1,0.9-2.3,0.4-3.4c-0.2-0.5-0.6-1.1-1.1-1.5C37.5,49.5,37.4,49.4,37.3,49.4L37.3,49.4z M55.8,49.6l0.7,0.4
			c1,6.3,4,10.2,7.5,12.9l0,0.6l-0.9-0.7L62,63.9l-0.9-0.7l0.3-0.3l0.5,0.3l0.7-0.7l-1.3-1.2l-1.1,1l-0.9-1l0.3-0.2l0.6,0.6l0.7-0.7
			l-1.3-1.4l-1.1,0.9l-0.8-1l0.3-0.2l0.4,0.6l0.9-0.5l-0.9-1.4l-1.3,0.7l-0.7-1.2l0.4-0.2l0.4,0.7l0.8-0.4l-0.8-1.7l-1.3,0.4
			l-0.5-1.3l0.4-0.1l0.3,0.8l0.9-0.3l-0.6-1.8l-1.4,0.4l-0.3-1.3l0.4-0.1l0.2,0.7l0.9-0.2L56,51.1l-1.4,0.2c0-0.3-0.3-1.1-0.3-1.4
			l0.4,0l0.1,0.8l0.9,0L55.8,49.6z M37.3,49.8c0.5,0.1,1.1,1.1,1.3,1.4c0.3,0.7,0.3,1.6,0,2.2c-0.2,0.5-0.8,1.5-1.2,1.7
			c-0.3,0.2-0.6,0-1-0.6c-0.9-1.2-1-2.7-0.4-3.7C36.6,50.2,37,49.8,37.3,49.8L37.3,49.8z M56.8,50.1l0.4,0.2C57.6,54,59.8,59,64,62
			v0.5C60.7,60.1,57.7,56,56.8,50.1z M37.3,50.4c-1.5,1.1-1.2,2.9-0.1,4.1C38.3,53.6,38.8,51.4,37.3,50.4z M14.7,50.4
			c0.8,0,1.4,0.3,1.6,0.9c0.4,0.9,0.4,1.1,0.5,1.6c0,0.3,0.1,0.7,0.2,0.9c0.4,2.5,0.1,3.4-1.4,3.8c-0.4,0.1-1.1,0.2-1.5,0
			c-0.1,0-0.5,0-0.9,0c-0.6,0-0.8-0.1-1.2-0.4C12,57.1,11.9,57,11.8,57c-0.7-0.1-1-0.8-0.4-1.3c0.3-0.3,0.4-0.3,0.3-0.4
			c0,0-0.2-0.1-0.3-0.1c-0.7,0-0.7-0.8,0-1.3c0.4-0.3,0.5-0.5,0.3-0.5c-0.7,0.2-0.9-0.8-0.2-1.2c0.4-0.2,0.6-0.4,0.3-0.4
			c-0.3,0-0.6-0.2-0.5-0.5c0.1-0.3,0.7-0.6,1.1-0.5c0.3,0.1,0.6,0.2,0.7,0c0.4-0.3,0.6-0.4,1-0.5C14.3,50.4,14.5,50.4,14.7,50.4
			L14.7,50.4z M39.5,50.6l3.4,0.1l-0.1,3.4L39.6,54C39.6,54,40.3,52.5,39.5,50.6z M31.8,50.7l3.3,0c-0.5,1.3-0.3,2.6-0.1,3.3
			L31.7,54L31.8,50.7z M37.3,50.7c0.9,0.5,1.1,2.4-0.1,3.4C36,52.9,36.3,51.4,37.3,50.7z M29.2,52.2l0.9,0.1l-0.3,1.3l0.2-0.2
			c1.1-0.5,1.2,0.7,0.1,1.8c-0.3,0.2-0.7,0.6-0.7,0.6s-0.3-0.5-0.6-0.9c-0.3-0.4-0.5-0.9-0.4-1.2c0.1-0.4,0.5-0.6,0.8-0.4
			c0.1,0.1,0.3,0.3,0.3,0.3L29.2,52.2z M44.9,53.1c0,0,0.4,0.4,0.6,0.6c0.8,0.9,0.9,1.7,0.5,1.9c-0.3,0.2-0.5,0-0.8-0.2
			c0.1,0.5,0.5,1.3,0.5,1.3L44.5,57c0,0,0.3-1.1,0.3-1.5c0,0-0.2,0.2-0.3,0.2c-0.8,0.3-1.1-0.6-0.5-1.5
			C44.4,53.6,44.9,53.1,44.9,53.1L44.9,53.1z M60.7,54.7c0.8,0,1.4,0.6,1.4,1.4c0,0.8-0.6,1.4-1.4,1.4c-0.8,0-1.4-0.6-1.4-1.4
			S60,54.7,60.7,54.7z M61.4,55.4c-0.1,0-0.1,0.2-0.1,0.5c-0.1,0.6-0.6,0.9-1.2,0.6c-0.2-0.1-0.4-0.3-0.4-0.2c0,0.1,0.2,0.5,0.3,0.6
			c0.5,0.4,1.7,0.3,1.6-0.7C61.7,55.7,61.5,55.3,61.4,55.4z M35.9,55.9c0.2,0,0.3,0.1,0.5,0.2c0.4,0.3,0.5,0.6,0.5,1.9
			c0,1.1,0,1.2,0.2,1.3c0.5,0.3,0.7-0.2,0.6-1.3c-0.1-1.1,0.3-1.9,0.9-1.9c0.3,0,0.4,0.2,0.1,0.4c-0.3,0.3-0.3,0.6-0.2,1.2
			c0.2,1.6,0,2.4-0.7,2.8c-0.7,0.3-1.6-0.1-1.8-1c-0.1-0.6-0.1-1.3,0-2c0-0.7,0-0.8-0.2-1.2C35.5,56.1,35.7,55.9,35.9,55.9
			L35.9,55.9z M18,56.4c0.4,0,0.8,0.2,1,0.7c0.6,1.2-0.7,2.2-1.9,2.3c-2,0-4.4-0.3-6.5-0.5l0-1.2c1.9,0.1,4,0.3,6.2,0.4
			C16.8,57.1,17.4,56.4,18,56.4L18,56.4z M28.7,56.7l1.1,0.3l-0.7,1.2c0.2-0.1,0.4-0.2,0.6-0.1c0.5,0.2,0.5,0.8,0.1,1.3
			c-0.3,0.4-1,0.9-1.5,1.2c-0.3-0.6-0.9-1.7-0.7-2.3c0.1-0.3,0.5-0.5,0.9-0.3c0.1,0.1,0.3,0.2,0.3,0.2L28.7,56.7z M31.3,56.7l3.4,0
			c-0.5,3.5-1.5,8.2-3.4,12L30.6,69c1.7-3.8,2.8-7.4,3.4-11.3h-1.7c-1,4.3-2.4,8.2-4.7,11.7l-1-0.3C28.9,65.1,30.8,60.8,31.3,56.7
			L31.3,56.7z M39.2,56.8H43c0.7,7.1,3.1,12,6.6,16.8c0,0-0.2,0.1-0.4,0c-0.4-0.5-0.7-0.7-1.3-0.9c-3-4.3-5-10.4-5.5-15.1h-2.3
			c0.3,5.8,1.9,10.6,4,15.3l-1.2,0.2C41.4,69,39.5,65.4,39.2,56.8L39.2,56.8z M45.1,57.6c0.3,0.2,0.7,0.5,1,0.7
			c0.9,0.6,0.9,1.8,0,1.8l-0.3,0c0,0,0.3,0.8,0.6,1.1c-0.3,0.1-1.1,0.2-1.1,0.2s0.1-0.7,0.1-1.4c0,0-0.1,0.2-0.3,0.2
			c-0.6,0.2-1-0.3-1-0.8C44.3,58.7,45.1,57.6,45.1,57.6L45.1,57.6z M19.6,57.8l1.9,0.9c-1.3,3-2.8,5.7-4.9,7.8l0.1-6.8
			C17.8,59.7,19,59.7,19.6,57.8z M32.4,57.9h1.2c-0.5,5.5-4.1,12.8-4.7,13.7l-0.2,0.2c0,0-0.5-1.7-1-2.3
			C29.7,66.8,31.8,61.5,32.4,57.9z M40.6,57.9h1.8c0.5,4.3,1.9,9,5.2,14.7c0,0-0.3,0-0.6-0.1c-0.6-0.4-1,0.1-1.3,0.1
			c-0.5,0-0.6-0.1-1.2,0.1C41.7,66.7,40.9,62.1,40.6,57.9z M21.7,58.9l0.6,0.3c-1.3,3.1-2.5,5.6-5.7,8.7l0-0.9
			C18.8,64.8,20.3,61.9,21.7,58.9L21.7,58.9z M22.6,59.3c0.3,0.1,0.6,0.3,0.9,0.5c0.1,0,0.1,0.1,0.1,0.2c-0.1,0.3-0.6,0.4-0.8,0.5
			c-0.2,0.1-0.5,0.1-0.5,0.1c-0.3,0.1-0.2-0.2,0.1-0.8C22.5,59.5,22.5,59.3,22.6,59.3z M23.8,60c0.2,0,0.9,0.4,1.1,0.6
			c0.1,0.2-0.1,0.5-0.3,1c-0.4,0.8-0.4,0.8-0.5,0.2c0-0.1-0.1-0.5-0.2-0.7C23.7,60.4,23.7,60,23.8,60z M25.2,60.6
			c0,0,0.4,0.2,0.6,0.3c-2,5.9-7.2,10.8-7.2,10.7l-0.8-0.5C21.3,68,23.8,64.3,25.2,60.6z M23.1,60.7c0.2,0,0,0.2-0.2,0.8
			c-0.2,0.6-0.3,0.8-0.5,0.8c-0.3,0.1-0.8,0.1-1.2,0.2c-0.2,0-0.1-0.1,0.2-0.7c0.3-0.7,0.3-0.8,0.8-0.9
			C22.5,60.9,22.8,60.7,23.1,60.7z M23.8,61.9c0.2,0.7,0.2,0.9,0.1,1.1c-0.3,0.5-0.6,1-0.7,1.2c-0.2,0.4-0.3,0.3-0.4-0.6
			c-0.1-0.6-0.2-0.8-0.1-1.1c0.1-0.3,0.5-0.9,0.6-1.3C23.6,60.4,23.8,61.8,23.8,61.9z M27.4,61.2l1,0.3l-0.8,1l0.4,0
			c0.8,0.1,0.7,0.9,0,1.4c-0.3,0.2-1.5,0.8-1.5,0.8c-0.1-0.7-0.4-1.2-0.4-1.9c0-0.4,0.1-0.8,0.6-0.8c0.3,0,0.4,0.3,0.5,0.5
			L27.4,61.2z M46.1,62.1c0,0,0.6,0.3,1.2,0.8c0.7,0.6,0.9,1.3,0.1,1.5l-0.3,0c0.2,0.4,0.7,0.9,0.7,0.9c-0.2,0.2-0.6,0.3-1,0.4
			c0,0-0.1-0.9-0.2-1.3c0,0-0.1,0.2-0.2,0.3c-0.7,0.5-1.3-0.4-0.9-1.5C45.7,62.7,46.1,62.1,46.1,62.1z M38.2,62.3
			c1.8,0,0.7,2.9-0.2,2.7c0,0,0.7-1.8-0.3-2C37.3,62.9,37.7,62.3,38.2,62.3L38.2,62.3z M35.2,62.5c0.6,0,1,0.4,0.4,0.6
			c-0.8,0.4-0.3,1.3-0.3,1.9c0,0.3-0.7-0.3-0.9-1C34.2,63.2,34.3,62.6,35.2,62.5L35.2,62.5z M21.9,62.8c0.1,0,0.2,0,0.2,0
			c0.1,0.1-0.2,0.6-0.6,1.1c-0.2,0.3-0.3,0.4-0.4,0.5c-0.3,0.2-0.7,0.1-1,0.1c-0.5,0-0.4,0,0.1-0.9c0.2-0.4,0.4-0.7,0.5-0.8
			C20.9,62.9,21.5,62.8,21.9,62.8L21.9,62.8z M22.5,63.4c0,1.1,0.4,1.4,0.1,1.8c-0.3,0.5-0.7,1.1-0.9,1.3c-0.3,0.3-0.2,0.3-0.3-0.6
			c0-0.6-0.1-1,0-1.2c0.2-0.5,0.5-0.8,0.7-1.3C22.4,63,22.5,63.1,22.5,63.4L22.5,63.4z M36.7,64c0.5,0,0.8,0.6,0.8,1.1l0,0.5
			c0.7-0.3,1.5,0,1.6,0.7c0.1,1.1-0.8,1-1.5,1c0.1,0,0.2,1-0.2,1.4c-0.7,0.7-1.9,0-1.6-1.1c0.1-0.2,0.1-0.4,0.1-0.4
			s-0.4,0.2-0.6,0.2c-1.3-0.1-1.2-2,0.1-1.7c0.3,0,0.5,0.1,0.5,0.1s0-0.1-0.1-0.3C35.6,64.6,36,64,36.7,64z M63.3,64.3l0.7,0.4v0.8
			l-1-0.8L63.3,64.3z M20.4,64.8c0.3,0,0.5,0,0.5,0.1c0,0.1-0.6,1-1,1.4c-0.3,0.3-0.4,0.3-1.1,0.3c-0.3,0-0.5,0-0.5-0.1
			c0.4-0.5,0.8-1.1,1.2-1.6C19.6,64.9,20,64.8,20.4,64.8z M21.1,65.2c0.1,0,0.1,0.1,0.1,0.4c0,0.2,0,0.8,0.1,1c0,0.5,0,0.5-0.1,0.7
			c-0.2,0.3-0.5,0.6-0.8,0.9c-0.5,0.5-0.4,0.5-0.4-0.6c0-0.9-0.1-0.9,0.1-1.1c0.1-0.1,0.4-0.5,0.6-0.8C20.9,65.5,21,65.2,21.1,65.2z
			 M25.5,65.4l1,0.5l-1,1l0.3,0c0.6,0.1,0.6,0.8,0,1.3c-0.4,0.2-1.7,0.7-1.7,0.7c0-0.6-0.2-1.1-0.1-1.7c0-0.3,0-0.6,0.2-0.8
			c0.1-0.2,0.4-0.3,0.7,0c0.2,0.2,0.3,0.3,0.3,0.3L25.5,65.4z M36.7,65.7c-0.4,0-0.7,0.3-0.7,0.7c0,0.4,0.3,0.7,0.7,0.7
			s0.7-0.3,0.7-0.7C37.4,66,37.1,65.7,36.7,65.7z M47.4,65.9c0,0,1.2,0.5,1.8,1c0.5,0.4,0.3,1.2-0.2,1.2l-0.3,0
			c0.2,0.3,0.8,0.9,0.8,0.9l-1,0.4c0,0-0.2-0.7-0.3-1.2C47.9,69,47.1,68.4,47,68C46.9,67.2,47.2,66.5,47.4,65.9L47.4,65.9z
			 M36.7,65.9c0.3,0,0.5,0.2,0.5,0.5c0,0.3-0.2,0.5-0.5,0.5c-0.3,0-0.5-0.2-0.5-0.5C36.3,66.1,36.5,65.9,36.7,65.9z M18.4,66.9
			c0.3,0,0.8,0,0.9,0c0.1,0.1-0.2,0.5-0.7,1.1c-0.5,0.5-0.5,0.4-1.1,0.4c-0.9,0-1,0-0.5-0.5c0.5-0.5,0.7-0.9,1-1
			C18,66.9,18.2,66.9,18.4,66.9L18.4,66.9z M19.5,67.4c0.1,0,0.1,0.2,0.1,0.8l0,1l-0.7,0.7c-0.8,0.8-0.7,0.8-0.7,0.1
			c0-0.6,0-1,0.1-1.2c0.4-0.5,0.8-0.8,1.2-1.3L19.5,67.4L19.5,67.4z M38.1,67.6c0.2,0,0.7,0.9,0.9,1.6c0.3,1.7,1.3,2.5,2,1.8
			c0.3-0.4,0.3,0,0.3,0.2c-0.2,2.2-2.6,1.3-2.9-0.9c-0.9,0.6-1.7-0.6-1.1-0.6C38.5,69.5,38.2,68.4,38.1,67.6L38.1,67.6z M35.3,67.6
			c0.1,0.8-1.2,2-2,1.1c-0.4-0.5,0-1.4,0.5-0.8C34.3,68.4,34.8,67.9,35.3,67.6L35.3,67.6z M16.8,68.7c0.3,0,0.7,0,0.9,0
			c0.2,0,0.1,0.1-0.5,0.6c-0.5,0.4-0.6,0.6-0.6,0.4c0-0.3,0-0.6,0-1C16.6,68.7,16.7,68.7,16.8,68.7L16.8,68.7z M23.1,69.2l0.8,0.6
			l-0.8,0.8c0.7,0,0.8,0.7,0.5,1c-0.2,0.3-0.9,0.6-1.6,0.7c-0.4,0.1-0.8,0.1-0.8,0.1s0-0.3,0-0.9c0-1.1,0.1-1.5,0.5-1.8
			c0.3-0.2,0.8,0.1,0.9,0.4c0,0.1,0.1,0.3,0.1,0.3L23.1,69.2z M17.8,69.2L17.8,69.2l-0.1,1.9l-1.2-0.7
			C16.5,70.4,17.7,69.3,17.8,69.2L17.8,69.2z M49.2,69.4c0.8,0.4,1.5,0.3,2.1,0.8c0.5,0.3,0.3,1,0,1.1c-0.2,0.1-0.4,0-0.4,0
			c0.3,0.4,1,0.8,1,0.8l-1,0.4c0,0-0.1-0.7-0.3-1.1c-0.2,0.6-0.8,0.6-1.2,0.3C49,71.7,48.9,71,49,70.5
			C49.1,70.3,49.2,69.4,49.2,69.4L49.2,69.4z M43.7,86.1c-10.3,2.5-18.6,0.9-19.4,0.6l-0.7,1c-0.1,0.2-0.1,0.7-0.6,0.8l-0.7,1
			l0.1,0.1l-0.6,0.5l0.1,0.2L21.6,91l-0.2,0l-1,1.5l0.2,0.2l-2.3,3.6l30.9,0C47.4,92.9,45.4,89.6,43.7,86.1L43.7,86.1z M43.5,86.6
			l0.2,0.5C43.2,87,42.6,87,42,87C42.5,86.9,43,86.7,43.5,86.6z M41.7,87c-1,0.5-1.6,1-2,1.6c-0.6-0.4-1.3-0.8-2.1-0.9L41.7,87z
			 M24.3,87.3l0.4,0.1c0,0-0.1,0.1-0.3,0.1L24.3,87.3z M44,87.5l0.3,0.6c-0.7-0.4-3.5-1.2-4.3,1.7c-0.9-1.2-4.4-2.9-6.2,0.7
			c-0.5-1-3.5-3.8-6.2-0.2c-1.1-2.2-2-2.4-3.9-2.1c1.4-1.3,3.3,0.1,4.2,1.2c2.3-1.9,4.3-1.4,6,0.2c2.2-2.4,4.4-1.8,5.9-0.6
			C40.9,87.4,41.9,86.9,44,87.5L44,87.5z M26.1,87.5c1.4,0.2,2.8,0.3,4.1,0.3c-0.8,0.3-1.6,0.6-2.3,1.1
			C27.4,88.3,26.7,87.9,26.1,87.5L26.1,87.5z M36,87.8c-0.8,0.4-1.6,0.9-2.2,1.5c-0.7-0.6-1.4-1.1-2.2-1.3C33,88,34.6,87.9,36,87.8
			L36,87.8z M44.9,88.9L44.5,89c-1.2,0.3-1,2.1,0.3,2.1c0.1,0,0.4,0,0.4,0c0,1.2,0.3,1.5,1.5,1.4l2,3.6l-29.8-0.1l1.9-3.1
			c1,0.1,1.6-0.4,1.3-1.2c0,0,0.6,0.2,0.8,0.2c1.1,0,1.4-1.7,0.3-2c-0.1,0-0.4-0.1-0.4-0.1c0.5-1.2,1.8-0.5,2.1,0
			c0.8-0.7,1.8-0.4,2.2,0.5l-0.2-0.1c-1-0.7-1.9,0.8-0.9,1.5c0.1,0.1,0.3,0.1,0.3,0.1S26.1,91.9,26,92c-0.5,0.8,0.3,1.9,1.3,1.6
			c0.7-0.3,0.8-0.9,0.8-1.5c0,0,0.3,0,0.5,0c0.9,0,1.1-1.1,0.6-1.7c-0.3-0.3-0.7-0.3-0.9-0.3c1-1,1.7-0.3,2.5,0.2
			c0.1,0,1.3-1.4,2.6,0c-0.7-0.2-1.3,0.3-1.4,1c0,0.4,0.3,0.8,1,0.9c-0.1,0.2-0.1,0.4-0.1,0.6c0,0.7,0.6,1.2,1.3,1.1
			c0.6-0.1,1-0.8,0.8-1.3c-0.1-0.3-0.2-0.4-0.2-0.4c1.6,0.2,1.6-1.9,0.3-2c-0.3,0-0.5,0.1-0.8,0.4c0.7-1.5,2.1-1.2,2.6-0.6
			c0.7-0.5,1.6-1.2,2.8,0c-0.2,0-0.5,0-0.7,0c-0.9,0.2-0.9,1.4-0.2,1.8c0.2,0.1,0.4,0.2,0.7,0.1c-0.2,1,0.8,1.7,1.6,1.2
			c0.5-0.3,0.7-1.1,0.1-1.8c1,0,1.1-1.3,0.5-1.7c-0.4-0.3-1-0.2-1.4,0.3c-0.1-0.4,0.9-1.6,2.2-0.7C43.3,88.5,44,88.3,44.9,88.9
			L44.9,88.9z M45.3,89.9l0.4,0.7C45.4,90.6,45.1,90.3,45.3,89.9z M40.3,90.6c0.2,0,0.4,0.2,0.4,0.4c0,0.2-0.2,0.4-0.4,0.4
			c-0.2,0-0.4-0.2-0.4-0.4C39.9,90.8,40.1,90.6,40.3,90.6z M22.2,90.6c0.1,0.2,0.1,0.5-0.3,0.5L22.2,90.6z M27.2,91.1
			c0.2,0,0.4,0.2,0.4,0.4s-0.2,0.4-0.4,0.4c-0.2,0-0.4-0.2-0.4-0.4S27,91.1,27.2,91.1z M33.9,91.2c0.2,0,0.4,0.2,0.4,0.4
			c0,0.2-0.2,0.4-0.4,0.4s-0.4-0.2-0.4-0.4C33.5,91.4,33.7,91.2,33.9,91.2z"/>
		<path class="st3" d="M20.1,11.3c-3.1,4.4-6.4,6.9-6.4,10.4c0,1.1,0.6,3,2.5,3.4c1.2,0.2,2.9-0.8,2.9-2.8c0-0.4,0.4-0.4,0.4,0.2
			c-0.1,1.6-0.6,3.4-1.4,4.9c1.3,0,2.7,0,4,0c-0.8-1.5-1.3-3.4-1.4-4.9c0-0.5,0.4-0.6,0.4-0.2c0,2,1.7,3,2.9,2.8
			c1.9-0.4,2.5-2.3,2.5-3.4C26.5,18.2,23.2,15.7,20.1,11.3L20.1,11.3z"/>
		<path class="st3" d="M54.7,93.8c-3.1-4.4-6.4-6.9-6.4-10.4c0-1.1,0.6-3,2.5-3.4c1.2-0.2,2.9,0.8,2.9,2.8c0,0.4,0.4,0.4,0.4-0.2
			c-0.1-1.6-0.6-3.4-1.4-4.9c1.3,0,2.7,0,4,0c-0.8,1.5-1.3,3.4-1.4,4.9c0,0.5,0.4,0.6,0.4,0.2c0-2,1.7-3,2.9-2.8
			c1.9,0.4,2.5,2.3,2.5,3.4C61.1,86.8,57.8,89.4,54.7,93.8L54.7,93.8z"/>
	</g>
</g>
</svg>
