<?xml version="1.0" encoding="utf-8"?>
<!-- Generator: Adobe Illustrator 19.1.0, SVG Export Plug-In . SVG Version: 6.00 Build 0)  -->
<svg version="1.1" xmlns="http://www.w3.org/2000/svg" xmlns:xlink="http://www.w3.org/1999/xlink" x="0px" y="0px"
	 viewBox="0 0 75.3 105.3" style="enable-background:new 0 0 75.3 105.3;" xml:space="preserve">
<style type="text/css">
	.st0{display:none;}
	.st1{fill:#FFFFFF;}
	.st2{fill:none;stroke:#010101;stroke-width:0.9967;}
	.st3{fill:#010101;}
	.st4{fill:none;stroke:#010101;stroke-width:1.0006;}
	.st5{fill:#E1CF20;}
	.st6{fill:#262964;}
	.st7{fill:#D31F26;}
	.st8{fill:#14130F;}
	.st9{fill:none;stroke:#010101;stroke-width:0.9929;}
	.st10{fill:#F6EB16;}
	.st11{fill:none;stroke:#010101;stroke-width:1.83;}
	.st12{clip-path:url(#SVGID_2_);}
	.st13{clip-path:url(#SVGID_4_);}
</style>
<g id="Layer_1" class="st0">
</g>
<g id="Layer_2">
	<g>
		<path class="st1" d="M3.5,0.5H71c2,0,3.6,1.6,3.6,3.6v97.3c0,2-1.6,3.6-3.6,3.6H3.5c-2,0-3.6-1.6-3.6-3.6V4.1
			C-0.1,2.1,1.5,0.5,3.5,0.5z"/>
		<path class="st4" d="M3.5,0.5H71c2,0,3.6,1.6,3.6,3.6v97.3c0,2-1.6,3.6-3.6,3.6H3.5c-2,0-3.6-1.6-3.6-3.6V4.1
			C-0.1,2.1,1.5,0.5,3.5,0.5z"/>
		<path class="st6" d="M9.9,8.7c0,26.6,0,59.2,0,88.1h54.6V8.7H9.9z M25.9,9.2c9.4,0.3,18.9,0,28.4,0.1c0,0-3.4,6.1-4.5,8
			c-0.2,0.4-0.3,0.7-0.1,0.9c0.2,0.3,0.2,0.7,0,1c-0.1,0.1-0.1,0.2-0.1,0.3c0,0.1,0.1,0.1,0.1,0.3c0.2,0.6-0.3,1-0.7,1.2
			c-0.3,0.1-1,0.2-1.5,0.2c-3.2-0.2-9.3-2.8-11.9-3c-1.8-0.5-4-0.3-5.9-0.2c-0.4,0-0.3-0.8-0.3-0.8C29,14.1,27.1,11.7,25.9,9.2z
			 M54.8,9.5h9v1.4L60,14.7c-0.4,0.4-0.6,0.7-0.6,0.7l0,3.5c-2.6-1.4-3.1-3-3.5-4.9c-4.3,3.2-4.5,10.1,0.2,13.7
			c0-1.6,1.2-4.6,3.3-4.8l0,12.1l-2.6-2.5l-5.6,0.1c0.9-1.5,0.9-2.7,0.3-4.1c-1-2.3-2.5-7.5-2.4-7.5c0,0,0-0.1,0.2-0.1
			c0.5-0.1,0.8-0.6,0.6-1.1c0-0.2,0-0.1,0.1-0.4c0.5-0.8-0.1-1.6-0.1-1.6L54.8,9.5z M25.3,9.5l3.3,6.1c0,0,0,0.3,0,0.4
			c0,0.2,0.1,0.4,0.2,0.7c0.1,0.1,0.2,0.3,0.2,0.5c0,0.3,0,0.3,0.5,0.7c0.1,0.1,0.1,0.1,0.1,0.2c-0.1,0.4-0.1,1.1,0.2,2
			c0.4,1.1,0.5,1.1-0.2,2.6c-0.1,0.3-0.3,0.7-0.5,1.1c-0.8,1.7-1,2.2,0.5,3.1c0.4,0.3,0.5,0.5,0.4,1c-0.1,0.4-0.1,0.7,0.1,0.9
			c0.1,0.1,0.2,0.2,0.2,0.3c0,0.1-0.1,0.4-0.1,0.7c0.1,0.8-0.8,1.9-1.6,2.3c-0.2,0.1-0.2,0-0.3-0.2c-0.8-1.5-2.9-0.9-3,0.9
			c0,0.5,0,0.7-0.1,0.8L25,33.8c0,0-3.1,2-5.1,3.1c-0.1,0.1-0.2,0.2-0.3,0.2c-0.1,0-0.2,0-0.2-0.1c-0.7-1.4-0.3-3-0.3-3.6
			c0-0.2-0.2-0.2-0.5-0.2c-0.4,0-1.1,0.5-1.2,0.9c-0.1,0.4-0.2,0.6-0.3,0.6c-0.1,0-0.2-0.1-0.4-0.7c-0.6-1.1-0.6-1.2-1.2-1.9
			c-0.4-0.5-0.8-0.6-1.2-0.2c-0.3,0.3-0.3,0-0.5-0.1c-0.4-0.3-1,0-1.1,0.4c0,0.3,0,0.6-0.4,0.6c-0.4,0-0.5,0.5-0.4,1.2
			c0.1,0.4,0.1,0.4,0,0.6c-0.4,0.4-0.4,0.7-0.2,1.4c0.6,1.8,1.4,2.9,2.2,4.5c0,0-1.9,1.1-3.1,1.8V9.5H25.3z M63.9,11.2l0,28.4
			l-4.3-4.2c0,0-0.1-5.4-0.1-7.7c0-2.2,0-4.5,0-4.9c0-0.4,0-2.2,0-4c0-3.8-0.3-3.3,0.4-4L63.9,11.2z M55.6,14.6l0.2,0.7
			c-1.8,1-4,6.8,0,11l-0.1,0.9C51.6,23.3,52.3,17.8,55.6,14.6z M55.9,15.4c0.6,1.3,1.3,2.4,2.3,3.1c-0.5,1.2-0.7,2.6,0.1,4.4
			c-0.6,0.3-1.5,1.2-2.3,3.1C52.8,22.8,53.5,18.1,55.9,15.4z M32.3,17.9c1.8,0,3.6,0.3,5.3,0.8c1.1,5.4,2.9,9,2.9,11.1
			c0,0-0.1,0-0.5-0.3c-0.8-0.6-1.8-0.2-2.3,0.5c-0.5,0.7,0,1.6-0.3,2c-0.5,0.7-1.8,2.1-2,2c-0.2,0-0.1-0.1,0.4-0.9
			c0.6-0.9,1-1.7,0.8-1.9c-0.1-0.1-0.1,0.1-0.5,0.8c-1,1.7-1.9,2.8-2.2,2.7c-0.2-0.1-0.1-0.2,0.7-1.2c0.8-1.1,1.1-1.8,1-2.1
			c-0.1-0.2-0.2,0.1-0.5,0.8c-0.4,0.7-1,1.5-1.6,2.3c-0.2,0.3-0.4,0.4-0.7,0.6c-0.2,0.1-0.5,0.2-0.7,0.2c-0.1,0,0-0.1,0.1-0.2
			c1.1-1.1,2-2.3,2.5-3.5c0.1-0.2,0-0.4-0.2-0.2c-0.8,1.4-1.9,3.2-3.1,3.9c-0.3,0.2-0.6,0.3-1,0.3c-0.6,0-0.4-0.1,0.2-0.5
			c1.2-0.7,2.8-2.9,3-3.6c0.1-0.2,0-0.3-0.1-0.3c-0.9,1.5-2.2,3.2-3.7,3.9c-0.8,0.4-1.8,0.5-2.3,0.2c-0.4-0.2-0.3-0.2,0.4-0.3
			c1.5-0.2,3.3-1.6,4.2-3.1c0.5-0.8,0.2-0.6-0.4,0.2c-1,1.4-3,2.7-4.3,2.6c-1.3-0.1-2-1.1-1.8-1.9c0.1-0.5,0.5-1,1.2-1.2
			c1.2-0.3,2,1.7,0.9,2c-0.4,0.1-0.5,0-0.4-0.1c0.8-0.4,0.5-1.3-0.2-1.4c-0.4-0.1-0.9,0.2-1,0.9c0,0.5,0.4,1,1.3,1
			c1,0,2.5-0.7,3.4-2c0.6-1,0.1-0.7-0.4,0c-0.4,0.6-1.8,1.4-1.9,1.4l0-0.7c0,0.1,2.1-1.3,2-2.4c-0.1-0.8,0-1,0.8-1
			c0.6,0,1.4,0.2,1.6,0.5c0.2,0.3,0.5,0.4,0.4-0.1c-0.2-0.8,0-0.9-0.4-0.7c-0.3,0.1-0.6-0.1-0.9-0.4c-0.3-0.2-0.7-0.3-1.2-0.3
			c-0.4,0-0.5,0-0.5-0.4c0-0.2,0.1-0.5,0-0.6c-0.1-0.3-0.6-0.5-1.1-0.9c-0.6-0.5-0.5-0.5,0.8-3.6c0.6-1.3,0.6-1.6,0.2-2.5
			c-0.5-1.5-0.6-2.1,0.4-2.3C31.1,17.9,31.7,17.9,32.3,17.9L32.3,17.9z M37.9,18.7l0.5,0.1c0,0,1.6,5.5,2.5,8.2
			c0.3,0.8,0.5,1.9,0.5,3c0,1.4-0.8,2.5-1.8,2.6c-0.7,0.1-1.4-0.3-1.8-1.1c-0.3-0.7-0.1-1.6,0.8-1.9c1.4-0.5,2.5,1.3,1.1,1.9
			c-0.7,0.3-1.4-0.2-1.1-0.9c0.2-0.4,0.9-0.4,1,0.1c0.1,0.5,0.3,0.3,0.2-0.1c-0.3-1-1.6-0.8-1.7,0.2c0,1.2,1.3,1.5,2,0.8
			c0.6-0.5,0.7-1.5,0.5-2.3c-0.2-1.7-1.2-4-1.9-6.5C38.6,21.6,38.1,20,37.9,18.7L37.9,18.7z M58.4,18.8l1,0.4l0,3.2l-0.8,0.3
			C57.4,21,58.3,18.8,58.4,18.8L58.4,18.8z M38.8,19l0.7,0.3c0.4,2.3,2.2,6.6,2.9,9.8c0.2,1.9,0.2,2.5-1.1,3.5v0h-0.7
			c0,0,0,0,0.3-0.3c1.7-1.3,0.7-4.1,0-6.3C39.8,22.5,38.8,19,38.8,19L38.8,19z M32.2,19.2c-0.1,0-0.2,0-0.3,0
			c-1.1,0.1-1.2,0.1-1.2,0.4c0,0.4,0.2,0.6,1.2,0.5c0.9-0.1,2.1,0,3,0.4c1,0.4,1.2,0.5,1.6,0.7c0.9,0.5,0.7,0-0.1-0.5
			C34.7,19.6,33.6,19.2,32.2,19.2L32.2,19.2z M39.9,19.4l0.7,0.3c0,0,0.2,0.5,0.2,0.8c0.6,2.9,2.4,6.1,2.6,9.5
			c0,1.1-0.1,2.1-0.9,2.6h-0.6c0.6-0.7,1.1-0.8,0.9-3.1C42.5,26.6,40.6,23,39.9,19.4z M41.1,19.8l0.6,0.2c0.7,3.9,4.2,9.7,2,12.5
			h-0.6c0.5-0.8,0.7-1.5,0.6-2.5C43.5,26.5,41.7,23.1,41.1,19.8L41.1,19.8z M42.1,20.2l0.7,0.2c0.9,3.9,4.3,10.4,1.9,12.2l-0.5,0
			C46,29.1,43.2,25.5,42.1,20.2z M43.3,20.6c0.2,0.1,0.5,0.2,0.7,0.2c0.7,3,2,5.9,2.5,8.7c0.2,1.5-0.1,2.7-1.1,3.1h-0.2
			c0.9-1.3,0.7-2.9,0.2-4.7C44.8,25.5,43.7,22.9,43.3,20.6z M32.9,20.6c-0.3,0-0.6,0-1,0.2c-0.3,0.1-0.3,0.4,0,0.4
			c0.1,0,0.3-0.1,0.4-0.1c0.8-0.1,1.8,0.1,2.9,0.9c0.3,0.2,0.6,0.3,0.7,0.4c0.2,0.2,0.4,0.2,0.4,0c0-0.1-0.5-0.4-0.9-0.7
			C34.6,21.1,33.8,20.6,32.9,20.6L32.9,20.6z M44.4,20.9L45,21c1.2,5.8,4,9.4,1.6,11.5h-0.6c0.6-0.7,0.9-1.7,0.7-2.9
			c-0.2-1.2-0.9-3.2-1.4-5C44.8,22.6,44.3,20.9,44.4,20.9L44.4,20.9z M45.3,21l0.6,0.1c0.7,2.3,1.8,5.3,2.4,7.7
			c0.4,1.5,0.2,3.3-0.7,3.7l-0.5,0c0.8-1.1,0.9-2.2,0.5-3.6C47,26,45.9,23.5,45.3,21z M48.8,21c0.6,2.4,1.9,6.1,2.4,7.4
			c0.7,1.3,0.5,3.2-0.5,4l-0.5,0c0.6-0.5,0.8-1.4,0.7-2.3c-0.3-2.6-2.1-6.2-2.7-9L48.8,21z M46.3,21.2l0.6,0.1
			c0.6,2.5,1.7,5,2.4,7.6c0.1,0.6,0.3,1.3,0.2,1.8c-0.1,1.1-0.5,1.9-0.9,1.9h-0.4c0.8-1,0.8-2.3,0.4-3.7
			C48.1,26.4,46.7,23.5,46.3,21.2z M31.2,21.2c-0.2,0-0.2,0.2,0.1,0.6c0.2,0.2,0.2,0.1,0.2,0.3c-0.1,0.6,0,1.1,0.3,0.5
			c0.1-0.2,0.2-0.3,0.2-0.3c0.2,0.1,0.1,0.4,0.2,0.5c0.1,0.3,0,0.3-0.3,0.3c-0.2-0.1-0.3,0.1-0.4,0.2c-0.3,0.3-0.2,0.5,0.2,0.4
			l0.2,0c0.1,0,0.2,0.1,0.5,0.3c0.4,0.3,0.9,0.7,1.3,0.8c0.6,0.1,0.4-0.2,0-0.4c-0.4-0.2-0.9-0.6-0.9-0.7c0-0.1,0.1,0,0.8-0.2
			c0.3-0.1,0.8-0.3,0.9-0.4c0.3-0.1,0.3-0.1,0.8-0.1c0.8,0,0.9,0,0.4-0.4c-1.2-0.9-2.7-1.4-3.5-1.1c-0.2,0.1-0.2,0-0.4-0.1
			C31.6,21.2,31.4,21.2,31.2,21.2L31.2,21.2z M47.8,21.3c0.8,3.1,2.4,5.9,2.7,8.9c0.1,0.8-0.1,1.7-0.8,2.4l-0.5,0
			c-0.1,0,0.7-1.1,0.6-2.1c0-0.5,0-1.1-0.2-1.6c-0.9-2.6-1.8-5-2.5-7.5L47.8,21.3z M33.4,22.3c0.2,0,0.2,0.1,0.1,0.2
			c-0.1,0.2-0.3,0.5-0.3,0.5L33,23C32.9,22.9,33.1,22.4,33.4,22.3L33.4,22.3L33.4,22.3z M33.9,22.4l0.1,0c0.2,0.1,0.6,0.3,0.4,0.4
			C34.2,23,33.5,23,33.5,23l0.2-0.4C33.8,22.4,33.8,22.4,33.9,22.4z M31.7,25.1L31.7,25.1c-0.1,0,0,0.2,0.1,0.4
			c0.6,0.9-0.2,1.1-0.9,0.7c-0.6-0.5-1.5-0.4-1.4,0.1c0,0.2,0,0.3,0.3,0.3c0.3,0,0.4,0,0.6,0.2c1,0.7,2.3-0.2,1.7-1.2
			C32.1,25.3,31.8,25.1,31.7,25.1L31.7,25.1z M34.2,26.5c-0.4,0-0.6,0.3-0.1,0.4c1.7,0.3,0.5,2-0.6,1.1c-1.1-1-2.5-0.9-2.5-0.3
			c0,0.2,0,0.2,0.3,0.2c0.6,0.1,1.5,0.4,1.8,0.5c0.2,0.1,0.4,0.2,0.5,0.2c0.7,0.3,1.6-0.1,1.8-0.7C35.4,27.4,35.2,26.5,34.2,26.5
			L34.2,26.5z M13.4,32c0.2,0,0.5,0.2,0.6,0.5c0.4,0.7,0.9,1.8,1.2,2.4c0.1,0.2,0.1,0.3,0.1,0.4c0,0.4,0.1,0.5,0.4,0.3
			c0.2-0.2,0.5-0.4,0.2-0.5c-0.3-0.3-0.5-0.6-0.3-0.9c0.2-0.2,0.1-0.3,0-0.3c-0.5,0-1.2-1.4-0.9-1.7c0.5-0.4,1,0.1,2,2.2
			c0.5,0.9,0.5,2,0.1,1.5c-0.1-0.1-0.1-0.1-0.3,0.3c-0.1,0.3-0.2,0.4-0.7,0.9c-0.6,0.5-0.9,1-0.9,1.1c0,0.2,0.3,0,0.5-0.3
			c0.5-0.5,0.6-0.7,0.5,0c0,0.6,0,0.7,0.1,0.7c0.2,0,0.3-0.5,0.3-1.1c0.1-0.5,0.4-0.8,0.8-1.1c0.1-0.1,0.1-0.1,0.1-0.4
			c-0.1-0.8,0.3-2.2,0.5-1.8c0,0.1,0.1,0.3,0.2,0.4c0,0.2,0.2,0.4,0.4,0.4c0.2,0.2,0.2,0.3,0.3,0.9c0,0.2,0.1,0.5,0.2,0.7
			c0.1,0.3,0.2,0.5,0.2,0.6l-0.1,0.1L15,39.8c0,0-0.3,0.2-0.4,0.2c-0.3,0.1-0.5,0-0.6-0.2c-0.8-1.2-1.4-2.6-2-3.9
			c-0.3-0.8,0-1.3,0.4-0.6c0.2,0.2,0.1,0.4,0,0.8c0,0.1,0.1,0.1,0.2,0.1c0.2,0,0.3,0.2,0.3,0.5c-0.1,0.5,0.1,0.2,0.1,0.2
			c0.2,0,0.2,0.1,0.3,0.3c0.1,0.3,0.2,0.2,0.4,0c0.2-0.2,0.2-0.2-0.2-0.5c-0.5-0.6-1.3-1.9-1.5-2.7c-0.1-0.2,0-0.4,0-0.5
			c0.2-0.5,0.6-0.5,0.9,0.2c0.1,0.1,0.2,0.3,0.3,0.5c0.1,0.2,0.2,0.4,0.2,0.7c-0.1,0.3-0.1,0.3,0,0.3c0.2,0.1,0.6,0.5,0.7,0.9
			c0,0.4,0.1,0.6,0.4,0.4c0.3-0.3,0.2-0.4-0.1-0.7c-0.4-0.4-0.4-0.8-0.2-1.1c0-0.1,0-0.1-0.1-0.1c-0.4,0-0.8-0.5-0.5-0.9
			c0.1-0.2,0.1-0.3-0.1-0.3c-0.1,0-0.3,0-0.3,0c-0.1-0.2-0.4-0.5-0.4-0.8C13,32.2,13.2,32,13.4,32L13.4,32z M37.7,32
			c0.7,0.4,1.3,0.8,2.1,1c-1.7,3.2-4.6,4.9-6.9,5.5c0.1,0.4,0.1,0.8,0.5,1.1c0-0.1-0.2-0.8-0.1-0.9c3.2-0.8,6.1-4,6.8-5.7l14.2-0.2
			c-10.6,10.2-11,24.5-2.4,36.6l-1,0.6c-6.6-10-6.6-19.7-4.6-26.1c1.4-4.6,3.9-8.1,5.9-10.1c0,0-7.7-0.1-11.6,0
			c-0.6,0.9-1.1,1.6-1.8,2.4c0,0,2-1.9,1.9-2.2c3.6,0,7.2-0.2,10.8,0c-4.2,5-6.2,10.2-6.6,15.1c0,0.6-0.1,0.3-0.3,0.5l-0.7,1
			l-0.5-1.1c-0.4-0.1-1.1,0.1-1.4,0c-1.5,6.6,0,14.5,1.9,19.7c0,0-0.5,0.3-1.1,0.2c-0.7-0.1-0.8,0-1.4,0.2c-0.6,0.1-0.9,0.1-1,0.3
			c-0.1,0.1-0.2,0.2-0.4,0.3c-1.6,0.6-3.4,2.7-3.4,2.7l-1.7-0.8c1.6-3.2,3.5-4.3,6.8-5.7l-0.3-1.4C38,66.4,35.8,68,34,71
			c-2.1,0-10.8-0.1-10.9-0.1c3.5-4.1,6.3-10.2,6.6-15c0.1-0.9-0.1-0.5,0.4-0.8l0.6-0.8l0.5,0.8c0,0,0.4,0.5,0.6,0.1
			c0.6-6.7,0-14.3-3.2-19.5c0.6,0,1.1-0.1,1.7,0.3c1.2,2.8,2,6.4,2.3,9c0.4,3.3,0.3,7.1-0.1,10.3l0.2,0c0.6-4.1,0.4-8.6-0.2-12.4
			c-0.3-2-1.2-5.2-1.9-6.6c-0.2-0.4-0.3-0.5-0.1-0.6C34.5,35.4,36.3,34.1,37.7,32L37.7,32z M26.9,32.4c0.3,0,0.5,0.2,0.5,0.5
			s-0.2,0.5-0.5,0.5s-0.5-0.2-0.5-0.5S26.6,32.4,26.9,32.4z M56.1,32.7c-1.1,1-2.1,2.1-3,3.3c2.8,3.9,6,8.2,8.7,11.6l0.9-0.6
			l-0.1-0.2c0,0.1-0.7,0.5-0.7,0.5l-8.4-11.1c0,0,0.5-0.5,0.6-0.7c0.7-0.2,2.5-2.5,2.6-2.4c1.4,1.1,5.7,5.7,7.4,7.2L64,53
			c-0.2,0.5-4.7,2.5-8,9.9c-1.6,0.9-3.4,1.4-5.1,2.2c0,0,0.4,0.7,0.6,0.9c-0.3-0.6-0.3-0.7,0.3-0.9l12.1-5l0,1
			c-1.2,0.9-9.2,6.8-11.7,8.2C40.6,53.1,48,39.2,54.7,32.7L56.1,32.7z M18.4,33.5c0.3,0,0.2,0.7,0.1,1c-0.2,0.2-0.5,0-0.5-0.3
			c0-0.1,0-0.2,0-0.2C17.9,33.9,18.2,33.5,18.4,33.5z M25.5,34c0.3,0.2,0.4,0.5,0.5,0.7c-0.4-0.1-1.3-0.3-0.9-0.5L25.5,34z M23.8,35
			c8.3,12.7,8,26.2-1.3,36.4l11.8,0c1.5-3,4-4.8,7.2-5.9l0.3,0.9c-3.7,1.2-5.5,3.2-7,5.9H20.6c5.4-5.8,7.9-10.8,8.3-17.5
			c0.4-6.4-1.2-12.2-6.1-19.2L23.8,35z M26.1,35.1l2,0.9l-0.3,2l-2.1-1L26.1,35.1z M22.6,35.7c10.5,16,6,27.3-2.4,36.7l-1.5,0L15,69
			l0.1,20.5c0,0-3.5,3.5-3.9,3.9c-0.4,0.4-0.7-0.2-0.7-0.2l0-27.2l0.2-1.1l0-5.9l2.2-1.2L21.3,69c0,0-0.3,0.5-0.5,0.6
			c0.2,0.4,0.8-0.6,0.8-0.8c-3-3.8-8.7-11.3-8.7-11.3l-2.4,1.2c0,0,0.1-4.9,0-6.7c0.1-0.4,0.4-0.3,0.6-0.5c3.1-2,5.6-4.9,7.8-9.8
			c1.6-0.5,3.4-1.3,5-2l-2.4-3.6L22.6,35.7z M16.1,35.9c-0.1,0-0.3,0.1-0.6,0.4c-0.6,0.5-1.3,1.4-1.3,1.5c0.2,0.1,0.3,0,0.4-0.2
			c0.5-0.7,1.2-1,1.6-1.6C16.3,35.9,16.2,35.9,16.1,35.9L16.1,35.9z M21.4,36.6c0,0,1.6,2.4,2.1,3c-4.3,1.7-8.8,4-12.8,5.4v-1
			C10.7,44.1,18.2,38.5,21.4,36.6z M27.8,38.2l1.6,0.8L29,40.9l-1.6-0.9L27.8,38.2z M29.1,41.2l1.3,1l-0.6,1.6l-1.3-0.9L29.1,41.2z
			 M18.3,42.4c0,0-0.2,0.7-0.5,1.4c-1.6,2.9-3.2,5.4-6.5,7.6c-0.1-0.1-0.5-0.7-0.5-0.7l0-0.8c1.8-1.4,3.3-2.5,5.6-6.6l0.7-0.3
			l0.6,0.2l0.4-0.7L18.3,42.4z M25.2,42.4c-1.5,3.3-3,6.6-5.5,9.2l6.6,9.3C28.6,54.3,27.8,48.1,25.2,42.4z M16.9,43.1l-0.3,0.6
			l0.6,0.3l0.3-0.6L16.9,43.1z M16,43.2c-1.2,2.7-3,4.8-5.4,6.3l-0.1-4L16,43.2z M16.4,44l-0.3,0.6l0.6,0.3l0.3-0.6L16.4,44z
			 M30,44.1l1.2,1.1l-0.7,1.3l-1.2-1L30,44.1z M48.3,44.6L48.3,44.6c-2.1,6.6-1.5,12.9,1.4,18.4c1.4-3.6,2.6-5.9,5.3-9.7
			C53.4,51.1,48.5,44.6,48.3,44.6L48.3,44.6z M15.9,44.7l-0.3,0.5l0.5,0.3l0.3-0.5L15.9,44.7z M25.1,45.5c1.9,4.6,1.7,8.7,0.7,12.3
			l-4.7-6C22.8,49.6,24,47.5,25.1,45.5z M15.4,45.5l-0.4,0.5l0.5,0.4l0.4-0.5L15.4,45.5z M14.9,46.3l-0.4,0.5l0.5,0.4l0.4-0.5
			L14.9,46.3z M30.5,46.8l1.1,1l-0.7,1.3l-1.1-1L30.5,46.8z M14.3,47.1l-0.4,0.5l0.5,0.4l0.4-0.5L14.3,47.1z M48.9,47.2l4.8,6.2
			c-1.6,1.9-2.9,4.2-4.1,6.6C48.2,55.8,47.6,51.7,48.9,47.2z M13.6,47.9l-0.4,0.5l0.5,0.4l0.4-0.5L13.6,47.9z M24.8,48.5l-2.2,3.2
			l2.5,3.2C25.4,53.1,25.4,51.1,24.8,48.5z M12.9,48.6L12.4,49l0.4,0.5l0.5-0.4L12.9,48.6z M12.2,49.2l-0.5,0.4l0.4,0.5l0.5-0.4
			L12.2,49.2z M30.9,49.5l0.9,1.1l-0.9,1.1l-0.9-1L30.9,49.5z M42.3,49.7l0.6,0c-1,9.9,1,15,2.7,19.3l-0.1,0.2
			c-0.3,0.1-0.9,0.2-1.3-0.2C41.9,63.1,41.4,55.6,42.3,49.7L42.3,49.7z M11.4,49.8l-0.5,0.4l0.4,0.5l0.5-0.4L11.4,49.8z M49.7,50.2
			c-0.2,0-0.3,4.1,0.3,6.1l2.2-3L49.7,50.2z M44,50.9l0.7,1l-0.8,1.1l-0.8-1L44,50.9z M10.8,51.1c0,0,0.1,0.1,0.2,0.2
			c0.1,0.1,0.1,0.1,0,0.2c-0.2,0.2-0.2,0.1-0.2-0.1C10.8,51.2,10.8,51.2,10.8,51.1L10.8,51.1z M30.9,51.9l0.8,1.2l-0.9,1.2L30.1,53
			L30.9,51.9z M43.9,53.4l0.9,1.1L44,55.6l-0.9-1.1L43.9,53.4z M63.7,53.6l0.1,1.2l-0.3-0.4L63,54.8l0.4,0.5l0.5-0.4l0,0.5
			c-3,2.2-4.3,4.7-5.5,6.6l-0.5,0.2l-0.6-0.2l-0.3,0.5l-0.5,0.1c0,0,1.1-2.3,2.9-4.7C60.8,55.9,63.7,53.6,63.7,53.6L63.7,53.6z
			 M64.1,55.5l0,4.3l-5.4,2.1C60.1,59.5,61.8,57.3,64.1,55.5z M62.7,55l-0.5,0.4l0.4,0.5l0.5-0.4L62.7,55z M62,55.6L61.5,56l0.4,0.5
			l0.5-0.4L62,55.6z M44,55.9l1,1.1l-0.7,1.3l-1.1-1L44,55.9z M61.2,56.3l-0.4,0.5l0.5,0.5l0.4-0.5L61.2,56.3z M60.5,57l-0.4,0.5
			l0.5,0.5l0.4-0.5L60.5,57z M59.8,57.9l-0.4,0.5l0.5,0.4l0.4-0.5L59.8,57.9z M44.3,58.6l1.3,0.8L45,61l-1.3-1L44.3,58.6z
			 M59.2,58.6l-0.4,0.5l0.6,0.4l0.4-0.5L59.2,58.6z M58.6,59.5L58.3,60l0.6,0.4l0.3-0.6L58.6,59.5z M58.1,60.3l-0.3,0.6l0.6,0.3
			l0.3-0.6L58.1,60.3z M57.6,61.1l-0.3,0.6L58,62l0.3-0.5L57.6,61.1z M45,61.5l1.3,0.9l-0.6,1.6l-1.4-1L45,61.5z M63.8,63V96H49.6
			c0,0-0.7-1.2-2.1-3.9c-0.6-1.2-1.1-1.7-1.1-2.6c0.1-0.5-0.2-1.2-0.6-1.4c-0.1-0.1-0.4,0-0.3-0.2c0.1-0.3-0.2-0.6-0.3-0.7
			c-0.1-0.1,0-0.2,0-0.7c0-0.5,0-0.8-0.1-1.2c-0.3-1-0.3-1.5-0.2-2c0.4-1.3,0.9-2.3,1.4-3.6c0.3-0.7,0.3-1-0.7-1.5
			c-0.8-0.4-0.9-0.4-0.8-1c0-0.3,0.1-0.4,0-0.6l-0.2-0.3c-0.1-0.1-0.1-0.3,0-0.4c0.1-0.1,0.1-0.3,0-0.6c-0.2-0.6,0.3-1.5,1.2-2.1
			c0.4-0.3,0.4-0.2,0.8,0.2c1.2,1.3,3,0.5,3-1.3c0-0.6-0.2-0.5,0.3-0.8c1.8-1.1,5.4-3.2,5.4-3.2c0.2,0.5,0.3,0.9,0.5,1.4
			c0.1,0.5,0.1,0.5,0.1,1.4c0,0.8-0.1,1,0.1,1c1.1,0.1,1.3-0.3,1.5-0.9c0.1-0.3,0.3-0.2,0.4-0.1c0.4,0.7,0.9,1.5,1.2,2
			c0.4,0.7,1.1,1,1.5,0.7c0.1-0.3,0.1-0.3,0.6-0.2c0.6,0.1,0.9-0.2,0.9-0.6c0-0.2-0.1-0.2,0.2-0.3c0.7-0.6,0.5-1.3,0.4-1.8
			c0,0,0.3-0.2,0.3-0.6c0-2.2-1.9-5.4-1.8-5.4L63.8,63z M45.8,64.3l1.5,0.7l-0.4,1.8l-1.6-0.7L45.8,64.3z M60.6,65
			c0.9,1,1.5,2.7,1.8,3.8c0.2,0.6,0.2,1.2,0,1.3c-0.1,0.1-0.2,0-0.2-0.3c0-0.3,0-0.5-0.1-0.5c-0.3,0.1-0.4-0.4-0.3-0.6l0.1-0.2
			c0.1-0.2-0.1-0.2-0.4-0.2c-0.2,0-0.3-0.1-0.2-0.3c0-0.2-0.3-0.2-0.4,0c-0.1,0.1-0.1,0.3,0.1,0.4c0.3,0.2,0.6,0.6,1.2,2.1
			c0.4,0.9,0.3,1.5-0.2,1.5c-0.3,0-0.7-0.9-1-1.5c-0.1-0.2,0.1-0.4,0.2-0.4c0.2-0.2,0.1-0.3-0.1-0.3c-0.2,0-0.3,0-0.5-0.3
			c-0.1-0.1-0.1-0.3-0.1-0.4c0.1-0.3-0.1-0.4-0.4-0.3c-0.3,0.1-0.3,0.4,0.2,0.9c0.3,0.5,0.2,0.5-0.1,0.8c-0.1,0.1,0,0.2,0.1,0.2
			c0.4-0.1,0.8,0.6,0.7,0.8c-0.1,0.1-0.4,0.5-0.1,0.4c0.6-0.2,1,0.7,0.6,1c-0.5,0.3-0.7,0.2-1.5-1.5c-0.3-0.5-0.6-1.1-0.6-1.1
			c0-0.1-0.1-0.2-0.1-0.3c0-0.3-0.1-0.4-0.4-0.2c-0.2,0-0.4,0.2-0.1,0.4c0.3,0.5,0.4,0.6,0.2,0.7c-0.4,0.3-0.2,0.3,0.2,0.4
			c0.2,0.1,0.3,0.2,0.4,0.3c0.2,0.5,0.6,1.1,0.6,1.3c0.1,0.3-0.1,0.5-0.4,0.5c-0.3,0-0.5-0.2-0.6-0.5c-0.6-0.8-1-1.6-1.6-2.5
			l0.1-0.9l0.2,0c0.2-0.1,0.3-0.3,0.4-0.7c0.2-0.3,1.1-1,1.4-1.4l0.1-0.2c0-0.1-0.4,0-0.7,0.3c-0.4,0.3-0.5,0.2-0.5-0.2
			c0-0.5-0.4-0.3-0.4,0.3c0,0.4-0.2,0.7-0.5,0.9c-0.5,0.4-0.5,0.3-0.4,0.9c0,1.1-0.4,1.9-0.6,1.4c-0.1-0.2-0.2-0.4-0.4-0.4
			c-0.2,0-0.3-0.2-0.3-0.6c-0.1-0.7-0.3-1.1-0.5-1.7L60.6,65z M47.1,67.3l1.8,0.7l-0.3,1.8l-1.7-0.7L47.1,67.3z M60.5,67.4
			L60.5,67.4c-0.5,0.4-1,0.8-1.5,1.1c-0.2,0.1-0.4,0.4-0.4,0.5c0,0.1,0.2,0.1,0.5,0c0.2-0.1,1.5-1.3,1.5-1.4
			C60.6,67.6,60.6,67.4,60.5,67.4z M44.4,69.7c0.4,0,0.2,0.1-0.7,0.8c-0.9,0.6-2.3,2.6-2.5,3.3c-0.1,0.3,0.1,0.4,0.4-0.1
			c1.1-2.1,3.1-4,5-3.9c0.9,0,1.4,0.3,0.6,0.4c-2.1,0.3-3.6,1.4-5,3.8c0,0.1,0.1,0.1,0.3,0c1.2-1.5,2.6-3.5,5.1-3.4
			c1.8,0.1,2.3,2.2,0.8,2.9c-1.3,0.6-2.5-0.9-1.4-1.8c0.3-0.3,0.6-0.2,0.2,0.1c-0.7,0.6,0.2,1.8,1,1.4c0.5-0.2,0.7-1,0.3-1.6
			c-1-1.3-3.3-0.3-4.8,1.8c-0.2,0.2-0.3,0.7-0.2,0.6c0.2-0.1,0.4-0.3,0.5-0.5c0.6-0.8,1-1.2,1.7-1.6c0.6-0.3,0.6-0.3,0.4,0.3
			c-0.1,0.2-0.2,0.3-0.4,0.5c-0.9,0.6-1.5,1.5-1.6,2.1c0,0.4,0.3,0.9,0,1c-0.5,0.3-2,0-2.4-0.5c-0.3-0.4-0.4-0.2-0.2,0.4
			c0.1,0.4,0.1,0.6,0.3,0.6c0.3-0.1,0.5-0.1,1,0.2c0.3,0.1,0.7,0.3,1,0.3c0.5,0.1,0.6,0.1,0.6,0.3c0,0.1,0,0.3,0,0.4
			c-0.1,0.7,0.5,0.9,1.2,1.3c0.4,0.3,0.3,0.5-0.2,1.8c-0.3,0.6-0.5,1.3-0.8,1.9c-0.3,0.6-0.3,1.3-0.1,2.1c0.4,1.5,0.6,2.2,0,2.4
			c-1.6,0.3-5.3,0.2-7.3-0.5c-0.5-3.8-3.2-9.5-2.8-11c0.7,1,3.6,0.8,2.7-2.2c0,0,0.2-0.4,0.7-0.8c1.2-1.2,1.5-1.4,0.9-0.4
			c-0.4,0.8-1,1.9-1,2.1c0,0.2,0.1,0.2,0.2,0.1c0.1-0.1,0.2-0.3,0.2-0.5c0.7-1.7,2-3.2,2.8-3.6c0.2-0.1,0.2,0,0.1,0.2
			c-1,1.3-1.8,2.4-2.3,3.9c0,0.2,0.2,0.2,0.3,0.1c0.9-2,1.2-2.4,2.4-3.8c0.5-0.5,0.9-0.8,1.2-0.8c0.3,0,0.2,0.1-0.1,0.4
			c-0.2,0.2-0.5,0.5-1,1.2c-0.9,1.1-1.7,2.9-1.4,2.8c0.1,0.1,0.3-0.3,0.6-0.8c0.6-1.1,1.3-2.5,2.8-3.4
			C43.7,69.8,44.1,69.7,44.4,69.7L44.4,69.7z M15.2,70l2.7,2.7l5.4-0.1c-0.9,1.4-0.4,3.5,0.1,4.8c1,2.5,2.4,6.6,2.3,6.6
			c0,0-0.8,0.2-0.9,0.7c-0.1,0.7,0.2,0.7-0.2,1.4c-0.1,0.2,0,0.4,0.1,0.7c0.1,0.2,0.1,0.4,0,0.6L19.9,96h-9.1v-1.7l4.6-4.6l-0.1-3.4
			c2.5,0.7,3.3,3.3,3.5,5.2c4.5-4.1,4.3-10.3,0.1-14.1c-0.8,4.1-3.8,4.9-3.7,4.9L15.2,70z M48.8,70.5c0.3,0,0.7,0.1,0.9,0.2
			c-0.2,0.1-0.3,0.2-0.4,0.4C49.2,70.8,49,70.7,48.8,70.5z M56.3,70.6c0.2,0,0.5,0.7,0.4,0.9c-0.1,0.1-0.4,0.1-0.5,0.1
			C56,71.4,56,70.6,56.3,70.6z M47.7,71.8c0.3,0,0.6,0.3,0.6,0.6s-0.3,0.6-0.6,0.6c-0.3,0-0.6-0.3-0.6-0.6S47.4,71.8,47.7,71.8z
			 M24,72.6l0.4,0c-0.7,1-0.8,1.8-0.6,3.1c0.3,1.4,2.5,6.6,2.7,8l0,0.2L26,84l-0.1-0.2c-0.8-2.6-1.5-4.6-2.1-6.1
			C23.3,76.1,22.5,73.6,24,72.6L24,72.6z M27,72.6L27,72.6l0.4,0c0,0-0.6,1.2-0.6,2c0,0.8,0.2,1.8,0.4,2.7c0.7,2,1.6,4.1,2.1,6.6
			l0.1,0.3L28.8,84l-0.1-0.3c-0.4-2.2-1.5-4.4-2.2-6.5c-0.3-1-0.6-2.2-0.5-3.1C26.2,73.4,26.9,72.6,27,72.6L27,72.6z M31.7,72.6
			c-0.4,0.6-0.8,1.4-0.8,2.1c0,1.2,0.3,2.2,0.7,3.2c1,3.2,1.5,4.9,2.1,7.4L33,85.1l0-0.2c-0.3-1.6-0.3-1.5-2.1-6.8
			c-0.4-1.3-0.8-2.4-0.7-3.5c0-0.6,0.5-1.8,1.1-1.9L31.7,72.6z M32.3,72.6h0.5c0,0-0.3,0.3-0.4,0.4c-0.9,1.3-0.6,2.6-0.2,4.2
			c0.6,2.2,1.8,4.7,2.4,8.1v0.4L34,85.5c-0.6-3.1-1.9-6.3-2.6-9.1c-0.4-1.6-0.3-2.7,0.6-3.6C32.3,72.6,32.3,72.6,32.3,72.6z
			 M26,72.6h0.4c0,0-0.6,1.1-0.6,1.7c-0.1,1.1,0.3,2.4,0.8,3.7c0.7,2,1.7,4.4,1.9,5.7l0,0.3l-0.7,0c0,0,0-0.3-0.1-0.5
			c-0.8-2.7-1.5-4.5-2.4-7c-0.1-0.4-0.4-1.9-0.1-2.8C25.5,72.9,26,72.6,26,72.6L26,72.6z M25,72.6l0.4,0c0,0-0.1,0.1-0.2,0.4
			c-0.8,1.4-0.4,2.7,0.1,4.1c0.6,1.9,1.6,4.2,2.2,6.4c0,0.1,0.1,0.5,0.1,0.5l-0.6,0l-0.1-0.5c-0.3-2-2.2-5.4-2.6-7.9
			C23.9,74.1,24.1,73.3,25,72.6z M30.6,72.6c0,0-0.7,1.1-0.7,1.8c-0.1,1.3,0.3,2.3,0.7,3.7c0.8,2.4,1.9,5.3,2,6.6l0,0.2l-0.7-0.2
			l0-0.2c-0.6-2.4-1.3-4.7-2.2-7.4c-0.2-0.9-0.5-1.8-0.5-2.6c0.1-1,0.3-1.3,0.9-1.9L30.6,72.6z M33.6,72.6l0.5,0
			c0,0-0.2,0.1-0.6,0.5c-2.2,2,1.3,7.6,2.1,12.7l0,0.2l-0.6-0.2C35.1,85.6,35,85.3,35,85c-0.7-2.6-1.5-5.3-2.3-7.7
			c-0.4-1.8-0.6-3.3,0.2-4.2C33.1,72.8,33.6,72.6,33.6,72.6z M28,72.6l0.6,0c-0.4,0.5-0.7,1.4-0.7,2.1c0,0.9,0.2,1.7,0.5,2.6
			c0.6,1.8,1.4,3.8,2,6.3c0,0.2,0.1,0.3,0.1,0.3c0,0.1,0.1,0.3,0.1,0.3l-0.6-0.1l-0.1-0.2c-0.1-0.1-0.1-0.3-0.2-0.5
			c-0.3-1.3-1.4-4.2-2.1-6.3C27,75.9,26.9,73.6,28,72.6L28,72.6z M35.2,72.6c0.7,0,1.4,0.6,1.6,1.2c0.2,0.6,0,1.3-0.7,1.7
			c-1.1,0.6-2.3-1-1.4-1.8c0.7-0.6,1.7-0.2,1.4,0.6c-0.1,0.5-0.9,0.6-1.1,0c0-0.2-0.1-0.4-0.2-0.3c-0.4,1,1,1.4,1.6,0.5
			c0.3-0.7-0.3-1.7-1.3-1.5c-1.3,0.2-1.5,1.9-0.9,3.9c0.8,3.1,2.6,7.3,2.6,9.2l0,0.1l-0.6-0.2l0-0.1c-0.3-2.7-2.3-7.1-2.9-10.5
			c-0.2-1.5,0.4-2.7,1.7-3L35.2,72.6z M29.5,72.7c-0.4,0.5-0.7,1.4-0.7,1.9c0,0.9,0.3,1.7,0.5,2.6c0.6,2.2,2.1,6.3,2.1,7l0.1,0.3
			l-0.6-0.2c0,0,0,0-0.1-0.1c-0.2-0.8-1.1-4-2.1-6.8c-0.4-1.1-0.6-2-0.6-2.7c0.1-1,0.4-1.5,0.8-2L29.5,72.7z M40.5,76.3
			c-1.5,0.1-1.3,1.9-0.4,2.2c0.3,0.1,0.5,0,0.6-0.1c0.1-0.1,0-0.2-0.2-0.2c-0.6-0.2-0.9-0.9-0.3-1.3c0.3-0.2,0.8-0.1,1.4,0.4
			c1.1,0.8,2.4,0.8,2.2,0c0-0.2-0.1-0.2-0.9-0.3c-0.6-0.1-0.9-0.3-1.2-0.4C41.2,76.4,40.8,76.3,40.5,76.3z M19.1,78
			c3.9,3.8,3.3,9.7,0,12.7c-0.1-0.2-0.2-0.8-0.2-0.8c2.5-2.6,3.6-6.8,0.1-11.2C19,78.7,19,78.4,19.1,78L19.1,78z M43.3,78.1
			L43.3,78.1c-1.1,0.3-1.3,1.3-0.7,1.7c0.4,0.3,0.7,0.1,0.2-0.2c-0.4-0.3-0.2-0.9,0.3-0.9c0.2,0,0.4,0.1,0.9,0.5
			c0.5,0.3,0.9,0.4,1-0.1c0.1-0.3,0-0.4-0.3-0.3c-0.1,0-0.2,0-0.4-0.2C43.9,78.3,43.5,78.1,43.3,78.1z M18.7,78.9
			c3.5,4.1,2.4,8.3,0,10.8c-0.6-1.9-2.2-3.1-2.2-3.1c0.6-1.3,0.9-2.7-0.2-4.5C17.4,81.1,18.2,80.1,18.7,78.9z M41.3,80.3
			c-0.2,0-0.1,0.2,0.3,0.4c0.9,0.6,1,0.7,0.1,0.7c-0.2,0-0.6,0.1-0.8,0.2c-1.2,0.4-1.2,0.4-1.8,0.2c-0.2,0-0.4-0.1-0.5,0
			c-0.1,0.1-0.3,0.2-0.1,0.4c0.1,0.1,0.3,0.2,0.6,0.4c1.3,0.8,1.5,1,3,1c0.2,0,0.3-0.1,0.4-0.1c0.3,0,0.4,0.1,0.7,0.3
			c0.5,0.4,0.5,0.1,0.2-0.5c-0.1-0.3-0.3-0.4-0.2-0.6c0.2-0.5-0.1-0.6-0.4-0.2c-0.2,0.4-0.3,0.4-0.5-0.1c-0.3-0.6-0.2-0.9,0.3-0.5
			c0.3,0.3,0.4,0.1,0.6-0.2c0.2-0.3,0.1-0.6-0.2-0.5c-0.2,0-0.3-0.1-0.5-0.2C42.3,80.8,41.8,80.4,41.3,80.3z M41.7,81.9L41.7,81.9
			c0.1,0.2-0.1,0.6-0.2,0.8c0,0.1-0.1,0.1-0.2,0.1c-0.3,0.1-0.3,0-0.2-0.2C41.2,82.4,41.3,82,41.7,81.9L41.7,81.9L41.7,81.9z
			 M40.9,82c0.1,0,0.1,0,0.1,0.1c-0.1,0.2-0.2,0.3-0.3,0.5c-0.2,0.1-0.6-0.3-0.4-0.4C40.5,82.2,40.7,82.1,40.9,82L40.9,82L40.9,82z
			 M16.1,82.3l0.2,0c0.8,1.1,0.8,2.9,0.1,3.8l-0.2,0.1c-0.3-0.2-0.6-0.2-0.9-0.3v-3.3C15.6,82.5,15.8,82.3,16.1,82.3L16.1,82.3z
			 M38.2,82.6l0,0.1c1.2,0.9,2.9,1.9,4.5,1.5c0.1,0,0.3-0.1,0.2-0.3c0-0.1-0.2-0.2-0.3-0.1c-0.4,0.1-1,0.1-1.3,0.1
			c-1.1-0.2-2-0.9-2.8-1.3L38.2,82.6L38.2,82.6z M37.9,83.5c-0.1,0-0.1,0.1,0,0.2c0.2,0.5,1.9,1.7,3.3,2.1c1.2,0.3,2.9,0,2.8-0.6
			c-0.1-0.3-0.3-0.4-1-0.3c-1.7,0.3-3.2-0.4-4.4-1.1C38.1,83.6,37.9,83.5,37.9,83.5z M27,84.2c0.7,0,1.4,0.1,2.2,0.2
			c1.5,0.3,3.2,0.7,4.7,1.4c2.5,0.9,5.7,1.7,8.3,1.6c0.7,0,1.8,0,2.1-0.1c0.6-0.1,0.8,0,0.9,0.7c0,0.2,0.1,0.2,0.3,0.4
			c0.3,0.2,0.3,0.4,0.2,0.9c0,0.4,0.2,0.6,1.2,2.4c1.1,2,2.2,4.4,2.2,4.4c-9.6,0-18.8-0.4-28.7-0.1c0.9-2.1,3.3-5.9,4.8-9
			c-0.4-0.9,0.1-1.1-0.1-1.3c-0.3-0.5-0.1-1.3,0.6-1.4C26.2,84.2,26.6,84.2,27,84.2z"/>
		<path class="st5" d="M20.6,96.1c0,0,3.2-6.4,4.5-8.4c1.9-2.4,10.6,1.1,14.8,1.9c1.7,0.3,5.8,0.2,5.8,0.2l3.4,6.1L20.6,96.1z
			 M14,88.8l-0.1-20l1,0.6l0.2,20.1l-4.3,4.1l0-1.2L14,88.8z M16.6,86.5c1-2.1-0.1-4.6-0.1-4.6c0.6,0.1,2.2-3,2.4-2.9
			c2.5,3.1,3,7.7-0.1,10.6C18,87.6,16.6,86.5,16.6,86.5L16.6,86.5z M18.5,72.3c1.9-2,3.4-3.5,4.9-5.7c0.1-0.2-8.1-10.7-7.9-10.8
			c1.3-1.4,3-2.4,4.3-4.1c0,0,6.7,8.9,6.9,8.8c0.7-2.8,1.2-5.3,1-8.2c-0.4-7.4-3.6-12-3.6-11.9C23,47.2,12.6,57.5,10.5,56.8l0-4.8
			c0.1,0.2,6.6-4.2,8.3-10.1c0.1-0.4,5.2-2,5.1-2.1c-0.2-0.6-2.4-3.7-2.4-3.7s0.9-0.4,1-0.4c2.9,3.6,5,8.3,5.8,12.8
			c0.9,4.8,1.5,13.9-8.2,23.9L18.5,72.3z M47.4,59.8c-1.5-4.7-1.5-9.6-0.8-13c1.1-6.2,4.9-10.6,8-14l1.3,0c0,0-1.6,1.7-2.2,2.3
			c-1,1.2-2.5,3.6-2.5,3.6l8,10.6l4.6-1c0,0-0.1,4.7,0,4.7c-3.6,3-6.1,5.7-8,10c-1.1,0.4-4.9,2-4.9,2c-1.8-0.4,5.3-11.6,3.9-11.8
			c-0.6-0.5-6.7-8.8-6.8-8.8c-2.8,8.7-0.1,17.8,4.9,24.2c-0.6,0.4-1.1,0.7-1,0.6C50,66.4,48.1,62.8,47.4,59.8L47.4,59.8z M32.7,55.5
			c0.3,0.5,1.7-10.6-2-19.5c0.4-0.3,3.5-0.9,3.5-0.9l0.8,2.7l-2.1,0.9l0.4,1.2c1.6-0.8,5.2-2,7.4-5.6c0,0,10.6-0.1,10.9-0.1
			c0.2,0-2.2,2.3-4.4,7c-1,2.1-1.9,4.9-2,8.1c0,0.6-2.4-3-2.4-3c0.6-3.1,2.2-6.1,3.8-9.1c0,0-2.4-0.1-4.2-0.1
			c-2.7,2.9-4.3,4.5-8.3,5.9c1.5,4.7,10.4,7,8.4,6.5c-0.4-0.1-0.9,4.3-0.5,9.3c0.1,4,2.2,10.6,2.3,10.6c0,0-1.4,0.3-1.5,0.1
			c0.2-0.1-2.1,0.5-2.1,0.5l-0.8-2.5l2.3-1.1l-0.4-1.4c0,0-5,1.5-7.5,5.9l-11,0c4.2-4.6,6-9.2,6.9-15.3
			C30.8,55.9,32.7,55.5,32.7,55.5L32.7,55.5z M59.7,15.5c1.4-1.2,4.2-4.2,4.2-4.2l0,1.6l-3.1,3.3l0,20.3l-1.1-1L59.7,15.5z
			 M58.2,22.9c-0.6,0.3-1.7,1.6-2.2,3.1c-3.6-3.3-2.1-9.3-0.1-10.6c0.6,1.3,2.3,3.1,2.2,3C57.7,19.9,57.4,21.3,58.2,22.9z M26,9.3
			l28.1,0c-1.6,3.2-3.1,5.7-4.8,8.9c-0.9,1.1-20.1-3.5-20.2-3L26,9.3z"/>
		<path class="st7" d="M10.8,92l-0.2-26.7l3.2,3.1L14,88.9L10.8,92z M25.4,86.8c-0.7,0.1-0.3-0.5-0.2-1.1c0.1-0.3-0.2-0.6-0.2-0.7
			c0-0.6,0.4-0.8,2.4-0.8c4.6,0.3,7,1.8,9.6,2.5c2.5,0.7,5,0.6,7.8,0.6c0.2,0.1,1,2.1,0.8,2.3C39.4,90.8,31.3,86.1,25.4,86.8
			L25.4,86.8z M36.8,73c-0.7-0.5-1.3-0.6-1.9-0.7c1.1-1.9,2.4-3.7,4.6-4.8l1,2.5C39.2,70.8,38,71.6,36.8,73L36.8,73z M23.5,66.4
			c0,0-0.9,1.6-1.8,2.3c-2.7-3.6-8.6-11.2-8.6-11.2l-2.5,1.3c0,0,0-1.5,0-1.6c6.8-3.5,11.5-10.2,13.5-16.4c0,0,1.1,1.1,1,1.6
			c-1.8,4.9-5,9.9-9.6,13.6L23.5,66.4z M32,59.1l8.6,0l0.4,3c-3.3,1.1-6,3.4-8.5,6l-4.1-0.1C29.7,65.1,31.5,62.2,32,59.1L32,59.1z
			 M63.8,46.5c0.3,0.8,0,1.8,0.1,1.7c-10.3,5.1-13.2,16.4-13.2,16.4s-1-1.6-0.9-1.8c5.3-11.9,8.9-12.3,9.6-13.6l-8.1-10.6l1.8-2.5
			l8.7,11.4C62.6,47.1,63.1,46.8,63.8,46.5z M58.7,61.9c1.7-3.2,3.5-5,5.3-6.3L64,59.8L58.7,61.9z M10.6,49.5l0-4l5.3-2.3
			C14.5,46.4,12.5,48.1,10.6,49.5z M34.2,45.9L33.9,43c3.2-1.4,6.1-3.3,8.4-5.9c2.5-0.1,4.1,0,4.1,0c0,0-2.3,3.5-3.9,8.9L34.2,45.9z
			 M60.9,16l2.9-3l0.1,26.6l-2.9-2.9L60.9,16z M35.1,37.6L34.2,35c1.5-0.6,2.6-1.8,3.6-2.9c0.7,0.6,1.6,0.9,1.9,1
			C40.1,33.1,36.8,37.2,35.1,37.6z M29.6,17.7c0,0-0.4-0.2-0.3-0.5c0.1-0.4-0.4-1.3-0.4-1.3c6.2-1.9,15.3,3.5,20.7,2.3
			c0,0.4,0,0.8-0.1,1.2c0.2,0.8,0.3,0.8-0.4,1.2c-3.8,1.1-7.8-1.2-11.5-2.3C34.6,17.4,32.1,17.6,29.6,17.7L29.6,17.7z"/>
		<path class="st8" d="M25.6,8.9l1.1,2.2l-0.2,0.1c0.3,0.5,0.6,1.1,0.9,1.6l0.2,0c0.4,0.7,0.5,1,1,1.8l-0.2,0
			c0.1,0.4,0.4,0.6,0.4,0.9c0,0.3-0.1,0.7,0.1,0.9c0.2,0.3,0.3,0.3,0.2,0.5c-0.1,0.4,0.2,0.9,0.6,0.9c2.7-0.4,5.5-0.1,8.3,0.8
			c2,0.6,3.8,1.3,5.4,1.8c0.5,0.2,1.6,0.4,2.5,0.5c2.6,0.2,4-0.3,3.6-1.4l-0.1-0.2c0-0.1,0-0.2,0.1-0.3c0.4-0.4,0.2-0.7-0.1-1.2
			c0,0,3.3-5.9,4.9-8.8L25.6,8.9z M54,9.4l-2.4,4.2c-1.3-0.2-1.6,0.8-1.6,1c-1.7-0.4-1.4,1.7-0.6,1.9c0.1,0.3-1.4,0.7-2.1,0
			c1.1,0.2,1.6-1.4,0.2-1.7c1.9-1.4-1.6-3.5-1.7-0.6c-1.6-0.3-1.4,1.9-0.4,2.1c-0.5,0.6-2.1,0.6-2.9-0.6c1.4,0.7,2.1-1.1,0.7-1.7
			c1.8-1.6-1.7-3-1.6-0.5c-1.3-0.8-2.2,1.2-0.5,1.5c-0.1,0.4-2.4,0.4-3-0.6c1.6,0.4,1.7-1.6,0.3-1.8c1.4-1.8-2.2-2.8-1.6-0.3
			c-1.4-0.6-1.9,1.2-0.6,1.8c0.1,0.3-2.2,0.5-3-0.5c1.8-0.3,1.2-2,0-1.9c0,0,0,0,0.1-0.2c0.5-1.7-2.4-1.9-2,0
			c0.1,0.2,0.1,0.4,0.1,0.4c-0.8-0.2-1.3,0.2-1.2,0.9c0.2,1,0.7,0.9,1.4,0.7c0.3,0.3-1.6,1.3-2.8,0.4c1.5-0.4,0.7-2.2-0.5-1.9
			c-0.1-0.6-0.6-1.3-1.4-1l-0.8-1.6L54,9.4z M56.4,32.5l-1.7,0c-1.2,1.2-10,9.4-8.5,21.7c0.6,5.3,2.1,9.8,6,15.2l1-0.6l0.2,0.1
			l10.8-6.3l0-1.9l-12.6,5.3c-0.2-0.3-0.4-0.6-0.6-0.9l5-2.2c0,0,0.1-0.3,0.2-0.4c1.7-4.2,5-7.3,7.9-9.6c0-4.1,0-12.8,0-12.8
			l-7.6-7.6c-1,0.9-1.8,1.8-2.7,2.8l8.7,11.5l-0.8,0.5l-8.6-11.5C54.2,34.7,55.3,33.6,56.4,32.5L56.4,32.5z M64.1,40
			c0,0,0-19.8-0.1-29.3l-4.5,4.7l0,20L64.1,40z M63.8,12.6l-3.2,3.3l0,20.4l-0.8-0.8l0-19.8l4-4.2L63.8,12.6z M32.8,12.1
			c0.1,0.2,0.1,0.4-0.1,0.6c-0.7,0.8,1.4,2.2,2.9,2c1.1-0.2,2.1-0.9,1.7-1.4c-0.3-0.4-0.1-0.8,0.3-0.8c0.4,0,0.7,0.3,0.4,0.8
			c-0.8,1,0.4,2.2,2.3,2.2c1.3,0,1.8-0.3,1.7-1.3c0-0.4,0.1-0.6,0.4-0.6c0.5-0.1,0.7,0.5,0.3,0.9c-0.9,0.9,0.1,2.3,1.8,2.4
			c0.6,0,0.7,0,1.4-0.4c0.5-0.3,0.7-0.8,0.5-1.1c-0.3-0.5,0.1-1,0.6-0.8c0.4,0.2,0.6,0.4,0.1,0.9c-0.5,0.6-0.3,1.2,0.8,1.5
			c0.8,0.3,1.4,0.2,1.7-0.1c0.1-0.1,0.4-0.3,0.4-0.3c-0.3,0.4-0.5,0.9-0.5,0.9c-1.7,0.8-3-0.7-3-0.7c-1.7,1-3.3,0.8-4.6-0.9
			c-0.3,0.2-2.8,0.6-4.5-1.3c-1.8,0.9-3.4,0.5-4.9-0.5c-1.1,1-2.2,1.2-3.4,0.7l-0.4-0.7c0.1,0,0.5,0.7,2.3,0.4
			c0.6-0.1,1.7-1.2,1.1-1.7c-0.3-0.4-0.3-0.6,0-0.8C32.2,11.8,32.6,11.9,32.8,12.1L32.8,12.1z M28.2,13c0.1,0.2,0.1,0.5,0,0.3
			c-0.1-0.1-0.4-0.6-0.4-0.6C28,12.8,28.2,12.9,28.2,13L28.2,13z M63.8,13.2l0,26.3l-2.7-2.7l-0.1-20.6L63.8,13.2z M32.4,14.5
			l0.9,0.5l-1.5,0L32.4,14.5z M37.2,14.9l0.7,0.7l-1.5-0.3L37.2,14.9z M50.6,15.3L50.3,16C50.1,15.8,50,15.3,50.6,15.3z M56,26.2
			c0.5-1.2,1.3-2.8,2.5-3.3c-0.9-1.8-0.8-3.5-0.1-4.5c-0.9-0.8-1.8-1.8-2.4-3.3C53.1,17.7,52.7,22.8,56,26.2z M55.9,15.7l0.2,0.5
			c-2.5,3.1-1.7,7.1,0.1,9.3L55.9,26C53.7,23.6,52.8,18.7,55.9,15.7z M40.9,17.4c2.9,0.9,5.2,2.2,8.6,1l0,0.7
			c-2.1,1.4-6.4-0.1-9.3-1.1c-4.6-1.7-8.2-1.6-10.8-1.4c-0.2,0-0.4-0.6,0-0.6C34.3,15.8,33.5,15.2,40.9,17.4z M41.6,16.2l1,1
			c-0.7-0.2-1.4-0.5-2.1-0.8L41.6,16.2z M56.2,16.5l0.2,0.3c0.1,0.1-0.5,0.2-0.4,0L56.2,16.5z M39.8,18.4c3.5,1.3,7.3,2.6,9.8,1.4
			c0,0,0,0.5-0.3,0.6c0,0-0.3,0.2-1.1,0.3c-4.1,0.3-6.7-1.4-10-2.4c-1.2-0.4-3.2-0.8-5.3-0.9c-1.2-0.1-3.1,0.1-3.1,0.1
			c-0.4,0-0.4-0.3-0.4-0.5C33,16.6,36.2,17,39.8,18.4z M56.5,17.1l0.1,0l0.4,0.5l-0.4,0.7c0,0-0.4-0.3-0.6-0.7
			C55.9,17.3,56.2,17.1,56.5,17.1z M46.3,17.2l1.1,0.8c-0.8,0-1.8,0.1-2.7-0.3L46.3,17.2z M55.6,17.7c0.1,0,0.2,0.1,0.3,0.3
			c0.2,0.4,0.2,0.4-0.2,0.5c-0.5,0.2-0.6,0.1-0.4-0.3C55.4,17.8,55.5,17.7,55.6,17.7z M57.3,17.9l0.7,0.6c-0.4,1.1-0.7,2.4,0.1,4.4
			c-0.1,0-0.6,0.5-0.8,0.6C56.9,23.3,55.9,19.4,57.3,17.9z M56.4,18.7l-0.2,1.2c0,0.1-0.8-0.6-0.7-0.9
			C55.6,18.6,56.1,18.7,56.4,18.7z M55.1,19.1c0.1,0,0.3,0.2,0.4,0.5c0.1,0.2,0.1,0.3-0.2,0.6c-0.5,0.5-0.6,0.3-0.5-0.5
			C54.9,19.4,55,19.1,55.1,19.1L55.1,19.1z M56.1,20.2l0.2,0.1l0.1,1.2c0,0.1-0.9,0-1-0.5C55.1,20.6,55.7,20.2,56.1,20.2L56.1,20.2z
			 M54.9,21.2c0.1,0,0.3,0.1,0.5,0.2c0.3,0.2,0.3,0.3,0.1,0.7c-0.3,0.4-0.5,0.4-0.6-0.4C54.8,21.4,54.8,21.2,54.9,21.2z M56.2,21.6
			L56.2,21.6c0.2,0.2,0.5,1.3,0.4,1.4c-0.1,0.2-0.9-0.1-1.1-0.3C55.4,22.5,55.9,21.6,56.2,21.6z M55.3,23c0.1,0,0.2,0.1,0.5,0.2
			c0.1,0.1,0.4,0.2,0.4,0.3c0.1,0.2-0.1,0.5-0.3,0.7c-0.1,0.2-0.3,0-0.5-0.5C55.2,23.3,55.1,23,55.3,23z M56.8,23.5L56.8,23.5
			c0.3,0.2,0.3,0.6,0,0.9c-0.4,0.4-0.7,0.1-0.4-0.4C56.5,23.7,56.7,23.5,56.8,23.5z M35.2,34.3c-0.2,0-0.6,0.2-0.7,0.4
			c-0.2,0.3-0.4,0.2-0.6,0.2c-0.3,0-0.6,0.1-1.2,0.3c-0.3,0.1-0.4,0.2-0.9,0.2c-0.3,0-0.6,0.1-0.6,0.1c-0.1,0-0.3,0.1-0.5,0.2
			c-0.4,0.1-0.2,0.2,0,0.7c1.1,2.9,1.9,6.3,2.2,9c0.3,3.2,0.2,7-0.2,9.9c-1.1,0-1.7,0-2.9,0c-0.8,6.3-2.9,11.3-7.1,15.9l11.3,0
			c1.3-3.5,7.2-6.1,7.4-5.9l0.3,1.3c0,0-4.3,0.6-7.1,6.1c0.3-0.2,1.4-0.1,2.1,0.7c1.4-1.8,3.7-3,3.7-2.9l0.1-0.2
			c0,0,0.4-0.1,0.8-0.2c0.1,0,0.4-0.1,0.5-0.1c0.3-0.1,0.4-0.2,0.8-0.1c0.8,0.1,1.6-0.2,1.6-0.2c-2.4-6.7-3-12.7-2-19.7
			c0.9,0,2.8,0,2.8,0c0.2-2,0.4-3.9,1-5.8c0.8-2.4,1.7-4.6,3.2-6.6c0.8-1.3,1.6-2.2,2.5-3.4l-11.1,0c-1.5,2.5-4.3,4.6-6.6,5.4
			c-0.8,0.3-0.9,0.2-1-0.1c-0.2-0.7-0.2-0.6,0.4-0.8c0.2-0.1,0.8-0.4,1.9-0.9c2.1-1.1,3.6-3.1,4.5-4.4c0.3-0.5,0.1-0.4-0.5-0.4
			c-0.5,0-0.8-0.2-1.3-0.7c-0.2-0.2-0.3-0.3-0.3-0.3C37.1,32.7,36.1,33.9,35.2,34.3L35.2,34.3z M37.8,32.2c0.5,0.5,1.1,0.9,1.9,1
			c-1.2,2-2.8,3.5-4.5,4.4L34.3,35C36.5,34,37.1,33,37.8,32.2z M55.9,33c-11.7,10.9-11,24.7-2.8,35.8l-0.9,0.5
			c-7.7-10.4-9.1-25.8,2.7-36.4L55.9,33z M48.5,34.3l2.9,0l-2,2.6l-2.6,0L48.5,34.3z M48,34.3l-1.6,2.5l-4.3,0.1
			c-2.6,3.2-5.3,4.8-8.2,5.8L33.4,40c0,0,4.5-1.1,7.4-5.7L48,34.3z M43.7,34.5l-1,1.1l1,1.1l0.9-1.1L43.7,34.5z M45.9,34.5l-1,1.1
			l0.8,1.1l1-1L45.9,34.5z M40.9,34.7l-0.2,1.7l1.3,0.4l0.2-1.4L40.9,34.7z M48.9,34.7l-0.9,1.5l1.4,0l1-1.5L48.9,34.7z M34,35.1
			l0.9,2.6l-0.8,0.4l-0.8-2.7L34,35.1z M32.9,35.5l1,2.7l-0.8,0.3l-0.9-2.8L32.9,35.5z M34,46c0.1,3.7,0.2,5.9-0.5,9.2
			c0,0.2-0.7,0-0.7,0c0.1,0,0.4-3.7,0.3-6c0-4.4-0.8-8.8-2.5-13.2c0.3-0.2,1.1-0.3,1.1-0.3C33,39.1,33.9,42.6,34,46z M22.5,35.8
			c3.8,5.1,6.5,11.9,6,18.7c-0.4,7.9-3.4,12.4-8.6,17.8l-1.3,0c6.2-5.9,8.9-11,9.1-17.7c0.2-7.7-2.1-12.9-6-18.3L22.5,35.8z
			 M10.4,42.7l0,1.8L23.3,39l-1.9-2.8L10.4,42.7z M40.6,36.7l-1.4,0.1l0,1.4l1.5,0L40.6,36.7z M53.1,36.4l8.4,11L59.4,49l-8-10.4
			L53.1,36.4z M46.6,37.2l2.5,0l-1,1.6l-2.4,0L46.6,37.2z M46.1,37.2c-1.1,2.2-2.7,4.6-3.6,8.6l-8.2,0c0-0.9-0.1-1.8-0.3-2.7
			c3.5-1.3,6.3-3.3,8.3-5.8L46.1,37.2z M47.7,37.3L46.6,38l0.7,0.8l1.2-0.5L47.7,37.3z M37.9,38.1l-0.4,1.4l1.3,0.5l0.2-1.7
			L37.9,38.1z M45.5,39.2l2.4,0l-1,2l-2.4,0L45.5,39.2z M51.2,38.9l7.9,10.3l-0.7,0.6l-7.7-10.1L51.2,38.9z M46.4,39.3l-1.1,0.9
			l0.8,0.9l1-0.8L46.4,39.3z M36,39.4l-0.3,1.4l1.4,0.4l0.2-1.5L36,39.4z M34,40.3l-0.3,1.3l1.3,0.4l0.3-1.3L34,40.3z M23.3,40.2
			c0.1,0-0.2,1.6-0.6,1.9c-0.2,0.1-0.3,0.1-0.5-0.1c-0.1-0.1-0.7-1-0.7-1l0.5-0.2c0.6,0.9,0.6,0.5,0.8-0.3L23.3,40.2z M21.1,41.1
			c0.2,0,0.4,0.2,0.7,0.7c0.4,0.6,0.4,0.7-0.2,0.9C20.4,43,20,43,20.4,42.3C20.7,41.5,20.9,41.1,21.1,41.1L21.1,41.1z M24.3,41
			l0.7,1.3c-3,7.6-7.7,13-14.3,16.3l0-1.3C18.5,52.9,21.6,47.6,24.3,41z M44.4,41.5l2.3,0l-0.6,1.8l-2.5,0L44.4,41.5z M20.4,41.5
			c-1.9,4.5-4.5,8.5-9.7,11.9l0-1.2C16.5,48.6,19,42,19,42L20.4,41.5z M49.8,41.5c1.4,0,2.8,1.6,2.7,2.8c-0.1,0.9,0.1,1.5,0.3,1.2
			c0.5-0.8,2.1-0.3,2.1,0.7c0,0.5-0.3,0.6-0.5,0.1c-0.3-0.7-1.1-0.7-1.2,0C53,46.9,53.5,47.4,55,48c1.8,0.4,2.8,2,2.2,2.9
			c-0.2,0.2-0.3,0.3-0.4,0.2c0,0-0.1-0.2-0.1-0.4c-0.2-1-0.7-1.4-1.2-1c-0.3,0.2-0.2,0.4-0.1,0.7c0.2,0.4,0.1,0.5-0.3,0.3
			c-0.6-0.3-0.8-1-0.2-1.4c0.7-0.3,0.5-0.3-0.4-0.6c-1.9-0.7-2.7-1.9-2.8-4.1c0-1-0.1-1.4-0.6-1.6c-0.4-0.1-1,0.4-0.6,0.7
			c0.2,0.2,0.3,0.3,0.2,0.4c-0.3,0.3-1-0.2-1-0.7c0-0.3,0.1-0.4,0.6-0.8c0.1-0.1,0-0.3-0.2-0.3C49.3,42.5,49.4,41.5,49.8,41.5z
			 M45.5,41.7l-1.2,0.7l0.6,0.9l1.3-0.6L45.5,41.7z M22.9,42.4c0.1,0,0.2,0.1,0.2,0.2s-0.1,0.2-0.2,0.2c-0.1,0-0.2-0.1-0.2-0.2
			S22.7,42.4,22.9,42.4z M25.2,42.5c2.5,5.4,3,11.6,1.3,17.7l-6.6-8.7C22.5,48.6,24.2,45.3,25.2,42.5L25.2,42.5z M16.3,42.9
			l-5.9,2.5l0,4.5C13.6,47.6,15,45.3,16.3,42.9z M22,42.8c0.6,0,0.3,1.6-0.5,2.1c-0.3,0.2-0.5,0.2-0.6-0.2c0-0.2-0.3-0.7-0.6-1.1
			c-0.3-0.4-0.3-0.5,0.2-0.5C21.1,43.2,21.5,42.9,22,42.8L22,42.8z M21.4,43.5c-0.4,0-0.6,0.2-0.3,0.5c0.2,0.2,0.4,0.2,0.5-0.2
			C21.7,43.6,21.6,43.5,21.4,43.5z M10.7,49.3l0-3.8l5.1-2.1C14.8,45.6,12.9,47.8,10.7,49.3L10.7,49.3z M55.7,52.4L55,53.1l-6.5-8.6
			l0.4-1.1L55.7,52.4z M19.9,43.7c0.2,0,0.7,0.8,0.9,1.3c0.1,0.4,0,0.5-0.8,0.6c-0.3,0.1-1.2,0-1.1-0.2C19,45.1,19.8,43.7,19.9,43.7
			L19.9,43.7z M43.5,43.8l2.4,0l-0.5,2l-2.5,0L43.5,43.8z M44.6,43.9l-1.1,0.8l0.9,0.9l1.2-0.7L44.6,43.9z M48.3,44.8l6.6,8.6
			c-2,2.5-3.9,5.4-5.2,9.3C47.3,57.1,46.5,51.7,48.3,44.8z M21.5,45.5c0.1,0,0.2,0.1,0.2,0.2S21.6,46,21.5,46
			c-0.1,0-0.2-0.1-0.2-0.2S21.3,45.5,21.5,45.5z M20.7,45.8c0.4,0,0,1.4-0.6,1.8c-0.5,0.4-0.7,0.2-0.8-0.5c0-0.3-0.3-0.7-0.5-1
			c-0.3-0.4-0.2-0.4,0.5-0.3C19.7,46,20.3,45.8,20.7,45.8z M42.8,46.1l2.5,0l-0.4,3L42.8,46.1z M18.5,46.3c0.4,0.4,0.9,1.7,0.6,1.8
			c-0.3,0.1-1.6,0-1.8-0.2c-0.1-0.1-0.1-0.1,0.1-0.4c0.1-0.2,0.4-0.5,0.5-0.7C18.1,46.5,18.2,46.1,18.5,46.3z M19.8,46.3
			c-0.4,0-0.4,0.1-0.2,0.5c0.1,0.3,0.2,0.4,0.5,0.1C20.5,46.6,20.3,46.3,19.8,46.3z M63.7,46.6l0.1,1.5
			c-9.6,4.8-13.2,16.1-13.3,16.1l-0.7-1.3C54.3,51.9,60.1,48.8,63.7,46.6z M18.4,48.3c0.6,0,0.7-0.1,0.7,0.2c0,0.6-0.5,1.4-1.2,1.7
			c-0.4,0.2-0.4,0.2-0.5-0.3c0-0.4-0.2-0.9-0.4-1.3c-0.1-0.2-0.3-0.5,0-0.4C17.4,48.3,18.1,48.3,18.4,48.3L18.4,48.3z M19.7,48.2
			c0.1,0,0.2,0.1,0.2,0.2c0,0.1-0.1,0.2-0.2,0.2c-0.1,0-0.2-0.1-0.2-0.2C19.5,48.3,19.6,48.2,19.7,48.2z M16.7,48.5
			c0.1,0,0.2,0.2,0.3,0.5c0.3,0.7,0.3,1.1,0.3,1.2c-0.1,0.2-1.7,0.1-2-0.2C15.2,50.1,16.4,48.7,16.7,48.5z M17.8,48.7
			c-0.2,0-0.1,0.2,0.1,0.5c0.1,0.3,0.3,0.3,0.5,0.1c0.2-0.3,0.3-0.5,0.1-0.6C18.2,48.7,18.1,48.7,17.8,48.7z M63.8,50.2l0,0.5
			c-0.4-0.1-0.6-0.3-1-0.4c-0.3-0.1-0.4-0.2-0.2-0.4c0.4-0.4,0.8-0.7,1.2-1l0,0.6C63.1,49.7,63.1,50,63.8,50.2L63.8,50.2z M36,49.7
			h2.7v1.8h2.1l-0.2,2h-1.9v1.8H36v-1.8h-1.9l0.2-2H36L36,49.7z M42,49.7c-1.3,6.7-0.1,13.8,2,19.6l-1,0.1
			c-1.6-4.6-2.9-11.2-1.6-19.7C41.3,49.7,41.8,49.7,42,49.7L42,49.7z M61.7,49.8c0.1,0,0.2,0.1,0.2,0.2c0,0.1-0.1,0.2-0.2,0.2
			s-0.2-0.1-0.2-0.2C61.5,49.9,61.6,49.8,61.7,49.8z M15,50.4c0.1,0,0.4,0.1,0.6,0.2c0.4,0.1,0.6,0.1,1,0.2c0.7,0,0.7,0,0.5,0.6
			c-0.2,0.4-0.7,0.9-1,1.1c-0.5,0.2-0.6,0.2-0.6-0.2c0-0.3-0.1-0.8-0.3-1.2C15,50.6,14.9,50.4,15,50.4z M17.8,50.6
			c0.1,0,0.2,0.1,0.2,0.2c0,0.1-0.1,0.2-0.2,0.2c-0.1,0-0.2-0.1-0.2-0.2C17.6,50.7,17.7,50.6,17.8,50.6z M62.5,50.6
			c0.2,0,0.5,0.1,0.8,0.3C64,51.2,64,51.3,63,52c-0.8,0.6-0.9,0.6-1-0.3C62,51,62.1,50.6,62.5,50.6L62.5,50.6z M14.6,50.8
			c0.3,0,0.6,1.6,0.4,1.8c-0.4,0.2-1.8-0.2-1.8-0.6C13.2,51.9,14.5,50.8,14.6,50.8L14.6,50.8z M61.5,50.7c0.2,0,0.2,0.1,0.2,0.7
			c0,0.3,0,0.7,0.1,0.9c0,0.4,0,0.5-0.3,0.3c-0.2-0.1-0.7-0.3-1.1-0.4c-0.4,0-0.4-0.2-0.3-0.5C60.4,51.2,61,50.8,61.5,50.7z
			 M15.8,51c-0.3,0-0.2,0.1,0,0.5c0.1,0.3,0.3,0.3,0.5,0.1c0.3-0.3,0.2-0.5-0.2-0.6C16,51,15.8,51,15.8,51L15.8,51z M61.2,51.4
			c-0.1,0-0.3,0.1-0.3,0.1c-0.3,0.2-0.4,0.3,0,0.4c0.3,0.1,0.5,0.2,0.5-0.1C61.3,51.6,61.3,51.4,61.2,51.4L61.2,51.4z M36.3,51.6
			v1.8h2.1v-1.8H36.3z M59.3,51.7c0.1,0,0.2,0.1,0.2,0.2s-0.1,0.2-0.2,0.2c-0.1,0-0.2-0.1-0.2-0.2C59.1,51.8,59.2,51.7,59.3,51.7z
			 M19.7,52l6.7,8.6L26,61.7l-6.9-9.1L19.7,52z M63.8,52l0,1.1c-0.8,0.6-5.5,4-8,9.9l-1.3,0.6C56.4,58.5,60.3,54.2,63.8,52L63.8,52z
			 M13.1,52.4c0.4,0.1,0.8,0.4,1.3,0.5c0.5,0.1,0.6,0,0.5,0.3c-0.3,0.5-0.8,1.1-1.4,1.3c-0.4,0.1-0.6,0.1-0.5-0.2
			c0.1-0.5,0.1-0.9,0.1-1.3C13.1,52.8,12.9,52.5,13.1,52.4L13.1,52.4z M12.6,52.5c0.3,0.2,0.2,1.7-0.1,2.1c-0.2,0.2-0.6,0-1.3-0.4
			c-0.5-0.3-0.5-0.4-0.3-0.6C11.3,53.4,12.4,52.5,12.6,52.5L12.6,52.5z M60.2,52.6c0.1,0,0.3,0,0.5,0.1c0.8,0.2,1,0.4,0.3,0.9
			c-0.3,0.2-0.5,0.5-0.6,0.6c-0.4,0.5-0.6,0.1-0.7-0.7C59.7,52.8,59.8,52.5,60.2,52.6L60.2,52.6z M59.2,52.6c0.1,0,0.2,0.1,0.2,0.2
			c0,0.2,0.2,1.2,0.2,1.4c0.1,0.4,0,0.5-0.3,0.3c-0.3-0.1-1-0.3-1.3-0.2c-0.4,0-0.4-0.1-0.3-0.4C57.9,53.3,58.8,52.6,59.2,52.6
			L59.2,52.6z M13.5,53c-0.2,0-0.2,0.2-0.1,0.7c0,0.2,0.2,0.2,0.4,0c0.3-0.2,0.3-0.4-0.1-0.6C13.7,53,13.6,53,13.5,53z M15.4,53
			c0.1,0,0.2,0.1,0.2,0.2s-0.1,0.2-0.2,0.2c-0.1,0-0.2-0.1-0.2-0.2S15.3,53,15.4,53z M58.4,54c0.1,0.1,0.5,0.1,0.6,0
			c0.1-0.1,0.1-0.6,0-0.7C58.7,53.3,58.3,53.8,58.4,54z M18.4,54.9c0.1,0.7,1.1,0.7,1-0.1c-0.1-0.4-0.1-0.4,0.1-0.4
			c1,0,0.8,1.6-0.3,1.5c-0.2,0-0.3,0.1-0.1,0.2c0.2,0.1,1,0.3,1.1,0.3c1.3,0,3.1,1.9,3,3.7c0,1.1,0.4,1.9,0.7,2
			c0.3,0.1,0.8-0.2,0.7-0.6c-0.1-0.5,0.3-0.3,0.6,0c0.3,0.5-0.1,1.2-0.9,1.1c-0.3,0.1,0.3,0.3,0.7,0.4c0.4,0,0.1,0.5,0,0.6
			c-0.2,0.3-1,0.1-1.5-0.4c-0.7-0.6-1-1.4-1.1-2.9c-0.1-1-0.1-1.2-0.4-0.8c-0.5,0.9-1.7,0.5-1.9-0.5c-0.1-0.5,0.4-0.9,0.5-0.4
			c0.4,1,1.3,0.7,1.2-0.2c-0.1-0.6-0.7-1-1.9-1.3c-1.5-0.4-1.9-0.9-2.2-2.1c-0.1-0.5-0.1-0.8,0.2-1.1c0.1-0.1,0.3-0.3,0.3-0.3
			S18.3,54.5,18.4,54.9L18.4,54.9z M56.9,54.1c0.1,0,0.2,0.1,0.2,0.2s-0.1,0.2-0.2,0.2c-0.1,0-0.2-0.1-0.2-0.2S56.8,54.1,56.9,54.1z
			 M10.7,54.3c0.4,0.2,0.8,0.4,1.3,0.6c0.3,0.1,0.2,0.3-0.1,0.7c-0.3,0.4-0.7,0.6-1.1,0.8l0-0.7c0.6-0.2,0.9-0.7,0-0.8L10.7,54.3z
			 M58,54.7c0.2,0,0.4,0,0.7,0.1c0.7,0.1,0.8,0.2,0.4,0.7c-0.2,0.2-0.4,0.5-0.5,0.6c-0.4,0.6-0.6,0.4-0.8-0.4
			C57.5,55,57.4,54.7,58,54.7z M12.9,55c0.1,0,0.2,0.1,0.2,0.2s-0.1,0.2-0.2,0.2c-0.1,0-0.2-0.1-0.2-0.2S12.7,55,12.9,55z
			 M57.3,55.5c0.1,0.2,0.2,0.6,0.2,0.8c0.4,0.8,0.1,0.5-0.5,0.4c-0.5,0-1.2,0-1.4-0.1c-0.1-0.1,0-0.4,0.1-0.7c0.2-0.4,0.6-0.8,0.9-1
			C57.4,54.7,57.2,55.1,57.3,55.5L57.3,55.5z M16.5,55.2l7.6,10.1l-0.6,0.9l-7.8-10.4L16.5,55.2z M64.2,55.3c-4,2.9-5.5,6.4-5.8,6.8
			l5.8-2.3L64.2,55.3z M56.7,55.6c-0.2,0.1-0.5,0.5-0.4,0.6c0.1,0.1,0.4,0.1,0.6,0C57.1,56.2,56.9,55.6,56.7,55.6z M23.3,66.6
			l-1.6,2.1l-8.5-11l2.1-1.6L23.3,66.6z M63.8,55.9l0.1,3.8l-5,2.1C60.6,58.9,62.2,57.2,63.8,55.9z M29.9,56.2l2,2.6l-2.4-0.1
			L29.9,56.2z M55,56.4c0.1,0,0.2,0.1,0.2,0.2s-0.1,0.2-0.2,0.2s-0.2-0.1-0.2-0.2S54.9,56.4,55,56.4z M56.5,57
			c0.9,0,1.2,0.1,0.9,0.5c-0.4,0.4-0.6,0.9-0.9,1.3c-0.2,0.2-0.5-0.2-0.7-1C55.6,57.2,55.7,57,56,57C56.4,57,56.4,57,56.5,57z
			 M55.4,57.8c0.1,0.2,0.2,0.6,0.4,0.9c0.1,0.2,0.3,0.5,0.3,0.6c0,0.1-0.1,0.1-0.4,0c-0.5-0.2-1.7,0-1.8-0.1c-0.2-0.3,0.1-1,0.6-1.5
			c0.2-0.2,0.5-0.4,0.6-0.4C55.3,57.3,55.3,57.5,55.4,57.8z M13,57.7l8.6,11.2L21,69.6l-8.7-11.5c0,0-1.4,0.7-1.8,0.9l0.1,5.8
			l-0.2,0l0,29.5l4.8-4.8l-0.1-20c1,1,1.9,2,3.1,2.9l2,0c5.2-5.3,8.1-9.9,8.7-18.1c0.4-5.5-1.4-12.3-6.2-19l-1.2,0.7l2.3,3.5
			l-4.9,2.2c-1.9,4.1-4.3,8-8.5,10.1l0,5.4l-0.1,0.1l0.1,1.7L13,57.7z M55,58c-0.2,0-0.6,0.5-0.4,0.7c0.2,0.1,0.5,0.1,0.6-0.1
			C55.3,58.5,55.2,58.1,55,58z M29.3,59.2l2.5,0l-0.7,2.2l-2.5,0L29.3,59.2z M53.3,59.2c0.1,0,0.2,0.1,0.2,0.2s-0.1,0.2-0.2,0.2
			c-0.1,0-0.2-0.1-0.2-0.2S53.2,59.2,53.3,59.2z M40.5,59.3l0.3,2.8c-2.8,1-5.7,2.7-8.3,5.9c-0.4,0-4,0-4,0c0.1,0,3.3-6.1,3.6-8.7
			L40.5,59.3z M30.5,59.5l-1.2,0.8l0.9,1l1.2-0.8L30.5,59.5z M54.6,59.5c0.2,0,0.6,0,0.8,0.1c0.4,0.1,0.5,0.1,0.3,0.4
			c-0.2,0.5-0.6,1.3-0.7,1.4c-0.4,0.2-1.3-1.5-1-1.8C54.1,59.6,54.3,59.5,54.6,59.5L54.6,59.5z M53.5,60.1c0.1,0,0.3,0.2,0.3,0.4
			c0.1,0.2,0.4,0.8,0.7,1.1c0.3,0.3,0.3,0.4-0.2,0.4c-0.5,0-1.1,0.1-1.4,0.3c-0.5,0.2-0.5,0.1-0.5-0.4C52.6,61,53.1,60.1,53.5,60.1z
			 M53,61.8c0.1,0.2,0.8-0.1,0.8-0.3c0-0.1-0.3-0.6-0.5-0.6C53.1,60.9,53,61.5,53,61.8z M28.7,61.7l2.4,0l-0.8,2l-2.4,0L28.7,61.7z
			 M29.7,61.9l-1.1,0.7l0.9,0.9l1.1-0.8L29.7,61.9z M54,62.3c0.2,0,0.4,0,0.5,0.1c0.1,0.2-0.4,1.4-0.4,1.4l-0.8,0.3
			c-0.2-0.4-0.5-0.8-0.6-1.2c0-0.2,0.1-0.2,0.3-0.4C53.2,62.4,53.7,62.3,54,62.3L54,62.3z M51.8,62.4c0.1,0,0.2,0.1,0.2,0.2
			s-0.1,0.2-0.2,0.2c-0.1,0-0.2-0.1-0.2-0.2S51.6,62.4,51.8,62.4z M40.9,62.4c0,0,0.5,2.9,0.5,2.6c-4,1.5-6.3,3.7-7.4,5.9l-7.5,0
			l1.7-2.6l4.4,0C34.8,65.7,37.4,63.6,40.9,62.4z M39.9,63.1l-0.4,1.2l1.1,0.7l0.4-1.3L39.9,63.1z M52.2,63.1c0.1,0,0.2,0.2,0.4,0.5
			c0.1,0.3,0.3,0.6,0.3,0.6l-0.3,0.1c-0.3-0.9-0.5-0.6-0.5,0.2l-0.5,0.2c0,0,0-0.8,0.3-1.2C52,63.3,52.1,63.1,52.2,63.1z M27.8,63.9
			l2.3,0l-1,2l-2.4-0.1L27.8,63.9z M37.9,64.1l-0.2,1.5l1.2,0.3l0.2-1.4L37.9,64.1z M28.8,64.1l-1.1,0.7l0.8,1l1.1-0.7L28.8,64.1z
			 M36.1,65.4l-0.2,1.4l1.2,0.3l0.3-1.4L36.1,65.4z M10.7,65.5l2.9,2.9l0.2,20.4l-2.9,2.9L10.7,65.5z M26.6,66.3l2.3,0.1L28,68
			l-0.8,0l1.1-0.7l-0.7-0.9l-1.1,0.7l0.6,0.9l-1.6,0L26.6,66.3z M41.7,66.8l0.8,2.6l-1,0.2l-0.7-2.5C41.1,66.9,41.4,66.9,41.7,66.8
			L41.7,66.8z M34.2,66.9l0,1.6l1.3,0.1l0-1.5L34.2,66.9z M40.6,67.2l0.7,2.5l-0.6,0.2l-0.9-2.4C40.1,67.3,40.3,67.2,40.6,67.2z
			 M39.5,67.7l0.9,2.5c-1.3,0.5-2.6,1.7-3.6,2.8c-0.7-0.6-1.2-0.6-1.6-0.7C36.4,69.8,37.9,68.6,39.5,67.7L39.5,67.7z M25.4,68.3
			l2.5,0.1L26.1,71l-2.8,0L25.4,68.3z M32.7,68.4l-0.2,1.5l1.3,0.8l0.2-1.5L32.7,68.4z M31.1,68.6l-0.9,1l1,1.1l0.9-1.2L31.1,68.6z
			 M29,68.7l-1.1,1l0.9,1.2l1-1.2L29,68.7z M14.9,69.6L15,89.5l-4.1,4l0-1.1l3.2-3.4c0-6.7,0-13.5,0-20.2L14.9,69.6z M25.7,69
			l-1.1,1.5l1.3,0l1-1.5L25.7,69z M18.8,78.6c-0.4,1.6-2.5,3.4-2.5,3.3c1,1.5,1,3.5,0.1,4.6c0,0,1.6,1.3,1.9,2
			c0.1,0.3,0.2,0.6,0.3,0.9l0.2,0.3C22.7,85.7,20.8,80.9,18.8,78.6z M18.8,79c3.9,4.8,1.3,9.2,0,10.4l-0.3-0.4
			c2.9-3.4,1.6-7.5,0-9.4L18.8,79z M18.4,80c0,0.1,0.2,0.3,0.1,0.3l-0.2,0L18.4,80z M18.4,80.5l0.2,0.1c0.1,0.1-0.3,1.2-0.6,1
			c-0.1-0.1-0.2-0.3-0.2-0.4c-0.1-0.2,0-0.3,0.2-0.4C18.1,80.6,18.2,80.5,18.4,80.5L18.4,80.5z M18.9,80.8c0.2,0,0.5,0.6,0.5,1.1
			c0,0-0.7-0.1-0.8-0.3C18.6,81.4,18.8,80.9,18.9,80.8z M17.4,81.3c1.2,2.3,1.1,4.2,0.1,5.9l-0.8-0.7c0.5-1.3,0.8-2.7-0.1-4.4
			L17.4,81.3z M18.2,81.9c0.1,0,0.3,0,0.5,0.1c0.8,0.2,0.8,0.8,0.1,1.1c-0.3,0.2-0.4,0.1-0.6-0.7C18.1,82.1,18.1,81.9,18.2,81.9
			L18.2,81.9z M19.7,82.8c0.1,0,0.2,0.3,0.2,0.8c0,0.5-0.1,0.5-0.5,0.2c-0.4-0.4-0.5-0.4-0.1-0.7C19.5,82.9,19.6,82.8,19.7,82.8
			L19.7,82.8z M18.6,83.6c0.1,0,0.3,0.1,0.5,0.3c0.5,0.4,0.4,0.7-0.2,0.9c-0.4,0.1-0.4,0.2-0.4-0.6C18.6,83.8,18.5,83.6,18.6,83.6z
			 M25.7,84.2C25,84.4,24.8,85,25,85.5c0.1,0.2,0.2,0.2,0.1,0.4c-0.2,0.2-0.3,0.7-0.1,0.9c0.3,0.1,0.3-0.1,0.1,0.4l-4.9,9l29.3-0.1
			l-3.5-6.6c0,0,0.3-1.1-0.3-1.2c-0.2,0-0.3-0.2-0.3-0.4c0-0.5-0.2-0.7-0.3-0.9c-2.8,0.4-5.2,0.2-7.2-0.3c-2.9-0.7-4.9-1.8-6.3-2.1
			C29.6,84.2,27.4,84,25.7,84.2L25.7,84.2z M27.2,84.3c2.3,0,4.8,0.7,6.6,1.5c1.8,0.8,3.8,1.3,5.8,1.6c1.6,0.2,3.3,0.1,4.8,0
			c0.2,0,0.3,0,0.5,0.1c0.3,0.4,0.1,0.6-0.7,0.7c-1.3,0.1-2.9,0.1-4.3-0.2c-2.3-0.3-4.7-0.9-6.7-1.8c-2.6-1-5-1.3-6.8-1
			c-1,0.2-1.2,0.2-1.2-0.1C25.1,84.5,25.6,84.3,27.2,84.3L27.2,84.3z M19.8,85.9c-0.1,0.2-0.8-0.5-0.8-0.7c0-0.1,0.6-0.5,0.8-0.6
			c0.1-0.1,0.1,0,0.1,0.1C19.9,84.9,19.9,85.6,19.8,85.9z M18.7,85.3c0.3,0,0.9,0.9,0.4,1.1c-0.4,0.1-0.8,0.2-0.8-0.1
			C18.5,85.6,18.6,85.3,18.7,85.3L18.7,85.3L18.7,85.3z M37.7,88.3c2.1,0.4,4.8,0.6,6.6,0.4c1-0.1,1.2-0.1,1.2,0.4
			c0,0.3,0,0.3-1.3,0.3c-1.1,0.1-2.1,0-3.1-0.1c-2.2-0.1-4.2-0.5-6-1.1c-2-0.5-3.8-1.6-5.8-1.8c-1.8-0.2-3.5,0.1-3.8,0.3
			c-0.1,0-0.2-0.2-0.2-0.3c0-0.2,0.1-0.3,0.2-0.4C30.6,84.7,33.5,87.5,37.7,88.3z M19.4,86.6c0.2,0,0.1,0.3-0.2,0.8
			c-0.2,0.5-0.3,0.5-0.5,0c-0.1-0.5-0.1-0.6,0.2-0.6C19.1,86.7,19.2,86.6,19.4,86.6z M18.2,86.8c0.2,0,0.5,0.9,0.3,1.1
			c-0.1,0.1-0.5,0-0.7-0.1C17.7,87.6,17.9,86.8,18.2,86.8z M27.4,87.1c0.8,0,1.6,0.1,2.4,0.2c-0.4,0.2-0.9,0.3-1.3,0.6
			C28.2,87.6,27.8,87.3,27.4,87.1z M28.4,88.2c2.9-1.6,4.1,0.6,4.5,1c2.5-0.6,3-0.3,4.4,1.2c2.5-1.2,3.8-0.2,4.8,0.5
			c1.2-1.2,2.8-1.2,3.6-0.6c0.2,0.3,0.4,0.6,0.4,0.7c0,0.1-0.1,0-0.4-0.2c-1.5-1.1-3.9,0.3-3.3,1.7c0.2,0.4,0.1,0.5-0.1,0.7
			c-0.4,0.3-0.8-0.2-0.6-0.6c0.4-0.7,0.1-1.3-1-1.9c-1.5-0.8-4,0.1-3.4,1.3c0.3,0.4,0,0.6-0.4,0.6c-0.5,0-0.6-0.3-0.3-0.7
			c0.4-0.4,0.3-0.9-0.2-1.4c-1.3-1.9-4.1-1.2-3.7,0.5c0.2,0.4-0.3,0.6-0.8,0.4c-0.3-0.1-0.3-0.6,0.1-0.7c0.4,0,0.4-0.6,0.4-0.9
			c-0.1-0.5-0.8-1-1.6-1.3c-0.5-0.2-1-0.2-1.4-0.2c-0.8,0.1-1.3,0.6-1.2,1.5c0.1,0.5-0.1,1-0.6,0.7c-0.3-0.2-0.2-0.5,0.1-0.9
			c1.1-1.1-1.2-2.5-2.6-1.6c-0.2,0.2-0.4,0.2-0.4,0.2C25.7,86.1,28.5,88.1,28.4,88.2z M32.3,87.9l1.7,0.7c-0.4,0.1-0.7,0.2-1,0.3
			L32.3,87.9z M27.7,88.6c-1.6-0.3-1.7,1.5-0.6,1.8c-1.4,2,2.3,2.8,1.6,0.3c1.9,0.3,1.6-1.8,0.1-1.8c0.3-0.8,3-0.2,2.8,0.4
			c-1.8,0.2-1.1,1.8-0.3,1.8c-1.9,1.8,1.9,3.4,1.8,0.7c1.5,0.3,1.7-1.7,0.2-1.8c0.5-0.7,2.4-0.3,2.9,0.6c-1.5,0.2-1.4,1.5-0.2,1.7
			c-1.5,1.9,2.1,2.6,1.8,0.4c1.3,0.4,2-1.3,0.3-1.8c1.7-1,3.6,0.5,3.4,0.5c-2-0.1-1.6,1.9-0.2,1.8c-0.9,2.1,2.7,2.2,1.8,0
			c1.6,0,1.5-1.8-0.1-2c1-0.7,2.1-0.8,2.8-0.1c-1.5,0.4-0.9,2.1,0.6,1.6c0.1,1.4,1.3,1.1,1.3,1.1l1,1.9l-28.1,0l2.4-4.5
			c1.4,0.1,1.4-1.3,1.3-1.3c0.9,0.7,2-1,0.6-1.5C26.1,87.5,27.8,88.6,27.7,88.6L27.7,88.6z M18.5,88.5c-0.1,0.1-0.1,0.1-0.2,0
			C18.1,88.2,18.8,88.2,18.5,88.5z M24.4,89.3c0.1,0.1,0,0.4-0.1,0.5C24,90,24,90,24.2,89.5C24.2,89.4,24.3,89.3,24.4,89.3
			L24.4,89.3z M36.7,89.4l1.5,0.4l-0.7,0.4C37.2,89.9,36.9,89.6,36.7,89.4z M41.2,90l1.6,0.1c-0.2,0.1-0.4,0.3-0.7,0.5
			C42,90.4,41.6,90.2,41.2,90z M46.5,91.6c0.1,0.2,0.4,0.8,0.4,0.8C46.4,92.6,46.3,91.8,46.5,91.6z"/>
		<path class="st7" d="M20,27.5c-1.7-2.9-3.6-5.7-5.8-8c2.3-2.4,4.1-5.2,5.8-8c1.7,2.9,3.6,5.7,5.8,8C23.6,21.9,21.7,24.7,20,27.5z"
			/>
		<path class="st7" d="M5.8,24c-0.7-1.2-1.5-2.4-2.4-3.3c1-1,1.7-2.2,2.4-3.3c0.7,1.2,1.5,2.4,2.4,3.3C7.3,21.6,6.5,22.8,5.8,24z"/>
		<path class="st7" d="M54.5,77.9c-1.7,2.9-3.6,5.7-5.8,8c2.3,2.4,4.1,5.2,5.8,8c1.7-2.9,3.6-5.7,5.8-8C58,83.6,56.2,80.8,54.5,77.9
			z"/>
		<path class="st7" d="M68.7,81.5c-0.7,1.2-1.5,2.4-2.4,3.3c1,1,1.7,2.2,2.4,3.3c0.7-1.2,1.5-2.4,2.4-3.3
			C70.2,83.9,69.4,82.7,68.7,81.5z"/>
		<polygon class="st7" points="6.1,15 7.2,15 5.5,10.9 4.3,12.6 4.3,15 5.2,15 5.2,16.2 2.1,16.2 2.1,15 3.1,15 3.1,6.2 2.1,6.2 
			2.1,5.1 5.2,5.1 5.2,6.2 4.4,6.2 4.3,10.5 7.1,6.2 6.1,6.2 6.1,5.1 9.4,5.1 9.4,6.2 8.6,6.2 6.3,9.7 8.5,15 9.5,15 9.5,16.2 
			6.1,16.2 6.1,15 		"/>
		<polygon class="st7" points="68.4,90.5 67.3,90.5 68.9,94.6 70.2,92.8 70.2,90.5 69.3,90.5 69.3,89.3 72.4,89.3 72.4,90.5 
			71.4,90.5 71.4,99.3 72.4,99.3 72.4,100.3 69.2,100.3 69.2,99.2 70.1,99.2 70.1,94.9 67.4,99.3 68.4,99.3 68.4,100.3 65,100.3 
			65,99.3 65.9,99.3 68.2,95.7 65.9,90.5 65,90.5 65,89.3 68.4,89.3 68.4,90.5 		"/>
	</g>
</g>
</svg>
