<?xml version="1.0" encoding="utf-8"?>
<!-- Generator: Adobe Illustrator 19.1.0, SVG Export Plug-In . SVG Version: 6.00 Build 0)  -->
<svg version="1.1" xmlns="http://www.w3.org/2000/svg" xmlns:xlink="http://www.w3.org/1999/xlink" x="0px" y="0px"
	 viewBox="0 0 75.3 105.3" style="enable-background:new 0 0 75.3 105.3;" xml:space="preserve">
<style type="text/css">
	.st0{display:none;}
	.st1{fill:#FFFFFF;}
	.st2{fill:none;stroke:#010101;stroke-width:0.9967;}
	.st3{fill:#010101;}
	.st4{fill:none;stroke:#010101;stroke-width:1.0006;}
	.st5{fill:#E1CF20;}
	.st6{fill:#262964;}
	.st7{fill:#D31F26;}
	.st8{fill:#14130F;}
	.st9{fill:none;stroke:#010101;stroke-width:0.9929;}
	.st10{fill:#F6EB16;}
	.st11{fill:none;stroke:#010101;stroke-width:1.83;}
	.st12{clip-path:url(#SVGID_2_);}
	.st13{clip-path:url(#SVGID_4_);}
</style>
<g id="Layer_1" class="st0">
</g>
<g id="Layer_2">
	<g>
		<path class="st1" d="M3.6,0.4h67.5c2,0,3.6,1.6,3.6,3.6v97.3c0,2-1.6,3.6-3.6,3.6H3.6c-2,0-3.6-1.6-3.6-3.6V4
			C0.1,2,1.7,0.4,3.6,0.4z"/>
		<path class="st2" d="M3.6,0.4h67.5c2,0,3.6,1.6,3.6,3.6v97.3c0,2-1.6,3.6-3.6,3.6H3.6c-2,0-3.6-1.6-3.6-3.6V4
			C0.1,2,1.7,0.4,3.6,0.4z"/>
		<path class="st7" d="M5.8,23.9c0,0-0.7-1.1-1.7-2.3c-0.7-0.8-1.2-1.8-1.3-2.5c-0.1-0.9,0.5-1.8,1.5-1.8c1,0,1.4,0.7,1.5,1.3
			c0.2-0.6,0.6-1.3,1.5-1.3c1,0,1.5,0.9,1.5,1.8c0,0.8-0.6,1.7-1.3,2.5C6.6,22.8,5.8,23.9,5.8,23.9z"/>
		<path class="st7" d="M69,81.4c0,0-0.7,1.1-1.7,2.3c-0.7,0.8-1.2,1.8-1.3,2.5c-0.1,0.9,0.5,1.8,1.5,1.8c1,0,1.4-0.7,1.5-1.3
			c0.2,0.6,0.6,1.3,1.5,1.3c1,0,1.5-0.9,1.5-1.8c0-0.8-0.6-1.7-1.3-2.5C69.7,82.5,69,81.4,69,81.4z"/>
		<polygon class="st7" points="6.6,15.3 7.7,15.3 6.1,11.2 4.9,13 4.9,15.3 5.8,15.3 5.8,16.5 2.7,16.5 2.7,15.3 3.7,15.3 3.7,6.5 
			2.7,6.6 2.7,5.5 5.8,5.5 5.8,6.6 4.9,6.6 4.9,10.9 7.6,6.6 6.7,6.6 6.7,5.5 10,5.5 10,6.6 9.1,6.6 6.9,10.1 9.1,15.3 10.1,15.3 
			10.1,16.5 6.6,16.5 6.6,15.3 		"/>
		<polygon class="st7" points="68.7,90.4 67.6,90.4 69.2,94.5 70.5,92.8 70.5,90.4 69.6,90.4 69.6,89.2 72.7,89.2 72.7,90.4 
			71.7,90.4 71.7,99.2 72.7,99.2 72.7,100.2 69.5,100.2 69.5,99.1 70.4,99.1 70.4,94.9 67.7,99.2 68.7,99.2 68.7,100.2 65.3,100.2 
			65.3,99.2 66.2,99.2 68.5,95.6 66.3,90.4 65.3,90.4 65.3,89.2 68.7,89.2 68.7,90.4 		"/>
		<path class="st5" d="M27.2,89c5.9,0.7,11.9,0.8,18,0.4c1.6,2.2,4.8,6.8,4.8,6.8l-29.1,0.2L27.2,89z M19.6,90.6
			c0.8-1.6,0.9-3.1,0.8-5.3c-0.1-1.7,0.9-3,2-2.5c0.8,0.4,0.5,2-0.4,1.7c-0.3-0.1-0.6,0-0.6,0.7c0.1,1.9,0.6,4,0.1,5.8
			C21.3,92.7,18.9,91.9,19.6,90.6z M12.3,88.1c-0.9-1.4,0.7-2.7,1.8-2.1c0.5,0.2,0.4,0.7-0.2,0.5c-0.9-0.4-1.8,0.9-1,1.5
			c0.3,0.2,0.5,0.2,0.2-0.1c-0.7-0.8,1.1-1.2,1-0.6c-0.1,0.7-0.1,0.9-0.2,1.1C13.5,88.9,12.8,88.6,12.3,88.1z M14.9,82.3
			C13.9,81,15,80,15,80.1c0.3-0.3-2.4-5.3-2-5.4c3.4-0.4,6.8-0.1,10.1,0c0,0-1.8,3.3-2.5,4.9c-0.3,0.6,0.4,1.4,0.1,1.9
			c-0.9,1-0.3,2-0.9,2.1c-1.4-0.3-2.9-0.4-4.6,0C15,83.5,15.1,82.7,14.9,82.3L14.9,82.3z M29.4,47.5c1.7,8.7-0.8,18-6.5,24.1
			c-0.8-0.8-1.4-2.3-2.2-3.2c-2.2-0.7-3.9,0.1-5.4,0.9c-1.4-0.8-3-1.3-4.5-1.3l0-1.3c1.6,0,3.2,0.1,4.6,1l2.2-0.9l-6.7-7.1l0.1-1.2
			l8.2,8.3l1.1,0C17.6,60.6,19.7,50.7,29.4,47.5L29.4,47.5z M40.8,58.5l1.2,5.7c0,0-6.6,6.6-10.1,10L29,73.9
			c1.5-2.2,2.3-4.4,3.3-6.6L40.8,58.5z M64.3,66.3c-2.8,3.1-6.1,5.1-9.8,7.3c-1.5-1.7-3.3-3.5-4.3-5.1c3.2-1.7,6.3-3.1,9.4-6.1
			c-0.2,0.2-4,1.5-4,1.4c-0.1,0.6-0.1,1-0.7,1.2c-0.7-1-1.5-1.9-2.6-2.4c-0.5,0-1.1-0.3-1.1-0.3c0.3-0.1,0.2-4.1,0-4.1
			c0.4-0.1,0.7-0.4,1.2,0.2c0.2,0.2,2.4-2.1,3.2-2.9c3-0.2,5.6,0,8.5,0C64.1,59,64.3,62.7,64.3,66.3L64.3,66.3z M45.5,57.3
			c-0.1-0.2-0.8-6.1-0.1-9.8c1.9-6.2,1.5-8,6.5-14.1c0.3-0.3,1.5,0.7,2.4,2.6c2.5,1.6,5.7-0.5,5.7-0.5s1.3,1,4.1,1.6l0,1.1
			c0,0.3-3.2-0.3-3.9-1c0,0-2.4,0.8-2.4,0.9c0,0.6,6.3,6.5,6.3,6.5l0,1.4c0,0-8.7-9.1-8.8-8.2C57.8,48.6,53.6,54,45.5,57.3
			L45.5,57.3z M35.1,55.4l-0.1-5.7l5.3,0.1l0.2,5.7L35.1,55.4z M10.6,49.2c0.1-0.2-0.2-10.6-0.2-10.6c3.4-3.4,6.7-5.3,10-7.4
			c1.5,1.5,2.8,2.8,3.9,4.6l-4.6,2.9c0.2,0.7-0.3,0.9,2.7,3.7c0-0.2,1-0.7,1.2,0.1c-0.4,1.7,0.2,3.2,0.3,4.2c-0.4,0.5-1.3,0-1.3,0
			C22,46,19.8,49,19.1,49.4C16.2,49.3,10.5,49.5,10.6,49.2L10.6,49.2z M42.7,30.8l2.9,0.1c-0.5,1.3-1.7,3.9-3,6.8
			c-1,1.7-8.3,8.7-8.3,8.7c-0.3-2-0.9-4-1.4-6L42.7,30.8z M55.3,21.1c1,0.5,4,0.2,4.5,0c0.6,0.4,0.2,1,0.1,1.3
			c0.6,0.8,1,1.1,0.3,2.3c-0.2,0,2.1,5.3,2.2,5.3c0,0-2.4-1.2-3.3-2l-1.7,2.3l-2-2.6c0,0.2-3.8,2.8-3.8,2.6c-0.1-0.1,3.4-4,2.7-6.3
			c-0.2-0.5,0.2-1.1,0.5-1.6C55.1,22.1,54.8,21.5,55.3,21.1L55.3,21.1z M53.4,20.6c0.2-0.2-0.9-4.9,0.2-6.9c0.5-0.7,1.4-0.7,1.8-0.2
			c0.3,0.8-0.6,1.9-0.7,2.4c-0.6,1.5,0.3,3.5-0.1,4.9C53.3,24,51.2,20.6,53.4,20.6L53.4,20.6z M61.3,18.5c-0.6,0-0.2-1.9-0.1-2.4
			c0-0.1,1.2-0.4,1.6,0.4C63.5,17.5,62.7,19,61.3,18.5L61.3,18.5z M53.8,8.9l-5.9,7.3c-6-0.7-12-1.1-18.2-0.2l-4.9-7L53.8,8.9z"/>
		<path class="st6" d="M64.8,8.4H10v88.4h54.9V8.4z M53.8,8.9l-6.6,8.2L47,17.1c0.4,1.3,1.1,2.9,1.7,4.1c1,2,3.3,5.6,1.9,8.6
			c-0.1,0.3-0.3,0.4-0.5,0.4c-0.3,0-0.2-0.2-0.1-0.4c0.3-0.6,0.6-2.2,0.4-3c-0.1-0.5-0.4-1.3-0.9-2.5c-2.5-4.7-3.3-7.1-3.1-7.1
			c0,0-0.1,0-0.2-0.1l-0.2-0.1c0.9,2.9,2.3,5.4,3.4,7.7c0.9,2.1,1,3,0.5,4.5c-0.2,0.6-0.5,1-0.8,1c-0.2,0-0.2-0.1-0.1-0.4
			c0.9-1.6,0.7-3.3-0.4-5.3c-1.6-3.3-2.5-5.4-3.1-7.6c0,0-0.3-0.1-0.4-0.1c0.5,2.2,1.8,4.8,3,7.4c1,2,1.3,3.5,0.9,4.7
			c-0.1,0.5-0.5,1.3-1,1.3c-0.2,0-0.2-0.1,0-0.4c0.7-1.3,0.9-2.5-0.5-5.2c-1.2-2.5-2.5-5.3-2.9-7.7c0-0.2-0.6-0.4-0.4-0.1
			c0.7,2.9,2,5.8,3.4,8.7c0.8,1.8,0.9,2.9,0.3,3.9c-0.3,0.6-0.4,0.7-0.7,0.7c-0.3,0-0.3,0-0.1-0.3c0.7-1.5,0.6-2.8-0.4-5
			c-1.3-3-2.4-5.4-2.9-8.1c-0.1,0-0.5-0.2-0.5-0.1c0.7,2.5,1.5,4.8,2.6,7.2c0.4,0.8,1,2.4,1.2,3.2c0.4,1.5-0.5,3.6-1.6,3.7
			c-0.4,0-0.4-0.2,0.1-0.6c0.8-0.7,0.9-1.9,0.7-3.3c-0.2-1.1-0.5-2.2-1-3.3c-1-2.3-2-4.8-2.3-6.9c0-0.2-0.4-0.2-0.3,0
			c0.2,1.5,0.8,3.2,1.4,4.8c0.7,1.7,1.7,3.7,2,5.8c0.3,1.8-0.8,3.4-2.1,3.5c-1.6,0.1-1.9-1.5-1.5-2.2c0.6-1.1,2.4-0.5,1.9,0.7
			c-0.3,0.7-1.2,0.5-1.2-0.2l0.1-0.3L43,28.8c-0.3,0.6,0.6,1.4,1.3,0.9c2.2-1.2,0.7-5-0.2-7.3c-0.9-2.1-1.6-4.1-1.9-6l-0.4-0.1
			c0.3,1.1,0.4,1.9,0.7,2.8c0.4,1.4,1.2,2.9,1.8,4.5c0.6,1.5,1.1,2.8,0.9,4.4c0,0.1-0.1,0.3-0.2,0.4c-0.1,0.1-0.2,0.1-0.2-0.3
			L44.5,28c0.1-0.6,0-1.2-0.1-1.8c-0.1-0.5-0.4-1-0.9-1.9c-0.2-0.3-0.8-1.4-0.6-0.7c0.1,0.4,0.5,1.3,0.9,2c0.2,0.4,0.5,1.5,0.4,1.7
			c-0.1,0.2-0.3,0.2-0.3,0.1c-0.1-0.1-0.1-0.4-0.1-0.5c-0.1-0.8-0.8-2.1-1.4-2.6c-0.4-0.4,0.9,1.8,1,2.4c0,0.3,0.1,0.5,0,0.6
			c-0.1,0.1-0.2,0.1-0.3,0.1c-0.1,0-0.1-0.1-0.2-0.5c-0.2-0.7-0.4-1-0.9-1.6c-0.2-0.2-0.3,0.1,0,0.4c0.4,0.6,0.7,1,0.8,1.8
			c-0.2,0.4-0.4,0.3-0.9-0.6c-0.3-0.6-0.5-0.7-0.6-0.7c-0.2,0,0,0.3,0.6,1.3c0.3,0.5,0.3,0.9,0,0.9c-0.1,0-0.8-0.8-1-1.1
			c-0.1-0.3-0.3-0.5-0.3-0.2c0,0.1,0.4,0.9,0.7,1.2c0.5,0.6,0.6,0.7,0.7,0.9c0,0.1,0.1,0.3,0.1,0.5c0.1,0.4,0.1,0.5-0.2,0.3
			c-0.1-0.3-0.2-0.3-0.5-0.6c-0.3-0.2-0.6-0.7-0.8-1c-0.1-0.1-0.2-0.3-0.3-0.4c-0.2-0.4-0.5-0.5-0.3,0c0.1,0.2,0.3,0.5,0.5,0.8
			c0.3,0.4,0.2,0.7-0.1,0.7c-0.2,0-0.6-0.6-0.8-1c-0.2-0.3-0.4-0.5-0.4-0.2c0,0.1,0.2,0.6,0.5,1c0.3,0.4,0.4,0.7,0.1,0.7
			c-0.2,0-0.4-0.2-0.7-0.7c-0.3-0.4-0.4-0.6-0.5-0.5c-0.1,0.1,0.4,0.9,0.8,1.3c0.4,0.4,0.1,0.7-0.3,0.3c-0.2-0.2-0.7-0.8-0.8-1.1
			c-0.2-0.5-0.4-0.4-0.2,0c0.2,0.5,0.4,1,0.8,1.3c0.2,0.2,0.5,0.3,0.7,0.5c0.5,0.4,0.8,0.8,0.7,0.9c-1.4,0.1-2.5-1.4-2.8-2.3
			c-0.2-0.6-0.5-0.7-0.2,0.2c0.7,2,2.7,3.1,4.2,2.2c0.9-0.6,0.1-2-0.6-1.5c-0.2,0.1-0.2,0.5,0,0.3c0.5-0.4,0.9,0.5,0.4,0.8
			c-0.7,0.4-1.5-0.4-1-1.2c0.5-0.9,2.4-0.4,2,1.1c-0.2,0.7-1.2,1.5-2,1.5c-1.6,0-2.6-1.2-3.2-2.4c-0.1-0.2-0.2-0.5-0.3-0.7
			c-0.1-0.2-0.2-0.4-0.2-0.4c0.2,1.5,1.5,3.3,2.8,3.6c2,0.5,2.6-0.7,3.9-2l1,0.1c0.1-0.1,1.9-0.1,2-0.1c-7.3,13.4-6.8,29.4-0.5,41.5
			c0.4,0.9,0.5,0.7-0.2,0.5c-0.7-0.2-1.4,0.1-1.9,0c-1.2-0.2-1.5,0.6-2.4,1c-1.1,0.4-0.9,1.2-1.2,2c-0.1,0.1-0.1,0.2-0.1,0.2
			c0.1,0,0.3-0.3,0.3-0.5c0-0.5,0.2-0.9,0.4-1.1c0.2-0.2,0.3-0.3,0.4-0.2c0,0.1,0,0.3-0.1,0.5c-0.3,0.5,0.1,2.3,0.1,1
			c0-1,0.6-2.1,1.5-2.6c0.7-0.3,0.9-0.3,0.3,0.2c-0.6,0.7-1,1.5-1.1,2.4c0,0.4,0.1,0.7,0.2,0.4c0-1.9,1.8-3.9,3.8-2.9
			c0.1,0.1,0.2,0.2,0.2,0.3c-1.9-0.3-3.6,0.7-3.3,3.2c0,0,0.2-0.5,0.3-1c0.3-1.5,2-2.2,3.2-1.8c0.2,0.1,0.4,0.4,0.4,0.5
			c-1.5-0.5-3.1,0.9-3.2,2.5c0,0.5,0,0.9,0.2,0c0.9-3.4,3.9-1.8,3.5-1.6c-2.3-0.3-3.1,1.3-3,3c0,0.2,0.1,0.2,0.2,0.4
			c0.3,0.7,0.4,1.2,0.5,2.5c0,0.3,0.2,2.3,0,2.2c-0.8-0.3-1.4-0.7-2.9,0c-0.1,0-0.2-0.1-0.1-0.2c0.1-0.2,0.3-0.4,0.7-0.9
			c0.9-0.9,0.4-0.7-0.3,0c-0.5,0.4-0.4,0.1,0.1-1.3c0.2-0.6,0.1-0.7-0.7-1c-0.8-0.4-1.3-0.5-0.7,0c0.3,0.2,0.5,0.3,0.8,0.4
			c0.3,0.2,0.3,0.3,0.1,1.1c-0.5,1.6-0.7,2.2-0.6,3.3c0.1,2.7,2.6,2.4,4,1.8l0.1,1.8l5.4,7.7c0,0-18.9,0-29,0.1
			c0.6-1.4,6.7-7.3,7-8.4c0,0-0.7-2.2-1.1-3.1c-1.8-4.5-4.1-6.3-2.7-9.3c0.3-0.6,0.3-0.8,0.6-0.8c0.3,0,0.4,0.2,0.1,0.8
			c-1.4,2.4,1.6,6.7,2.7,9.4c0.2,0.4,0.9,2.5,1,3.1c0,0.2,0.5,0.3,0.4,0c-0.4-1.4-0.9-2.9-1.1-3.4c-0.8-2-1.7-3.3-2.5-5.3
			c-0.4-1.2-0.7-2.6,0-3.9c0.3-0.5,0.3-0.7,0.5-0.7c0.1,0,0.2,0.1,0.2,0.2c0,0.1-0.1,0.3-0.3,0.7c-1.2,2.1,0.9,5.5,2,7.9
			c0.7,1.6,1.3,3.2,1.5,4.7c0,0.1,0.1,0.4,0.4,0.2c-0.5-2.8-1.8-5.5-3-8.1c-1-2-1.4-3.8,0-5.5c0.1-0.1,0.4-0.1,0.4,0.1
			c0,0.1-0.1,0.3-0.3,0.8c-1.2,2.5,0.7,4.6,1.5,7c0.8,2,1.6,3.7,2,5.9c0.2,0.1,0.4,0.2,0.4-0.1c-0.6-3-2-5.8-3.1-8.4
			c-0.5-1.1-0.7-1.7-0.8-2.5c0-1.1,0.5-2.4,0.9-2.7c0.1-0.1,0.2-0.1,0.3,0c0.2,0.1,0.1,0.1-0.2,0.7c-0.6,1.1-0.6,2.3-0.1,3.6
			c0.9,2,1.7,3.7,2.2,5.1c0.6,1.6,0.9,3,1.1,4.3c0,0,0.4,0.2,0.3-0.1c-0.3-1.8-0.8-3.6-1.5-5.2c-0.6-1.5-1.3-2.9-1.9-4.3
			c-0.7-1.7-0.1-3.7,1.4-4.6l0.7,0c0,0-1.6,0.6-1.6,2.8c-0.1,2.1,0.9,3.4,1.6,5.2c0.9,2.1,1.6,4,1.8,6.3l0.4,0.1
			c-0.2-1.5-0.6-3-1.3-4.8c-0.7-1.9-1.3-2.8-2-4.8c-0.4-1.4-0.4-3.2,0.6-4c1.4-1.4,3.4-0.4,2.9,1.2c-0.4,1.2-2,0.9-1.9-0.2
			c0-0.7,0.9-0.9,1.1-0.4c0.1,0.1,0.1,0.6,0.1,0.6l0.1-0.4c0-0.6-0.8-1.1-1.3-0.8c-0.8,0.4-1.3,1.3-1.3,2.6c0.1,1.3,0.3,2.2,1.4,4.2
			c1.2,2.4,1.7,5,1.9,6.8c0.1,0,0.3,0,0.3,0c-0.2-2.4-1-4.8-1.9-6.9c-1.2-2.5-1.5-4-1.1-5.1c0.1-0.2,0.1-0.3,0.2-0.3
			c0.1,0,0.2,0.2,0.3,0.6c0,0.1,0,0.4,0,0.5c-0.1,1,0.6,3.1,1.3,4.1c0.2,0.3,0.4,0.3,0.2-0.2c-0.7-1.2-1.1-2.3-1.1-3.8
			c0-0.4,0.5-0.2,0.5,0c0,0.7,0.1,1.6,0.4,2.1c0.7,1.2,1.1,1.2,0.4-0.1c-0.2-0.3-0.6-1.6-0.4-2c0.1-0.1,0.2-0.1,0.3,0
			c0.2,0.7,0.5,1.5,1,2c0.3,0.3,0.3,0.2,0.2-0.2c-0.2-0.4-0.9-1.8-0.6-2.2c0.1-0.1,0,0,0.3,0.4c0.4,0.6,0.6,0.9,0.8,1.1
			c0.3,0.3,0.3,0.1,0.1-0.4c-0.5-0.9-0.8-1.6-0.6-1.8c0.2-0.2,0.2-0.1,0.6,0.6c0.2,0.3,0.4,0.8,0.5,0.9c0.1,0.1,0.2,0.1,0.2,0
			c-0.1-0.9-0.8-1.8-1.1-2l0-0.8c1.1,0.6,1.1,1.2,1.9,2.2c0.1,0.1,0.2,0,0.1-0.2c0-0.2-0.5-1-0.7-1.4c-0.2-0.3-0.2-0.4,0-0.5
			c0.3-0.1,0.7,0.3,1.1,1.1c0.2,0.4,0.5,0.6,0.5,0.4c0-0.1-0.4-1-0.6-1.3c-0.4-0.4-0.2-0.8,0.3-0.3c0.2,0.2,0.5,0.3,0.8,1
			c0.2,0.4,0.3,0.5,0.3,0.1c0-0.4-0.6-1.2-1-1.5c-0.3-0.2-0.5-0.4-0.4-0.5c0.3-0.4,1.4,0.6,1.7,1.6c0.1,0.3,0.3,0.4,0.4,0.3
			c0.1-0.1-0.1-0.8-0.4-1.1c-0.4-0.7-1.3-1.4-1.8-1.4c-0.1,0-0.4-0.6-0.4-0.6c1.3-0.2,2.7,1.4,2.9,2c0.4,1.2,0.7,1,0.3,0
			c-0.8-2-3.1-3.1-4.4-2.1c-0.7,0.5-0.3,1.9,0.5,1.6c0.3-0.1,0.6-0.4,0.1-0.3c-0.6,0.1-0.8-0.9-0.2-1c1-0.3,1.2,1.3,0.4,1.6
			c-0.8,0.4-1.6-0.2-1.6-1.1c0.1-1.7,2.2-2.2,4.3-0.8c0.6,0.4,1.3,1.7,1.5,2.5c0.1,0.3,0.4,0.4,0.4,0.3c0.1-0.1-0.6-1.5-0.8-1.9
			c-0.9-2.1-4.1-2.2-4.1-2.1c0,0-1.3,0.8-2.4,2.1L29,74C36.4,62,37,44.4,29.4,32c0.1,0.1,1.5,0.4,1.9,0c0.3-0.2,0.4-0.2,0.8-0.1
			c0.4,0.2,0.9,0,1.3-0.4c0.4-0.3,0.4-0.4,0.6-0.4c0.7,0.1,1.1-0.3,1.3-1.3c0.1-0.4,0.1-0.8,0-0.7c0,0-0.1,0.4-0.2,0.6
			c-0.1,0.6-0.3,0.8-0.5,1c-0.4,0.3-0.6,0.1-0.4-0.3c0.1-0.3,0.3-1.1,0.1-1.4c0-0.1,0,0.2-0.1,0.4c-0.4,1.5-0.8,2.3-1.5,2.5
			c-0.3,0.1-0.5,0-0.4-0.2c1.3-1.4,1.2-2.9,1.1-2.8c-0.3,0.9-0.8,2.2-1.6,2.7c-0.7,0.5-1.8,0.5-2.3,0.1c-0.3-0.2,0.2-0.3,0.9-0.3
			c1.3,0,2.4-1.7,2.2-3.1c0-0.3-0.1,0-0.2,0.5c-0.5,1.5-1.3,2.6-3.1,2.3c-0.1,0-0.2-0.1-0.3-0.2c-0.3-0.2-0.2-0.3,0.4-0.3
			c1.3,0.2,2.5-1.1,2.5-2.6c0-0.7-0.1-0.7-0.2-0.2c-0.2,0.8-0.7,3.1-2.9,2.3c-0.4-0.2-0.6-0.5-0.5-0.5c1.2,0.3,2.4,0,2.8-1.7
			c0.2-0.7,0.1-1.4,0-2c-0.1-0.4-0.2-0.7-0.2-1.1c-0.1-1.1-0.3-2.3-0.2-3.4c0.1-0.1,0.1-0.1,0.5,0.2c0.7,0.5,1.2,0.4,1.9,0.1
			c0.9-0.3,0.8-0.3-0.1,0.8c-0.2,0.2-0.4,0.5-0.4,0.6c-0.2,0.5,0.2,0.1,0.6-0.3c0.5-0.6,0.6-0.7,0.7-0.7c0,0.7-0.2,1.4-0.3,2
			c-0.2,0.6-0.2,0.7,0.2,0.9c0.2,0.1,0.5,0.2,0.6,0.3c0.8,0.4,0.7,0.1,0.1-0.3c-0.8-0.5-0.9-0.5-0.6-1.3c0.3-0.9,0.4-1.8,0.6-2.7
			c0.4-2.3-1.3-3.6-3.6-2.8c-0.1,0.1-0.3-1.2-0.3-1.5c0-0.1-0.3-0.1-0.6-0.5c0.1-0.1-3.4-4.5-5-7.1C34.9,9.1,44.7,8.9,53.8,8.9
			L53.8,8.9z M46.4,17.1L46.4,17.1L46.4,17.1z M54.2,9.1h9.9v21.1l-1,0c0,0-1.6-2.8-2-4.1c-0.1-0.3-0.3-0.8-0.4-1
			c-0.2-0.4-0.3-0.5-0.1-0.7c0.4-0.5,0.4-1.5-0.1-2c-0.1-0.2-0.2-0.1-0.2-0.5c0-0.3,0-0.5,0-0.7c-0.1-0.3-0.2-0.3,0-0.6
			c0.2-0.3,0.5-0.9,0.6-1.3c0.2-0.7,0.1-0.8,0.5-0.6c1.1,0.3,2-0.4,2-1.5c0-0.9-0.9-1.8-1.9-1.5c-0.2,0.1-0.3,0-0.6-0.2
			c-0.1-0.1-0.3-0.2-0.4-0.3c-0.2-0.1-0.3-0.1-0.4-0.2c-0.1-0.2-0.6-0.6-1.1-0.6c-0.3,0-0.7-0.1-0.8-0.2c-0.2-0.1-0.7,0-1.3-0.1
			c-0.3,0-0.5,0.1-0.6,0.1c-0.4,0-0.2,0-0.3-0.3c-0.5-1.6-1.9-1.4-2.6-0.2c-0.2,0.5-0.4,1.1-0.5,1.9L49,15.6L54.2,9.1z M24.3,9.1
			c1.4,1.9,2.8,3.9,4.3,5.8c1.8,2.3,1.8,2.6,1.4,4.9c-0.3,1.3-0.4,1.6-0.9,1.5c-0.5-0.1-0.9,0.3-1,0.8c-0.1,1,0.8,1.6,1.7,1.1
			c0.5-0.3,0.5-0.3,0.3,0.6c-0.2,1.2-0.7,2.2-1,2.2c-0.8-1.7-2.7-0.5-2,1.3c-0.2,0.3,0.1,0.7,0.2,1c0,0,0,0-1.1,0.4
			c-5.3,1.6-11.8,5.7-15.3,9.6v-29L24.3,9.1z M54.7,13.1c0.2,0,0.4,0.1,0.6,0.2c0.5,0.4,0.4,1-0.3,2.1c-0.7,1.5-0.5,2.7-0.3,4.4
			c0,0.9-0.3,1.8-0.8,2.2C53,22.6,52,21.8,52.4,21c0.2-0.4,0.7-0.2,0.8-0.6c0.1-1.5-0.2-3-0.2-4.4c0-0.6,0.2-1.5,0.5-2.1
			C53.8,13.4,54.2,13.1,54.7,13.1L54.7,13.1z M55.9,15.6c-0.2,0.2-0.5,0.2-0.5,0c0-0.2,0.2-0.8,0.3-0.9
			C56.3,14.5,56.1,15.5,55.9,15.6z M56.9,14.6c0.5,0,0.9,1.4,0.4,2.2c-0.1,0-0.8,0-0.8,0c0-0.1,0-0.4,0.1-0.7c0-0.2,0.1-0.4,0-0.7
			C56.5,14.8,56.4,14.7,56.9,14.6L56.9,14.6z M58,14.6L58,14.6c0.6,0,0.9,1.1,0.8,2.3c0,0.2,0,0.3-0.1,0.4c-0.2-0.1-0.9,0.2-0.9,0.2
			c-0.1-0.1,0-0.4,0-0.7c0.2-0.6,0.2-0.9,0-1.5C57.7,14.7,57.7,14.6,58,14.6L58,14.6z M59.3,14.9c0.6,0.1,0.6,1.8,0.4,2.4l-0.4,0.1
			c-0.5,0.2-0.4,0.2-0.3-0.6c0-0.6,0.1-1,0-1.5c0-0.2-0.1-0.4,0.1-0.4L59.3,14.9L59.3,14.9z M56.3,15.6c0.2,0.3,0,1.1-0.1,1.4
			c-0.2,0.3-0.3,0.3-0.2,0.5c0,0.1,0.2,0.4,0.1,0.5c-0.1,0.2,0.2,0.3,0.5,0.4c0.4,0.2,0.7,0.7,1,1.4c0.1,0.3,0.3,0.2,0.2-0.1
			c-0.1-0.3-0.1-0.6-0.2-0.9c-0.1-0.3,0-0.4,0.3-0.3c0.4,0.1,0.4,0,0.5-0.1c0.3-0.2,0.6,0.1,0.4,0.2c-0.1,0.1-0.4,0.1-0.7,0.2
			c-0.2,0.1-0.2,0.3,0.1,0.3c0.2,0,0.9-0.2,1.3-0.3c1.2-0.4,1.2-0.6,1.1,0.1c-0.1,0.9-0.6,1.6-1.5,1.8c-0.7,0.2-2.4,0.2-3.1-0.1
			c-0.7-0.3-0.7-0.5-1-1.2c-0.3-0.8-0.5-2.3-0.1-3.1c0.3-0.7,0.3-0.6,0.5-0.6c0.2,0.1,0.6,0,0.7-0.2L56.3,15.6z M60.9,16.1
			c0.1,0.4,0.1,0.8-0.1,1.1c-0.1,0.1-0.5,0.1-0.7,0.1c-0.1,0-0.1-1.3,0-1.4C60.5,15.5,60.8,15.8,60.9,16.1z M48.7,15.9l1.2,0v0.3
			l-1.4,0L48.7,15.9z M52.9,16v0.4l-1.8,0v2.4l2,0l0,0.5l-2.7,0l0-3.3L52.9,16L52.9,16z M62,15.9c1.8,0.4,1,2.5,0.3,2.6
			c-0.9,0.2-1.6,0.1-1.4-0.7c0.2-0.5,0.1-1.2,0.1-1.6C61.3,16,61.7,15.8,62,15.9z M48.1,16.6l1.8,0V17l-2,0L48.1,16.6z M52,17
			c0.3,0,0.5,0.2,0.5,0.5S52.3,18,52,18c-0.3,0-0.5-0.2-0.5-0.5S51.8,17,52,17z M57,17.2c0.3,0,0.4,0.5,0.2,0.7
			c-0.2,0.2-0.5,0.1-0.6-0.2C56.6,17.5,56.8,17.2,57,17.2z M47.6,17.4l2.3,0v0.3l-2.3,0l-0.1-0.2L47.6,17.4z M60.4,17.5
			c0.3,0,0.5,0.3,0.3,0.5C60.4,18.4,59.8,17.8,60.4,17.5z M36.2,18.2c-0.5,0.4-0.1,0.9,0.6,0.5c1.5-0.9,3.6-0.2,5,0.6
			c0.3,0.1,0.3-0.2,0-0.4C40.5,17.7,37.8,17,36.2,18.2L36.2,18.2z M58.2,17.6c0.4,0,0.3,0.5,0.1,0.6c-0.2,0.1-0.3,0.1-0.4,0
			C57.7,18.2,57.8,17.6,58.2,17.6L58.2,17.6z M59.4,17.6c0.4,0,0.4,0.9-0.3,0.6C59,18,59.1,17.6,59.4,17.6z M47.7,18.1l2.2,0v0.4
			l-2.1,0L47.7,18.1z M33.5,18.9c0.6,0.5,0.4,0.5-0.6,0.2c-0.7-0.1-1.3-0.1-1.7,0.1c-0.5,0.2-0.6,0.1-0.4-0.2
			C31.3,18.4,32.9,18.5,33.5,18.9L33.5,18.9z M36.4,19.7c-0.1,0.2-0.3-0.1-0.5-0.1c-0.4,0.1-0.3,0.1,0.1,0.6
			c0.4,0.5,0.6,0.6,0.5,0.8c0,0.3,0,0.4,0.3,0.4c0.1,0,0.3,0.1,0.5,0.3c0.7,0.6,1,1,1.3,1.1c0.9,0.4,0.5-0.1-0.1-0.5
			c-1-0.7-1.3-1.1-0.6-0.9c0.7,0.3,1.9,0.1,2.5-0.2c0.3-0.2,0.5-0.4,0.9-0.3c0.6,0.2,0.8-0.2,0.6-0.3c-0.3-0.2-0.8-0.4-1.4-0.7
			c-1.2-0.6-2.4-0.6-3.3-0.1c-0.5,0.3-0.7,0.1-0.2-0.2c1.9-1,3.4,0,4.7,0.7c0.2,0.1,0.4,0.1,0.4,0c0-0.3-0.6-0.5-0.8-0.6
			C39.5,18.6,37.7,18.2,36.4,19.7L36.4,19.7z M48,18.8l1.9,0v0.4l-1.8,0L48,18.8z M32.4,19.3c0.5,0,1.7,0.5,1.7,0.9
			c0,0.2-0.3,0-0.6-0.1c-0.5-0.3-1.2-0.4-1.9-0.2c-0.5,0.1-0.7,0.2-0.8,0.1C30.6,19.5,31.9,19.3,32.4,19.3z M53.1,19.6l0,0.7
			c-1,0.1-1.3,1.3-0.6,1.9c0.5,0.5,1.5,0.3,1.9-0.4c0.1-0.1,0.1-0.2,0.1-0.1c0,0,0.1,0.2,0.1,0.3c0.1,0.4,0,0.5-0.3,0.8
			c-0.4,0.5-0.4,1.1-0.2,1.6c0.1,0.1,0.2,0.3,0.2,0.4c0.1,0-1.2,3.7-3.1,5.6c-0.3,0.2-0.6,0-0.4-0.4c1.6-3.6-1.4-7-2.6-10.2
			L53.1,19.6L53.1,19.6z M39.2,20.2l0.3,0c-0.2,1.7-1.8,1.4-1.9,0l0.2,0C38.2,21.5,39.2,21,39.2,20.2L39.2,20.2z M30.2,20.2
			c0,0,0.1,0.2,0.1,0.3c0,0.4,0,1,0,1.1c-0.1,1.6-2.1,1.9-2,0.5c0.1-0.6,0.8-0.6,1-0.1c0.3,0.7,0.3-0.2,0.3-0.4
			C29.9,21.2,30,20.8,30.2,20.2L30.2,20.2z M39.9,20.4c0.1,0,0.2,0.1,0.3,0.2c0.1,0.1,0.1,0.2-0.2,0.4c-0.3,0.2-0.5,0.2-0.4-0.2
			C39.7,20.5,39.8,20.4,39.9,20.4z M54.9,20.4c0,0,0.2,0.1,0.1,0.2c0,0.3-0.3,0.5-0.4,0.4C54.7,20.9,54.8,20.5,54.9,20.4z M37.5,21
			c0,0.1-0.1,0.1-0.3-0.1c-0.2-0.2-0.2-0.3,0-0.4C37.5,20.4,37.5,20.9,37.5,21L37.5,21z M31.4,20.6c0.3,1.1,1,0.9,1.3,0.1l0.3,0
			c-0.1,1.4-1.8,1.4-1.8,0L31.4,20.6z M30.8,20.7c0.1,0,0,0.3,0,0.3S30.5,20.9,30.8,20.7L30.8,20.7z M33.3,20.8l0.2,0.1
			c0.2,0.1,0.1,0.2-0.1,0.3c-0.3,0.3-0.4,0.1-0.3-0.2C33.2,20.9,33.3,20.8,33.3,20.8z M55.4,21c0.1,0,0.3,0,0.7,0.1
			c1,0.3,2.4,0.3,3.6-0.1c0.4-0.1,0.6,0.6,0.4,1c-0.1,0.2-0.1,0.2,0.2,0.5c0.4,0.4,0.4,1,0.2,1.6c-0.2,0.4-0.2,0.4,0.1,1.1
			c0.5,1.6,1.3,3.1,2.1,4.5l-1.1-0.4c0,0-5,4.3-8.5,4.5l1.3,2c2,0.8,3.9,0.6,5.7-0.6c0,0.2,2.2,1.3,4.1,1.4l0,1.4
			c-1.4-0.2-2.8-0.2-4.1-1c0,0-1.2,0.5-2.4,0.9l6.6,7l0,1.2c0,0-2.8-2.7-5.7-5.7l0.1,14.9l5.7,0.1c-0.2,3.9-0.1,6.3-0.1,10.8
			c-2.7,2.8-6.4,5.6-9.9,7.3c-1.6-1.6-3-3.3-4.1-5.2l0.1-0.2l-0.3-0.1c-0.7-1.1-2.4-4.1-2.1-4.2c0.5,0,2.9-0.3,3.3-1.7
			c0-0.1-0.1-0.3,0-0.6c0.2-0.8,0.3-2,0-2.7c-0.5-1.4,1-0.9,1.1-0.8V53c-2,1.6-4,3.2-6.6,3.9c-1.7-8.5,1-19,8.4-26.1l-0.4,0
			c-7.7,8.1-9.7,16.9-8.4,26.3c0,0,0,0.3,0.1,0.4c0,0.2,0,0.3-0.2,0.5c-0.2,0.1-0.4,0.3-0.4,0.4c0,0.3-0.3,0.3-0.6,0.3
			c-0.2-0.2-0.4,0-0.5,0.1c-0.2,0-0.3-0.8-0.5-0.2c-0.1,0.4-0.3,0.4-0.7,0.2c-0.3-0.1-0.3,0.1,0,0.4c0.3,0.4,0.6,0.9,0.6,1.1
			c-0.1,0.4-0.1,0.8,0.5,1c0,0-0.3,1.1,0.5,1.1c0.3,0,0.9,0.1,0.9,0.1c0,0.2,0,0.3-0.1,0.4l-0.6-0.3l-0.1,0.7l-0.8-0.1l1.8,2.3
			l0.2-1.8l2.1,0.3c0.3,0.9,2.5,5.9,6.6,9.7c0,0.1-2.8,1.3-2.8,1.3l-0.4-1.4l-0.4,0.5l-0.6-0.2l-0.1,0.6l-0.6,0.2l1,0.7l-2.6,0.7
			C40.5,64.3,37.2,48,46.2,30.7l2.3,0L48,31.5l0.6-0.1l0.2,0.6l0.5-0.2l0.5,0.6l0.5-1.6c0,0,1.6,0,1.8,0c0.2,0,3.4-2.8,3.3-2.9
			c-0.1-0.1-3.5,2.5-3.6,2.4c0,0-0.3,0.1-0.1-0.2c0.5-0.6,0.8-1,1.3-1.9c0.8-1.1,1.2-2.5,1.4-3.4c0-0.1,0-0.2,0-0.3
			c-0.3-0.6-0.2-1,0.3-1.8c0.2-0.3,0.2-0.3,0.2-0.5c-0.1-0.4,0-0.7,0.3-0.9C55.2,21.1,55.3,21,55.4,21L55.4,21z M36.3,23.5
			c1.4,0.6,0.3,1.9-0.8,0.8c-0.6-0.6-1-0.6-1.3-0.1c-0.1,0.2,0.1,0.5,0.2,0.4c0.2-0.1,0.3-0.2,0.6,0c1.8,1.7,3.1-0.7,1.5-1.3
			C36.4,23.3,36.1,23.5,36.3,23.5L36.3,23.5z M30.4,23.5L30.4,23.5c0.1,0.1,0.1,0.7,0.1,0.9c-0.2,1.3-1.1,4.2-2.9,2.8
			c-0.7-0.6-0.1-2,0.8-1.5c0.7,0.4,0.2,1.3-0.5,0.8c-0.4-0.3-0.2,0.3,0.1,0.4c0.5,0.3,1.4-0.2,1.9-1c0.2-0.3,0.3-0.9,0.5-1.7
			C30.4,23.6,30.4,23.5,30.4,23.5L30.4,23.5z M30.6,25.7c0.2,0.9-0.5,2.5-1.5,2.8c-0.7,0.2-1.7-0.3-1.6-0.8c0-0.1,0.1,0,0.8,0.2
			c0.9,0.2,1.5-0.4,2.1-1.6C30.5,25.9,30.6,25.7,30.6,25.7L30.6,25.7z M33,26.1c0,0.1,0,0.4-0.1,0.6c-0.1,0.4-0.2,0.6,0.3,0.4
			c0.3-0.1,0.8-0.3,1.2,0c0.5,0.3,1,0.2,1.6,0c0.5-0.2,0.8-0.2,1.1,0c0.5,0.3,0.3,0.1,0.3-0.7c0-0.6-0.2-0.5-0.4-0.3
			c-0.1,0.1-0.4,0.2-0.7,0c-0.3-0.2-0.8-0.1-1,0c-0.2,0.1-0.4,0.1-0.7-0.1c-0.2-0.1-0.3-0.1-0.6,0c-0.4,0.2-0.6,0.1-0.8-0.1
			C33,25.8,33,25.9,33,26.1L33,26.1z M30.9,26.8c0.1,0,0.1,0.2,0,0.6c-0.2,1.6-1.4,2.4-2.8,1.7c-0.6-0.4-0.5-0.6,0.1-0.4
			c1,0.4,2-0.1,2.5-1.4C30.8,26.9,30.9,26.8,30.9,26.8z M34.4,27.9c0.7,0.3,1.5,0.2,1.7-0.1c0.2-0.3-0.1-0.2-0.3-0.2
			c-0.6,0.1-1,0.1-1.3,0C33.7,27.3,33.8,27.6,34.4,27.9z M27,28.8c0.9,1.1,1,1.4,1.8,2.6c5.8,9.9,7.6,22.4,3.8,33.8
			c-1,3.1-2.5,6.3-4.1,8.9l-2,0l0.7-0.8l-0.9,0.1l-0.1-0.5l-0.7,0.2l-0.3-0.8l-0.6,1.8l-3.7,0c8.6-8.4,10.2-18.7,8.6-26.9
			c0,0,0.7-0.5,0.8-0.7l0.1-0.4c0.3-0.2,0.5-0.4,0.7-0.4c0.1,0,0.1,0.1,0.2,0.2c0.3,0.4,0.4,0.5,0.5,0.1c0.1-0.3,0.1-0.4,0.5-0.4
			c0.2,0.1,0.5,0.1,0.5,0.1c0,0-0.3-0.4-0.5-0.6c-0.4-0.5-0.5-0.6-0.4-0.8c0.1-0.3-0.2-0.7-0.4-0.8c0-0.9-0.3-1-1.3-1.2
			c0-0.2,0-0.3,0.1-0.4l0.6,0.5l0.2-0.9l0.8,0l-2.3-2.3c0,0.6,0,1.3,0,1.9c-1.1-0.1-2.1-0.4-2.2-0.3c-1.6-3.8-4-7-6.5-9.5l2.5-1.2
			l0.7,1.4l0.2-0.8l0.6,0.1l0.1-0.5l0.7-0.1l-0.8-0.7L27,28.8z M42.2,30.4c0.1,0.1,0.2,0.1,0.3,0.2l-0.3,0.2
			C42.2,30.7,42.2,30.6,42.2,30.4L42.2,30.4z M25.3,30.9c-0.2,0-0.4,0.2-0.4,0.4c0,0.2,0.2,0.4,0.4,0.4s0.4-0.2,0.4-0.4
			C25.6,31,25.5,30.9,25.3,30.9z M27.4,30.9c-0.2,0-0.4,0.2-0.4,0.4c0,0.2,0.2,0.4,0.4,0.4s0.4-0.2,0.4-0.4
			C27.8,31.1,27.6,30.9,27.4,30.9z M20.5,31.2c1.3,1.1,2.4,2.4,3.8,4.6l0,0.3l0.4,0.2c0,0,2.3,3.1,2.2,4.5c-0.8,0.2-1.5-0.1-3,1.3
			c-0.7-0.4-1.1-0.3-1.8,0c0,0,0,0.3,0.3,0.4c0.5-0.6,1-0.3,1.2-0.2c-0.1,0-0.4,3.1,0.1,3.8c0.4,1.1-0.6,0.9-1.3,0.6l0.2,4.9
			c2.2-2.6,6.9-4.3,6.6-4.1c2.4,12.6-3.2,21-9.1,27.2l3.1,0c0,0-2.6,4.3-2.8,5.5c0.2,0.4,0.6,1.2-0.1,1.8c-0.2,0.3-0.3,1.5-0.3,1.5
			c-1.6,0.1-3-0.5-4.9,0.1c-0.2,0.1-0.2-1-0.2-1.2c-1-0.9-0.1-2.5,0.1-2.4c-0.8-2.5-2.5-5.5-2.5-5.5s-1-0.1-1.6-0.1
			c-0.1-0.1-0.2-3-0.1-3.1c4.6,0.4,11.8-0.1,11.8-0.1l-1.9-2.7c-2.4-0.9-5.6,0.7-5.5,0.8c0,0-2.6-1.4-4.4-1.2l0.1-1.4
			c1.6,0,3.1,0.3,4.4,1.1l2.2-0.8l-6.8-7.2l0.1-1.2c2.2,2.1,5.8,6.1,5.8,6.1l0-15.1l-5.8,0l-0.2-3.1L10.4,46l-0.1-2.2l0.2-0.2
			l-0.1-0.9l-0.1-0.1l-0.1-2.2l0.1-0.2l0-1.4C13.3,35.9,20.5,31.2,20.5,31.2L20.5,31.2z M25.5,31.6l0.7,3l0.5-0.6l0.7,0.2l0-0.7
			l0.6-0.2L25.5,31.6z M48.6,32.1c-0.2,0-0.4,0.2-0.4,0.4c0,0.2,0.2,0.4,0.4,0.4s0.4-0.2,0.4-0.4C49,32.3,48.9,32.1,48.6,32.1z
			 M46.8,32.4c-0.2,0-0.4,0.2-0.4,0.4c0,0.2,0.2,0.4,0.4,0.4s0.4-0.2,0.4-0.4C47.2,32.6,47,32.4,46.8,32.4z M24.4,32.7
			c-0.2,0-0.4,0.2-0.4,0.4c0,0.2,0.2,0.4,0.4,0.4s0.4-0.2,0.4-0.4C24.8,32.9,24.6,32.7,24.4,32.7z M48.2,33l-2.7,2.6l0.8,0l0.1,0.8
			l0.7-0.3l0.6,0.5L48.2,33z M49.4,33.9c-0.2,0-0.4,0.2-0.4,0.4s0.2,0.4,0.4,0.4s0.4-0.2,0.4-0.4S49.6,33.9,49.4,33.9z M27.7,34.4
			c-0.2,0-0.4,0.2-0.4,0.4c0,0.2,0.2,0.4,0.4,0.4s0.4-0.2,0.4-0.4C28.1,34.5,27.9,34.4,27.7,34.4z M29.4,34.7
			c-0.2,0-0.4,0.2-0.4,0.4s0.2,0.4,0.4,0.4s0.4-0.2,0.4-0.4S29.6,34.7,29.4,34.7z M27.9,35.3c0.1,1.1,0.2,2.3,0.2,3.4l0.5-0.5
			l0.6,0.2l0.2-0.7l0.6,0L27.9,35.3z M44.6,36.2c-0.2,0-0.4,0.2-0.4,0.4c0,0.2,0.2,0.4,0.4,0.4c0.2,0,0.4-0.2,0.4-0.4
			C45,36.4,44.9,36.2,44.6,36.2z M26.8,36.2c-0.2,0-0.4,0.2-0.4,0.4c0,0.2,0.2,0.4,0.4,0.4s0.4-0.2,0.4-0.4
			C27.2,36.4,27,36.2,26.8,36.2z M46.2,36.3c-0.2,0-0.4,0.2-0.4,0.4s0.2,0.4,0.4,0.4s0.4-0.2,0.4-0.4S46.4,36.3,46.2,36.3z M46,37.2
			l-2.3,2.4l0.7,0.1l0.2,0.7l0.5-0.4l0.6,0.4L46,37.2z M47.2,37.7c-0.2,0-0.4,0.2-0.4,0.4c0,0.2,0.2,0.4,0.4,0.4s0.4-0.2,0.4-0.4
			C47.6,37.9,47.4,37.7,47.2,37.7z M29.4,38.4c-0.2,0-0.4,0.2-0.4,0.4c0,0.2,0.2,0.4,0.4,0.4s0.4-0.2,0.4-0.4S29.6,38.4,29.4,38.4z
			 M19.8,38.8l-0.6,0.4c0.5,0.2,0.7,0.6,0.7,0.6C19.9,39.8,19.9,39.6,19.8,38.8L19.8,38.8z M31.3,39c-0.2,0-0.4,0.2-0.4,0.4
			c0,0.2,0.2,0.4,0.4,0.4s0.4-0.2,0.4-0.4C31.7,39.2,31.5,39,31.3,39z M28.5,39.6c-0.2,0-0.4,0.2-0.4,0.4s0.2,0.4,0.4,0.4
			s0.4-0.2,0.4-0.4S28.7,39.6,28.5,39.6z M44.6,40.4c-0.2,0-0.4,0.2-0.4,0.4c0,0.2,0.2,0.4,0.4,0.4S45,41,45,40.8
			C45,40.6,44.8,40.4,44.6,40.4z M43.1,41c-0.2,0-0.4,0.2-0.4,0.4c0,0.2,0.2,0.4,0.4,0.4c0.2,0,0.4-0.2,0.4-0.4
			C43.5,41.2,43.3,41,43.1,41z M58.8,41.1l0.8,0.9v13.1l-0.8,0L58.8,41.1z M27.2,41.2c0.7,0,1.4,0.1,1.6,0.5
			c0.4,0.5-0.4,0.3-1.1,0.4c-0.6,0.1-0.3,0.2,0.6,0.3c1.2,0.1,1.6,0.1,1.8,0.4c0.1,0.3,0,0.4,0,0.7l-1.3-0.1c-0.7,0-1.1,0-1.3,0
			c-0.2,0-0.1,0.2-0.1,0.2c0,0,0.6,0,1.2,0.1c1.7,0,2,0.1,2.2,0.6c0.1,0.5-0.3,0.4-2,0.2c-0.8-0.1-1.2,0.1-1.3,0.2
			c-0.2,0.1,0.5,0.2,0.8,0.1c0.1,0,1.3,0.1,1.7,0.2c0.3,0.1,0,0-0.1,0.3c-0.1,0.2-0.1,0.4-0.3,0.5c-0.2,0.1-0.7,0.1-1.4,0.1
			c-0.9,0-1.3,0.2-0.1,0.3c0.8,0,0.8,0,0.9,0.3c0.2,0.6-0.2,0.7-1,0.8c-0.4,0.1-1,0-1.4,0c-1.7-0.1-2.3-0.5-2.5-1.3
			c-0.9-2.8,0.2-4.6,2.7-4.7C26.9,41.2,27,41.2,27.2,41.2L27.2,41.2z M44.4,41.3l-1.9,2.8l0.7-0.3l0.4,0.8l0.6-0.4l0.6,0.4
			L44.4,41.3z M30,41.6c0.1,0.1,0.1,0.2-0.1,0.3c-0.1,0.1-0.4,0-0.5,0c-0.2-0.1-0.2-0.5-0.1-0.5C29.6,41.3,29.9,41.5,30,41.6
			L30,41.6z M16.1,41.5l-0.9,1c0,0,0.8-0.3,1.2-0.5L16.1,41.5z M45.6,41.9c-0.2,0-0.4,0.2-0.4,0.4c0,0.2,0.2,0.4,0.4,0.4
			c0.2,0,0.4-0.2,0.4-0.4C46,42.1,45.8,41.9,45.6,41.9z M59.9,42.3c0,0,1,1,1.4,1.4l-0.4,0l0,0.8l1.2,0l0.6,0.6l-1.8,0v0.8l2.2,0
			l0-0.3l0.9,0.8l0.1,8.8l-4.2,0C59.9,50.8,59.9,46.6,59.9,42.3L59.9,42.3z M31.3,43.2c-0.1,0.2-0.2,0.2-0.4,0.1
			c-0.3-0.1-0.3-0.5,0-0.6C31.3,42.7,31.4,42.9,31.3,43.2L31.3,43.2z M32.6,43.4c-0.2,0-0.4,0.2-0.4,0.4c0,0.2,0.2,0.4,0.4,0.4
			S33,44,33,43.8C33,43.6,32.8,43.4,32.6,43.4z M31.2,43.7c0.2,0,0.3,0.1,0.4,0.2c0.2,0.2,0.1,0.4-0.1,0.6c-0.3,0.1-0.5-0.1-0.5-0.4
			C30.9,43.8,31,43.7,31.2,43.7z M43.5,44.7c-0.2,0-0.4,0.2-0.4,0.4s0.2,0.4,0.4,0.4c0.2,0,0.4-0.2,0.4-0.4
			C43.9,44.9,43.7,44.7,43.5,44.7z M30.6,45.2c0.3,0,0.4,0.4,0.3,0.5c-0.3,0.3-0.6,0.1-0.7-0.1C30.1,45.4,30.3,45.2,30.6,45.2z
			 M42.1,45.4c-0.2,0-0.4,0.2-0.4,0.4c0,0.2,0.2,0.4,0.4,0.4c0.2,0,0.4-0.2,0.4-0.4C42.5,45.6,42.3,45.4,42.1,45.4z M43.5,45.7
			l-1.8,3l0.7-0.3l0.4,0.6l0.4-0.4l0.7,0.3L43.5,45.7z M29.7,46.2c0.3,0,0.4,0.3,0.2,0.5c-0.2,0.2-0.3,0.2-0.5,0
			C29.1,46.4,29.3,46.1,29.7,46.2z M44.7,46.2c-0.2,0-0.4,0.2-0.4,0.4c0,0.2,0.2,0.4,0.4,0.4s0.4-0.2,0.4-0.4
			C45.1,46.4,44.9,46.2,44.7,46.2z M32,46.5c-0.2,0-0.4,0.2-0.4,0.4c0,0.2,0.2,0.4,0.4,0.4c0.2,0,0.4-0.2,0.4-0.4
			C32.4,46.7,32.2,46.5,32,46.5L32,46.5z M61,46.6v0.8l2.2,0v-0.8L61,46.6z M32,47.3l-0.8,3.1l0.7-0.4l0.4,0.5l0.4-0.5l0.7,0.2
			L32,47.3z M33.5,47.7c-0.2,0-0.4,0.2-0.4,0.4s0.2,0.4,0.4,0.4s0.4-0.2,0.4-0.4S33.7,47.7,33.5,47.7z M30.7,47.8
			c-0.2,0-0.4,0.2-0.4,0.4c0,0.2,0.2,0.4,0.4,0.4s0.4-0.2,0.4-0.4C31.1,48,31,47.8,30.7,47.8z M61,48.1v0.8h2.2v-0.8L61,48.1z
			 M42.8,49.1c-0.2,0-0.4,0.2-0.4,0.4c0,0.2,0.2,0.4,0.4,0.4c0.2,0,0.4-0.2,0.4-0.4C43.2,49.3,43,49.1,42.8,49.1z M61,49.5v0.8h2.2
			v-0.8H61z M15.5,49.6l0.8,0l0,14.2L15.5,63L15.5,49.6z M15.2,49.6l0,13L13.6,61l0.4,0v-0.9l-1.3,0l-0.5-0.5l1.8,0v-0.9l-2.2,0v0.5
			l-1.1-1.1l0-8.5L15.2,49.6z M42.9,50l-1.2,3.1l0.7-0.4l0.4,0.4l0.4-0.4l0.7,0.3L42.9,50z M11.9,50.2l0,0.8H14v-0.8H11.9z
			 M44.2,50.3c-0.2,0-0.4,0.2-0.4,0.4s0.2,0.4,0.4,0.4s0.4-0.2,0.4-0.4S44.4,50.3,44.2,50.3z M41.5,50.4c-0.2,0-0.4,0.2-0.4,0.4
			s0.2,0.4,0.4,0.4s0.4-0.2,0.4-0.4S41.8,50.4,41.5,50.4z M32.3,50.5c-0.2,0-0.4,0.2-0.4,0.4c0,0.2,0.2,0.4,0.4,0.4
			c0.2,0,0.4-0.2,0.4-0.4C32.7,50.7,32.5,50.5,32.3,50.5z M61,50.8v0.9h2.2v-0.9H61z M32.3,51.3L32,51.9l-0.7-0.3l1,3.1l1.3-3.3
			l-0.7,0.4L32.3,51.3z M11.9,51.6v0.8H14v-0.8H11.9z M61,52.3v0.9h2.2v-0.9H61L61,52.3z M11.9,53v0.8H14V53H11.9z M42.8,53.2
			c-0.2,0-0.4,0.2-0.4,0.4c0,0.2,0.2,0.4,0.4,0.4s0.4-0.2,0.4-0.4C43.2,53.4,43.1,53.2,42.8,53.2z M31.1,53.6
			c-0.2,0-0.4,0.2-0.4,0.4c0,0.2,0.2,0.4,0.4,0.4s0.4-0.2,0.4-0.4C31.5,53.8,31.3,53.6,31.1,53.6z M33.6,53.7
			c-0.2,0-0.4,0.2-0.4,0.4c0,0.2,0.2,0.4,0.4,0.4s0.4-0.2,0.4-0.4S33.8,53.7,33.6,53.7z M61,53.7v0.8h2.2v-0.8H61L61,53.7z
			 M42.8,54.1l-0.5,0.5l-0.7-0.2l1.5,2.9l0.8-3.1l-0.7,0.4L42.8,54.1z M11.9,54.4v0.9H14v-0.9H11.9z M32.3,54.8
			c-0.2,0-0.4,0.2-0.4,0.4c0,0.2,0.2,0.4,0.4,0.4c0.2,0,0.4-0.2,0.4-0.4C32.7,55,32.5,54.8,32.3,54.8z M32.3,55.6
			c-0.2,0.1-0.2,0.3-0.4,0.4l-0.7-0.3l0.4,3.9l2-3.7l-0.9,0.2L32.3,55.6z M11.9,55.8v1H14v-1H11.9z M44.4,56.2
			c-0.2,0-0.4,0.2-0.4,0.4c0,0.2,0.2,0.4,0.4,0.4c0.2,0,0.4-0.2,0.4-0.4S44.6,56.2,44.4,56.2z M41.8,56.3c-0.2,0-0.4,0.2-0.4,0.4
			s0.2,0.4,0.4,0.4c0.2,0,0.4-0.2,0.4-0.4C42.2,56.5,42,56.3,41.8,56.3z M11.9,57.2v1H14v-1H11.9z M43.2,57.4
			c-0.2,0-0.4,0.2-0.4,0.4c0,0.2,0.2,0.4,0.4,0.4s0.4-0.2,0.4-0.4C43.6,57.6,43.5,57.4,43.2,57.4z M48.8,57.5
			c2.1,0.1,2.4,0.8,2.4,3.1c0,1.9-0.5,2.6-1.9,3c-0.5,0.1-2.3,0-2.9-0.2c0-0.2-0.3-0.5-0.3-0.8c0.1,0,0.6,0,1.4,0.1
			c0.6,0.1,0.8,0,0.6-0.2c-1.2-0.3-2.1-0.2-3.2-0.4c0-0.4-0.3-0.8-0.3-0.8c0.1,0,1.8,0.2,2.7,0.1c0.4,0,0.2-0.2,0-0.2
			c-1.1-0.2-1.8-0.1-2.9-0.3c0-0.3-0.1-0.6-0.3-0.8c0,0,0.6,0,1.8,0c0.6,0,1.2,0,1.4,0c0.5,0,0.4-0.2,0-0.2
			c-0.5-0.1-2.4-0.1-2.4-0.1c0.1-0.1,0.3-0.9,0.3-0.9c0,0,0.5,0,0.8,0c1.5-0.1,1.8,0,1.8-0.1c0.2-0.2-0.3-0.3-0.9-0.3
			c-0.2,0-0.6,0.1-0.6-0.1c0-0.1,0-0.4-0.1-0.6C47.1,57.5,48,57.4,48.8,57.5L48.8,57.5z M30.7,57.9c-0.2,0-0.4,0.2-0.4,0.4
			c0,0.2,0.2,0.4,0.4,0.4s0.4-0.2,0.4-0.4C31.1,58.1,30.9,57.9,30.7,57.9z M45.7,58c0.3,0,0.3,0.5,0.1,0.5c-0.4,0.1-0.6,0-0.6-0.2
			C45.2,58.2,45.5,58,45.7,58L45.7,58z M33.2,58.4c-0.2,0-0.4,0.2-0.4,0.4s0.2,0.4,0.4,0.4s0.4-0.2,0.4-0.4
			C33.6,58.6,33.4,58.4,33.2,58.4z M44.4,58.9c0.9,0,0.4,1.2-0.3,0.8C43.8,59.4,44.1,58.9,44.4,58.9z M30.4,59.9L30.4,59.9l0.2,3.8
			l2.1-3.5l-0.8,0.3l-0.4-0.6L31,60.3C30.8,60.4,30.4,59.9,30.4,59.9L30.4,59.9z M43.6,60.2c0.4,0.1,0.7,0.5,0.4,0.7
			C43.3,61.2,43,60.3,43.6,60.2z M42.6,61.1c-0.2,0-0.4,0.2-0.4,0.4c0,0.2,0.2,0.4,0.4,0.4s0.4-0.2,0.4-0.4
			C43,61.2,42.8,61.1,42.6,61.1z M44.1,61.4c0.3,0,0.5,0.5,0.2,0.7c-0.1,0-0.3,0.1-0.4,0C43.5,61.7,43.7,61.4,44.1,61.4L44.1,61.4z
			 M29.4,62c-0.2,0-0.4,0.2-0.4,0.4c0,0.2,0.2,0.4,0.4,0.4c0.2,0,0.4-0.2,0.4-0.4C29.8,62.2,29.6,62,29.4,62z M59.4,62.5L58,63v0.7
			C58.6,63.5,59,63,59.4,62.5L59.4,62.5z M45.8,62.9c0.3,0.1,0.3,0.5,0.1,0.6c-0.2,0.1-0.6,0.1-0.7-0.1
			C44.9,62.9,45.5,62.7,45.8,62.9L45.8,62.9z M32.1,63c-0.2,0-0.4,0.2-0.4,0.4c0,0.2,0.2,0.4,0.4,0.4c0.2,0,0.4-0.2,0.4-0.4
			S32.3,63,32.1,63z M30.5,63.7c-0.2,0-0.3,0.2-0.3,0.4c0,0.2,0.2,0.4,0.3,0.4s0.3-0.2,0.3-0.4C30.8,63.8,30.7,63.7,30.5,63.7z
			 M46.8,64.3c-0.2,0-0.4,0.2-0.4,0.4c0,0.2,0.2,0.4,0.4,0.4s0.4-0.2,0.4-0.4C47.2,64.4,47,64.3,46.8,64.3z M29.2,64.3l0,3.5
			l2.3-2.9l-0.8,0.2l-0.3-0.7l-0.5,0.3L29.2,64.3z M43.9,65.1c-0.2,0-0.4,0.2-0.4,0.4c0,0.2,0.2,0.4,0.4,0.4c0.2,0,0.4-0.2,0.4-0.4
			C44.3,65.3,44.1,65.1,43.9,65.1z M55.5,65.1l-0.4,0.7l1.1-0.6L55.5,65.1z M45.5,65.6c-0.2,0-0.4,0.2-0.4,0.4
			c0,0.2,0.2,0.4,0.4,0.4c0.2,0,0.4-0.2,0.4-0.4S45.7,65.6,45.5,65.6z M46.8,66l-0.5,0.7l-0.6-0.2l-0.2,0.6l-0.7,0l2.4,2.1L46.8,66z
			 M28,66.3c-0.2,0-0.4,0.2-0.4,0.4c0,0.2,0.2,0.4,0.4,0.4s0.4-0.2,0.4-0.4C28.4,66.5,28.2,66.3,28,66.3z M64.1,67.2v29H50.6
			L45,88.3c-0.1-1.3,0-2.6,0.5-4.3c0.6,0.4,1.8,0.2,1.7-1.3c0-1-1.5-1.5-2.3-0.7c0-1,0.4-2.4,1-2.8c0.4,0.3,0.5,0.9,1.3,0.7
			c0.6-0.1,1.1-0.8,0.8-1.6c-0.1-0.2-0.1-0.4-0.1-0.6c0-0.2,0-0.5,0-0.6c0-0.2-0.1-0.5-0.1-0.5C54.1,75.1,59.6,71.2,64.1,67.2
			L64.1,67.2z M30.7,67.4c-0.2,0-0.4,0.2-0.4,0.4s0.2,0.4,0.4,0.4s0.4-0.2,0.4-0.4C31.1,67.5,30.9,67.4,30.7,67.4z M28.9,67.8
			c-0.2,0-0.4,0.2-0.4,0.4c0,0.2,0.2,0.4,0.4,0.4c0.2,0,0.4-0.2,0.4-0.4C29.3,67.9,29.1,67.8,28.9,67.8z M48.3,67.9
			c-0.2,0-0.4,0.2-0.4,0.4c0,0.2,0.2,0.4,0.4,0.4c0.2,0,0.4-0.2,0.4-0.4C48.7,68.1,48.5,67.9,48.3,67.9z M27.5,68.4l-0.6,3.7
			l2.7-2.8l-0.7,0l-0.1-0.6L28,68.9L27.5,68.4z M45.6,69.2c-0.2,0-0.4,0.2-0.4,0.4c0,0.2,0.2,0.4,0.4,0.4c0.2,0,0.4-0.2,0.4-0.4
			C46,69.3,45.9,69.2,45.6,69.2z M47.4,69.6c-0.2,0-0.4,0.2-0.4,0.4s0.2,0.4,0.4,0.4c0.2,0,0.4-0.2,0.4-0.4
			C47.8,69.8,47.6,69.6,47.4,69.6z M25.8,70.1c-0.2,0-0.4,0.2-0.4,0.4c0,0.2,0.2,0.4,0.4,0.4s0.4-0.2,0.4-0.4
			C26.2,70.3,26,70.1,25.8,70.1z M48.9,70.4l-0.6,0.5l-0.6-0.4l-0.1,0.8l-0.5,0.3l2.1,1.5L48.9,70.4z M50.5,71.4
			c-0.2,0-0.4,0.2-0.4,0.4s0.2,0.4,0.4,0.4s0.4-0.2,0.4-0.4S50.7,71.4,50.5,71.4z M28.3,71.6c-0.2,0-0.4,0.2-0.4,0.4
			c0,0.2,0.2,0.4,0.4,0.4s0.4-0.2,0.4-0.4C28.7,71.8,28.5,71.6,28.3,71.6z M26.5,72.1c-0.2,0-0.4,0.2-0.4,0.4c0,0.2,0.2,0.4,0.4,0.4
			c0.2,0,0.4-0.2,0.4-0.4C26.9,72.3,26.8,72.1,26.5,72.1z M49.5,73.2c-0.2,0-0.4,0.2-0.4,0.4c0,0.2,0.2,0.4,0.4,0.4
			c0.2,0,0.4-0.2,0.4-0.4C49.9,73.3,49.7,73.2,49.5,73.2z M47.8,73.5c-0.2,0-0.4,0.2-0.4,0.4c0,0.2,0.2,0.4,0.4,0.4
			c0.2,0,0.4-0.2,0.4-0.4C48.2,73.7,48.1,73.5,47.8,73.5z M32.6,74.1L32.6,74.1c0.1,0.1,0.2,0.4,0.1,0.6c-0.1,0-0.3-0.3-0.3-0.4
			L32.6,74.1L32.6,74.1z M23.7,74.7l0.5,0.1c0,0.1-0.1,0.3-0.2,0.6c-0.5,1.2-0.6,2.6-0.1,3.9c0.8,1.8,3.1,5.9,3,6.3l-5.1,0l0-0.8
			c1.4-0.1,1.7-0.9,1.3-1.7c-0.2-0.5-0.9-0.8-1.6-0.5c-0.9,0.4-1,0.8-1.3,1.6l-0.1-0.2c0.3-0.4,0.4-0.7,0.3-1.1c0-0.4,0-0.3,0.1-0.5
			c0.8-0.9,0.3-2,0.3-2C20.7,79.5,23.2,75.1,23.7,74.7L23.7,74.7z M12.1,74.8c1.5,1.2,2.7,5.1,2.6,5.2c-0.1-0.1-1.2,1.3,0,2.5
			c0,0-0.1,0.7,0.2,1.1c-0.5,1.1-0.6,1.2-0.7,2.1c0,0-0.1,0-0.6,0c-2.4,0-2.5,3.1-0.1,3.3c0.3,0,0.4-0.1,0.6,0.1
			c0.2,0.3,0.4,0.5,0.7,0.4c0.1,0,0.2,0.1,0.4,0.2c0.2,0.3,0.6,0.5,1,0.5c0.2,0,0.3,0.1,0.5,0.1c0.2,0.2,0.6,0.3,0.9,0.2
			c0.1,0,0.2-0.1,0.4,0c0.3,0.2,0.7,0.1,0.8,0c0.3-0.2,0.4,0.1,0.4,0.4c-0.2,0.6,0.2,1.1,0.7,1.3c1.2,0.4,1.7-0.4,2-1.8
			c0.1-0.3,0.1-0.7,0.1-0.7l3.9,0.1l-5.5,6.5h-9.7V74.8C11.2,74.8,11.6,74.8,12.1,74.8L12.1,74.8z M46.8,76c0.7,0.3,0.8,0.8,0.1,0.6
			c-1.1-0.4-2.4,0.4-2.6,1.4c0,0.2-0.1,0.3-0.1,0.4c-0.2,0.2-0.2,0-0.1-0.5c0.1-1.1,0.9-1.9,1.8-1.9C46.2,75.8,46.5,75.9,46.8,76
			L46.8,76z M46.4,76.7c0.3,0,0.6,0.1,0.8,0.3c0.3,0.3,0.2,0.5,0,0.5c-1-0.4-2.2,0.1-2.6,1.3c-0.3,0.8-0.3,0.3-0.2-0.2
			C44.6,77.5,45.4,76.8,46.4,76.7L46.4,76.7z M39.8,77c-0.4,0-0.8,0.1-1,0.3c-0.4,0.4-0.1,0.4,0.6,0.1c0.3-0.1,1-0.1,1.4,0.1
			c0.3,0.1,0.5,0.2,0.5,0.1C41.3,77.3,40.5,77,39.8,77L39.8,77z M47.6,78.3c0.2,0.4,0.1,1.1-0.6,1.2c-0.7,0.1-1.1-1.1,0.2-0.9
			c-0.2-0.5-0.8-0.4-1.1-0.2c-0.6,0.3-1,0.9-1.4,2c-0.1,0.3-0.2,0.5-0.2,0.5c-0.1-0.1-0.1-0.6,0.1-1.2c0.3-1.1,1-1.8,1.7-1.8
			C46.9,77.7,47.4,77.9,47.6,78.3L47.6,78.3z M37.2,77.8c-0.1,0,0,0.2,0.2,0.6c0.1,0.2,0.2,0.5,0.2,0.5c0,0.2,0.1,0.2,0.4,0.1
			c0.2-0.1,0.3-0.3,0.6-0.1c0.3,0.2,0.7,0.3,1,0.1c0.2-0.1,0.3-0.1,0.6,0c0.4,0.1,0.4,0.1,0.7,0c0.4-0.2,0.8,0,0.9,0.1
			c0.1,0.1,0,0,0.2-0.5c0.1-0.2,0.2-0.5,0.2-0.5c0-0.1-0.4,0-0.7,0.1c-0.2,0.1-0.4,0-0.8-0.1c-0.8-0.2-1.3-0.2-1.8,0.1
			C38.7,78.3,38,78.1,37.2,77.8L37.2,77.8L37.2,77.8z M38.8,79.9c-0.4,0-0.7,0.2-0.8,0.5c-0.2,0.4,0.1,1.2,0.6,1.3
			c0.4,0.1,0.4-0.2,0.2-0.3c-0.3-0.1-0.7-0.5-0.4-0.9c0.2-0.3,0.6-0.3,1,0.1c0.7,0.6,1.4,0.7,1.6,0.1c0-0.2-0.1-0.5-0.4-0.4
			c-0.2,0.1-0.7,0.1-1.1-0.2C39.2,80,39,79.9,38.8,79.9L38.8,79.9z M45.8,82c1.7-0.1,1,2.2,0,1.6c-0.3-0.2-0.2-1,0.7-1
			c-0.9-0.7-1.5,0.2-1.3,1.1c-0.2,0.3-0.3,0.9-0.4,1.3c-0.2,0.4-0.4-0.6-0.2-1.6C44.8,82.4,45.2,82,45.8,82L45.8,82z M36.2,82.1
			c-0.3,0,0,0.4,0.1,0.4c1.1,0.8,1.6,1.4,0.7,1.1c-1.4-0.3-1.7,0.1-2.8,0.5c-0.2,0.1-0.2,0-0.5,0c-0.9-0.3-0.9,0.3,0.1,0.8
			c1.5,0.8,2.7,1,3.8,0.4c0.7-0.4,0.8-0.1,0.1,0.3c-1.2,0.7-2.4,0.6-4.2-0.6c-0.6-0.4-0.7-0.1-0.1,0.3c1.4,0.9,3.3,1.6,4.9,0.4
			c0.3-0.3,0.4-0.4,0.6-0.3c0.6,0.3,0.4-0.2,0-0.7c-0.1-0.2-0.3-0.3-0.3-0.5c0-0.4-0.2-0.4-0.4-0.4c-0.3,0-0.2-0.1-0.6-0.4
			C37.1,82.7,36.6,82.1,36.2,82.1L36.2,82.1z M22.1,84.4c-0.6,0-0.7,0.1-0.6,1.3c0,0.2,0.1,0.9,0.2,1.2c0.3,3.2,0.1,4.6-0.8,5
			c-0.3,0.1-0.6,0.1-0.9,0c-0.6-0.2-0.8-0.9-0.4-1.7c0.1-0.2,0.2-0.6,0.3-0.8c0.1-0.2,0.2-0.6,0.3-1c0.2-0.8,0.3-2,0.2-3.2
			c-0.1-0.8-0.1-0.9,0.1-1.4c0.4-0.8,0.7-1.2,1.6-1.2C23.1,82.8,23.4,84.3,22.1,84.4L22.1,84.4z M43.7,84.4l-0.3,0
			c-0.3-1.1-1-0.8-1.1,0l-0.2,0C42.1,82.9,43.9,83.3,43.7,84.4L43.7,84.4z M17.9,83.5c1.9,0.2,2.2,0.7,2.4,3c0,1.1-0.1,1.8-0.2,2
			c-0.3,0.1-0.5-0.1-0.9,0.1c-0.2,0.1-0.2,0.2-0.3,0c-0.1-0.1,0-0.7,0.2-1.2c0.1-0.4-0.1-0.7-0.7-1.3c-0.2-0.2-0.3-0.4-0.5-0.7
			c-0.3-0.9-0.5-0.5-0.2,0.3c0.1,0.3,0.2,0.5-0.2,0.3c-0.2-0.1-0.4,0-0.6,0.1c-0.5,0.1-1-0.2-0.5-0.3c0.3-0.1,0.8-0.3,0.9-0.3
			c0.1,0,0.2,0,0.2-0.1c0-0.2-1-0.2-1.7,0.1c-0.9,0.4-1,0.4-0.9-0.3C14.9,83.6,16.4,83.4,17.9,83.5L17.9,83.5z M36.2,83.7
			c0.5,0,0.9,0.5,0.8,1l-0.2,0c-0.1-0.9-0.9-0.9-1.2,0.1l-0.3,0C35.5,84,35.9,83.7,36.2,83.7L36.2,83.7z M41.8,83.7
			c0.2,0.1,0.1,0.4-0.1,0.5c-0.1,0-0.3-0.2-0.3-0.3C41.5,83.8,41.6,83.7,41.8,83.7L41.8,83.7z M43.9,83.8c0.1,0,0.3,0.1,0.3,0.2
			c0,0.3-0.2,0.2-0.3,0.2C43.9,84.2,43.8,83.9,43.9,83.8L43.9,83.8z M37.4,84.1c0.4,0,0.5,0.5,0.1,0.5
			C37.3,84.6,37.3,84.2,37.4,84.1z M35.2,84.1l-0.1,0.4c-0.2,0.1-0.4,0-0.4-0.1C34.7,84.1,35.1,84.1,35.2,84.1L35.2,84.1z M41.3,85
			c0.7,0.3,1.5,0.5,2.4,0.2c0.3-0.1,0.5-0.3,0.5-0.1c0,0.1-0.2,0.3-0.7,0.5c-0.9,0.3-1.5,0.2-2.1-0.3C41.3,85.1,41.2,85,41.3,85
			L41.3,85z M41.1,85.4c1.1,0.6,2.1,0.7,2.9,0.2c0.4-0.1,0.4,0,0.4,0.2C42.8,87.3,40.8,85.8,41.1,85.4L41.1,85.4z M14.5,86.4
			c-0.3,0.5-0.4,1.9-0.9,2.3C10.6,88.5,12.6,84.5,14.5,86.4z M33,85.9c-0.2,0.1,0,0.5,0.2,0.6c2.3,1,3.5,1.1,4.8,0.7
			c0.5-0.2,0.8-0.6,0.9-0.9c0-0.3-0.3-0.3-0.9,0c-1.9,0.7-3,0.2-4.5-0.4C33.3,85.9,33.2,85.9,33,85.9L33,85.9z M24.3,85.9l0,3.4
			l-2.2,0l0-0.5l1.6,0l0-2.4l-1.9,0l0-0.4L24.3,85.9L24.3,85.9z M24.8,85.9l2.2,0l0.1,0.3h-2.3V85.9L24.8,85.9z M16,87
			c-0.1,0.1-0.4,0.2-0.5,0.1c-0.2-0.2,0-0.7,0.4-0.7C16.2,86.4,16.3,86.8,16,87L16,87z M17,86.5c0.3,0,0.4,0.3,0.2,0.6
			c-0.2,0.2-0.3,0.2-0.4,0.1C16.6,86.9,16.7,86.5,17,86.5z M14.8,86.6l0.2,0.1c0.2,0.4-0.5,0.7-0.6,0.4
			C14.4,86.8,14.6,86.6,14.8,86.6z M27.1,86.6l0.1,0.4l-2.5,0v-0.4L27.1,86.6z M18.2,86.7c0.4,0,0.3,0.4,0.1,0.6
			c-0.3,0.3-0.6,0.2-0.5-0.2C17.8,86.9,18,86.7,18.2,86.7z M16.2,88c-0.1,0.5,0.1,1.4,0.1,1.5c-0.2,0.2-0.5,0.1-0.6,0
			c-0.5-0.3-0.5-2,0-2.1c0.3,0.1,0.5-0.1,0.6-0.2S16.2,87.5,16.2,88L16.2,88z M22.8,87.3c0.2,0,0.4,0.2,0.4,0.5
			c0,0.3-0.2,0.5-0.4,0.5c-0.2,0-0.4-0.2-0.4-0.5C22.3,87.5,22.5,87.3,22.8,87.3z M24.8,87.3h2.6c0.2,0.2,0.1,0.4,0.1,0.5l-2.7,0
			V87.3L24.8,87.3z M17.2,87.4c0.1,0,0.2,0.3,0.1,0.5c-0.1,0.5-0.1,1.2,0,1.5c0.1,0.2,0.1,0.4,0.1,0.4c-0.1,0.2-0.5,0.1-0.7-0.2
			c-0.4-0.8-0.4-2.3,0.1-2.2C17,87.6,17.1,87.5,17.2,87.4z M15,87.6c-0.1,0.2,0,1.3,0,1.4c0,0.1-0.3,0.1-0.5,0
			c-0.4-0.2-0.3-0.7-0.2-1.2c0.1-0.3,0.3-0.4,0.6-0.4C14.9,87.4,15.1,87.4,15,87.6L15,87.6z M18.5,87.6c0.1,0,0.2,0.1,0.1,0.5
			c0,0.3,0,0.6,0,0.9c0.1,0.7,0.1,0.8,0,1c-0.2,0.2-0.5,0.1-0.7-0.1c-0.4-0.3-0.4-2-0.1-2.1C18.1,87.9,18.3,87.7,18.5,87.6
			L18.5,87.6z M27.3,88.1l-0.4,0.5h-2.2v-0.5L27.3,88.1L27.3,88.1z M19.5,88.8c0.3,0,0.3,0.6,0.1,1c-0.2,0.2-0.3,0.3-0.5,0
			C18.9,89.6,19.2,88.8,19.5,88.8z M26.7,89l-0.3,0.3l-1.6,0V89L26.7,89L26.7,89z"/>
		<path class="st7" d="M15.9,76.8l-2.7-2.1c3.2-0.1,6.3,0,9.5,0.1L19.6,77c-0.6-0.7-1-1.7-1.9-2.1C17,75.1,16.5,76.1,15.9,76.8z
			 M39.1,76c-0.1,0-0.1-0.1-0.2-0.5c-0.8-3.7-4.7-3.5-4.6-3.4c0-0.1,4.8-4.6,7.7-8.1c0.9,2.7,3.5,8.8,3.4,8.7c0,0-0.8,0-2.7,0
			c-1.8,0.8-3,1.6-3,2.8c0,0.4-0.1,0.6-0.2,0.5C39.3,76.1,39.2,76,39.1,76z M48,64c2.5,0,3-1.3,3.3-1.4c1.7-0.3,2.7,0.8,3.4,2
			c0.9,0.6,0.8,0,1-0.8L58,63l0,0.7c-0.7,0.4-1.8,1.4-1.8,1.4l-0.7,0l-0.4,0.5c-1.6,0.9-3.2,1.9-4.9,2.6C50.2,68.3,48.2,65.6,48,64
			L48,64z M16.5,64.2l0-14.8c1-0.1,3-0.1,3-0.1c0.8-1.4,1.9-2.1,3-3c0.2,1.8,0.2,3.6,0.2,5.4c-3,3.7-4.7,8.3-2.8,15.1l-1.1-0.1
			L16.5,64.2z M33.1,65.1c0.9-3.1,1.5-6.2,1.8-9.4l5.7-0.1l0.1,2L33.1,65.1z M52.4,58.3l-0.1-5.5c4.2-5,4.4-9.4,2.9-15
			c1.4,0.3,2.1,1.4,3.4,2.9v14.4c-0.9,0.1-3.2,0.3-3.2,0.3C55.4,56.1,53.4,57.7,52.4,58.3L52.4,58.3z M34.9,49.6l-0.3-2.4L42,40
			c-0.6,3.1-1.3,6.3-1.6,9.6L34.9,49.6z M22.6,42c-0.5,0.4-2.5-1.7-2.8-3.1c0.5-0.7,4.8-2.8,4.8-2.8s2.5,3.3,2.4,4.6
			c-1.1,0.3-2.1,0.4-2.9,1.3C23.6,42.1,23.4,41.6,22.6,42z M19.2,39.3c0.6,0.1,0.2,0.9,0.1,1.5l-3.1,0.9C17.3,40.8,18,40,19.2,39.3
			L19.2,39.3z M29.4,32.1c0.6,0,1.3,0.3,1.8,0c0.2-0.1,0.6-0.2,1-0.1c0.9,0.3,1.3-0.8,1.9-0.8c0.8,0,1.2-0.5,1.2-1.7
			c0-0.5,0-0.5,0.1-0.6c0.3-0.1,0.5,0.1,0.6,0.3c0.6,2,2,3.9,4.2,3.7c-1.8,1.8-7.1,7.4-7.1,7.4C32.1,37.5,30.8,34.7,29.4,32.1
			L29.4,32.1z M52.3,30.3l3.2-2.4l1.9,2.4l1.7-2.3c1,0.7,3.2,2.3,3.2,2.3S55.6,30.5,52.3,30.3L52.3,30.3z"/>
		<path class="st3" d="M54.1,8.7L24.4,8.9l5.8,7.8c6.1-1.3,11.5-0.4,17,0.5L54.1,8.7z M53.4,9.1l-2,2.5c-0.5-0.5-1.8-0.3-1.6,0.8
			c-1.5-0.8-1.8,1.4-0.6,1.3c-0.2,0.4-1.5,0.5-1.8-0.2c-1.3,0.8-1.7,0-2.1-0.5c1.7,1.2,2.5-1.2,0.7-1.4c0.7-1.5-1.9-2.2-1.7-0.2
			c-1.7-0.4-1.3,2.1-0.1,1.6c-0.8,1.3-2.2,0.4-2.4,0.2c-0.7,0.5-2,0.5-2.4-0.3c1.9,0.4,1.7-2.2,0-1.6c0.9-2-2.1-1.7-1.4-0.1
			c-1.7-0.1-1.3,2.1,0.2,1.7c-1.3,1.3-2.3,0.1-2.6,0.1c-0.8,0.9-2.2,0.4-2.4-0.1c1.4,0.5,1.8-1.8,0.1-1.6c0.4-1.5-2-1.7-1.5,0
			c-1.4-0.3-1.4,1.9,0.1,1.6c0.1,0.6-1.1,1.2-1.9,0.6c-0.5,0.3-1.1,0.8-1.8,0.1c1.1-0.2,1.3-2-0.5-1.6c0.1-1.1-0.6-1.2-1.4-0.9
			l-1.3-1.7L53.4,9.1z M32.9,11.9c-0.1,0.2-0.3,0.4-0.2,0.5c0,0.1,0.2,0.3,0.4,0.6c1.5,2,4.5,1.9,5.4-0.1c0.2-0.4,0.1-0.5-0.1-0.8
			c-0.3-0.4,0-0.8,0.4-0.8c0.5,0.1,0.6,0.5,0.3,0.8c-0.5,0.7,0.9,2.1,2.3,2.4c1.8,0.3,3.5-1,3.3-2.1l-0.1-0.2
			c-0.2-1,1.3-0.5,0.8,0.1c-0.2,0.2-0.3,0.3-0.3,0.5c0.4,2,2.9,2.3,4.1,1.6c-1.5,2.5-3.9,0.6-4.3-1.2c-2.1,3.1-4.7,2.5-6.1-0.3
			c0.2,0.2-2.8,4.9-6.1,0.1c-1.4,3.9-4,1.3-3.8,1.1c1.2,0.7,3.3,0.4,3.6-1.7c0-0.3-0.2-0.3-0.3-0.5C31.5,11,33.3,11,32.9,11.9
			L32.9,11.9z M27.3,12.2c0.3,0,0.3,0.1,0.3,0.4L27.3,12.2z M50.3,12.9l-0.4,0.5C49.8,13.1,49.8,12.9,50.3,12.9z M54.6,13.1
			c-0.9,0-1.6,1.3-1.6,3.1c0,0.8,0.2,2.9,0.2,3.3c0.1,0.4,0,1-0.2,1.1c-0.4,0.2-0.6,0.3-0.7,0.5c-0.3,0.5,0,1.1,0.5,1.3
			c0.4,0.2,1-0.1,1.3-0.6c0.2-0.3,0.2-0.4,0.4-1.2c0.1-0.4,0.1-0.9,0-1.5c-0.2-1.2-0.1-2.7,0.4-3.5c0.7-1.3,0.7-2.1,0-2.4
			C54.8,13.1,54.7,13,54.6,13.1L54.6,13.1z M54.5,13.2c1.1,0,1,1.1,0.5,1.4c-0.2,0.1-0.5,0.1-0.8-0.1c-0.3-0.2-0.3,0,0.1,0.3
			c0.4,0.3,0.6,0.3,0.3,0.9c-0.2,0.6-0.3,2-0.2,2.7c0.3,2.1,0,3.1-0.8,3.5c-0.4,0.2-0.9-0.1-1-0.4c-0.2-0.5,0.1-1,1-0.9
			c0,0,0.1-0.2-0.2-2c-0.3-2.5-0.2-4.3,0.3-4.9C53.9,13.5,54.2,13.2,54.5,13.2z M61.8,15.8c-0.3,0-0.5,0.1-0.8,0.2
			c0,0,0,1.1-0.1,1.3c-0.2,1-0.1,1.1,0.3,1.2c1.1,0.3,1.9-0.4,1.9-1.5C63.2,16.4,62.6,15.8,61.8,15.8z M62,16c0.6,0,1.1,0.7,1.1,1.3
			c0,0.8-0.8,1.2-1.4,1.1c-0.2,0-0.4-0.1-0.5-0.2c-0.1-0.2,0.1-0.3,0.5-0.3c0.5,0,0.6-0.1,0.7-0.3c0.3-0.5-0.1-1.2-0.6-1.1
			c-0.2,0-0.2,0.1,0,0.2c0.6,0.3,0.4,0.7,0.2,0.9c-0.3,0.2-0.7-0.1-0.8-0.2l0-1.1C61.2,16.2,61.5,16,62,16L62,16z M55.4,20.9
			c0,0-0.2,0.1-0.4,0.2c-0.3,0.2-0.3,0.6-0.2,1c0.1,0.2,0,0.2-0.1,0.4c-0.6,0.7-0.6,1.1-0.3,1.8c0.1,0.3,0.1,0.3,0,0.7
			c-0.5,1.7-1.6,3.7-2.7,5c-0.2,0.2-0.2,0.4-0.2,0.4s0.3,0,0.4-0.1c1.1-0.6,2.4-1.7,3.5-2.4c-1.8,1.5-3.7,2.8-3.7,2.8l2.4,0.1
			c-0.6,0.6-11.2,9.8-8.4,26.2c3.3-0.8,4.9-2.2,6.6-3.8c0,1.3,0,4.9,0.1,4.9c0-0.1-1.5-0.6-1.2,0.7c0.2,0.7,0.3,2.5-0.1,3.6l0.2,0.2
			l-0.3,0c-0.6,1.1-2.2,1.4-2.9,1.4c-0.3,0-0.2,0.4-0.1,0.5c0.1,0.6,0.8,1.8,2.1,3.9l0.3,0l-0.2,0.2c0.1,0.3,0.5,0.8,0.5,0.8l0,0.2
			c0,0,0.7,1,1,1.4l0.1,0c0.2,0.2,0.4,0.5,0.7,0.8l0,0.1c0.4,0.4,1.2,1.3,1.2,1.3l0.2,0l0.6,0.7c5-2.3,10.2-7.4,10.2-7.4l0-11
			l-5.9,0l0-14.5l5.9,5.9l0-1.7c-1.3-1.3-6.7-6.8-6.7-6.8c0.8-0.1,1.5-0.4,2.3-0.8c1.3,0.7,2.7,1.1,4.2,0.9l0-1.6
			c-1.8,0-2.9-0.6-3.7-1.3l-1.1,0c-2,1.6-3.5,0.8-5,0.5l-1.1-1.6l11-0.1l-0.1-3.8l-1.7,0l-1.1-0.8l1.3,0.5c0,0,0-0.2-0.3-0.6
			c-0.7-1.1-1.5-2.8-2-4.2c-0.2-0.7-0.2-0.7,0-1.1c0.3-0.6,0.2-1.3-0.2-1.7c-0.3-0.3-0.3-0.3-0.2-0.6c0.4-0.8-0.5-1.1-0.5-1.1
			C57.8,21.7,55.3,20.9,55.4,20.9L55.4,20.9z M59.7,21.2c0.4,0,0.4,0.2,0.4,0.4c0,0.5-0.7,0.7-1,0.8c-1.4,0.3-3.9,0.1-4-0.5
			c-0.1-0.5,0.2-0.8,1.2-0.5C57.9,21.7,58.8,21.3,59.7,21.2z M55.1,22.6c0.1,0,0.3,0.2,0.4,0.4c0,0.2-0.2,0.8-0.4,1
			c-0.4,0.4-0.9-0.2-0.6-0.8C54.7,22.9,54.9,22.6,55.1,22.6L55.1,22.6z M59.9,22.7l0.3,0.1c0.4,0.3,0.4,1.1,0.1,1.3
			c-0.3,0.1-0.7-0.2-0.6-0.8C59.6,22.9,59.7,22.7,59.9,22.7L59.9,22.7z M58.8,22.9l0.2,0c0.3,0.1,0.4,1.1,0.1,1.4
			c-0.2,0.2-0.7,0.2-0.9-0.3C58.1,23.5,58.4,22.9,58.8,22.9L58.8,22.9z M56.3,22.9c0.4,0,0.5,1,0.1,1.4c-0.4,0.3-0.9,0-0.7-0.7
			C55.8,23.3,56,22.9,56.3,22.9z M57.5,23.1c0.6,0.1,0.6,1.7-0.2,1.5C56.8,24.2,56.8,23.1,57.5,23.1z M54.7,24.7l0.9,0.1
			c0,0-1.4,3-2.7,3.8C53.7,27.5,54.3,26.1,54.7,24.7L54.7,24.7z M60.1,24.8c0.5,1.4,1.1,2.9,1.8,4.3c-1.1-1.1-2-2.7-2.9-4.2
			L60.1,24.8z M55.9,24.9l0.6,0c0.2,0.9,0.5,1.5,0.9,2c0.3-0.6,0.6-1.3,0.8-1.9l0.5,0c0.2,0.1-0.6,2.9-1.3,3.2
			C56.7,27.5,56,25.8,55.9,24.9z M55.7,25.5c0,0.1,0.9,2.4,1.7,3.2c0.8-0.8,1.3-1.8,1.6-3l2.5,3.6l-2.5-1.7c-0.5,0.8-1,1.6-1.7,2.3
			c-0.7-0.7-1.3-1.6-1.9-2.5c-1,0.7-1.6,1.5-2.9,2.2C52.7,29.7,55.1,27,55.7,25.5z M55.4,28.1l1.7,2.1l-4.6-0.1L55.4,28.1z
			 M59.2,28.2l2.9,2l-4.3,0L59.2,28.2z M36,29.2l0.1,0.2c0.5,2.1,1.9,3.9,4.1,3.7l-7,7.2c0,0-1.2-4-3.5-8.1c0,0,0.4,0.1,0.8,0.2
			c0.3,0,0.6,0,0.8,0c0.2,0,0.3-0.1,0.5-0.2c0.3-0.1,0.6,0,0.8,0.1c0.5,0.1,0.8-0.2,1.4-0.7c0.2-0.1,0.2-0.1,0.4-0.1
			c0.8,0,1.2-0.7,1.2-1.7l0-0.5l-0.1,0.5c-0.2,1-0.3,1.4-1.3,1.4c-0.2,0-0.3,0.2-0.7,0.5c-0.5,0.4-0.9,0.5-1.2,0.3
			c-0.4-0.2-0.4-0.1-0.7,0.1c-0.4,0.2-1,0.2-1.5,0c-0.7-0.2-0.6-0.1-0.6-0.1c4.2,7.6,5.7,14.8,5.6,21.3c-0.1,9.2-3.3,16.6-6.1,21.1
			c0,0,0.5,0,0.9-0.1c0.2-0.1,0.4,0,0.6,0.1c0.2,0.1,0.3,0.1,0.5,0c0.1,0,0.5,0,0.7,0c0.5,0.1,0.5,0,1.1-0.5
			c1.6-1.6,1.5-1.5,2.6-1.5c1.7,0.1,3.1,1.2,3.7,3.1c0.1,0.2,0.2,0.6,0.2,0.6l-0.1-0.5c-0.5-2.5-2.6-3.4-4.4-3.4l7.5-7.6
			c0,0,1.7,5.8,3.3,8.4c0,0-0.5-0.2-1.3-0.1c-0.5,0.1-1,0-1.3-0.1c-0.4,0-0.6,0.1-1.1,0.5c-0.2,0.2-0.4,0.4-0.8,0.5
			c-0.9,0.4-1.3,0.8-1.3,1.8c0,0.2,0,0.4,0,0.5l0,0.1l0.1-0.1c0-0.1,0.1-0.3,0.2-0.7c0.1-0.8,0.3-1,1-1.4c0.2-0.1,0.7-0.4,0.9-0.5
			c0.7-0.5,0.9-0.6,1.4-0.5c0.3,0.1,0.6,0.1,1,0.1c0.5-0.1,0.5-0.1,1,0.1c0.3,0.1,0.8,0.2,0.8,0.2c-7.3-14.8-7-28.5,0.1-42.4
			c0,0-2.1,0-2.2,0.1c0,0-0.3,0-0.6-0.1c-0.6-0.1-0.5,0-1.8,1.4c-1.7,1.7-4.4,0.3-5.2-2.5C36.1,29.5,36.1,29.4,36,29.2L36,29.2
			L36,29.2z M42.8,30.9c0.3,0,0.5,0.1,0.5,0.4l-10,9.9l-0.2-0.6L42.8,30.9z M44.9,30.9c-0.1,0.2-0.5,0.6-0.6,0.8l0.5,0.7l-0.3,0.6
			l-0.8-0.7l-1.6,1.6l1.3,1.5l-1.3,1.3l-0.4-0.5l0.7-0.7l-1-1l-1.8,1.8l1.5,1.5L40,38.8l-0.4-0.4l0.6-0.6l-1-1l-1.7,1.8l1.3,1.5
			l-1,1l-0.5-0.5l0.5-0.5l-1-1l-1.7,1.7l1.4,1.5l-1,0.9l-0.4-0.4l0.5-0.5l-0.9-1l-1.1,1l-0.2-0.7l10.6-10.7L44.9,30.9z M45.5,31.1
			L45.1,32l-0.3-0.4l0.4-0.5L45.5,31.1z M20.6,31.1c-0.3,0.1-6.6,3.6-10.2,7.5l0,1.5l-0.1,0.2l0.1,2.3l0.1,0.1l0,0.9l-0.1,0.2v2.5
			l0.2,0l0,3.1l5.9,0l0,14.8c0,0-3.5-3.9-5.9-6.1l0,1.7l6.6,6.9c-0.5,0.1-1,0.2-1.9,0.7c-2.1-1.4-4.6-0.9-4.6-0.9l0,1.8
			c1.6-0.2,3,0.1,4.6,1.2c1.4-0.9,3-1.5,5.4-0.8c0.5,0.9,1.1,1.8,1.6,2.3l-11.7,0.1l0,3.6c0.5,0,1.8,0,1.8,0
			c0.7,1.3,1.9,3.1,2.5,5.3c-0.7,0.9-0.7,1.6,0,2.5c0,0.4-0.1,0.9,0.3,1.3c1.5-0.7,3.2-0.4,4.4,0c0.4,0.1,0.6-0.4,0.6-1
			c0-0.4,0-0.5,0.2-0.7c0.6-0.6,0.2-1.7,0.1-1.7c0-1,3.1-6,3.1-6l-0.6,0.2l-2.7,0c7.1-7,10.1-15,9.5-24c-0.1-2.3-0.5-3.3-0.5-3.3
			c-2.5,1.1-4.6,2-6.6,4.1l-0.1-4.7c0.1,0.2,0.9,0.4,1.2,0.1c0.2-0.2,0.3-0.3,0-0.9c-0.3-0.8-0.4-2.6-0.2-3.2c0-0.1,0-0.3,0.1-0.4
			c0-0.2,0-0.3,0-0.3l0.3,0c0.9-0.8,1.8-1.2,2.9-1.3l0-0.6c-0.8-2.1-1.5-3-2.3-4.2c0,0-0.2-0.1-0.4,0l0.2-0.2
			C23.5,34.2,22,32.6,20.6,31.1L20.6,31.1L20.6,31.1z M20.6,31.4l0.8,0.7c-3.6,1.8-7.2,4.3-10.7,7.8l0-1.3
			C14.7,34.9,17.6,33.1,20.6,31.4L20.6,31.4z M43.7,32.7l0.5,0.5l-0.6,0.7l0.4,0.4l-0.2,0.6l-1-1.1L43.7,32.7z M21.2,32.8
			c0.2,0,0.4,0.2,0.4,0.4c0,0.2-0.2,0.4-0.4,0.4s-0.4-0.2-0.4-0.4S21,32.8,21.2,32.8z M52,33.4c7.3,8.3,3.6,20.4-6.2,23.3l-0.1-0.7
			c9.9-3.4,12.2-14.7,5.8-21.8L52,33.4z M22.5,33.4l0.5,0.6c-4.2,2-8.3,5.1-12.2,9.5l0-1.1C14.4,38.4,18.4,35.5,22.5,33.4L22.5,33.4
			z M19.8,33.6c0.2,0,0.4,0.2,0.4,0.4c0,0.2-0.2,0.4-0.4,0.4s-0.4-0.2-0.4-0.4S19.5,33.6,19.8,33.6z M18.5,34.4
			c0.2,0,0.4,0.2,0.4,0.4s-0.2,0.4-0.4,0.4c-0.2,0-0.4-0.2-0.4-0.4C18,34.6,18.2,34.4,18.5,34.4z M22.8,34.7c0.2,0,0.4,0.2,0.4,0.4
			c0,0.2-0.2,0.4-0.4,0.4s-0.4-0.2-0.4-0.4C22.4,34.9,22.6,34.7,22.8,34.7z M41.5,35l0.4,0.5l-0.7,0.7l1,1l0.9-0.9l-0.5,1.4L34.4,46
			l-0.2-0.9l0.6-0.7l-1-1l-0.2-0.7l1-0.9l0.4,0.4l-0.6,0.7l0.9,0.9l1.7-1.6l-1.4-1.5l1.1-1.1l0.4,0.4l-0.5,0.6l1,1.1l1.7-1.7
			L38,38.5l1.1-1.1l0.4,0.4L39,38.5l1,1l1.7-1.7l-1.4-1.5L41.5,35z M17.2,35.3c0.2,0,0.4,0.2,0.4,0.4s-0.2,0.4-0.4,0.4
			s-0.4-0.2-0.4-0.4C16.7,35.5,16.9,35.3,17.2,35.3z M24,35.4l0.3,0.6c-5,2.6-8.4,5.1-13.5,11v-0.7C14.7,41.3,18.8,38.1,24,35.4
			L24,35.4z M21.4,35.4c0.2,0,0.4,0.2,0.4,0.4c0,0.2-0.2,0.4-0.4,0.4S21,36.1,21,35.9C21,35.6,21.2,35.4,21.4,35.4z M60,35.6
			c0.9,0.8,2.7,1.6,3.9,1.5l0,1c-2.1,0.2-3.9-1.1-3.9-1.1c-1.6,1-3.2,1.1-4.9,0.7l-0.7-1.4C57,37.4,59.4,36.2,60,35.6L60,35.6z
			 M50.1,35.9c0.1,0.2,0.4,0.4,0.4,0.4c1.9-0.5,2.5,1.5,1.6,2.7l0.3,0.8c0.3,0.1,0.6,0.2,0.9,0.4c0.5,0.3,0.7,0.9,0.7,1.5
			c0.1,0.7-0.9,1.3-0.9,1.2l0,0.9c0.3,0.2,0.6,0.5,0.8,0.8c0.5,0.8,0.3,1.6-0.4,2.1c-0.4,0.3-0.9,0.3-0.9,0.3L52,48
			c0.4,0.2,0.5,0.6,0.6,0.9c0.1,0.6-0.3,1.4-0.8,1.7c-0.7,0.4-1.5,0-1.5,0l-0.6,0.6c0.2,0.6,0.2,0.9,0.1,1.2
			c-0.2,0.8-1.1,1.1-1.7,1.1c-0.5,0-0.9-0.4-0.9-0.4l-0.7,0.3c0,0,0,0.9-0.3,1.2c-0.1,0.1-0.5,0.4-0.5,0.4l-0.1-0.6
			c0.3-0.2,0.5-0.7,0.4-1.1l1.5-0.8c0,0.1,0.4,0.5,0.7,0.5c0.6,0.1,1.2-0.3,1.2-0.9c0-0.3-0.2-0.5-0.2-0.8l1.3-1.4
			c0.5,0.2,0.9,0.2,1.1,0.1c0.5-0.3,0.6-0.8,0.5-1.1c-0.1-0.4-0.4-0.6-0.5-0.7l0.7-1.8c0.3,0,0.5-0.1,0.8-0.2c0.5-0.4,0.5-1,0.2-1.4
			c-0.3-0.4-0.7-0.5-0.7-0.5l0.1-1.9c0,0,0.7-0.4,0.8-0.8c0.1-0.6-0.1-1-0.9-1.2c-0.4-0.1-0.4,0-0.4,0l-0.6-1.7
			c1-0.6,0.7-1.5,0.2-1.8c-0.5-0.3-1.2,0-1.2,0s-0.3-0.3-0.6-0.6L50.1,35.9z M24.5,36.2c0.6,0.9,1.7,2.6,2.3,4.1l0,0.4
			c-1.7,0.1-2.3,0.8-2.9,1.3c-0.5-0.2-0.7-0.5-1.5,0c0,0-2.2-1.3-2.6-3.1C21.4,37.9,22.9,37,24.5,36.2L24.5,36.2z M15.9,36.2
			c0.2,0,0.4,0.2,0.4,0.4c0,0.2-0.2,0.4-0.4,0.4c-0.2,0-0.4-0.2-0.4-0.4C15.5,36.4,15.7,36.2,15.9,36.2z M20,36.3
			c0.2,0,0.4,0.2,0.4,0.4c0,0.2-0.2,0.4-0.4,0.4s-0.4-0.2-0.4-0.4S19.8,36.3,20,36.3z M49.4,36.9c0.7,1,1.9,2.9,2.1,4.5
			c0.4,2.3,0.1,4.8-0.9,6.5c-1.9,3.7-5.2,4.4-5.2,4.6l0-0.7c0,0.2,2.5-0.9,4.2-3.3c1.1-1.6,1.6-4,1.4-5.8c-0.1-2.6-2-5.1-2-5.1
			L49.4,36.9z M14.6,37.2c0.2,0,0.4,0.2,0.4,0.4c0,0.2-0.2,0.4-0.4,0.4s-0.4-0.2-0.4-0.4S14.3,37.2,14.6,37.2z M18.6,37.2
			c0.2,0,0.4,0.2,0.4,0.4c0,0.2-0.2,0.4-0.4,0.4s-0.4-0.2-0.4-0.4C18.2,37.4,18.4,37.2,18.6,37.2z M55.3,38c1,0.1,2.1,1.9,3.2,2.9
			l0,14.3l-3.2,0.1c-0.4,1-1.4,2-2.9,3v-5.4C57.7,47.2,56.2,41,55.3,38L55.3,38z M13.4,38.1c0.2,0,0.4,0.2,0.4,0.4S13.6,39,13.4,39
			S13,38.8,13,38.6C13,38.3,13.2,38.1,13.4,38.1z M17.3,38.2c0.2,0,0.4,0.2,0.4,0.4c0,0.2-0.2,0.4-0.4,0.4s-0.4-0.2-0.4-0.4
			S17.1,38.2,17.3,38.2z M57.6,38.2l6.5,6.6l0,1l-7.3-7.5L57.6,38.2z M19.7,38.9l0.2,0.8c-0.2-0.3-0.2-0.5-0.6-0.5L19.7,38.9z
			 M16.2,39.1c0.2,0,0.4,0.2,0.4,0.4c0,0.2-0.2,0.4-0.4,0.4c-0.2,0-0.4-0.2-0.4-0.4C15.8,39.3,16,39.1,16.2,39.1z M12.3,39.2
			c0.2,0,0.4,0.2,0.4,0.4s-0.2,0.4-0.4,0.4s-0.4-0.2-0.4-0.4C11.9,39.4,12.1,39.2,12.3,39.2z M48.8,39.2l1.3,0.9l-0.4,1.7l-1.3-1.2
			L48.8,39.2z M19.2,39.4l0.2,0.1l-0.3,1.1l-2.9,1.1C17.2,40.9,18.1,40,19.2,39.4L19.2,39.4z M19.7,39.9c0.2,0.8,0.7,2.1,1.2,3.1
			c-0.4,0.2-1.7,1-1.7,1.3c0.2,0.7,1.6,1.3,1.6,1.3c-0.5,0.9-1.1,2-1.5,3.2c-0.2-0.4-0.3-2.1,0.3-2.8c-0.5-0.2-1.2-0.7-1.8-1.2
			c0.3-1.3,1.8-2,1.9-2C19.7,42.9,19.3,40.2,19.7,39.9L19.7,39.9z M14.9,40.1c0.2,0,0.4,0.2,0.4,0.4c0,0.2-0.2,0.4-0.4,0.4
			s-0.4-0.2-0.4-0.4C14.5,40.3,14.7,40.1,14.9,40.1z M47.7,40.1c1.9,3.6,0.8,6.8-2.3,9l0.1-0.9c2.1-1.5,3.5-4.6,1.9-7.5L47.7,40.1z
			 M11.3,40.2c0.2,0,0.4,0.2,0.4,0.4c0,0.2-0.2,0.4-0.4,0.4s-0.4-0.2-0.4-0.4S11,40.2,11.3,40.2z M41.9,40.3
			c-1.4,5.3-1.4,7.7-1.5,9.2l-5.4,0l-0.2-1.9L41.9,40.3z M20.1,40.4c0,0,1.2,1.1,2.2,2.1l-0.1,0.3l-1,0.1
			C20.4,41.3,20.1,40.4,20.1,40.4z M19.1,41L19.1,41l0.1,0.8c-0.4,0-4.2,1.6-7.1,4.2c0.4-0.8,1.2-1.5,1.9-2.2
			C15.5,42.3,19.1,41,19.1,41L19.1,41z M13.7,41.2c0.2,0,0.4,0.2,0.4,0.4S13.9,42,13.7,42s-0.4-0.2-0.4-0.4
			C13.3,41.4,13.4,41.2,13.7,41.2z M16.1,41.7l0.2,0.2l-1,0.5L16.1,41.7z M23.2,41.9L23.2,41.9c0.2,0,0.3,0.1,0.4,0.2
			C23.3,42,23.1,42,23,42C23,42,23.1,41.9,23.2,41.9L23.2,41.9z M19.3,42.1l0.1,0.6c-2.2,1.3-4.8,2.5-8.6,6.1v-1.2
			C13.1,45.3,15.9,43.4,19.3,42.1L19.3,42.1z M22.3,42.1c0.1,0,0.3,0,0.4,0c0,0-0.1,0.2-0.2,0.2C22.4,42.3,22.3,42.1,22.3,42.1
			L22.3,42.1z M23.2,42.1c0.3,0,0.5,0.2,0.4,0.6c-0.2,1.1-0.2,2.3,0,3.1c0.2,0.6,0.2,0.8,0.1,0.9c-1.3,0.9-2-3.2-0.9-4.4
			C22.9,42.2,23.1,42.2,23.2,42.1L23.2,42.1z M12.6,42.3c0.2,0,0.4,0.2,0.4,0.4s-0.2,0.4-0.4,0.4s-0.4-0.2-0.4-0.4
			C12.2,42.5,12.3,42.3,12.6,42.3z M49.9,42.4l0.8,1.4L49.6,45l-0.7-1.5L49.9,42.4z M22.1,43.1l0,0.5c-0.6,0.2-1.1,0.4-1.5,0.8
			c-0.1,0.1,1.3,0.7,1.5,0.6l0,0.5c0,0.2-2.4-0.6-2.5-1.2C19.8,44,21.3,43.1,22.1,43.1L22.1,43.1z M11.4,43.4c0.2,0,0.4,0.2,0.4,0.4
			s-0.2,0.4-0.4,0.4S11,44.1,11,43.8S11.2,43.4,11.4,43.4z M17.8,43.9c-0.2,0.3-0.4,0.7-0.5,1.2c-1.6,1-3.3,1.9-5.3,4.2l-1.1,0
			l0-0.3C13.2,46.9,15.6,45,17.8,43.9L17.8,43.9z M22,44l0,0.6c-0.4,0-0.6-0.1-0.9-0.3C21.4,44.2,21.5,44.1,22,44L22,44z M34.1,44.1
			l0.3,0.3l-0.2,0.2L34.1,44.1z M17.8,45.3l0.6,0.4c-1.5,0.8-3.1,2-4.5,3.6h-1.2C14.2,47.6,15.8,46.2,17.8,45.3L17.8,45.3z
			 M49.5,45.8l0.1,1.6l-1.5,0.8l0-1.7L49.5,45.8z M21.1,45.8l1,0.1l0.1,0.4c-0.9,0.6-1.6,1.2-2.3,1.9C20.2,47.3,20.6,46.5,21.1,45.8
			L21.1,45.8z M18.6,45.9l0.4,0.2l-0.2,0.8c-1.3,0.6-2.3,1.3-3.3,2.4h-1.2C15.4,48.1,17.2,46.7,18.6,45.9L18.6,45.9z M22.5,46.7
			L22.5,46.7l0.2,5c-4.4,5.3-4.2,10.4-2.9,15l-0.8,0c-1-1.2-2.3-2.5-2.3-2.5l0-14.6l3.1,0C20.4,47.9,22.3,46.7,22.5,46.7L22.5,46.7z
			 M18.8,47.4l0,0.7c-0.6,0.4-1.2,0.8-1.6,1.3h-1.1C16.9,48.5,17.7,47.8,18.8,47.4z M29.3,47.7l0.2,0.8
			c-10.3,3.8-12.2,14.8-6.1,22.3L23,71.3C16,63.7,19,51.2,29.3,47.7z M18.9,48.5c0,0,0.1,0.6,0.1,0.8h-1.2
			C18.1,49,18.3,48.7,18.9,48.5z M47.9,48.7l-0.7,1.6l-1.8,0l0.8-1.6L47.9,48.7z M36.7,49.8h1.6v1.6h-1.6V49.8z M29.7,50l0,0.7
			c-0.7,0.4-0.5,1-0.7,1c-0.4,0.1-1.6,0.7-1.6,0.7c-0.4-0.4-1-0.3-1.2-0.1c-0.4,0.2-0.4,0.8-0.3,1.3L24.6,55
			c-0.6-0.3-1.2-0.2-1.5,0.2c-0.3,0.5-0.2,1,0.3,1.7l-0.7,1.7c-0.1-0.1-1.2,0.2-1.2,0.9c0,0.7,0.9,1.2,0.9,1.2l0,1.9
			c0-0.1-1,0.3-0.8,1.2c0.1,0.9,1.3,0.7,1.3,0.8l0.6,1.8c0-0.1-0.8,0.7-0.4,1.5c0.4,0.6,1.6,0.2,1.6,0.2l0.3,0.5L24.8,69l-0.2-0.2
			c-0.7,0.1-1.5,0-1.8-0.6c-0.5-0.8,0.1-2,0.2-2l-0.4-1.1c-0.8,0-1.4-0.7-1.5-1.3C21,62.6,22,62.1,22,62.1l0-1.2
			c-0.1,0.1-1-0.6-1-1.4c0-0.6,0.5-1.2,1.1-1.5c0.2-0.1,0.4-0.2,0.4-0.2l0.4-0.9c0,0-0.5-0.8-0.4-1.6c0.3-1.2,1.8-1.1,2.1-1l0.7-0.9
			c-0.4-0.8,0.3-1.8,1.1-2c0.4-0.1,1.4,0.2,1.4,0.2l0.9-0.5C28.6,50.6,29.2,50.3,29.7,50L29.7,50z M35,51.7h1.4v1.6H35V51.7z
			 M38.7,51.7h1.6v1.6h-1.6V51.7z M29.8,52.1l0,0.6c-8.9,4.4-5.3,13.5-4,14.6l-0.3,0.6C24,66.9,19.9,56.4,29.8,52.1L29.8,52.1z
			 M36.7,53.7h1.7l0,1.6h-1.7L36.7,53.7z M29.4,54.4l-0.5,1.5L27.3,56l0.6-1.5L29.4,54.4z M63,55.5l1.1,0c-2.1,2.5-4.4,4.2-6.6,5.1
			c0,0,0-0.2,0.1-0.4c0.1-0.1,0-0.5,0-0.5C60,58.5,61.7,57.1,63,55.5L63,55.5z M57.2,55.5c-0.3,0.4-0.6,0.7-1,0.9L56,55.5
			C56.4,55.5,57.2,55.5,57.2,55.5z M59.2,55.5c0.1,0.3-2.9,2-3,1.8l0-0.6l1.7-1.2L59.2,55.5z M59.8,55.5L59.8,55.5l0.9,0
			c-0.8,1.2-4.9,3.5-4.7,3.2l0.2-0.9C57.5,57.2,58.7,56.4,59.8,55.5z M61.3,55.5l1.1,0c-1.7,2.2-3.4,3-5.1,3.9c-0.1,0-0.1-0.1-0.4,0
			L56.4,59C56.5,59.1,60.2,56.9,61.3,55.5z M29.6,55.6l0,0.7c-2.4,2.1-3.3,4.7-2.1,7.8l-0.3,0.7C25.8,61.4,26.2,58.2,29.6,55.6
			L29.6,55.6z M40.5,55.7l0.1,1.8l-7.4,7.3c1.1-4.1,1.4-6.6,1.7-9.1L40.5,55.7z M64.2,56.1l0,1c-2.9,3.3-5.9,4.7-8.4,5.3L55.7,62
			l1.2-0.7C60.7,59.6,62.3,57.9,64.2,56.1z M55.3,56.1c0.1,0.7-0.6,2.1-1.3,2.8l-1.2,0l-0.1-0.5C53.7,57.9,54.6,57.1,55.3,56.1
			L55.3,56.1z M55.7,56.4c0.5,0.7-0.2,2.7-0.3,2.6c-0.1,0.1,3.9,1-0.2,3c0.1,0.6,0.5,1.8,0.2,2.6c-0.1-0.3-0.8-2.3-1.3-2.8
			c1.3-0.4,2.2-1.1,2.1-1.4c-0.2-0.4-0.8-0.8-1.7-1.1C55.3,58,55.5,57.1,55.7,56.4L55.7,56.4z M26.8,56.7l0.1,1.5l-1.4,0.9l-0.1-1.7
			L26.8,56.7z M51.8,58.1c0.1,0,0.2,0,0.3,0.1c0.7,0.3,0.8,3.8,0.1,4.2c-0.5,0.3-0.8-0.2-0.8-0.3c0.3-1.6,0.1-2.6,0-3.7
			C51.4,58.2,51.6,58.1,51.8,58.1L51.8,58.1z M64.2,58.2v1.2c-4.2,4.4-8.7,7.8-13.3,9.8l-0.4-0.7C56.1,65.9,60.7,62.1,64.2,58.2z
			 M63.4,58.3c-1.9,2.7-4.3,4.5-7.5,5.3l-0.1-0.8C59.9,61.9,63.5,58.3,63.4,58.3z M10.8,58.7c2.5,2.6,5.1,5.2,7.7,7.9l-1,0.1l-6.7-7
			L10.8,58.7z M40.8,58.9l0.1,0.6l-0.7,0.8l1.2,1.3l0.1,0.3l-1,1.1l-0.4-0.5l0.5-0.6l-0.9-1l-1.7,1.7l1.4,1.6l-1.1,1l-0.4-0.4
			l0.5-0.6l-1-1l-1.8,1.8l1.3,1.5l-0.9,1l-0.4-0.5l0.5-0.5l-1-1L33.4,67l1.4,1.6l-1.1,1.1l-0.4-0.4l0.6-0.7l-1-1L32,68.4
			c0,0,0.3-0.8,0.4-0.9c0.1-0.2,0.3-0.4,2.1-2.1C36.5,63.2,38.7,61.2,40.8,58.9L40.8,58.9z M52.9,59.3c0.6,0,1.7,0.2,2.2,0.4
			c0.9,0.5,0.6,0.9,0,1.2c-0.7,0.4-1.3,0.5-2.2,0.6l0-0.4c0.5-0.1,1-0.2,1.4-0.5c0.3-0.2,0.4-0.3,0.4-0.3S54.4,60,54,59.8
			c-0.3-0.1-0.8-0.1-1.1-0.2L52.9,59.3z M25.3,59.8l0.8,1.2l-0.9,1.6l-0.9-1.3L25.3,59.8z M41,60c0,0.2,0.3,1.1,0.2,0.9l-0.5-0.6
			L41,60z M52.9,60.1c0.4,0,0.9,0,1.2,0.2c-0.4,0.3-0.8,0.3-1.2,0.4L52.9,60.1z M63.7,60.7c0.3,0,0.5,0.2,0.5,0.5
			c0,0.3-0.2,0.5-0.5,0.5s-0.5-0.2-0.5-0.5C63.2,60.9,63.4,60.7,63.7,60.7z M39.5,61.5l0.4,0.4l-0.5,0.6l0.9,1l1.2-1.1l0.2,0.7
			L30.8,73.9l-0.6,0l0.7-0.8l-0.8-0.8l0.3-0.6l0.9,0.8l1.7-1.6l-1.4-1.5l1.2-1.2l0.4,0.4l-0.7,0.7l1,1l1.8-1.8L34,67l1.1-1.1
			l0.4,0.4L35,66.9l1,1.1l1.5-1.6l-1.4-1.5l1.2-1.2l0.4,0.4l-0.6,0.6l1,1.1l1.6-1.7l-1.3-1.5L39.5,61.5z M62.6,61.8
			c0.3,0,0.5,0.2,0.5,0.5c0,0.3-0.2,0.5-0.5,0.5s-0.5-0.2-0.5-0.5C62.1,62,62.3,61.8,62.6,61.8z M53.7,61.8c0.7,0.9,1.2,1.9,1.3,2.9
			c-0.6-0.9-1.3-1.7-2.3-2.4l0.2-0.4L53.7,61.8z M64.2,61.9v1.1c-3.3,3.8-7.3,6.6-11.4,8.6l-0.7-0.9C56.9,68.5,60.4,65.8,64.2,61.9z
			 M59.3,62.6L58,63.7v-0.5L59.3,62.6L59.3,62.6z M52.4,62.7c1.1,0.6,2.1,1.5,2.7,2.9c-1.6,1-3.3,1.8-4.9,2.6
			c-0.8-1.3-1.6-2.5-2.2-4.1c2.5,0,3.2-1.4,3.2-1.4C51.9,62.9,52,62.9,52.4,62.7z M61.4,62.9c0.2,0,0.5,0.2,0.5,0.5
			c0,0.3-0.2,0.5-0.5,0.5S61,63.6,61,63.3C61,63,61.2,62.9,61.4,62.9z M58,63.2l0,0.5c-0.6,0.6-1.9,1.5-1.9,1.5l-0.5,0l0.2-1.3
			C56.5,63.7,57.3,63.4,58,63.2L58,63.2z M25.3,63.3l1.2,1l-0.4,1.6l-1.2-0.9L25.3,63.3z M41.8,63.6l0.1,0.5L31.8,74.1L31.2,74
			L41.8,63.6z M60.3,63.9c0.3,0,0.5,0.2,0.5,0.5c0,0.3-0.2,0.5-0.5,0.5s-0.5-0.2-0.5-0.5C59.8,64.2,60.1,63.9,60.3,63.9z M64,63.9
			l0.1,0v0.9l-0.2,0c-0.3,0-0.4-0.2-0.4-0.5S63.8,63.9,64,63.9z M62.9,65c0.3,0,0.5,0.2,0.5,0.5c0,0.3-0.2,0.5-0.5,0.5
			s-0.5-0.2-0.5-0.5C62.4,65.2,62.6,65,62.9,65z M59,65c0.3,0,0.5,0.2,0.5,0.5c0,0.3-0.2,0.5-0.5,0.5s-0.5-0.2-0.5-0.5
			C58.5,65.2,58.7,65,59,65z M55.6,65.2l0.5,0l-0.9,0.5C55.3,65.5,55.5,65.3,55.6,65.2z M64.2,65.4l0,1c-2.3,2.3-5.2,4.8-9.7,7.1
			l-0.6-0.6C57.6,71.1,61,68.7,64.2,65.4L64.2,65.4z M57.6,65.9c0.3,0,0.5,0.2,0.5,0.5c0,0.3-0.2,0.5-0.5,0.5s-0.5-0.2-0.5-0.5
			C57.2,66.1,57.4,65.9,57.6,65.9z M61.8,65.9c0.3,0,0.5,0.2,0.5,0.5c0,0.3-0.2,0.5-0.5,0.5s-0.5-0.2-0.5-0.5
			C61.3,66.2,61.5,65.9,61.8,65.9z M15.2,67.9c1.6-0.9,2.9-1,4.7-0.8l0.5,1.1c-1.8-0.3-3.6-0.3-5.2,1c-1.7-1.1-2.9-1.4-4.3-1.2
			l0-1.1C12.6,66.5,14.2,67.2,15.2,67.9L15.2,67.9z M56.3,66.8c0.3,0,0.5,0.2,0.5,0.5c0,0.3-0.2,0.5-0.5,0.5s-0.5-0.2-0.5-0.5
			S56.1,66.8,56.3,66.8z M60.6,67c0.3,0,0.5,0.2,0.5,0.5c0,0.3-0.2,0.5-0.5,0.5s-0.5-0.2-0.5-0.5C60.1,67.2,60.4,67,60.6,67z
			 M54.9,67.7c0.3,0,0.5,0.2,0.5,0.5s-0.2,0.5-0.5,0.5c-0.3,0-0.5-0.2-0.5-0.5C54.5,67.9,54.7,67.7,54.9,67.7z M59.3,68
			c0.3,0,0.5,0.2,0.5,0.5c0,0.3-0.2,0.5-0.5,0.5s-0.5-0.2-0.5-0.5C58.8,68.2,59,68,59.3,68z M53.5,68.6c0.3,0,0.5,0.2,0.5,0.5
			s-0.2,0.5-0.5,0.5c-0.3,0-0.5-0.2-0.5-0.5S53.2,68.6,53.5,68.6z M58,69c0.3,0,0.5,0.2,0.5,0.5c0,0.3-0.2,0.5-0.5,0.5
			s-0.5-0.2-0.5-0.5S57.8,69,58,69z M52.1,69.3c0.3,0,0.5,0.2,0.5,0.5c0,0.3-0.2,0.5-0.5,0.5s-0.5-0.2-0.5-0.5
			C51.6,69.5,51.8,69.3,52.1,69.3z M31.4,69.7l1.2,1.1L31.4,72l-0.4-0.4l0.7-0.7l-0.5-0.6L31.4,69.7z M56.7,69.8
			c0.3,0,0.5,0.2,0.5,0.5c0,0.3-0.2,0.5-0.5,0.5s-0.5-0.2-0.5-0.5C56.3,70,56.5,69.8,56.7,69.8z M55.4,70.6c0.3,0,0.5,0.2,0.5,0.5
			c0,0.3-0.2,0.5-0.5,0.5s-0.5-0.2-0.5-0.5C54.9,70.8,55.1,70.6,55.4,70.6z M53.9,71.4c0.3,0,0.5,0.2,0.5,0.5c0,0.3-0.2,0.5-0.5,0.5
			s-0.5-0.2-0.5-0.5C53.5,71.6,53.7,71.4,53.9,71.4z M29.9,72.8l0.4,0.3l-0.6,0.7l-0.5,0L29.9,72.8z M22.5,74.7
			c-1.3,0.7-2,1.1-2.9,1.9l-1.3-1.9L22.5,74.7z M13.5,74.8l3.5,0.1l-1.2,1.7C15.1,75.7,14.3,75.1,13.5,74.8z M17.7,74.9
			c0.4,0.1,1.4,1.6,1.9,2.4c1-0.8,2-1.7,3.1-2.2c-1.3,1.4-2.4,2.8-3.2,4.2c-0.2-0.6-0.9-2.4-1.7-3.2c-1.3,1.2-1.8,2.6-1.8,2.6
			c-0.7-1.2-1.5-2.3-2.4-3.4c-0.2-0.2,1.1,0.6,2.4,1.9C16.4,76.2,17.3,75,17.7,74.9L17.7,74.9z M13.4,75.9c0.6,0.5,2.3,2.6,2.4,3.9
			l-0.8,0.1C14.7,78.5,14,77.2,13.4,75.9L13.4,75.9z M22.2,76.1c-0.6,1.2-1.3,2.5-1.9,3.9l-0.8,0C20.4,78,20.7,77.7,22.2,76.1z
			 M17.7,76.6L17.7,76.6c0.8,1,1.1,2,1.3,3.2l-0.6,0c0,0-0.4-1.2-0.7-1.7c-0.2-0.3-0.3-0.2-0.4,0c-0.3,0.5-0.4,1-0.5,1.6l-0.7,0
			C16.1,78.8,17.5,76.7,17.7,76.6L17.7,76.6z M17.6,80.2c0.3,0,0.5,0.3,0.5,0.8c0,0.2-0.2,0.8-0.4,0.8c-0.4,0.2-0.8-0.4-0.7-0.9
			C17.2,80.4,17.4,80.2,17.6,80.2L17.6,80.2z M16.3,80.3c0.5,0,0.6,1.3,0.4,1.5c-0.2,0.2-0.9,0.1-1-0.4C15.6,80.9,16,80.3,16.3,80.3
			z M19,80.3c0.6,0.1,0.4,1.4,0.1,1.6c-0.5,0.2-0.8-0.2-0.7-0.8C18.6,80.6,18.7,80.3,19,80.3z M20.3,80.5c0.7,0.1,0.3,1.2,0,1.5
			c-0.4,0.3-0.8-0.2-0.6-0.8C19.8,80.7,20.1,80.5,20.3,80.5L20.3,80.5z M15,80.5c0.5,0.1,0.8,1.2,0.5,1.5c-0.1,0.2-0.6-0.1-0.8-0.4
			C14.4,81.3,14.6,80.5,15,80.5z M20.1,82.9c0.1,0.6-0.4,0.6-1.6,0.3c-0.6-0.1-1.7-0.1-2.3,0.1c-1,0.2-1.1,0.1-1.1-0.3
			c0-0.5,0.5-0.7,1.8-0.8C17.7,82.2,19.9,82.2,20.1,82.9z M22,82.6c-1.5,0.1-1.9,2-1.7,2.7c0.1,1.2,0.1,2.4-0.1,3.2
			c-0.2,0.6-0.3,1.2-0.6,1.7c-0.4,0.8-0.3,1.4,0.3,1.7c0.5,0.3,1.1,0.2,1.4-0.2c0.7-0.7,0.7-2.3,0.3-5.7c-0.1-1.2-0.1-1.5,0.5-1.4
			C23.4,84.5,23.3,82.6,22,82.6L22,82.6z M21.8,84.2c-0.3-0.1-0.6,0.2-0.5,0.9c0,0.3,0.1,0.7,0.1,1c0.5,3.3,0.3,5.6-0.7,5.7
			c-0.9,0.1-1.5-0.5-1-1.2c0.2-0.4,0.5-0.4,0.9-0.2c0.6,0.4,0.5-0.2-0.1-0.6c-0.4-0.3-0.4-0.3-0.2-1.1c0.3-1.1,0.4-1.9,0.3-3.4
			c-0.1-1,0.2-2.4,1.5-2.4C23.3,82.8,22.9,84.6,21.8,84.2L21.8,84.2z M12.7,88.6c0.4,0.2,0.8,0.2,1.2,0c0.2-0.7,0.2-1.3,0.6-2.3
			c-0.8-0.8-2.1-0.5-2.5,0.4C11.8,87.5,12.1,88.2,12.7,88.6L12.7,88.6z M14,86.1c0.5,0.1,0.4,0.6,0,0.4c-1.1-0.5-1.9,1-1.1,1.6
			c0.4,0.2,0.6,0.1,0.2-0.2c-0.2-0.2-0.1-0.3,0-0.5c0.2-0.4,1-0.4,1,0c-0.2,1-0.3,1.2-0.6,1.3C11.8,88.7,11.5,85.6,14,86.1L14,86.1z
			 M28,87.8c0,0-4.9,5.6-7.3,8.5l29.7-0.1l-5.7-7.9C40,89.5,34.3,89.1,28,87.8z M27.9,89.6c0.7,0,1.6,0.6,2.3,2.4c0,0,3.3-5,6.1,0.2
			c0.5-1.2,3.1-4.2,6.1-0.3c1.1-2.6,3.6-1.7,3.8-0.8c-0.1-0.2-2.4-0.8-3.4,1c-0.2,0.4-0.2,0.7,0,0.9c0.5,0.5,0,1.2-0.6,0.8
			c-0.2-0.2-0.3-0.5-0.1-0.7c0.5-0.4-0.5-1.6-1.4-2c-1.2-0.6-2.8-0.3-3.6,0.5c-0.4,0.5-0.7,0.9-0.7,1.2c0,0.2,0,0.2,0.1,0.3
			c0.3,0.4,0.1,1-0.3,0.9c-0.6-0.1-0.5-0.7-0.1-1c0.1-0.1,0.1-0.1,0-0.2c-1.1-3.1-5.2-2.5-5.6-0.4l0,0.2c0,0.2,0.2,0.4,0.1,0.5
			c-0.2,0.7-1,0.5-1-0.1c0-0.3,0.3-0.3,0.4-0.6c0.1-0.1,0.1-0.3,0-0.5c-1.1-2.4-3-1.9-4-1.3C25.9,90.8,26.8,89.6,27.9,89.6
			L27.9,89.6z M26.7,91c0.4,0,0.8,0.2,1.1,0.6c1.2-0.6,2,0.5,1.9,0.6c-1.6-1.1-2.2,1.4-0.6,1.3c-0.7,1.5,1.8,2.1,1.5,0.2
			c1.6,0.6,1.8-1.6,0.2-1.6c0.5-0.9,1.9-0.7,2.4-0.1c0.7-0.8,2.3,0,2.5,0.7c-1.8-1-2,2-0.2,1.3c-0.5,1.9,2.3,1.6,1.5,0
			c1.8,0.6,1.5-2.1-0.2-1.5c-0.1-0.1,1.4-1.7,2.4-0.2c0.1-0.3,1.8-1.1,2.7,0.2c-2-0.7-1.6,2-0.2,1.5c-0.4,1.8,2.2,1.5,1.5,0
			c2,0.5,1.1-2.6-0.3-1.4c0.2-1.2,1.9-0.7,1.9-0.5c0,0,0.9-1,1.9-0.3c-1.5,0.1-1,2.2,0.4,1.6c0,0.7,0.6,1.2,1.4,1l1.2,1.8l-28.5,0.2
			l2.3-2.8c0.8,0.6,1.6,0.3,1.6-0.7c1.7,1,2.1-1.4,0.5-1.5C26.1,91.1,26.4,91,26.7,91L26.7,91z M25.1,91.8c0.1,0.1,0,0.4-0.3,0.3
			L25.1,91.8z M47.3,92.5c0.1,0.1,0.1,0.2,0.2,0.3C47.6,93,47.1,92.8,47.3,92.5z"/>
		<path class="st7" d="M20.1,27.5c0,0-1.6-2.6-3.7-5.6c-1.4-2-2.5-4.2-2.6-6.1c-0.1-2.1,1-4.3,3.1-4.4c2.1-0.1,2.9,1.7,3.2,3.1
			c0.3-1.5,1.2-3.2,3.2-3.1c2.1,0.1,3.2,2.3,3.1,4.4c-0.1,1.9-1.2,4.1-2.6,6.1C21.6,24.9,20.1,27.5,20.1,27.5L20.1,27.5z"/>
		<path class="st7" d="M54.7,77.8c0,0-1.6,2.6-3.7,5.6c-1.4,2-2.5,4.2-2.6,6.1c-0.1,2.1,1,4.3,3.1,4.4c2.1,0.1,2.9-1.7,3.2-3.1
			c0.3,1.5,1.2,3.2,3.2,3.1c2.1-0.1,3.2-2.3,3.1-4.4c-0.1-1.9-1.2-4.1-2.6-6.1C56.3,80.4,54.7,77.8,54.7,77.8L54.7,77.8z"/>
	</g>
</g>
</svg>
