<?xml version="1.0" encoding="utf-8"?>
<!-- Generator: Adobe Illustrator 19.1.0, SVG Export Plug-In . SVG Version: 6.00 Build 0)  -->
<svg version="1.1" xmlns="http://www.w3.org/2000/svg" xmlns:xlink="http://www.w3.org/1999/xlink" x="0px" y="0px"
	 viewBox="0 0 75.3 105.3" style="enable-background:new 0 0 75.3 105.3;" xml:space="preserve">
<style type="text/css">
	.st0{display:none;}
	.st1{fill:#FFFFFF;}
	.st2{fill:none;stroke:#010101;stroke-width:0.9967;}
	.st3{fill:#010101;}
	.st4{fill:none;stroke:#010101;stroke-width:1.0006;}
	.st5{fill:#E1CF20;}
	.st6{fill:#262964;}
	.st7{fill:#D31F26;}
	.st8{fill:#14130F;}
	.st9{fill:none;stroke:#010101;stroke-width:0.9929;}
	.st10{fill:#F6EB16;}
	.st11{fill:none;stroke:#010101;stroke-width:1.83;}
	.st12{clip-path:url(#SVGID_2_);}
	.st13{clip-path:url(#SVGID_4_);}
</style>
<g id="Layer_1" class="st0">
</g>
<g id="Layer_2">
	<g>
		<path class="st1" d="M4.2,0.4h67.5c2,0,3.6,1.6,3.6,3.6v97.3c0,2-1.6,3.6-3.6,3.6H4.2c-2,0-3.6-1.6-3.6-3.6V4
			C0.6,2,2.2,0.4,4.2,0.4z"/>
		<path class="st2" d="M4.2,0.4h67.5c2,0,3.6,1.6,3.6,3.6v97.3c0,2-1.6,3.6-3.6,3.6H4.2c-2,0-3.6-1.6-3.6-3.6V4
			C0.6,2,2.2,0.4,4.2,0.4z"/>
		<path class="st7" d="M6.4,23.9c0,0-0.7-1.1-1.7-2.3C4,20.7,3.4,19.8,3.4,19c-0.1-0.9,0.5-1.8,1.5-1.8c1,0,1.4,0.7,1.5,1.3
			c0.2-0.6,0.6-1.3,1.5-1.3c1,0,1.5,0.9,1.5,1.8c0,0.8-0.6,1.7-1.3,2.5C7.1,22.8,6.4,23.9,6.4,23.9L6.4,23.9z"/>
		<path class="st7" d="M69.5,81.4c0,0-0.7,1.1-1.7,2.3c-0.7,0.8-1.2,1.8-1.3,2.5c-0.1,0.9,0.5,1.8,1.5,1.8c1,0,1.4-0.7,1.5-1.3
			c0.2,0.6,0.6,1.3,1.5,1.3c1,0,1.5-0.9,1.5-1.8c0-0.8-0.6-1.7-1.3-2.5C70.3,82.5,69.5,81.4,69.5,81.4z"/>
		<path class="st7" d="M3.9,12.5H3v-1.3h0.9c0,0,0-0.7,0-1.9C4,6.8,4.1,6.4,4.8,5.7c1.5-1.4,3.9-0.3,3.9,1.8c0,2.9,0,5.8-0.1,6.2
			c-0.2,0.7-0.2,0.7-0.1,0.9c0.1,0.3,1.2,0.4,1.2,0.3v1.2c-0.8,0.1-1.2,0-1.9-0.5c-0.4,0.4-1.7,0.8-2.7,0.3
			C4.4,15.5,3.8,14.6,3.9,12.5L3.9,12.5z M7.1,14.7c-0.5-0.7-1.2-1.6-2-1.9c0,0.8,0,1.4,0.3,1.7C5.8,15.1,6.5,15.2,7.1,14.7
			L7.1,14.7z M7.4,7.4c-0.3-1-1.2-1.3-1.8-0.7C5.2,7.1,5.1,7.5,5.1,9.6c0,1.3,0,1.9,0,1.9c1.2,0.4,2.4,1.8,2.4,1.8l0-4
			C7.6,8.7,7.5,8,7.4,7.4L7.4,7.4z"/>
		<path class="st7" d="M72,92.8h0.9v1.3H72c0,0,0,0.7,0,1.9c-0.1,2.6-0.1,2.9-0.9,3.6c-1.5,1.4-3.9,0.3-3.9-1.8c0-2.9,0-5.8,0.1-6.2
			c0.2-0.7,0.2-0.7,0.1-0.9c-0.1-0.3-1.2-0.4-1.2-0.3v-1.2c0.8-0.1,1.2,0,1.9,0.5c0.4-0.4,1.7-0.8,2.7-0.3
			C71.5,89.8,72.1,90.7,72,92.8L72,92.8z M68.8,90.6c0.5,0.7,1.2,1.6,2,1.9c0-0.8,0-1.4-0.3-1.7C70.1,90.2,69.4,90.1,68.8,90.6z
			 M68.5,97.9c0.3,1,1.2,1.3,1.8,0.7c0.4-0.4,0.5-0.8,0.5-2.9c0-1.3,0-1.9,0-1.9c-1.2-0.4-2.4-1.8-2.4-1.8l0,4
			C68.3,96.6,68.4,97.3,68.5,97.9L68.5,97.9z"/>
		<path class="st6" d="M65.4,8.4H10.5v88.4l54.9,0L65.4,8.4z M58.6,9.2h5.9v34.1c0,0-0.5,0-0.5-0.2c0-0.3,0-0.9-0.2-1.2
			c-0.1-0.1-0.2-0.3-0.3-0.4c-0.2-0.3-0.4-0.6-0.6-0.7c-0.1,0-0.2-0.1-0.2-0.1c0-0.1,0-0.3-0.1-0.5c-0.1-0.5-0.2-0.5,0.1-1
			c1.1-1.7,1.5-3.2,1.3-4.8c0-0.5-0.2-1.1-0.2-1.2c-1,1-1.8,2.3-2.5,3.3c-0.2-1.4-0.1-2.4-0.2-3.5c0.6-0.2,0.9-0.5,1.1-1.2
			c0,0,0.6,0.5,1,0.4l-0.2-0.9c1.6-0.5,1.8-2.6-0.1-3l0.2-1.1c0,0-0.6,0.2-0.8,0.3c-0.1,0.1-0.2,0-0.2-0.2c-0.9-1.4-2.2-1.1-2.8,0.3
			l-0.7-0.3c0.1,0.4,0.2,0.8,0.1,1.1c-1.5,0.7-1.2,2.6,0.1,2.8l-0.1,0.9l0.9-0.3c0.1,0.4,0.1,0.7,0.8,1.1c0,1.8,0,3,0,4.6
			c-1-1-1.9-1.7-3.5-2.2c0,0,0,0.4,0.1,1c0,0.2,0,0.2-0.1,0.2c-0.2,0-1.2-1.5-1.2-1.5s-0.1,0-0.2,0.1c-0.1,0.1,0.1,0.3,0.5,0.9
			c0.4,0.6,0.4,0.6,0.1,0.9c-1.9,1.6-4.6,7.8-4.2,8.4c-1.2,0.1-5.9,2.4-6.7,7.1c-0.1,0.2-0.2,0.5-0.2,0.5l-1.4-0.3
			c0.8-3.9,2.7-11.8,2.7-11.8s1.3-0.4,2.1-0.5l0-0.3l-1.8,0.4l0.1-0.7l1.7-0.3l0-0.2l-1.8,0.2l0.3-1.1c0,0-4,0.6-5.4,0.5
			c0.1,4.4-0.3,8.1-0.1,12.8l-2-1.2c-0.2-3.3-0.2-11.6-0.2-11.6L33.7,38l0.2,1.3c-4.5-1.8-9-3.4-12.3-6.9c2-1.6,5.4-3.1,5.4-3.1
			L27,29c-8.3,4.3-11.4,7.3-15.6,11.1V9.2H34l-0.1,5.7L33.9,15c-0.3,1.4,0.5,3.8,0.4,5c0.1,0.4,0,1,0,1c-1.4,1.9-2.1,3.7-2.7,5.8
			c-0.2,0.1-0.6,0.3-0.8,0.4l-0.1,0.3c0.5-0.3,2-0.8,2-0.8c6.7,3.3,11.7,2.5,17,0c-0.8,3,1,6.8,4,7.6c0.3,0.1,0.9,0.2,1.3,0.1
			c0.3-0.1-0.8-2.6-1.2-2.7c-1.5-0.6-2.1-2.1-1.9-3.9l-0.2-0.4c-0.5,2.1,0.7,4.2,2.3,4.7l0.4,1c-3-0.9-4.3-3.7-3.3-6.5
			c0-1.7-1.1-2.5-1.6-3.3c-2.6-1-3.1-3.4-2.6-5.4c1.2,0.5-0.8-1.7-0.8-1.7c-0.9,1.9-1.3,4.4,0.8,6.9c-1.3,1.8-3,3.1-4.9,4.3
			c-2.8,1.5-4.9,0.5-6.2-2.8c-0.8-1.9-1.1-3.9-1.1-5.9c0-1.3,0-1.3,0.5-1.1c0.4,0.2,1.4,0.2,2-0.1c0.8-0.4,0.7-0.2-0.1,0.7
			c-0.2,0.2-0.5,0.5-0.5,0.5c0,0.3,0.4,0,0.9-0.5c0.2-0.2,0.3-0.4,0.4-0.4c0.1,0,0.1,0.2,0,0.5c0,0.1-0.1,0.5-0.2,0.9
			c-0.1,0.4-0.2,0.9-0.3,1.1c-0.2,0.7-0.2,1.1,0.5,1.4c0.4,0.2,1,0.8,1,0.8c0,0-0.1-0.7-0.1-0.9c0.1-0.3,0.4-0.1,0.7,0.1
			c0.7,0.3,1.1,0.3,1.4,0c0.5-0.4,0.4-1.4-0.3-1.6c-0.5-0.2-0.5,0-0.1,0.3c0.7,0.5-0.1,1.2-0.7,0.8c-0.4-0.4-1.2-0.4-1.3-0.1
			c-0.1,0.3-0.2,0.2-0.5,0c-0.5-0.3-0.5-0.3-0.1-1.9c0.8-3,0.7-4.1-0.3-5c-0.8-0.7-2-1-3.3-0.2v-1c1.9-0.8,3.3-2.1,4.4-4.2h0.2
			c1.1,2.4,2.9,4.2,6.3,5.4c1.3,1.3-1.7-3.7-0.7-1.7c-1.8-0.7-3.4-2.1-4.2-3.8h0.5c0.5,0.7,1.5,2.1,3.4,3.1c0.8,0-1.2-2.5-1.5-3.1
			h15.5c-0.5,3.8-1.2,7.9,1.5,15.3c-1.3-0.7-6.4,0.8-5.5,1c0.5-0.5,3.7-1.3,6.1-0.7C60.1,24.6,56.6,16.4,58.6,9.2L58.6,9.2z
			 M60.3,24.7L60.3,24.7L60.3,24.7z M48.3,39.4l0,0.6l0.1,0L48.3,39.4L48.3,39.4z M34.3,9.2H35c-0.1,0.3-0.4,0.6-0.7,0.8L34.3,9.2z
			 M35.5,9.2h0.7c-0.6,0.9-1.2,1.5-1.9,1.9l0-0.7C34.8,10,35.2,9.6,35.5,9.2L35.5,9.2z M36.7,9.2h0.7c-0.9,1.4-1.9,2.4-3.1,3v-0.6
			C35.1,11,36.1,10.1,36.7,9.2z M37.7,9.2h0.5c-0.9,1.8-2.2,3.1-4,3.8v-0.4C36.2,11.5,37,10.3,37.7,9.2z M39.2,9.2h0.7
			c0.9,1.8,2.8,3.5,4.8,4.3l0.3,0.7C42.3,13.2,40.5,11.7,39.2,9.2L39.2,9.2z M41.1,9.2h0.5c0.5,0.7,1.1,1.3,1.8,1.8l0.4,0.8
			C42.9,11.1,41.8,10.3,41.1,9.2z M42,9.2h0.5l0.7,1.2C42.7,10.1,42.4,9.6,42,9.2L42,9.2z M41.4,13.9c-0.7,0-1.4,0.2-1.8,0.6
			c-0.5,0.4-0.1,0.9,0.6,0.5c1.2-0.6,2.6-0.3,4.1,0.5c1.3,0.7,0.8,0-0.4-0.8C43.1,14.1,42.2,13.9,41.4,13.9z M35.6,14.8
			c1,0,2.2,0.5,2.2,1.1c-0.7-0.6-2.1-0.9-3.4-0.3c-0.1,0-0.1-0.4-0.1-0.5C34.7,14.9,35.2,14.8,35.6,14.8z M41.9,15.2
			c-0.7,0-1.2,0.2-1.5,0.5c-0.1,0.2-0.2,0.2-0.3,0.2c-0.3-0.1-0.3,0.1,0.1,0.6c0.2,0.2,0.1,0.5-0.1,0.8c-0.3,0.4-0.2,0.4,0.6,0.7
			c0.6,0.3,1.1,0.7,1.6,1c0.4,0.2,0.5,0,0.1-0.3c-0.1-0.1-0.5-0.4-0.8-0.6c-0.5-0.4-0.9-0.7-0.5-0.6c0.2,0.1,0.2,0.1,0.5,0.1
			c0.6,0.1,1.1,0.2,1.6,0.1c0.3-0.1,0.8-0.3,1.1-0.6c0.1,0,0.2,0,0.4,0c0.9,0,0.7-0.2-0.6-0.9c-1.2-0.7-2.2-0.8-2.9-0.4
			c-0.3,0.2-0.5,0.2-0.5,0.1c0-0.1,0.1-0.2,0.3-0.3c1.3-0.8,2.3-0.1,3.4,0.4c0.5,0.3,0.6,0.4,0.7,0.3c0.1-0.1-0.5-0.5-1.3-1
			C43,15.3,42.4,15.2,41.9,15.2L41.9,15.2z M37.8,16.1c0.2,0.1,0.1,0.3-0.1,0.3c-1.2-0.5-1.4-0.8-2.8-0.3c-0.5,0.2-0.6,0-0.1-0.2
			C36.1,15.3,37,15.6,37.8,16.1z M37,16.7c-0.3,1.6-1.9,1.1-1.7,0l0.3,0c0,1,1,1,1.2,0L37,16.7z M46.3,16.7l0.4,0.9
			c-0.9,2.3,0.3,5.4,3.1,6.2l0.4,0.8C45,23.4,45.4,18.4,46.3,16.7z M41.4,16.7l0.1,0c0.4,1.1,1.1,0.5,1.2,0l0.3,0
			C43,17.9,41.2,18.1,41.4,16.7L41.4,16.7z M37.4,16.8c0.2,0,0.3,0.3,0.2,0.4c0,0-0.4,0.4-0.4,0.2C37.1,17,37.3,16.8,37.4,16.8
			L37.4,16.8z M34.9,16.8L34.9,16.8c0.2,0.1,0.2,0.4,0.2,0.6c-0.1,0.1-0.4,0-0.4-0.1C34.6,17,34.7,16.8,34.9,16.8L34.9,16.8z
			 M43.4,16.9c0.1,0,0.4,0.1,0.4,0.3l-0.5,0.3C43.1,17.4,43.3,16.9,43.4,16.9L43.4,16.9L43.4,16.9z M41.1,17L41.1,17
			c0,0,0.3,0.2,0.1,0.5l-0.3-0.1C40.8,17.1,41,17,41.1,17z M47.4,19c-0.1,1.3,0.3,2.6,1.7,3.5l-0.3-0.6c-0.4-0.3-1.1-1.1-1.1-2.2
			L47.4,19z M34.4,21.4l0.2,0.9c-0.8,1.3-1.4,2.6-1.9,4.2l-0.8,0.3C32.5,24.8,33,23.2,34.4,21.4z M34.7,22.7l0.2,0.8
			c-0.4,0.7-0.8,1.5-1.1,2.5L33,26.3C33.4,25,33.9,23.8,34.7,22.7z M37.3,23.1L37.3,23.1c0,0.2,0,0.6,0,1.2c0,0.1,0.1,0.1,0.5-0.1
			c0.3-0.2,0.3-0.2,0.6-0.1c0.8,0.3,1.2,0.2,1.5,0.1c0.5-0.1,0.7-0.1,1,0.1c0.2,0.1,0.4,0.2,0.4,0.2c0.2,0.1,0.1,0,0-0.6
			c-0.2-0.7-0.1-0.8-0.4-0.6c-0.1,0-0.2,0.1-0.3,0.1c-0.2,0-0.6-0.3-0.9-0.2c-0.6,0.2-0.6,0.2-1.1,0c-0.3-0.1-0.5,0.1-0.8,0.1
			C37.7,23.4,37.5,23.1,37.3,23.1z M47.2,23.4c1,0.9,2,1.2,3.1,1.6c-0.1,0.5-0.4,1-0.5,1.5c-5.7,3-11.4,2.9-16.8,0.2l2.8-1.1
			c1.5,2.7,3.5,3.4,5.7,2.5C43.9,27,45.7,25.4,47.2,23.4z M35,23.9l0.2,0.7l-0.4,1l-0.7,0.3C34.4,25.2,34.6,24.6,35,23.9z
			 M40.2,24.7c-0.2,0-0.4,0.1-1,0.1c-0.3,0-0.6,0-0.7,0c-0.3,0.1,0,0.2,0.6,0.3c0.6,0.2,1.3-0.1,1.4-0.3
			C40.5,24.8,40.4,24.7,40.2,24.7L40.2,24.7z M35.4,25l0.2,0.3l-0.3,0.1L35.4,25z M50.6,25.2l0.4,1c-0.7,1.6-1.2,6,3.7,7.4l0.2,0.6
			C51.5,34.2,48.2,30,50.6,25.2L50.6,25.2z M39.3,25.5c-0.5,0-1,0.1-1.3,0.4c-0.3,0.2,0.1,0.4,0.4,0.2c0.5-0.2,1.3-0.2,1.8,0.1
			c0.4,0.3,0.6,0.2,0.3-0.2C40.4,25.7,39.9,25.6,39.3,25.5L39.3,25.5z M60.8,26.6c1.3,0,1.4,1.8,1.2,2c0.1,0,0.3-0.1,0.6-0.1
			c0.9,0,1.4,0.5,1.5,1.3c0.1,0.8-0.5,1.2-1.4,1.2c-0.3,0-0.5,0-0.5,0c0.2,0.6,0,1.5-0.8,1.8c-0.1,0-0.2,0.2-0.2,0.2
			c-0.1,1,0.2,4.3,0.2,4.3s1.5-2.6,1.9-2.9c0.7-0.9,0.9-0.8,0.8,0.7c-0.2,2.1-0.5,2.6-1.7,4.4c-0.5,0.8-1.8,0.4-1.7,0.9
			c0,0.1,0.2,0.3,0.4,0.5c0.1,0.1,0.3,0.2,0.6,0.2c0.5,0,0.7-0.1,0.4,0.3c-0.3,0.4-1.1,0.4-1.2,0.6c-0.2,0.4-0.1,0.3-0.5,0.7
			c-0.3,0.3-0.2,0.2-0.1,0.4c0.2,0.4,0.1,1.1-0.1,1.5C60,45.1,60,45.4,60,45.4c0,0,0.5-0.5,0.6-1.1c0.1-0.5,0.3-0.8,0.3-0.5
			c0,0.4,0.1,0.9,0.4,1.1c0.3,0.2,0.3,0.3,0.3,0.5c0,0.2,0.2,0.4,0.4,0.5c0,0,0.2,0.1,0.2,0.2c-0.1,0.3,0.1,0.7,0.3,0.8
			c0.1,0.1,0.8,0,0.9-0.4c0-0.1,0-0.6-0.3-0.6c-0.2-0.1-0.2-0.1,0.1-0.3c0.4-0.3,0.7-0.4,0.9-0.5c0.3,0,0.5-0.3,0.5-0.3l0.1,20.1
			c-2.5,2.6-5.2,5.1-8.8,7.6c-2.1-1.8-4.4-3.5-6.8-4.9l-0.8-0.5l0.3-0.4L47,64.7l1.6-1.3l0.4,0.5l-0.8,0.8l1.2,1.3l2.6-2.6l-1.7-1.7
			l0.9-1.7l0.6,0.3l-0.4,1.1l1.3,0.8l1.6-3.3l-2.1-1l0.5-2.2l0.6,0.1l-0.2,1.6l1.6,0.3l0.7-3.7l-2.4-0.4l0.2-2.1l0.7,0l-0.1,1.2
			l1.7,0.2l0.3-3.3l-2.3-0.4l0.3-2.5l0.5,0.1l-0.1,1.6l1.7,0.3c0.2-1.1,0.3-2.4,0.6-3.4l-2.2-0.8l0.8-2.1l0.5,0.2l-0.4,1.1l1.6,0.7
			l1.4-2.7l-1.9-1.4c0.4-0.7,0.9-1.4,1.5-2l0.4,0.3c0,0-0.1,0.1-0.4,0.4c-0.3,0.4-0.3,0.5-0.3,0.6c0,0.1,1.2,1,1.3,1
			c0.1,0,0.5-0.4,0.7-0.6c0.2-0.3,0.3-0.3,0.6-0.1l0.2,0.2l0.1,0.2l0,0.1l0.1-0.1c0.2-0.1-0.3-0.5-0.7-0.7c-1.2-0.7-2.5-1.9-2.8-3.4
			c-0.1-0.7,1.7,0.1,2.9,1.4c0.2,0.2,0.9,0.9,0.9,0.9c-0.1-1.8-0.2-3.6-0.2-5.4l-0.3-0.2c-0.4-0.3-0.5-0.7-0.6-1.1
			c0-0.3,0.2-0.5-0.4-0.4c-1.2,0-1.9-1.1-1.2-2.1c0.3-0.4,1.4-0.5,1.4-0.5C59.3,27.3,60.1,26.7,60.8,26.6L60.8,26.6z M60.3,40.3
			L60.3,40.3z M61.9,28.6L61.9,28.6L61.9,28.6z M21.4,32.5c3.4,2.9,5.6,4.8,12.5,7l0.2,1c-4-0.9-8.3-2.8-13.5-7.4L21.4,32.5z
			 M20.4,33.1c2.2,2,4.4,3.6,6.6,4.9l0.8,0.5l-0.4,0.4l1.3,1.9L27,42.2l-0.4-0.4l0.9-0.9l-1.3-1.2l-2.6,2.6l1.8,1.6l-1,1.6L24,45.2
			l0.5-1.1L23,43.2l-1.8,3.4l2.3,1.1l-0.5,2.1l-0.5,0l0.2-1.6l-1.7-0.3l-0.6,3.8l2.2,0.4l-0.1,2.2l-0.6,0l0-1.2l-1.8-0.1L19.9,56
			l2.2,0.3l-0.2,2.6l-0.5-0.1l0.1-1.7l-1.7-0.2l-0.6,3.6l2.2,0.6l-0.8,2.2L20.2,63l0.3-1.1c-0.4-0.2-1.6-0.7-1.6-0.7l-1.5,2.8
			l1.9,1.3l-1.2,2.1L17.7,67l0.8-1.2l-1.6-1L16.1,66c-0.4-0.3-1.1-0.8-1.3-1.1c-0.3-0.3-0.5-0.3-0.9-0.2c-0.3,0.1-0.6,0.1-0.5,0
			c0,0,0.6-0.4,1.4-0.9c0.2-0.1,0.4-0.3,0.4-0.4c0-0.1,0.1-0.3,0.3-0.4c0.2-0.1,0.1-0.2,0.1-0.3c-0.2-0.6-0.1-1.6,0.3-2.2
			C16.1,60,16.1,60,16,60c-0.4,0.1-0.9,1.5-1,1.9c0,0-0.1-0.4-0.1-0.6c-0.1-0.3-0.1-0.4-0.3-0.5c-0.3-0.1-0.2-0.2-0.2-0.4
			c0-0.3-0.2-0.5-0.5-0.6c-0.3-0.1-0.3-0.1-0.3-0.4c0-0.2-0.2-0.5-0.4-0.7l-0.9,0.3c-0.1,0.2,0,0.5,0.2,0.7c0.4,0.4-0.2,0.4-0.7,0.7
			c-0.1,0.1-0.3,0.3-0.4,0.2c-0.3-0.1-0.3,0.8-0.5,0.7l0.1-20.5C13.5,38.3,20.4,33.1,20.4,33.1L20.4,33.1z M56.4,36.8l0.3,0.4
			c-1.1,1.2-1.8,2.4-2.7,4c-0.7,1.3-1.3,3.1-1.7,5.1c-0.3,1.2-0.3,2.4-0.4,3.7c-0.2,1.3-0.2,3.1-0.4,4.5c-0.5,3.8-1.5,5.9-3.9,8.1
			c-1,1-4.2,2.8-4.3,2.8L42.5,65c6.5-3.4,8.2-5.7,8.9-13.7C51.6,41.3,56.1,37.4,56.4,36.8L56.4,36.8z M57,37.4l0.4,0.3l-1.9,2.7
			l1.9,1.3l-0.7,1.8L56,43.4l0.4-1.2l-1.6-0.7L53.6,45l2.3,0.7L55.5,48L55,47.8v-1.5L53.3,46l-0.5,3.9l2.5,0.3l-0.2,2l-0.6,0l0-1.2
			l-1.7-0.1l-0.4,3.4l2.4,0.4l-0.4,2.4l-0.5-0.1l0.1-1.6l-1.6-0.2l-0.9,3.2l2,1l-1,2.1L52,61.2l0.6-1.2L51,59.2l-1.5,2.7l1.7,1.7
			l-1.6,1.7l-0.4-0.5l0.8-0.9l-1.3-1.3l-2.6,2.1l1.3,1.8l-0.2,0.2l-1.4-0.6l-0.7-0.9l-0.8,0.3l-0.6-0.2c3.9-2,6.4-4.4,7.4-8
			c0.6-2,0.7-4.1,0.9-6.3c0.1-1.1,0.2-2.3,0.4-3.4c0.2-1.8,0.5-3.3,1.2-5.1C54.6,40.6,55.7,39.1,57,37.4L57,37.4z M36.3,38.8
			l2.6,1.4l0,0.9l-2.4-1.2L36.3,38.8z M37,38.8l1.9,0.3l0,0.8L37,38.8z M28.5,38.8l1.1,0.5l0.9,1.1l0.7-0.5l0.8,0.3
			c-2.4,1.2-4.5,2.7-6.2,5.3c-1.8,2.9-2.1,6.6-2.3,10.2c-0.4,5-1.2,8.5-4.5,12.5l-0.5-0.3l1.8-2.8l-2-1.3l0.9-1.7l0.5,0.2l-0.4,1
			l1.7,0.9l1.3-3.6l-2.3-0.7l0.4-2.2l0.6,0.1l-0.2,1.6l1.7,0.3l0.5-3.8l-2.2-0.3l0.1-2l0.6,0.1l0,1.2l1.8,0.1l0.1-3.4l-2.2-0.2
			l0.3-2.4l0.6,0.1l-0.1,1.5l1.7,0.2l0.8-3.2l-2.2-1l1.2-2.1l0.5,0.2l-0.5,1.2l1.5,0.7l1.6-2.5l-1.7-1.6l1.7-1.8l0.4,0.4l-0.9,1.1
			l1.3,1.2l2.5-2.1l-1.2-1.8L28.5,38.8z M44.4,38.9l-0.1,0.9l-2.7,1.5v-0.9L44.4,38.9z M58.6,39l0.6,0.4l-0.4,0.5l-0.5-0.3L58.6,39z
			 M43.3,39.1L41.7,40v-0.9L43.3,39.1z M62,40l0.2,0.1c0.2,0.1,0.1,0.4,0,0.5c-0.2,0.2-0.9,0.2-0.9,0C61.1,40.3,61.6,40,62,40L62,40
			z M36.6,40.3l2.3,1.2l0,0.9l-2.2-1.2L36.6,40.3z M44.1,40.4l-0.1,1.1l-2.3,1.3l0-1L44.1,40.4z M32.7,40.4l0.9,0.2
			c-3.5,1.6-6.9,3.8-8.2,7.7c-0.4,1.2-0.7,2.5-0.9,4.2c-0.1,1.8-0.3,3.5-0.4,5c-0.2,3-1.2,7.1-4.5,11.4l-0.3-0.3
			c2.1-2.6,3.2-4.9,3.8-7.4c1.1-3.9,0.5-8.3,1.7-12.2c0.7-2.4,2.1-4.6,4.3-6.4C30.5,41.4,32.7,40.4,32.7,40.4L32.7,40.4z M34.3,40.7
			L34.3,40.7c0.9,2.9,1.9,8,1.9,8c-2.2-1.1-5.9-0.9-5.9-0.9s-2.1-2.7-2.5-2.9C29.4,42.7,33.9,40.7,34.3,40.7L34.3,40.7z M62.9,41.2
			c0.5,0,0.5,0.8-0.2,1.3c-0.3,0.3-0.5,0.2-0.7,0c-0.1-0.1-0.3-0.2-0.4-0.1c-0.4,0,0.4-0.8,1-1.1C62.7,41.2,62.8,41.2,62.9,41.2
			L62.9,41.2z M36.9,41.8l2,1.1l0,0.9l-1.9-1L36.9,41.8z M43.8,41.9l-0.1,1L41.6,44l0-0.9L43.8,41.9z M63.6,42.3l0.2,0.1
			c0.3,0.3-0.3,1.3-0.9,1.6c-0.2,0.1-0.4,0.1-0.6-0.1c-0.1-0.1-0.2-0.2-0.3-0.2c-0.4,0-0.2-0.4,0.1-0.4c0.1,0,0.6-0.4,1-0.7
			C63.3,42.4,63.5,42.3,63.6,42.3L63.6,42.3z M61.4,42.6c0.4,0,0.6,0.4,0.1,0.5c-0.4,0.1-0.6,0-0.6-0.2C61,42.7,61.2,42.7,61.4,42.6
			L61.4,42.6z M37.2,43.2l1.8,0.9l0,0.9l-1.7-0.9L37.2,43.2z M43.6,43.3l-0.1,0.9l-1.9,1l0-0.7L43.6,43.3z M64,43.7
			c0.1,0,0.2,0.1,0.2,0.4c0,0.4-0.3,0.8-0.7,1c-0.3,0.1-0.5,0.1-0.6,0l-0.2-0.1c-0.6,0-0.5-0.2,0.1-0.4c0.2-0.1,0.6-0.4,0.8-0.5
			C63.7,43.7,63.9,43.6,64,43.7L64,43.7z M61.7,43.9c0.3,0,0.6,0.2,0.4,0.4c-0.1,0.1-0.6,0.2-0.7,0.1C61.2,44.2,61.3,43.9,61.7,43.9
			z M37.5,44.6l1.5,0.8l0,0.9l-1.5-0.8L37.5,44.6z M43.4,44.6l0,0.9l-1.8,0.9l0-0.9L43.4,44.6z M62.4,45c0.3,0,0.3,0.3,0,0.5
			c-0.2,0.1-0.4,0.1-0.5-0.1C61.7,45,62.1,45,62.4,45z M63,45.9c0,0.1,0,0.3-0.1,0.3c-0.1,0.1-0.5,0-0.5-0.1l0.1-0.2
			C62.6,45.9,62.9,45.8,63,45.9z M37.7,46l1.3,0.7l0,0.9l-1.2-0.7L37.7,46z M43.2,46l-0.1,0.8l-1.5,0.8l0-0.8L43.2,46z M27.2,46.5
			c0.3,0,0.6,0.2,0.4,0.6c-0.1,0.2-0.2,0.3-0.7,0.7c-0.2,0.2-0.4,0.3-0.4,0.3l-0.2,0.2c-0.5,0.3-0.3-0.4,0.3-1.4
			C26.6,46.6,26.9,46.5,27.2,46.5z M43,47.3l-0.1,0.9l-1.4,0.7V48L43,47.3z M37.9,47.4l1.1,0.6l0,0.9l-1-0.5L37.9,47.4z M51.2,47.4
			L51.2,47.4c0.2,0.2,0.2,0.7,0.1,1c-0.2,0.4-0.5-0.6-0.4-0.8C50.9,47.6,51.1,47.4,51.2,47.4L51.2,47.4z M28,47.6
			c0.4,0,0.8,0.3,0.6,0.8c-0.2,0.4-1.2,0.7-1.6,1c-0.3,0.1-0.4,0-0.3-0.3c0-0.1,0.1-0.2-0.2-0.2c-0.6-0.1-0.2-0.4,0.8-1
			C27.5,47.7,27.8,47.6,28,47.6L28,47.6z M50.1,47.9c0.2,0,0.4,0.1,0.6,0.3c0.3,0.4,0.6,1.2,0.4,1.4c-0.1,0-0.2,0.2-0.2,0.3
			c0,0.3-0.5-0.2-0.9-0.9C49.6,48.3,49.8,47.9,50.1,47.9L50.1,47.9z M31.5,48c1.4,0,4,0.3,7.6,2.5c0.5,0.3,0.9,0.6,1.4,0.9
			c1.4,0.7,2.5,1.2,4.3,1.6l0,0.9c0,0.3,0.5,2,0.2,2.9c-0.3,0,0.3,0.3,0.3,0.3l0.4,0.9c0,0-2.2,0-3.1-0.2c-1.6-0.3-4.5-1.6-5.9-2.7
			c-1.4-1.1-3.6-2-5.5-2.3l0-0.8c0,0-0.2-2.7-0.3-3.1L30.4,48C30.5,48.1,30.9,48,31.5,48L31.5,48z M42.9,48.6l-0.1,0.9l-1.2,0.6
			v-0.8L42.9,48.6z M48.8,48.6c0.3,0,0.8,0.4,1.4,1.2c0.1,0.2,0.2,0.3,0.3,0.4c0,0.1,0,0.2-0.1,0.1c-0.2,0-0.3-0.1-0.4,0.2l-0.1,0.2
			c-0.4-0.1-1.6-1.3-1.5-1.7C48.5,48.8,48.6,48.6,48.8,48.6L48.8,48.6z M38.2,48.7l0.9,0.5l0,0.9l-0.8-0.3L38.2,48.7z M28.8,49
			c0.3,0,0.4,0.1,0.5,0.3c0.2,0.5-0.2,0.8-1.2,1c-0.9,0.2-0.9,0.2-0.8-0.1c0.1-0.2-0.2-0.3-0.4-0.3c-0.3-0.1,0-0.1,0.7-0.5
			C28.1,49.1,28.5,49,28.8,49z M25.7,49.2l0.1,0.1c1.4,1.7,1,4.1-0.7,5.3c-0.2,0.1-0.2,0-0.2-0.3l0-0.5c0-0.1,2-1.3,0.5-4l0.1-0.4
			C25.6,49.3,25.6,49.2,25.7,49.2L25.7,49.2z M47.9,49.7c0.5,0,2.1,1.4,1.4,1.4l-0.1,0.2l0,0.2c0,0.1-0.2,0.1-0.5-0.1
			c-0.7-0.4-0.8-0.5-1.1-0.8C47.2,50.3,47.4,49.7,47.9,49.7L47.9,49.7z M42.6,50l0,0.7l-1.1,0.5l0-0.7L42.6,50z M29,50.5
			c0.7,0,1.1,0.7,0.4,1.1c-0.3,0.2-1.2,0-1.7,0c-0.5,0-0.2-0.2-0.2-0.2c0.1-0.1,0.1-0.1-0.1-0.3c-0.2-0.2-0.3-0.3,0.2-0.3
			c0.3,0,0.9-0.1,1.1-0.2C28.8,50.5,28.9,50.5,29,50.5z M51,50.7c0.1,0,0,0.1,0,0.3l0,0.5c-0.3,0.1-2,2.1-0.6,4.5l-0.1,0.4
			c-0.1,0.2-0.1,0.2-0.2,0.1c-1-0.7-1.3-4.2,0.7-5.7C50.9,50.7,51,50.7,51,50.7z M47.1,51.1c0.2,0,0.4,0.1,0.7,0.2
			c0.6,0.3,1,0.5,1.1,0.7c0.1,0.1,0,0.2-0.2,0.2c-0.2,0-0.2,0.1-0.1,0.3c0,0.1,0,0.2-0.1,0.2c-0.2,0-0.8-0.2-1.3-0.5
			C46.3,51.7,46.5,51.1,47.1,51.1z M42.4,51.1V52l-0.9-0.4L42.4,51.1z M27.6,51.9c0.1,0,0.2,0,0.4,0c0.2,0,0.5,0.1,0.7,0.1
			c1,0,1.4,0.7,0.6,1c-0.2,0.1-0.3,0.1-0.9-0.1c-0.3-0.1-0.7-0.2-0.8-0.2c-0.3-0.1-0.4-0.2-0.2-0.2c0.2-0.1,0.2-0.2,0.1-0.4
			C27.3,51.9,27.4,51.9,27.6,51.9L27.6,51.9z M51,51.9c-0.1,1.4-0.3,2.5-0.5,3.9C50.4,55.7,49.3,53.1,51,51.9z M46.8,52.6
			c0.3,0,0.9,0.1,1.4,0.3c0.5,0.2,0.5,0.2,0.2,0.4c-0.2,0.1-0.2,0.2-0.1,0.3c0.1,0.1,0.3,0.3,0,0.3c-0.3,0-1.1,0-1.4-0.1
			c-0.8-0.1-1-0.8-0.3-1.1C46.6,52.6,46.7,52.6,46.8,52.6z M27.3,52.9c0.1,0,0.2,0,0.4,0.1c1.4,0.4,1.9,1,1.2,1.5
			c-0.2,0.1-0.5,0.1-1.1-0.2c-0.6-0.3-0.9-0.5-1-0.6c-0.1-0.1,0-0.2,0.1-0.2c0.2,0,0.2-0.1,0.2-0.3C27.2,53,27.2,52.9,27.3,52.9z
			 M30.9,53l1,0.2l-2.6,11.5c-0.9,0.3-1.4,0.4-2,0.7l1.8-0.3L29,66l-1.6,0.3l0,0.2l1.9-0.3c0,0-0.1,0.8-0.1,1.1
			c1.8-0.1,3.6-0.6,5.4-0.7c0,0,0-9.1,0-10.1c0-1.1,0-2.3,0-2.3l1.8,1l0.3,11.4l5.7,0.9c0-0.2-0.2-1.1-0.2-1.1
			c4.2,1.2,8.5,3.1,12.2,6.9c-1.8,1-3.4,1.9-5.1,2.8l-0.2,0.4c4.3-2,10.9-6.3,15.6-10.9V96H41.9c0,0,0-1.5,0-2.8l0-2.5
			c-0.1-1.6,0.2-3.4-0.3-4.8l-0.1-1.4c1.4-1.6,2.2-3.7,2.8-5.8c0,0,0.7-0.3,1-0.4l0.1-0.4c-0.7,0.3-2.1,0.9-2.1,0.9
			c0.2-0.1-3.2-1.5-5.2-1.9c-3.4-0.5-8,0-11.6,1.8c-0.2,0.1-0.3,0.1-0.2,0c0.8-3.1-0.9-6.2-4.1-7.1c-0.7-0.2-1.2-0.2-1.2-0.2
			l0.1,0.3c5.1,0.6,6.3,6,4.3,8.6c-0.5,0.8-0.6,1.1,0.5,1c4.4,0,5.9,4.9,3.9,7.6l0.2,0.3c1.2-1.7,1.6-4.8-0.6-7
			c1.6-1.8,4.8-4.8,7.5-4.6c1,0.1,2,1.3,2.6,2.2c1.4,2,1.7,4.9,1.8,6.5c0,0.4,0.1,0.7,0.1,1c0,0.6-0.1,0.6-0.5,0.5
			c-0.5-0.1-1.2-0.1-1.8,0c-0.8,0.3-0.7,0.1,0-0.8c0.4-0.6,0.5-0.7,0.3-0.8c-0.1,0-0.2,0.2-0.5,0.6c-0.7,1.2-0.7,0.7-0.1-1.1
			c0.4-1.2,0.3-1.3-0.6-2c-0.3-0.2-0.7-0.5-0.7-0.5c-0.2-0.4-0.3,0.1-0.1,0.4c0.2,0.3-0.2,0.5-0.8,0.1c-1.4-0.8-2.3,0.8-1,1.5
			c0.3,0.2,0.5,0,0.2-0.2c-0.8-0.7-0.2-1.3,0.8-0.7c0.6,0.4,0.8,0.2,1-0.2c0.1-0.2,1,0.5,1,0.7c0,0.2-0.1,0.7-0.2,1.1
			c-0.3,1-0.4,1.3-0.5,2c-0.2,1.2-0.2,1.8,0,2.3c0.6,1.2,2,1.7,3.2,1.3c0.2-0.1,0.5-0.1,0.5-0.1l0,0.9c-2.4,0.9-4.1,3.8-4,3.9
			l-0.9,0c-1.1-2.3-3.1-4-5.7-4.9c-0.5-0.4,0.1,1.2,0.7,1.5c1.2,0.6,2.8,1.7,3.7,3.4l-0.6,0c-0.7-1.1-1.7-1.9-2.6-2.6
			c-0.2,0,0.2,2,1,2.7l-15.6,0.3c1.1-4.2,1.3-8.8-1.2-14.9c2.1,0.1,3.9-0.3,5.6-1.1L21.8,80c-1.9,0.9-4,1.1-6.1,0.9
			c1.6,3,3,9.1,1.6,15.1h-5.9V63.5l0.4,0.3c0.2,0.2,0.3,0.5,0.4,0.6c0.1,0.3,0.1,0.3,0.5,0.5c0.2,0.1,0.3,0.2,0.3,0.3
			c0,0.1,0,0.3,0.1,0.4c0.3,0.4,0.3,0.6,0,0.9c-1.1,1.1-1.8,3.6-1.2,6.1c1.3-0.9,2.6-3.2,2.7-3.2l0.1,3.1c-0.1,0-0.9,0.4-0.9,1.1
			c-0.4,0.1-0.8-0.1-1.2-0.2l0.3,0.9c-1.3,0.5-1.4,2.4,0.1,2.9c0,0-0.1,0.7-0.3,1.1l1-0.2c0.6,1.8,2.8,1.2,2.8,0
			c0,0,0.7,0.3,0.9,0.4l-0.3-1.2c2.5-1.3,0.6-3,0.1-2.9c0-0.3,0.2-0.4,0.3-0.8l-1,0.1c-0.2-0.6-0.9-1.1-0.9-1.1l-0.1-4.5
			c0.8,0.7,1.5,1.4,2.6,1.9c1,0.5,1,0.4,0.9-0.5c-0.1-0.4-0.1-0.6-0.1-0.6c0.4,0.1,1.3,1.3,1.2,1.8c0.3,0.4,0.6-0.7-0.2-1.7
			c2.3-2.4,4-6.3,4.3-9l3-1.2l0-0.4C29.3,57.1,30.4,55.2,30.9,53L30.9,53z M33.4,53.7l0.7,0.3l-0.8,0.4L33.4,53.7z M26.8,53.9
			c0.1,0.1,0.3,0.2,0.6,0.4c0.6,0.4,0.9,0.7,0.9,1c0,0.1-0.1,0.3-0.2,0.4c-0.4,0.2-0.7,0-1.5-0.8c-0.2-0.3-0.4-0.4-0.5-0.5
			c-0.1-0.1,0-0.3,0.1-0.2C26.9,54.5,26.4,53.7,26.8,53.9L26.8,53.9z M47.9,54.1c0.1,0,0.2,0,0.3,0c0.2,0,0.2,0.1,0.1,0.2
			c-0.2,0.1-0.1,0.3,0,0.4c0.1,0.1,0.1,0.2-0.1,0.2c-0.1,0-0.2,0.1-0.4,0.1c-0.9,0.3-1.6,0.2-1.8-0.2c-0.2-0.5,0.2-0.8,1.3-0.8
			C47.7,54.1,47.8,54.1,47.9,54.1L47.9,54.1z M34.2,54.4l0,0.7l-1,0.5l0.1-0.7L34.2,54.4z M25.9,54.6c0.1,0,0.2,0.1,0.4,0.4
			c0.9,1.2,1.1,1.4,0.8,1.7c-0.4,0.4-0.9,0-1.4-1c-0.1-0.1-0.2-0.3-0.2-0.4c-0.2-0.2-0.1-0.3,0.1-0.3c0.1,0,0.2,0,0.2-0.2
			C25.8,54.7,25.8,54.6,25.9,54.6L25.9,54.6z M48.5,55.2c0.2,0,0.2,0.1,0.1,0.3c-0.1,0.2-0.2,0.2,0.1,0.3l0.1,0.2
			c-0.2,0.1-1.1,0.5-1.4,0.6c-0.6,0.2-1-0.3-0.6-0.8C46.9,55.6,47.9,55.2,48.5,55.2L48.5,55.2L48.5,55.2z M25.4,55.9
			c0.6,0.9,0.7,1.4,0.3,1.7c-0.3,0.2-0.8-0.1-0.9-0.7c-0.1-0.5-0.1-1,0-1.3C25,54.9,25.3,55.8,25.4,55.9L25.4,55.9z M34.2,55.5
			l0,0.7L33,56.8l0.1-0.8L34.2,55.5z M36.6,55.5l1.1,0.7l0.1,0.6l-1.2-0.6L36.6,55.5z M49.1,56.2L49.1,56.2c0,0.1,0,0.4,0.2,0.5
			c0.3,0.1,0.3,0.2,0,0.4c-0.3,0.3-0.6,0.6-1,0.8c-1,0.4-1.3-0.7-0.4-1.2c0.3-0.2,0.6-0.3,0.8-0.4C48.9,56.3,49.1,56.2,49.1,56.2z
			 M36.7,56.6l1.3,0.8l0,0.8l-1.3-0.7L36.7,56.6z M34.2,56.7l0,0.7l-1.3,0.7l0.1-0.8L34.2,56.7z M39.4,57.2c0.4,0.2,5,1.5,6.5,1
			c0,0,1.3,1.9,2.3,2.6c-1.5,2.2-6.6,4.4-6.6,4.4L39.4,57.2z M49.8,57.3c0.1,0,0.1,0.1,0.1,0.2c0,0.5-0.8,2.1-1.4,1.3
			c-0.2-0.3,0-0.7,0.5-1.1C49.4,57.4,49.7,57.3,49.8,57.3L49.8,57.3z M24.7,57.6c0.1,0.1,0.1,0.5-0.2,0.5c-0.1,0-0.1-0.4,0-0.6
			L24.7,57.6z M34.2,57.8l0,0.9l-1.5,0.8l0.2-1L34.2,57.8z M36.7,57.9l1.5,0.8l0.2,0.9l-1.6-0.9L36.7,57.9z M34.2,59v0.9l-1.7,0.9
			l0.1-0.9L34.2,59z M36.7,59.1l1.7,1l0.2,0.9l-1.9-1L36.7,59.1z M13.1,59.1c0.3,0,0.4,0.3,0.2,0.5c-0.1,0.1-0.5,0.1-0.6,0
			C12.6,59.5,12.8,59.2,13.1,59.1z M13.6,60.1l0.1,0c0.2,0.1,0.3,0.3,0.2,0.5c-0.2,0.3-0.8,0.1-0.7-0.3
			C13.2,60.2,13.5,60.1,13.6,60.1z M34.2,60.3v0.8l-1.8,1l0.1-0.9L34.2,60.3z M36.7,60.5l1.9,1l0.1,0.9l-2-1.1L36.7,60.5z
			 M12.7,60.5c0.1,0,0.2,0,0.2,0.1c0,0.1,0.1,0.2,0.2,0.3c0.2,0.1,0.3,0.2-0.2,0.4c-0.2,0.1-0.6,0.4-0.7,0.4
			c-0.4,0.3-0.6,0.2-0.6-0.1C11.6,61.1,12.3,60.5,12.7,60.5L12.7,60.5z M14.2,61.1c0.1,0,0.2,0,0.3,0.1c0.2,0.1,0.2,0.3,0,0.4
			c-0.3,0.2-0.9-0.1-0.6-0.3C13.9,61.2,14,61.1,14.2,61.1L14.2,61.1z M34.1,61.5l0,1l-2,1.1l0.1-1L34.1,61.5z M13.1,61.6
			c0.1,0,0.3,0,0.4,0.1c0.1,0.2,0.3,0.2,0.4,0.2c0.4,0,0.2,0.1-0.1,0.3c-0.5,0.2-0.9,0.5-1.2,0.9c-0.4,0.4-0.4,0.4-0.5,0.3
			C11.5,62.9,12.4,61.7,13.1,61.6L13.1,61.6z M36.8,61.7l2.1,1.2l0.2,1l-2.3-1.3V61.7z M14.5,62.4l0.2,0.1c0.2,0.1,0.1,0.4-0.1,0.5
			c-0.2,0.1-0.5,0.1-0.6,0C13.9,62.7,14.2,62.4,14.5,62.4L14.5,62.4z M13.5,62.9c0.1,0,0.2,0.2,0.4,0.3c0,0,0.2,0,0.3,0
			c0.4,0,0.5,0.2,0.1,0.4c-0.1,0.1-0.5,0.4-0.7,0.6c-0.7,0.6-1,0.5-1-0.2C12.6,63.4,13.2,62.9,13.5,62.9L13.5,62.9z M36.8,62.9
			l2.4,1.3l0.2,1.1l-2.6-1.4V62.9z M34.2,62.9l0,1l-2.2,1.2l0.2-1L34.2,62.9z M36.8,64.2l2.7,1.6l0.1,1.1l-2.7-1.6V64.2z M34.2,64.4
			l0,1l-2.5,1.3l0.1-0.9L34.2,64.4z M14.2,65l0.2,0c0.3,0.1,0.2,0.4-0.2,0.6c-0.4,0.2-0.6,0.2-0.7-0.1C13.3,65.4,13.8,65,14.2,65z
			 M41.8,65.2c4.6,1.1,9.1,3.4,13.5,7.4l-0.9,0.7c0,0-3.8-4.4-12.4-7L41.8,65.2z M36.8,65.6l1.3,0.8l0,0.2l-1.3-0.1L36.8,65.6z
			 M15.1,65.6c0.1,0,0.2,0.1,0.6,0.3c1.8,1.3,2.6,2.1,3,3.6c0.3,0.9,0.3,0.8-0.6,0.4c-0.8-0.5-2-1.2-2.7-2.2
			c-0.1,2.3,0.1,5.1,0.1,5.1c1.1,0.6,0.8,2,0.8,2c3-0.8,2.3,3.1,0.1,2.3c0.5,2.9-2.8,2.7-2.5,0.2c-2.7-0.1-2.2-3,0-2.6
			c-0.2-0.9,0.1-1.5,0.9-1.9l-0.1-3.9c0,0-2.2,3.1-2.5,3.1c-0.2,0-0.5-0.4,0-3.1c0.3-1.4,1.8-3.2,2.6-3.2
			C14.9,65.6,15,65.6,15.1,65.6L15.1,65.6z M17.2,65.7l0.4,0.3l-0.4,0.7l-0.4-0.3L17.2,65.7z M34.2,65.8l0,0.6l-1.2,0.1L34.2,65.8z
			 M21.7,72.8c2.8,0.4,4.5,3.9,3.2,6.4c-0.2,0.1,0.1,0.7,0.2,0.5c1.4-2,0.4-6.8-3.7-7.2C20.7,72.3,21.4,72.5,21.7,72.8L21.7,72.8z
			 M22.1,73.7c-0.2,0.6-0.3,0.8,0.3,0.5c1,0.4,2.1,2.1,1.8,3.7c-0.1,0.2,0.1-0.1,0.2,0.4C24.9,77.1,24.4,74.5,22.1,73.7z M35.1,76.8
			c2.9,0,5.7,0.6,8,1.9c-0.8,0.4-3.2,1-3.2,1c-1.4-1.6-2.1-3.1-4.6-2.3c-2.6,0.7-5,3-6.3,4.5c-1.3-0.8-2-1-3.2-1.1
			c-0.1,0-0.2,0.3-0.1-0.2c0.3-0.5,0.6-1.1,0.8-1.7C28.9,77.6,32,76.8,35.1,76.8z M44.1,78.8c-0.6,1.9-1.3,3.7-2.6,5.3l-0.2-0.8
			c1.2-1.8,1.7-3.5,2-4.2L44.1,78.8z M42.9,79.3c0.1,0.1-1.1,3-1.7,3.6L41,82.1c0.5-0.7,1.2-2.5,1.2-2.6L42.9,79.3z M35.5,79.3
			l-0.1,0.1c0,0.3,0.3,0.5,0.8,0.6c0.7,0.2,1.6-0.1,1.6-0.4c0-0.2-0.1-0.2-0.5,0c-0.5,0.2-0.9,0.2-1.6-0.2
			C35.6,79.3,35.6,79.3,35.5,79.3L35.5,79.3z M41.6,79.8c-0.2,0.7-0.5,1.2-0.8,1.8l-0.1-0.4c0.2-0.4,0.4-0.9,0.6-1.3L41.6,79.8z
			 M40.9,80c-0.1,0.2-0.2,0.5-0.4,0.8l-0.3-0.6L40.9,80z M36.6,80.5c-0.5,0-0.9,0.2-1,0.4c0,0.1,0.2,0.1,1,0
			c0.5-0.1,0.7,0.2,1.1,0.2c0.2,0,0-0.2-0.1-0.3C37.4,80.6,37,80.5,36.6,80.5z M34.6,81.1c0,0,0,0.1,0.2,0.4
			c0.1,0.2,0.1,0.5,0.1,0.7c0,0.5,0,0.5,0.2,0.2c0.2-0.2,0.5-0.1,1,0c0.3,0.1,0.4,0.1,0.6,0c0.3-0.2,0.3-0.1,0.5,0
			c0.2,0,0.4,0,0.6-0.1c0.3-0.1,0.3-0.1,0.6,0c0.4,0.2,0.3,0.2,0.4-0.5c0-0.6,0-0.7-0.4-0.5c-0.4,0.2-0.6,0.3-1.1,0.1
			c-0.6-0.2-0.7-0.2-1.1,0c-0.5,0.2-0.7,0.2-1.1,0C34.8,81.2,34.6,81.1,34.6,81.1L34.6,81.1z M26.3,82l0.2,0.4
			c2,0.7,3.4,2.4,2.6,5.2l0.2,0.3C30.4,85.1,29.2,82.8,26.3,82L26.3,82z M27,83.2l0.3,0.6c1.5,0.7,1.4,2.8,1.4,2.7l0.2,0.5
			C29.2,85.7,28.5,83.8,27,83.2L27,83.2z M33.4,86.3l-0.1,0.1c0,0.1,0.1,0.2,0.8,0.7c0.6,0.4,1.1,0.7,1,0.8c0,0-0.4-0.1-0.7-0.1
			c-0.7-0.2-1.7,0-2.3,0.5c-0.1,0.1-0.4,0-0.6-0.1c-0.1,0-0.3,0-0.4,0c-0.4,0.1,0,0.5,1.1,1.1c1.3,0.7,2,0.7,2.8,0.3
			c0.5-0.3,0.7-0.1,0.1,0.2c-1,0.6-2,0.4-3.6-0.7c-0.7-0.5-1-0.4-0.4,0.1c1.1,0.9,3.3,2,4.6,0.6l0.2,0c0.3,0,0.3-0.1,0-0.5
			c-0.2-0.3-0.5-0.6-0.1-0.9c0.3-0.3,0.3-0.4-0.1-0.5c-0.1,0-0.1,0-0.2-0.1C34.6,86.9,33.7,86.3,33.4,86.3L33.4,86.3z M33.8,87.8
			c0.4,0,0.8,0.3,0.9,0.9l0,0.2l-0.3,0c-0.3-1.1-1.1-0.7-1.2-0.1l-0.3,0C33,88.1,33.4,87.8,33.8,87.8L33.8,87.8z M40.7,88.8l-0.2,0
			c-0.1-0.4-0.8-1-1.1,0l-0.3,0C39.3,87.5,40.5,87.7,40.7,88.8L40.7,88.8z M39,88.2c0.1,0.1-0.1,0.3-0.2,0.5c-0.1,0.1-0.3,0-0.4-0.1
			c-0.1-0.1,0-0.3,0.1-0.3C38.7,88.2,38.9,88.1,39,88.2L39,88.2z M35.1,88.2c0.1,0.2-0.2,0.4-0.2,0.3l-0.1-0.4L35.1,88.2L35.1,88.2z
			 M41,88.2c0.1,0,0.3,0.1,0.3,0.2c0,0.1-0.1,0.2-0.3,0.2c-0.1,0-0.3-0.2-0.3-0.4L41,88.2z M32.8,88.3l-0.1,0.3l-0.3,0
			c0,0,0-0.2,0-0.3L32.8,88.3L32.8,88.3z M38.3,89l0.1,0.1c0.8,0.6,1.9,0.8,2.7,0.4c0.2-0.1,0.3-0.1,0.3,0c0,0.1-0.2,0.3-0.6,0.4
			c-0.8,0.2-2.1-0.1-2.6-0.6C38.1,89.1,38.1,89,38.3,89L38.3,89z M30.9,89.6c-0.1,0-0.1,0-0.1,0.1c0.1,0.3,2.3,1.6,3.2,1.8
			c0.8,0.1,1.4,0.1,1.8-0.2c1.1-0.7,0.9-1.6-0.3-0.9c-0.8,0.5-2.7,0.2-3.8-0.4C31.3,89.7,31,89.6,30.9,89.6L30.9,89.6z M41,90.1
			c0.3-0.1,0.4-0.2,0.5-0.1c0.3,0.2-0.2,0.6-1,0.8c-0.7,0.1-1.1,0.1-1.9-0.5c-0.6-0.5-0.3-0.7,0-0.5C39.5,90.4,40.2,90.4,41,90.1
			L41,90.1z M31.1,91.5c2,0.7,4.3,2.4,5.3,4.5l-0.6,0c-0.7-1.2-2-2.7-4.3-3.8C31.3,92.1,31.2,91.8,31.1,91.5L31.1,91.5z M41.5,92.5
			v0.7c-1.2,0.6-2.3,1.6-3,2.9l-0.7,0C38.6,94.6,39.8,93.3,41.5,92.5z M41.5,93.5v0.8c-0.8,0.5-1.4,1.1-1.9,1.8h-0.8
			C39.5,94.9,40.4,94,41.5,93.5L41.5,93.5z M32.4,94.1c0.6,0.3,1.6,1.3,1.9,2l-0.3,0c-0.3-0.4-0.8-0.9-1.3-1.3
			C32.5,94.5,32.4,94.1,32.4,94.1L32.4,94.1z M41.5,94.6L41.5,94.6v0.7c0,0-0.6,0.4-0.8,0.8H40C40.5,95.2,41.4,94.6,41.5,94.6z
			 M41.5,95.7V96l-0.4,0C41.1,96,41.4,95.7,41.5,95.7L41.5,95.7z M33.3,95.8c0.1,0.1,0.2,0.3,0.2,0.3l-0.1,0L33.3,95.8z"/>
		<path class="st5" d="M16.3,81.6c1.4,0,4.3-0.5,4.3-0.4c0,0,9.1,15.2,8.7,15c-0.1,0.2-11.6,0.2-11.6,0.2
			C17.4,96.3,20.1,90.7,16.3,81.6z M20.4,70.9c4.4-3.7,9-3.7,14-4.2l0.1-12.5l1.8,1.1l0,11.5c6.6,0.5,12.2,2.9,17.1,7.1
			c0.1,0.1-7,3.9-10.1,4.9c-2.4-1.8-8.8-2.9-13-1.5c-1.2,0.4-2.6,1-4,1.4c1-6-3.7-6.9-5.3-7.2C20.8,71.4,20.6,71,20.4,70.9z
			 M14.8,72.8c0.1-1.3,0-2.6-0.1-3.9c0-0.3-2.6,3.9-2.7,2.9c-0.4-2.6,0.9-5.8,2.9-6.2c0.2-0.3,4.1,2.2,3.9,4.3
			c-0.1,0.7-3.5-2.3-3.5-2.1c-0.1,0.4,0.1,5.1,0.2,5.1c1,0.6,0.8,1.3,0.9,1.9c2.7-0.4,2.5,2.6,0,2.5c0.2,3.5-3.1,1.9-2.4,0.1
			c-3.3-0.2-1.7-3.2,0-2.5C13.8,73.9,14,73.1,14.8,72.8L14.8,72.8z M18.5,58c-0.2-0.1-7-0.4-7-0.4l0.4-16.6c3.5-8,16.5-4.3,14.4-2.6
			C20.1,42.5,19.1,50,18.5,58z M31,51.1l-0.2-1.8c-0.5-1.1,13.8,5.5,14,5.7l0.4,2C45.3,57.8,36.1,53.4,31,51.1z M57.2,47.9
			c-1.1,8.3-1,16.6-7.1,19.5c4.6,4.5,8.4,1,14.2-1.9c0.2,0-0.2-17.7-0.3-17.7C61.7,47.9,59.4,47.9,57.2,47.9z M60.3,39.8
			c-1.1-0.2-3.8-2.9-3.2-3.8c0-0.6,3.3,1.8,3.6,2.4c-0.2-0.2-0.2-5.8-0.2-5.6c-0.1,0.1-1-0.6-0.8-1.7c-2.5,0.6-2.4-2.7-0.2-2.6
			c-0.3-3,3.3-1.9,2.4,0.1c3.1-0.6,2.6,2.9,0.2,2.3c0.2,1.3-0.3,1.7-1.1,2c0,0.6,0.3,4.3,0.3,4.3s2.3-3.5,2.4-3.2
			C64.3,34.8,63.4,40.7,60.3,39.8L60.3,39.8z M49.7,26.8c-1,3.6,1.8,7.7,4.5,7.6c0.5-0.1,1.6,0.2,1.2,0.5c-4.2,3.4-14,4.1-14,4
			c0.1,4.2-0.1,8.5-0.2,12.7l-1.8-1.1c-0.1-3.8-0.2-7.8-0.2-11.6c-6.3-0.8-11.9-2.9-16.4-7.2c3-2.2,6.5-3.6,9.9-5
			C36.9,28.9,42.9,30.2,49.7,26.8L49.7,26.8z M46.6,9.8c-0.2-0.1,0.7-0.7,0.7-0.7s7.3,0.1,10.9,0c-1.3,5.5-0.4,10.4,1.3,15
			c-0.5-0.1-3.5,0.1-4.2,0.5C55.3,24.8,46.7,9.9,46.6,9.8z"/>
		<path class="st7" d="M29.5,96.1l-8.8-15l1.3-0.6l9.1,15.6L29.5,96.1z M13.8,76l1.3-1.3l1.3,1.3L15,77.3L13.8,76z M42.1,67.6
			L42,66.5c5.1,1.3,9.3,3.9,12.3,6.8l-0.7,0.5C53.7,73.8,46.3,68.1,42.1,67.6L42.1,67.6z M27.5,66.6l1.5-0.3l0,0.9l-1.4,0.3
			L27.5,66.6z M57.2,65.8l-0.9-0.7l0.6-0.8l0.9,0.7L57.2,65.8z M27.3,58.6c2.2-1,3.9-5.2,3.7-5.5l1.2,0.3l-2.8,11.5l-1.9,0.4
			C27.5,63.1,27.3,60.8,27.3,58.6z M41.6,65.1c-0.7-2.4-2.2-7.9-2.2-7.9c0.1,0.2,4.7,1.5,6.4,1c0.7,1,1.5,1.8,2.3,2.6
			C46.4,62.6,44.3,64,41.6,65.1z M61.3,56.3l-0.8-0.7l0.7-0.9l0.9,0.7L61.3,56.3z M50.5,55.8c-0.7-1.2-0.7-2.6,0.5-4L50.5,55.8z
			 M24.8,53.7c0-1.2,0.1-2.4,0.4-3.6C26,51.4,26,52.7,24.8,53.7z M43.7,52.5c0,0,1.8-8.5,2.6-11.8l2-0.5l-0.1,6.9
			c-2,1.6-3.4,5.5-3.3,5.5L43.7,52.5z M14.5,51.1l-0.9-0.8l0.7-0.8l0.8,0.8L14.5,51.1z M30.2,47.8c-0.6-0.9-1.5-1.9-2.4-2.8
			c1.5-2.1,4-3.3,6.6-4.2l1.8,8C34.2,48.1,32,47.4,30.2,47.8L30.2,47.8z M17.9,40.7l0.6-0.8l0.8,0.6l-0.6,0.9L17.9,40.7z M47,38.4
			l1.3-0.3l0,1l-1.5,0.3L47,38.4z M21.7,32.3l1-0.6c3.3,3,7,5.1,11.1,6.3l0.1,1.1C29.3,37.7,25.1,35.8,21.7,32.3L21.7,32.3z
			 M60.8,31.1l-1.2-1.2l1.1-1.3l1.3,1.2C61.6,30.4,60.8,31.1,60.8,31.1z M53.9,25.1L44.7,9.2l1.3,0l9.1,15.4L53.9,25.1z"/>
		<path class="st3" d="M44.6,8.9l-2.2,0L55,34.4c0,0-0.3,0.1-1-0.1c-3-0.8-4.9-4-4.2-7.2c0.1-0.2,0.1-0.5,0.1-0.5
			c-7.8,3.6-12.6,2.2-17.1,0l-1.9,0.7c0.1-1.2,1.6-5.6,3.7-7.6l0-2.2l-0.1-1l-0.2-1.9c-3.2,3-6.9,7.8-7.4,14.6c0,0-2.9,1.5-5.4,3.2
			c0.1,0,3.9,4.6,12.8,7.2L33.9,38c1.3,0.4,3.2,0.7,5.1,0.9l0.3,11.5l2.1,1.3L41.5,39c0.1,0.1,3.4-0.1,5.2-0.6l-0.3,1.2l1.8-0.4v0.9
			l-2,0.5l-2.8,11.9l1.6,0.4c0.5-2.4,1.7-4.4,3.4-5.5l0-0.5c1.1-0.8,3.4-1.4,3.4-1.4c0.8-3.9,2.6-6.6,4.6-9.1l-0.9-1.3l3.6-1.3
			l-4.9-8.5c1.9-1.3,5.7-0.8,5.7-0.8c-1.6-4.4-3-8.9-1.4-15.6L44.7,9L44.6,8.9z M49.1,9.2c0,1.1-1.4,1-1.6,0L49.1,9.2z M57.9,9.1
			c-0.9,5.1-0.6,10.1,1.4,14.8l-0.3,0l0-0.3c0-0.2-0.3-0.1-0.6,0.1c-0.1,0.1-0.2,0.2-0.3,0.2C57.9,24,56.6,24,56.6,24
			c0.4-0.3,1-1.1,0.7-1.5c-0.1-0.1-0.1-0.1-0.2,0.1c-0.4,0.6-0.5,0.7-1,0.7c-0.8,0-1.3-0.5-1.2-1.2c0.1-0.7,1.1-1.1,0.9-0.4
			c0,0.6,0.5,0.7,0.7,0.1c0-0.2,0-0.1,0.1-0.4c1.2-0.6,0.5-1.9-0.6-1.6c-0.3,0.1-0.3,0.1-0.5,0c-0.3-0.2-0.6-0.1-0.8,0.1
			c-0.1,0.2,0.1,0.4,0.3,0.4c0.3,0,0.3,0.1,0.3,0.3c0,0.4-0.6,0.5-1,0.3c-1.1-0.6-0.7-2,0.6-2c0.4,0,0.6,0,0.6-0.1
			c0-0.2-0.5-0.6-0.9-0.6c-0.3,0.1-0.5,0.1-0.3-0.3c0.1-0.4,0.1-0.6,0-0.9c-0.2-0.4-0.2-0.2-0.3,0.1c-0.4,0.7-1.1,0.9-1.6,0.5
			c-0.5-0.4-0.5-1,0-1.5c0.3-0.3,0.7-0.1,0.5,0.3c-0.1,0.2,0,0.3,0.1,0.4c0.3,0.1,0.5-0.1,0.5-0.5c0-0.2-0.1-0.2,0.3-0.5
			c0.9-0.5,0.2-2-0.8-1.5c-0.2,0.1-0.3,0.2-0.4,0.2c-0.4-0.4-1.1,0.1-0.7,0.4c0.2,0.1,0.4,0.1,0.4,0.1c0.1,0.1,0.1,0.2-0.1,0.3
			c-0.4,0.5-1.4,0.3-1.7-0.5c-0.3-0.9,0.6-1.8,1.3-1.3c0.2,0.1,0.4,0.2,0.4-0.1c0-0.3-0.4-0.7-1-0.7c-0.6,0-0.5,0.1-0.2-0.4
			c0.2-0.4,0.2-0.9,0-1.1c-0.1-0.2-0.3-0.2-0.3,0c0.1,0.7-0.6,1.3-1.3,1c-0.6-0.3-0.9-1-0.6-1.6c0.3-0.5,0.9-0.6,0.8,0
			c-0.1,0.4,0.2,0.6,0.5,0.3c0.1-0.1,0.1-0.2,0.1-0.4c0-0.3-0.1-0.3,0.1-0.5c0.5-0.1,0.5-1,0.4-1.1L57.9,9.1L57.9,9.1z M49.9,9.2
			c0.3,0,0.5,0.1,0.5,0.4c0,0.3-0.2,0.5-0.5,0.5c-0.3,0-0.5-0.2-0.5-0.5C49.3,9.3,49.6,9.2,49.9,9.2z M44.8,9.2h1.2L55,24.4L53.9,25
			L44.8,9.2z M46.7,9.7c0.6,0.3,1.1,0.6,1.7,0.6C48.2,10.8,48,11.2,48,12L46.7,9.7z M48.5,12.8c0.6,0.2,1,0.5,2,0.2
			c-0.5,0.4-0.8,1-1,1.5L48.5,12.8z M53.2,14.6c0.3,0,0.5,0.2,0.5,0.5c0,0.3-0.2,0.5-0.5,0.5c-0.3,0-0.5-0.2-0.5-0.5
			C52.8,14.9,53,14.6,53.2,14.6z M50.3,15.8c0.4,0.2,0.8,0.2,1.3,0.2c-0.2,0.3-0.3,0.8-0.3,1.4L50.3,15.8z M51.7,18.3
			c0.4,0.2,0.8,0.5,1.6,0.4c-0.5,0.9-0.4,1.1-0.5,1.5L51.7,18.3z M56.2,20c0.3,0,0.5,0.2,0.5,0.5c0,0.3-0.2,0.5-0.5,0.5
			c-0.3,0-0.5-0.2-0.5-0.5C55.7,20.2,56,20,56.2,20z M53.4,21.2c0.3,0.2,1,0.3,1,0.3c0,0-0.2,0.7-0.2,1.1L53.4,21.2z M55,23.8
			c0.5,0.3,1,0.3,1.3,0.3c-0.3,0.1-0.7,0.2-1,0.3L55,23.8z M60.8,26.6c-1.2,0.1-1.4,1-1.3,1.9c-0.9-0.1-1.9,0.7-1.6,1.8
			c0.3,1,1.2,1,1.8,1c0,0.2-0.2,1.1,0.8,1.7l0.1,5.2c0,0-0.4-0.4-0.7-0.7c-1.2-1.2-3.1-2.1-2.9-1.4c0,0.1,0.1,0.4,0.1,0.6
			c0.2,1.2,1.8,2.4,2.8,3.1c0.4,0.2,0.6,0.4,0.6,0.4c-2,2.1-3.1,4.4-3.3,6.7c-0.2,2.1-0.4,4-0.6,5.9c-0.8,9.7-4.9,12.1-5.1,12.6
			l-0.1,1.3l-1.2-0.1l-1.3,1.2c4.3,2.3,6.9,5,6.8,5c3.5-2.3,6.5-4.8,9.3-7.5l-0.1-21.6l-0.3,0.1c-0.2,0-0.2,0.1-0.3,0.5
			c0,0.2-0.2,0.4-0.3,0.6c-0.2,0.3-0.1,0.1,0.1,0.2c0.6,0.2-0.2,1.3-1,1.4c-0.6,0.1-0.9,0.2-1,0.3c-1.2,1.1-2.4,1.2-3.3,0.8
			c-0.4-0.2-0.9-0.5-1.1-0.9c-0.4-1.1,0.4-2.6,0.9-3.5c0.8-1.6,2.2-2.8,2.2-2.8l-0.2-0.2l0.3,0c1.2-0.4,1.3-0.4,1.5-0.8
			c0.2-0.3,0.8-1.2,0.9-1.5c0.6-1.6,0.7-1.7,0.7-2.8c0-0.9-0.1-1.4-0.2-1.5c-0.9,0.7-1.9,2.4-2.4,3.4c-0.2-1.5-0.2-4.1-0.2-4.1
			c0.2-0.2,1.3-0.1,1.1-1.9c1,0.5,2-0.2,2-1.2c-0.1-1.5-1.2-1.5-2.1-1.3C62.5,27.6,61.6,26.5,60.8,26.6L60.8,26.6z M60.7,26.7
			c1.2,0,1.5,1.4,0.7,2.2c0,0-0.5-0.4-0.7-0.6c-0.2,0.2-0.3,0.4-0.6,0.6c-0.3-0.2-0.5-0.7-0.5-1.1C59.6,27.2,60.3,26.7,60.7,26.7
			L60.7,26.7z M32.7,26.8c5,2.8,11.2,3,16.9,0.1l-0.1,0.5l-0.6,0.4l0.4,0.7l0.2-0.1l0,0.4c-4.7,2.6-12.6,3.1-18.7-1.2l0.5-0.3
			c0,0,0.1,0.1,0.2,0.2c0.2,0.1,0.6,0.4,0.8,0.5l0.4-0.5L32.2,27L32.7,26.8L32.7,26.8z M33.1,27.6l-0.3,0.7l0.7,0.4l0.3-0.7
			L33.1,27.6z M30.4,27.7c7.6,4.8,14.8,3.4,19,1.4l0.1,0.5C44,32,36.8,32.6,29.9,28L30.4,27.7z M48.4,28l-0.7,0.3l0.3,0.6l0.7-0.3
			L48.4,28z M29.5,28.1c6.2,4,12.9,4.8,20.1,1.9l0.3,0.8c-7,2.8-14.4,2.5-21.1-2.3L29.5,28.1z M34.3,28.2L34,28.8l0.8,0.3l0.2-0.7
			L34.3,28.2z M47.4,28.4l-0.7,0.2l0.2,0.6l0.7-0.2L47.4,28.4z M35.5,28.6l-0.2,0.7l0.8,0.2l0.1-0.7L35.5,28.6z M63.9,29.7
			c0.1,1.2-1.6,1.7-2.2,0.6l0.6-0.7l-0.5-0.5C62.5,28.1,63.8,28.6,63.9,29.7L63.9,29.7z M28.6,28.7l1.9,1.3L29.1,32l-2-1.3
			L28.6,28.7z M60.7,28.7l1.2,1L60.8,31l-1.1-1.1L60.7,28.7z M60,29.1l-0.7,0.8l0.7,0.8c-0.8,0.9-2.1,0.3-2.1-0.8
			C57.9,29,59.2,28.2,60,29.1L60,29.1z M46.2,28.8L45.5,29l0.2,0.6l0.7-0.2L46.2,28.8z M36.7,29l-0.1,0.7l0.8,0.2l0.1-0.7L36.7,29z
			 M45.1,29.1l-0.8,0.2l0.1,0.7l0.8-0.2L45.1,29.1z M60.8,29.2l-0.6,0.6l0.6,0.6l0.6-0.6L60.8,29.2z M38,29.3l-0.1,0.7l0.9,0.1
			l0.1-0.7L38,29.3z M43.7,29.3L43,29.4l0.1,0.7l0.8-0.1L43.7,29.3z M39.2,29.4l0,0.7l0.7,0.1v-0.7L39.2,29.4z M42.5,29.5l-0.7,0
			l0,0.7l0.8,0L42.5,29.5L42.5,29.5z M28.8,29.5c-0.4,0-0.8,0.4-0.8,0.8c0,0.4,0.4,0.8,0.8,0.8c0.4,0,0.8-0.4,0.8-0.8
			C29.6,29.9,29.3,29.5,28.8,29.5z M41.3,29.5l-0.7,0l0,0.7l0.8,0L41.3,29.5L41.3,29.5z M60.8,29.5l0.3,0.3l-0.3,0.3l-0.3-0.3
			L60.8,29.5z M28.8,29.8c0.3,0,0.5,0.2,0.5,0.5c0,0.3-0.2,0.5-0.5,0.5c-0.3,0-0.5-0.2-0.5-0.5S28.6,29.8,28.8,29.8z M26,29.8
			l1.1,0.9c-0.3,0.7-1.4,2-1.4,2l-2-1.6l1-0.6c-0.1,0.1-0.1,0.2-0.1,0.4c0,0.4,0.4,0.8,0.8,0.8s0.8-0.4,0.8-0.8
			c0-0.4-0.3-0.8-0.7-0.8L26,29.8z M25.4,30.4c0.3,0,0.5,0.2,0.5,0.5c0,0.3-0.2,0.5-0.5,0.5s-0.5-0.2-0.5-0.5S25.1,30.4,25.4,30.4z
			 M61.5,30.6c0,0,0.3,0.1,0.4,0.2c0.6,0.9,0,1.9-1,1.9c-1.1,0-1.4-1.4-0.6-2l0.6,0.6L61.5,30.6z M32.5,31l2.2,0.8l-0.8,2.4l-2.4-1
			L32.5,31z M23.5,31.2c9,8.1,21.7,8.7,30.9,3.3l0.6,0l0.3,0.3c-10.5,6.3-23.6,4.9-32.5-3.2L23.5,31.2z M48.2,31.7l0.7,2.4l-2.4,0.6
			l-0.5-2.4L48.2,31.7z M22.6,31.8c2.7,2.6,6.6,5,11.1,6.3l0.1,1c-4.8-1.4-8.4-3.4-11.9-6.7L22.6,31.8z M33.1,31.8
			c-0.4,0-0.8,0.4-0.8,0.8s0.4,0.8,0.8,0.8c0.4,0,0.8-0.4,0.8-0.8S33.5,31.8,33.1,31.8z M29.2,32l2.3,1.2l-1.1,2.3l-2.4-1.3L29.2,32
			z M33.1,32.1c0.3,0,0.5,0.2,0.5,0.5c0,0.3-0.2,0.5-0.5,0.5c-0.3,0-0.5-0.2-0.5-0.5S32.8,32.1,33.1,32.1z M36.8,32.4l2.2,0.3
			l-0.1,2.4l-2.5-0.3C36.5,34,36.8,32.4,36.8,32.4z M47.3,32.5c-0.4,0-0.8,0.4-0.8,0.8s0.4,0.8,0.8,0.8s0.8-0.4,0.8-0.8
			S47.8,32.5,47.3,32.5z M47.3,32.7c0.3,0,0.5,0.2,0.5,0.5c0,0.3-0.2,0.5-0.5,0.5c-0.3,0-0.5-0.2-0.5-0.5S47,32.7,47.3,32.7z
			 M29.6,32.8c-0.4,0-0.8,0.4-0.8,0.8c0,0.4,0.4,0.8,0.8,0.8c0.4,0,0.8-0.4,0.8-0.8C30.4,33.1,30.1,32.8,29.6,32.8z M43.6,32.8
			l0.3,2.4l-2.4,0.1l-0.1-2.4L43.6,32.8z M60.6,33h0.3c0,2.1,0.2,4.5,0.4,6.3c0,0.3,0.1,0.3,0,0.4c-0.2,0.4-0.5-0.1-0.6-1.3
			c0-0.3-0.1-0.8-0.1-1.1C60.5,36.3,60.6,33,60.6,33L60.6,33z M20.4,33c-3.6,2.2-9.5,7.6-9.5,7.7l0,20.6l0.5,0l0.4-0.8
			c-0.6-0.1-0.4-1.3,0.7-1.5c0.2,0,0.8-0.2,0.9-0.4c0.9-0.7,2.3-1.1,3.3-0.8c1.4,0.4,1.7,1.4,1,3.3c-0.5,1.5-1.6,3.3-2.6,3.9
			l-0.3,0.1l0.3,0.3c2.8-1.6,4.2-7.5,4.1-11.1c0.1-3.7,0.7-7.4,2.2-10.2c2.5-4.5,5.7-6.3,5.7-6.3C27.2,38,22.8,35.3,20.4,33z
			 M29.6,33c0.3,0,0.5,0.2,0.5,0.5c0,0.3-0.2,0.5-0.5,0.5c-0.3,0-0.5-0.2-0.5-0.5S29.3,33,29.6,33z M51.3,33.1l0.8,2.3l-2.4,1L49,34
			L51.3,33.1z M37.8,33.1c-0.4,0-0.8,0.4-0.8,0.8s0.4,0.8,0.8,0.8c0.4,0,0.8-0.4,0.8-0.8S38.2,33.1,37.8,33.1z M42.6,33.3
			c-0.4,0-0.8,0.4-0.8,0.8c0,0.4,0.4,0.8,0.8,0.8c0.4,0,0.8-0.4,0.8-0.8C43.4,33.7,43,33.3,42.6,33.3z M37.8,33.4
			c0.3,0,0.5,0.2,0.5,0.5c0,0.3-0.2,0.5-0.5,0.5s-0.5-0.2-0.5-0.5C37.2,33.6,37.5,33.4,37.8,33.4z M42.6,33.6c0.3,0,0.5,0.2,0.5,0.5
			s-0.2,0.5-0.5,0.5c-0.3,0-0.5-0.2-0.5-0.5S42.3,33.6,42.6,33.6z M50.6,33.9c-0.4,0-0.8,0.4-0.8,0.8c0,0.4,0.4,0.8,0.8,0.8
			c0.4,0,0.8-0.4,0.8-0.8S51,33.9,50.6,33.9z M50.6,34.1c0.3,0,0.5,0.2,0.5,0.5c0,0.3-0.2,0.5-0.5,0.5c-0.3,0-0.5-0.2-0.5-0.5
			C50,34.4,50.3,34.1,50.6,34.1z M33.9,34.2l2.4,0.6l-0.5,2.5l-2.7-0.7L33.9,34.2z M63.7,34.1c0.4,1.2-0.3,2.8-0.4,2.9
			c-0.4,1.2-0.9,2.2-1.1,2.3c-0.2,0.1-0.2,0-0.2-0.1c0-0.2,0.5-1.8,0.9-2.8c0.1-0.2,0.3-1,0.3-1.1c0-0.2-0.2,0.1-0.4,0.6
			c-0.4,0.9-0.9,1.9-1.1,2.9c-0.1,0.7-0.2,0.6-0.3-0.2c-0.1-1.2,0.1-1.9,1.5-3.6C63.3,34.4,63.7,34,63.7,34.1L63.7,34.1z M46.4,34.7
			l0.7,2.4l-2.8,0.5l-0.4-2.5L46.4,34.7z M34.8,35c-0.4,0-0.8,0.4-0.8,0.8s0.4,0.8,0.8,0.8c0.4,0,0.8-0.4,0.8-0.8S35.2,35,34.8,35z
			 M38.9,35.1l2.5,0.1l0,2.5l-2.7-0.1L38.9,35.1z M34.8,35.2c0.3,0,0.5,0.2,0.5,0.5c0,0.3-0.2,0.5-0.5,0.5c-0.3,0-0.5-0.2-0.5-0.5
			C34.2,35.5,34.5,35.2,34.8,35.2z M45.3,35.5c-0.4,0-0.8,0.4-0.8,0.8s0.4,0.8,0.8,0.8c0.4,0,0.8-0.4,0.8-0.8S45.8,35.5,45.3,35.5z
			 M40.1,35.7c-0.4,0-0.8,0.4-0.8,0.8c0,0.4,0.4,0.8,0.8,0.8c0.4,0,0.8-0.4,0.8-0.8C40.9,36,40.5,35.7,40.1,35.7z M45.3,35.7
			c0.3,0,0.5,0.2,0.5,0.5c0,0.3-0.2,0.5-0.5,0.5c-0.3,0-0.5-0.2-0.5-0.5S45,35.7,45.3,35.7z M40.1,35.9c0.3,0,0.5,0.2,0.5,0.5
			c0,0.3-0.2,0.5-0.5,0.5c-0.3,0-0.5-0.2-0.5-0.5S39.8,35.9,40.1,35.9z M57.3,36.1l0.1,0c0.6,0,2.5,1.4,2.9,2.2
			c0.4,0.7,0.2,1-0.3,0.4c-0.6-0.7-1.8-1.8-2-1.8c-0.2,0,0.1,0.2,0.8,1c0.7,0.7,1.5,1.7,1.5,1.9c0,0.1-0.1,0.1-0.4,0
			c-0.5-0.3-0.9-0.6-1.1-0.8c-0.1-0.1-0.4-0.3-0.5-0.5C57.8,37.8,57,36.4,57.3,36.1L57.3,36.1L57.3,36.1z M22.1,36.3
			c0.5,0,1,0.3,1.1,0.9c0,0.4,0,0.4,0.4,0.4c0.3,0,1.3,0.1,1.3,0.1l0,1.1c0,0-0.5,0-1,0c-0.9,0-0.9,0-1.1,0.4c0,0.2-0.1,0.3-0.3,0.4
			c-0.8,0.6-1.7-0.5-1.1-1.4c0.2-0.3,0.2-0.4,0.1-0.6C21.2,36.9,21.6,36.3,22.1,36.3L22.1,36.3z M22.4,36.9c-0.1,0-0.2,0-0.3,0.1
			c-0.1,0.1-0.1,0.5,0,0.8c0.1,0.2,0.1,0.3,0,0.4c-0.3,0.3-0.3,0.8,0,1c0.2,0.2,0.5-0.1,0.5-0.4c0-0.4,0.3-0.4,0.3-0.4l1.8,0l0-0.3
			L23.3,38c-0.2,0-0.4,0-0.5-0.1c-0.1-0.1-0.3-0.3-0.2-0.5C22.8,37.1,22.6,36.8,22.4,36.9L22.4,36.9z M18.5,37.5l0.8,1.4l1,0
			l0.1,0.9l1.2,0.8l-1.2,0.7l-0.1,0.9l-0.9,0.1l-0.9,1.1l-0.8-1.1l-0.9,0l0-0.9l-1.2-0.8l1.4-0.8l0-1l1-0.1L18.5,37.5L18.5,37.5z
			 M48.2,38.2l0,0.9l-1.4,0.2l0.2-0.9L48.2,38.2z M39.4,39l1.9,0.1l-0.1,12.2l-0.4,0l0-0.5l-0.6,0l-0.6-0.4L39.4,39z M18.5,39.4
			l-1.1,1.4l1.3,1.2l1.2-1.4L18.5,39.4z M39.9,39.5v0.6h0.8v-0.6H39.9z M18.5,40l0.8,0.6l-0.6,0.8L18,40.7L18.5,40z M48.2,40.3
			l0,6.7c-2.5,2-3.3,5.6-3.3,5.6l-1-0.1l2.6-11.7L48.2,40.3z M34.4,40.5c-2.3,1.1-4.6,1.9-6.9,4.5c0.9,0.8,1.8,1.6,2.6,3
			c1.9-0.3,4,0.1,6.3,1L34.4,40.5z M39.9,40.6v0.6h0.8v-0.6H39.9z M14.2,41.5c0.1,0.2,0.1,0.4,0.1,0.4c1.7-0.1,1.3,1.8,0.2,1.9
			c-0.1,0,0.1,0.3,0.4,0.5c0.6,0.3,1.1,0.1,1.5-0.5c0.3-0.4,0.3-0.5,0.3-0.5l1,0.6c0,0,0,0-0.2,0.5c-0.3,0.9,0.2,1.9,0.5,1.2
			c0.2-0.4,0.8-0.7,1.2-0.5c0.5,0.2,0.6,1.1,0.3,1.6c-0.1,0.2-0.1,0.2,0,0.3c0.1,0.2,0.2,0.8,0.1,1c-0.1,0.2-0.3,0.3-0.6,0.1
			c-0.4-0.3-0.6-0.4-1.3-0.6c-1.2-0.2-1.4-0.6-1.9-1.6c-1.4,0.4-3.5-0.5-3.3-2.6c0.1-0.5,0.2-1.4-0.1-1.5c-0.5-0.4,0-0.9,0.7-1
			C13.8,40.6,14.1,41.2,14.2,41.5L14.2,41.5z M34.2,40.9l1.8,7.8c-2-0.7-4-1.3-5.8-0.9c-0.8-1.3-1.5-1.9-2.4-2.8
			C29.6,42.9,31.9,41.7,34.2,40.9L34.2,40.9z M13.4,41.2c-0.1,0-0.3,0.1-0.4,0.2c0,0,0.1,0.1,0.2,0.2c0.1,0.2,0.1,0.2,0,0.7
			c-0.6,2,0.8,3.4,2.7,2.8c0.5-0.1,0.4-0.1,0.6,0.4c0.2,0.9,0.9,1.4,2.1,1.5c0.1,0,0.2,0,0.3,0.1c0.6,0.4,0.3-0.1,0.2-0.3
			c-0.1-0.1-0.3-0.3-0.3-0.3l0.2-0.2c0.4-0.2,0.5-0.9,0.2-1.1c-0.3-0.1-0.7,0.1-0.7,0.4c0,0.5-0.6,0.6-1.2,0.1
			c-0.7-0.5-0.1-1.9-0.1-1.9l-0.4-0.2c0.1,0-0.8,1.3-2,0.9c-0.8-0.3-1.3-1.2-1-1.5c0.3-0.1,0.6,0.1,0.8-0.1c0.4-0.3,0.1-0.9-0.5-0.8
			c-0.1,0-0.4,0.1-0.4,0.1c0-0.3,0.1-0.4,0.1-0.7C13.8,41.4,13.6,41.2,13.4,41.2L13.4,41.2z M39.9,41.8v0.5l0.8,0v-0.5L39.9,41.8z
			 M39.9,42.8v0.5h0.8v-0.5H39.9z M39.9,43.9v0.5h0.8v-0.5H39.9z M39.9,44.9v0.5h0.8v-0.5H39.9z M39.9,45.9v0.5h0.8v-0.5H39.9z
			 M39.9,46.9v0.5h0.8v-0.5H39.9z M14.7,47.4l0.7,1.1l0.8,0l0,0.8l1.3,1l-1.2,0.8l-0.1,0.8l-0.9,0l-0.7,1.3l-0.9-1.1L12.9,52l-0.1-1
			l-1.1-0.9l1.1-0.9l0.1-0.9l0.9,0.1L14.7,47.4z M57.7,47.9l0.2,0.1c0.3,0.1,0.4,0.2,1.1,0.2c0.8,0,1.1,0.1,1.5,0.4
			c0.2,0.2,0.3,0.2,0.5,0c1.2-0.8,2.5-0.1,2.6,1.4c0,0.4,0.1,0.5,0.2,0.9c0.1,0.2,0.2,0.4,0.1,0.5c-0.2,0.4-1.1,0.5-1.6-0.2
			C62.3,51,62.2,51,62.1,51c-0.2,0.1-0.9-0.4-0.9-0.4c-0.1,0.3-0.1,0.6-0.1,1.1l-1.1,0c0,0,0-0.2-0.1-0.9c-0.1-0.8-0.3-1-0.5-0.6
			c-0.4,0.7-1.6,0.4-1.7-0.5c0-0.3,0-0.3-0.2-0.5C57,48.8,57.2,47.9,57.7,47.9L57.7,47.9z M39.9,47.9v0.4h0.8v-0.4H39.9z M57.8,48.4
			c-0.2,0-0.1,0.4,0.3,0.6c0.2,0.1,0.2,0.1,0.2,0.5c0,0.6,0.6,1,0.8,0.4c0-0.1,0.1-0.2,0-0.3c-0.1-0.5,0.9-0.3,1.1,0.1
			c0.1,0.1,0.1,0.4,0.1,0.7c0,0.3,0,0.6,0,0.6h0.3c0,0,0-0.2,0-0.4c0.1-0.8,0.4-1.3,0.9-1.3c0.2,0,0.2,0,0.1,0.3
			c-0.2,0.4,0,0.8,0.5,0.8c0.4,0,0.4,0,0.5,0.3c0.1,0.3,0.3,0.4,0.4,0.3c0.1,0,0.1,0,0-0.9c-0.2-1.4-1-1.8-2.1-1
			c-0.3,0.2-0.4,0.2-0.7-0.1c-0.4-0.4-0.7-0.5-1.5-0.5c-0.4,0-0.8-0.1-0.9-0.1L57.8,48.4L57.8,48.4z M31.1,48.8
			c-0.2,0-0.4,0-0.6,0.1c0.2,1.1,0.3,2.2,0.4,3.3c0.9-0.2,2.2,0,3.8,0.7c1,0.5,2.2,1.3,3.5,2.2c1.4,1,3,1.5,4.4,1.8
			c1.7,0.4,3,0.3,3,0.3c-0.1,0-0.6-2.7-0.5-3.2c-2.3-0.2-4.5-1.1-6.3-2.2C36.5,50.1,33.9,48.8,31.1,48.8z M39.9,48.9v0.5h0.8v-0.5
			H39.9z M14.4,49l-1.2,1.3l1.3,1.3l1.1-1.3L14.4,49z M14.4,49.6l0.7,0.7L14.5,51l-0.8-0.7L14.4,49.6z M31.7,49.7
			c0.2,0,0.3,0.1,0.9,0.4c0.5,0.3,0.8,0.5,0.7,0c0.1-0.1,0.6,0.3,1.2,0.6c0.7,0.6,0.7,0.4,0.8,0.2c0.1-0.2,0.2-0.1,0.8,0.5
			c0.8,0.7,0.7,0.7,0.8,0.5c0.2-0.3,0.2-0.3,0.8,0.4c0.6,0.7,0.8,0.9,0.9,0.6c0.2-0.2,0.3,0,1.2,0.8c0.4,0.4,0.5,0.4,0.6,0.1
			c0.1-0.3,0.1-0.2,0.8,0.3c0.8,0.7,0.9,0.7,0.9,0.5c0.1-0.4,0.3-0.2,1.2,0.4c0.5,0.4,0.7,0.5,0.8,0.4c0.1-0.2-0.3-0.6,0.6-0.2
			l0.2,1.2l-0.3-0.1c-0.2-0.1-0.6-0.2-0.4,0.2c0.1,0.2-0.1,0.2-0.8-0.2c-0.9-0.6-1.1-0.7-1.2-0.6c-0.1,0.4-0.1,0.4-0.7-0.1
			c-0.7-0.6-0.9-0.7-1-0.5c0,0.4-0.2,0.3-0.9-0.3c-0.6-0.5-0.7-0.8-1-0.4c-0.1,0.1-0.1,0.1-0.2,0c-0.3-0.2-1-1-1.2-1.2
			c-0.1-0.2-0.2-0.1-0.4,0c-0.1,0.1-0.1,0.1-0.5-0.3c-0.9-0.8-1.1-1-1.2-0.9c-0.1,0.2,0,0.5-0.7-0.1c-0.9-0.6-1.2-0.9-1.2-0.5
			c-0.1,0.2,0,0.2-0.9-0.3c-0.8-0.5-0.9-0.6-1-0.4c-0.1,0.2-0.4,0.2-0.4,0.1L31,49.8l0.3,0C31.3,49.8,31.6,49.7,31.7,49.7L31.7,49.7
			z M25.2,49.8c-0.1,0.2-0.5,1.3-0.5,4.1c0.1,0.1,1.1-1,1.2-2C25.9,50.9,25.2,49.8,25.2,49.8z M39.9,49.9v0.5h0.8v-0.5H39.9z
			 M25.3,50.3c1,1.6-0.1,3.1-0.4,3.2C24.9,52.3,25.1,51.2,25.3,50.3z M51.2,51.6c-1.6,1-1.4,3.8-0.6,4.5
			C50.7,56.1,51.2,53.1,51.2,51.6z M51,51.9l-0.4,3.6C50,54.9,49.9,53,51,51.9z M61.2,52.6l0.9,1.1l0.8,0.1l0.2,0.8l1.1,0.9L63,56.2
			L62.9,57l-0.8,0.1l-0.8,1.3l-0.8-1.3L59.7,57l0-0.8l-1.2-0.9l1.2-0.7l0-0.9l0.9,0L61.2,52.6z M30.8,52.9c-0.5,2.6-1.8,4.4-3.7,5.6
			l0,0.3L24.1,60c-0.7,3.2-1.9,6.3-4.4,9.2l0.7,1.5l-3.5,1.2l4.9,8.5c0.3,0-2.4,1.3-5.7,1c2.1,5.2,2.5,10.5,1.4,15.2l16.2-0.1
			L21.3,72l-0.2-0.4c-0.2-0.3,6.6,1,5.1,7.3c0,0.1,0,0.2,0.1,0.1c1.3-1.1,10-4.3,17-0.1l2.1-0.9c-1,3.5-2.1,5.9-4,7.9l0.3,4.9
			c3.3-2.8,7-7.8,7.4-14.5c1.5-0.7,2.8-1.6,4.2-2.4l0.2,0.1l0.9-0.5c-2.9-3.2-8.8-6.3-12.6-7.1l0.2,1.1c-2.1-0.6-3.7-0.7-5.3-0.9
			l-0.3-11.5l-2.1-1.3l-0.1,12.7c-1.6,0-5.2,0.6-5.2,0.6l0.2-1.1l-1.7,0.3l0-1.1l1.9-0.5l2.7-11.6L30.8,52.9z M31.1,53.2l0.9,0.2
			l-2.7,11.4c0,0-1.5,0.4-1.6,0.4c-0.1-2.1-0.2-6.5-0.2-6.5C30.1,56.4,30.5,54.8,31.1,53.2L31.1,53.2z M12.5,54
			c0.4,0,0.8,0.3,0.9,0.6c0.1,0.2,0.1,0.2,0.2,0.3c0.7,0.1,0.7,0.3,0.7,0.7c-0.1,0.8,0.4,0.1,0.6-0.6l0-0.7l0.8,0c0,0,0,0.6,0,0.7
			c0.1,0.6,0.3,1.1,0.5,0.7c0.6-1.1,1.9-0.5,1.7,0.5c-0.1,0.2,0,0.3,0.1,0.4c0.3,0.3,0.4,0.6,0.3,0.9c-0.1,0.3-0.3,0.3-0.7,0.1
			c-0.2-0.1-0.4-0.1-1-0.1c-0.9,0-0.9,0-1.3-0.4l-0.2-0.2l-0.4,0.2c-0.6,0.4-1.2,0.4-1.8,0c-0.4-0.2-0.7-0.7-0.7-1.6
			c0-0.4-0.1-0.7-0.4-0.8c-0.1-0.1,0-0.4,0.3-0.7C12.3,54,12.4,54,12.5,54L12.5,54z M61.1,54.1L60,55.6l1.4,1.2l1.3-1.5L61.1,54.1z
			 M34.6,54.3l1.6,0.9l0.2,11.3l-1.8-0.1L34.6,54.3L34.6,54.3z M12.6,54.5c-0.1,0,0,0.2,0,0.5c0.1,0.3,0.1,0.4,0.1,0.6
			c-0.2,1.2,1.2,1.9,2.3,1c0.3-0.3,0.3-0.3,0.5,0c0.3,0.4,0.7,0.5,1.5,0.4c0.4,0,0.6,0.2,0.8,0c0.1-0.1,0-0.3-0.2-0.5
			c-0.1-0.1-0.1-0.1-0.1-0.4c0.1-0.7-0.5-0.9-1-0.3c-0.4,0.5-0.9,0.2-1.1-0.7c-0.1-0.7-0.2-0.6-0.3-0.1c-0.1,0.7-1,1.4-1.3,1.1
			c-0.1-0.1-0.1-0.1,0-0.4c0.1-0.4,0-0.6-0.5-0.7L13.2,55C13,54.6,13,54.5,12.6,54.5L12.6,54.5z M61.2,54.7l0.7,0.6l-0.6,0.8
			l-0.8-0.6L61.2,54.7z M35.1,55.1v0.5v0h0.7v-0.5H35.1z M35.1,56.2v0.5v0h0.7v-0.6L35.1,56.2z M39.2,56.9c0.8,2.8,1.5,5.7,2.3,8.5
			c0.7-0.3,4.9-2.2,6.9-4.5c-0.1,0-1.8-1.7-2.4-2.8C44,58.4,41.7,58,39.2,56.9L39.2,56.9z M35.1,57.2v0.5v0h0.7v-0.5H35.1z
			 M39.6,57.3c1.8,0.5,4.1,1.3,6.2,0.9c0.5,1,1.3,1.8,2.2,2.6c-1.6,1.8-3.9,3.1-6.3,4.1L39.6,57.3z M56.7,57.6c0.1,0,0.2,0,0.3,0.1
			c0.3,0.3,0.5,0.3,1.1,0.4c0.9,0.2,1.6,0.7,1.9,1.5c0.1,0.3,0.1,0.3,0.6,0.2c1.8-0.4,3.1,1,2.7,3c-0.1,0.7-0.2,0.8,0,1
			c0.4,0.5,0.5,0.5,0.1,0.9c-0.4,0.4-1.3,0.2-1.5-0.4c-0.2-0.4-0.2-0.4-0.5-0.4c-1.2-0.2-1.1-1.8,0-2c0.1,0,0.2,0,0.2,0
			c0.3-0.1-0.3-0.9-0.9-0.8c-0.7,0.1-1,0.6-1.2,1.2l-1-0.6c0.3-0.5,0.4-1.2,0.2-1.7c-0.2-0.4-0.4-0.4-0.5,0
			c-0.2,0.8-1.2,1.1-1.8,0.4c-0.4-0.4-0.4-0.8-0.1-1.3c0.2-0.3,0.2-0.4,0.1-0.5C55.9,58.2,56.3,57.6,56.7,57.6L56.7,57.6z
			 M35.1,58.2v0.5l0.7,0v-0.5L35.1,58.2L35.1,58.2z M56.8,58.3c-0.2,0-0.2,0.2,0,0.5c0.2,0.2,0.2,0.3,0,0.4c-0.3,0.3-0.4,0.7-0.2,1
			c0.3,0.5,1,0.2,0.9-0.4c-0.1-0.4,0.3-0.6,0.7-0.4c0.7,0.2,1.1,1,0.8,1.8c-0.1,0.2-0.2,0.5-0.2,0.5l0.2,0.1c0,0,0.2-0.4,0.3-0.5
			c0.8-1,2.7-0.5,2.5,0.8c0,0.4,0,0.4-0.5,0.3c-0.3-0.1-0.6,0.2-0.5,0.5c0,0.3,0.3,0.6,0.7,0.6c0.3-0.1,0.4-0.1,0.4,0.4
			c0,0.3,0.1,0.5,0.3,0.6c0.5,0.2,0.7-0.1,0.3-0.5c-0.2-0.2-0.2-0.6-0.1-1c0.2-0.4,0.1-1.4-0.2-1.9c-0.4-0.8-1.5-1.1-2.4-0.7
			c-0.4,0.2-0.5,0.3-0.5-0.1c-0.2-1-1-1.7-1.9-1.8C57.4,58.5,57,58.3,56.8,58.3L56.8,58.3z M35.1,59.3v0.5h0.7v-0.5H35.1z
			 M35.1,60.2v0.6h0.7v-0.6H35.1z M35.1,61.3v0.6c0,0,0.4,0,0.7,0v-0.6H35.1z M57.3,62.2l0.7,1.1l0.8,0.1l0.1,0.9l1.2,0.8l-1.1,0.7
			l0,0.9l-1,0.1l-0.9,1.2l-0.8-1.1l-0.8,0l-0.2-1L54,65.2l1.4-0.8l0-1l1,0L57.3,62.2L57.3,62.2z M35.1,62.4v0.6h0.7v-0.6H35.1z
			 M35.1,63.4V64h0.7v-0.6H35.1z M56.8,63.8l-1.1,1.4l1.4,1.2l1.1-1.4L56.8,63.8z M35.1,64.4V65h0.7v-0.6H35.1z M56.9,64.5l0.7,0.6
			l-0.5,0.7l-0.7-0.6L56.9,64.5z M35.1,65.5v0.5h0.7v-0.5H35.1z M14.9,65.6c-1.3,0-2.5,2.1-2.8,3.1c-0.4,1.3-0.4,3.6-0.1,3.7
			c1.2-0.8,1.7-2.3,2.6-3.4c0.1,1.2,0.1,3.6,0.1,3.6s-0.5,0.3-0.8,0.7c-0.2,0.4-0.3,0.8-0.1,1.2c-0.7-0.2-1.8,0-1.9,1.2
			c0,1.7,1.9,1.5,1.9,1.4c0,0-0.4,1.8,1.3,2c0.6,0.1,1.6-0.4,1.3-2c1,0.2,1.9-0.4,1.9-1.4c0-0.7-0.5-1.3-1.4-1.3
			c-0.2,0-0.6,0.1-0.6,0.1c0-0.1,0.4-1.2-0.8-1.9l-0.2-4.9c0,0,0.4,0.5,0.6,0.6c0.8,0.7,1.3,1.1,2.2,1.6c0.9,0.5,0.8,0.4,0.6-0.5
			c-0.4-1.4-1.3-2.4-3.2-3.7C15.4,65.7,15.2,65.6,14.9,65.6L14.9,65.6z M15.1,65.7l0.3,7l-0.4,0l-0.3-7L15.1,65.7z M53.5,65.9l0.1,0
			c0.8,0.1,1.1,1,0.7,1.4c-0.2,0.2-0.2,0.2-0.1,0.3c0.4,0.5,0.2,1.2-0.2,1.3c-1.1,0.4-1.3-0.3-1.3-1l-1.8-0.1l0-1l1.9,0
			C52.7,66.5,53,66,53.5,65.9L53.5,65.9z M14.2,66L14.2,66c0.2,0,0,0.5-0.5,1.3c-0.3,0.5-0.8,1.4-1,1.8c-0.3,0.8-0.5,2.2-0.3,1.9
			c0.2-0.6,0.2-0.8,0.4-1.3c0.2-0.6,1.2-2.4,1.4-2.6c0.2-0.2,0.2-0.1,0.2,0.5c0,1.2-0.6,2.4-1.8,3.8c-0.2,0.2-0.5,0.5-0.5,0.5
			C12,71.8,12,71.6,12,71c0-2.2,0.8-4.1,2.1-5C14.1,66,14.2,66,14.2,66L14.2,66z M15.5,66.1c0.6,0.2,1.6,1.1,2,1.6
			c0.5,0.5,1.1,2,1,2.2c0,0.1-0.1,0.1-0.4-0.1c-1.8-1-3.1-2.3-2.8-2.7c0.1-0.1,0.5,0.1,1,0.6c0.4,0.3,0.7,0.6,1,1
			c0.5,0.5,0.6,0.6,0.3,0c-0.3-0.5-1.1-1.3-2-2.1C15.4,66.3,15.3,66.1,15.5,66.1L15.5,66.1z M53.6,66.4L53.6,66.4
			c-0.4,0.2-0.3,0.6-0.3,1l-2-0.1l0,0.3l1.8,0.1c0,0.3-0.1,0.9,0.1,1c0.5,0.2,0.8-0.5,0.4-0.9c-0.2-0.1-0.3-0.2,0.1-0.4
			c0.3-0.2,0.3-0.7,0.1-0.9L53.6,66.4L53.6,66.4z M28.9,66.4l-0.1,0.7l-1.1,0.3l0-0.8L28.9,66.4z M42.3,66.7
			c4.2,1.1,8.8,3.7,11.9,6.6l-0.6,0.4c-3.1-2.9-7.3-5.1-11.1-6.2L42.3,66.7z M35,66.8c6.9,0,13.2,2.7,18.3,7l-0.8,0.5
			c-4.6-3.9-9.8-6.4-16.7-6.7c-4.5-0.2-9.7,1-14.7,3.8l-0.4-0.7C25.6,68,30.5,66.8,35,66.8L35,66.8z M34.5,67.9l2.7,0.1L37,70.5
			l-2.5-0.1L34.5,67.9z M31.6,68l0.4,2.4l-2.4,0.4l-0.7-2.5L31.6,68z M40.2,68.4l2.7,0.7L42,71.6l-2.4-0.7L40.2,68.4z M35.9,68.4
			c-0.4,0-0.8,0.3-0.8,0.8c0,0.4,0.3,0.8,0.8,0.8c0.4,0,0.8-0.3,0.8-0.8C36.6,68.7,36.3,68.4,35.9,68.4z M35.9,68.7
			c0.3,0,0.5,0.2,0.5,0.5c0,0.3-0.2,0.5-0.5,0.5s-0.5-0.2-0.5-0.5C35.3,68.9,35.6,68.7,35.9,68.7z M30.5,68.7
			c-0.4,0-0.8,0.3-0.8,0.8s0.3,0.8,0.8,0.8s0.8-0.3,0.8-0.8S30.9,68.7,30.5,68.7z M30.5,68.9c0.3,0,0.5,0.2,0.5,0.5
			c0,0.3-0.2,0.5-0.5,0.5c-0.3,0-0.5-0.2-0.5-0.5C30,69.2,30.2,68.9,30.5,68.9z M41.2,69.3c-0.4,0-0.8,0.3-0.8,0.8
			c0,0.4,0.3,0.8,0.8,0.8c0.4,0,0.8-0.3,0.8-0.8C42,69.6,41.6,69.3,41.2,69.3z M26.1,69.3l0.8,2.4l-2.3,0.9l-0.9-2.4L26.1,69.3z
			 M41.2,69.5c0.3,0,0.5,0.2,0.5,0.5c0,0.3-0.2,0.5-0.5,0.5c-0.3,0-0.5-0.2-0.5-0.5C40.7,69.7,40.9,69.5,41.2,69.5z M45.7,70.1
			l2.4,1.3l-1.3,2.3l-2.3-1.2L45.7,70.1z M25.3,70.3c-0.4,0-0.8,0.3-0.8,0.8s0.3,0.8,0.8,0.8c0.4,0,0.8-0.3,0.8-0.8
			S25.8,70.3,25.3,70.3z M34.5,70.4l0.1,2.4l-2.1,0.2l-0.4-2.4L34.5,70.4z M37.1,70.5l2.4,0.3L39,73.2l-2.2-0.4L37.1,70.5L37.1,70.5
			z M25.3,70.6c0.3,0,0.5,0.2,0.5,0.5c0,0.3-0.2,0.5-0.5,0.5c-0.3,0-0.5-0.2-0.5-0.5C24.8,70.8,25.1,70.6,25.3,70.6z M33.4,70.9
			c-0.4,0-0.8,0.3-0.8,0.8s0.3,0.8,0.8,0.8c0.4,0,0.8-0.3,0.8-0.8S33.8,70.9,33.4,70.9z M29.4,71l0.6,2.3L27.7,74L27,71.7L29.4,71z
			 M38,71c-0.4,0-0.8,0.3-0.8,0.8c0,0.4,0.3,0.8,0.8,0.8c0.4,0,0.8-0.3,0.8-0.8C38.8,71.4,38.5,71,38,71z M33.4,71.2
			c0.3,0,0.5,0.2,0.5,0.5c0,0.3-0.2,0.5-0.5,0.5c-0.3,0-0.5-0.2-0.5-0.5C32.8,71.4,33.1,71.2,33.4,71.2z M38,71.3
			c0.3,0,0.5,0.2,0.5,0.5c0,0.3-0.2,0.5-0.5,0.5c-0.3,0-0.5-0.2-0.5-0.5C37.5,71.5,37.7,71.3,38,71.3z M46.3,71.3
			c-0.4,0-0.8,0.3-0.8,0.8s0.3,0.8,0.8,0.8s0.8-0.3,0.8-0.8S46.7,71.3,46.3,71.3z M42.1,71.5l2.4,0.8l-0.9,2.2l-2.3-0.9L42.1,71.5z
			 M46.3,71.6c0.3,0,0.5,0.2,0.5,0.5c0,0.3-0.2,0.5-0.5,0.5c-0.3,0-0.5-0.2-0.5-0.5C45.8,71.8,46,71.6,46.3,71.6z M28.5,71.6
			c-0.4,0-0.8,0.3-0.8,0.8c0,0.4,0.3,0.8,0.8,0.8c0.4,0,0.8-0.3,0.8-0.8C29.3,72,28.9,71.6,28.5,71.6z M28.5,71.9
			c0.3,0,0.5,0.2,0.5,0.5c0,0.3-0.2,0.5-0.5,0.5c-0.3,0-0.5-0.2-0.5-0.5C28,72.1,28.2,71.9,28.5,71.9z M42.9,72.4
			c-0.4,0-0.8,0.3-0.8,0.8c0,0.4,0.3,0.8,0.8,0.8c0.4,0,0.8-0.3,0.8-0.8C43.6,72.7,43.3,72.4,42.9,72.4z M42.9,72.6
			c0.3,0,0.5,0.2,0.5,0.5c0,0.3-0.2,0.5-0.5,0.5c-0.3,0-0.5-0.2-0.5-0.5C42.3,72.9,42.6,72.6,42.9,72.6z M15.1,72.9
			c0.6,0,1.1,0.6,1.1,1.2c0,0.4-0.5,1-0.5,1L15,74.5l-0.6,0.6c-0.1,0-0.6-0.8-0.4-1.2C14.2,73.3,14.6,72.9,15.1,72.9L15.1,72.9z
			 M50.3,72.9l1.9,1.5c0,0-0.8,0.5-1,0.6l0-0.2c0-0.4-0.3-0.8-0.8-0.8c-0.4,0-0.8,0.3-0.8,0.8c0,0.4,0.3,0.7,0.6,0.8
			c-0.2,0.1-0.4,0.3-0.4,0.3l-1-0.8L50.3,72.9z M47.3,77l-0.8,0.3c-5.1-3.4-12.1-5.2-20.1-1.8l-0.3-0.7C32.1,72.4,39.6,71.6,47.3,77
			z M46.9,73.7l2,1.2l-1.3,2l-2-1.3L46.9,73.7z M46.3,77.5l-0.8,0.3c-6.2-4-12.9-3.8-18.8-1.4l-0.1-0.6
			C33.5,72.8,40.5,73.8,46.3,77.5L46.3,77.5z M50.5,74.3c0.3,0,0.5,0.2,0.5,0.5c0,0.3-0.2,0.5-0.5,0.5S50,75.1,50,74.8
			C50,74.6,50.2,74.3,50.5,74.3z M14.2,75.3L13.5,76l0.6,0.7c0,0-0.2,0.2-0.3,0.3c-0.8,0.5-1.7-0.3-1.7-1
			C12.2,74.8,13.5,74.2,14.2,75.3L14.2,75.3z M47.2,74.7c-0.4,0-0.8,0.3-0.8,0.8s0.3,0.8,0.8,0.8s0.8-0.3,0.8-0.8
			S47.6,74.7,47.2,74.7z M17,74.7c0.6,0,1.1,0.5,1.2,1c0,0.4-0.2,0.9-0.7,1.2c-0.7,0.4-1.4-0.2-1.4-0.3l0.6-0.6L16,75.4
			C16,75.4,16.4,74.7,17,74.7z M15.1,74.9l1.1,1.1L15,77.2L13.9,76L15.1,74.9z M45.2,77.9l-0.6,0.3l-0.9-0.5l-0.3,0.5l0.5,0.3
			l-0.5,0.2c-5.8-3.3-12.4-2.3-16.8-0.2l0-0.3l0.5-0.2L27,77.4l-0.3,0.1l0-0.7C32.9,73.9,40,74.6,45.2,77.9L45.2,77.9z M47.2,75
			c0.3,0,0.5,0.2,0.5,0.5S47.5,76,47.2,76c-0.3,0-0.5-0.2-0.5-0.5S46.9,75,47.2,75z M15.1,75.4L14.5,76l0.6,0.7l0.6-0.6L15.1,75.4z
			 M34.1,75.5l-0.8,0l0,0.7l0.8,0L34.1,75.5z M34.7,75.5l0,0.7l0.7,0l0-0.6L34.7,75.5L34.7,75.5z M35.9,75.5l0,0.7l0.7,0l0.1-0.6
			L35.9,75.5z M32.8,75.6L32,75.7l0.1,0.7l0.8-0.1L32.8,75.6z M37.3,75.6l-0.1,0.7l0.7,0.1l0.1-0.6L37.3,75.6z M15.1,75.6l0.4,0.4
			l-0.4,0.4L14.7,76L15.1,75.6z M31.5,75.8L30.7,76l0.1,0.7l0.8-0.2L31.5,75.8z M38.6,75.8l-0.1,0.6l0.7,0.2l0.1-0.6L38.6,75.8z
			 M30.2,76.1l-0.7,0.2l0.1,0.7l0.7-0.2L30.2,76.1z M39.9,76.1l-0.1,0.6l0.7,0.2l0.2-0.6L39.9,76.1z M29.1,76.5l-0.7,0.2l0.2,0.6
			l0.7-0.2L29.1,76.5z M41.2,76.5l-0.2,0.6l0.6,0.3l0.3-0.6L41.2,76.5z M27.9,76.9l-0.7,0.3l0.3,0.6l0.6-0.3L27.9,76.9z M14.4,76.9
			l0.7,0.7l0.8-0.7c0.7,0.6,0.7,2.1-0.5,2.3C14.2,79.4,13.3,77.7,14.4,76.9L14.4,76.9z M42.4,77l-0.3,0.6l0.7,0.3l0.2-0.5L42.4,77z
			 M21.9,80.6l9,15.4l-1.4,0l-8.7-14.9L21.9,80.6z M20.5,81.2L21,82c-1-0.8-2.4-0.1-2.4,0.9c0,0.4,0.4,0.7,0.4,0.3
			c0-0.4,0.6-0.8,1-0.8c0.8,0,1.3,1.1,0.8,1.6c-0.4,0.4-0.9,0.3-0.7-0.1c0-0.2,0-0.2-0.1-0.3c-0.2-0.2-0.7,0.1-0.6,0.4
			c0.1,0.2,0.1,0.3-0.2,0.4c-1,0.7-0.3,2,0.9,1.4c0.2-0.1,0.3-0.1,0.4-0.1c0.5,0.2,0.8-0.2,0.4-0.5c-0.3-0.1-0.3-0.3,0-0.5
			c0.5-0.4,1.4,0.2,1.4,0.9c0,0.5-0.7,0.9-1.3,0.8c-0.4-0.1-0.4,0.2-0.1,0.5c0.7,0.5,1.7,0.1,2-0.9c0.1-0.3,0.1-0.4,0.1-0.4l0.9,1.5
			c0,0-0.3-0.1-0.5-0.2c-0.9-0.3-1.8,0.3-1.8,1.1c0,0.4,0.2,0.5,0.3,0.2c0.3-0.7,0.9-0.9,1.5-0.6c0.6,0.3,0.8,0.8,0.6,1.4
			c-0.2,0.5-1,0.7-0.9,0.2c0-0.2-0.1-0.4-0.4-0.4c-0.1,0-0.2,0.3-0.2,0.4c0,0.1,0,0.2-0.3,0.4c-0.8,0.6-0.2,1.7,0.8,1.4
			c0.2-0.1,0.2,0,0.4,0c0.4,0.2,0.7,0.1,0.7-0.2c0-0.2-0.1-0.3-0.3-0.3c-0.3,0-0.3-0.4,0.1-0.6c1-0.5,1.9,0.7,1.3,1.7
			c-0.2,0.4-0.4,0.4-1.3,0.3c-0.1,0-0.2,0.1-0.1,0.2c0.3,0.4,1.1,0.5,1.5,0.3c0.5-0.2,0.8-0.8,0.8-1.4l1,1.8
			c-0.8-0.8-2.1-0.5-2.4,0.7c0,0.3,0.3,0.5,0.4,0.2c0.4-1.1,2-0.7,2,0.4c0,0.2,0,0.3-0.2,0.5c-0.3,0.6-1,0.7-0.9,0.2
			c0.1-0.2-0.1-0.3-0.3-0.4c-0.2,0-0.3,0.1-0.3,0.4c0,0.2,0,0.3,0,0.3c-0.4,0.2-0.6,0.5-0.7,0.9l-7.1,0c0.8-4.9,0.6-9.4-1-13.6
			c-0.1-0.4-0.3-0.9-0.3-0.9l1.2,0c0.3,0.3,1.4,0.2,1.9-0.2L20.5,81.2z M21.7,83.2l0.7,1.3c-0.3-0.2-0.6-0.3-1.1-0.3
			C21.6,83.8,21.6,83.5,21.7,83.2z M19.7,84.6c0.3,0,0.5,0.2,0.5,0.5s-0.2,0.5-0.5,0.5c-0.3,0-0.5-0.2-0.5-0.5S19.5,84.6,19.7,84.6z
			 M24.8,88.5l0.7,1.3c-0.3-0.1-0.6-0.3-1.2-0.3C24.5,89.2,24.7,88.9,24.8,88.5z M22.8,89.9c0.3,0,0.5,0.2,0.5,0.5s-0.2,0.5-0.5,0.5
			s-0.5-0.2-0.5-0.5S22.5,89.9,22.8,89.9z M27.8,93.8l1,1.9c-0.4-0.2-0.8-0.5-1.4-0.5C27.8,94.6,27.9,94.3,27.8,93.8z M26.5,96.1
			l-1.1,0C25.6,95.1,26.5,95.4,26.5,96.1z M27.5,95.6c0.4,0,0.7,0.1,0.9,0.5l-1.4,0C27,96.1,27,95.6,27.5,95.6z"/>
		<path class="st7" d="M20.6,27.5c0,0-1.6-2.6-3.7-5.6c-1.4-2-2.5-4.2-2.6-6.1c-0.1-2.1,1-4.3,3.1-4.4c2.1-0.1,2.9,1.7,3.2,3.1
			c0.3-1.5,1.2-3.2,3.2-3.1c2.1,0.1,3.2,2.3,3.1,4.4c-0.1,1.9-1.2,4.1-2.6,6.1C22.2,24.9,20.6,27.5,20.6,27.5L20.6,27.5z"/>
		<path class="st7" d="M55.3,77.8c0,0-1.6,2.6-3.7,5.6c-1.4,2-2.5,4.2-2.6,6.1c-0.1,2.1,1,4.3,3.1,4.4c2.1,0.1,2.9-1.7,3.2-3.1
			c0.3,1.5,1.2,3.2,3.2,3.1c2.1-0.1,3.2-2.3,3.1-4.4c-0.1-1.9-1.2-4.1-2.6-6.1C56.8,80.4,55.3,77.8,55.3,77.8z"/>
	</g>
</g>
</svg>
