<?xml version="1.0" encoding="utf-8"?>
<!-- Generator: Adobe Illustrator 19.1.0, SVG Export Plug-In . SVG Version: 6.00 Build 0)  -->
<svg version="1.1" xmlns="http://www.w3.org/2000/svg" xmlns:xlink="http://www.w3.org/1999/xlink" x="0px" y="0px"
	 viewBox="0 0 75.3 105.3" style="enable-background:new 0 0 75.3 105.3;" xml:space="preserve">
<style type="text/css">
	.st0{display:none;}
	.st1{fill:#FFFFFF;}
	.st2{fill:none;stroke:#010101;stroke-width:0.9967;}
	.st3{fill:#010101;}
	.st4{fill:none;stroke:#010101;stroke-width:1.0006;}
	.st5{fill:#E1CF20;}
	.st6{fill:#262964;}
	.st7{fill:#D31F26;}
	.st8{fill:#14130F;}
	.st9{fill:none;stroke:#010101;stroke-width:0.9929;}
	.st10{fill:#F6EB16;}
	.st11{fill:none;stroke:#010101;stroke-width:1.83;}
	.st12{clip-path:url(#SVGID_2_);}
	.st13{clip-path:url(#SVGID_4_);}
</style>
<g id="Layer_1" class="st0">
</g>
<g id="Layer_2">
	<g>
		<path class="st1" d="M4.2,0.3h67.5c2,0,3.6,1.6,3.6,3.6v97.3c0,2-1.6,3.6-3.6,3.6H4.2c-2,0-3.6-1.6-3.6-3.6V3.9
			C0.6,1.9,2.2,0.3,4.2,0.3z"/>
		<path class="st2" d="M4.2,0.3h67.5c2,0,3.6,1.6,3.6,3.6v97.3c0,2-1.6,3.6-3.6,3.6H4.2c-2,0-3.6-1.6-3.6-3.6V3.9
			C0.6,1.9,2.2,0.3,4.2,0.3z"/>
		<path class="st3" d="M6.4,17c-1.4,1.8-3,2.9-3,4.3c0,0.5,0.3,1.3,1.2,1.4c0.6,0.1,1.4-0.3,1.4-1.2c0-0.2,0.2-0.2,0.2,0.1
			c0,0.7-0.3,1.4-0.7,2.1c0.6,0,1.3,0,1.9,0c-0.4-0.6-0.6-1.4-0.7-2.1c0-0.2,0.2-0.2,0.2-0.1c0,0.8,0.8,1.3,1.4,1.2
			c0.9-0.2,1.2-0.9,1.2-1.4C9.4,19.9,7.8,18.9,6.4,17z"/>
		<path class="st3" d="M69.5,88c-1.4-1.8-3-2.9-3-4.3c0-0.5,0.3-1.3,1.2-1.4c0.6-0.1,1.4,0.3,1.4,1.2c0,0.2,0.2,0.2,0.2-0.1
			c0-0.7-0.3-1.4-0.7-2.1c0.6,0,1.3,0,1.9,0c-0.4,0.6-0.6,1.4-0.7,2.1c0,0.2,0.2,0.2,0.2,0.1c0-0.8,0.8-1.3,1.4-1.2
			c0.9,0.2,1.2,0.9,1.2,1.4C72.5,85.1,71,86.2,69.5,88L69.5,88z"/>
		<path class="st3" d="M3.9,12.3H3v-1.3h0.9c0,0,0-0.7,0-1.9C4,6.7,4.1,6.3,4.8,5.6c1.5-1.4,3.9-0.3,3.9,1.8c0,2.9,0,5.8-0.1,6.2
			c-0.2,0.7-0.2,0.7-0.1,0.9c0.1,0.3,1.2,0.4,1.2,0.3v1.2c-0.8,0.1-1.2,0-1.9-0.5c-0.4,0.4-1.7,0.8-2.7,0.3
			C4.4,15.4,3.8,14.5,3.9,12.3L3.9,12.3z M7.1,14.5c-0.5-0.7-1.2-1.6-2-1.9c0,0.8,0,1.4,0.3,1.7C5.8,14.9,6.5,15.1,7.1,14.5
			L7.1,14.5z M7.4,7.3C7.1,6.3,6.2,6,5.6,6.6C5.2,6.9,5.1,7.3,5.1,9.5c0,1.3,0,1.9,0,1.9c1.2,0.4,2.4,1.8,2.4,1.8l0-4
			C7.6,8.5,7.5,7.9,7.4,7.3L7.4,7.3z"/>
		<path class="st3" d="M72,92.7h0.9V94H72c0,0,0,0.7,0,1.9c-0.1,2.6-0.1,2.9-0.9,3.6c-1.5,1.4-3.9,0.3-3.9-1.8c0-2.9,0-5.8,0.1-6.2
			c0.2-0.7,0.2-0.7,0.1-0.9c-0.1-0.3-1.2-0.4-1.2-0.3v-1.2c0.8-0.1,1.2,0,1.9,0.5c0.4-0.4,1.7-0.8,2.7-0.3
			C71.5,89.6,72.1,90.6,72,92.7L72,92.7z M68.8,90.5c0.5,0.7,1.2,1.6,2,1.9c0-0.8,0-1.4-0.3-1.7C70.1,90.1,69.4,90,68.8,90.5z
			 M68.5,97.8c0.3,1,1.2,1.3,1.8,0.7c0.4-0.4,0.5-0.8,0.5-2.9c0-1.3,0-1.9,0-1.9c-1.2-0.4-2.4-1.8-2.4-1.8l0,4
			C68.3,96.5,68.4,97.1,68.5,97.8L68.5,97.8z"/>
		<path class="st5" d="M34.8,96.2l7.9-14.3c0,0,1.9,0.7,4.1,1.3c-2.1,5.6,0,12.9,0,12.9L34.8,96.2z M13.2,71.7
			c-0.4-6.1,0.3-11.3,0.5-16.9l-2.6-1.7l6-3.4c0.6,0.3,0.9,0.3,1.1-0.3c-0.6-2.1-0.7-4.1,0.7-5.8c1-1.3,3.4-0.6,4.1-0.6
			c0.5,0,1.8-4.3-0.3-5.5c-0.5-0.3-0.7,2.5-1,3.7c-1.4-0.8-4-1.5-4.3-3c-0.2-0.8,2.4-2.3,1.9-3.2c-0.7-1.3-2.6-3.3-3.4-2.7
			c-0.8,0.7-2.6,2.1-2.6,3.1c0.6,1.7,2,1.8,2.8,3.5c0.2,0.4,1.6,1.8,1.6,1.8c-0.5,0.8,0.3,2.2,0.4,2l-6.6-2.9c0,0,1.5,11.4-0.1,13.1
			c-0.2,0.2,1.4-0.4,1.4-0.3c0.5,0.6,5.8,4,7.3,5.2c2.7-3.8,3.7-5.4,7.2-8.8c0.8-0.6,2.5-1.8,3.4-3.2c0.8-1.1,1.1-2.4,1-3.4
			c-0.2-1.3-0.3-2.1-1.1-3.1c-1.8-2.3-4.7-4.5-4.6-4.6l1-0.8c0,0,3.5,2.9,5,5.1c1,1.4,0.6,3.1,1.4,3.4c0.2,0.1,1.6,0,2.1,0
			c0.1,0,10.4,7.3,8.5,7.7c-2.6,0.6-6.7,0.2-6.7,0.2c-2.9-2.9-4.4-3.8-6.1-2.9c0,0-4.5,3.9-7,7c-1.5,1.7-3.8,5.4-3.8,5.4
			c-0.2-0.1-5.3-4.1-5.1-3.7c0,0,1.2,11.1,0.7,15.1c-0.4,3.4-0.9,7.1-1.1,10.3c0.7-0.2,1.8-0.4,2,0.7c0.2,1.5-1.8,1.2-1.8,1l1.1,2.3
			c0,0-1.7,2.9-1.6,2.8l-1.5-2.6c0,0,1.2-2.1,1.3-2.5c0.1-0.3-1.8,0.8-1.8-0.8c-0.1-1.6,2-1.2,1.9-1C14.2,78,13.6,74.5,13.2,71.7
			L13.2,71.7z M38.5,79.2c0,0-4.5-1.8-8.6-1.6c-1.5-0.6-3.8-1.2-5.4-0.1c-1.8-1.2-3.3-2.5-4.9-3.9c0.4,0,2.3-10.9,3.2-14.3
			c-0.5-4.6,3.9-4.6,4.3-0.9c4.7,4.9,10.5,10,16.5,15C42.6,75.4,39.2,76.9,38.5,79.2L38.5,79.2z M48.9,46.8
			c-5.4-5.5-16.7-15.4-16.7-15.4l5.3-5.2c2.8,0.8,5.6,1.5,8.9,1.6c0,0,3.5,1.6,5.4,0l4.9,3.9c0,0-2,10.7-3.2,14.4
			c0,1.5-0.5,3.3-2,3.5C50.2,49.9,49.2,48.1,48.9,46.8L48.9,46.8z M59.8,34c0.6-3.5,0.7-6,1.1-10.1c-2.4,0.7-2.4-2.6,0-1.7l-1.1-2.5
			l1.6-2.8l1.5,2.6L61.6,22c2.7,0.1,2,2.6-0.3,2c0.4,3.9,1.4,7.8,1.4,11.7c0.8,6.2-1,14.7-0.7,14.9l2.6,1.8l-0.5,13.4L60,64
			l-1.2,0.8c0.4,0.8,0.9,1.5,1.1,2.4c0,0,2.9,2.4,2.5,3.1c0.2,0.1-2,3.1-2.7,3c-1.2-0.1-2.7-1.8-3.1-2.9c-0.4-1.2,2.6-2.3,2.2-3.1
			c-0.4-1-1.6-1.5-2.5-1.8c-1.4-0.4-2-1.5-2-1.5c0,0-0.5,4.3-1,3.9c-2-1.4-0.6-5.7-0.3-5.6c0,0,0.9,0.2,2,0.3
			c3.7,0.4,3.5-4.2,2.8-6.4c-0.3-0.9,0.8-0.6,1.3-0.7c1.8-0.5,4.6-2.4,4.6-2.4c-2.9-1.6-5.5-3.5-7.8-5.2c0,0-2.1,3.7-4.7,6.2
			c-1.8,1.8-2.1,2.5-5.2,4.9c-0.1,0-2.3,2.8-1.3,6c0.9,2.7,5.4,5.7,5.4,5.9L49,71.6c0,0-6.3-4-6.2-8.3c0-0.2-2.9-0.2-2.9-0.2
			l-8.4-7.8l7.1,0l3.6,3l2.3,0.1c0.1,0.1,0.2-0.6,2.2-2.1c3.8-2.9,8.6-10.2,8.6-10.2l5,3.5C60.1,44.3,59.3,38.6,59.8,34L59.8,34z
			 M41.5,8.9c0,0-5.2,9.8-8.1,14.5l-4.1-1.2C31.1,17.7,29.4,9,29,8.8L41.5,8.9z"/>
		<path class="st6" d="M10.5,8.3v88.4h54.9V8.3H10.5z M48.4,72.4C51,70,53.6,68,56,66.6c0.9-0.6,1.2-0.6,1.6-0.3
			c0.6,0.5,1,1,0.8,1.4l-0.2,0.2l-1.4-0.5l0.5,1.6c-1.3,0.5-1.3,1.9,0,2.7l-0.9,2l2-0.9c0.1,0.4,1.5,1.5,2.4,0l1.8,0.9l-0.6-2.2
			c0.6-0.6,0.9-1.5,0-2.3l0.4-1.7l-1.6,0.5c-0.4-0.6-0.6-0.5-0.7-0.7c0-0.2,0-0.7-0.3-1.1c-0.2-0.4-0.5-0.8-0.7-1
			c-0.1-0.2,0-0.2,0.6-0.6c0.3-0.2,0.6-0.3,0.6-0.3s3.2,1.6,4.5,2.2V96H47.2c-2-5.9-0.6-11,0-13.2c-0.9-0.1-5.7-1.6-5.8-2.2
			C43.2,77.7,45.7,74.9,48.4,72.4L48.4,72.4z M14.3,81.1c-2.3-0.7-2.3,2-1.1,2.2c0.3,0.1,0.6,0.1,1.1-0.1c0.1,0-1.4,2.3-1.4,2.3
			s1.2,2.2,1.8,3.1l1.8-3.2l-1.2-2.2c1.8,0.9,2.8-1.9,0.9-2.2c-0.5-0.1-1,0.2-1,0.2l1-9.6c0.8,0.6,2.3,1.7,2.3,1.7
			c0.3,5.3,0.1,9.7,3,17.4l0,5.3H11.3V68l1.9,1.3c0,0.2-0.3,0.1-0.1,2C13.2,73.1,13.7,76.1,14.3,81.1L14.3,81.1z M50.7,9.1
			c0.1,0.1,0.1,0.3,0.1,0.5c0.4,1.4,1.8,3,3,3.4c0.4,0.2,0.6,0.4,0.3,0.6c-0.3,0.3-1.5-0.5-2.4-1.5c-0.8-0.9-1.3-1.7-1.5-2.3
			c-0.1-0.3-0.1-0.6-0.1-0.8C50.4,8.9,50.6,9,50.7,9.1z M52.1,9c0.2,0,0.4,0.2,0.5,0.5c0.3,0.8,0.7,1.4,1.5,1.9
			c0.2,0.1,0.3,0.3,0.2,0.4l-0.1,0.1c-0.6,0.2-2-1.5-2.1-2.6C51.9,9,52,9,52.1,9L52.1,9z M53.9,9c0.3,0,0.4,0.6,0.3,0.9
			c-0.1,0.1-0.4-0.1-0.6-0.5C53.4,9.1,53.5,9,53.9,9z M52.9,9c0.1,0,0.2,0,0.3,0.1c0.1,0.6,0.6,1.1,1,1.5c0.1,0.1,0.1,0.4,0,0.4
			c-0.3,0.1-1.4-1-1.4-1.7C52.8,9.1,52.8,9,52.9,9L52.9,9z M51.6,9.4c0.4,1.2,1.2,2.1,2,2.6c0.6,0.4,0.8,0.6,0.5,0.7L54,12.9
			c-1.3-0.5-2.9-2.4-2.9-3.7C51.3,8.8,51.6,9.2,51.6,9.4z M47.2,14.5c-0.7,0-1.5,0.2-2.2,0.5c-0.9,0.4-1.2,0.7-1,0.8
			c0.1,0.1,0.7-0.2,1-0.2c1.6-0.4,2.8-0.5,3.8,0c0.8,0.4,0.8,0.2,0.3-0.4C48.6,14.7,47.9,14.5,47.2,14.5L47.2,14.5z M52.9,15.4
			c0.5,0,1.1,0.1,1.3,0.4c0.2,0.8-0.3,0.4-0.6,0.3c-0.5-0.2-1-0.4-1.5-0.3c-0.3,0.1-0.3,0-0.2-0.1C52.2,15.5,52.6,15.4,52.9,15.4
			L52.9,15.4z M46.5,15.7c-1.5,0.1-2.1,0.9-3.1,1.7c-0.4,0.3-0.3,0.6,0.2,0.5c0.6-0.1,0.9-0.1,1.7,0.2c0.9,0.3,1.6,0.4,2.1,0.3
			c1-0.4,0.9-0.3-0.5,1c-0.7,0.6-0.4,0.6,0.3,0c0.5-0.4,0.9-0.7,1-1c0.1-0.1,0.1-0.5,0.2-0.5c0.3,0,0.2-0.4-0.1-0.6
			c-0.2-0.1-0.2-0.3,0.1-0.6c0.4-0.4,0.3-0.6-0.2-0.4c-0.1,0-0.1-0.1-0.4-0.3C47.4,15.8,47,15.7,46.5,15.7L46.5,15.7z M47.6,16.3
			c0.4,0.3,0.2,0.4-0.6,0.4c-0.7,0-1.3,0.1-2.1,0.3c-0.9,0.3-1,0.3-0.4-0.1C45.2,16.3,46.8,15.6,47.6,16.3z M52.5,16
			c0.4,0,0.7,0,1,0.2c0.8,0.4,1,0.8,0.1,0.5c-0.5-0.2-1.3-0.2-1.8,0c-0.5,0.1-0.6,0.2-0.5-0.1C51.3,16.3,51.8,16.1,52.5,16z
			 M46.3,17.3c0.2,0.9,0.9,0.6,1,0.1l0.3,0c-0.1,0.7-1.1,1.4-1.5-0.1C46.1,17.3,46.5,17.3,46.3,17.3L46.3,17.3z M51.9,17.3l0.2,0
			c0.1,0.7,0.8,0.9,1.1,0.1l0.2,0C53.3,18.9,51.7,18.1,51.9,17.3L51.9,17.3z M45.8,17.4c0.1,0,0.2,0.4,0.2,0.5c0,0.2-0.7,0-0.8-0.2
			C45.3,17.5,45.6,17.3,45.8,17.4z M54.2,17.6v0.3C54,17.9,53.8,18,53.6,18c0-0.2,0-0.4,0.1-0.6C53.9,17.3,54.1,17.4,54.2,17.6
			L54.2,17.6z M48,17.9C47.9,18,47.7,18,47.7,18c0-0.2-0.1-0.5,0.2-0.5C48.1,17.5,48.1,17.8,48,17.9z M51.6,17.4
			c0.1,0,0.2,0.3,0.3,0.4c0,0.3-0.7,0.2-0.7-0.1C51.1,17.7,51.4,17.4,51.6,17.4L51.6,17.4z M45.7,27.3c-0.5-0.2-4.2-2.5-5.2-6.5
			l-0.2,0.4c0.4,1,1,2.5,1,2.5c0-0.1,0.2,1,0.5,3.1c-0.2,0-0.4-0.1-0.6-0.1c-0.5-1.8-0.6-3.3-1-5.1L40,22c0,0,0.5,3.2,0.9,4.5
			c-0.2,0-0.6-0.1-0.6-0.1c-0.3-1.4-0.5-2.3-0.8-3.6l-0.3,0.3c0.4,1.1,0.5,2.1,0.7,3.2c-0.3,0-0.5-0.1-0.7-0.2l-0.4-2
			c-0.1,0.1-0.2,0.3-0.2,0.3c0,0,0.3,1.1,0.3,1.5c-0.2,0-0.7-0.2-0.9-0.3c-0.2,0.1-0.2,0.3-0.4,0.4c0.1,0.6,8.7,2,8.2,1.5
			c0,0.1,3.8,1.7,5.9,0.3c0,0,3.7,2.7,5.1,3.8c0,0.1,0.5,0.7,1,1.1l1.5,1.1c0.4,0.3,0.6,0.1,0.7-0.5c0.1-0.7,0.6-5.3,0.7-6.3
			c0.4-3.3,0.4-3.3-0.1-3.2c-0.8,0.2-1.5-0.1-1.5-0.9c0-0.5,0.2-0.9,0.7-1.1c0.1-0.1,0.3-0.1,0.6-0.1c0.1,0,0.3,0,0.3,0
			c0.2,0-1-2.2-1-2.2s1.1-2,1.7-2.8l1.5,2.7L61.7,22c2.4-0.2,2.1,2.8-0.2,1.8l0,0.8c0-0.3,0-0.5,0.1-0.5c2.2,0.9,2.7-2.4,0.3-2.3
			c0.4-0.7,0.8-1.4,1.3-2.2l-1.7-3.2l-2,3.3l1,2.1c-0.2-0.1-0.4,0-0.6,0c-1.5,0.3-1.1,2.7,0.5,2.3c0.2,0,0.5-0.2,0.5-0.2l-1.1,9.7
			c0,0-0.1,0.1-0.5-0.2c-0.5-0.4-1.5-1.1-1.6-1.2c0.4-6.2-1.2-12.7-2.9-16.7c-0.1-0.3,0-6.4,0-6.4h10.1v28.5
			c-0.5-0.3-1.1-0.8-1.7-1.1c-0.2-0.1-0.3-0.3-0.2-0.5c-0.2,0.4-0.1,0.5-0.1,0.5l2.2,1.8l-0.1,28c0,0-3.6-1.8-5.7-2.7
			c-1-0.4-1-0.3-1-0.3c0,0,0.7,1.6,0.5,1.9c0.5,0.5,1.3,1.4,1.3,2.3c0.4,0.4,0.5,0.4,0.9,0.9l1.3-0.5l-0.3,1.4
			c1.4,1,0.1,2.3-0.2,2.2c0,0,0.6,1.3,0.8,1.9c-0.2,0-1.3-0.6-1.6-0.8c-0.8,1.6-2.2,0.3-2.2,0l-1.5,0.7l0.5-1.7
			c-1-0.6-1.6-1.5-0.1-2.5L57,67.7l1.3,0.5c0,0,0.2-0.4,0.4-0.7c-0.5-2.1-3.7-1.7-4.7-3.6c0,0-0.3,2.4-0.5,3.2
			c-0.1,2.3-1.7,0-1.7-2.4c0-0.5,0.7-2.4,0.9-2.5c0.2,0,2.5,1.1,4,0c0.7-0.7,1.9-2.8,0.7-5.9c-0.4-0.7,0.7-0.8,1.1-0.6
			c0,0,3.3-1.7,4.8-2.6c-2.5-1.4-7.7-5.1-7.7-5.2c-0.7,1.1-1.5,2-2.6,3.6c-1.8,2.1-3.2,4.2-5.5,5.9c-3.2,2.4-4,4.8-3.1,7.6
			c0.4,1.2,1.1,2.4,2.3,2.9c0.6,0.6,3.1,3,3.1,3c-4.1,3.8-6.9,6.9-8.9,10.3c1.7,0.9,5.7,2.2,5.7,2.2c-1.5,5-0.8,9,0.2,13
			c0,0-11.7,0-17.8-0.2l-0.7,0c0-0.4,1.1-1.7,1.4-1.5c0.2-0.2,0.5-0.3,0.5-0.5c-0.8-0.1-2.1,1.4-2.2,2h-0.5
			c-0.1-0.1,0.9-2.5,2.9-2.6c0,0.1,0.3-0.2,0.1-0.3c-2.4,0.3-3.5,2.9-3.4,2.9h-0.4c0.8-2.6,2.9-3.4,4.1-3.5c0,0,0.4-0.1,0.3-0.4
			c-2.7,0.5-4,1.6-4.6,3.9H26c0.3-2.3,2.7-4.3,5.3-4.2c0.1-0.1,0.2-0.1,0.1-0.4c-2.9,0.3-4.4,1.3-5.6,3.8c-1.1-2.8-4.1-4.1-4.1-4.2
			c0,0-0.1-0.8,0.1-0.8c2.6,0.9,3.5-1.3,3.4-2.6c-0.1-0.7,0-1.1-0.3-2.2c-0.2-0.9-0.4-1.5-0.4-2c0-0.4,0.1-0.5,0.4-0.6
			c0.5-0.2,0.9-1.2,0.8-1.3c-0.3,0.7-1,0.8-1.4,1.2c-0.3,0.4-0.2,0.9,0.3,3c0.3,1.2-0.1,0.7-0.7,0.3l-0.5-0.3c0.3,0.3,0.6,0.6,1,0.9
			c0.3,0.3,0.1,0.4-0.3,0.3c-0.6-0.3-1.7-0.2-2.1,0.2c-0.2,0.1-0.2,0.1-0.3,0c-0.2-3.1,0.1-5,1.2-7.4c0.7-1.6,1.7-2.8,3-2.9
			c1.3-0.1,3.2,0.4,5,1.5c2,1.4,4,3.5,4.2,6.1c0,0,0.2-0.2,0.2-0.4c0.1-0.3-0.2-1.2-0.8-2.3c-0.1-0.8-0.4-2.2-0.6-3.2
			c0.2-0.1,0.5,0,0.6,0.1c0.4,1.6,0.6,2.8,1,4.9c0,0.2,0.3-0.3,0.3-0.4c0-0.3-0.9-4.5-0.9-4.4c0-0.1,0.8,0,0.7,0.2
			c0,0,0.6,3.5,0.7,3.4l0.2-0.3c0,0-0.6-2.5-0.5-3c0.1-0.1,0.5,0.1,0.7,0.2c0.2,0.3,0.3,1.2,0.4,1.8c0.2,0.2,0.3-0.3,0.2-0.4
			c-0.2-0.2-0.3-1.2-0.2-1.2c0.1,0,0.6,0.2,0.7,0.3c0.1,0.1,0.6-0.5,0.5-0.7c-2.5-1-5.7-1.5-8.1-1.6c-0.6,0-0.8-0.1-1.6-0.4
			c-2.2-0.8-4,0-4.2,0.2c-2.7-1.9-5.6-4.4-8-6.1c-0.1-0.1-0.4-0.1-0.4-0.1c-0.4,2.9-0.6,6.2-1,8.9c-0.1,1.1-0.1,1.1-0.1,1.2l0.2,0
			c0.8-0.3,1.5-0.1,1.9,0.6c0.2,1-0.7,1.7-1.6,1.2c-0.3-0.2-0.4-0.1-0.2,0.2c0.3,0.6,1.1,2.2,1.1,2.2c0,0-1.1,2.2-1.6,2.8
			c-0.5-0.8-1.2-1.7-1.5-2.6c0.4-0.8,1.2-1.8,1.4-2.6c0,0-0.2,0-0.4,0.1c-1.4,0.6-1.6-0.6-1.6-1c0-0.9,0.8-1.1,1.9-0.7
			c-1.2-8-1.5-12.6-1.2-12.1c0,0-1.5-1-2.2-1.8L11.3,9h17.3c1.8,4.8,1.3,10.5,0.2,13.5c1.9,0.3,3.8,0.8,5.9,2
			c-3.6,5.3-9.3,11.1-15.5,14.8c-0.4,0.2-1.5-0.6-1.6-1.3c0-0.2,0.1-0.5,0.2-0.5c0.5,0.1,0.9,0.4,1.3,0.5c0,0-0.6-1.6-0.3-1.8
			c0.2-0.1,0.4-0.2,0.5-0.4c0.4-0.6,0.4-1.2-0.1-1.7c-0.2-0.2-0.4-0.3-0.5-0.4c0,0,0.4-1.2,0.7-1.8l-1.7,0.6
			c-0.6-0.8-1.6-1.4-2.3-0.2c-0.1,0.3-0.1,0.3-1.2-0.2c-0.6-0.3-1-0.4-1-0.4c0.2,0.7,0.5,1.3,0.8,2.1c-1.2,0.8-0.9,2,0.1,2.4
			l-0.5,1.7c0,0,1.1-0.4,1.7-0.6c0,0,0.5,0.5,0.7,1c0.3,0.9,0.9,1.5,1.3,1.9c-0.6,0.5-1,0.6-1.7,1l2.5,1c-0.2-0.5-0.5-0.9-0.5-1.6
			c0-0.6-0.1-0.6-0.4-1c-0.7-0.6-0.8-1.3-1-1.8c-0.3-0.2-0.5-0.5-0.7-0.8c-0.2-0.3-1.2,0.5-1.4,0.3c-0.2-0.2,0.3-1.3,0.3-1.4
			c-0.4,0-1.7-1-0.2-2.1l-0.5-1.7c0,0,1.1,0.5,1.7,0.8c0.4-1.7,2.1-0.9,2.3-0.2c0,0,1.3-0.4,1.3-0.1c0,0.3-0.3,1.1-0.3,1.1
			c1.2,1.1,1,1.6,0,2.3c0,0.6,0.2,1.5,0.2,1.5s-0.7-0.3-1.1-0.4c-0.2,0.2-0.4,0.5-0.4,0.7c0.3,1.4,2,1.7,4.5,3.1
			c0.1-0.9,0.7-2.1,0.8-3.1c0-0.8,0.1-0.8,0.6-0.5c1.4,1,1,3.9,0.5,5c-0.3,0.7-0.4,0.6-1,0.4c-0.8-0.3-2.3-0.2-3.1,0.1
			c-1.1,0.5-1.6,2.9-1.6,3.7c0,0.7,0,1.4,0.4,2.3c0.2,0.6-0.1,1-0.6,0.9c-0.1,0-0.4-0.1-0.4-0.1l-4.8,2.5l0.9,0.5
			c0,0-0.7-0.4-0.3-0.6l4.1-2.1c0.8,0.3,0.7,0.4,1.2-0.2c0.3-0.3,0.4-0.3,0.8-0.3c2.4,0.2,3.5-0.1,3.9-1.1c0.1-0.2,0-0.1,0.3-0.3
			c0.5-0.2,0.7-0.5,0.7-0.9c0-0.3,0.1-0.3,0.3-0.5c0.4-0.3,0.5-0.8,0.2-1.2c-0.1-0.2-0.2-0.3-0.2-0.5c0.1-0.4-0.1-0.7-0.4-1.1
			c-0.4-0.5-0.4-0.4,0.4-1.1c1.5-1.4,2.8-2.5,4.3-3.8c1-0.9,0.9-0.8,1.3-0.4c1.4,1.5,2,3.8,1.3,5.8c0,0.1,0,0.1,0,0
			c0.4-0.5,0.4-2.8,0.1-3.8c-0.4-1.3-0.8-1.9-2.2-3.1c-0.9-0.8-3.2-3-3.2-3c3.4-3,7.1-6.7,9.2-10.1c-1.1-1.1-6-2.2-6-2.2
			c0.6-1.3,1.8-7-0.3-13.3c6.1,0.3,12.2-0.2,18.3,0.2l0.1,0c0.2,0,0.3,0.1,0.2,0.3c-0.1,0.5-0.8,1.6-1.3,1.5
			c-0.2-0.1-0.2,0.3-0.3,0.5c0.8-0.1,1.7-1.1,1.9-2.1C48.1,9,48.2,9,48.3,9c0.1,0,0.1,0.2,0,0.7c-0.5,1.2-1.5,2.3-2.7,2.2l-0.2,0.4
			c1.6,0,2.8-1.5,3.1-2.6C48.9,9.1,48.9,9,49.1,9c0.2,0.2,0.1,0.5,0,0.7c-0.8,2.5-3,3.2-4,3.1c-0.1,0-0.2,0.1-0.1,0.3
			c2.3,0.2,4.2-1.8,4.4-3.6c0.1-0.5,0.3-0.6,0.5-0.4c0.1,0.2,0,0.4,0,0.6c-0.6,2.7-3.5,4.3-5.3,3.8c-0.1-0.1-0.2,0.3,0,0.4
			c3.6-0.1,4.7-2,5.5-3.6c1,1.5,1.8,3,4.1,3.9c0,0,0.2,0.5,0,0.6c-0.1,0.1-0.2,0-0.5,0C50.9,14.4,50,17,51.2,21
			c0.3,1.1,0.2,0.9-0.5,1.6c-0.3,0.3-0.5,0.9-0.4,0.9c0.1-0.1,0.2-0.3,0.5-0.5c0.1-0.1,0.4-0.2,0.6-0.3c0.5-0.3,0.5-0.5,0.3-1.2
			c-0.1-0.5-0.5-2.2-0.5-2.3c0-0.3,0.1-0.3,0.5,0c0.5,0.4,0.8,0.4,0.2-0.1c-0.3-0.2-0.4-0.4-0.5-0.5c-0.1-0.2,0-0.3,0.2-0.2
			c1,0.3,1.8,0.3,2.8-0.3c0.1,2.6-0.3,6.6-2.4,9.4C50.1,29.3,46.9,27.9,45.7,27.3L45.7,27.3z M48.3,21.3c-0.1,0-0.3,0.1-0.4,0.1
			c-0.6,0.4-0.5,1.7,0.2,1.9c0.3,0.1,0.5,0.1,1-0.1c0.3-0.1,0.7-0.2,0.8-0.2c0.2,0.1,0.3-0.1,0.4-0.3c0.1-0.5-0.7-0.5-1.4,0
			c-0.9,0.7-1.5-0.3-0.7-1.1C48.4,21.4,48.3,21.3,48.3,21.3L48.3,21.3z M41.6,24.1l0.7,0.8l0.5,2c-0.3,0-0.6-0.1-0.6-0.1
			C42,25.9,41.8,25,41.6,24.1z M51.4,24.6L51.4,24.6c-0.1,0-0.2,0.1-0.4,0.1c-0.1,0-0.3-0.1-0.4-0.1c-0.3,0-0.6,0.1-0.7,0.1
			c-0.1,0-0.2,0.1-0.3,0c-0.2-0.1-0.9-0.1-1.1,0c-0.2,0.1-0.5,0.1-0.7,0l-0.2-0.1c0,0-0.2,0.6-0.2,0.8l0,0.2c0,0,0.2-0.1,0.3-0.2
			c0.3-0.2,0.7-0.2,1.3,0c0.8,0.2,1.1,0.1,1.6-0.1c0.4-0.2,0.6-0.2,0.8-0.2l0.2,0.1c0,0-0.1-0.3-0.2-0.5
			C51.5,24.6,51.5,24.6,51.4,24.6L51.4,24.6z M42.9,25.5c0.7,0.7,0.6,0.6,1.1,0.9l0,0.6c0,0-0.5,0-0.8-0.1
			C43.1,26.7,42.7,25.5,42.9,25.5L42.9,25.5z M48.6,25.9c0,0,0.1,0.1,0.2,0.1c1.1,0.4-0.1,0.3-0.2,0.7l0.1,0
			c0.4-0.1,1.3-0.2,1.7-0.2c0.5,0.2,0.6,0.1,0.1-0.2c-0.4-0.2,0.1-0.3,0.2-0.4c0.3-0.2,0.1-0.3-0.3-0.1c-0.4,0.2-1.2,0.2-1.5,0
			c-0.1-0.1-0.3-0.1-0.4-0.2C48.5,25.7,48.5,25.9,48.6,25.9z M44.3,26.6l0.6,0.5l-0.7-0.1L44.3,26.6z M29.6,39.4
			c-0.1,0-0.2,0.1-0.2,0.2c0,0.1,0.1,0.2,0.2,0.2c0.1,0,0.2-0.1,0.2-0.2C29.9,39.5,29.7,39.4,29.6,39.4z M30.5,39.6l-3,1.4l0.8,0.3
			l0,0.8l0.7-0.2l0.3,0.8L30.5,39.6z M30.6,40.3c-0.1,0-0.2,0.1-0.2,0.2s0.1,0.2,0.2,0.2s0.2-0.1,0.2-0.2
			C30.8,40.4,30.7,40.3,30.6,40.3z M26.9,41.7c-0.1,0-0.2,0.1-0.2,0.2c0,0.1,0.1,0.2,0.2,0.2s0.2-0.1,0.2-0.2
			C27.1,41.8,27,41.7,26.9,41.7z M27.8,42.1l-3.3,1.5l1,0.3l-0.3,1l0.8-0.3l0.4,0.7L27.8,42.1z M27.9,42.9c-0.1,0-0.2,0.1-0.2,0.2
			c0,0.1,0.1,0.2,0.2,0.2c0.1,0,0.2-0.1,0.2-0.2C28.1,43,28,42.9,27.9,42.9z M21.3,43c1.3,0,2.7,0.5,3.1,1.6
			c0.1,0.5-0.4,0.9-1.5,0.5c-1.9-0.5-2.2-0.6-1.9-0.3c0,0,0.1,0.1,0.4,0.2c0.7,0.2,2.1,0.5,2.4,0.5c0.5-0.1,0.8,0.2,0.7,0.6
			c-0.1,0.5-0.8,0.7-1.8,0.5c-1-0.1-1.6-0.3-1.9-0.4c-0.4-0.1-0.4-0.1-0.2,0.2c0.1,0.2,0.1,0.3,0.3,0.3c0.7,0,1.4,0.1,2,0.1
			c1.1,0.1,1.3,0.4,0.5,0.9c-0.4,0.2-1.5,0.2-2.2-0.1c-0.5-0.2-1.5-0.4-1.1-0.1c0.1,0.1,0.1,0.3,0.2,0.3c0.6,0.1,2.2,0.2,2.4,0.4
			c0.2,0.1-0.2,0.5-0.9,0.7c-1.1,0.2-2.8,0.1-3.2-0.2c-0.8-1.7-0.4-4.4,0.9-5.5C19.8,43.2,20.5,43,21.3,43L21.3,43z M28.6,43.9
			c-0.1,0-0.2,0.1-0.2,0.2c0,0.1,0.1,0.2,0.2,0.2s0.2-0.1,0.2-0.2C28.8,44,28.7,43.9,28.6,43.9z M29.6,44.2l-3.4,1.7l0.9,0.3l-0.2,1
			l0.8-0.3l0.5,0.7L29.6,44.2z M29.6,45c-0.1,0-0.2,0.1-0.2,0.2c0,0.1,0.1,0.2,0.2,0.2c0.1,0,0.2-0.1,0.2-0.2
			C29.8,45.1,29.7,45,29.6,45z M31.6,47c-1.5,1.5-3.2,2.7-4.8,4.1l0.3,0l0.9-0.8l24.1-0.1l-0.6,0.8l0.2,0.1l0.7-1.1
			c-5.3,0-9.4,0-15.2,0c-1.1-1.1-2.2-2-3.3-3L31.6,47z M24.3,48c-0.1,0-0.2,0.1-0.2,0.2c0,0.1,0.1,0.2,0.2,0.2s0.2-0.1,0.2-0.2
			C24.5,48.1,24.4,48,24.3,48z M55.7,48.2c2.1,1.5,4.5,3.4,6.6,4.6c0.8,0.4,0.7,0.5-0.1,0.9c-0.8,0.5-2.2,1.2-3.3,1.7
			c-0.5,0.2-0.7-0.1-1.1,0c-0.3,0.1-0.3,0.1-0.5,0.3c-0.2,0.3-0.2,0.3-1.5,0.3c-1.3-0.1-1.9,0-2.2,0.1c-0.3,0.1-0.7,0.6-0.7,0.8
			c0,0.2-0.1,0.4-0.4,0.5c-0.3,0.1-0.7,0.3-0.7,0.7c-0.1,0.3-0.3,0.4-0.4,0.6c-0.4,0.4-0.3,0.7-0.2,1c0.1,0.2,0.1,0.1,0.1,0.6
			c-0.1,1.1-0.2,1,1,1.8l-5.9,5.1c-0.1,0.1-0.2,0.1-0.3,0c-0.7-0.5-1.2-1.4-1.5-2.3c-1-2.7,0.2-5,1.8-6.4c0.6-0.5,1.3-1,1.5-1.2
			C51,54.8,53.6,51.1,55.7,48.2z M25.2,48.4l-3.4,1.6l1.1,0.2l-0.2,0.9l0.8-0.3l0.4,0.8L25.2,48.4z M25.4,49.1
			c-0.1,0-0.2,0.1-0.2,0.2c0,0.1,0.1,0.2,0.2,0.2s0.2-0.1,0.2-0.2C25.6,49.2,25.5,49.1,25.4,49.1z M56.2,50.1l-0.4-0.9
			c0,0-1.1,2.6-1.3,3.5c0.9-0.5,3.5-1.8,3.5-1.8l-1.1-0.2l0.1-1L56.2,50.1z M17.8,50.3c-0.1,0-0.2,0.1-0.2,0.2s0.1,0.2,0.2,0.2
			s0.2-0.1,0.2-0.2C18,50.4,17.9,50.3,17.8,50.3z M18.8,50.5c0,0-2.5,1.2-3.6,1.7l1.1,0.2l-0.2,1l1-0.4l0.4,1L18.8,50.5z M18.9,51.3
			c-0.1,0-0.2,0.1-0.2,0.2c0,0.1,0.1,0.2,0.2,0.2c0.1,0,0.2-0.1,0.2-0.2C19.2,51.4,19.1,51.3,18.9,51.3z M54.3,51.5
			c-0.1,0-0.2,0.1-0.2,0.2c0,0.1,0.1,0.2,0.2,0.2s0.2-0.1,0.2-0.2C54.6,51.6,54.5,51.5,54.3,51.5z M58.4,51.7L57.2,55l3.2-1.6
			l-0.9-0.2l0-0.8l-0.7,0.2L58.4,51.7z M20.4,52.5c-0.1,0-0.2,0.1-0.2,0.2c0,0.1,0.1,0.2,0.2,0.2c0.1,0,0.2-0.1,0.2-0.2
			C20.6,52.6,20.5,52.5,20.4,52.5z M55.6,52.5c-0.1,0-0.2,0.1-0.2,0.2c0,0.1,0.1,0.2,0.2,0.2c0.1,0,0.2-0.1,0.2-0.2
			C55.8,52.6,55.7,52.5,55.6,52.5z M21.4,52.8L18,54.4l1.1,0.2l-0.1,1.1l0.9-0.5l0.5,1L21.4,52.8z M21.6,53.5
			c-0.1,0-0.2,0.1-0.2,0.2s0.1,0.2,0.2,0.2c0.1,0,0.2-0.1,0.2-0.2S21.7,53.5,21.6,53.5z M57,53.7c-0.1,0-0.2,0.1-0.2,0.2
			c0,0.1,0.1,0.2,0.2,0.2c0.1,0,0.2-0.1,0.2-0.2C57.3,53.8,57.2,53.7,57,53.7z M52.3,54.8L52,53.9l-1.3,3.3l3.4-1.6l-1.1-0.3l0-0.9
			L52.3,54.8z M48.9,54.1L48.9,54.1L48,55l-10,0.1l0.8,0.2c1.3,1.1,3.4,2.9,3.4,2.9l2.5-0.1c1.4-1.4,3.4-2.4,4.4-4.1L48.9,54.1
			L48.9,54.1z M58.3,54.8c-0.1,0-0.2,0.1-0.2,0.2s0.1,0.2,0.2,0.2s0.2-0.1,0.2-0.2S58.4,54.8,58.3,54.8z M50.5,55.9
			c-0.1,0-0.2,0.1-0.2,0.2c0,0.1,0.1,0.2,0.2,0.2s0.2-0.1,0.2-0.2C50.8,56,50.7,55.9,50.5,55.9z M55.6,56.2c0.7,0,1.4,0,1.6,0.2
			c1.1,0.9,0.6,5.3-0.8,5.9c-1.5,0.3-2.6,0.4-3.9-0.5c-0.4-0.2-1.1-0.7-1-1.2c0.2-0.6,0.7-0.5,2.3,0c0.6,0.2,0.9,0.1,1,0
			c0.1-0.1,0-0.2-0.3-0.2c-0.1,0-0.6-0.1-1.1-0.3c-0.6-0.2-0.8-0.2-1.2-0.3c-0.7,0-0.8-0.1-0.8-0.5c0-0.7,1-0.8,2.9-0.4
			c0.2,0.1,0.6,0.1,0.7,0.1c0.1,0-0.1-0.2-0.2-0.4c-0.1-0.1-0.2-0.1-0.5-0.1c-1.2-0.1-2.2-0.2-2.3-0.4c-0.1-0.8,1.5-1,3.1-0.4
			c0.4,0.2,0.4,0.1,0.4,0c0-0.2-0.7-0.6-1.8-0.6c-1,0-0.9-0.5,0-0.9C54.2,56.2,54.9,56.2,55.6,56.2L55.6,56.2z M51.7,57.1
			c-0.1,0-0.2,0.1-0.2,0.2c0,0.1,0.1,0.2,0.2,0.2c0.1,0,0.2-0.1,0.2-0.2C52,57.2,51.8,57.1,51.7,57.1z M48.1,58.7l-0.2-0.9l-1.4,3.4
			l3.5-1.8l-1.1-0.2l0.1-0.7L48.1,58.7z M46.3,60.1c-0.1,0-0.2,0.1-0.2,0.2c0,0.1,0.1,0.2,0.2,0.2s0.2-0.1,0.2-0.2
			C46.5,60.2,46.4,60.1,46.3,60.1z M49.8,61.1l-0.3-0.8l-1.2,3l3-1.3l-0.9-0.2l0.1-0.9L49.8,61.1z M47.4,61.1
			c-0.1,0-0.2,0.1-0.2,0.2c0,0.1,0.1,0.2,0.2,0.2s0.2-0.1,0.2-0.2C47.6,61.2,47.5,61.1,47.4,61.1z M48.2,62.2
			c-0.1,0-0.2,0.1-0.2,0.2c0,0.1,0.1,0.2,0.2,0.2c0.1,0,0.2-0.1,0.2-0.2C48.4,62.3,48.3,62.2,48.2,62.2z M46.7,62.9l-1,2.8l2.8-1.4
			l-0.8-0.3l0-0.6L47,63.7L46.7,62.9z M49.2,63.3c-0.1,0-0.2,0.1-0.2,0.2s0.1,0.2,0.2,0.2c0.1,0,0.2-0.1,0.2-0.2
			S49.3,63.3,49.2,63.3z M45.5,64.6c-0.1,0-0.2,0.1-0.2,0.2c0,0.1,0.1,0.2,0.2,0.2c0.1,0,0.2-0.1,0.2-0.2
			C45.7,64.8,45.6,64.6,45.5,64.6z M46.5,65.7c-0.1,0-0.2,0.1-0.2,0.2c0,0.1,0.1,0.2,0.2,0.2s0.2-0.1,0.2-0.2
			C46.8,65.8,46.6,65.7,46.5,65.7z M31.8,78.8c-0.1,0-0.5-0.3-0.5-0.4c0.2,0,0.4,0,0.5,0.1C31.9,78.5,31.9,78.8,31.8,78.8z
			 M32.8,78.6c0,0.3,0.2,1,0.1,1.1c-0.1,0.1-0.7-0.5-0.8-0.7c0-0.2,0-0.4,0-0.6C32.3,78.4,32.7,78.5,32.8,78.6L32.8,78.6z
			 M33.8,78.8c0.1,0.8,0.5,2,0.4,2.4c0,0-0.5-0.5-0.8-0.9c-0.1-0.3-0.3-1.2-0.3-1.7C33.4,78.6,33.7,78.6,33.8,78.8z M27.1,78.7
			c-0.3,0.2-0.7,0.3-1.2,0.3c-0.4,0-1.1-0.2-1-0.2c0.2,0.3,0.6,0.2,0.7,0.4c-0.1,0.2-0.4,0.2-0.6,0.4c0,0.1,0,0.1,0.3,0.1
			c0.7-0.3,1.5-0.3,2.3,0c0.2,0,0.1-0.1,0-0.2c-0.1-0.1-0.3-0.2-0.4-0.2c-0.7-0.1-0.4-0.2,0.1-0.4C27.6,78.8,27.6,78.5,27.1,78.7
			L27.1,78.7z M28.6,79.7c-0.1,0-0.3,0.1-0.6,0.2c-0.4,0.2-0.8,0.1-1.4,0c-0.5-0.1-0.7-0.1-1.2,0.1c-0.3,0.2-0.7,0.3-0.9,0.1
			c-0.3-0.2-0.3-0.1-0.2,0.3c0,0.1,0,0.5,0.1,0.6c0.1,0.1,0.2-0.1,0.3-0.2c0.1,0,0.6,0.2,0.9-0.1c0.5-0.2,0.7,0.1,1.1,0.1
			c0.6-0.2,1-0.4,1.5,0C28.3,80.7,28.5,79.9,28.6,79.7L28.6,79.7L28.6,79.7z M27.5,82.1c-0.4,0-0.7,0.3-1.2,0.2
			c-0.4,0-0.6,0.4-0.4,0.7c0.1,0.2,0.3,0.2,0.9,0c0.3-0.1,0.6-0.4,0.8-0.3c0.6,0.1,0.7,0.6,0.2,1.1c-0.2,0.1-0.2,0.3-0.2,0.3
			c0.2,0,0.6-0.2,0.7-0.5C28.6,82.8,28.2,82.1,27.5,82.1L27.5,82.1z M29.5,85.6c-0.6,0.1-1.4,0.8-1.7,1.2c-0.3,0.4-0.5,0.9-0.3,1.1
			c0.1,0.2,0.4,0.4,0.4,0.5c0,0.1-0.1,0.2-0.2,0.3c-0.5,0.6-0.4,0.6,0.3,0.2c0.4-0.2,0.5-0.3,0.7-0.2c0.7,0.2,1.5,0.1,2.1-0.2
			c0.3-0.1,0.5-0.2,0.5-0.2c-1,1.1-2.3,0.9-2.8,0.8l-0.1,0c0,0.1,0.1,0.2,0.4,0.3c0.5,0.2,1.6,0,2.3-0.5c1.4-0.9,2.2-1.8,1.1-1.4
			c-0.5,0.2-0.7,0.1-1.3-0.1c-0.9-0.4-1.6-0.5-2.4-0.3c-1,0.3-0.2-0.5,0.9-1.2C29.6,85.8,29.6,85.6,29.5,85.6L29.5,85.6z M24.2,88
			l-0.3,0c-0.2-0.8-0.8-0.8-1,0l-0.3,0C22.8,87,23.8,86.8,24.2,88L24.2,88z M30,88.1l-0.2,0c-0.1-0.5-0.7-0.9-1-0.1l-0.2,0
			C28.8,86.7,30,87.4,30,88.1L30,88.1z M28.4,87.4c0.2,0,0.2,0.2,0,0.5c-0.1,0.2-0.3,0.2-0.4,0c-0.1-0.1-0.1-0.2,0-0.3
			C28.1,87.4,28.3,87.4,28.4,87.4z M30.2,87.4c0.1,0,0.2,0.1,0.3,0.1c0.4,0.1,0.5,0.2,0.3,0.4C30.7,88,30.4,88,30.2,88
			c0-0.2-0.2-0.3-0.2-0.5L30.2,87.4z M24.3,87.4c0.3,0,0.6,0.1,0.6,0.3c0,0.2-0.3,0.3-0.5,0.3c-0.1,0-0.1,0-0.2-0.1l-0.1-0.3
			C24.1,87.3,24.2,87.4,24.3,87.4L24.3,87.4z M22.6,87.4c0,0-0.1,0.4-0.2,0.6c-0.5,0-0.5-0.3-0.2-0.4C22.3,87.5,22.4,87.4,22.6,87.4
			z M22.1,88.4c0.1,0,0.2,0.1,0.4,0.1c0.5,0.2,1.3,0.1,1.9,0c0.3-0.1,0.4-0.2,0.5-0.1c0.1,0.1,0,0.4-0.4,0.6c-0.6,0.2-1.4,0.3-2.1,0
			C21.9,88.7,21.8,88.4,22.1,88.4L22.1,88.4z M22,89.1c0.5,0.3,1,0.4,1.6,0.4c0.9,0,1.1-0.2,0.3,0.3c-0.7,0.4-1.9,0.3-2.1-0.1
			C21.7,89.4,21.8,89.1,22,89.1z M26.5,89.6L26.5,89.6c0.1,0.5,0.9,1,1.3,1.1c0.9,0.4,2.2,0,3.3-0.4c0.8-0.3,1-0.8,0.1-0.5
			c-1.4,0.5-3.3,0.5-4.2,0.1C26.8,89.7,26.6,89.6,26.5,89.6L26.5,89.6z M21.8,91.5c1.8,0.4,4,3.2,4,4.4h-0.6c-0.9-3.1-3.2-3.8-3.4-4
			C21.6,91.6,21.8,91.5,21.8,91.5L21.8,91.5z M21.7,92.3c2.2,0.9,2.9,2.6,3.2,3.7h-0.6c-0.5-1.4-1.3-2.4-2.6-3
			C21.6,92.8,21.7,92.3,21.7,92.3L21.7,92.3z M21.7,93.3c1.1,0.3,2.1,1.8,2.4,2.7l-0.6,0c-0.4-1-0.9-1.7-1.8-2
			C21.7,93.7,21.7,93.5,21.7,93.3L21.7,93.3z M21.7,94.3c0.5,0.1,1.4,0.9,1.5,1.7h-0.5c-0.2-0.5-0.7-1-1-1.2
			C21.7,94.7,21.7,94.3,21.7,94.3z M21.8,95.1c0.1,0,0.8,0.7,0.7,0.9h-0.7C21.8,95.8,21.8,95.1,21.8,95.1L21.8,95.1z"/>
		<path class="st7" d="M41.5,9c-1.3,2.6-8.1,14.1-8.1,14.5l1.7,0.8l8.4-15.2C43.5,9.1,41.8,9,41.5,9z M61.4,18.6l-0.7,1l0.6,1.2
			l0.7-1.1L61.4,18.6z M30.5,30.2c0,0-2.4,2.4-3.4,3.5c2,2,5.9,4.6,5.9,8.5l2.7,0l8.7,7.8c0,0,7.8,0.1,8,0c0.2,0,2.9-4,2.9-4l5,3.6
			c0,0-0.2-3.9-0.4-6.3c-0.1-1.6-0.1-2.6,1.1-3.3c-1.6-0.8-1.5-2.2-0.3-3.2c-0.4-0.5-1-0.6-1.1-2.6c-0.2-0.3-0.5-0.4-0.8-0.6
			l-0.3,0.3c-1,0.9-1.7,1.9-1.9,2.5c-0.2,1.2,1,2,1.7,1.1c0.2-0.2,0.4-0.2,0.4,0.1c0,0.6-0.8,1-1.5,0.7c-0.2-0.1-0.3-0.1-0.3-0.1
			c0,0,0.7,1.7,0.9,2.1c0.3,0.6,0.5,1.3,0.5,1.9c0,0.7,0,0.8-0.3,2c-0.3,1.2-0.2,1.8,0.4,1.8c0.3,0,0.3,0.3,0,0.4
			c-0.7,0.2-1.1-0.3-1.1-1.3c0-0.6,0-0.7-0.4-0.5c-1.1,0.5-2.4-0.4-1.9-1.4c0.1-0.2,0.2-0.1,0.3,0.2c0.1,0.6,0.4,0.8,1,0.8
			c1.2,0,1.8-1.8,1-3.5c-0.1-0.4-0.2-0.3-0.4,0.1c-0.3,0.7-0.8,0.9-1.2,0.5c-0.1-0.1-0.2-0.4-0.1-0.4c0,0,0.2,0,0.3,0
			c0.7,0,1-0.7,0.6-1.8c-0.3-0.9-0.3-1.1-0.4-1.6c-0.1-0.8,0-1.4,0.3-2.1c0.1-0.1,0.5-0.6,1-1.1c0.5-0.5,1-1,1-1
			c-0.5-0.4-1-0.8-1.6-1.2c0,0-3.7,10.2-3.4,14.1c-0.5,5.2-4.3,3.8-4.6,0.2L30.5,30.2z M30.3,31.7c1.3,0,2.1,1.7,2.6,5.1
			c0.2,1.1,0.9,2.8,1.4,3.1c1.3,1,3.3,0.2,3.3-1.2c0-1.8-2.5-2-2.5-0.3c0,0.4-0.2,0.4-0.4,0c-0.2-0.4,0-1,0.3-1.4
			c0.2-0.2,0.2-0.3-0.2-0.5c-1.5-0.8-2.2-2.1-1.4-2.6c0.4-0.2,0.8,0.1,0.6,0.4c-0.3,0.5-0.4,0.6-0.1,1c0.3,0.5,0.7,0.7,1.7,1
			c0.8,0.2,0.9,0.3,1.3,0.4c1.1,0.5,1.5,1.5,1.2,2.6c-0.1,0.2-0.2,0.5-0.2,0.5c0,0.1,0,0.1,0.8,0c1.2-0.2,2.5,0.3,3.1,1
			c0.3,0.4,0.6,1.3,0.6,2.1c0,0.1,0,0.5,0.1,0.7c0.1,0.3,0.1,0.7,0.2,1c0.3,2.6,2.5,3.9,3.4,2.1c0.6-1.1-0.8-2.3-1.5-1.2
			c-0.2,0.4-0.5,0.2-0.4-0.2c0.3-0.9,1.3-1,2.1-0.3c0.4,0.4,0.6,1.3,0.4,1.8c-0.1,0.3-0.1,0.3,0.1,0.2c0.5-0.2,1.3,0,1.6,0.3
			c0.7,0.8,0.6,1.7-0.3,2c-0.4,0.1-0.9,0-1-0.5c-0.1-0.3,0.2-0.4,0.3-0.1c0.3,0.5,1.1,0.1,0.9-0.5c-0.2-0.7-0.8-0.9-2-0.5
			c-1.8,0.6-2.4,0.6-3.3-0.3c-0.6-0.6-0.9-1.1-1-2.3c-0.2-1.3-0.2-1.3-0.5-1.1c-1.5,1.3-3.6-0.7-2.3-2c0.4-0.4,0.7-0.1,0.3,0.4
			c-0.5,0.7,0.2,1.6,1,1.4c1.6-0.4,1.2-2.7-0.4-3.2c-0.5-0.2-1.9-0.1-3,0.1c-3.1,0.7-4.4-0.6-5-4.9C32.1,35.4,32,35,31.7,34
			c-0.3-1.3-1.5-2-2.2-1.3C29.1,33.3,29.3,34,30,34c0.7,0,0.5,0.5-0.2,0.6c-1.3,0.1-1.5-2-0.3-2.6C29.8,31.8,30.1,31.7,30.3,31.7
			L30.3,31.7z M13.7,32.5l0.4,1.5l1.6,0.4L15.1,33L13.7,32.5z M17.7,32.9l-0.4,1.4l1.2-0.4l0.4-1.3L17.7,32.9z M30.7,35.2
			c0.3,0,0.5,0.2,0.5,0.5c0,0.3-0.2,0.5-0.5,0.5s-0.5-0.2-0.5-0.5C30.3,35.4,30.5,35.2,30.7,35.2z M15.6,36l-1.4,0.5L14,37.5
			l1.3-0.3L15.6,36z M18.5,36.5l-1-0.3l0.2,1.1l1.1,0.4L18.5,36.5z M62.6,36.3L62,36.8c1.9,1.7-0.2,3.3-0.2,3.2
			c1.4,0.9,1.1,2.4,1,3.7c-0.3,2.4-0.5,4.6-0.8,7c0,0,1.7,1.1,2.8,1.6l0-14.2L62.6,36.3z M39.1,38.4c0.3,0,0.5,0.2,0.5,0.5
			s-0.2,0.5-0.5,0.5c-0.3,0-0.5-0.2-0.5-0.5C38.6,38.6,38.8,38.4,39.1,38.4z M11.2,39.6l0.1,13.2l2.7-4.9l-1.9-2.2l1.6-1.7
			C12.8,42.6,12,41.1,11.2,39.6z M37.8,41.6c0.3,0,0.5,0.2,0.5,0.5s-0.2,0.5-0.5,0.5c-0.3,0-0.5-0.2-0.5-0.5
			C37.3,41.8,37.5,41.6,37.8,41.6z M44,42.9c0.3,0,0.5,0.2,0.5,0.5c0,0.3-0.2,0.5-0.5,0.5s-0.5-0.2-0.5-0.5S43.7,42.9,44,42.9z
			 M61.8,57.7l2,2.1l-1.6,2l2.5,4.2l0-13L61.8,57.7z M11.2,53.3l0.1,14.2l2.1,1.6l0.5-0.5c-1.4-1.5-0.6-2.6,0.5-3.2
			c-1.8-0.4-1.3-2.9-1.2-4c0-2.1,0.7-4.5,0.5-6.5L11.2,53.3z M23.5,55.3l-3.1,4.3c0,0-3.4-2.6-5.1-3.7c0.2,1.9,0.3,4.2,0.6,6.2
			c0.6,2.9-0.9,3-0.9,3.2c2.3,1.7,0.4,3.4,0,3.3c1.2,0.7,1.1,2.7,1.1,2.7l0.6,0.3l0.3-0.2c0.6-0.3,1.6-1.5,1.9-2.3
			c0.4-1.3-0.8-2.4-1.5-1.4c-0.4,0.5-0.6,0.2-0.3-0.4c0.3-0.5,1-0.8,1.4-0.5c0.3,0.1,0.2-0.2-0.2-1.3c-0.1-0.4-0.3-0.7-0.4-1.5
			c-0.2-0.8-0.1-1.7,0.2-2.6c0.5-1.3,0.3-2.2-0.5-2.2c-0.4,0-0.4-0.2-0.1-0.4c0.7-0.4,1.4,0.2,1.4,1.2c0,0.5,0,0.6,0.3,0.4
			c1.5-0.6,2.6,0.9,1.6,2.1c-0.3,0.4-0.5,0.1-0.3-0.3c0.3-0.7,0-1.3-0.7-1.3c-1.1,0-1.7,1.5-1.2,3.1c0.1,0.5,0.2,0.5,0.5,0.2
			c0.3-0.3,0.6-0.4,0.8-0.3c0.5,0.2,0.6,0.7,0.2,0.6c-0.8-0.1-1.1,0.8-0.6,2.3c0.6,2.1,0,3.8-1.9,5c-0.1,0.1-0.2,0.2-0.2,0.2
			c0.7,0.6,1.2,1,2.1,1.6l3.4-13.7c0,0-0.1-0.8-0.1-1.1c0-3.7,3.4-4,4.5-0.7c0.1,0.3,0.6,1.1,0.6,1.1L45.5,75l3.3-3.3
			c-2.5-2.5-5.9-4.4-6.1-8.4c-0.6,0-2.6,0-2.6,0l-8.6-8C28.8,55.4,26.4,55.2,23.5,55.3L23.5,55.3z M28.4,55.6c0.5,0,1,0.2,1,0.6
			c0,0.3-0.2,0.4-0.4,0.1C28.6,56,28.3,56,28,56.3c-0.9,0.9,0.5,1.8,2,1.3c0.9-0.3,1.4-0.4,1.8-0.3c1.5,0.3,2.2,1.3,2.3,3.2
			c0.1,1,0.1,1,0.5,0.6c1-0.9,2.5-0.4,2.8,1c0.1,0.6-0.5,1.4-1.2,1.4c-0.2,0-0.2-0.3,0.1-0.4c0.6-0.3,0.6-1.3,0-1.7
			c-0.8-0.5-1.9,0.3-1.8,1.4c0,1.3,1,1.9,3,1.8c0.3,0,1-0.1,1.6-0.1c0.9,0,1.9-0.2,2.9,0.5c1,0.8,1.7,2.4,1.9,4.6
			c0.4,2.8,0.8,3.6,1.7,3.6c0.6,0,1-0.4,1-1c0-0.4-0.5-0.7-0.9-0.6c-0.5,0.2-0.6-0.4-0.1-0.5c0.6-0.3,1.4,0.2,1.6,1.1
			c0.1,0.5-0.4,1.4-1,1.6c-1.5,0.6-2.5-0.6-2.8-3.3c-0.2-1.2-0.3-2.1-0.7-3.1c-0.7-1.9-1.9-2.7-3.1-2.2c-1.4,0.7-1.1,2.8,0.4,2.8
			c0.8,0.1,1-0.5,1-1.2c0-0.5,0.6,0,0.6,0.3c0,0.4-0.3,0.9-0.6,1.1c-0.5,0.3-0.3,0.3,0.2,0.5c1.4,0.3,2.5,2.1,1.6,2.8
			c-0.4,0.3-0.9-0.1-0.6-0.5c0.5-0.6-0.3-1.6-1.8-1.9c-2-0.4-2.7-1.9-2-3.4c0.2-0.5,0.3-0.5-0.7-0.4c-2.1,0.1-2.8-0.2-3.6-1.4
			c-0.2-0.4-0.3-0.9-0.4-1.8c-0.1-1.8-0.2-2.8-0.5-3.1c-1.1-1.5-3.4-1.1-3.1,0.6c0.1,0.9,1.1,1.2,1.7,0.5c0.5-0.5,0.7,0,0.2,0.5
			c-1.1,1.2-3-0.2-2.4-1.8c0.1-0.4,0.1-0.4-0.6-0.4c-1.6,0-2.3-1.4-1.3-2.3C27.9,55.7,28.1,55.6,28.4,55.6L28.4,55.6z M32.2,61.4
			c0.3,0,0.5,0.2,0.5,0.5s-0.2,0.5-0.5,0.5c-0.3,0-0.5-0.2-0.5-0.5S31.9,61.4,32.2,61.4z M38.4,63c0.3,0,0.5,0.2,0.5,0.5
			c0,0.3-0.2,0.5-0.5,0.5S38,63.7,38,63.4S38.2,63,38.4,63z M37.1,66c0.3,0,0.5,0.2,0.5,0.5s-0.2,0.5-0.5,0.5
			c-0.3,0-0.5-0.2-0.5-0.5S36.8,66,37.1,66z M57.1,67.7l0.3,1.3l1,0.3l-0.2-1.2L57.1,67.7z M60.7,68.2l0,0.8l0.9,0.1l0.3-1.4
			L60.7,68.2z M45.2,69.4c0.3,0,0.5,0.2,0.5,0.5c0,0.3-0.2,0.5-0.5,0.5s-0.5-0.2-0.5-0.5C44.7,69.6,44.9,69.4,45.2,69.4z M58.5,71.3
			l-1.1,0.3l-0.5,1.5l1.4-0.5L58.5,71.3z M60.6,71.4l0.1,1.1l1.3,0.6l-0.5-1.6L60.6,71.4z M40.8,81l-8.3,15.1l2.3,0l7.9-14.3
			L40.8,81z M14.6,84.6l-0.7,1l0.7,1.2l0.8-1.2L14.6,84.6z"/>
		<path class="st3" d="M28.8,8.6c1.5,4.7,1.7,9.3,0.3,13.7c0.8,0,4.1,0.9,5.9,2c-0.3,0.9-5.5,7.2-9,10.1c1,1,2.1,2,3.2,3.1
			c1.7,1.7,2.4,2.8,2.5,5c0,1-0.4,2.3-1,3.2c-0.5,0.7-1,1.2-2.1,1.9c-1,0.7-2.4,2.1-4.2,4.1c-0.7,0.8-1.8,2.2-2.8,3.6
			c-0.4,0.5-1.4,2.1-1.4,2.1c-3.6-2.9-7.4-5.2-7.5-5.2c0,0,3.9-2.1,4.7-2.5c0.6,0.4,1.5,0.1,1.1-0.8c-0.8-2-0.2-4.1,0.7-5.5
			c0.2-0.3,0.8-0.6,1.7-0.6c0.4,0,0.8,0,1.2,0c0.1,0,0.5,0.1,0.8,0.2c0.7,0.4,0.9-0.1,1.3-1.8c0.5-1.7-0.3-3.9-1.3-3.9
			c-0.2,0-0.4,0.1-0.3,0.7c0,0.5-0.1,0.7-0.2,1c-0.3,0.6-0.4,1.3-0.5,2.1c0.2,0-1-1.1-2.7-1.6c-1.1-0.1-1.7-1.6-1.7-1.6
			c0,0,0.2-0.4,0.3-0.5c0.4,0.2,0.8,0.4,1.2,0.5c0,0-0.1-0.6-0.1-0.7c-0.2-0.8-0.2-0.9,0.1-1.1c0.8-0.4,0.8-1.1,0.2-1.8
			c-0.1-0.2-0.3-0.3-0.5-0.4l0.4-1.5c0,0-0.3,0.1-0.6,0.2c-0.8,0.2-0.7,0.3-1.1-0.1c-0.7-0.8-1.9-0.7-2,0.3c0,0.1-0.1,0.3-0.1,0.3
			l-1.7-0.8c0,0.4,0.5,1.7,0.5,1.7c-1.5,1.2-0.2,2.2,0.2,2.3c0,0-0.3,1.1-0.5,1.6l1.7-0.5c0.1,0.3,0.3,0.6,0.7,0.8
			c0.1,0.9,0.8,1.7,1.3,2.2c0,0,0.1,0.3,0,0.6c-0.1,0.5,0.4,1.4,0.5,1.5c-2.3-0.9-4.7-2.1-7-3.2l0.1,28.5c0,0,0.5,0.5,1.6,1.2
			c0.5,0.4,0.5,0.4,0.4,0.8c-0.1,0.6-0.1,1,0.4,4.7c0.3,1.9,0.5,4,0.8,5.8c0.1,0.7,0.1,1.1,0.1,1.1c-0.5-0.2-1.3-0.3-1.6,0.2
			c-0.7,0.8-0.1,2,0.8,1.9c0.2,0,0.4-0.1,0.6-0.2c0.1-0.1,0.3,0,0.3,0l-1.5,2.6l1.7,2.8l1.7-3L15.1,83c0,0,0.1,0,0.3,0.1
			c0.2,0.1,0.4,0.1,0.5,0.2c0.9,0,1-0.4,1.1-1.1c0-0.9-0.7-1.3-1.7-1c-0.2,0.1-0.3,0.1-0.3,0.1l1-9.9l0.6,0.4l0.2-0.1l-0.5-0.4
			c0.1-1.6-0.4-2.2-1-2.5c1.9-1.1,1.1-2.8-0.2-3.3c0,0,0.8-0.5,1-1c0.1-0.4,0.1-1.2-0.1-2.4c-0.1-1.9-0.5-6-0.5-6
			c1.7,1.2,3.3,2.6,4.9,3.8l3.2-4.5l7.7,0.1c0,0,5.9,5.3,8.8,8l2.5,0c0,0,0,0.3,0.1,0.5c0.2,2.6,2,4.4,3.6,5.7
			c0.7,0.6,2.3,2.1,2.3,2.1l-3,3L27.3,58.4c0,0-0.1-0.2-0.1-0.4c-0.4-1.7-1.6-2.5-2.6-2.3c-1.1,0.1-2,1.2-2,3.1
			c0,0.3,0.1,0.8,0.1,0.8l-3.3,14c0,0-1.3-1-2.1-1.5l-0.2,0.1l2,1.5l0.1-0.1l0.6,0.4l0,0.3c1.7,1.2,4.6,3.4,4.6,3.4
			c1.4-1,2.8-0.7,4.3-0.3c0,0,1.1,0.4,1.6,0.3c2.8,0.1,5.4,0.6,8,1.6l-9.6,17.1l18.3,0c-0.9-3.6-1.9-7.2-0.1-13.3
			c-1.8-0.4-5.8-2-5.8-2s0-0.1,0.2-0.3c0.7-1.1,2.6-4,4.4-5.6c0.2-0.2,3.3-3.1,3.3-3.2c0-0.1,0.1-0.3,0.2-0.3c0.3-0.2,1-0.9,1-0.9
			l-3.8-3.3l-0.2,0c-0.5-0.3-1.5-2-1.7-3.1c-0.5-2.6,0.5-4.6,3.3-6.7c2.8-1.9,8.1-9.3,8.1-9.5c2.9,2.4,5.1,3.6,7.6,5.1
			c-1.5,0.9-2.8,1.5-3.8,2c-0.7,0.4-0.8,0.5-1.4,0.3c-0.7,0-0.9,0.3-0.7,0.8c1,1.6,0.6,5.3-0.8,6c-1.2,0.6-2.3,0.4-3.2,0.1
			c-0.7-0.2-0.7-0.2-1,0.4c-0.7,1.5-0.8,2.8-0.1,4.3c0.5,1.2,1.3,1.7,1.4,0.1c0.1-0.9,0.5-2,0.5-3c0.8,0.9,1.4,1.3,2.7,1.7
			c0.9,0.1,1.9,1.3,1.8,1.7c-0.2,0.3-0.3,0.6-0.4,0.5c-0.4-0.1-1.4-0.5-1.4-0.5l0.4,1.4c0,0-0.1,0.1-0.3,0.2
			c-0.9,0.5-0.8,1.7,0.1,2.2c0.2,0.1,0.2,0.1,0.1,0.4c-0.1,0.6-0.4,1-0.5,1.6c0,0,0.1,0,1.2-0.5l0.4-0.2l0.3,0.3
			c0.6,0.6,1.2,0.6,1.8,0l0.3-0.3l0.7,0.4c0.7,0.4,0.9,0.4,0.9,0.4s-0.4-1.6-0.5-1.8c0-0.1-0.1-0.2-0.2-0.2c-0.1,0-0.1-0.1,0.2-0.3
			c0.7-0.5,0.7-1.3,0.2-1.8c-0.2-0.2-0.2-0.3-0.2-0.3l0.3-1.5l-1.4,0.5c-0.2-0.5-0.6-0.7-0.8-0.8c0-0.7-0.1-1.3-1.2-2.4
			c0.4-0.3-0.1-1.2-0.4-1.7c0.6,0.2,2.2,0.9,2.2,0.9l0.2,0l0.8,0.4l0.1,0.1c0,0,2.4,1.1,3.5,1.7c0-0.1,0-1.2,0-14.2
			c0-7.7,0-14.1,0-14.1c0,0-0.3-0.2-0.5-0.4c-0.5-0.4-0.6-0.5-1.2-0.9c-0.5-0.3-0.5-0.3-0.4-0.7c0.1-0.5,0.1-1.1,0-2.2
			c-0.1-0.9-0.6-3.9-0.9-6.3c-0.2-1.7-0.3-2.1-0.3-2.4c-0.1-0.7,0-1,0-1c2.4,1,2.6-2.4,0.2-1.9c0.5-0.9,0.8-1.4,1.2-2.3
			c-0.5-1.1-1.6-2.9-1.6-2.9l-1.8,3.1l1,2.1c-1.2-0.2-1.8,0.7-1.6,1.4c0.2,0.7,0.9,0.9,1.5,0.6c0.4-0.2,0.4-0.2,0.1,3.1
			c-0.1,1-0.6,5.6-0.7,6.3c0,0.5-0.1,0.6-0.3,0.5c-0.3-0.1-0.4-0.3-0.7-0.4l-0.1,0.1c0.2,0.2,0.5,0.4,0.8,0.7c-0.1,1.2,0,1.9,1,2.5
			c-1.8,1.2-0.8,2.9,0.3,3.2c-0.6,0.2-1.3,1-1.1,2.7l0.5,6.8l-5-3.7L52.3,50l-7.7,0l-8.7-7.9c0,0-1.9,0-2.7,0c0.1,0-0.2-2.4-1.4-4
			c-1.4-1.6-4.5-4.3-4.5-4.3l3.3-3.3L48.9,47c0,0,0.1,0.5,0.1,0.7c0.6,2.6,3.6,2.8,4.2,0.1c0.1-0.4,0.2-1.4,0.2-1.6
			c0,0,0.1-0.5,0.2-1c1-3.9,1.8-7.3,2.8-11c0.1-0.5,0.3-1.1,0.3-1.3c0.2-0.8,0.1-0.8,0.9-0.2c0.5,0.4,0.7,0.5,0.7,0.5l0.2-0.2
			c-0.5-0.4-1.5-1.1-1.5-1.1l0-0.3c-3-2.2-3.6-2.7-5.4-4.1c-1.4,1.2-3.3,0.7-4.6,0.3c-0.3-0.1-1.1-0.3-1.1-0.3
			c-3.1,0-5.8-0.6-8.3-1.4l9.8-17.5l-3.8,0l-0.1,0.1h-2l0-0.1L28.8,8.6z M64.9,66.3L64.9,66.3z M40,9l1.3,0l-7.9,14.2l-0.8-0.3
			c0,0,0.1,0,0.1-0.6c0-0.6-0.1-0.9-0.4-1.3c-0.2-0.3-0.3-0.3,0.4-0.2c1.4,0.2,2.5-1.4,1.9-2.6c-0.2-0.5-0.2-0.5,0.4-0.6
			c1.6-0.2,2.2-2.2,1.1-3.2c-0.2-0.2-0.1-0.4,0.3-0.3c1.4,0.3,2.5-1.3,1.9-2.5c-0.2-0.3,0-0.4,0.2-0.4C39.6,10.9,40,10,40,9L40,9z
			 M29.3,9l6.2,0c-0.8,1.3,0.6,2,0.8,2c-1.3,0.7-1,1.8-0.3,2.1c0.7,0.3,1.7,0,1.4-1.5l0.3-0.1c0.3,0.4,0.6,2.6-1.8,2.3
			c-0.4-0.1-0.7,0.4-0.3,0.6c1.9,2.2-1.1,3.2-1.2,2.9l0-0.4c0.8,0.2,1.9-0.9,1-1.9c-0.5-0.5-2.1-0.3-1.8,1.4
			c-0.9-1.4-1.9-0.9-2.2-0.2c-0.2,0.6,0.1,1.3,1,1.4c-1,0.8-0.5,1.8,0.2,2c0.8,0.2,1.5-0.1,1.3-1.5c0-0.1,0.3-0.1,0.3-0.1
			c0.8,2-1.1,2.7-2.1,2.3c-0.4-0.1-0.6,0.4-0.2,0.7c0.6,0.5,0.4,1.7,0.3,1.8c-1.1-0.4-2.7-0.7-2.7-0.7C30.6,17.8,30.5,13.5,29.3,9
			L29.3,9z M39.2,9l0.6,0c0,0.8-0.3,1.8-1.7,2c0-0.2,0-0.4-0.1-0.6C38.5,10.2,39.1,10.4,39.2,9L39.2,9z M41.6,9.1l1.8,0l-8.4,15
			l-1.3-0.7L41.6,9.1z M37.2,10.2c0.3,0,0.6,0.3,0.6,0.6c0,0.3-0.3,0.6-0.6,0.6c-0.3,0-0.6-0.3-0.6-0.6
			C36.6,10.5,36.9,10.2,37.2,10.2z M33.6,16.8c0.3,0,0.5,0.2,0.5,0.5c0,0.3-0.2,0.5-0.5,0.5s-0.5-0.2-0.5-0.5
			C33.1,17,33.3,16.8,33.6,16.8z M61.4,17.2l1.4,2.5l-1.6,2.9l-1.4-2.8L61.4,17.2z M61.3,18l-1,1.7l0.9,1.7l1-1.6L61.3,18z
			 M61.4,18.8l0.5,1l-0.6,1l-0.5-1.1L61.4,18.8z M60,22.1c0.1,0,0.2,0,0.3,0.1c1,0.4,0.7,1.9-0.4,1.8c-0.1,0-0.3-0.1-0.4-0.2
			C58.8,23.2,59.2,22.1,60,22.1z M62.3,22.2c0.8,0,1.3,1.2,0.5,1.7c-0.4,0.2-1.1,0.1-1.3-0.3c-0.2-0.4-0.1-1,0.4-1.3
			C62,22.2,62.2,22.2,62.3,22.2z M61.2,23.8c0.1,0,0.2,0.4,0.3,1.1c0,0.3,0.1,0.9,0.2,1.4c0.1,1.1,0.3,2.2,0.4,3.3
			c0,0.2,0.1,0.7,0.1,1c0.5,3.5,0.6,4.7,0.5,5c-0.3,1.1-1.7,1.1-2.3,0.5c-0.5-0.5-0.5-1-0.3-2.3c0.1-0.8,0.1-1.2,0.4-4.1
			c0.1-0.7,0.2-1.6,0.2-2c0.1-1.1,0.3-2.2,0.4-3.4C61,24,61.1,23.8,61.2,23.8z M37.6,26.5c0,0,4.6,1.5,8.1,1.5c0.5,0,0.6,0,1.2,0.2
			c0.4,0.1,1,0.3,1.3,0.4c1.1,0.2,2,0.2,2.9-0.2c0.1-0.1,0.3-0.2,0.5-0.2c0.1,0,0.3,0.3,0.3,0.3c-3.1,0.8-10.3,0.7-14.7-1.2
			L37.6,26.5z M61.3,27L61.3,27c-0.1,0.2-0.1,1,0.2,3.4c0.5,4.7,0.5,4.8-0.1,5.3C61,36,61,36.1,61.1,36.2c0.1,0.1,0.1,0.1,0.3,0
			c0.5-0.2,0.8-0.6,0.8-1.5c0-0.7,0-0.8-0.2-2.4c-0.1-0.6-0.2-1.4-0.2-1.8C61.4,27.6,61.4,26.9,61.3,27L61.3,27z M37.1,27.5
			c4.6,1.6,9.4,2.1,15.2,1.2c0,0,0.6,0.4,0.8,0.5l-0.2,0l0.1,0.8l1-0.2c0,0,0.5,0.4,0.9,0.7c-5.2,1.6-13.5,1.3-18.6-1
			c-0.2-0.1-0.3-0.2-0.3-0.2c0.1-0.3,0.2-0.4,0.4-0.6l0.9,0.3l0.3-0.9L36.9,28L37.1,27.5z M38.3,28.5L38,29.3l1.3,0.4l0.2-0.9
			L38.3,28.5z M40.3,29l-0.2,1l1.3,0.2l0.2-0.9L40.3,29z M42.5,29.5l-0.1,0.9l1.4,0.1l0.1-0.9L42.5,29.5z M52.1,29.5l-1.2,0.1
			l0.1,0.8l1.2-0.1L52.1,29.5z M50,29.7l-1.2,0.1l0,0.9l1.2-0.1L50,29.7z M44.7,29.7v0.9l1.2,0l0-0.9L44.7,29.7z M48,29.8l-1.1,0
			l0,0.9l1.1,0L48,29.8z M35.1,30c0.1,0,0.4,0.3,0.5,0.6c0.2,0.6,0.1,1.2-0.2,1.5c-0.5,0.3-1-0.2-0.7-0.6l0.2-0.2
			c0.2-0.1,0.3-0.5,0.2-1.1C35,30,35.1,30,35.1,30z M36.9,30.2c5,1.6,10.6,2.2,16.4,1l-2.8,11.3L36.9,30.2z M34.5,30.2
			c0.3,0,0.3,0.4,0.1,0.7c-0.3,0.3-0.9,0.1-0.8-0.3C33.8,30.5,34.3,30.2,34.5,30.2z M35.9,30.5c0.1,0,0.2,0.1,0.3,0.3
			c0.6,0.8,0.6,1.6,0.1,2c-0.6,0.4-1-0.2-0.5-0.9c0.1-0.2,0.1-0.4,0.1-1.1C35.8,30.6,35.8,30.5,35.9,30.5L35.9,30.5z M55.1,30.8
			c0.1,0,0.2,0,0.4,0.2c0.4,0.2,0.5,0.4,0.3,0.6C55.6,31.9,54.9,31.3,55.1,30.8L55.1,30.8L55.1,30.8z M54.6,31.2
			c0.1,0,0.2,0.2,0.4,0.5c0.1,0.2,0.2,0.3,0.3,0.3c0.4,0.2,0.5,0.6,0.1,0.7c-0.4,0.1-0.7-0.2-0.9-0.9C54.5,31.4,54.5,31.2,54.6,31.2
			L54.6,31.2z M36.8,31.5c0.1,0,0.2,0.1,0.4,0.4c0.6,0.8,0.4,2.4-0.3,2.8c-0.3,0.2-0.5,0.1-0.8-0.1c-0.4-0.4-0.3-0.6,0.3-0.8
			c0.5-0.2,0.6-0.7,0.5-1.6C36.8,31.7,36.8,31.5,36.8,31.5L36.8,31.5z M39.5,31.8c3.4,2.8,6.5,5.8,10.4,9.3c0.9-2.9,2.3-8.9,2.3-8.9
			C52,32.3,45.6,33.2,39.5,31.8z M52.2,32.2L52.2,32.2L52.2,32.2z M54.3,31.8c0.1,0,0.2,0.4,0.3,0.8c0.1,0.3,0.4,0.9,0.5,1
			c0.7,0.1,1,0.5,0.6,0.8c-0.2,0.2-0.8,0.1-1-0.3C54.3,33.4,54,31.8,54.3,31.8L54.3,31.8z M16.5,32.1c0.4,0,0.8,0.3,0.9,0.8
			c0.1,0.6-0.2,1.1-0.5,1c-0.3-0.1-0.4-0.6-0.4-0.6s-0.1,0.4-0.2,0.6c-0.3,0.4-0.9-0.2-0.8-0.8C15.5,32.5,16,32.1,16.5,32.1
			L16.5,32.1z M40.6,32.3c3.7,0.6,6.9,0.7,11.3,0.2l-2.1,8.1L40.6,32.3z M37.8,32.3c0.1,0,0.2,0.1,0.3,0.3c0.6,0.6,0.7,1.5,0.4,1.9
			c-0.2,0.3-0.4,0.3-0.6,0.1c-0.3-0.2-0.3-0.5,0-0.7c0.3-0.1,0.3-0.4,0.1-1C37.8,32.5,37.7,32.3,37.8,32.3L37.8,32.3z M13.7,32.5
			l1.3,0.6l0.5,1.1l-1.3-0.3L13.7,32.5z M18.8,32.7l-0.4,1.1l-1,0.4l0.4-1.2L18.8,32.7z M54,32.9c0,0,0.1,0.1,0.2,0.4
			c0.2,0.7,0.3,0.9,0.5,1c0.3,0.2,0.4,0.6,0,0.7c-0.2,0.1-0.3,0.1-0.4-0.1c-0.2-0.3-0.4-0.8-0.4-1.3C53.9,33.2,53.9,32.9,54,32.9z
			 M39,33.4c0,0,0.1,0.1,0.2,0.2c0.5,0.6,0.6,1.6,0.1,1.9c-0.5,0.3-1.1-0.3-0.7-0.6l0.2-0.1c0.1-0.1,0.1-0.1,0.1-0.7
			C38.9,33.6,38.9,33.4,39,33.4z M43,33.5l6.5,5.9l1.5-5.8C48.4,33.8,45.7,33.7,43,33.5z M27.1,33.8c2,2.2,4.7,3.9,5.3,6.1
			c1.1,3,0.3,6.4-2.4,8.4c-1.5,1.1-2.9,2.3-4.1,3.7c-2,2.1-3.3,4.4-4.6,6.1c-0.2,0.3-0.8,1.2-0.8,1.2s-0.3,0.3-1.2-0.5
			c-2.5-2.3-5.2-3.9-7.9-5.5l1.2-0.6c2.3,1.3,5.1,3.1,7.6,5.3c0,0,2-3,2.7-3.8c0.9-1.2,1.6-2,2.5-2.9c2.2-2.8,4.5-3.7,5.5-5.1
			c1.4-2,1.5-4.5,0.3-6.5c-1.1-2-3.3-3.3-4.8-5L27.1,33.8z M46.5,34H49c0,0-0.4,0.3-0.7,0.5c-0.2,0.1-0.4,0.1-0.8-0.1
			C47.2,34.2,46.5,34,46.5,34L46.5,34z M49.4,34l0.6,0c-0.4,0.6-0.9,0.9-1.5,1.4c-0.1,0-0.1,0-0.3,0C47,35,45.9,34.5,44.7,34l1,0
			c0,0,0.5,0.2,1.3,0.5c0.9,0.4,1.1,0.5,1.4,0.3C48.7,34.5,49,34.2,49.4,34L49.4,34z M50.6,34l-0.2,0.8c-0.4,0.4-1.1,0.9-1.7,1.5
			c-0.1,0.1-0.1,0.1-0.7-0.2c-2.2-0.9-3.3-1.4-3.3-1.4l-0.5-0.4c0,0,0.6,0.2,1,0.3c0.3,0.1,0.7,0.3,1,0.4c0.3,0.1,0.9,0.4,1.3,0.5
			c1,0.4,0.9,0.4,1.8-0.4C50.3,34.1,50.6,34,50.6,34z M16.5,34l1,1.1l-1.3,1.1l-1-1.2L16.5,34z M53.7,34c0.2,0.4,0.4,0.9,0.7,1.3
			c0.3,0.3,0.3,0.5,0.2,0.6c-0.4,0.3-0.5-0.2-0.6-0.4C53.8,35,53.5,34.3,53.7,34z M18.3,34.1L18.3,34.1c1.1,0,1.4,1.6,0.4,1.9
			c-0.4,0.1-0.8,0.1-1-0.1c-0.2-0.2-0.2-0.4-0.1-0.5c0.2-0.2,0.8-0.2,0.8-0.2s-0.5-0.2-0.7-0.3C17.2,34.7,17.6,34.2,18.3,34.1
			L18.3,34.1z M39.8,34.1c0.1,0,0.2,0.1,0.3,0.4c0.5,0.9,0.5,2.5-0.1,3c-0.3,0.2-0.6,0.2-0.9-0.1c-0.3-0.3-0.2-0.7,0.2-0.9
			c0.5-0.2,0.5-0.6,0.4-1.8C39.7,34.3,39.7,34.1,39.8,34.1z M14.5,34.2c0.3,0,0.6,0.1,0.8,0.4c0.1,0.2,0.1,0.3-0.2,0.4
			c-0.3,0.1-0.7,0.2-0.7,0.2s0.5,0.1,0.7,0.2c0.4,0.2,0.3,0.4-0.2,0.7c-1,0.5-1.9-0.8-1.1-1.6C14,34.3,14.2,34.2,14.5,34.2z
			 M40.7,34.8L40.7,34.8c0.1,0,0.3,0.1,0.5,0.4c0.6,0.8,0.7,2,0.2,2.2c-0.5,0.2-0.9-0.3-0.5-0.7c0.3-0.3,0.2-0.8-0.1-1.7
			C40.6,34.9,40.6,34.8,40.7,34.8L40.7,34.8z M53.5,34.8c0,0,0.1,0.2,0.3,0.6c0.3,0.8,0.6,1.2,0.9,1.2c0.4,0,0.6,0.5,0.3,0.8
			c-0.6,0.4-1.4-0.6-1.5-1.9C53.4,35,53.4,34.8,53.5,34.8L53.5,34.8z M50.3,35.3l-0.2,0.7c0,0-0.4,0.4-0.7,0.7
			c-0.5,0.4-0.6,0.5-1,0.4c-0.6-0.2-1.1-0.4-1.7-0.6l-1.4-1.1l3.2,1.2c0,0,0.3,0.1,0.4,0C49.2,36.1,49.7,35.7,50.3,35.3L50.3,35.3z
			 M53.2,35.9c0,0,0.1,0,0.1,0.2c0.1,0.6,0.3,1.1,0.5,1.2c0.2,0.1,0.3,0.3,0.2,0.5c-0.3,0.6-1-0.4-1-1.4
			C53.1,36.1,53.2,35.9,53.2,35.9z M41.9,35.9c0,0,0.1,0.1,0.2,0.2c0.4,0.4,0.6,1.6,0.2,2c-0.5,0.5-1-0.2-0.6-0.8
			c0.1-0.1,0.1-0.1,0.1-0.8C41.8,36.1,41.8,35.9,41.9,35.9z M15.5,36.1l-0.3,1.1l-1.1,0.3l0.3-0.9L15.5,36.1z M16.8,36.2
			c0.1,0,0.2,0,0.3,0.1c0.4,0.3,0.5,0.9,0.3,1.3c-0.2,0.4-0.6,0.5-1,0.5c-0.5-0.1-0.9-0.4-0.9-1c0-0.3,0.1-0.6,0.3-0.7
			c0.1-0.1,0.2-0.1,0.3,0.1c0.1,0.2,0.3,0.6,0.3,0.6s0-0.4,0.1-0.6C16.5,36.3,16.6,36.2,16.8,36.2L16.8,36.2z M17.6,36.3l0.8,0.3
			l0.3,1.1l-0.9-0.3L17.6,36.3z M62.6,36.5c0,0,0.2,0.1,1.3,1c0.3,0.2,0.7,0.6,0.7,0.6l0,14L62,50.5l0.1-1.2c0,0,0.4-3.7,0.6-5.6
			c0.2-2.2,0.6-2.8-0.8-3.7c1.6-1,1.1-2.5,0.1-3.1L62.6,36.5z M49.9,36.5l-0.1,0.6c-0.5,0.9-1,0.8-1.8,0.4L47,36.8
			c0.6,0.1,0.9,0.3,1.5,0.5c0.3,0.1,0.4,0,0.6-0.2C49.4,36.9,49.6,36.8,49.9,36.5L49.9,36.5z M42.9,36.9c0.3,0.3,0.4,0.7,0.4,1.5
			c-0.1,0.6,0,1.1-0.5,1.4c-0.2,0.2-0.7,0.2-0.8,0c-0.4-0.3-0.2-0.9,0.4-0.9c0.4,0,0.5-1.2,0.3-2c0-0.1,0-0.2,0-0.2
			C42.7,36.7,42.8,36.8,42.9,36.9L42.9,36.9z M52.9,36.8c0.1,0,0.2,0.2,0.3,0.5c0.1,0.4,0.3,0.7,0.5,0.8c0.3,0.2,0.4,0.5,0.2,0.6
			c-0.4,0.4-0.8-0.1-0.9-1C53,37.7,52.8,36.8,52.9,36.8z M61.3,37c0.9,0,1.4,0.6,1.4,1.4c0,0.5-0.3,1.1-0.8,1.3
			c-1.3,0.4-2-0.5-2-1.3C59.9,37.7,60.4,37,61.3,37z M43.7,37.5c0.7,0.7,0.8,2.3,0,2.3c-0.9-0.3-0.2-0.8-0.2-0.9
			c0.1-0.5-0.1-0.9-0.2-1.4C43.3,37.1,43.6,37.4,43.7,37.5z M61.4,37.4c-0.2,0-0.1,0.2,0.1,0.4c0.5,0.4,0.3,1.3-0.4,1.3
			c-0.3,0-0.4,0.2-0.1,0.3c1,0.4,1.7-1.1,0.8-1.8C61.6,37.5,61.5,37.4,61.4,37.4z M22.8,37.6c0.8,0.3,1.1,1.8,1.1,2.4
			c0,1-0.4,2.5-0.8,2.8c-1,0.8-1.5-2-0.6-3.9c0.1-0.2,0.2-0.4,0.1-0.7C22.6,37.8,22.7,37.6,22.8,37.6L22.8,37.6z M49.6,37.7
			c0,0-0.1,0.5-0.2,0.7c-0.1,0.3-0.2,0.3-0.5,0.1c-0.2-0.1-0.4-0.4-0.4-0.4c0.3,0,0.5,0.2,0.7,0.1C49.4,38,49.6,37.8,49.6,37.7z
			 M52.7,37.8c0.1,0,0.1,0.2,0.2,0.5c0.3,0.9,0.5,1.2,0.9,1.2c0.6,0,0.7,0.7,0.2,0.9c-0.2,0.1-0.3,0.1-0.5,0
			c-0.4-0.1-0.9-1.4-0.8-2.1C52.6,37.9,52.6,37.8,52.7,37.8L52.7,37.8z M17,38.3c0.2,0,0.3,0.1,0.4,0.4c0.1,0.3,0.5,0.7,0.8,0.8
			c0.8,0.4,1.6,0.7,2.3,1c1,0.5,1.9,2,1.3,2.2c-0.2,0.1-0.5,0.1-0.7,0c-0.1,0-0.2-0.2-0.3-0.4c-0.4-0.7-1.3-1.4-2.6-1.8
			c-0.9-0.2-1.7-1.4-1.9-1.9c0-0.1,0-0.2,0.1-0.3C16.7,38.3,16.9,38.3,17,38.3L17,38.3z M44.5,38.4c0,0,0.1,0,0.2,0.1
			c0.5,0.6,0.6,1.6,0.1,1.9c-0.5,0.3-1-0.2-0.6-0.7c0.2-0.2,0.2-0.2,0.2-0.8C44.4,38.6,44.5,38.4,44.5,38.4L44.5,38.4z M52.4,39
			c0.1,0,0.2,0.2,0.3,0.5c0.2,0.5,0.2,0.5,0.4,0.6c0.3,0.2,0.4,0.4,0.1,0.7c-0.4,0.4-0.9-0.3-0.9-1.4C52.3,39.2,52.3,39,52.4,39z
			 M45.3,39.1c0,0,0.2,0.1,0.2,0.2c0.7,0.8,0.5,2.6-0.2,2.9c-0.2,0.1-0.3,0.1-0.5,0c-0.5-0.2-0.5-0.8,0.2-1.2
			C45.6,40.8,45.2,39.1,45.3,39.1z M11.6,39.7l2.7,1.4c0,0,0.7,1.6,1.1,2.2c0.2,0.4,0.7,0.8,0.2,1.1c-0.8,0.6-1.3,0.9-1.3,1.2
			c0,0.3,0.4,0.6,0.8,1.1c0.7,0.8,0.7,0.6,0.1,1.8c-0.5,0.8-0.9,2.8-0.9,2.8l-2.8,1.4c0.8-2,1.8-3.6,2.9-4.8c-0.8-0.6-1.5-1.2-2.2-2
			c0.5-0.7,1.2-1.3,1.8-1.9C12.8,42.5,12,41.1,11.6,39.7L11.6,39.7z M46,39.7L46,39.7c0.1,0,0.4,0.3,0.6,0.8
			c0.3,0.6,0.3,1.3,0.1,1.6c-0.5,0.5-1-0.1-0.6-0.6c0.3-0.2,0.2-0.8,0-1.3C46,39.9,46,39.7,46,39.7L46,39.7z M11.3,40
			c0.7,1.5,1.5,2.7,2.3,3.9l-1.8,1.9c0.5,0.6,1.2,1.3,2.1,2.1c-1.1,1.3-1.9,3.1-2.6,4.7L11.3,40z M52.1,40c0.1,0,0.1,0.2,0.2,0.6
			c0.1,0.5,0.2,0.6,0.5,0.7c0.4,0.2,0.4,0.6,0,0.8c-0.2,0.1-0.4-0.1-0.6-0.3c-0.2-0.3-0.2-0.7-0.2-1C52,40.2,52,40,52.1,40z
			 M61.9,40.3c0.7,0.2,0.9,0.9,0.8,2.1c-0.2,1.7-0.4,3.5-0.5,5.1c-0.2,1.8-0.4,2.9-0.4,2.9l-0.2-0.1c0,0,0-1,0.1-1.5
			c0.1-1.3,0.2-2.5,0.4-3.8c0.3-2.9,0.2-3.9-0.3-4.1c-0.4-0.2-0.6-0.1-0.3,0.2c0.6,0.4,0.6,0.6-0.1,7.9c-0.1,0.7-0.1,1.3-0.1,1.3
			l-0.8-0.5c0,0-0.1-0.6-0.1-1.6c-0.2-1.8-0.3-3.6-0.4-5.3c-0.1-1.8,0.2-2.4,1.3-2.5C61.5,40.2,61.7,40.3,61.9,40.3L61.9,40.3z
			 M47.5,41.4c0.1,0.2,0.5,2-0.5,1.5c-0.3-0.2-0.3-0.4-0.1-0.6c0.2-0.3,0.3-0.6,0.2-1.1c-0.1-0.3-0.1-0.6-0.1-0.6
			C47.1,40.6,47.5,41.3,47.5,41.4L47.5,41.4z M17.9,40.8c0.8,0.2,1.8,0.7,2.4,1.3c0.4,0.4,0.4,0.7-0.2,0.7c-0.6,0.1-0.6,0.2-0.8-0.1
			c-0.1-0.1-0.4-0.3-0.6-0.4C17.7,42.3,17.3,40.7,17.9,40.8z M51.9,41.3c0.1,0.1,0.1,0.4,0.2,0.6c0.1,0.6,0.5,1,0.9,0.9
			c0.2,0,0.6,0,0.6,0.3c0.1,0.2-0.1,0.5-0.3,0.6c-0.3,0.1-0.6,0-0.9-0.2C51.8,43,51.5,41.4,51.9,41.3L51.9,41.3z M47.8,41.3
			c0.3,0.1,0.7,1.1,0.7,1.9c0,0.6-0.1,1.2-0.6,1.5c-0.3,0.2-0.6,0.1-0.7-0.2c-0.2-0.3,0-0.7,0.3-0.8c0.4-0.2,0.6-1,0.3-1.9
			C47.9,41.6,47.6,41.2,47.8,41.3L47.8,41.3z M15.7,41.7l2.2,1.1c-0.3,0.4-0.6,0.9-0.8,1.3C16.4,43.3,16.1,42.5,15.7,41.7z
			 M48.7,42.1c0,0,0.2,0.1,0.3,0.2c0.6,0.5,0.8,1.5,0.5,1.9c-0.3,0.3-0.7,0.3-0.8,0c0-0.1,0.1-0.4,0.2-0.6c0.1-0.2,0.1-0.8,0-1.2
			C48.7,42.2,48.6,42.1,48.7,42.1z M33.2,42.3l2.5,0.1l8.4,7.6l-0.8,0l-7.7-7.1l-2.4,0L33.2,42.3z M18.8,43.7
			c-1,1.5-1.2,3.5-0.6,5.2c0.4,1.2-0.5,1.3-0.9,0.5c-0.3-0.6-0.5-1.6-0.4-2.7c0.1-1.8,1-3.6,1.6-3.8C19.1,42.5,19,43.4,18.8,43.7z
			 M53.2,47.3c-0.3,1.2-0.7,1.8-1.4,2c-2.7,1-3.9-4.5-1.4-5.9C52.9,42.7,53.6,45.8,53.2,47.3z M33.1,43.7l2.4,0
			c2.2,2,4.5,3.8,6.8,6.2h-1.1l-0.4-0.4c-2.1-1.9-3.6-3.4-5.6-5.1L33,44.4L33.1,43.7z M51.2,44.1c-1.3,0.1-1.4,1.8-1.3,2.5
			c0.1,0.9,0.5,2.4,1.7,2.2c0.9-0.1,1.3-1.1,1.2-2.4C52.6,45.2,52.1,44.1,51.2,44.1L51.2,44.1z M32.9,44.7l2.1,0
			c1.8,1.6,3.8,3.3,5.7,5.3h-0.9l-0.3-0.3c-1.6-1.4-3.1-3-4.7-4.3l-2.2-0.1L32.9,44.7z M51.2,44.7c0.4,0.1,0.4,1,0.1,1.4
			c-0.2,0.3-0.7-0.2-0.8-0.8C50.5,44.9,50.9,44.6,51.2,44.7z M16.9,44.8c-0.2,0.6-0.3,1.2-0.3,1.9l-0.9-1.1L16.9,44.8z M51.9,45.9
			c0.2,0,0.4,0.2,0.4,0.4s-0.2,0.4-0.4,0.4c-0.2,0-0.4-0.2-0.4-0.4S51.6,45.9,51.9,45.9z M34.4,46.1l4.1,3.9l-1.2,0L34,46.9
			l-2.2-0.1l0.4-0.7L34.4,46.1z M50.5,46.2c0.2,0,0.4,0.2,0.4,0.4s-0.2,0.4-0.4,0.4c-0.2,0-0.4-0.2-0.4-0.4S50.3,46.2,50.5,46.2z
			 M55.4,46.2c2.3,1.8,5.6,4.2,9.1,6.2c0,0-0.6,0.4-1.1,0.6c-2.7-1.5-5.8-3.6-7.8-5.2c-1.9,2.7-5.4,7.7-8.6,10c-2,1.4-3,3.2-3,5.3
			c0,2.1,0.8,3.5,2.9,5.3c1.4,1.1,2.8,2.6,2.8,2.6l-0.8,0.7c-0.1,0-2.3-1.9-4.4-4c-1.2-1.2-1.7-3.8-1.5-5.2c0.3-1.9,0.9-3.3,2.7-4.8
			c0.7-0.5,1.4-1,2-1.6C53.4,49.8,55.4,46.2,55.4,46.2L55.4,46.2z M51.6,47.2c0.2,0.4,0.3,1-0.3,1.1c-0.4,0-0.6-0.6-0.3-1.2
			C51.3,46.5,51.5,46.9,51.6,47.2L51.6,47.2z M31.7,47l2.2,0.1c0,0,2.2,1.9,3.3,3h7.5c4.1,0,7.5,0,7.5,0L51.7,51L27,51
			c0,0,1.5-1.4,2.1-1.7C30.1,48.6,30.9,48,31.7,47z M16.6,48c0.2,0.6,0.3,1.2,0.6,1.8l-1.7,0.9C15.7,49.7,16.1,48.9,16.6,48L16.6,48
			z M64.2,53c-0.3,0.9-1.2,2.8-2.3,4.3c-0.2,0.3-0.4,0.5-0.4,0.5l2.1,2l-1.8,1.9c1,1.1,1.9,2.7,2.3,4c-0.8-0.3-1.3-0.5-2.3-1.1
			c-0.3-0.7-0.6-1.5-0.9-2.2c-0.7-1.5-0.7-1.4-0.1-1.8c0.9-0.7,1.2-0.8,0.9-1.1c-0.2-0.2-1.2-1.5-1.3-1.5c-0.1-0.1-0.1-0.2,0.1-0.5
			c0.6-1.1,1.1-2.3,1.4-3.4L64.2,53z M64.6,53l0.1,12.7c-0.8-1.5-1.5-3.1-2.4-4l1.9-2c-0.7-0.7-1.1-1.1-2.1-2
			C63,56.4,63.7,54.6,64.6,53z M11.3,53.5l2.4,1.4c-0.1,1.8-0.3,4.1-0.5,6.5c-0.2,1.9-0.3,2.7,0,3.2c0.3,0.4,1,0.8,1,0.8
			c-1.3,0.5-1.8,2-0.3,3.2c0,0-0.3,0.3-0.5,0.4l-2-1.5L11.3,53.5z M49,54.1c-0.6,0.7-1.5,1.7-2.3,2.2c-1,0.6-2.3,1.9-2.3,1.9
			c0,0-1.4,0-2.4,0l-3.3-3c0,0,0.1,0-4.4,0c-5.8,0-10.5,0-10.5,0l0.7-0.9L49,54.1z M60.8,54.7c-0.3,1.1-0.8,2-1.5,2.9
			c-0.1-0.6-0.2-1.3-0.5-1.9L60.8,54.7z M14,55l0.3,0.2c0,0-0.2,2.2-0.2,2.8c-0.1,1.2-0.2,2.3-0.3,3.5c-0.2,2.4-0.2,2.8,0.3,3.1
			c0.4,0.3,0.6,0.1,0.3-0.2c-0.2-0.3-0.2-0.3-0.3-0.7c0-0.3,0-0.7,0-1.8c0.4-6.3,0.4-6.6,0.4-6.6l0.7,0.5c0,0.1,0.7,6.4,0.6,8
			c-0.1,1.8-2.5,1.4-2.7,0.1c0-0.3,0.4-5.4,0.4-5.4L14,55z M34,55.4l1,0l5.9,5.5l2,0l-0.2,0.7l-2,0L34,55.4z M37.7,55.4h0.9l3.4,3.1
			l2.1,0l-0.4,0.6l-2.1-0.1L37.7,55.4z M36.6,55.4l5,4.5l1.7,0.1L43,60.7l-2-0.1l-5.6-5.2L36.6,55.4z M31.7,55.4h1l7.9,7.1l2.1,0
			l0,0.6l-2.5,0L31.7,55.4z M58.2,55.6c0.4,0.1,0.6,0.5,0.9,2c0.3,1.7-0.4,4.6-1.3,5.1c-0.5,0.4-1,0-0.7-0.5
			c1.1-1.6,1.3-4.2,0.6-5.7C57.5,56,57.7,55.5,58.2,55.6z M24.8,55.9c2.5,0,3.2,5.2,0.7,5.9c-1.6,0.2-2.4-1.2-2.7-2.5
			C22.6,57.6,23.3,55.9,24.8,55.9z M23.4,59c0.2,1,0.8,2.2,1.7,2.1c1.2-0.1,1.4-1.8,1.3-2.6c-0.1-1-0.7-1.9-1.6-2
			C23.5,56.5,23.3,58.2,23.4,59z M24.8,57c0.4,0,0.6,0.5,0.5,1c-0.1,0.4-0.2,0.8-0.6,0.5c-0.2-0.2-0.4-0.7-0.3-1.1
			C24.4,57.2,24.5,57,24.8,57z M59.4,58.2l1.2,1.4l-1.3,0.9C59.4,59.8,59.5,59,59.4,58.2z M25.6,58.3c0.2,0,0.4,0.2,0.4,0.4
			c0,0.2-0.2,0.4-0.4,0.4c-0.2,0-0.4-0.2-0.4-0.4C25.2,58.5,25.4,58.3,25.6,58.3z M24.3,58.5c0.2,0,0.4,0.2,0.4,0.4
			c0,0.2-0.2,0.4-0.4,0.4s-0.4-0.2-0.4-0.4C23.9,58.7,24,58.5,24.3,58.5z M25,59c0.2,0.1,0.3,0.2,0.4,0.4c0.3,0.4,0.3,0.9,0.1,1.1
			c-0.4,0.4-0.9,0-0.9-0.7C24.7,59.3,24.9,59,25,59L25,59z M28.3,60.5c0.6,0,0.7,0.7,0.2,1c-0.3,0.2-0.4,0.9-0.2,1.8
			c0.2,0.7,0.1,0.8-0.3,0.2C27.4,62.4,27.5,60.5,28.3,60.5L28.3,60.5z M27,60.9c0.5,0,0.6,0.4,0.4,0.6c-0.2,0.2-0.1,0.7,0,1.1
			c0.3,0.6,0.2,0.8-0.3,0.2C26.5,62.1,26.5,60.9,27,60.9L27,60.9z M59,61.2c0.5,0.7,1,1.7,1.5,2.8l-2.4-1.1L59,61.2z M24.2,64.1
			c-0.2-0.2-0.2-0.8-0.4-1.1c-0.1-0.3-0.2-0.5-0.4-0.5c-1,0.1-1-0.9-0.4-1.1C24.3,61.1,24.7,64,24.2,64.1z M29.2,63.1
			c-0.2,0.5,0,0.8,0,1.3c0,0.2,0,0.3-0.2,0.1c-0.5-0.4-0.7-1.8-0.3-2.1C29.3,62.2,29.5,62.8,29.2,63.1z M53.1,62.5
			c0.2,0,0.5,0.2,0.6,0.5c0.2,0.5,0.2,1.7,0.1,2.3c-0.1,1-0.4,1.8-0.5,2.5c-0.3,0.4-1.2-1-1.2-2.1c-0.1-0.9,0.2-2.7,0.9-3.1
			L53.1,62.5L53.1,62.5z M56.3,62.6c0.2,0,0.2,0.1,0.3,0.2c0.2,0.2,0.3,0.3,0.7,0.4c0.7,0.2,1.4,1.2,1.1,1.5
			c-0.2,0.2-0.9-0.2-1.1-0.2c-0.2-0.1-0.5-0.2-0.6-0.2c-0.6-0.2-1.4-1.3-1.1-1.5C55.7,62.7,56.1,62.6,56.3,62.6L56.3,62.6z
			 M54.6,62.8c0.4,0,0.5,0.1,0.8,0.6c0.4,0.7,1,1.2,2,1.4c1.2,0.4,2.3,1.1,2.2,2.4c-0.3,0-0.6,0-0.9,0.1c-0.3-1-1.2-1.5-1.9-1.7
			c-1.7-0.4-3.3-2.1-2.8-2.8C54.2,62.8,54.4,62.8,54.6,62.8L54.6,62.8z M25.5,62.9l14.6,12.7c-6.2-2.3-11.8-2.2-17.3-1.4L25.5,62.9z
			 M31.7,63.7c0,0.4-0.6,0.5-0.7,0.6c-0.3,0.2-0.2,0.9-0.1,1.7c0.1,0.5,0,0.5-0.3,0.1c-0.4-0.7-0.4-1.8-0.1-2.5
			C30.9,62.7,31.8,63.2,31.7,63.7L31.7,63.7z M23.3,63.1c0.6,0.1,0.7,0.8,0.7,1.3c0,0.7-0.2,0.7-0.3,0c-0.1-0.3-0.1-0.4-0.4-0.5
			C22.8,63.8,22.8,63.1,23.3,63.1z M30.1,63.9c-0.1,0.2-0.1,0.9,0,1.4c0.1,0.3-0.1,0.3-0.2,0.1c-0.6-0.7-0.7-1.9-0.1-2.1
			C30.2,63.1,30.3,63.6,30.1,63.9L30.1,63.9z M23.8,65.3c0,0.7-0.1,0.8-0.4,0.1c-0.1-0.2-0.2-0.3-0.2-0.4c-0.4-0.3-0.5-0.5-0.2-0.7
			C23.5,63.9,23.8,65.1,23.8,65.3z M25.9,64.7l-2,8.5c4.9-0.4,7.1-0.5,12.3,0.5L25.9,64.7z M31.8,64.8c0.3,0.1,0.4,0.5,0.1,0.8
			c-0.1,0.1-0.2,0.4-0.1,1c0.2,0.8-0.1,0.6-0.5-0.2C31,65.9,31.1,64.6,31.8,64.8z M22.5,64.8c0.5,0,1,0.9,1,1.8c0,0.8-0.1,0.7-0.4,0
			c-0.2-0.5-0.4-0.7-0.7-0.8C21.8,65.6,21.8,64.8,22.5,64.8z M26.1,65.1l9.2,8c-3.8-0.6-7.4-0.6-11-0.2L26.1,65.1z M33.7,65.4
			c0.7,0,1,0.9,0.1,1.2c-0.5,0.2-0.3,1.3-0.2,1.9c0,0.2,0,0.3-0.2,0C32.9,67.7,32.6,65.6,33.7,65.4L33.7,65.4z M32.7,66.4
			c-0.1,0.2-0.1,0.4-0.1,0.8c0.2,0.9,0.3,1-0.2,0.6c-0.5-0.5-0.7-1.6-0.3-1.9C32.7,65.5,33.1,65.9,32.7,66.4L32.7,66.4z M14.6,65.7
			c0.9,0,1.5,0.5,1.4,1.3c0,0.8-0.6,1.4-1.3,1.4c-0.9,0-1.4-0.7-1.4-1.4C13.3,66.5,13.7,65.7,14.6,65.7L14.6,65.7z M14.6,66.1
			c-1,0-1.3,1.3-0.5,1.9c0.3,0.3,0.6,0.2,0.3-0.1c-0.5-0.5-0.3-1.4,0.4-1.5C15.2,66.3,15,66.1,14.6,66.1L14.6,66.1z M26.5,66.3
			L25.3,72c2.4-0.4,5.3-0.3,7.5,0L26.5,66.3z M22.5,66.5c0.6,0,0.8,0.8,0.8,1.2c0,0.5-0.1,0.7-0.1,0.4c-0.2-0.6-0.4-0.9-0.6-0.9
			c-0.1,0-0.2-0.1-0.3-0.2C22,66.8,22.2,66.5,22.5,66.5z M26.6,66.7l0.8,0.7c-0.5-0.2-0.9,0.3-0.9,0.3L26.6,66.7z M34.5,67.8
			c-0.2,0.3-0.2,0.9,0,1.6c0,0.2-0.1,0.1-0.3-0.2c-0.3-0.4-0.5-0.9-0.4-1.4C33.8,66.8,35.1,67,34.5,67.8L34.5,67.8z M22.3,67.3
			c0.5,0.1,0.7,1.1,0.7,1.4c0,0.3-0.1,0.6-0.2,0.4c-0.1-0.4-0.4-1.1-0.6-1.2C21.8,67.6,21.9,67.3,22.3,67.3L22.3,67.3z M60.6,68.5
			c0,0.4-0.1,0.7-0.4,0.9c-0.2,0.1-0.4,0-0.5-0.5c-0.1-0.3-0.1-0.4-0.1-0.4l-0.1,0.5c-0.2,0.5-0.8,0.5-1-0.1c-0.3-0.7,0.5-1.4,1-1.4
			C60.1,67.5,60.5,67.9,60.6,68.5L60.6,68.5z M27.2,67.7c0.2,0,0.9,0.3,0.9,0.3l0.7,0.6c0,0-0.6-0.3-0.8-0.3
			c-0.5-0.2-0.5-0.2-0.9,0.2c-0.4,0.4-0.8,0.6-0.8,0.6l0.1-0.8C26.3,68.2,26.9,67.7,27.2,67.7L27.2,67.7z M22.8,69.6
			c0.1,0.8-0.1,0.9-0.3,0.1c-0.2-0.7-0.4-0.9-0.7-0.9c-0.6,0.1-0.8-0.8-0.3-1C22.4,67.5,22.7,69.3,22.8,69.6z M57.2,67.8l0.9,0.4
			l0.2,1L57.4,69L57.2,67.8z M36.4,67.9c0.9-0.2,1,0.9,0.3,1c-0.4,0.1-0.4,0.7-0.3,1.7c0,0.2,0.1,0.5,0.1,0.5
			c-0.1,0.2-0.3-0.1-0.6-0.7C35.5,69.3,35.7,68.1,36.4,67.9L36.4,67.9z M61.9,67.9L61.6,69l-0.8-0.1l0-0.7L61.9,67.9z M35.5,68.6
			c-0.4,0.6,0,1.2,0.1,1.7c0,0.3-0.3,0-0.6-0.4c-0.4-0.9-0.5-1.6-0.1-1.9C35.5,67.7,35.7,68.3,35.5,68.6z M27.5,68.4
			c0.2,0,0.4,0.1,0.8,0.3c0.3,0.1,1.1,0.4,1.1,0.4l1,0.9c0,0-0.9-0.3-1.5-0.6c-1.4-0.6-1.2-0.6-2.3,0.2c-0.3,0.2-0.6,0.5-0.6,0.5
			l0.1-0.7c0,0,0.4-0.4,0.9-0.8C27.2,68.5,27.3,68.4,27.5,68.4L27.5,68.4z M14.6,68.8c0.7,0,1.2,0.5,1.3,1.2c0.1,0.4,0,0.7,0,1
			c-0.5,3.7-0.7,7.2-1.1,10.7c-0.1,0.2-0.1,0.1-0.2-0.2c-0.5-3.1-0.9-6.6-1.3-9.7c-0.1-1.2-0.4-2.7,1.1-3L14.6,68.8L14.6,68.8z
			 M14.6,69.2c-0.3,0-0.7,0.2-0.8,0.5c-0.3,0.6-0.2,1.7,0.3,5.2c0,0.3,0.1,0.8,0.1,1.1c0.1,0.9,0.2,1.6,0.3,1.8
			c0.2,0.3,0.2,0,0.1-0.9c-0.1-0.5-0.1-1.2-0.2-1.5c-0.2-1.6-0.3-2.8-0.4-4.3c-0.1-0.7,0.2-1.3,0.8-1.4c0.3-0.1,0.3-0.2,0-0.3
			L14.6,69.2z M61.2,69.2c1,0,1.4,1.4,0.4,2c-0.4,0.2-1,0.1-1.2-0.2c-0.1-0.2,0-0.4,0.2-0.5c0.2-0.1,0.6-0.2,0.6-0.2
			s-0.5-0.1-0.7-0.4C60.2,69.4,60.8,69.2,61.2,69.2L61.2,69.2z M22.5,70.8c0,0.3-0.2,0.2-0.2,0c-0.1-0.4-0.3-0.8-0.5-0.9
			c-0.2-0.2-0.3-0.4-0.1-0.6C22.2,68.7,22.5,70.6,22.5,70.8z M57.4,69.2c0.3,0,0.6,0.1,0.8,0.3c0.3,0.3,0.3,0.4-0.2,0.6
			c-0.2,0.1-0.4,0.2-0.4,0.2s0.2,0.1,0.4,0.1c0.5,0.2,0.4,0.4,0,0.8c-0.6,0.4-1.5-0.1-1.5-0.9C56.5,69.6,56.9,69.2,57.4,69.2
			L57.4,69.2z M59.6,69.2l0.9,1l-1.1,1.1l-1-1.1L59.6,69.2z M27.6,69.3L27.6,69.3c0.3,0,0.8,0.2,1.9,0.7c0.6,0.3,1.4,0.5,1.4,0.5
			l1,0.9c0,0-1.4-0.4-1.9-0.7c-0.1-0.1-0.3-0.2-0.5-0.2c-0.2-0.1-0.6-0.2-1-0.4c-0.8-0.3-0.8-0.3-1.1-0.1c-0.1,0.1-0.4,0.3-0.6,0.5
			c-0.2,0.2-0.6,0.4-0.7,0.6c-0.2,0.2-0.5,0.4-0.5,0.4l0.2-0.9c0,0,0.1-0.1,0.4-0.3c0.2-0.2,0.6-0.4,0.8-0.6
			C27.3,69.4,27.4,69.3,27.6,69.3z M37.7,70.1c0,0.2,0,0.2-0.2,0.4c-0.3,0.3-0.3,0.7-0.1,1.3c0.1,0.2,0.1,0.3,0.1,0.4
			c-0.3,0.3-1-1.5-0.8-2C36.9,69.5,37.6,69.5,37.7,70.1L37.7,70.1z M21.6,70.2c0.2,0,0.4,0.1,0.5,0.4c0.3,0.9,0.1,1.9-0.2,0.9
			c-0.1-0.2-0.2-0.4-0.3-0.5c-0.1-0.1-0.4-0.3-0.3-0.4C21.3,70.3,21.4,70.2,21.6,70.2z M27.9,70.2c0.1,0,0.3,0.1,0.6,0.2
			c0.3,0.1,1,0.4,1.4,0.5c0.7,0.3,1.4,0.6,1.4,0.6l-1.5-0.1c0,0-0.5-0.2-0.8-0.3c-1.1-0.5-1-0.5-1.6,0c-0.2,0.1-0.4,0.4-0.4,0.4
			l-0.8,0c0,0,0.4-0.4,0.9-0.8c0.2-0.1,0.4-0.3,0.5-0.4C27.7,70.2,27.8,70.2,27.9,70.2L27.9,70.2z M39.7,70.5
			c0.4-0.1,0.6,0.3,0.6,0.6c0,0.3-0.3,0.5-0.7,0.6c-0.1,0.3-0.3,1-0.2,2c0.1,0.5-0.1,0.5-0.3,0C38.8,73,38.3,70.8,39.7,70.5
			L39.7,70.5z M38.5,71.3c-0.2,0.4-0.2,0.7-0.1,1.2c0.1,0.5,0.1,0.7-0.2,0.3c-0.6-0.8-0.7-2-0.1-2.2C38.5,70.5,38.6,71.1,38.5,71.3z
			 M20.9,70.7c0.9,0.1,1.2,1.7,1.1,2.4c-0.2,0.8-0.2,0.3-0.3-0.1c-0.2-0.8-0.5-1.3-0.8-1.3C20.1,71.6,20.2,70.6,20.9,70.7L20.9,70.7
			z M27.9,71.1L27.9,71.1c0.3,0.1,1.2,0.3,0.8,0.4l-1.2,0C27.3,71.5,27.7,71.1,27.9,71.1L27.9,71.1z M59.9,71.3
			c0.1,0,0.3,0.1,0.5,0.3c0.4,0.4,0.2,1.1-0.3,1.4c-0.9,0.5-1.9-0.5-1.4-1.4c0.3-0.5,0.6-0.4,0.9,0.3c0.1,0.1,0-0.1,0.1-0.3
			C59.7,71.5,59.8,71.3,59.9,71.3L59.9,71.3z M58.4,71.4l-0.3,1.1L57,73l0.4-1.3L58.4,71.4z M60.7,71.5l0.9,0.1L62,73l-1.3-0.5
			L60.7,71.5z M40.1,72.3c0.6,0,0.7,0.6,0.3,0.9c-0.2,0.2-0.3,0.5-0.2,0.9c0,0.2,0.1,0.4,0.1,0.5c0,0.1-0.1,0.1-0.2,0
			C39.4,73.9,39.5,72.3,40.1,72.3z M20.9,72.6c0.4,0,0.9,1.2,0.6,1.6c-0.1,0.3-0.3,0.2-0.3-0.1c0-0.2-0.2-0.5-0.5-0.6
			C20.3,73.3,20.4,72.6,20.9,72.6z M41.3,73.3c0.3,0.2,0.3,0.5,0.1,0.7c-0.2,0.2-0.3,0.3-0.3,0.7c0.1,0.9-0.5,0.3-0.5-0.5
			C40.5,73.7,40.7,73,41.3,73.3z M20.6,73.6c0.3,0,0.6,0.5,0.6,0.8c0,0.2-0.2,0.2-0.3,0l-0.3-0.1C20.1,74.1,20.2,73.6,20.6,73.6
			L20.6,73.6z M28.8,74c3.9,0,7.9,0.6,11.3,2l-0.3,0.5l-0.9-0.3l-0.3,0.8l0.7,0.3L39,77.9c-4-1.3-8.3-2.3-15.4-1.2
			c-0.4-0.2-1-0.7-1-0.7l0.6-0.1l-0.1-0.8l-1.4,0.3l-0.4-0.4C23.5,74.3,26.1,74,28.8,74L28.8,74z M41.9,74.1c0.4,0,0.6,0.4,0.3,0.6
			c-0.2,0.1-0.6,0.2-0.7,0.1C41.3,74.6,41.6,74.1,41.9,74.1z M28.2,74.6l0,0.8l1.2,0l0-0.8L28.2,74.6z M30.3,74.6l0,0.8l1.1,0
			l0.1-0.8L30.3,74.6z M27.3,74.7l-1.2,0.1l0,0.8l1.1-0.1L27.3,74.7z M32.5,74.8l0,0.8l1.2,0.1l0.1-0.8L32.5,74.8z M25.2,74.9L24,75
			l0.1,0.8l1.1-0.1L25.2,74.9z M34.7,75.1l-0.1,0.8l1.1,0.2l0.1-0.8L34.7,75.1z M36.9,75.6l-0.1,0.8l1.1,0.2l0.1-0.8L36.9,75.6z
			 M29.1,76.5c3.7,0,7,0.6,9.8,1.7c0,0-0.4,0.8-0.5,0.9c-2-0.8-5.4-1.6-7.8-1.6c-0.8,0-1-0.1-1.3-0.2c-1.8-0.6-3.3-0.8-4.8,0
			l-0.6-0.4C25.7,76.7,27.4,76.5,29.1,76.5L29.1,76.5z M13.6,81.2c0.8,0,1.2,1.3,0.4,1.8c-0.2,0.1-0.5,0.1-0.8,0
			c-0.7-0.3-0.8-1.4,0.1-1.8C13.4,81.2,13.5,81.2,13.6,81.2L13.6,81.2z M40.9,81.3c0.3,0.2,1.4,0.7,1.4,0.7L34.6,96l-1.9,0
			L40.9,81.3z M15.9,81.3c0.5-0.1,0.8,0.3,0.9,0.7c0.2,0.5-0.1,1.3-0.9,1.2C15,83.1,14.5,81.4,15.9,81.3z M42.6,82
			c0.2,0.1,1,0.2,1,0.4c0,0.1,0,0.2,0,0.4c0,0.4,0.1,0.9,0.3,1.3c0.4,0.6,0,0.3-0.5,0.3c-1-0.3-2.3,1.1-1.8,2.5
			c0.1,0.3,0.1,0.3-0.4,0.5c-1.2,0.4-1.7,1.7-1.2,2.8c0.3,0.6,0.3,0.6-0.2,0.6c-1.5,0.1-2.3,1.4-1.7,2.8c0.1,0.2,0,0.3-0.3,0.3
			c-1,0.2-1.5,1-1.6,2l-1.3,0L42.6,82z M43.9,82.5l2.6,0.7c-1.1,3.6-1.2,7.9,0.1,12.8l-5.9,0c0.8-0.7,0.5-1.8-0.5-2
			c0.9-0.5,0.9-2-0.2-2.1c-1-0.2-1.5,0.8-1.1,1.7l-0.4,0.1c0,0-0.2-0.2-0.2-0.4c-0.4-1.1,0.4-2.2,1.7-2.2c0.8,0,1-0.2,0.5-0.7
			c-0.8-0.9-0.6-2.2,0.5-2.7c0.5-0.2,0.8-0.1,0.8-0.1l0,0.6c0,0-0.2,0-0.3,0c-1.2,0.2-0.9,2,0.2,2c0.6,0,1.1-0.5,1.1-1.2
			c0-0.2,0-0.5,0-0.5c0.6,1,1.6,1.1,2.1,0.3c0.5-1-0.4-1.6-1.4-1.5c0,0,0.2-0.1,0.3-0.2c1-0.5,0.7-2-0.4-2c-0.8,0-1.2,0.7-1,1.5
			c0,0.1,0.1,0.3,0.1,0.3l-0.4,0.1L42,87c-0.8-1.2,0.5-2.5,2-2.2c0.6,0.2,0.6-0.2,0.2-0.6C43.9,83.7,43.6,83.1,43.9,82.5L43.9,82.5z
			 M14.8,83l1.4,2.4l-1.5,2.8l-1.5-2.6L14.8,83z M14.7,84.3l-0.9,1.3l0.9,1.5l0.9-1.5L14.7,84.3z M14.6,84.8l0.6,0.8l-0.6,1L14,85.7
			L14.6,84.8z M42.5,87.4c0.3,0,0.5,0.2,0.5,0.5s-0.2,0.5-0.5,0.5c-0.3,0-0.5-0.2-0.5-0.5S42.3,87.4,42.5,87.4z M38.9,93.8
			c0.3,0,0.5,0.2,0.5,0.5s-0.2,0.5-0.5,0.5s-0.5-0.2-0.5-0.5S38.6,93.8,38.9,93.8z M38.1,94.2c0,0,0,0.5,0.1,0.7c-0.8,0-1,0.6-1,1.1
			l-0.7,0C36.6,94.3,38,94.3,38.1,94.2L38.1,94.2z"/>
		<path class="st3" d="M20.6,11.3c-3.1,4.4-6.4,6.9-6.4,10.4c0,1.1,0.6,3,2.5,3.4c1.2,0.2,2.9-0.8,2.9-2.8c0-0.4,0.4-0.4,0.4,0.2
			c-0.1,1.6-0.6,3.4-1.4,4.9c1.3,0,2.7,0,4,0c-0.8-1.5-1.3-3.4-1.4-4.9c0-0.5,0.4-0.6,0.4-0.2c0,2,1.7,3,2.9,2.8
			c1.9-0.4,2.5-2.3,2.5-3.4C27,18.2,23.7,15.7,20.6,11.3L20.6,11.3z"/>
		<path class="st3" d="M55.3,93.8c-3.1-4.4-6.4-6.9-6.4-10.4c0-1.1,0.6-3,2.5-3.4c1.2-0.2,2.9,0.8,2.9,2.8c0,0.4,0.4,0.4,0.4-0.2
			c-0.1-1.6-0.6-3.4-1.4-4.9c1.3,0,2.7,0,4,0c-0.8,1.5-1.3,3.4-1.4,4.9c0,0.5,0.4,0.6,0.4,0.2c0-2,1.7-3,2.9-2.8
			c1.9,0.4,2.5,2.3,2.5,3.4C61.7,86.8,58.4,89.4,55.3,93.8L55.3,93.8z"/>
	</g>
</g>
</svg>
