<?xml version="1.0" encoding="utf-8"?>
<!-- Generator: Adobe Illustrator 19.1.0, SVG Export Plug-In . SVG Version: 6.00 Build 0)  -->
<svg version="1.1" xmlns="http://www.w3.org/2000/svg" xmlns:xlink="http://www.w3.org/1999/xlink" x="0px" y="0px"
	 viewBox="0 0 75.3 105.3" style="enable-background:new 0 0 75.3 105.3;" xml:space="preserve">
<style type="text/css">
	.st0{display:none;}
	.st1{fill:#FFFFFF;}
	.st2{fill:none;stroke:#010101;stroke-width:0.9967;}
	.st3{fill:#010101;}
	.st4{fill:none;stroke:#010101;stroke-width:1.0006;}
	.st5{fill:#E1CF20;}
	.st6{fill:#262964;}
	.st7{fill:#D31F26;}
	.st8{fill:#14130F;}
	.st9{fill:none;stroke:#010101;stroke-width:0.9929;}
	.st10{fill:#F6EB16;}
	.st11{fill:none;stroke:#010101;stroke-width:1.83;}
	.st12{clip-path:url(#SVGID_2_);}
	.st13{clip-path:url(#SVGID_4_);}
</style>
<g id="Layer_1" class="st0">
</g>
<g id="Layer_2">
	<g>
		<path class="st1" d="M4,0.5h67.5c2,0,3.6,1.6,3.6,3.6v97.3c0,2-1.6,3.6-3.6,3.6H4c-2,0-3.6-1.6-3.6-3.6V4.1C0.5,2.1,2.1,0.5,4,0.5
			z"/>
		<path class="st4" d="M4,0.5h67.5c2,0,3.6,1.6,3.6,3.6v97.3c0,2-1.6,3.6-3.6,3.6H4c-2,0-3.6-1.6-3.6-3.6V4.1C0.5,2.1,2.1,0.5,4,0.5
			z"/>
		<path class="st5" d="M47.4,9.3c0,0,8.5,12.3,11.4,14.5c0.2,0.1,3.8-0.6,3.8-0.6c-1.8-4.4-3-8.9-1.8-14L47.4,9.3z M52.1,28.8
			c-5.8,1.7-11.7,3.2-18,0.5L27.2,36c-0.1,0.2,8.4,3.8,8.5,3.4c-4.1,11.2,2.3,13.2,6.4,0.9c5.4-0.7,11.8-1.4,17.1-5.1
			C54.6,32.4,52.1,28.7,52.1,28.8z M17,30.8c-2.2-1.4-3.9,1.4-2.3,2.8c-0.2,0.8-0.3,2,0.5,2.6c0.7,0.5,2.1,0,2.3,0
			c0,0,0,1.5-0.1,1.5c-0.2,0-1-0.7-1.5-0.8c-1.7-0.5-4-0.7-3.9-0.7c0.1,0.1-0.4,0.5,1.4,1.6c0.7,0.4,2.8-0.1,4.6,0.5
			c1,0.3,2,0.9,2.6,0.6c1.5-0.4,2.1-2.4,2-2.4c-0.1-0.1-4.5,1.2-4.1,1.4l0-1.7c1.8,0.2,3.4-1.1,1.6-3.3C21.3,31.6,19.5,28.5,17,30.8
			L17,30.8z M24.4,38.6C20,43,11.1,51.3,11.1,51.3l0.1,6.2l8.7,7.8c0.7-8.3,5.4-16,9.9-19.9C30.2,44.2,25.3,39,24.4,38.6z
			 M55.4,40.1c-0.7,5.1-1.3,12.1-9.9,19.8c1.5,2.6,3.4,5.2,6.1,6.4c0.2,0.4,7.9-8,12.7-12l0-5.4L55.4,40.1z M16.5,41.2
			c0,0.1-0.3,1.5-0.4,1.4c0,0.1,0.9-0.3,1-0.7c0.1-0.3,0.3-0.8,0.3-0.8C17.2,39.7,16.8,40.7,16.5,41.2z M13.3,44.8
			c-0.3,0.8-0.6,2.2-0.5,3.1c1.5,0.8,2-2.5,1.5-2.8C14.1,45,13.5,44.8,13.3,44.8z M61,59.6c-0.1,0.6-0.1,0.8,0.2,1
			c0.5,0.2,0.7,0,1.1-1.1c0.2-0.6,0.5-1.6,0.3-1.9C61.6,56.8,61.1,59.1,61,59.6L61,59.6z M34,65c-6.3,1-12.7,1.6-17.7,5.6
			c0.6-0.1,6.7,5.7,7,6.5c9.3-4.6,18.4-1.1,18.4-1.1l6.8-6.6c0.3-0.1-7.4-3.3-8.9-3.8C44.8,51.4,36.5,53.5,34,65L34,65z M59,63.4
			c-0.4,0.3-0.6,0.6-0.9,1.1l0.3,0.5l0.8-0.9L59,63.4z M53,69.3c0.9-0.4,4-1.9,4.1-1.6L57,69.3c-0.5-0.2-3.6,0.4-1.8,3.5
			c-1.1,2.5,1.4,3.8,3.1,2.2c3.7,1.3,3.2-2.4,2.4-3c0.6-0.9-0.2-2.9-0.5-2.9c0,0,3.2,0.7,2.9,0.2c-0.1-0.3-0.3-0.7-1-1.2
			c-0.8-0.5-2.3-0.4-3.4-0.6c-1.2-0.3-2-0.7-3.1-0.8C54,66.8,52.6,68.2,53,69.3L53,69.3z M17.3,81.3l-4.4,1.2c0,0,1.4,3.3,1.9,6.3
			c0.6,3.6,0.1,7.6,0.1,7.6l12.8,0.1L17.3,81.3z"/>
		<path class="st7" d="M28.8,96.3c-5.6-8-10.8-15.7-17.7-24.1c0,0,0-3.3,0-6.5l21.2,30.6L28.8,96.3z M40.2,83.4
			c-0.2-1.5-0.5-3.4-0.9-4.9l3.9-3.7C42.7,78,42,80.5,40.2,83.4z M58.7,71.8c0.9,1.2-0.6,1.8-1.1,1.3C56.4,72,58.1,70.9,58.7,71.8z
			 M20.3,64.5c-0.6,0.4,1.2-10.1,6.1-15.5C29.4,57.6,24.1,62.5,20.3,64.5z M44.6,64.5l-3.3-0.9l1.5-4.6c0,0,3.2,0.7,2.9,1.7
			C44.9,63.8,44.6,64.5,44.6,64.5z M29.4,62.7c0.9-1.5,1.6-3.1,2.2-4.7l3.3-0.1l-1.7,4.6L29.4,62.7z M49.2,56.2
			c-2.5-5.1,0.5-13.1,6-15.3C55,46.1,53.4,51.3,49.2,56.2z M32.1,54.8c0.1-1.8-0.1-3.7-0.3-5.4c3.5,0.8,7.3,1.4,11.5,1.5l0.4,4.9
			C40,55.1,36.2,54.6,32.1,54.8z M40.5,47.4c0.4-1.5,0.9-3,1.5-4.4l4-0.2c0-0.1-1.7,2.7-2.1,4.7C43.3,47.4,40.5,47.4,40.5,47.4
			L40.5,47.4z M32.9,46.2c-1.2-0.4-2.8-0.5-3.4-1.4l1.2-3.9l3.6,1.1L32.9,46.2z M43,9.3l2.8,0c0,0,13.5,17.4,18.6,24.2
			c-0.2,0.7,0.1,6.5,0.1,6.5C57.3,29.8,43,9.3,43,9.3z M17.1,33.6c-0.8-0.8,0.4-1.5,0.9-0.8C18.5,33.4,17.5,34,17.1,33.6z
			 M32.3,30.8c0-4,2.9-8.8,2.9-8.7c0,0,0.4,3.9,1,5.2C35.9,27.5,32.4,31,32.3,30.8z"/>
		<path class="st6" d="M10.5,8.7v88.1h54.6V8.7H10.5z M60.5,9.3c-0.4,4.9-0.5,8.7,2,13.7c-0.5,0.5-3.9,0.6-5,1.2
			c0,0.1,0.3,0.4,0.3,0.4c1.1-0.5,5.5-1,5.5-1c-1.8-3.2-3.4-9.5-2.2-14.3h3.3v23.6c0,0,0,4.5,0.1,7c-1.7-2.2-3.9-5.2-5.3-7.5
			c-1.8-2.5-3.8-5.5-5.8-8.2c-0.6-0.9-1.5-2-2.2-3c-1.1-1.6-2-2.8-3.1-4.5c-1.2-1.8-2.4-3.3-3.8-5.4c-1.2-1.7-1.3-2-1.3-2H60.5z
			 M39.6,9.3c2.1,3.6,5.8,4.9,6.7,5.1l0.5,0.8c-4.4-0.9-6.7-3.7-7.8-5.4C38.9,9.7,39,9.3,39,9.3H39.6z M37.5,9.3
			c-0.6,1.4-1.4,2.2-2.1,3l0-0.9c0,0.1,1.1-1.2,1.5-2.1H37.5z M38.5,9.3c0,0,0,0.3-0.1,0.5c-0.4,1.4-3.2,4.1-3.1,3.7l0-0.7
			c0,0,2-2,2.6-3.5H38.5z M36.6,9.3c-0.2,0.4-1,1.6-1.1,1.3l0.1-1.3H36.6z M42.8,9.3c0.3,0.5,0.7,0.9,1,1.4c0.1,0.1,0.1,0.2,0.1,0.3
			c-0.1,0.1-0.2,0-0.7-0.4C42.5,10,42,9.3,42,9.3H42.8z M40,9.3h0.7c1.4,2.3,3.9,3.6,4.7,3.8c0.2,0.3,0.5,0.7,0.6,0.8
			C43.7,13.4,41.1,11.4,40,9.3z M41.6,9.3c0.7,1.1,1.9,1.8,2.5,2.4c0.3,0.3,0.8,0.8,0.8,0.9c-1.4-0.5-3.1-2.1-3.9-3.3H41.6z
			 M38.8,10l0.4,0.6c-1,1.6-2.2,3.1-3.8,4.2l0-0.8C37.2,12.7,38,11.4,38.8,10L38.8,10z M39.5,11c1.2,1.6,3.7,4,7.7,4.7
			c0,0,0.2,0.2,0.6,0.7c0.4,0.6,0.4,0.6,0.5,1.5c0,1.7,0.6,4.1,1.2,5.6c-0.1,0.4-0.1,0.6-0.8,1.5c-2.9,3.9-9,7.6-12,2.6
			c-1-1.6-1.1-4.7-1.2-6.6l0-0.2c0.1-0.3,0.2-0.3,0.7-0.1c0.6,0.2,1.1,0,1.7-0.1c0.7-0.3,0.7-0.1,0.1,0.5c-0.2,0.2-0.5,0.5-0.5,0.5
			c0,0,0.4-0.2,0.6-0.3c0.5-0.4,0.6-0.2,0.4,0.2c-0.8,1.8-0.9,1.9,0.2,2.4c0.2,0.1,0.4,0.2,0.5,0.3c0.8,0.7,0.5,0.3,0.3,0
			c-0.3-0.5,0-0.8,0.5-0.5c0.4,0.2,0.9,0.4,1.1,0.3c0.5-0.2,0.7-0.7,0.5-1.4c-0.1-0.3-0.8-1-0.7-0.3c0.4,0,0.8,0.6,0.4,1
			c-0.3,0.4-0.8,0.2-1.5-0.3c-0.4-0.3-0.9-0.2-0.9,0.2c0,0.3-0.4,0.2-0.6-0.1c-0.1-0.2,0-0.7,0.2-1.2c1.6-3.2,0.2-6.3-2.5-5.5
			c-0.3,0.1-0.6,0.2-0.6,0.2l0-1.2C37,14.2,38.7,12.4,39.5,11L39.5,11z M41.1,16.7c-0.4,0.5-0.3,1,0.6,0.5c0.7-0.4,0.8-0.4,1.7-0.4
			c1.1,0,2.2,0.3,3.5,1.1c0.8,0.5,1,0.6,0.7,0.2C46.9,16.8,42.8,14.8,41.1,16.7z M37.2,16.9c0.8,0.2,1.6,0.7,1.4,1
			c0,0.1-0.1,0.1-0.2,0c-0.6-0.3-1.5-0.8-2.9-0.2c-0.1,0.1-0.2,0-0.2-0.2c0-0.3,0.6-0.6,1.2-0.6C36.7,16.8,37,16.8,37.2,16.9z
			 M41.8,17.9c-0.5,0.2-0.6,0.4-0.8,0.3c-0.5-0.3-0.4-0.1-0.1,0.5c0.2,0.4,0.2,0.5,0.2,0.7c0,0.3,0,0.3,0.2,0.5
			c0.5,0.6,0.9,1.2,1.6,1.6c0.2,0.1,0.5,0.3,0.5,0.3c0.1,0,0-0.1-0.1-0.2c-0.9-0.8-1.6-1.6-0.7-1.3c1,0.3,2-0.1,2.8-0.4
			c0.3-0.1,0.7-0.2,0.8-0.2c0.7,0,0.9-0.3,0.4-0.8C45,17.2,43.7,16.8,41.8,17.9z M45.6,18.2c0.3,0.3,0.5,0.5,0.5,0.6
			c0,0.1-0.3-0.1-0.7-0.3c-0.9-0.5-1.8-0.6-3.1-0.2c-0.9,0.3-0.7-0.2,0.4-0.6C43.5,17.3,44.7,17.4,45.6,18.2L45.6,18.2z M36.8,17.6
			c0.7,0,1.5,0.2,2,0.7c0.4,0.3,0.1,0.4-0.5,0.1c-0.9-0.4-1.6-0.4-2.3-0.1c-0.2,0.1-0.5,0.2-0.6,0.2c-0.1-0.1-0.2-0.3-0.1-0.5
			C35.6,17.8,36.2,17.6,36.8,17.6z M48.7,17.9c0.1,0,0.1,0.1,0.3,0.3c0.2,0.3,0.2,0.5,0,1c-0.2,0.7-0.3,0.5-0.4-0.4
			C48.6,18.1,48.6,17.9,48.7,17.9L48.7,17.9z M49.4,18.8c0.1,0,0.2,0.1,0.3,0.4c0.1,0.2,0.1,0.3-0.3,1.3c-0.1,0.4-0.3,0.7-0.3,0.7
			c-0.1,0.1-0.1,0.1-0.1,0c-0.2-0.3-0.2-0.9,0-1.6C49.2,19.1,49.3,18.9,49.4,18.8L49.4,18.8z M42.9,18.9l0.2,0
			c0,1.5,1.1,1.2,1.3,0.1l0.3,0c0.1,0.2-0.2,0.8-0.6,1c-0.3,0.2-0.8,0.1-1.1-0.1c-0.1-0.1-0.3-0.7-0.3-0.9
			C42.7,19,42.8,18.9,42.9,18.9L42.9,18.9z M42.2,19.1L42.2,19.1c0.1,0,0.2,0,0.3,0.2l0.2,0.7c-0.2,0.2-0.9-0.2-0.9-0.5
			C41.9,19.2,42,19.1,42.2,19.1L42.2,19.1z M37.6,19.1c0.2,0,0.2,0,0.3,0.2c0.1,0.5-0.4,1-1,1c-0.6,0.1-0.9-0.4-0.9-0.9
			c0-0.3,0.3-0.4,0.3-0.1c0.1,0.8,0.8,0.8,1.1,0.4C37.5,19.5,37.4,19.1,37.6,19.1z M45.1,19.2c0,0,0.1,0,0.2,0
			c0.6,0.2,0.6,0.3,0.1,0.5c-0.6,0.2-0.7,0.3-0.5-0.2C44.9,19.4,44.9,19.3,45.1,19.2z M38.4,19.3c0.5,0,0.5,0.4,0.1,0.6
			c-0.6,0.3-0.8,0.3-0.6-0.1C38.1,19.4,38.2,19.3,38.4,19.3z M35.6,19.5l0.2,0.1c0.1,0.2,0.2,0.4,0.3,0.6c-0.1,0.1-0.3,0.1-0.5,0
			C35.3,19.9,35.3,19.5,35.6,19.5L35.6,19.5z M50.1,19.9c0.2,0,0.4,0.3,0.4,0.5c-0.6,0.8-0.5,2.3-0.7,2.8c-0.1,0.4-0.2,0.1-0.5-0.9
			C49.2,21.9,49.9,20,50.1,19.9L50.1,19.9z M50.7,20.7c0.1,0.1,0.3,0.3,0.4,0.6c0,0.2-0.1,0.4-0.1,0.6c-0.1,0.5-0.3,1.5-0.4,2.4
			c0,0.4,0,0.7,0,0.8c-0.2,0.4-0.6-0.6-0.6-1.4C50.1,23.1,50.2,20.8,50.7,20.7L50.7,20.7z M51.6,21.9c0.1,0.1,0.1,0.2,0.2,0.3
			c0,0.2,0,0.4-0.1,0.9c-0.3,1.3-0.2,2.6-0.1,4c0,0.3-0.2,0.1-0.5-0.4c-0.2-0.3-0.3-0.7-0.3-1.1c-0.1-1,0.1-2.3,0.3-3.4
			C51.2,21.8,51.2,21.4,51.6,21.9L51.6,21.9z M52.1,22.6l0.5,0.6c0,0-0.2,1.4-0.2,2.1c0,0.3,0.3,3.3,0.3,3.6c-0.3-0.3-0.5-0.6-0.8-1
			c0,0-0.3-3-0.1-4.1C51.9,23.1,52.1,22.6,52.1,22.6L52.1,22.6z M52.9,23.9c0.1,0,0.2,0.1,0.3,0.3c0.1,0.2,0.2,0.3,0.2,0.5
			c0,0.2-0.1,0.3-0.1,0.6c0,1.7,0.2,3.2,0.5,4.7c0.1,0.5-0.1,0.3-0.4,0c-0.3-0.3-0.3-0.4-0.5-0.9c0-0.1-0.3-3.1-0.3-3.4
			c0-0.9,0-1.5,0.1-1.7L52.9,23.9z M51.1,27.2c0,0-0.6,0.3-0.7,0.2c-0.2-0.7-1.1-2.5-1.2-2.8c0-0.1,0.4-0.6,0.4-0.6
			C50,25.1,50.5,26.2,51.1,27.2z M40,25c-0.2,0.2-0.4,0.1-0.8-0.1c-0.2-0.1-0.2,0-0.5,0.2c-0.3,0.1-0.4,0.1-0.6,0.1
			c-0.2,0-0.3-0.1-0.3,0.1c0,0.1,0,0.5-0.1,0.8c-0.1,0.3-0.1,0.4-0.1,0.5c0.1,0.1,0.2,0,0.5-0.2c0.4-0.4,0.7-0.3,1.2-0.1
			c0.6,0.2,0.7,0.2,1.2,0.1c0.7-0.3,1.1-0.3,1.4-0.1c0.5,0.3,0.6,0.3,0.4-0.6c-0.1-0.3-0.1-0.7-0.1-0.8c0-0.1-0.2,0.2-0.3,0.2
			c-0.2,0.2-0.4,0.2-0.9,0C40.6,25,40.3,24.7,40,25L40,25z M49.1,25.1c0.2,0.5,1.1,2.2,1.1,2.4c-0.2,0.2-0.4,0.3-0.5,0.1
			c-0.4-0.8-0.6-1.2-0.9-2.1C48.6,25.3,48.9,24.8,49.1,25.1L49.1,25.1z M53.7,25.1c0.1,0,0.2,0.1,0.3,0.2c0.3,0.4,0.3,0.4,0.3,0.9
			c0,1.5,0.2,3.4,0.7,4.8c0.1,0.3,0.2,0.6,0.2,0.7c-0.1,0.2-0.8-0.4-1-1.2c-0.3-1.1-0.4-2.3-0.5-3C53.5,26.1,53.5,25.1,53.7,25.1
			L53.7,25.1z M48.5,25.9c0.2,0.5,0.6,1.3,0.8,1.8c0.1,0.2-0.4,0.4-0.5,0.3c-0.2-0.1-0.3-0.6-0.4-0.8c-0.4-0.9-0.5-0.9-0.3-1.2
			C48.2,25.8,48.4,25.6,48.5,25.9z M54.7,26.5l0.1,0.1c0.3,0.3,0.4,0.5,0.5,0.8c0,0.2,0,0.3,0,0.6c0,0.8,0.3,1.9,0.8,4.1
			c0.1,0.2,0.1,0.5,0.1,0.5c-0.1,0.4-0.6-0.3-0.8-0.9c-0.2-0.8-0.6-1.8-0.7-2.7C54.6,27.5,54.5,26.5,54.7,26.5L54.7,26.5z M48,27
			c0.5,1.2,0.5,1.1,0.2,1.2c-0.3,0.1-0.3,0.1-0.7-0.7c-0.3-0.6-0.3-0.6-0.1-0.8C47.7,26.3,47.8,26.7,48,27z M41.2,26.8
			c-0.1,0-0.2,0.1-0.4,0.2c-0.4,0.2-1.1,0.2-1.6,0c-0.8-0.3-0.6,0.1,0.1,0.3c0.5,0.2,1.6,0,1.8-0.3C41.2,26.9,41.2,26.8,41.2,26.8z
			 M47.1,27.4c0.4,0.7,0.6,1,0.5,1c-0.1,0.1-0.4,0.2-0.6,0.1c-0.2-0.1-0.3-0.5-0.4-0.8C46.6,27.5,46.9,27.2,47.1,27.4L47.1,27.4z
			 M36.1,27.7c0.2,0,0.7,0.7,0.6,0.8c0,0.1-0.2,0-0.7-0.1c-0.1-0.1-0.5-0.1-0.4-0.3C35.7,27.9,36,27.7,36.1,27.7z M46.6,28.6
			c0,0.1-0.4,0.1-0.5,0.1c-0.1-0.3-0.2-0.4-0.2-0.5c0-0.1,0.3-0.4,0.4-0.3C46.4,28,46.6,28.5,46.6,28.6L46.6,28.6z M55.7,27.9
			c0.1,0,0.2,0.1,0.4,0.4c0.3,0.5,0.3,0.5,0.5,1.6c0.3,1.3,0.6,2.3,0.9,3.6c0,0.2-0.1,0.2-0.3,0c-0.4-0.2-0.5-0.5-0.7-1.2
			c-0.2-1.2-0.7-2.3-0.9-3.7C55.6,28.2,55.6,27.9,55.7,27.9L55.7,27.9z M45.5,28.4c0.2,0,0.2,0.4,0.1,0.4C45.5,29,45,28.9,44.9,29
			C44.7,28.7,45.4,28.4,45.5,28.4z M56.9,29.7c0.1,0,0.3,0.3,0.6,0.8c0.3,0.5,0.3,0.4,0.5,1.2c0.3,1.1,0.8,1.9,1,2.9
			c0,0.1-0.1,0.1-0.3,0c-0.3-0.1-0.5-0.3-0.7-0.5c-0.1-0.2-0.1-0.4-0.6-1.9c-0.2-0.5-0.2-0.7-0.4-1.5C56.9,30,56.9,29.7,56.9,29.7
			L56.9,29.7z M20.2,32.9c1.2,2.1,0.7,3.1-1.8,3.4c-0.2,0,0,1.1,0,1.6c1.2-0.7,2.7-0.9,4.1-1.3c-0.4,1.2-1,2.6-3,2.4
			c-2.1-1.6-4.6-0.6-6.2-1.3c-0.9-0.3-1.3-1.4-1.3-1.5c1.1,0.1,2.3,0.3,3.4,0.3c-1.2-0.9-0.8-2.1-0.7-2.7c-1.4-1.7-0.2-3.6,1.7-3.2
			c0.2,0,0.6,0.2,0.6,0.2C18.9,29,21.1,30.6,20.2,32.9L20.2,32.9z M58.5,31.9c0.1,0,0.3,0.2,0.6,0.7c1,1.4,1.9,2.8,1.9,2.9
			c0,0.2-1.1-0.2-1.4-0.5c-0.3-0.4-1.2-2.5-1.2-2.8C58.4,32,58.5,31.9,58.5,31.9z M16.5,38.1c0.5,0.1,0.7,0.1,0.7,0.3
			c0,0.2-1.3,0.2-1.5,0.1c-0.1-0.1,0-0.3,0.2-0.4C16.1,38,16.3,38.1,16.5,38.1L16.5,38.1z M53.7,38.3c-7.5,3.6-10.6,13.1-6.8,20.3
			L46.3,59c-3.7-7.7-1-15.9,5.1-20.1c0.2-0.2,0.8-0.3,1-0.5c0,0-2.5,0.6-3.3,0.9c-0.2,0-0.7,0.2-1.2,0.8c-0.5,0.4-1.9,2.5-1.9,2.5
			l-3.9,0.2l0,0.1l3.8-0.1c-3.9,6.5-3,12.7-0.5,17l0.1,0c0.1,0.1,0.5-0.2,1.3-0.9c0.3-0.3,0.7-0.7,0.9-0.8c0.5-0.4,1.2-1.2,1.6-1.7
			c-2.6-5.4,0-12.5,6.1-15.7c0-0.2-0.1-0.7-0.1-0.7s-0.2-0.2-0.4-0.2c-6.9,3-9.6,10.6-6.8,17.5l-0.5,0.5c-3.5-7.1,0.3-16,6.8-18.5
			c0-0.2-0.1-0.4-0.3-0.2c-7.1,3.3-10.2,11.8-6.7,19l-0.4,0.4c-4-7.9,0.2-16.7,6.8-19.8C54,38.5,53.7,38.3,53.7,38.3L53.7,38.3z
			 M15.4,38.3c0,0,0,0.4,0.1,0.6c0.1,0.3,0,0.3-0.3,0.2c-0.6-0.1-0.1,0.2,0.4,0.5c0.5,0.3,0.4,0.3,0,0.6c-0.3,0.2-0.3,0.3-0.2,0.4
			c0.1,0.2,0.1,0.1,0.2,0c0.3-0.2,0.5-0.3,0.7-0.3c0.3,0,0.4,0.3,0.3,0.5c-0.1,0.5-0.6,0.4-1,0.3c-0.6-0.2-1.6-1.3-1.6-1.9
			C13.9,38.6,14.7,38.3,15.4,38.3z M18.2,38.5c0.2,0.1,0.5,0.2,0.9,0.3c0.5,0.1,0.9,0.4,1.2,0.6c0.9,0.6,0.9,1.8,0.8,2l-4.7,4.5
			c0,0-0.3-0.1-0.5-0.3c-0.8-0.4-1-0.6-0.5-0.8c0.2-0.1,0.3-0.3,0.3-0.6c0-0.3,0-0.3,0.2-0.4c0.3-0.2,0.3-0.3,0.3-0.8
			c0-0.3,0-0.4,0.1-0.6c0.1-0.1,0.2-0.4,0.2-0.7l0-0.2c0.1-0.3,0.1-0.3,0.2-0.4c0.1-0.1,0.1-0.3,0.2-0.4c0.1-0.4,0.1-0.3,0.3-0.3
			c0.3,0.1,0.3,0.2,0.2,0.5c0,0.1-0.1,0.2-0.1,0.2l0.3-0.1c0.1,0,0.2,0,0.2,0.2c0,0.1,0,0.2,0,0.4c0,0.3,0,0.7,0.1,1
			c0.4,1.2,0.3,1,0.2,0c0-0.2-0.1-0.6,0-0.9c0-0.2,0.1-0.5,0.2-0.6c0.2-0.4,0.2-0.4-0.2-0.6c-0.2-0.1-0.5-0.2-0.5-0.3
			c-0.1-0.1-0.3-0.3-0.6-0.4c-0.7-0.2-1.1-0.8-1-0.9c0.1-0.1,0.3,0,0.5,0c0.6,0,0.8,0,1-0.2c0.1-0.1,0.2-0.2,0.3-0.2
			C17.9,38.4,18.1,38.5,18.2,38.5L18.2,38.5z M50.4,39.2c-6.4,5.2-7.5,13.5-4.3,20l-0.5,0.4c-4-7.6-1.3-15.7,3.6-20.2L50.4,39.2z
			 M13.7,39.8c0.1,0,0.2,0.2,0.7,0.6c0.3,0.3,0.6,0.6,0.8,0.7c0.4,0.2,0.3,0.1,0,0.4c-0.3,0.4-0.1,0.7-0.5,0.5c-1-0.5-1.7-1.8-1-2.2
			L13.7,39.8z M13.2,41.3L13.2,41.3c0.2,0,0.3,0.3,0.5,0.4c0.4,0.4,0.6,0.6,1,0.8c0.3,0.2,0.4,0.2,0.1,0.5c-0.1,0.1-0.1,0.2-0.2,0.3
			l-0.1,0.2c-0.4,0.1-1.7-0.7-1.7-1.2C12.8,41.7,13,41.3,13.2,41.3z M15.9,41.4c0.2,0,0.4,0.2,0.4,0.5c0,0.2-0.1,0.3-0.4,0.4
			c-0.5,0.2-0.9-0.2-0.5-0.6C15.5,41.6,15.7,41.4,15.9,41.4z M15.5,42.7c0.4,0,0.5,0.3,0.2,0.6c-0.3,0.3-0.9,0.3-0.9,0
			C14.9,43.1,15.3,42.7,15.5,42.7L15.5,42.7z M13,43.2c0.3,0.1,1,0.6,1.3,0.6c0,0.2-0.2,0.2,0.1,0.5c0.1,0.1,0.1,0.2,0,0.3
			c-0.3,0.2-1.5-0.4-1.6-1C12.8,43.3,12.8,43.2,13,43.2z M14.5,43.9c0.4,0,0.9,0,0.8,0.2c0,0.1-0.2,0.5-0.4,0.4l-0.2-0.2
			C14.5,44.1,14.5,43.9,14.5,43.9z M29.8,45.5c1.2,1.1,5.5,12.2-3.5,20.4l-1.9,0.6c8.6-6.7,7.1-16.3,4.8-20.4c0-0.1,0-0.1-0.2,0.1
			c-0.2,0.2-0.2,0.2-0.1,0.2c2.6,4,3.6,15.4-6.7,20.9c-0.2,0.2,0.2,0.2,0.2,0.2c0-0.1,4.6-1.3,4.3-1.3c4.3-3.8,8-12.9,3.4-20.8
			C30,45.2,29.8,45.5,29.8,45.5L29.8,45.5z M28.3,46.8l-0.1,0.3c3.7,7.3,0.2,16.4-6.8,19.7c0.1,0.1,0.2,0.1,0.4,0.2
			c7.9-4.3,10.1-13.2,6.7-20.2L28.3,46.8z M27.7,47.3l0,0.3c3.1,6.3,0.6,14.9-6.7,18.5c-0.1,0.4,0,0.3,0.3,0.3
			c8.5-4.6,9.3-13.3,6.7-19L27.7,47.3z M27.2,48.1c-0.2,0.3-0.7,0.5-0.8,0.9c2.5,6.6-0.7,12.9-6.1,15.6c0,0.3-0.2,1.1,0.3,1
			C27.2,62.5,30.1,54.4,27.2,48.1L27.2,48.1z M60.8,60.8c0.2,0,0.5,0.1,0.7,0.1c0.8,0.1,1.4,0.7,1,1.1c-0.1,0.1-0.3,0.1-0.8-0.2
			c-0.2-0.1-0.3-0.2-0.3-0.5c-0.1-0.3-0.1-0.4-0.2-0.1c-0.1,0.3-0.2,0.4-0.5,0.4C59.9,61.3,60.2,60.8,60.8,60.8z M51.9,66.4
			c-2-1.1-4.5-3.2-5.9-5.5c-0.7,1.3-1.5,3.7-1.5,3.7l-3.1-0.9l0,0.1l3.1,0.9l-0.3,1c0,0.1-0.5,1.3-0.5,1.3l4.8,2.3
			c-0.3,0.5-0.6,0.8-1,1.2c-0.2,0.2-0.2,0.6-0.2,0.6l6.7-6.4c0,0,0.9,1.3,1.2,1.6c0.3,0.3,0.4,0.3,0,0.4c-1.6,0.2-2.8,1.4-2.4,3
			c0.1,0.2,0.2,0.1,0.5-0.1c1-1,3.6-1.8,3.7-1.6l0,1c-2.8,0-2.5,2.1-2.3,3.2l-0.8,0.7c0.3,0.1,0.6,0.3,0.8,0.5
			c-0.2,1.4,0.9,3.3,3.2,2.3c0.2,0.2,0.4,0.4,0.6,0.7c0.2-0.3,0.5-0.9,0.5-0.9c1.1,0.5,3.5-0.6,2.3-3.2l0.7-0.6l-0.6-0.4
			c0-0.7-0.1-1.3-0.5-1.8c0,0,1.1,0.3,1.8,0.3v0c0.5,0,0.9,0.1,0.9-0.2c0-0.1-0.1-0.5-0.1-0.6c-0.2-0.7-1.4-1.2-2.6-1.3
			c-0.2,0-0.4,0-0.4-0.1c-0.1-0.1,0.1-0.2,0.2-0.2c0.6,0.1,1.3-0.4,1.4-1c0-0.1,0.2-0.3,0.3-0.5c0.3-0.4,0.4-0.4,0.4-0.9
			c0-0.4,0.1-0.5,0.2-0.7c0.2-0.4,0.3-0.8,0.2-1.3c0-0.2-0.2-0.4-0.1-0.7c0.2-0.6-0.2-1.2-0.8-1.5L62,60.7c-0.5,0.2-1.1-0.2-1.1-0.2
			c-0.1-0.1,0.4-3.4,1.6-3.1c0.2,0.1,0.3,0.7,0.3,0.7c0.1,0,0.1-0.3,0-0.6c-0.1-0.2-0.3-0.5-0.6-0.4c-0.3,0.1-0.6,0.4-0.7,0.6
			c-0.6,0.7-0.6,1.2-0.7,1.9c-0.1,0.4-0.1,0.3-0.6,0c-0.4-0.3-0.5-0.4-0.4-0.5l0.3-0.3l4.5-4.1v41.5H40l0.2-5.5
			c0.5-3.7-0.3-11.6-0.9-12.3c0.5-0.5,1.9-1.8,1.8-1.9l-0.2-0.1l-0.8,0.7l-1.9-0.6c-0.8-0.6-1.6-1.1-2.5-1.3
			c-1.4-0.4-4.1,0.8-4.1,0.8c-4.3,0.3-7.7,2.1-7.7,2.1c-0.2-0.2-0.4-0.7-0.4-0.7c-2.2-3.1-4.4-4.8-7.3-6.9l3.8-2.1L11.1,59L11,51.5
			l12.9-12.4c0.1-0.2,4.1,2.9,5.6,5.4c0.3-1.2,0.8-2.3,1.3-3.5c0-0.1,2.6,0.9,3.3,1c0.1,0,0.2-0.1,0.2-0.1L31,40.7l0.7-2
			c0,0,0.2-0.5,0-0.6c-1.5-0.5-2.9-1.4-4.4-2.1l0.7-0.8c0,0,0.3-0.4,0.2-0.6c-0.7,0.7-6.8,6.3-6.8,6.3c-0.2-1-0.4-1.3-1-1.9
			c0.3,0,0.8-0.3,1.1-0.5c0.9-0.6,1.4-1.8,1.2-2.5c-0.8,0.3-1.6,0.6-2.7,0.8c-0.6,0.1-1.2,0.4-1.5,0.7l-0.1-1.1c0,0,1.4,0.3,2.1-0.7
			c0.6-0.8,0.3-1.8,0.2-2.3c0-0.1,0-0.1,0.2-0.3c0.2-0.2,0.5-0.4,0.5-0.4c0-0.1-0.7-0.3-0.9-0.6c0.2-2-1.4-2.8-2.7-2.4
			c-0.3,0.1-0.4,0.1-0.7-0.2l-0.4-0.4c0,0-0.2,0.4-0.2,0.5c-0.3,0.5-0.3,0.4-0.9,0.4c-1.4,0.1-2.1,1.2-1.7,2.7
			c0.1,0.3,0,0.3-0.2,0.7c-0.1,0.2-0.3,0.5-0.3,0.5s0.3,0.1,0.4,0.2c0.3,0.1,0.3,0.3,0.3,0.5c0,0.6,0.2,1,0.5,1.5
			c-1.1,0-2-0.1-3-0.4c0.2,1.6,1.3,2.2,2.7,2.4c0,0-0.1,0.1-0.3,0.2c-0.3,0.1-0.5,0.4-0.5,0.6c0,0.2-0.2,0.5-0.4,0.6
			c-0.2,0.2-0.4,0.5-0.3,1c0,0.4-0.1,0.5-0.2,0.6c-0.2,0.3-0.3,0.6-0.2,1c0,0.2,0.1,0.6,0,0.9c-0.1,0.7,0.2,0.9,0.5,1.4
			c0.2,0.3,0.2,0.3,0.1,0.5c-0.1,0.5-0.2,0.8-0.3,1.2c-0.3,0.9-0.3,1.6-0.1,1.7c0.3,0.3,0.7,0.2,0.8,0.1c1.3-0.4,1-1.6,1.1-2.4
			c0-0.2,0.1-0.3,0.2-0.3c0.4,0.4,0.7,0.7,1.2,0.9c-1.7,1.7-2.7,2.7-4.8,4.6V9.3h24c0,0,0,0.3,0,1.8c-0.1,3-0.2,6.2,0,9.3
			c0,1.1,0,2.1,0.2,3.2c0.1,1,0.2,2.2,0.7,3.1c0.2,0.5,0.2,0.5-0.5,1.2c-0.4,0.3-0.7,0.7-0.7,0.8l0,0.1l0.3-0.3
			c0.2-0.2,0.5,0.1,1.7,0.4c0.2,0.1,0.5,0.3,0.8,0.5c1.7,1.4,4.1,1,5.9,0.2c0.5-0.2,0.6-0.2,1.5-0.3c3-0.4,6.3-1.7,6.3-1.7l0.4,0.7
			c0,0,0.1,0,0.3,0.1c1.7,3.3,7.4,7.1,7.3,6.9l-3.7,2.1c2.7,3.4,8.9,9.1,8.9,9.1v8.2c-1.7,1.3-3.3,2.9-4.8,4.4
			c-0.4,0.4-0.7,0.7-0.6,0.7c0.4-0.1,0.7,0.3,1,0.6c0.2,0.2,0.1,0.2-0.1,0.5c-0.2,0.2-0.2,0.3-0.2,0.4c0,0.3,0,0.5-0.3,0.7
			c-0.2,0.2-0.3,0.3-0.3,0.6c0,0.2,0,0.4-0.2,0.6c-0.3,0.1-0.3,0.5-0.3,0.7c0.3,0.3,0.2,0.6,0.2,0.5c-0.6,0.6-1.1,1.1-0.8,0.3
			c0.2-0.3,0.2-0.6,0.2-0.6s-0.3,0.3-0.4,0.4c-0.2,0.2-0.3,0.1-0.3-0.5c0-0.5-0.2-1.1-0.3-1.3c0-0.1-0.1,0.1,0,0.5
			c0,0.6,0.1,0.8-0.1,1.4c-0.3,0.8-0.5,0.9,0,0.9c0.4,0,0.8,0,1,0.2c0.1,0.1,0.1,0.2,0.3,0.3c0.4,0.2,0.6,0.4,0.8,0.6
			c0.6,0.7,0.5,1.3-0.8,0.9c-0.7-0.2-0.2-0.5,0.5-0.4c0.4,0,0.5-0.1,0.1-0.2c-0.7-0.1-0.8-0.2-1.3,0.3c-1.9-0.2-3-1.3-3.5-2.2
			c-0.2-0.4-0.3-0.4-0.1-0.6c0.1-0.1,0-0.1-0.1,0.1c-0.1,0.1-0.4,0.2-0.5,0.3C53.2,65.2,52.5,65.8,51.9,66.4L51.9,66.4z M60.3,61.8
			c0.3,0,0.3,0.3,0,0.6c-0.3,0.2-0.5,0.2-0.6,0.1C59.5,62.2,59.8,61.8,60.3,61.8z M61.3,62c0.3,0,0.6,0.1,1,0.5
			c0.5,0.4,0.6,1.4,0.1,1.5c-0.2,0.1-0.2,0-0.6-0.4c-0.3-0.3-0.6-0.5-0.8-0.6c-0.6-0.3-0.6-0.4-0.3-0.6l0.2-0.2
			C61.1,62.1,61.1,62,61.3,62z M60.6,63.3c0.1,0,0.2,0,0.3,0.1c1,0.5,1.4,1.4,1.1,1.8c-0.2,0.3-0.6,0.2-0.8-0.2
			c-0.2-0.2-0.6-0.6-1-0.8c-0.5-0.3-0.5-0.3-0.2-0.5c0.2-0.1,0.3-0.2,0.3-0.3C60.5,63.3,60.5,63.3,60.6,63.3L60.6,63.3z M61,65.3
			c0.7,0.7,0.6,1.1,0.2,1.4c-0.3,0.2-0.8,0.3-1,0.1c-0.3-0.2-0.3-0.5,0-0.6c0.3-0.1,0.2-0.2-0.1-0.2c-1-0.3-1.5-0.8-0.5-0.7
			c0.3,0,0.6-0.2,0.7-0.4C60.5,64.6,60.8,65.2,61,65.3L61,65.3z M11,65.6l21.4,30.6H15.1c0.6-4.9-0.6-10.3-2.2-13.8
			c1.8-0.3,3.4-0.8,5.1-1.2l-0.3-0.4c-2,0.8-3.8,1.1-5.6,1.3c2.3,3.9,3.1,9.4,2.4,14.2h-3.3V72.4L11,65.6z M14.8,70.1
			c0.3,0,1.1,0.5,1.1,0.9c0,0.1,0.2,0.6,0.4,1c0,0.1,0.7,1.4,0.4,1.3c-0.6-0.9-1.8-2.4-2.1-3.1C14.7,70.2,14.7,70.1,14.8,70.1z
			 M17.1,71.5c0,0.2,0.3,0.8,0.4,1.2c0.5,1,1.2,2.6,1,3c-0.1,0.3,0,0.3-0.3-0.1c-0.1-0.2-0.5-0.7-0.6-0.9c-0.2-0.3-0.1,0-0.2-0.5
			c-0.3-1.5-0.8-2.2-1.2-3.1C16.2,70.7,16.9,71.3,17.1,71.5z M17.5,71.7l1,0.7c0.3,1.1,1.5,4.5,1.2,5.1c-0.1-0.1-0.6-0.6-0.6-0.9
			c-0.1-1.6-0.7-2.8-1.2-4.1C17.7,72.2,17.6,71.8,17.5,71.7z M19.1,72.9c0.3,0.1,0.5,0.4,0.7,0.7c0.1,0.2,0.2,0.4,0.3,0.8
			c0.3,1.4,0.9,2.8,0.6,4.3c-0.2,0.2-0.5-0.3-0.6-0.8c-0.2-1.7-0.3-2.5-0.9-4.4C19.1,73.2,19,72.9,19.1,72.9z M20.5,74.2
			c0.1,0,0.2,0.1,0.4,0.3c0.4,0.4,0.4,0.5,0.4,1.1c0,0.9,0.3,1.9,0.3,2.8c0,0.5,0.1,1.8,0,1.9c-0.1,0.2-0.6-0.4-0.6-1.3
			c0.1-1,0-1.8-0.4-3.6C20.5,74.6,20.4,74.2,20.5,74.2L20.5,74.2L20.5,74.2z M60,69c1.5,1,1,2.8,0.7,3c2.1,2.7-1.2,4-2.2,3.1
			c-1.5,1.5-4.2,0.2-3.2-2.3c0,0-1.9-3.7,1.9-3.5c0,0,0.1-1.5,0-1.6c-1.4-0.1-3.2,1.2-3.7,1.6c-0.3,0.2-0.4,0.1-0.4,0.1
			c-0.1-0.8-0.1-1.1,0.2-1.6c0.6-0.8,1.5-1,2.7-1.3c1.5,0.5,2.9,1.2,4.3,1.1c0.8,0,1.5,0.1,2.3,0.5c0.5,0.2,0.8,1.1,0.8,1.1
			C62.4,69.7,60,69,60,69z M59.2,63.5c0-0.3,0.3-0.6,0.6-0.5c0.4,0,0.5,0.5,0.1,0.7c-0.1,0.1-0.4,0-0.5,0.1c0,0.2-0.1,0.1-0.2,0
			L59.2,63.5z M59,64.5c0.1-0.1,0.3-0.1,0.4-0.1c0.2,0,0.5,0,0.6,0.2c0.1,0.2-0.4,0.4-0.8,0.4c-0.2,0-0.4,0-0.5-0.1
			C58.7,64.8,58.9,64.6,59,64.5L59,64.5z M12.7,47.6c0.3-1,0.1-1.6,0.6-2.9l1.2,0.4c0,0,0.1,1.2-0.2,1.9
			C14.1,47.7,13.3,48.3,12.7,47.6z M21.6,75.4c0.1,0,0.5,0.5,0.6,1c0.1,0.4,0.1,1,0.2,1.4c0.2,1.6,0.2,3.1,0.2,3.6
			c0,0.2-0.2,0.1-0.4-0.1C22,81,22,81,22,80.1c0-0.8-0.2-2.7-0.2-3.1C21.6,76.3,21.5,75.6,21.6,75.4L21.6,75.4z M35.6,75.6
			c1.5,0.2,2.8,1.3,3.5,3c0.7,1.8,0.8,4.2,1,6.4c0,0.5-0.2,0.4-0.8,0.1c-0.6-0.3-0.8-0.2-1.7,0c-0.6,0.1-0.5-0.3,0.4-0.9
			c0.3-0.2,0.7-0.5,0.6-0.5c-0.1,0-0.3,0.1-0.6,0.2c-0.9,0.7-1.2,0.9-0.9,0.2c0.1-0.2,0.3-0.7,0.4-0.9c0.3-0.9-0.1-1.3-1.2-1.9
			c-0.3-0.1-0.5-0.4-0.2,0.1c0.2,0.4-0.2,0.7-0.8,0.3c-0.4-0.3-1.2-0.1-1.5,0.3c-0.3,0.4-0.1,1.2,0.4,1.4c0.4,0.2,0.6,0.1,0.2-0.2
			c-0.6-0.4-0.4-1,0.2-1c0.2,0,0.4,0.2,1.1,0.5c0.5,0.3,0.8,0.2,0.8-0.2c0-0.3,0.2-0.2,0.5-0.1c0.4,0.2,0.4,0.4,0.2,1
			c-0.2,0.4-0.2,0.9-0.4,1.3c-0.4,1.5-0.4,3.2,0,3.7c1.1,1.4,2.2,1.2,3.2,0.3l0,1.5c-1,0.8-2.2,1.4-4,4.4c-0.6-0.8-3.3-4-7.7-4.8
			l-1-1.3c0-0.1-0.7-5-1.2-6.7c0,0,0.5-0.8,1-1.4C29,78,32.3,75.2,35.6,75.6L35.6,75.6z M30,77c-0.2,0.1-0.2-0.3-0.1-0.3
			c0.2,0,0.3,0,0.5,0C30.5,76.7,30.5,76.8,30,77z M22.6,76.8c0.2,0.2,0.5,0.6,0.7,1c0.1,0.2,0.1,0.6,0.1,0.9c0,0.5,0.1,1.3,0.1,1.8
			c0.1,1,0,1.8-0.2,2.1c-0.1,0.3-0.4,0.1-0.5-0.4c0-0.1,0.1-1.3,0.1-1.9C23,79,22.7,77.6,22.6,76.8z M29.2,76.7l0.2,0.1
			c0.2,0.3,0.3,0.5,0.1,0.6c-0.3,0.2-0.5,0.2-0.7-0.3C28.7,76.9,29,76.8,29.2,76.7z M28.3,77c0.3,0.2,0.5,0.6,0.5,0.9
			c0,0.1-0.1,0.2-0.3,0.3c-0.2,0.2-0.2,0.1-0.4-0.2c-0.3-0.5-0.4-0.8-0.4-0.9C28,77,28.2,77,28.3,77z M38.6,77.1
			c0.4,0,0.8,0.2,1.2,0.3L39.2,78C39,77.7,38.8,77.4,38.6,77.1z M27.4,77.4c0.2,0.3,0.6,1.1,0.6,1.4C28,78.9,27.9,79,27.8,79
			c-0.1,0-0.1-0.1-0.4-0.6c-0.5-0.8-0.6-1-0.4-1.1C27.1,77.3,27.3,77.3,27.4,77.4z M26.5,77.6c0.3,0.2,0.9,1.4,0.9,1.8
			c0,0.1,0,0.2-0.1,0.2c-0.4,0.4-0.3,0.3-0.8-0.8c-0.5-1-0.6-1.1-0.3-1.2C26.2,77.6,26.4,77.5,26.5,77.6L26.5,77.6z M25.6,77.9
			c0.2,0,0.2,0.3,0.5,0.9c0.5,1.2,0.7,1.4,0.6,1.5c-0.2,0.2-0.2,0.3-0.4,0.1c-0.3-0.5-0.6-1.2-1-1.8c-0.2-0.4-0.3-0.5-0.1-0.6
			L25.6,77.9L25.6,77.9z M35.2,78.2c-0.2,0.1-1,0.3-0.5,0.4c0.1,0,0.4-0.1,0.5-0.1c0.5,0,1.6,0.1,1.5,0
			C36.7,78.1,35.5,78.2,35.2,78.2z M24.9,78.3c0,0,0.1,0.3,0.3,0.5c0.8,1.5,1.2,2,1.1,2.3c-0.1,0.1-0.3,0.3-0.4,0.3
			c-0.2-0.1-0.4-0.6-0.9-1.7c-0.6-1.1-0.6-1.2-0.3-1.4C24.7,78.3,24.8,78.2,24.9,78.3L24.9,78.3z M24.1,78.9
			c0.4,0.6,0.3,0.5,0.3,2.4c0,1.2-0.2,1.9-0.3,2.2c-0.1,0.2-0.3,0.1-0.4-0.2c0-0.1,0.1-0.3,0.1-0.5c0.1-1.4,0-2.8,0-4.1
			C24,78.5,24.1,78.8,24.1,78.9z M33.2,79.3c0.2,0.2,0.1,0.4,0.1,0.7c0,0.4,0,0.5,0.3,0.3c0.3-0.2,0.3-0.2,0.8,0.1
			c0.3,0.2,0.7,0.2,0.9,0c0.2-0.2,0.2-0.1,0.4,0c0.2,0.1,0.3,0.2,0.8-0.1c0.4-0.2,0.4-0.2,0.6-0.1c0.4,0.3,0.4,0.2,0.4-0.2
			c0-0.1,0-0.4,0.1-0.6c0.2-0.8-0.1-0.8-0.5-0.3c-0.2,0.2-0.5,0.3-0.8,0.1c-0.5-0.2-1.2-0.1-1.7,0c-0.6,0.1-0.9-0.1-1.2-0.3
			c-0.1-0.1-0.5-0.2-0.5-0.1C33,78.9,33,79,33.2,79.3L33.2,79.3z M24.8,80.4c0.1,0,0.2,0.2,0.4,0.7c0.2,0.6-0.2,2.8-0.4,3.2
			c-0.1,0.2-0.2,0.3-0.5,0c-0.1-0.2,0-0.2,0.1-0.6c0.2-0.7,0.3-1.7,0.3-2.2C24.7,80.7,24.8,80.4,24.8,80.4L24.8,80.4z M25.6,82.5
			c0.1,0,0.1,0.1,0.2,0.4c0.1,0.3,0.1,1-0.1,1.5c-0.1,0.3-0.2,0.6-0.4,0.9c-0.1,0.1-0.3,0.1-0.4-0.2c-0.1-0.2,0.1-0.5,0.2-0.8
			c0.1-0.3,0.2-0.8,0.2-1C25.5,82.8,25.6,82.5,25.6,82.5z M31.8,83.5L31.8,83.5L31.8,83.5c0,0,0.6,0.7,0.7,0.9
			c0.1,0.1,0.8,1,0.4,0.8c-1.2-0.5-2.5-0.2-3.4,0.6c-0.1,0.1-0.2,0-0.5,0c-0.7,0-0.9,0.2-0.5,0.5l0.2,0.2l0.1,0.2
			c1.3,1.7,3.6,2,5,0.9c0.2-0.1,0.3-0.2,0.5-0.1c0.3,0.1,0.4-0.2,0.1-0.6c-0.1-0.2-0.3-0.4-0.2-0.4c0.2-0.2,0.3-0.4,0-0.5
			c-0.2-0.1-0.5-0.3-0.6-0.7C33.5,84.8,32,83.5,31.8,83.5L31.8,83.5z M26.1,84.2c0.3,0,0.3,1.6,0,2.1c-0.2,0.2-0.5-0.2-0.5-0.5
			C25.7,85.6,26,84.3,26.1,84.2L26.1,84.2L26.1,84.2z M31.7,85.3c0.2,0,0.5,0.1,0.8,0.3c0.1,0.1,0.4,0.7,0.3,0.9
			c0,0.1-0.3,0.1-0.3,0c-0.2-1.1-1-1.2-1.3-0.2c0,0-0.2,0.2-0.2-0.1C31,85.5,31.2,85.3,31.7,85.3L31.7,85.3z M38.6,85.3
			c0.3,0,0.5,0.1,0.7,0.4c0.1,0.2,0.1,0.4,0.1,0.5l-0.1,0c-0.4-1.2-1-0.6-1.3,0l-0.3,0c0-0.1,0-0.2,0.1-0.4
			C38,85.5,38.3,85.4,38.6,85.3L38.6,85.3z M32.8,85.4c0.2,0,0.4,0.1,0.6,0.3c0.2,0.2,0.2,0.3,0.1,0.5c-0.1,0.1-0.4,0.2-0.5,0
			l-0.3-0.7L32.8,85.4L32.8,85.4z M30.7,85.5c0.2,0,0.2,0-0.1,0.7c-0.1,0.1-0.8-0.1-0.6-0.3C30.2,85.6,30.5,85.5,30.7,85.5z
			 M37.7,85.5l0.2,0l-0.3,0.7c-0.2,0-0.5,0-0.6-0.2c-0.1-0.2,0-0.3,0.4-0.4C37.4,85.6,37.5,85.5,37.7,85.5z M39.7,85.7
			C40,85.8,40,86,40,86.1l-0.2,0c-0.1-0.1-0.2-0.3-0.2-0.4C39.6,85.6,39.6,85.6,39.7,85.7z M26.5,86.3c0.1,0.2,0.2,1,0.1,1
			c-0.2,0-0.2-0.3-0.3-0.5L26.5,86.3z M29.4,86.8c0.1,0,0.3,0.1,0.6,0.2c1,0.5,1.9,0.5,3,0.3c0.6-0.2,0.7-0.2,0.8-0.1
			c0.1,0.2-0.1,0.3-0.9,0.6c-0.9,0.3-1.9,0.3-3.1-0.6C29.4,86.9,29.3,86.8,29.4,86.8L29.4,86.8z M40,87c0.2,0.3-0.4,0.6-0.6,0.6
			c-0.6,0.2-1.4,0.1-1.9-0.2l-0.1-0.1c-0.4-0.3-0.2-0.5,0.2-0.3c0.5,0.2,1.5,0.3,2,0C39.7,87,39.9,86.8,40,87z M28.2,87.6
			c-0.1,0,0,0.1,0.2,0.3c1.3,1.5,4.4,2.3,6.1,0.7c0.5-0.5,0.5-0.7-0.4-0.3c-1,0.3-2.3,0.4-3.5,0.2c-0.6-0.1-1.5-0.3-2-0.6
			C28.4,87.6,28.2,87.5,28.2,87.6L28.2,87.6z M37.1,87.6c0.1,0,0.2,0,0.5,0.2c0.4,0.2,1.4,0.2,1.8,0c0.7-0.3,0.8,0.1,0.2,0.4
			c-0.7,0.4-1.7,0.3-2.3-0.3C37.1,87.8,37,87.6,37.1,87.6L37.1,87.6z M28.5,90.2c2.6,0.2,6.4,2.9,7.9,6h-0.9
			c-1.5-2.4-3.8-4.5-6.6-5.2C28.9,90.9,28.5,90.3,28.5,90.2L28.5,90.2z M39.9,90.7l-0.1,0.8c-0.4,0.4-2,1.7-3.2,3.7
			c-0.2,0-0.4-0.3-0.3-0.5C37.2,92.9,38.3,91.9,39.9,90.7L39.9,90.7z M29.5,91.4c0.6,0,4.4,2.2,5.7,4.8h-0.7
			c-1.4-1.9-3.1-3.3-4.5-3.8C29.7,92,29.3,91.4,29.5,91.4z M39.8,92l0,1.1c-0.9,0.9-1.6,1.9-2.1,3h-0.7c0,0-0.2-0.5-0.1-0.6
			C37.6,94.1,38.4,93,39.8,92L39.8,92z M34,96.2h-0.7c-0.6-0.8-1.4-1.8-2.2-2.2c-0.3-0.4-0.7-0.9-0.5-1C30.5,92.7,33.5,94.9,34,96.2
			L34,96.2z M39.8,93.7l0,0.7c-0.5,0.6-0.9,1.2-1.2,1.8h-0.6C38.5,95,39.8,93.4,39.8,93.7L39.8,93.7z M31.9,95c0.2,0.1,1,0.9,1,1.2
			h-0.3c-0.2-0.2-0.4-0.7-0.6-0.9C31.9,95.1,31.8,95,31.9,95L31.9,95z M39.6,95.2L39.6,95.2l0,1h-0.6C39,96.2,39.3,95.4,39.6,95.2
			L39.6,95.2z"/>
		<path class="st3" d="M42.8,9.2l21.9,31.2l0-6.9l-7-9.1c1.6-0.5,3.5-0.8,5.1-1c-2-4.4-3-8.5-2.1-14.2C54.6,9.1,48.4,9.2,42.8,9.2z
			 M60.3,9.4c-0.2,2-0.4,4.2,0,6.7c-1.1-0.4-1.4,0.3-1.6,0.4c-0.2-0.5-1-1.3-1.9-0.3c-0.5,0.5-0.2,1.5,0.8,1.9
			c-1.2,0.1-1.9-1-2.1-2.1c-0.7-0.4-1.4-0.9-1.4-2.4l0.3,0.1c-0.1,1.1,1,1.6,1.6,1.1c0.4-0.3,0.5-0.8,0.3-1.6
			c0.3-0.1,1.1-0.4,0.9-1.4c-0.3-1.4-1.7-1.2-2.3-0.3c-0.5-0.7-1.5-0.8-1.9,0.2c-0.2,0.6,0.3,1.2,0.9,1.4c-1.3,0.2-1.9-1.5-2-2.7
			l-0.5-0.9C54.8,9.4,56.3,9.4,60.3,9.4z M43.2,9.4l2.5,0l18.5,24.1l0,6L43.2,9.4z M49.6,9.4l0.4,0c0.3,2.1,1.5,3.7,3.6,4.4
			c0.1,1.7,0.9,4.1,4.1,4.9c-0.1,2,1.2,3.8,2.5,4.7c0,0-0.4,0.1-0.6,0.1c-1.8-1.4-2.2-3.5-2.4-4.4c-0.1-0.1-0.2-0.2-0.4-0.2
			c-1.5-0.5-2.8-1.8-3.4-3.4L53.1,14c0-0.2,0-0.1-0.5-0.3c-1.2-0.4-2.3-1.7-2.8-3.3C49.5,9.7,49.6,9.4,49.6,9.4L49.6,9.4z M48,9.4
			l1.4,0c0,0,0,0.3,0,0.4c0.2,1.5,1.6,3.4,2.9,4.1c0.2,0.1,0.5,0.2,0.5,0.3c0.4,2.5,1.5,4,3.9,5l0.2,0.1c0.3,1.5,1,3.3,2.4,4.3
			l-0.6,0.1L48,9.4z M54.9,12c0.3,0,0.6,0.3,0.6,0.6c0,0.3-0.3,0.6-0.6,0.6s-0.6-0.3-0.6-0.6C54.4,12.3,54.6,12,54.9,12z M35.3,15.2
			c0,0.1-8,6.9-7.2,19.6l-0.2,0.3l0.1,0.1c-0.3,0.3-0.5,0.5-0.8,0.8c1.7,1.1,4.5,2.2,4.6,2.2l-0.6,1.3l3.5,1.1l-0.5,1.2
			c0,0-2.4-0.8-3.4-1.1c-0.5,1.1-0.8,2.2-1.1,3.4c0,0.1-0.1,0-0.2-0.1c-1.8-3.1-5.5-5.3-5.4-5.1L10.9,51.4l-0.1,7.7l9,9.4
			c0,0-2.6,1.3-3.9,2.1c1,0.8,2.1,1.4,3,2.1c2,1.4,3.3,3.5,4.6,4.9c6.1-3,12.2-2.8,17.4-1c-0.6,0.6-1.3,1.2-1.9,1.9
			c1.5,4,1,12,1,12.3c3.2-3.3,7.9-10.3,7.3-20.1l1.3-1.3c0-0.1-3.4-1.9-4.7-2.2l0.4-1.2l-3.3-1l0.4-1l3.3,1C45.3,63.1,46,61,46,61
			c1.3,2,2.8,3.8,5.8,5.6l13-12.5l-0.1-8l-8.8-8.9l3.7-1.9c-0.4-0.3-0.9-0.6-1.2-0.8l0-0.1c-0.1-0.1-0.2-0.1-0.3-0.2L58,34.2
			c-1.2-0.9-2.5-1.7-3.5-2.8l0-0.2c-0.5-0.5-1-1.1-1.5-1.6c-0.2-0.2-0.6-0.8-0.6-0.8l0-0.2l-0.6-0.7c-1.8,1.1-9.5,3.7-16.9,0.8
			l1.4-1.4c-0.4-0.9-0.6-1.9-0.7-2.8C35.1,21.2,35.3,15.2,35.3,15.2L35.3,15.2z M58.7,17.1c0.3,0,0.6,0.3,0.6,0.6s-0.3,0.6-0.6,0.6
			c-0.3,0-0.6-0.3-0.6-0.6S58.3,17.1,58.7,17.1z M60.6,17.8c0.3,1.5,1,3.8,1.7,5.3l-0.8,0.1c-0.7-0.4-1.4-1.1-1.4-2
			c-1.8,0-2.3-2.8-1.7-2.5c-0.1,1,0.6,1.3,1.3,1.3c0.6-0.1,1.1-0.9,0.4-1.8C60.4,18.1,60.5,18,60.6,17.8z M35.1,22.4
			c0.1,2,0.5,3.4,0.9,4.9l-3.6,3.4C32.7,27.5,33.6,24.8,35.1,22.4z M52.2,28.8l0.5,0.7c-5.1,3-13.9,3.2-19.3,0.7l0.7-0.7
			C38.8,31.6,46.4,31.8,52.2,28.8z M18.8,29.9c-0.5,0-1.1,0.2-1.7,0.7c-2.4-1.1-3.9,1.4-2.4,3.1c-0.2,1.2-0.4,1.4,0.5,2.6
			c-1,0.1-2.2-0.1-3.2-0.3c0.2,1.8,2.7,2.2,3.8,2c1.1-0.2,2.2,0.3,2.3,0.3c0.7,0.2,1.1,0.5,1.7,0.7c1.1,0.3,2.7-1,2.9-2.2
			c0-0.2,0.1-0.3,0-0.3c-0.7,0.2-1.6,0.5-2.3,0.6c-0.7,0.2-1.2,0.3-1.8,0.8l0-1.5c3.7,0.2,2.1-3.3,1.9-3.5
			C21,31.4,20.2,29.9,18.8,29.9L18.8,29.9z M52.4,30l0.8,1.9L51,32.6l-0.5-1.9L52.4,30z M18.6,30c1.3,0,2.4,1.3,1.2,2.8
			c2.3,2.1-0.7,4.3-2.1,2.7c-1.9,1.7-3.9-0.1-2.9-2c-2-1.8,0.5-4.3,2.2-2.7C17.5,30.3,18.1,30,18.6,30z M33.2,30.7
			c0.3,0,0.5,0.2,0.5,0.5s-0.2,0.5-0.5,0.5c-0.3,0-0.5-0.2-0.5-0.5S32.9,30.7,33.2,30.7z M19.3,30.8l-0.1,0.1
			c-0.1,0-0.2,0.2-0.5,0.6c-0.6,0.7-0.6,0.7-0.6,0.7c-0.6-0.2-1-0.1-1.4,0.2c0,0-0.5-0.1-1.1-0.6c-0.3-0.2-0.4-0.3-0.5-0.2
			c-0.1,0.1,0.1,0.3,0.6,0.7c0.8,0.5,0.7,0.5,0.7,0.5c0,0.5,0,0.8,0.2,1.2c0,0-0.1,0.3-0.7,1c-0.2,0.2-0.3,0.4-0.3,0.5
			c0,0.3,0.2,0.1,0.8-0.6c0.2-0.3,0.5-0.7,0.5-0.7c0.7,0.2,0.9,0.1,1.3-0.1c0,0,0.1,0.1,0.5,0.4c0.7,0.5,0.8,0.6,0.9,0.5
			c0.1-0.1,0.1-0.1-0.2-0.3c-0.7-0.5-1-0.8-1-0.8c0.2-0.6,0-1.1-0.2-1.4c0,0,0-0.1,0.4-0.5c0.3-0.3,0.7-0.9,0.7-1L19.3,30.8z
			 M34.4,30.9l1.9,0.6l-0.4,2l-2-0.7L34.4,30.9z M48.3,31.4l0.5,2l-2,0.5l-0.3-2.1L48.3,31.4z M49.7,31.4c0.3,0,0.5,0.2,0.5,0.5
			c0,0.3-0.2,0.5-0.5,0.5c-0.3,0-0.5-0.2-0.5-0.5C49.2,31.7,49.4,31.4,49.7,31.4z M54.3,31.5L56,33l-1.9,0.9l-0.9-2L54.3,31.5z
			 M38.4,31.9l2,0.2l-0.1,2.1L38.1,34L38.4,31.9z M31.7,31.9l2.2,1l-0.8,2.2l-2.2-1L31.7,31.9z M37.3,32.1c0.8,0.1,0.6,1.1,0,1.1
			c-0.3,0-0.5-0.2-0.5-0.5S37,32.1,37.3,32.1z M44.3,32.1l0.3,2.1l-2,0.1l0-2.1L44.3,32.1z M45.7,32.4c0.3,0,0.5,0.2,0.5,0.5
			s-0.2,0.5-0.5,0.5c-0.3,0-0.5-0.2-0.5-0.5S45.4,32.4,45.7,32.4z M17.5,32.6c0.3,0,0.6,0.3,0.6,0.6s-0.3,0.6-0.6,0.6
			c-0.3,0-0.6-0.3-0.6-0.6S17.1,32.6,17.5,32.6z M41.5,32.5c0.3,0,0.5,0.2,0.5,0.5c0,0.3-0.2,0.5-0.5,0.5c-0.3,0-0.5-0.2-0.5-0.5
			C40.9,32.8,41.2,32.5,41.5,32.5z M51,32.7l0.8,2.2l-2.2,0.7L49,33.3L51,32.7z M52.6,32.7c0.3,0,0.5,0.2,0.5,0.5s-0.2,0.5-0.5,0.5
			c-0.3,0-0.5-0.2-0.5-0.5S52.3,32.7,52.6,32.7z M56.4,33.3l1.4,1l-0.7,0.4C56.9,34.3,56.6,33.8,56.4,33.3z M35.9,33.5l2.1,0.5
			l-0.3,2.2l-2.3-0.5L35.9,33.5z M29.7,33.7l1.1,0.5L30,36l-1.8-1L29.7,33.7z M34.7,33.8c0.3,0,0.5,0.2,0.5,0.5
			c0,0.3-0.2,0.5-0.5,0.5c-0.3,0-0.5-0.2-0.5-0.5C34.1,34,34.4,33.8,34.7,33.8z M46.9,33.9l0.4,2.2l-2.4,0.3l-0.1-2.3L46.9,33.9z
			 M55.8,33.9c0.3,0,0.5,0.2,0.5,0.5c0,0.3-0.2,0.5-0.5,0.5s-0.5-0.2-0.5-0.5C55.3,34.2,55.5,33.9,55.8,33.9z M54.1,34l0.8,2l-2.3,1
			l-0.7-2L54.1,34z M48.2,34.1c0.3,0,0.5,0.2,0.5,0.5s-0.2,0.5-0.5,0.5c-0.3,0-0.5-0.2-0.5-0.5S47.9,34.1,48.2,34.1z M40.3,34.3
			l2.2,0l0,2.2l-2.4-0.1L40.3,34.3z M58.1,34.5l0.9,0.6c-9,5.8-21.7,6.6-31.6,0.8c0,0,0.4-0.4,0.6-0.6C37,40.6,50,39.9,58.1,34.5z
			 M39.1,34.7c0.3,0,0.5,0.2,0.5,0.5s-0.2,0.5-0.5,0.5c-0.3,0-0.5-0.2-0.5-0.5S38.8,34.7,39.1,34.7z M43.7,34.9
			c0.3,0,0.5,0.2,0.5,0.5S44,36,43.7,36s-0.5-0.2-0.5-0.5S43.4,34.9,43.7,34.9z M33,35.2l2.3,0.7L35,37.7l-2.6-0.7L33,35.2z
			 M31.5,35.2c0.3,0,0.5,0.2,0.5,0.5s-0.2,0.5-0.5,0.5c-0.3,0-0.5-0.2-0.5-0.5S31.2,35.2,31.5,35.2z M49.6,35.6l0.6,2.1l-2.6,0.6
			l-0.3-2L49.6,35.6z M51.1,35.9c0.3,0,0.5,0.2,0.5,0.5S51.4,37,51.1,37c-0.3,0-0.5-0.2-0.5-0.5S50.8,35.9,51.1,35.9z M17.4,36.2
			l0,1.5c-0.4-0.4-0.9-0.7-1.4-1.1C16.5,36.6,17,36.4,17.4,36.2L17.4,36.2z M12.1,36.2c0.1,0,0.4,0.1,0.7,0.1c1,0,3,0.3,3.6,0.8
			c0.2,0.2,0.5,0.3,0.6,0.6c0,0.1-0.2,0.1-0.4,0c-0.5-0.3-1.3-0.6-2.4-0.7c-0.2,0-0.2,0-0.2,0.1c0,0.1,0.2,0.2,0.7,0.3
			c0.7,0.1,0.9,0.2,1.1,0.2c0.4,0.1,0.2,0.3-0.3,0.3C13.7,38,12.3,37.2,12.1,36.2L12.1,36.2z M37.7,36.3l2.3,0.3l-0.1,1.9l-2.5-0.3
			L37.7,36.3z M18.1,36.4c0.4,0.3,0.1,1.3-0.1,1.6c-0.1,0.2-0.5,0.1-0.5-0.1c0.1-0.2,0-1.2,0-1.5C17.7,36.3,17.9,36.3,18.1,36.4
			L18.1,36.4z M44.9,36.5l0.1,2l-2.5,0.1l0-2L44.9,36.5z M36.3,36.6c0.3,0,0.5,0.2,0.5,0.5s-0.2,0.5-0.5,0.5c-0.3,0-0.5-0.2-0.5-0.5
			S36,36.6,36.3,36.6z M22.3,36.7c0.1,1.5-2.2,2.5-3,2c-0.4-0.2-0.2-0.3,0.5-0.5c1-0.3,1.6-0.5,1.6-0.7c0-0.1-0.1-0.1-0.5,0
			c-0.6,0.2-1.2,0.3-1.8,0.5c-0.4,0.2-0.6,0.3-0.7,0.1c-0.2-0.2,0.8-0.9,1.7-1C20.8,37.1,21.6,36.7,22.3,36.7L22.3,36.7z M46.3,36.9
			c0.3,0,0.5,0.2,0.5,0.5S46.6,38,46.3,38c-0.3,0-0.5-0.2-0.5-0.5S46,36.9,46.3,36.9z M41.2,37.3c0.3,0,0.5,0.2,0.5,0.5
			s-0.2,0.5-0.5,0.5c-0.3,0-0.5-0.2-0.5-0.5S40.9,37.3,41.2,37.3z M53.3,38.2C57,41.7,61,45.7,64.3,49c0,1.7,0,5.2,0,5.2l-12.6,12
			c-2.3-1.4-4.2-3.1-6-6.2c0.2-0.2,0.4-0.3,0.5-0.5l-0.7,0.4c-2.3-3.7-3.3-11.1,0.6-17.1l-4,0.1l0.6-1.4l4.3-0.2l1.8-1.9
			c0,0,0.6-0.1,1-0.2c0.5-0.1,1.4-0.4,2.1-0.6S53.3,38.2,53.3,38.2L53.3,38.2z M23.9,39.2c0,0,3.7,2,5.8,6.1
			c-6.7,5.8-9.2,12.6-9.8,19.6c-3.7-3.4-5.5-5.3-8.8-8.7l0.1-5L23.9,39.2z M38.1,39.8c-1,2.1-1.8,4.4-2.5,6.8l-1-0.3
			c0,0,0.7-0.3,1-0.5l-0.5-0.9l1-0.4l-0.6-0.7l1-0.6l-0.5-0.7l1-0.5l-0.6-0.7l1-0.6l-0.5-0.7L38.1,39.8z M38.4,39.8
			c0,0,0.1,0,0.3,0.1l-0.2,0.6c0.4,0.1,0.4,0.1,0.5,0.1l0.3-0.6l0.5,0.1c-0.9,2.1-1.9,4.4-2.5,6.8l-0.5-0.1l0.2-0.6
			c-0.1,0-0.4-0.1-0.5-0.2l-0.2,0.7l-0.4,0C36.5,43.9,37.7,41,38.4,39.8L38.4,39.8z M40.1,39.9l1,0.8L40,41.1l0.6,0.7l-1.1,0.4
			l0.7,0.8l-1.1,0.4l0.7,0.9l-1.2,0.4l0.7,0.8l-1.1,0.5l0.6,0.6L38,47c-0.1,0-0.6-0.1-0.6-0.1C38.2,44.5,39,42.1,40.1,39.9
			L40.1,39.9z M17,40.3c-0.3,0.2-0.1,0.5-0.4,0.9c-0.1,0.1-0.1,0.2-0.1,0.3l-0.3,1.1c0,0,0.1-0.1,0.2-0.4c0.1-0.3,0.2-0.8,0.2-0.9
			c0.2-0.1,0.3-0.9,0.5-0.8c0.1,0.1,0.1,0.2,0,0.5c-0.2,0.6-0.2,0.9,0.1,0.5c0.4-0.5,0.5-1,0-1.1L17,40.3L17,40.3z M23.8,40.5
			L12,51.6l0,4.1l4.1,4.2l2.9,2.8c1.1-6.3,3.5-12.4,9.4-17.6C27.5,43.6,25.9,41.8,23.8,40.5L23.8,40.5z M55.5,40.6
			c-6.9,3.3-8.5,9.9-6.4,16C52.4,52.4,55,48.4,55.5,40.6z M30.9,41l3.1,1l-1.2,4L30,45.2l-0.3-0.7L30.9,41z M55.1,41.1
			c-0.3,5.4-2.3,10.7-5.9,14.8C47.5,51.5,48.5,44.4,55.1,41.1z M38.2,41.1L38,41.6l0.4,0.1l0.2-0.5L38.2,41.1z M37.8,42.3l-0.2,0.5
			l0.4,0.2l0.2-0.5L37.8,42.3z M56.3,42.4c-1,7.5-5,14.3-9.3,17.8c1.4,2.2,3,3.6,4.6,4.8l12-11.5l0-3.9L56.3,42.4z M24.6,44.4
			c-0.1,0.3-0.1,0.4-0.1,0.4s0.1-0.1,0.5-0.3c2.4-1.2,1.6,0.6,0.5,1.3c-0.2,0.1-0.5,0.3-0.5,0.3s0.2,0.1,0.5,0.1
			c1.4,0.3,1.1,1.1-0.4,1c-0.2,0-0.5-0.1-0.5,0c0,0,0.1,0.3,0.2,0.6c0.5,1.3-0.4,1.4-1.1,0.6c-0.1-0.1-0.3-0.4-0.3-0.4
			s-0.1,0.2-0.1,0.5c-0.5,2-1.9,1.9-1.4-0.1c0.1-0.2,0.1-0.6,0.1-0.6s-0.3,0.2-0.6,0.3c-1.7,0.8-2,0-0.4-1.2
			c0.4-0.3,0.6-0.5,0.6-0.5c-0.3,0-0.5-0.1-0.8-0.1c-1.2-0.3-1.6-1.1,0.4-1c0.3,0,0.6,0,0.6,0s-0.1-0.4-0.2-0.7
			c-0.5-1.5,0.5-1.7,1.3-0.3c0.2,0.3,0.2,0.3,0.2,0.3c0,0,0.1-0.5,0.2-1C24.5,41.6,24.9,43.3,24.6,44.4L24.6,44.4z M45.8,42.9
			c-0.8,1.5-1.5,2.9-1.9,4.4l-3.2-0.1c0.2-1.3,0.8-2.7,1.5-4.2C43.5,43,44.6,42.9,45.8,42.9z M37.3,43.5l-0.2,0.5l0.5,0.1l0.2-0.5
			L37.3,43.5z M13.3,44.5c-0.3,0.9-0.5,1.9-0.6,2.7c-0.1,0.5,0,0.7,0.3,0.8c0.4,0.1,1-0.1,1.3-0.5c0.2-0.3,0.3-0.8,0.3-1.7l0-0.8
			C14.1,44.8,13.8,44.7,13.3,44.5L13.3,44.5z M36.9,44.7l-0.2,0.5l0.4,0.2l0.2-0.5L36.9,44.7z M57.7,44.8c0.5,0,0.6,0.1,1.1,0.4l1,1
			c-0.2,0.2-0.4,0.6-0.4,1c0,0.7,0.6,1.3,1.3,1.3c0.4,0,0.9-0.4,0.9-0.4l1.5,1.6c-0.9,0.4-1.7-0.5-2.1-0.9l-0.1-0.1c0,0,0,0,0,0.2
			c-0.1,0.7-0.8,2.8-1.5,2.7c-0.7-0.1,0-3.1,0-3c-0.5,0.5-3,1.1-2.8,0.5c0.3-1.2,2.2-1.7,2.4-1.9C58.1,46.6,56.9,44.9,57.7,44.8
			L57.7,44.8z M13.4,44.9c0.3,0,0.5,0.1,0.7,0.1c0.1,0,0.1,0.1,0.1,0.2c0,0.4,0.1,1.4-0.2,1.4c-0.4,0-0.7,0.1-0.9,0.3
			c-0.2,0.1-0.3,0-0.2-0.3c0.1-0.4,0.2-1.1,0.3-1.4C13.2,45,13.3,44.9,13.4,44.9z M23.3,44.9c-0.7,0-1.3,0.6-1.3,1.3
			c0,0.7,0.6,1.3,1.3,1.3c0.7,0,1.3-0.6,1.3-1.3C24.6,45.5,24,44.9,23.3,44.9z M23.3,45.4c0.5,0,0.9,0.4,0.9,0.9
			c0,0.5-0.4,0.9-0.9,0.9c-0.5,0-0.9-0.4-0.9-0.9C22.4,45.7,22.8,45.4,23.3,45.4z M30,45.4c3,5.2,2.7,12.4-0.9,17.6l3.8-0.3l-0.5,1
			l-4.1,0.4c-0.6,0.6-1.2,1.2-1.8,1.8l0,0.2c-1.4,0.3-2.8,0.7-4.2,1.2c-0.8-0.7-2.2-2.2-2.2-2.3l0.1-0.5c9.7-5,6.9-14.9,6.2-15.7
			C27.5,47.6,28.8,46.5,30,45.4L30,45.4z M56.9,46.3c0.4,0,0.7,0.3,0.7,0.7s-0.3,0.7-0.7,0.7c-0.4,0-0.7-0.3-0.7-0.7
			S56.5,46.3,56.9,46.3z M60.1,46.5l1.2,1.2c-0.2,0.2-0.4,0.2-0.6,0.2c-0.5,0-0.9-0.4-0.9-0.9C59.8,46.9,59.9,46.7,60.1,46.5z
			 M19.2,46.7c0.4,0,0.7,0.3,0.7,0.7s-0.3,0.7-0.7,0.7s-0.7-0.3-0.7-0.7S18.8,46.7,19.2,46.7z M13.9,47c0.3,0.1,0.3,0.4-0.2,0.7
			c-0.3,0.2-0.5,0.2-0.8,0.1C12.5,47.5,13.5,46.8,13.9,47z M19.4,48.7l-4.3,4.2c0.3-0.7,0.3-1.4,0.3-2.1c1.3,0.1,1.8-0.5,1.6-1.9
			C17.9,49,18.8,48.9,19.4,48.7L19.4,48.7z M26.3,49.2c2,5.7,0.3,11.7-5.9,15.2C20.6,58.9,22.8,53.7,26.3,49.2z M31.9,49.7
			c3.4,0.9,7.3,1.3,11.3,1.3c0,1.5,0.1,3.2,0.4,4.7c-3.4-0.9-7.3-1.3-11.4-1.2C32.4,52.9,32.1,51,31.9,49.7L31.9,49.7z M57.2,50.5
			l-3.6,4.3l0.2-2.3c1.2,0.2,1.7-0.5,1.5-1.8C55.8,50.8,56.5,50.7,57.2,50.5z M21.9,50.8l-0.3,1.7c-0.7,0-1.4,0.3-1.4,1.9l-2.2,0
			L21.9,50.8z M61.8,51.1c0.4,0,0.7,0.3,0.7,0.7s-0.3,0.7-0.7,0.7c-0.4,0-0.7-0.3-0.7-0.7S61.5,51.1,61.8,51.1z M18.6,51.3
			c0.4,0,0.7,0.3,0.7,0.7s-0.3,0.7-0.7,0.7s-0.7-0.3-0.7-0.7S18.2,51.3,18.6,51.3z M60.3,52l-0.4,2.6c-1-0.1-1.8,0.1-1.6,1.8
			c-0.8-0.1-2,0.1-2.8,0.2L60.3,52z M56.7,52.5c0.4,0,0.7,0.3,0.7,0.7s-0.3,0.7-0.7,0.7c-0.4,0-0.7-0.3-0.7-0.7S56.3,52.5,56.7,52.5
			z M13.4,53c0.4,0,0.7,0.3,0.7,0.7s-0.3,0.7-0.7,0.7s-0.7-0.3-0.7-0.7S13,53,13.4,53z M15.8,53.9c0.9,0.2,0.5,2.3,0.3,2.9
			c0,0,2.5-1.3,2.7-0.7c0.1,1.2-2.1,2-2.1,2s1.5,1.3,1.5,2.1c0,0.5-0.6,0.4-1.4-0.2c-0.3-0.3-0.6-0.6-0.9-0.8c0.3-0.2,0.5-0.6,0.5-1
			c0-0.7-0.6-1.3-1.3-1.3c-0.4,0-0.8,0.2-1,0.5c-0.2-0.2-0.4-0.4-0.7-0.7c-0.5-0.4-0.8-0.8-0.8-0.9c0.6-0.4,1.9,0.7,2,0.8
			C14.4,56.3,15.1,54,15.8,53.9z M14.5,56.5L14.5,56.5L14.5,56.5z M53.2,55.5c0.4,0,0.4,1,0.3,1.5c-0.1,0.4-0.2,0.7-0.2,0.7
			s0.4-0.3,0.5-0.4c1.2-0.6,1.6,0.1,1,0.8c-0.3,0.4-0.7,0.5-1,0.8c0.4,0,1,0.1,1.4,0.3c0.3,0.2,0.5,0.4,0.5,0.5
			c0,0.3-0.7,0.5-1.4,0.4c-0.3,0-0.9-0.2-0.9-0.2s0.2,0.4,0.3,0.6c0.3,0.7,0.2,1.6-0.2,1.6c-0.6-0.2-0.9-0.9-1.2-1.4
			c-0.2,0.6-0.4,1.2-0.8,1.6c-0.4,0.4-0.7,0.1-0.7-0.6c0-0.3,0.2-1.1,0.2-1.1c-2.6,0.9-2.4-0.3-0.4-1.4c-1.3-0.6-2-1.2,0.1-1.3
			c-0.1-0.1-0.4-1.2,0-1.5c0.4-0.3,1.2,0.6,1.2,0.7c0-0.1,0.2-0.8,0.6-1.2C52.8,55.7,53.1,55.5,53.2,55.5L53.2,55.5z M50.8,58.1
			L50.8,58.1L50.8,58.1z M62.4,57.3c-0.5,0-0.7,0.5-1,0.8c0,0.1-0.1,0.1-0.2,0.2c-0.2,0.6-0.4,1.4-0.5,2.3c0.3,0.1,1,0.3,1.2,0.2
			l0.1-0.3c0.5-1.2,0.7-2,0.7-2.6C62.8,57.5,62.7,57.3,62.4,57.3z M15,57.3c0.5,0,0.9,0.4,0.9,0.9c0,0.3-0.1,0.5-0.3,0.7
			c-0.6-0.6-0.8-0.8-1.2-1.2C14.5,57.4,14.8,57.3,15,57.3z M62.5,57.7c0.1,0.3-0.3,0.6-0.7,0.6c-0.3,0-0.4,0-0.3-0.2
			C61.7,57.7,62.3,57.1,62.5,57.7L62.5,57.7z M56.1,57.5c0.4,0,0.7,0.3,0.7,0.7c0,0.4-0.3,0.7-0.7,0.7s-0.7-0.3-0.7-0.7
			S55.7,57.5,56.1,57.5z M18.6,57.5c0.4,0,0.7,0.3,0.7,0.7c0,0.4-0.3,0.7-0.7,0.7c-0.4,0-0.7-0.3-0.7-0.7
			C17.9,57.8,18.2,57.5,18.6,57.5z M52.2,57.8c-0.7,0-1.3,0.6-1.3,1.3s0.6,1.3,1.3,1.3c0.7,0,1.3-0.6,1.3-1.3S52.9,57.8,52.2,57.8z
			 M34.6,58c-0.3,1.5-0.9,3-1.5,4.4c-1.3,0.1-2.6,0.1-3.5,0.3c1.5-2.6,1.5-3.3,2.1-4.7L34.6,58z M36.8,58.2c0.4,0,0.7,0.1,1.1,0.2
			c-0.6,2.3-1.5,4.6-2.6,6.9l-0.7-0.1l-0.3-0.4l1.1-0.4l-0.8-0.8l1.4-0.4l-0.8-0.8l1.4-0.3L35.7,61l1.2-0.5l-0.8-1l1.3-0.4
			L36.8,58.2z M52.2,58.3c0.5,0,0.9,0.4,0.9,0.9c0,0.5-0.4,0.9-0.9,0.9c-0.5,0-0.9-0.4-0.9-0.9C51.4,58.7,51.7,58.3,52.2,58.3z
			 M38.2,58.4l0.5,0.1L38.5,59l0.5,0.1l0.2-0.5l0.5,0.1c-0.5,2.2-2.4,6.8-2.5,6.8l-0.5-0.1l0.1-0.5l-0.5-0.1v0l-0.2,0.5l-0.5,0
			C36.8,62.6,37.6,60.5,38.2,58.4L38.2,58.4z M62.2,58.6c0.4,0,0.3,0.2,0.1,0.9c-0.2,0.6-0.3,0.9-0.5,1c-0.3,0.2-0.9,0-0.9-0.3
			c0.2-1,0.2-1.4,0.5-1.5C61.7,58.6,61.9,58.6,62.2,58.6z M40,58.7l1.2,0.2l-1,0.6l0.6,0.7l-1.2,0.5l0.7,0.8L39.2,62l0.7,0.8
			l-1.2,0.5l0.8,0.7l-1.4,0.4l0.5,0.8l-0.5,0.3l-0.6-0.1C38.5,63,39.2,61,40,58.7L40,58.7z M42.9,59.2l2.3,0.6l0.5,0.8l-1.1,3.7
			l-3.1-0.9L42.9,59.2z M38.3,59.6l-0.2,0.6l0.5,0.1l0.2-0.6L38.3,59.6z M37.8,61l-0.2,0.6l0.5,0.1l0.2-0.6L37.8,61z M37.4,62.2
			l-0.2,0.6l0.5,0.1l0.2-0.6L37.4,62.2z M59.1,63.3l-0.3,0.2c0.1,0.1,0.2,0.3,0.2,0.5c0,0.1-0.1,0.2-0.3,0.4
			c-0.4,0.5-0.6,0.5-0.3-0.1c0.1-0.2,0.1-0.3,0.1-0.3c-0.1,0.1-0.2,0.3-0.2,0.4c-0.1,0.3-0.3,0.5-0.3,0.5c0.3,0.1,0.5,0.3,0.6,0.4
			c0,0,0.1-0.2,0.2-0.5c0.1-0.3,0.3-0.5,0.5-0.6c0.1-0.1,0.3-0.2,0.3-0.2C59.2,63.9,59.2,63.6,59.1,63.3z M36.9,63.4l-0.2,0.6
			l0.5,0.1l0.3-0.7L36.9,63.4z M10.8,65.1c0,2.5,0,4.2,0,7l6.9,8.9l-1.1,0.4l-0.1,0.1c-1.5,0.4-3.8,0.8-3.8,0.8
			c1.8,4.1,2.9,9.1,2.1,14.2l17.8,0L10.8,65.1z M48.3,69.4L47.7,70c-9-4.9-21.5-4.9-30.5,1.1l-0.7-0.5
			C26.3,64.1,38.5,64.2,48.3,69.4z M11.1,65.9L32,96.1l-2.5,0L11.1,71.9L11.1,65.9z M56,66.5c0,0-0.6,0.2-1.1,0.3
			c-1.5,0.5-2.1,1.3-2,2.5c0,0.3,0.1,0.3,0.7,0c1.4-0.9,1.5-0.9,3.2-1.4c0.1,0,0.3,0,0.3,0L57,69.2c-2.9,0-2.7,2.3-1.9,3.5
			c-0.3,0.6-0.9,2.5,1.2,3.2c1,0.2,2.1-0.6,2.1-0.7c1.9,0.9,4.1-0.6,2.4-3.3c0.7-1.2,0.2-2-0.4-2.7c0,0,0.1,0,1,0.2
			c1.4,0.3,1.9,0.2,1.9,0.2c0-1.2-1-1.8-3.2-2C58.6,67.8,56,66.5,56,66.5z M32.8,66.6c0.1,0,0.2,0,0.3,0L33,68.8l-2.3,0.1l-0.2-2.1
			C31.4,66.7,32.1,66.6,32.8,66.6L32.8,66.6z M35.6,66.7l2.5,0.3l-0.4,2l-2.3-0.2L35.6,66.7z M55.9,66.7c0.2,0,0.1,0.3-0.1,0.3
			c-0.5,0.1-1.6,0.8-1.6,0.9c0,0.1,0.1,0.1,0.5-0.1c0.2-0.1,0.7-0.3,1-0.4c0.3-0.1,0.7-0.3,0.8-0.3c0.4-0.2,0.6-0.1,0.4,0.3
			c-0.1,0.2-0.1,0.2-1,0.5c-0.8,0.3-1,0.3-1.5,0.7c-0.2,0.1-0.5,0.3-0.8,0.4c-0.5,0.3-0.6,0.3-0.6-0.1C53,67.8,54.2,67,55.9,66.7
			L55.9,66.7L55.9,66.7z M34.3,67c0.3,0,0.6,0.3,0.6,0.6c0,0.3-0.3,0.6-0.6,0.6c-0.3,0-0.6-0.3-0.6-0.6C33.7,67.2,34,67,34.3,67z
			 M28.1,67.1l0.2,1.9L26,69.6l-0.5-2C26.3,67.4,27.2,67.3,28.1,67.1L28.1,67.1z M57.6,67.3c0.6,0.1,0.6,1.5,0.3,1.8
			c-0.5,0.4-0.8-0.4-0.6-1.4C57.4,67.4,57.5,67.3,57.6,67.3L57.6,67.3z M29.4,67.3c0.3,0,0.6,0.3,0.6,0.6c0,0.3-0.3,0.6-0.6,0.6
			c-0.3,0-0.6-0.3-0.6-0.6C28.8,67.6,29.1,67.3,29.4,67.3z M40.6,67.5l2.6,0.7l-0.6,2l-2.4-0.7L40.6,67.5z M39.2,67.6
			c0.3,0,0.6,0.3,0.6,0.6c0,0.3-0.3,0.6-0.6,0.6c-0.3,0-0.6-0.3-0.6-0.6C38.6,67.8,38.9,67.6,39.2,67.6z M60.4,67.7
			c1.1,0,2.6,0.6,2.6,1.4c0,0.2-2.3-0.1-3.4-0.5c-0.4-0.2-0.8-0.6-0.8-0.8c0-0.1,0.2-0.1,0.3,0c0.2,0.2,0.7,0.4,1.9,0.7
			c0.9,0.2,1,0.2,1,0.1c0-0.1-0.6-0.3-1.2-0.4c-0.3,0-0.6-0.1-1.1-0.2c-0.2,0-0.3-0.1-0.1-0.2C59.9,67.7,60.1,67.7,60.4,67.7
			L60.4,67.7z M58.4,68.2c0.3,0.1,0.4,0.4,0.5,0.5c-0.2,0.1-0.3,0.2-0.6,0.2C58.4,68.7,58.3,68.5,58.4,68.2L58.4,68.2z M24.4,68.3
			c0.3,0,0.6,0.3,0.6,0.6c0,0.3-0.3,0.6-0.6,0.6c-0.3,0-0.6-0.3-0.6-0.6C23.9,68.6,24.1,68.3,24.4,68.3z M22.9,68.5l0.6,2l-2.2,1
			l-0.8-2C21.3,69.1,22.1,68.8,22.9,68.5z M33.1,68.8c0,0,1.7,0,2.3,0L35.3,71l-2.2,0L33.1,68.8z M30.7,68.9l0.1,2.2l-2.1,0.3
			l-0.4-2.2L30.7,68.9z M44,68.9c0.3,0,0.6,0.3,0.6,0.6c0,0.3-0.3,0.6-0.6,0.6c-0.3,0-0.6-0.3-0.6-0.6C43.4,69.2,43.7,68.9,44,68.9z
			 M59.2,69c1.3,0,2.5,1.5,1.2,3c2.1,1.6-0.2,4.3-2,2.7c-2.6,2.6-4.1-0.9-3-1.9c-1.6-2.6,0.4-4.3,2.4-3.1C58.2,69.2,58.7,69,59.2,69
			z M37.8,69.1l2.3,0.5l-0.5,2.2l-2.2-0.5L37.8,69.1z M45.4,69.1l2.1,1.1l-1.6,1.6l-1.2-0.6L45.4,69.1z M31.9,69.4
			c0.3,0,0.6,0.3,0.6,0.6c0,0.3-0.3,0.6-0.6,0.6c-0.3,0-0.6-0.3-0.6-0.6C31.3,69.6,31.6,69.4,31.9,69.4z M36.5,69.4
			c0.3,0,0.6,0.3,0.6,0.6c0,0.3-0.3,0.6-0.6,0.6C35.6,70.4,35.9,69.5,36.5,69.4z M26,69.8l0.5,2.2l-2.1,0.7l-0.8-2.1L26,69.8z
			 M27.4,69.9c0.3,0,0.6,0.3,0.6,0.6c0,0.3-0.3,0.6-0.6,0.6c-0.3,0-0.6-0.3-0.6-0.6C26.9,70.2,27.1,69.9,27.4,69.9z M59,70.9
			c-0.2,0.2-0.4,0.4-0.4,0.4c-0.5-0.2-1-0.1-1.4,0.1c0,0-0.4-0.3-0.7-0.6c-0.6-0.5-0.8-0.6-0.8-0.4c0,0,0.2,0.2,0.4,0.4
			c0.7,0.6,0.8,0.8,0.8,0.8c-0.2,0.5-0.2,0.9,0.1,1.3c0,0,0,0.1-0.2,0.3c-0.4,0.4-0.8,1.1-0.7,1.2c0.1,0.1,0.5-0.2,0.9-0.8
			c0.3-0.4,0.4-0.4,0.4-0.4c0.5,0.1,0.8,0.3,1.4-0.2c0,0,0.2,0.1,0.6,0.4c0.6,0.5,0.8,0.6,0.9,0.5c0.1-0.1,0-0.2-0.6-0.6
			c-0.3-0.3-0.7-0.6-0.7-0.6c0.1-0.2,0.2-0.8-0.2-1.3c0,0,0,0,0.6-0.7c0.4-0.5,0.4-0.6,0.3-0.7C59.6,70,59.1,70.9,59,70.9L59,70.9z
			 M42.6,70.3l2.1,0.9l-0.7,2.2l-2-0.8L42.6,70.3z M19.7,70.4c0.3,0,0.6,0.3,0.6,0.6c0,0.3-0.3,0.6-0.6,0.6c-0.3,0-0.6-0.3-0.6-0.6
			C19.1,70.7,19.4,70.4,19.7,70.4z M41,70.5c0.3,0,0.6,0.3,0.6,0.6c0,0.3-0.3,0.6-0.6,0.6c-0.3,0-0.6-0.3-0.6-0.6
			C40.4,70.8,40.6,70.5,41,70.5z M18.3,70.7l0.7,1.7l-1.5-1.2L18.3,70.7z M35.3,71.1l2.1,0.2l-0.3,2l-1.8-0.2L35.3,71.1z M33,71.1
			l0,2l-2,0.1l-0.2-2L33,71.1z M22.9,71.5c0.3,0,0.6,0.3,0.6,0.6c0,0.3-0.3,0.6-0.6,0.6c-0.3,0-0.6-0.3-0.6-0.6
			C22.4,71.7,22.6,71.5,22.9,71.5z M21.4,71.5l0.8,2l-1.2,0.6l-1.7-1.6L21.4,71.5z M28.8,71.5l0.3,1.9L27,74l-0.5-2L28.8,71.5z
			 M58.1,71.6c0.4,0,0.8,0.4,0.8,0.8c0,0.4-0.4,0.8-0.8,0.8s-0.8-0.4-0.8-0.8C57.3,71.9,57.6,71.6,58.1,71.6z M34.1,71.6
			c0.3,0,0.6,0.3,0.6,0.6s-0.3,0.6-0.6,0.6c-0.3,0-0.6-0.3-0.6-0.6S33.8,71.6,34.1,71.6z M39.7,71.8l2.2,0.7l-0.7,1.8l-1.9-0.5
			L39.7,71.8z M30,71.9c0.3,0,0.6,0.3,0.6,0.6S30.3,73,30,73c-0.3,0-0.6-0.3-0.6-0.6S29.7,71.9,30,71.9z M38.3,72.1
			c0.3,0,0.6,0.3,0.6,0.6c0,0.3-0.3,0.6-0.6,0.6c-0.3,0-0.6-0.3-0.6-0.6C37.7,72.4,38,72.1,38.3,72.1z M24.4,72.8l0.8,1.7l-2.1,0.9
			l-0.9-1.8L24.4,72.8z M25.9,72.9c0.3,0,0.6,0.3,0.6,0.6c0,0.3-0.3,0.6-0.6,0.6c-0.3,0-0.6-0.3-0.6-0.6
			C25.3,73.1,25.5,72.9,25.9,72.9z M33.4,73.4c3.4,0,6.4,0.7,8.9,1.7l-0.7,0.7c-7.9-2.7-13.1-1.5-18.4,0.8L22.6,76
			C26.4,74.1,30.1,73.4,33.4,73.4L33.4,73.4z M42.4,73.4c0.3,0,0.6,0.3,0.6,0.6c0,0.3-0.3,0.6-0.6,0.6c-0.3,0-0.6-0.3-0.6-0.6
			C41.8,73.7,42.1,73.4,42.4,73.4z M21.7,74.7c0.5,0,0.5,0.9,0.3,0.6l-0.5-0.6L21.7,74.7z M42.9,75c0,0.6-0.6,5-2.7,8
			c-0.1-1.5-0.5-3.3-0.9-4.5C39.4,78.5,41.6,76.4,42.9,75z M16.6,81.6l10.7,14.5l-1.1,0c-0.2-1.1-0.6-2.2-1.2-3
			c-0.5-0.7-1-1.2-2-1.6c-0.6-0.3-0.7-0.2-0.7-0.7c-0.2-2.5-2.2-4.1-3.8-4.7c-0.2-1.5-0.8-3-2.6-4.3L16.6,81.6z M15.6,81.9
			c1,0.7,2.1,1.3,2.6,3.9c0,0.6,0.1,0.5,0.5,0.7c1.7,0.5,3.2,2.6,3.3,4.4c0,0.5,0.2,0.6,0.8,0.9c0.8,0.3,1.7,1.1,2.2,1.8
			c0.7,1,1,2.6,0.9,2.5l-0.6,0c-0.4-2.7-2.1-3.7-3.8-4.2c0.1-3.7-2.8-4.9-3.8-5.1c0.1-2.7-1.7-3.8-2.8-4.7
			C15.1,82,15.6,81.9,15.6,81.9L15.6,81.9z M13.8,82.3c0.9,0.3,1.5,1.5,1.5,2.1c1.2,0.1,2.4,1.3,2.1,2.4c-0.1,0-0.2,0.1-0.4-0.1
			c0.3-2.3-3.1-1.1-1.7,0.5l-0.6,0.4c-0.5-2.3-1.1-3.6-1.7-5.2C13.2,82.4,13.8,82.3,13.8,82.3z M16.6,87.1c0.3,0,0.5,0.2,0.5,0.5
			s-0.2,0.5-0.5,0.5c-0.3,0-0.5-0.2-0.5-0.5C16.1,87.3,16.3,87.1,16.6,87.1z M19.5,89.5c1.3,0.4,1.7,1.7,1.7,2.1l-0.3,0
			c-0.5-2.1-2.8-0.9-1.8,0.7c-1.3,0.5-1.2,1.6-0.8,2.1c0.5,0.6,1.8,0.6,2.2-0.4c1.2,1.6,2.9-0.2,1.4-1.7c1.2,0.5,1.4,2.1,1.2,2.6
			c0.6,0.2,1.2,1.1,1.1,1.1l-9.1,0c0,0,0.4-3.7,0-6.5c0.6,0.1,1,0.3,1.7-0.5c1.1,0.9,1.9,0.2,1.9-0.6c-0.1-0.6-0.4-0.9-0.9-1.2
			C18.8,87.1,19.6,88.8,19.5,89.5L19.5,89.5z M20.5,92.1c0.3,0,0.6,0.3,0.6,0.6c0,0.3-0.3,0.6-0.6,0.6c-0.3,0-0.6-0.3-0.6-0.6
			C20,92.4,20.2,92.1,20.5,92.1z"/>
		<path class="st7" d="M6.4,24c-0.7-1.2-1.5-2.4-2.4-3.3c1-1,1.7-2.2,2.4-3.3c0.7,1.2,1.5,2.4,2.4,3.3C7.8,21.6,7.1,22.8,6.4,24z"/>
		<path class="st7" d="M69.2,88.2c-0.7-1.2-1.5-2.4-2.4-3.3c1-1,1.7-2.2,2.4-3.3c0.7,1.2,1.5,2.4,2.4,3.3
			C70.7,85.9,69.9,87,69.2,88.2z"/>
		<path class="st7" d="M20.6,27.5c-1.7-2.9-3.6-5.7-5.8-8c2.3-2.4,4.1-5.2,5.8-8c1.7,2.9,3.6,5.7,5.8,8
			C24.1,21.9,22.3,24.7,20.6,27.5z"/>
		<path class="st7" d="M55,94c-1.7-2.9-3.6-5.7-5.8-8c2.3-2.4,4.1-5.2,5.8-8c1.7,2.9,3.6,5.7,5.8,8C58.6,88.3,56.8,91.1,55,94z"/>
		<path class="st7" d="M3.9,12.5H3v-1.3h0.9c0,0,0-0.7,0-1.9C4,6.9,4.1,6.5,4.8,5.8c1.5-1.4,3.9-0.3,3.9,1.8c0,2.9,0,5.8-0.1,6.2
			c-0.2,0.7-0.2,0.7-0.1,0.9c0.1,0.3,1.2,0.4,1.2,0.3v1.2c-0.8,0.1-1.2,0-1.9-0.5c-0.4,0.4-1.7,0.8-2.7,0.3
			C4.4,15.6,3.8,14.7,3.9,12.5z M7,14.7c-0.5-0.7-1.2-1.6-2-1.9c0,0.8,0,1.4,0.3,1.7C5.8,15.1,6.5,15.3,7,14.7z M7.4,7.5
			c-0.3-1-1.2-1.3-1.8-0.7C5.2,7.2,5.1,7.6,5.1,9.7c0,1.3,0,1.9,0,1.9c1.2,0.4,2.4,1.8,2.4,1.8l0-4C7.5,8.8,7.5,8.1,7.4,7.5L7.4,7.5
			z"/>
		<path class="st7" d="M71.7,92.9h0.9v1.3h-0.9c0,0,0,0.7,0,1.9c-0.1,2.6-0.1,2.9-0.9,3.6c-1.5,1.4-3.9,0.3-3.9-1.8
			c0-2.9,0-5.8,0.1-6.2c0.2-0.7,0.2-0.7,0.1-0.9c-0.1-0.3-1.2-0.4-1.2-0.3v-1.2c0.8-0.1,1.2,0,1.9,0.5c0.4-0.4,1.7-0.8,2.7-0.3
			C71.2,89.8,71.8,90.8,71.7,92.9z M68.5,90.7c0.5,0.7,1.2,1.6,2,1.9c0-0.8,0-1.4-0.3-1.7C69.8,90.3,69.1,90.2,68.5,90.7z M68.2,98
			c0.3,1,1.2,1.3,1.8,0.7c0.4-0.4,0.5-0.8,0.5-2.9c0-1.3,0-1.9,0-1.9c-1.2-0.4-2.4-1.8-2.4-1.8l0,4C68,96.7,68.1,97.4,68.2,98
			L68.2,98z"/>
	</g>
</g>
</svg>
