<?xml version="1.0" encoding="utf-8"?>
<!-- Generator: Adobe Illustrator 19.1.0, SVG Export Plug-In . SVG Version: 6.00 Build 0)  -->
<svg version="1.1" xmlns="http://www.w3.org/2000/svg" xmlns:xlink="http://www.w3.org/1999/xlink" x="0px" y="0px"
	 viewBox="0 0 75.3 105.3" style="enable-background:new 0 0 75.3 105.3;" xml:space="preserve">
<style type="text/css">
	.st0{display:none;}
	.st1{fill:#FFFFFF;}
	.st2{fill:none;stroke:#010101;stroke-width:0.9967;}
	.st3{fill:#010101;}
	.st4{fill:none;stroke:#010101;stroke-width:1.0006;}
	.st5{fill:#E1CF20;}
	.st6{fill:#262964;}
	.st7{fill:#D31F26;}
	.st8{fill:#14130F;}
	.st9{fill:none;stroke:#010101;stroke-width:0.9929;}
	.st10{fill:#F6EB16;}
	.st11{fill:none;stroke:#010101;stroke-width:1.83;}
	.st12{clip-path:url(#SVGID_2_);}
	.st13{clip-path:url(#SVGID_4_);}
</style>
<g id="Layer_1" class="st0">
</g>
<g id="Layer_2">
	<g>
		<path class="st1" d="M4,0.6h67.5c2,0,3.6,1.6,3.6,3.6v97.3c0,2-1.6,3.6-3.6,3.6H4c-2,0-3.6-1.6-3.6-3.6V4.1C0.4,2.2,2,0.6,4,0.6z"
			/>
		<path class="st2" d="M4,0.6h67.5c2,0,3.6,1.6,3.6,3.6v97.3c0,2-1.6,3.6-3.6,3.6H4c-2,0-3.6-1.6-3.6-3.6V4.1C0.4,2.2,2,0.6,4,0.6z"
			/>
		<path class="st3" d="M69.3,88.3c1.3,0,1.9-1.6,0.9-2.8c-0.1-0.2-0.2-0.3,0.1-0.1c0.7,0.5,1.9,0.2,2-1.2c0.1-1.7-2.2-2.2-2.7-0.4
			c0,0.2-0.2,0.2-0.1-0.1c0-0.7,0.3-1.4,0.6-2.1c-0.5,0-1,0-1.6,0c0.3,0.7,0.5,1.4,0.6,2.1c0,0.3-0.1,0.3-0.1,0.1
			c-0.4-1.8-2.7-1.3-2.7,0.4c0.1,1.4,1.3,1.7,2,1.2c0.3-0.2,0.2-0.1,0.1,0.1C67.4,86.7,68,88.2,69.3,88.3L69.3,88.3z"/>
		<path class="st3" d="M6.2,17.3c-1.3,0-1.9,1.6-0.9,2.8c0.1,0.2,0.2,0.3-0.1,0.1c-0.7-0.5-1.9-0.2-2,1.2c-0.1,1.7,2.2,2.2,2.7,0.4
			c0-0.2,0.2-0.2,0.1,0.1c0,0.7-0.3,1.4-0.6,2.1c0.5,0,1,0,1.6,0c-0.3-0.7-0.5-1.4-0.6-2.1c0-0.3,0.1-0.3,0.1-0.1
			c0.4,1.8,2.7,1.3,2.7-0.4c-0.1-1.4-1.3-1.7-2-1.2C7,20.3,7,20.2,7.1,20.1C8.1,18.9,7.5,17.3,6.2,17.3L6.2,17.3z"/>
		<path class="st3" d="M3.8,12.6H2.8v-1.3h0.9c0,0,0-0.7,0-1.9c0.1-2.6,0.1-2.9,0.9-3.6c1.5-1.4,3.9-0.3,3.9,1.8
			c0,2.9,0,5.8-0.1,6.2c-0.2,0.7-0.2,0.7-0.1,0.9c0.1,0.3,1.2,0.4,1.2,0.3v1.2c-0.8,0.1-1.2,0-1.9-0.5C7.3,16.1,6,16.5,5,16
			C4.2,15.7,3.6,14.7,3.8,12.6L3.8,12.6z M6.9,14.8c-0.5-0.7-1.2-1.6-2-1.9c0,0.8,0,1.4,0.3,1.7C5.6,15.2,6.3,15.3,6.9,14.8
			L6.9,14.8z M7.3,7.5C6.9,6.5,6,6.2,5.4,6.8C5,7.2,4.9,7.6,4.9,9.7c0,1.3,0,1.9,0,1.9c1.2,0.4,2.4,1.8,2.4,1.8l0-4
			C7.4,8.8,7.3,8.2,7.3,7.5L7.3,7.5z"/>
		<path class="st3" d="M71.8,93h0.9v1.3h-0.9c0,0,0,0.7,0,1.9c-0.1,2.6-0.1,2.9-0.9,3.6c-1.5,1.4-3.9,0.3-3.9-1.8
			c0-2.9,0-5.8,0.1-6.2c0.2-0.7,0.2-0.7,0.1-0.9c-0.1-0.3-1.2-0.4-1.2-0.3v-1.2c0.8-0.1,1.2,0,1.9,0.5c0.4-0.4,1.7-0.8,2.7-0.3
			C71.3,89.9,71.9,90.8,71.8,93L71.8,93z M68.6,90.8c0.5,0.7,1.2,1.6,2,1.9c0-0.8,0-1.4-0.3-1.7C69.9,90.4,69.2,90.2,68.6,90.8
			L68.6,90.8z M68.3,98c0.3,1,1.2,1.3,1.8,0.7c0.4-0.4,0.5-0.8,0.5-2.9c0-1.3,0-1.9,0-1.9c-1.2-0.4-2.4-1.8-2.4-1.8l0,4
			C68.2,96.7,68.2,97.4,68.3,98L68.3,98z"/>
		<path class="st7" d="M40.4,96.3c0.2-2.7,0-5.7,0.2-7.9c-0.1-0.2,0.2-0.6,0.2-0.6c-0.2-0.3-0.2-1.2,0-1.9c1.8-6.8,5-12.1,8.3-17.1
			c2.7,8.2-5.8,13.9-7.6,21.1c-0.6,2.5-0.5,4.2-0.7,6.4L40.4,96.3z M26.3,96.4L16.2,80.8l2.2-1.1l10.4,16.7L26.3,96.4z M39.3,67.4
			c0.1,0.4,0.4,0.7,0.8,0.5c0.4-0.2,0.4-0.2,0.2,0.1c-0.5,0.8,0.5,1.5,1.2,0.9c0.2-0.2,0.3-0.6,0.1-0.8c-0.2-0.2-0.3-0.3,0.1-0.2
			c0.9,0.4,1.4-0.9,0.5-1.4c-0.2-0.1-0.7,0-0.8,0.2c-0.2,0.2-0.2,0.1-0.2,0c0-0.1,0.1-0.2,0.1-0.4c0.1-0.1,0.1-0.3,0.1-0.3l-0.9,0
			c0,0,0.1,0.2,0.1,0.4c0.1,0.2,0.1,0.3,0.1,0.4c0.1,0.2,0,0.2-0.3,0c-0.3-0.3-0.8-0.2-1,0.2C39.4,67,39.3,67.2,39.3,67.4z
			 M40.6,54.7l1.9-0.1l2.1,5.9c-1.7,2.8-2.2,6.1-0.2,9.3l-6.2,0C39.8,65,40,59.7,40.6,54.7z M42.7,62.4c0.3-0.2,0.3-0.7,0.1-0.9
			c-0.3-0.4-0.2-0.4,0.2-0.1c0.6,0.3,1.1-0.4,0.8-1c-0.2-0.4-0.9-0.5-1.2-0.1c-0.2,0.3-0.2,0,0-0.4c0.1-0.1,0.2-0.4,0.2-0.4l-0.9,0
			c0,0,0.1,0.3,0.2,0.4c0.2,0.5,0.2,0.6-0.1,0.3c-0.6-0.5-1.2-0.1-1.3,0.6c0,0.5,0.5,0.9,0.9,0.6c0.3-0.2,0.4-0.2,0.1,0.2
			c-0.2,0.3-0.1,0.8,0.1,1C42,62.6,42.4,62.6,42.7,62.4z M29.7,64.2L29.7,64.2c0,0.1-0.1,0.2-0.2,0.3c-0.4,0.5,0.1,1.1,0.8,1
			c0.5-0.1,0.8-0.8,0.4-1.1c-0.1-0.1-0.2-0.1-0.3-0.2l0.1-0.1l0.3,0.1c0.4,0.1,0.8-0.1,0.9-0.4c0.1-0.4,0-0.8-0.3-1
			c-0.3-0.2-0.7-0.1-0.9,0.2c-0.2,0.3-0.3,0-0.1-0.4c0.1-0.2,0.1-0.4,0.1-0.4l-0.9,0c0,0,0,0.2,0.1,0.4c0.2,0.5,0.3,0.6,0.1,0.4
			c-1.1-0.6-1.4,0.2-1.4,0.6C28.4,64.3,29.3,64.7,29.7,64.2L29.7,64.2z M33.9,54.6l1.6,0c-1.2,6.3-3.6,11.5-7.6,15.2l-7.6,0
			l-3.7-2.6l1.4-1.9C27.6,66.3,31.7,61.5,33.9,54.6z M26.9,69.2c0.5-0.2,0.6-0.7,0.3-1.1c-0.3-0.3-0.3-0.4,0.1-0.2
			c0.6,0.3,1.1-0.3,0.8-1c-0.2-0.4-0.7-0.5-1.1-0.3c-0.3,0.3-0.3,0.1-0.2-0.3c0.1-0.2,0.2-0.5,0.2-0.5l-1,0c0,0,0.1,0.2,0.1,0.4
			c0.2,0.4,0.2,0.5,0.1,0.5l-0.2-0.2c-0.2-0.2-0.7-0.2-0.9,0c-0.6,0.5-0.3,1.5,0.5,1.3c0.5-0.1,0.6-0.3,0.2,0.2
			C25.4,68.7,26.2,69.5,26.9,69.2z M20.8,69c0.4-0.2,0.5-0.6,0.3-0.9c-0.2-0.3-0.3-0.5,0.1-0.2c0.5,0.3,1-0.1,1-0.7
			c0-0.6-0.7-0.9-1.2-0.5l-0.2,0.1c-0.1,0,0.1-0.3,0.2-0.6c0.1-0.1,0.2-0.3,0.2-0.3l-1,0c0,0,0.1,0.3,0.1,0.5
			c0.2,0.4,0.2,0.5-0.1,0.3c-0.7-0.7-1.5,0.2-1.2,0.9c0.2,0.4,0.7,0.4,0.9,0.2c0.3-0.2,0.1,0.1-0.1,0.3C19.4,68.6,20.1,69.3,20.8,69
			z M64.5,53.2l0.1,1.2L52.2,64.7L51.7,64L64.5,53.2z M18.5,55.4c1.8-1.3,3.8-3.6,5.7-4.7C25.7,54,22.3,57.2,18.5,55.4z M51,54.8
			c-1.3-7,6.2-5.5,5.8-4.9L51,54.8z M11,50.6l12.2-10l0.6,0.8L10.9,52L11,50.6z M44.5,40.4c0,0.1,0.4,0.5,0.4,0.5
			c-0.1-0.1-0.7-0.4-1-0.1c-0.1,0.1-0.2,0.4-0.2,0.7c0.1,0.6,0.8,0.8,1.2,0.4c0.1-0.1,0.2-0.2,0.3-0.2c0,0,0,0.2-0.1,0.4
			c-0.1,0.2-0.3,0.5-0.1,0.5l0.9,0c0,0,0-0.2-0.1-0.4c-0.2-0.4-0.2-0.7,0-0.3c0.5,0.6,1.3,0.1,1.2-0.6c-0.1-0.5-0.6-0.8-1-0.6
			l-0.2,0.1c0,0,0.1-0.2,0.2-0.4c0.3-0.5-0.1-1-0.8-1c-0.2,0-0.4,0.1-0.4,0.2C44.5,39.9,44.5,40.2,44.5,40.4z M55.1,35.4
			c1.2,1.1,2.4,2,3.7,2.7l-1.2,1.8c-7.8-0.7-13.5,2.4-15.9,10.8L40.4,51c0.5-5.3,2.2-10.5,7.4-15.6L55.1,35.4z M47.6,36.7
			c0,0.2,0.5,0.5,0.4,0.6c0,0-0.3-0.2-0.4-0.2c-0.9-0.1-1.1,1.3-0.2,1.5c0.2,0,0.5-0.1,0.6-0.2c0.1-0.1,0.2-0.2,0.3-0.2
			c0.1,0-0.1,0.3-0.2,0.5c-0.1,0.2-0.2,0.5-0.2,0.5l1,0c0,0-0.1-0.3-0.2-0.5c-0.1-0.3-0.1-0.5-0.1-0.5l0.1,0.2
			c0.4,0.4,1.1,0.2,1.3-0.4c0.2-0.6-0.5-1.1-1-0.8c-0.2,0.1-0.2,0,0-0.2c0.1-0.2,0.1-0.6,0-0.8C48.6,35.6,47.6,36,47.6,36.7z
			 M55,38.4c0-0.1,0-0.1,0.1,0c0.4,0.4,1.1,0.4,1.3-0.2c0.2-0.6-0.4-1.2-0.9-1c-0.2,0.1-0.3,0.1-0.1-0.1c0.4-0.5,0-1.1-0.7-1.1
			c-0.6,0-0.9,0.6-0.6,1c0.1,0.2,0.1,0.2-0.1,0.1c-0.6-0.3-1.1,0.7-0.7,1.2c0.3,0.3,0.8,0.4,1.2,0c0.2-0.2,0.2-0.1,0,0.3
			c-0.1,0.3-0.2,0.6-0.2,0.6l1,0C55.3,39.2,55.1,38.7,55,38.4z M33.1,51c0.3-0.1-1-4.4-2-6.3c1.1-2.7,2.7-5.3,0.1-9.2l6.3,0
			c-1.9,4.4-2,15.6-2.4,15.6L33.1,51z M33.7,46c0,0-0.3-0.4-0.3-0.8c0-0.2,0-0.2,0.1,0c0.6,0.6,1.3,0,1.3-0.5
			c0.1-0.5-0.5-0.9-0.9-0.7c-0.3,0.2-0.3,0.1-0.1-0.2c0.3-0.5,0-1.1-0.6-1.1c-0.8,0-1.1,0.7-0.5,1.2c0.4,0.4,0,0.2-0.3,0
			c-0.6-0.3-1,0.4-0.8,1c0.2,0.4,0.8,0.6,1.1,0.2c0.2-0.2,0.4-0.3,0.3,0c-0.1,0.2-0.3,0.8-0.3,0.8L33.7,46z M34.6,39.2
			c0,0-0.4-0.5-0.4-0.8c0-0.1,0.1-0.1,0.3,0.1c0.7,0.6,1.6-0.5,1-1.1c-0.2-0.2-0.4-0.3-0.7-0.2c-0.3,0.2-0.3,0.1-0.1-0.1
			c0.2-0.3,0.2-0.7,0-0.9c-0.7-0.6-1.8,0.3-1.1,1c0.3,0.3,0.1,0.2-0.2,0.1c-0.6-0.3-1.2,0.6-0.8,1.2c0.5,0.4,0.9,0.2,1.3-0.1l0.1,0
			l-0.4,0.9L34.6,39.2z M26.4,36.6c-0.4,0-0.7-3.6-0.2-4.8c1-4.8,4-8.3,5.9-11.2c3-4.4,2.7-11.7,2.8-11.4l0.4,0.1
			c0,0-0.3,4.3-0.1,6.2c0.2,1.7,0.2,1.8,0,2c0,0.2,0,0.6,0,0.8c-1.4,6.3-4.6,12.7-7.9,17.6L26.4,36.6z M57.7,25.6L47.4,9.3l2.5-0.2
			c0.9,1.5,9.9,15.4,9.9,15.4L57.7,25.6z"/>
		<path class="st5" d="M15.4,96.7c1.2-4.3-2-14.3-4-15.6c2.3-0.1,5.1-0.1,5-0.3l9.8,15.7L15.4,96.7L15.4,96.7z M55.4,72.3
			C53,72,53.9,70,55.5,69.8c-0.2,0,0.2-1,1.4-1.4c0.3-0.5,0.5-1.4,0.8-1.8c-0.7,0.2-1.6,0.9-5,0.4c0.3-1.6,3.5-1.9,4.7-1.6
			c0.7,0.2,1.3,1.2,1.5,1.2c2.1-0.3,4.7,1.5,3.9,3.5c-0.1,0.3-0.4-0.3-1.1-0.6c-2.3-0.8-2.4-2-2.9-2.6c-0.2,0-1.2,1.9-1.2,1.9
			l0.3,1.3c0.5,0,2.9,1.4,0,2.5C56.9,75.4,55.4,73.4,55.4,72.3L55.4,72.3z M61.1,59.5c-0.1-0.1,0.1-1,0.4-1.5
			c0.2-0.3,0.5-0.5,0.8-0.4c0.4,0.1,0.3,0.6-0.2,2.3C62,60.1,61.5,60.2,61.1,59.5z M13.4,47.6c-0.7,0-0.1-1.8,0.3-2.4
			c0.1-0.2,0.7,0.2,0.7,0.5C14.5,46.2,13.8,47.8,13.4,47.6z M12.9,35.5c0.8,0.2,2.1,1,2.7,1.4c0.8,0.6,0.5,1.7,1.1,1.8
			c0.4-0.2,1.2-2,1.2-2s0.2-0.9-0.3-1.2c-1.3-0.7-1.3-1.5-1.2-1.6c0.4-1,1.2-0.8,1.6-0.9c0-0.6,0-1.7,1.1-1.6c1,0.1,1.1,1.5,0.7,1.5
			c0,0,1.9-0.3,1.9,1c0,0.7-1.1,1.6-1.5,1.2c0,0,0.2,1.4-1.5,1.8c-0.4,0.4-0.7,2.1-0.7,2c1-0.9,2.6-1.2,5.2-0.8
			c-1.6,2.9-5.9,1.6-6.3,1C14.6,38.5,12.6,37.6,12.9,35.5z M31.7,28.4c2.3,0.2,4.9-0.5,6.8-0.1c0.2,0,0.5,0.4,0.6,0.4
			c1,0.5,2,0.4,3.6-0.2c0.4-0.2,7.8-0.1,7.8-0.1c1.7,2.5,4.7,7.2,4.7,7c0,0-4.1,0-6,0.1c-1.3,0.1-0.5,0.3-1.5,0.3
			c-6.4,4.8-7.7,15.3-7.7,15.3s2-0.5,2.6,0c2.5-7.4,7.3-10.8,14-10.2c3.1,0.3,6.8,3.4,6.8,3.4l-6.6,5.4c-5.1-2.6-7.3,5.1-5.8,5.1
			l13.3-10.9l0.2,0.9C63.7,46,47.8,59,47.8,59l-0.7-0.8c0,0-0.4,0.4-0.7,0.7c0,0.4,0.1,0.8,0.4,1.1c-3.1,2.5-3.3,7.2-0.9,9.7
			c0,0-1,0.1-1.1,0.1c-1.3,0.2-2.7-6.3-0.1-9.3c-1.3-2.6-2.1-6.1-2.3-6.2c0,0.4-2.1,0.3-2.1,0.3c-0.2,5.2-0.7,10.4-2,15.3l9.6,0.2
			L44,77.3c0,0-4.6-0.1-6.6-0.3c-2.1-1.2-3.3-0.3-5.2,0.2c-2.8,0.1-6.8,0-6.8,0c-1.4-2.8-2.9-4.8-4.9-7.1c-0.3-0.4,8.2-0.2,8.2-0.2
			s4.2-6.4,5-8.2c0.6-1.4,1.9-6.6,1.9-6.6c0.1,0.3-0.8-1.3-2.7-1.3C31.3,64.4,18.7,68,11.1,61.1L11,59.9l16.7-13.6l0.7,0.9
			c-0.2-0.1-10.3,8.3-10.1,8.3c3,1.6,6.5,0.3,6.1-4.9c2.4-1.7,4.5-3.7,6.5-5.8c0-0.1,2.3,5.1,2.3,6.1c1.3-0.4,2.1,0.5,2,0.3
			c-0.5-3,2.1-14.3,2.2-15.6c-1.4-0.1-3.4-0.1-6.4-0.2c2.4,4.7,1.6,7.9-1.8,10.8l-0.7-0.9c0.3,0.2,4.9-3.9,1.2-9.9
			c-0.2,0-2-0.2-2-0.2S31.5,29.3,31.7,28.4z M49.7,9c0,0,10.6-0.3,10.6,0.1c-0.3,5.7,1,10.9,4.2,15.7l-4.6-0.1L49.7,9z"/>
		<path class="st6" d="M65.2,8.6l-54.9,0V97h54.9V8.6z M60,8.9c0,0-0.7,9.4,4.2,15.5c-3-0.5-4.7,0-6.4,1.2l0.2,0.2
			c2.4-1.5,4.4-1.1,6.5-0.9v12c0,0.6-2.5,0.3-4-0.8c-0.7-0.4-1.7-1.3-2.1-2c-0.1-0.2-0.3-0.4-0.3-0.5c-0.1-0.2-1-1.8-2.6-4.9
			c-0.8-1.6-1.9-3.7-2.7-5.3c-0.6-1.1-1.6-3.1-1.7-3.2c-0.2-0.3-1.3-2.6-1.7-3.4c-1.2-2.1-3.1-5.9-3.7-7.2c-0.1-0.3-0.4-0.5,0-0.5
			c0.1,0,0.2,0,0.2,0l0.2-0.1L60,8.9z M11.1,59.6v-0.9l16-13.2l0.5,0.7L11.1,59.6z M26.6,36.5l-0.2,0.1c-0.4-1.8-0.2-4.3,0.3-6.1
			c0.7-2.6,2-4.6,3.5-6.7c3.3-4.7,4.8-8.3,4.8-14.6l0.5,0.1c0,1-0.2,1.8-0.2,3.1c-0.1,1.4,0,2.5,0.1,3.9c0.1,0.7,0.1,1.1,0,1.2
			l-0.1,0.4c0,0.2,0,0.6,0,0.6C34.5,22.1,30.4,31.8,26.6,36.5L26.6,36.5z M28.6,45l-0.8-1c0,0-0.7-0.5-0.1-1.1
			c1.7-1.7,1.7-3.9,0.1-5.9c-0.1-0.2,0.5-1.5,0.5-1.5l1.3,0C31.5,37.9,32.1,42.3,28.6,45z M29.7,35.3c0-0.2-1.9-0.1-1.9-0.1
			c1.2-1.8,2.2-3.7,3.2-5.5c1.6-2.8,3.7-7.8,4.4-11.4c0.5,4.2,1.2,10.4,4.8,10.7c1.2,0.1,2.5-0.7,2.7-0.6l7.4-0.1
			c1.5,3.1,3.2,5.1,5.1,7.2c1.4,0.8,3.1,1.4,4.7,1.8c0.9,0.2,1,0.1,2.9,0.3c0.5,0.1,1.2-0.1,1.2-0.1c-1.5,1.2-3.2,0.8-5,0.3
			c-0.1,0-0.2-0.1-0.3-0.1l-1.4,2.1c-3.1-0.7-13.2-0.2-15.9,10.8l0.2,0.1c2.1-9.5,11-11.4,15.3-10.5l-0.4,0.6
			c-7-0.9-12.8,3.6-14.1,9.8l0.1,0.1c2.6-9.5,13.8-13,20.6-6.4l1.3-0.9l0,1.2L47.8,58.9l-0.7-0.7c0,0-0.1,0.1-0.3,0.2
			c-0.4,0.4-0.6,0.5-0.5,0.7c0.1,0.2,0.6,0.7,0.6,0.7c-2.8,2.3-3.7,6.7-1,9.8c0.3,0.3,0.2,0.4,0.2,0c-2.4-2.6-2.1-7.2,0.9-9.4
			l0.6,0.8c-1.3,2.9-2,7.4,1.4,7.8c1.2,3.3-0.2,7.3-1.8,9.9c-1.7,3-3.7,5.6-5,8.9c-0.6,1.4-1.6,5.5-1.6,8.6l-0.4,0
			c0-1.3,0.1-2.8,0.1-3.8c0.1-4.7,0-4.5,0.2-4.6l0.1-0.1c0,0-0.1-0.1-0.1-0.3c0-0.1-0.1-0.3-0.1-0.5c0-0.2,0.2-0.4,0.1-0.5
			c-0.7-2.6-0.8-7.3-3.2-9.5c-1.2-1-2.7-1.1-4.8-0.2c-4.5,0-3.8,0.2-7.4,0c-1.5-2.7-3.3-5.4-5.3-7.4c-0.9-1-2.2-1.6-3.4-2.3
			c0.5-0.9,1-1.6,1.6-2c0.1-0.2,0.2-0.4,0.4-0.5C30.8,65.9,33.5,54,32.9,54.3l-0.1,0.1c-3.3,12.2-15.2,11.7-21.1,6.5
			c0,0-0.8,0.7-0.8-0.1c0-0.7,0.3-0.9,0.3-0.9l16.7-13.7c0.3,0.2,0.6,0.8,0.8,0.8c0.3-0.2,0.8-0.5,0.7-0.7c0-0.2-0.6-1.1-0.6-1.1
			C33.2,40.6,31.2,38.5,29.7,35.3L29.7,35.3z M36.1,9.2l0.2,0.1c0.1,0.2-0.3,1.1-0.6,1.3c-0.2,0.2-0.3,0-0.1-0.9
			C35.7,9.4,35.9,9.2,36.1,9.2z M60.6,9.2h3.9v14.9C61.6,20.1,60.1,15.4,60.6,9.2z M37.1,9.3c0.1,0,0.2,0,0.2,0.1
			c0.1,0.3-0.5,1.3-1.2,2.2c-0.4,0.5-0.5,0.6-0.7,0.5c-0.1-0.2-0.1-0.5,0.2-0.8c0.3-0.3,0.7-1.1,0.9-1.5C36.8,9.5,36.8,9.3,37.1,9.3
			z M41.1,9.3c0.1,0,0.2,0,0.3,0.1c0.7,1.4,1.9,2.6,3.2,3.3c0.2,0.1,0.1,0.4,0.2,0.6c-1.5-0.2-3.4-2.3-3.9-3.8
			C40.9,9.3,41,9.3,41.1,9.3z M43.4,9.3c0.3,0.3,0.7,0.7,0.9,1c0.1,0.2,0.1,0.4,0.1,0.6C44,11,42.8,9.6,42.8,9.4
			C43,9.3,43.2,9.3,43.4,9.3z M37.9,9.3c0.1,0,0.3,0,0.3,0.1c0.2,0.6-1.3,3.1-2.4,3.8c-0.4,0.3-0.4,0.2-0.4-0.2c0-0.3,0-0.3,0.4-0.6
			c0.6-0.5,1.2-1.4,1.5-2.1C37.9,9.4,37.8,9.3,37.9,9.3z M38.9,9.3c0.1,0,0.3,0,0.3,0.1c0,0.1,0,0.2-0.1,0.4
			c-0.5,1.4-1.7,3.3-3.1,4.4c-0.5,0.4-0.6,0.4-0.7,0c0-0.3,0.1-0.3,0.3-0.5c1.2-0.8,2.3-2.3,2.7-3.7c0.1-0.3,0.1-0.5,0.2-0.6
			L38.9,9.3z M46.3,11.7c0.1,0.1,0.5,0.7,0.1,0.5c-0.1-0.1-0.4-0.4-0.8-0.8c-0.9-1.1-1-1-0.9-1.3c0-0.3-0.2-0.9,0.3-0.8
			C45.5,9.9,45.8,10.9,46.3,11.7z M42,9.3c0.1,0,0.2,0,0.3,0c0.6,1.2,2.1,2.2,2.1,2.2l0,0.6c0,0.2-2.4-1.6-2.7-2.7
			C41.8,9.3,41.9,9.3,42,9.3z M40.3,9.3c0.6,1,1.7,3.3,4.4,4.3c0.2,0,0.4,0.6,0.3,0.7c-1.5-0.4-4.1-1.9-5.1-5
			C40,9.3,40.2,9.3,40.3,9.3z M39.6,9.5c-0.1,0,1.3,3.9,5.1,5.1c0.3,0.1,0.5,0.3,0.5,0.5c0,0.3,0,0.3-0.4,0.1
			c-1.1-0.6-2.6-0.8-3.8-0.2c-0.2,0.1-0.4,0.4-0.2,0.5c0.1,0.1,0.3,0,0.6-0.1c1.5-0.6,3.7-0.2,4.1,0.7c0.3,0.6,0.3,1.1,0.2,1.2
			c-0.1,0.1-0.3-0.2-0.7-0.5c-1.1-1-2.4-1.3-3.5-0.3c-0.2,0.2-0.5,0.2-0.5,0.3c-0.1,0.1,0,0.3,0.1,0.4c0.1,0.2,0.1,0.2,0,0.4
			C41,17.9,41,18.2,41,18.4c0,0.5,0.4,0.9,1.3,1.6c0.7,0.5,1.3,0.8,0.4,0.1c-1.6-1.3-1.8-1.8-0.8-1.3c1,0.4,2.4,0,3.4-0.8
			c0.3,0,0.5-0.1,0.7,0.1c0.7,1.7,1.3,4.1,2.3,6.3c-1.2,1.3-5.3,4.6-8.2,4.5c-2.5-0.1-3.4-4.2-4-6.5c-0.2-1-0.4-2-0.4-3.3l0.1,0
			c0.4,0.1,1.1,0.1,1.5,0c0.7-0.2,0.8-0.3,0.8-0.2c0,0.1-0.2,0.4-0.7,0.7c-0.2,0.1-0.8,0.4-0.8,0.5c0.1,0.1,0.9-0.3,1-0.4
			c0.2-0.2,0.3-0.2,0.4-0.1c0.1,0.1,0.1,0-0.2,0.9c-0.4,1-0.4,1.1,0.4,1.7c0.3,0.2,0.5,0.4,0.6,0.5c0.1,0.1,0.1,0.3,0.2,0.3
			c0.1,0.2,0.1-0.1,0-0.6c-0.1-0.3-0.4-0.7-0.6-0.8c-0.4-0.3-0.4-0.6,0-1.6c1-3,0.8-4.3-0.4-4.9c-0.5-0.3-2-0.2-2.4,0.2
			c-0.2,0.2-0.2-0.2-0.2-0.2C38.3,13.1,38.9,11.3,39.6,9.5L39.6,9.5z M44.9,11c0.8,0.8,1.7,1.8,2.3,2.6c0.3,0.4,0.5,0.8,0.7,1.2
			L48,15l-0.2-0.1c-0.6-0.4-2.9-3.1-2.9-3.1C44.8,11.3,44.7,11.2,44.9,11z M45.3,12.8c0,0,2,2.2,3.2,3.3c0.2,0.5,0.7,1.2,0.7,1.3
			l-0.2-0.1c-1.3-1.2-2.5-2.5-3.7-3.8c0,0-0.1-0.5-0.1-0.7C45.2,12.7,45.3,12.8,45.3,12.8z M49.7,18.5c0.3,0.4,0.5,0.8,0.6,1.1
			c0.2,0.4,0.1,0.4,0,0.3c-1.5-1.2-2.7-2.6-4-4c-0.2-0.2-0.5-0.6-0.5-0.6c0,0-0.4-1-0.2-0.9c0.2,0.1,0.4,0.3,0.5,0.5
			C46.8,15.7,48.2,17,49.7,18.5z M37.1,15.3c0.6,0,1.2,0.1,1.5,0.5c0.3,0.3,0.4,0.9,0.2,1c-0.1,0.1-0.4-0.2-0.4-0.2
			c-1.4-0.8-1.9-0.4-2.7-0.2c-0.1,0-0.2-0.3-0.1-0.6C35.9,15.5,36.6,15.4,37.1,15.3L37.1,15.3z M46,16.1c1.5,1.5,3,3.2,4.7,4.5
			c0.2,0.2,0.4,0.3,0.5,0.4c0.2,0.4,0.7,1.5,0.7,1.5c-1.8-1.2-5.7-5.5-5.7-5.4C46.2,17.1,45.8,16.3,46,16.1z M43,16.3
			c0.3,0,0.6,0.1,0.8,0.2c0.8,0.3,1.2,0.6,0.5,0.5c-1.1-0.1-1.5-0.2-1.9-0.1c-0.7,0.1-0.8,0.2-0.9,0.1C41.3,16.7,42.2,16.4,43,16.3z
			 M36.8,16.4c0.3,0,0.6,0.1,0.9,0.2c0.9,0.4,1.1,0.7,0.3,0.5c-0.4-0.1-1.2-0.1-1.7,0.1c-0.2,0-0.4,0.1-0.4,0.2
			c-0.2,0.1-0.2-0.1-0.2-0.3C35.8,16.7,36.2,16.4,36.8,16.4z M43.5,17.6l0.2,0c-0.2,1.4-1.6,1.2-2,0.1l0.2,0
			C42.6,18.8,43.2,18.2,43.5,17.6z M44.3,17.7c0.6,0,0.6,0.4-0.1,0.6c-0.5,0.2-0.6,0.2-0.4-0.2C44,17.7,44,17.7,44.3,17.7z
			 M37.8,17.7c0.1,1.2-1.6,1.5-1.7,0.1l0.2,0c0.6,1.1,1.2,0.4,1.4-0.1L37.8,17.7z M38.6,17.9c0.2,0.1,0.1,0.3-0.3,0.6
			c-0.4,0.2-0.5,0-0.2-0.4C38.2,17.9,38.4,17.8,38.6,17.9z M41.5,17.9c0.1,0,0.3,0.3,0.1,0.4c-0.1,0-0.2-0.1-0.2-0.2
			C41.4,18,41.4,17.9,41.5,17.9z M46.6,18c1.1,1.3,2.3,2.5,5.6,5.3c0,0,0.5,0.8,0.6,1.2c-0.1,0.1-0.1,0.1-0.4,0
			c-2.2-1.7-4.2-3.8-5.8-5.7C46.6,18.5,46.4,18.2,46.6,18z M35.8,18.1c0.1,0,0.3,0.3,0.2,0.5l-0.3-0.1L35.8,18.1L35.8,18.1z
			 M47.1,19.9c0,0,5.3,5.4,6,5.2c0.3,0.2,1.1,1.7,1.1,1.7c0,0,0,0.1-0.1,0.1c-0.9-0.4-4.6-3.6-6.6-5.9
			C47.4,20.7,47.2,20.2,47.1,19.9z M40.8,20.7c0.9,0.4,0.5,1.4-0.4,0.8C39.6,21,39,20.9,39,21.3c0,0.2,0.2,0.4,0.4,0.4
			c0.4,0,0.7,0.2,1.1,0.2c0.6,0.1,1,0,1.2-0.4c0.2-0.6-0.3-1.3-0.7-1.2C40.5,20.4,40.6,20.6,40.8,20.7z M48.1,22.1
			c-0.1-0.1,2.6,2.9,6.3,5.4c0.1,0.2,0.5,1,0.6,1.1l-0.1,0c-1.9-1.1-4.3-3.2-6.6-5.6c0,0-0.2-0.5-0.3-0.9L48.1,22.1z M42,23.2
			c-0.1,0-0.2,0.1-0.3,0.2c-0.3,0.2-0.4,0.2-1.1,0c-0.4-0.1-0.4-0.1-0.7,0.1c-0.2,0.1-0.3,0.2-0.5,0.1c-0.4-0.2-0.6,0-0.9,0.1
			c-0.3,0.1-0.5,0-0.8-0.1l0,1.3c0,0,0.3-0.2,0.5-0.3c0.3-0.2,0.3-0.1,0.7-0.1c0.7,0.1,1.3,0.1,1.7-0.1c0.5-0.2,1-0.1,1.4,0.2
			c0.2,0.2,0.5,0.2,0.4-0.2c-0.1-0.1-0.2-0.6-0.2-0.7C42.1,23.4,42.1,23.2,42,23.2L42,23.2z M49,24.2c1.2,1.2,2.8,3,6.4,5.1
			c0.2,0.3,0.4,0.8,0.6,1.1c0,0.1,0,0.2-0.1,0.1c-2.2-1.4-3.5-2.1-6.6-5.2c-0.2-0.3-0.4-0.8-0.6-1.3C48.8,24,48.9,24.2,49,24.2z
			 M48.5,24.6l1.4,2.6l-4.6,0C46.4,26.5,47.5,25.6,48.5,24.6z M40.8,24.7c-0.8,0.3-0.9,0.4-1.6,0.2c-0.4-0.1-0.3,0.1-0.1,0.3
			c0.6,0.3,1.4,0.1,1.7-0.1C40.9,24.9,41.1,24.6,40.8,24.7z M40,25.5c-0.8,0-1.6,0.3-1.6,0.6c0,0.1,0.1,0.1,0.2,0.1
			c0.5-0.3,1.9-0.4,2.9-0.1c0.2,0.1,0.2,0,0-0.2C41.1,25.6,40.5,25.5,40,25.5z M50.1,26.6c1.5,1.4,3,2.7,6.2,4.5
			c0.2,0.5,0.6,1.1,0.6,1.2c-3-1.5-6.3-4.4-6.3-4.4S50.1,27,50,26.6C49.9,26.5,50.1,26.6,50.1,26.6z M51.2,28.8c0,0,2.8,2.4,5.9,3.9
			c0.1,0.1,0.4,0.9,0.5,1c0.1,0.1-0.1,0.1-0.4,0c-1.7-0.8-5.2-3.2-5.2-3.2C51.7,29.9,51.3,29.3,51.2,28.8z M18,38.6
			c0.3-0.5,0.5-1.1,0.7-1.6c0.8,0,1.1-0.3,1.4-0.6c0.4,0,0.7,0,1.2,0c0-0.5,0-1.2,0-1.2c0.5-0.5,0.9-1.2,0.1-2.1c0,0,0-0.4,0-1.2
			c-0.4-0.1-1.2,0-1.2,0c-0.7-1-1.9-0.7-2.3,0c0,0-0.5,0-0.9,0c0,0.2-0.1,1.1-0.1,1.1c0,0-1.6,1.1,0.1,2.4l0,1.1
			c0.3,0,0.5,0,0.9,0.1c0,0-0.6,1.5-1,2.2c-0.1,0-0.1,0-0.3-0.5c-0.2-0.6-0.7-1.2-1.1-1.5c-0.5-0.4-1.3-0.5-1.8-0.9
			c-0.5-0.3-0.8-0.8-1-0.7c-0.1,0.2-0.1,1.2,0.1,1.8c0.3,1.1,1.8,1.7,3.1,2.2c0.1,0.1,0.2,0.2,0.2,0.2c0,0.2-0.2,0.1-0.6,0.1
			c-0.6-0.1-0.9,0.1-1.1,0.7c-0.1,0.1-0.2,0.4-0.4,0.5c-0.1,0.2-0.3,0.3-0.3,0.4c0,0.1-0.1,0.4-0.3,0.7c-0.1,0.2-0.2,0.3-0.2,0.6
			c0,0.8,0,1.8,0.1,2.4c0.1,0.5,0.7,0.7,0.9,0.8c0.3,0.1,0.4,0.4,0.3,0.6c-0.2,1.3-1,2.1-1.2,1.7c-0.1-0.1-0.1-0.6-0.1-0.6
			c0,0-0.1,0.4-0.1,0.6c0,0.2,0.3,0.3,0.5,0.2c0.4-0.1,0.6-0.5,0.9-1.3c0.1-0.3,0.2-0.5,0.3-0.5c0.3,0,0.7,0.6,0.7,0.6
			c-1.5,1.2-4.3,3.5-4.3,3.5V9.2h23.5c0.1,3.2-0.3,6-1.4,8.9c-1.4,3.1-3.5,5.4-5.1,8.3c-2,3.5-2.6,7-1.9,10.6
			c-2,2.6-3.7,3.9-5.3,5.1c0,0-1.2-1.3-1.9-2c0,0,0.3,0,0.6,0c1.5-0.2,3.2-0.4,3.8-2c0.1-0.2,0.1-0.3-0.1-0.3c-1.2,0.2-2.2,0-2.9,0
			C18.7,38,18,38.6,18,38.6L18,38.6z M18.2,39.8c0,0-1.9-0.9-2.1-0.9c-0.8-0.2-2.9-1.2-3.2-1.9c0-0.1-0.2-1.4-0.2-1.7l0.1,0
			c0.2,0.1,1.1,0.7,1.4,0.8c1.3,0.6,1.8,1.1,2.1,2c0.1,0.2,0.2,0.5,0.2,0.5c0.1,0.1,0.1,0.1,0.3,0c0.5-0.7,0.8-1.3,1.1-2.1
			c0-0.1,0.1-0.2,0.1-0.3c-0.1-0.3-0.3-0.8-0.1-1.1c-0.8,0-1.6-0.5-1.5-1.1c0.2-1.1,0.7-0.9,1.5-1c-0.1-2.5,2.2-1.9,2.2-0.2
			c2.6,0.2,1.4,2.6-0.1,2.2c0.6,1.4-1.2,1.9-1.4,1.6c-0.1,0.4-0.8,1.9-0.9,2.3c1.9-1.4,5-0.8,5.4-0.8C22,40.4,18.3,39.9,18.2,39.8z
			 M52.6,31.2c0.5,0.4,4.6,3,5.4,3c0,0,0.4,0.4,0.7,0.8c0.3,0.3,0.4,0.4,0.4,0.5l-0.1,0.1c-1.8-0.8-3.7-1.7-5.3-3
			c-0.2-0.2-0.3-0.3-0.4-0.4C53,32,52.6,31.3,52.6,31.2z M53.9,33.3c1.9,1.1,3.5,2.1,5.2,2.6c0.2,0.1,0.4,0.1,0.5,0.2
			c0.1,0.1,0.6,0.4,0.8,0.5c0.8,0.5,0.9,0.4,0.7,0.5c-0.2,0.1-1.6-0.3-2.7-0.7c-2.1-0.8-2.8-1.2-3.5-1.9
			C54.6,34.3,53.8,33.4,53.9,33.3z M16.5,39.2c0.2,0,0.4,0.1,0.7,0.3c0.3,0.2,1,0.7,1.3,0.8c0.1,0.1,0.2,0.1,0.2,0.1l1.8,2.1
			l-4.8,3.9c0,0-0.4-0.4-0.5-0.5c-0.1-0.1-0.1-0.2,0.1-0.4c0.1-0.1,0.1-0.4,0.1-0.5c0-0.2,0-0.4,0.2-0.6c0.2-0.1,0.2-0.4,0.2-0.4
			c0-0.1,0.1-0.2,0.3-0.3c0.3-0.2,0.4-0.5,0.3-0.9c0-0.1-0.1-0.2,0.1-0.3c0.3-0.2,0.4-0.4,0.4-0.8l0-0.2c-0.1-0.4,0.2-0.3,0.5,0.2
			c0.1,0.2,0.2,0.6,0.2,1.1c0.1,0.5,0.1,0.7,0.2,0.6c0.2-0.4,0-2-0.5-2.3c-0.7-0.3-1.3-1-1.1-1.2c0.1-0.1,0.1-0.1,0.5,0.1
			c0.3,0.1,0.5,0.2,0.5,0.2c0.5,0,0.2-0.2,0-0.2c-0.2,0-0.8-0.4-0.9-0.5C16.2,39.3,16.3,39.2,16.5,39.2z M15.2,39.5
			c0.5,0,0.6,0.1,0.6,0.5c0,0.2,0.1,0.4,0.5,0.9c0.2,0.2,0.3,0.3,0.2,0.4c0,0.1-0.1,0-0.6-0.1c-0.2,0-0.3,0-0.3,0.1
			c-0.2,0.3-0.5,0-0.8-0.4C14.3,40,14.5,39.5,15.2,39.5z M24.1,40l5.1,6.2l-0.6,0.4l-5.1-6.1L24.1,40z M23.3,40.4l0.5,0.9
			c0,0-1.6,1.3-2,1.7C18.5,45.8,11,51.9,11,51.9l-0.1-1.2L23.3,40.4z M14.1,40.6c0.1,0,0.2,0.1,0.4,0.4c0.1,0.2,0.4,0.6,0.8,0.9
			c0.6,0.6,0.7,0.5,0.2,0.6c-0.2,0-0.3,0-0.4,0.3c-0.4,0.5-1.5-1.2-1.2-1.8C13.9,40.7,14,40.6,14.1,40.6z M15.9,41.5
			c0.1,0,0.2,0,0.4,0.1c0.3,0.1,0.3,0.2,0.2,0.4c0,0.2-0.2,0.3-0.6,0C15.6,41.7,15.7,41.5,15.9,41.5z M24,41.6l0.6,0.8l-13.5,11
			v-1.3C11.4,52.1,20.1,44.6,24,41.6z M13.5,41.8c0,0,0.1,0.1,0.2,0.3c0.3,0.5,0.6,0.8,0.9,1c0.3,0.2,0.3,0.4,0.1,0.4
			c-0.1,0-0.2,0.1-0.3,0.2c-0.1,0.2-0.1,0.2-0.3,0.1c-0.3-0.2-0.6-0.4-0.7-0.7C13.4,42.7,13.4,42.2,13.5,41.8L13.5,41.8z M15.6,42.6
			c0.3,0,0.6,0.4,0.4,0.7c-0.1,0.1-0.2,0.2-0.5,0c-0.3-0.2-0.4-0.5-0.1-0.7L15.6,42.6z M13.4,43.5c0.1,0,0.2,0.1,0.4,0.3
			c0.2,0.2,0.5,0.3,0.6,0.4c0.3,0.1,0.3,0.2,0.1,0.3c-0.1,0.1-0.3,0.1-0.3,0.2c-0.2,0.5-0.8-0.1-0.9-0.7
			C13.3,43.7,13.3,43.5,13.4,43.5z M15.1,43.6c0.4,0,0.6,0.5,0.3,0.8c-0.2,0.1-0.7-0.1-0.7-0.4C14.6,43.8,14.9,43.5,15.1,43.6z
			 M25.1,43.9c0.2,0,0.5,0.2,0.5,0.5c0,0.3-0.2,0.5-0.5,0.5c-0.2,0-0.5-0.2-0.5-0.5C24.7,44.1,24.9,43.9,25.1,43.9z M23.8,44.1
			c0.2,0,0.5,0.2,0.5,0.5c0,0.3-0.2,0.5-0.5,0.5s-0.5-0.2-0.5-0.5C23.3,44.3,23.5,44.1,23.8,44.1z M14.7,44.7L14.7,44.7
			c0.5,0,0.5,0.4,0.3,0.6c-0.1,0.1-0.3,0.2-0.5,0C14.2,45.1,14.3,44.7,14.7,44.7z M24.8,45.4c0.2,0,0.5,0.2,0.5,0.5
			c0,0.3-0.2,0.5-0.5,0.5s-0.5-0.2-0.5-0.5C24.3,45.6,24.5,45.4,24.8,45.4z M64.4,45.4v1.1L48.5,59.9L48,59.2L64.4,45.4z M23.9,45.5
			l-1.2,2.7l-0.4-0.7l-0.9,0l0.3-0.8l-0.5-0.6L23.9,45.5z M49,56.6l2.1-1.7c-0.9-4.6,2.7-6.4,6.1-5.1l2.1-1.8
			C55.4,44.6,46.1,46.9,49,56.6z M20.6,47.6c0.2,0,0.5,0.2,0.5,0.5c0,0.3-0.2,0.5-0.5,0.5c-0.2,0-0.5-0.2-0.5-0.5
			C20.1,47.8,20.3,47.6,20.6,47.6z M19.2,47.7c0.2,0,0.4,0.2,0.4,0.4c0,0.3-0.2,0.5-0.4,0.5s-0.5-0.2-0.5-0.5
			C18.7,47.9,19,47.7,19.2,47.7z M26.5,48.7l-2.1,1.7c0.5,4.4-1.6,6.6-6.2,5.1l-2.2,1.8C22,61.3,29.8,56,26.5,48.7z M20.1,49
			c0.2,0,0.5,0.2,0.5,0.5c0,0.3-0.2,0.5-0.5,0.5c-0.2,0-0.5-0.2-0.5-0.5C19.6,49.2,19.8,49,20.1,49z M63.9,49.2
			c0.2,0,0.5,0.2,0.5,0.5c0,0.3-0.2,0.5-0.5,0.5s-0.5-0.2-0.5-0.5C63.4,49.4,63.6,49.2,63.9,49.2z M19.2,49.3l-1.3,2.6l-0.3-0.8
			l-0.9,0l0.3-0.9l-0.6-0.5L19.2,49.3z M62.1,49.5l0.4,0.7l0.9,0L63,50.9l0.6,0.7l-2.8,0.7L62.1,49.5z M16,51.5
			c0.2,0,0.5,0.2,0.5,0.5c0,0.3-0.2,0.5-0.5,0.5s-0.5-0.2-0.5-0.5C15.5,51.7,15.7,51.5,16,51.5z M14.7,51.5c0.2,0,0.5,0.2,0.5,0.5
			c0,0.3-0.2,0.5-0.5,0.5c-0.2,0-0.5-0.2-0.5-0.5C14.2,51.7,14.4,51.5,14.7,51.5z M59.9,51.8c0.2,0,0.5,0.2,0.5,0.5
			c0,0.3-0.2,0.5-0.5,0.5s-0.5-0.2-0.5-0.5C59.4,52,59.6,51.8,59.9,51.8z M64.5,51.9v1L51.6,63.7L51,63L64.5,51.9z M15.6,52.8
			c0.2,0,0.5,0.2,0.5,0.5c0,0.3-0.2,0.5-0.5,0.5c-0.2,0-0.5-0.2-0.5-0.5C15.1,53,15.3,52.8,15.6,52.8z M60.8,52.9
			c0.2,0,0.5,0.2,0.5,0.5s-0.2,0.5-0.5,0.5s-0.5-0.2-0.5-0.5C60.4,53.2,60.6,52.9,60.8,52.9z M59.5,53c0.2,0,0.5,0.2,0.5,0.5
			c0,0.3-0.2,0.5-0.5,0.5s-0.5-0.2-0.5-0.5C59.1,53.2,59.3,53,59.5,53z M64.6,53.2l0,1.3c-4,3.5-12.3,10.3-12.3,10.3l-0.6-0.9
			C51.7,63.9,60.7,56.1,64.6,53.2z M14.8,53l-1.2,2.8L13,55.1L12.2,55l0.2-0.8l-0.7-0.5L14.8,53z M57.9,54.1l0.8-0.2l-0.1,0.8
			l0.6,0.6L56.2,56l1.4-2.6L57.9,54.1z M62.3,67.8c0.6,0.9,0.6,1.9,0.3,2c-0.3-0.1-0.5-0.4-0.8-0.5c-1.4-0.6-2.5-1.1-2.6-1.9
			C58.4,65.4,61.8,67.1,62.3,67.8z M55.1,62.6l4.6-3.7c0,0,0.7,0.4,0.8,0.5c0,0.2-0.1,0.2-0.3,0.4c-0.1,0.1-0.1,0.2-0.1,0.5
			c0,0.3,0.1,0.4,0,0.5c-0.2,0-0.3,0.2-0.3,0.4c0,0.1-0.2,0.3-0.3,0.4c-0.2,0.2-0.2,0.2-0.4,0.9L59,62.7c-0.3,0-0.5,0.7-0.6,0.7
			c-0.2,0-0.5-0.2-0.6-0.6c0-0.2,0-0.7,0-1c0.1-0.3,0.1-0.6,0.1-0.7c0-0.2-0.2-0.1-0.2,0.2c0,0.1,0,0.4-0.1,0.7
			c-0.1,0.3-0.3,0.7-0.2,1c0.1,0.4,0.6,0.5,0.8,0.7c0.5,0.5,0.7,0.7,0.7,0.9c0.4,0.8,0.4,0.9,0.3,1.5c-0.1,0.3-0.4,0.3-0.6,0.1
			c0,0-1.3-0.9-1.9-1.4C56.1,64.2,55.5,63.4,55.1,62.6L55.1,62.6z M56.8,65.2c0.5,0.2,1.8,1.1,1.8,1.1l-1.2,2.4
			c0.2,0.4,0.3,1.3,0.3,1.3c1.5-0.1,2.3,2.4,0,2.2c0.3,1.5-2.2,2.8-2.1,0c-2.6,0.2-1.7-2.7-0.1-2.2c0-1.2,0.8-1.4,1.4-1.7
			c0.5-0.5,0.8-1.8,0.8-1.8l-0.1-0.4v0c-0.5,0.9-2.6,1.1-4.9,0.6C53.2,65.4,55.1,65.4,56.8,65.2L56.8,65.2z M52.3,67.1
			c-0.1,0.3-0.1,0.3,0.3,0.3c0.2,0,0.9,0,1.4,0c0.9,0.1,2.4,0.1,3.1-0.5c0.1-0.1,0.2-0.1,0.2-0.1c0.1,0.4-0.6,1.5-0.6,1.5L55.5,69
			c0,0-0.5,0-1.1,0l0,1.1c-0.5,0.3-1.3,1.5,0,2.4l0,1.1l1.1,0c0.7,0.7,1.4,0.7,2,0l1.3,0l0-1.2c0.6-0.5,0.7-1.4,0.1-2.1l0-1.3l-1,0
			c0,0-0.2-0.2-0.2-0.3c0-0.1,0.7-1.5,0.9-1.7c0.2-0.3,0.1-0.1,0.4,0.5c0.4,0.9,0.8,1.2,1.9,1.7c0.9,0.5,1.3,0.7,1.5,0.9
			c0.2,0.2,0.3,0.1,0.4-0.2c0.2-0.7,0.1-1.4-0.3-2c-0.8-1.3-2.2-1.4-2.4-1.7c0-0.1,0.3-0.2,0.6-0.3c0.5-0.3,1.3-1.3,1.4-1.7
			c0-0.2,0.1-0.8,0.2-0.9c0.1-0.2,0.1-0.3,0.1-1c-0.1-0.4,0-0.8,0-1c0-0.3-0.1-0.7-0.4-1.2C62,59.8,62.1,60,62.3,59
			c0-0.2,0.4-1.5,0-1.6l0.1,0.1c0.1,0.4,0,0.9-0.1,1.3c-0.3,1.1-0.3,1.2-0.6,1.1l-0.6-0.4c0,0,0-0.5,0.1-1c-0.1,0.2-0.1,0.6-0.3,0.7
			c-0.1,0-0.3-0.1-0.5-0.3c-0.1-0.1-0.3-0.3-0.3-0.3s3.3-2.8,4.5-3.7v41.5l-23.4,0c-0.3-2.6,0.5-6,1.8-9.4c0.8-2.1,1.9-3.7,3.2-5.5
			c2.4-3.6,4.3-7.2,3.6-11.9c-0.1-0.7-0.2-1-0.2-1.2c0.3-0.6,1.5-2.3,2.3-3c1.3-1,3-2.6,3.2-2.5c0.4,0.8,0.9,1.5,1.6,2
			c0.1,0.1,0.1,0.2-0.1,0.3C54.7,65.1,52.9,65.5,52.3,67.1L52.3,67.1z M11.6,55.3c0.2,0,0.5,0.2,0.5,0.5c0,0.3-0.2,0.5-0.5,0.5
			c-0.2,0-0.5-0.2-0.5-0.5C11.2,55.5,11.4,55.3,11.6,55.3z M55.4,55.4c0.2,0,0.5,0.2,0.5,0.5s-0.2,0.5-0.5,0.5S55,56.1,55,55.8
			S55.2,55.4,55.4,55.4z M56.4,56.6c0.2,0,0.5,0.2,0.5,0.5c0,0.3-0.2,0.5-0.5,0.5c-0.2,0-0.5-0.2-0.5-0.5
			C55.9,56.8,56.1,56.6,56.4,56.6z M54.9,56.8c0.2,0,0.5,0.2,0.5,0.5c0,0.3-0.2,0.5-0.5,0.5c-0.2,0-0.5-0.2-0.5-0.5
			C54.5,57,54.7,56.8,54.9,56.8z M53.3,57.8l0.8,0c-0.1,0.3-0.2,0.6-0.2,0.9l0.7,0.5l-2.9,0.5l1.2-2.6L53.3,57.8z M51.4,65.3
			L46.5,59l0.6-0.5l4.9,6.2L51.4,65.3z M50.8,59.2c0.2,0,0.5,0.2,0.5,0.5c0,0.3-0.2,0.5-0.5,0.5c-0.2,0-0.5-0.2-0.5-0.5
			C50.3,59.4,50.5,59.2,50.8,59.2z M60.9,59.9c0.4,0.3,0,0.7-0.4,0.6c-0.3-0.1-0.3-0.5,0-0.6C60.7,59.8,60.8,59.8,60.9,59.9z
			 M61.5,60.2c0.4,0,0.8,1,0.8,1.2c-0.1,0.3-0.2,0.3-0.8-0.1c-0.6-0.5-0.6-0.5-0.3-0.8C61.2,60.4,61.3,60.2,61.5,60.2L61.5,60.2z
			 M51.9,60.4c0.2,0,0.5,0.2,0.5,0.5c0,0.3-0.2,0.5-0.5,0.5c-0.2,0-0.5-0.2-0.5-0.5C51.4,60.6,51.6,60.4,51.9,60.4z M50.5,60.6
			c0.2,0,0.5,0.2,0.5,0.5c0,0.3-0.2,0.5-0.5,0.5c-0.2,0-0.5-0.2-0.5-0.5C50,60.8,50.2,60.6,50.5,60.6z M60.4,60.9
			c0.4,0.1,0.6,0.4,0.4,0.7c-0.3,0.3-0.9,0-0.8-0.4C60.1,61,60.2,60.9,60.4,60.9L60.4,60.9z M61.2,61.4c0.2,0,0.4,0.2,0.7,0.6
			c0.3,0.5,0.3,0.6,0.3,0.9C62,63.3,62,63.4,61.7,63c-0.1-0.1-0.4-0.5-0.5-0.7c-0.4-0.4-0.4-0.3-0.2-0.6
			C61,61.5,61.1,61.4,61.2,61.4z M60.2,61.9c0.4,0.2,0.4,0.5,0.2,0.7c-0.3,0.2-0.8,0-0.9-0.3C59.4,61.8,59.8,61.6,60.2,61.9z
			 M60.8,62.5c0.2,0,0.4,0.2,0.7,0.7c0.5,0.8,0.5,1,0.1,1.5C61.3,65,61.3,65,61,64.5c-0.2-0.5-0.7-1-1.1-1.4
			c-0.2-0.1-0.2-0.3-0.1-0.3c0,0,0.2,0,0.3,0c0.2,0,0.3,0,0.4-0.2L60.8,62.5z M59.2,63.1c0.2,0,0.5,0.1,0.7,0.3
			c0.2,0.2,0.2,0.5-0.2,0.5c-0.2,0.1-0.8-0.3-0.8-0.5C58.9,63.2,59,63.1,59.2,63.1z M60.3,63.9L60.3,63.9c0.2,0,0.3,0.2,0.5,0.6
			c0.3,0.7,0.2,1-0.3,1.3c-0.4,0.2-0.7,0.3-0.7,0c0-0.1,0-0.3,0-0.4c0-0.2-0.1-0.5-0.3-0.8c-0.3-0.5-0.4-0.7,0-0.6
			c0.2,0.1,0.4,0.1,0.6,0C60.1,64,60.2,63.9,60.3,63.9L60.3,63.9z M58.4,65c-0.1,0-0.2,0.1-0.2,0.3c0.1,0.1,0.3,0,0.4,0.1
			c0.2,0.1,0.3,0.4,0.5,0.3C59.2,65.4,58.6,65,58.4,65L58.4,65z M19.3,69.6c-1.1-0.5-3.7-1.7-4.9-1.7c-2.3-0.7-2.4-0.4-3.2-0.6
			c4.3-1.1,7.2,1,8.3,2.1C19.9,69.9,19.7,69.8,19.3,69.6z M22,79.9c2.5,4.3,4.8,9.2,8.7,16.4l-0.4,0.1l-14.8,0
			c0.7-8-3.6-15.6-3.8-15.3c3.4,0.1,6.1-0.6,6.7-1.8l-0.5-0.1c-2,1.7-4.9,1.8-6.8,1.2c0-4.2-0.1-8.5,0-12.7c2.3-0.2,4.1,0.7,5.4,2.4
			C18.7,72.9,20.1,76.5,22,79.9z M15.2,68.3c0.6,0,3.8,1.3,5.3,2.3c0.4,0.4,1,1.1,1,1.2c0,0.2-0.3,0-1.7-0.8
			c-1.1-0.6-2.2-1.1-3.2-1.5l-0.1-0.1c0,0-0.1-0.1-0.2-0.2C15.8,68.9,15.1,68.4,15.2,68.3L15.2,68.3z M16.8,69.9
			c0,0,3.2,1.2,5.8,3.2c0.3,0.3,0.8,1.3,0.8,1.3c-0.2-0.4-4.3-2.9-5.7-3.4L16.8,69.9z M17.9,71.4c0.2-0.1,4.9,2.7,5.6,3.4
			c0.3,0.2,1.1,1.4,1.1,1.7c0,0.2-0.2,0-0.7-0.4c-2.2-2-5.3-3.6-5.4-3.6L17.9,71.4z M18.8,73.1c2.2,0.9,5,3.2,6.4,4.6
			c0.4,0.4,0.6,0.9,0.7,1.1c0,0.1,0,0.1-0.1,0.2c-1.8-2.1-5.9-4.5-6.4-4.7C19.5,74.4,19,73.4,18.8,73.1z M26.2,79.6
			c0.3,0.3,0.7,1.2,0.6,1.3c0,0.1,0,0-0.1,0c-0.6-0.6-3.6-3.3-6.1-4.8c-0.2-0.1-1-1.4-0.9-1.4C21,75.1,24.8,78.2,26.2,79.6
			L26.2,79.6z M20.8,76.6c0,0,0.1,0.1,0.3,0.1c2.3,1.3,5.7,4.5,6.3,5.3c0.1,0.2,0.4,0.7,0.4,0.9c0,0.2-0.1,0-1-0.9
			c-1.5-1.5-3.2-2.9-5.1-4.1c-0.4-0.2-0.3-0.3-0.5-0.7C20.8,76.8,20.7,76.6,20.8,76.6L20.8,76.6z M35.6,76.7c1.6,0,2.3,1.3,3.3,3.6
			c0.8,2.3,1.2,4.4,1.2,6c0,0.1-0.2,0-0.3,0c-0.4-0.1-1-0.2-1.6-0.1c-0.5,0.1-0.9,0.1-0.4-0.2c0.2-0.1,0.6-0.5,0.8-0.6
			c0.5-0.3,0.2-0.3-0.3-0.1c-0.3,0.2-0.6,0.4-0.7,0.4c-0.1,0,0-0.3,0.1-0.5c0.5-1.2,0.6-1.9-0.1-2.1c-0.2-0.1-0.5-0.2-0.6-0.4
			c-0.1-0.1-0.2-0.5-0.2-0.5l-0.1,0.4c0,0.2,0.2,0.6,0.5,0.8c0.5,0.4,0.6,0.5,0.3,1.3c-0.4,1.2-0.5,1.5-0.5,1.8
			c0,0.2-0.1,0.4-0.2,0.6c-0.1,0.7-0.1,1.3-0.1,1.8c0.2,1.2,1.5,1.9,3.3,1.2c0.2-0.1,0.2,0,0.2,0c-1.4,1.5-3,2.4-4,5.4
			c-1.2-2.4-2.9-4.4-5.8-5.1l0-0.5c1,0.5,2.9,1.1,4.1,0.4c0.7-0.4,0.5-0.7-0.3-0.4c-0.9,0.4-2.6,0.3-3.5-0.2c-0.2-0.1-0.3,0-0.4,0
			c0-0.3-0.5-1.4-0.4-1.8l0.3,0c0.2,0.3,1.4,1.3,2.7,1.2c0.6,0,1.1-0.2,1.7-0.8l0.3-0.1l0-0.2c0,0-0.1-0.2-0.1-0.3
			c-0.1-0.1-0.1-0.2-0.1-0.3l0.1-0.2c0-0.1,0-0.2,0-0.3c-0.1-0.1-0.1-0.2,0-0.3c0.2-0.2-1.4-1.7-1.8-1.7c-0.1,0,0,0.2,0.2,0.4
			c0.8,0.5,1.4,1.3,1.3,1.4c-0.1,0.1-0.5-0.1-0.8-0.2C32.9,86.4,32,86.3,31,87c-0.4,0.3-1.3,0.3-1.3,0.3c0-0.5-2.2-6.4-2.2-6.2
			c0.8-0.9,3.4-3.2,5.9-4.2C34.2,76.7,35,76.6,35.6,76.7L35.6,76.7z M25.9,78l4.6,0.1c-1.2,0.6-3.3,2.7-3.3,2.7
			C26.6,79.6,26.5,78.9,25.9,78L25.9,78z M21.9,78.6c0.3,0,4,3,4.5,3.7c0.1,0.1,0.4,0.5,0.8,0.9c0.9,1,1.3,1.5,1.3,1.9
			c0,0.2-0.2,0.1-0.4-0.2c-1.9-2.1-3.1-3.3-5.5-4.9C22.4,79.9,21.6,78.7,21.9,78.6L21.9,78.6L21.9,78.6z M34.5,79.2
			c-0.1,0-0.1,0.1,0,0.2c0.6,0.5,2.1,0.5,2.7,0.1c0.5-0.4-0.1-0.2-0.3-0.1c-0.5,0.2-1,0.2-1.6,0C34.8,79.2,34.6,79.2,34.5,79.2
			L34.5,79.2z M35.9,80c-0.5,0-1.1,0.2-1,0.4c0,0.1,0.2,0.2,0.5,0c0.5-0.3,1.5,0.1,1.6,0.1c0.1,0-0.3-0.3-0.5-0.4
			C36.4,80,36.1,80,35.9,80z M22.9,80.6c2,1.2,4.4,3.6,5.8,5.4c0.2,0.3,0.4,0.7,0.4,0.9c0,0.3-0.1,0.1-1.4-1.2
			c-1-1.1-2.6-2.5-3.6-3.3c-0.6-0.5-0.7-0.5-1-1C22.9,80.8,22.8,80.6,22.9,80.6z M35.2,81c-0.4,0.2-0.9,0.1-1.3,0
			c-0.4-0.1-0.3,0-0.2,0.5c0.1,0.2,0.1,0.5,0.1,0.6c0,0.1,0,0.1,0.3-0.1c0.3-0.1,0.3-0.2,0.9-0.1c0.6,0.1,0.6,0.1,0.9-0.1
			c0.2-0.1,0.3-0.2,0.4-0.1c0.3,0.1,0.7,0.2,1.1,0c0.3-0.2,0.4-0.1,0.6,0c0.2,0.1,0.3,0,0.2-0.2c0-0.1-0.1-0.4-0.1-0.5
			c0-0.2-0.1-0.4-0.1-0.3c-0.3,0.2-0.6,0.3-0.9,0.3C36.5,80.9,36.1,80.6,35.2,81L35.2,81z M11.1,81.4c4.9,6.1,4.1,15,4,14.9l-4,0
			V81.4z M24,82.6c2,1.4,4.3,3.8,5.6,5.5c0.2,0.3,0,0.4,0.2,0.7c0,0.1-0.2-0.1-0.8-0.7c-0.8-0.8-2.1-2.1-2.9-2.8
			c-0.9-0.8-1.2-1-1.4-1.3C24.5,83.8,23.8,82.7,24,82.6L24,82.6z M35,83.2L35,83.2c-0.8,0-1.1,0.8-0.5,1.4c0.2,0.2,0.6,0.3,0.6,0.2
			l-0.2-0.2c-0.5-0.4-0.4-1,0.1-1c0.2,0,0.2,0.1,0.7,0.4c0.5,0.4,1.2,0.4,1.2,0c0-0.3-0.1-0.6-0.6-0.5c-0.1,0-0.3,0-0.4,0
			c-0.1,0-0.3-0.1-0.3-0.1C35.3,83.2,35.2,83.2,35,83.2z M25.2,85c1.5,1,3.6,3.3,4.6,4.7c0.2,0.3,0.3,0.7,0.2,0.9l-0.2-0.1
			c-1.2-1.4-2.6-2.8-4-4.1C25.9,86.4,25,85.1,25.2,85z M39.8,87.2l-0.3,0.2c-0.5-0.7-0.9-0.8-1.3,0.1l-0.2-0.1
			C37.7,87.2,38.6,85.3,39.8,87.2L39.8,87.2z M39.7,86.6c0.1,0,0.4,0.1,0.4,0.2c0.1,0.1,0,0.3-0.2,0.3c0,0-0.2-0.2-0.3-0.4
			C39.6,86.6,39.6,86.6,39.7,86.6z M34.2,87.5l-0.4,0c-0.7-0.9-1.2-0.3-1.5,0.1l-0.4-0.1C32,86.5,33.8,86.2,34.2,87.5L34.2,87.5z
			 M37.7,86.7l0.2,0c-0.1,0.2-0.2,0.4-0.2,0.6c-0.1,0.1-0.3,0.2-0.5,0C36.9,87.1,37.4,86.7,37.7,86.7L37.7,86.7z M32.1,86.8
			C32.2,86.8,32.2,86.8,32.1,86.8c0,0.2-0.1,0.4-0.2,0.5c0,0.1,0,0.1-0.1,0.2c-0.2,0-0.6-0.1-0.6-0.1C31,87.3,31.6,86.8,32.1,86.8z
			 M34.3,86.9c0.1,0,0.1,0.2,0.1,0.2c-0.1,0.1-0.1,0.1-0.1,0L34.1,87l0-0.1L34.3,86.9z M40.2,87.7c0.4,0,0.1,0.7-0.4,0.9
			c-0.7,0.3-1.4,0.3-2.2-0.2c-0.4-0.2-0.6-0.5-0.2-0.4c1.4,0.4,1.8,0.3,2.6-0.2L40.2,87.7z M26.5,87.5c1.4,1.2,2.5,2.6,3.6,3.8
			c0.2,0.3,0.3,0.5,0.3,0.7c-0.1,0.2-0.5-0.3-0.5-0.3l-2.8-3L26.5,87.5z M30.8,87.9c0.1,0,0.3,0,0.6,0.1c1.4,0.4,1.8,0.4,2.6,0
			c0.5-0.2,0.7-0.2,0.5,0.1c-0.4,0.6-1.8,0.7-2.8,0.4c-0.3-0.1-0.5-0.3-0.8-0.5C30.7,88,30.6,87.9,30.8,87.9z M37,88.3
			c0.1,0,0.2,0.1,0.4,0.2c1.1,0.6,2,0.5,2.7,0.1c0.1-0.1,0.2-0.1,0.2,0.1c0.1,0.4,0.1,0.7-0.1,0.9c-0.1,0.1-0.3,0.2-0.6,0.3
			c-1.1,0.4-2.4,0.1-2.7-0.7C36.9,88.6,36.9,88.3,37,88.3z M28,90.1L28,90.1c0.1,0,0.3,0.2,0.6,0.5c1.5,1.7,2.4,2.7,2.2,3.2
			l-0.1,0.1c-0.8-0.7-1.5-1.5-2-2.3C28.1,90.6,27.9,90.1,28,90.1z M40.2,91.3c-1.3,1-2.8,3.3-3,4.5c0,0.2,0,0.4-0.1,0.5
			c-0.1,0.1-0.2,0.1-0.4,0c-0.1,0-0.1,0-0.1-0.2c-0.1-0.5,0.4-1.9,1.4-3.4c0.5-0.8,1.8-1.9,2.1-1.9C40.4,90.9,40.2,91.3,40.2,91.3z
			 M30.7,90.8c0.1,0,0.2,0,0.4,0.1c1.1,0.5,1.6,0.7,2.3,1.3c1.4,1.1,2.9,3.8,2.5,4.1c-0.2,0.1-0.3,0-0.4-0.2c0,0-0.2-0.4-0.3-0.7
			c-0.9-1.7-2.1-2.9-3.8-3.7c-0.6-0.3-0.7-0.3-0.7-0.5C30.6,90.9,30.6,90.8,30.7,90.8L30.7,90.8z M40.2,91.8c0.1,0,0.1,0.2,0.1,0.6
			c0,0.3-0.1,0.3-0.4,0.7c-0.6,0.5-1.3,1.7-1.7,2.9l-0.1,0.2c-0.2,0.1-0.4,0.1-0.5,0.1c-0.1-0.1-0.1-0.3-0.1-0.4
			c0.3-1.1,1-2.4,2.1-3.6C39.9,92,40.1,91.8,40.2,91.8L40.2,91.8z M31,91.8c0.6,0,2.8,1.6,3.6,3c0.6,0.9,0.7,1.3,0.6,1.4
			c-0.1,0.1-0.4,0.1-0.5,0c-0.1-0.1-0.2-0.3-0.5-0.8c-0.7-1.3-1.7-2.3-2.9-2.8c-0.2-0.1-0.3-0.2-0.4-0.2
			C30.9,92.3,30.8,91.9,31,91.8L31,91.8z M31.3,93c0.2,0,0.7,0.4,1.1,0.7c0.8,0.6,1.9,2.3,1.7,2.6c-0.1,0.1-0.3,0.1-0.5,0
			c-0.8-1.5-1.9-2.2-2.3-2.6C31.2,93.5,30.9,93,31.3,93z M29.6,93.3c0,0,0.2,0.1,0.4,0.4c0.8,0.8,1.3,1.7,1.2,2.2
			c-0.1,0.4-0.2,0.2-1.1-1.5C29.7,93.6,29.5,93.3,29.6,93.3z M40.2,93.3c0,0.5,0,0.6-0.1,0.8c0,0.2-0.1,0.2-0.3,0.4
			c-0.3,0.3-0.6,0.9-0.7,1.4c-0.1,0.4-0.1,0.5-0.5,0.4c-0.2,0-0.2-0.1-0.1-0.3C38.9,95.2,39.6,93.9,40.2,93.3L40.2,93.3z M31.4,94.2
			c0-0.2,2.1,1.9,1.8,2.1c-0.3,0-0.4,0.1-0.5,0c-0.2-0.5-1.2-1.4-1.2-1.4L31.4,94.2z M40.1,94.9L40.1,94.9c0.1,0,0.1,1.3,0,1.4
			c-0.1,0.1-0.4,0.1-0.6,0c-0.1,0-0.1-0.1-0.1-0.2C39.5,95.8,40,94.9,40.1,94.9z M32.3,96.3c-0.1,0.1-0.5,0.1-0.6,0
			c0,0-0.1-0.7,0-0.8C31.8,95.4,32.3,96.1,32.3,96.3z"/>
		<path class="st3" d="M47,8.7l0.3,0.3l-1.5,0c0.2,0.2,5.9,11.6,13.1,24.7c1.2,2.3,3.5,3.1,6.1,3.2l-7-11.3c0.7-0.4,2.2-1.5,3.1-1.3
			c0.1,0.3,0.3,0.2,0.3-0.1l0.3,0l0.1,0.2h1.4l0.1-0.2l1.2,0.2c-3.1-3.9-4.8-9.8-4.2-15.7l-10.4,0l-0.1-0.2L47,8.7z M45.8,9.1
			L45.8,9.1L45.8,9.1z M33.8,16.7c-1.2,3.8-4.1,7-5.8,10.1c-1.9,3.5-2.3,6.5-1.8,9.8l0.3,0c4-5.4,7-11.9,8.7-18.3c0-0.1,0-0.4,0-0.5
			c-0.1-0.2,0-0.4,0-0.4c0.1-0.1,0.1-0.5,0-1.2c-0.2-2-0.2-3.6,0-5.5c0.1-1.4,0.1-1.6,0.1-1.6l-0.7,0C34.9,11.5,34.6,14.4,33.8,16.7
			z M50.1,9.2l1.1,0c0.2,3.4,3,3.9,3.5,3.8c-0.7,2.3,0.5,4.8,3.4,5.2c-0.7,2.1,0.5,5,2.8,4.9l0.2,0.2c-0.2,0.3-0.2,0.9-0.2,1
			c-0.5,0-0.8,0.1-1.1,0.2C56.9,19.9,50.1,9.2,50.1,9.2z M60,9.2c-0.3,3.8,0.4,9.1,2.2,12.2l-0.1,0.3c-0.2,0.3-0.3,0-0.4-0.2
			c-0.4-0.7-1.1-0.8-1.4-0.4c-0.7,1,0.1,1.3,0.6,1.9c-2.4-0.1-3.2-2.8-2.6-4.1c0,0.2,0.1,0.6,0.3,0.9c0.7,1,1.7,0.2,1.4-0.6
			c-0.1-0.3-0.5-0.9-0.5-0.9s0.6-0.1,0.8-0.2c0.2-0.1,0.4-0.4,0.3-0.7c0-0.3-0.1-0.4-0.2-0.6c-0.2-0.2-0.5-0.4-0.7-0.4
			c-0.5,0-0.6,0.4-0.9,0.6c-0.1-0.6-0.5-1.1-1.1-1c-0.5,0.1-0.8,0.6-0.5,1.3c0.2,0.3,0.4,0.4,0.6,0.7c-3.4-0.4-3.1-4.5-2.7-4.4
			c0,0,0.1,0,0.1,0.1c-0.2,1,1,1.6,1.6,0.9c0.3-0.6-0.4-1.5-0.4-1.5s0.5-0.1,0.7-0.2c0.9-0.5-0.1-2-0.9-1.6
			c-0.3,0.1-0.4,0.4-0.7,0.6c-0.2-0.2-0.2-0.4-0.5-0.6c-0.9-0.5-1.5,0.7-1,1.3c0.2,0.2,0.6,0.4,0.5,0.5c-2.9-0.4-2.9-3.4-2.8-3.4
			L60,9.2z M34.9,9.3l0.4,0c-0.1,1.8-0.4,4.2-0.2,6c0.2,1.7,0.2,1.9,0.1,2.1c-0.2,0.2-0.1,0.3,0,0.4c0,0.3,0,0.3,0,0.4
			c-0.4,1.4-0.8,2.9-1.4,4.4c-1.9,5.2-4.9,10.9-7.3,13.8l-0.1,0c-0.7-4.2,0.7-7.6,1.5-9c1.5-2.9,3.8-5.3,5.2-8.4
			C34.2,16.5,35.1,13.4,34.9,9.3L34.9,9.3z M49.7,9.2l9.8,15.3l-1.8,0.9l-10-16.1L49.7,9.2z M55.5,12.2c0.3,0,0.5,0.2,0.5,0.5
			c0,0.3-0.2,0.5-0.5,0.5S55,13,55,12.7C55,12.4,55.2,12.2,55.5,12.2z M58.7,17.3c0.3,0,0.5,0.2,0.5,0.5s-0.2,0.5-0.5,0.5
			c-0.3,0-0.5-0.2-0.5-0.5S58.5,17.3,58.7,17.3z M35.4,18.2c0.2,0.7-3.1,10.7-7.8,17l2,0l0.1,0.2c2.8,4.2,1.1,8-1.2,9.7l0.8,1.1
			l-0.7,0.6L27.8,46C22,50.4,10.6,60.1,10.6,60.1l0.1,1.6l0.9-0.7c5.8,5.6,18,5.3,21.2-6.3l0.9,0c-1.9,8.5-9.8,11.8-15.8,10.4
			l-1.4,2l0.4,0.2c-0.1-0.1-0.1-0.1,0-0.2l1.2-1.5c8.9,1.1,14.3-3.9,16-10.8l1.1,0c-1,5.8-3.7,10.8-7.5,14.8c-2.8,0-7.6-0.1-7.6-0.1
			c1.8,1.7,5.2,7,5.3,7.5c0,0,3.5,0.1,7.2,0c1.4-0.6,3.2-0.9,4.1-0.4c1.5,0.8,2.9,3.6,3.6,8.1c0.2,1.2,0.3,1.7,0.4,1.9l0.1,0.1
			c0.1,0-0.1,0.2-0.1,0.4c0,0.2,0,0.4,0.1,0.5c0.1,0.1,0.1,0.2,0.1,0.2l-0.2,0.2c0,2.6,0,5-0.2,8.3l0.5,0c0-5.2,1.6-10.1,4-13.4
			c1.5-2.2,3-4.5,3.9-6.8c1-2.5,1.1-5.2,0.6-7.4l-0.4,0c-2.1-1.5-3-4.6-0.4-6.8l-0.9-1.2c-2.6,2-3.2,5.8-0.5,8.9l-1.1,0
			c-2.6-3.3-2.1-7.1,1-9.8L46.4,59l0.7-0.7l0.7,0.7l17.1-14.3l0-1.6l-1.3,1.1c-7.7-7.1-19-2.1-20.7,6.4l-1,0
			c2.2-9.2,10.2-11.8,16-10.6l1.4-2.2c-1.1-0.3-2.1-1-3.1-1.8c-0.4-0.4-0.7-0.6-1-0.9c-2.8-2.9-4.6-7-4.7-7l-7.5,0
			c-1.1,0.5-3,1.2-4,0.3c-2.2-1.8-3-5.4-3.3-7.8c-0.1-0.7-0.2-2-0.2-2.4L35.4,18.2L35.4,18.2z M61.9,22.3c0.3,0,0.5,0.2,0.5,0.5
			s-0.2,0.5-0.5,0.5s-0.5-0.2-0.5-0.5S61.7,22.3,61.9,22.3z M62.9,22.8c0.4,0.5,0.7,1,0.9,1.5c-0.2,0-0.3,0-0.5-0.1
			c0-0.5-0.3-0.8-0.5-1.2L62.9,22.8z M61.5,23.5c0.2,0.1,0.3,0.6,0.2,0.7c-0.2,0-0.3,0-0.4,0C61.2,24,61.4,23.5,61.5,23.5z
			 M31.8,28.5l7,0c1.2,0.9,2.4,0.8,4.1,0.1h7.7l0.4,0.8H31.4C31.5,29,31.8,28.5,31.8,28.5z M31.2,29.7h20l0.5,0.8h-21L31.2,29.7z
			 M33.1,30.9h2.2l-0.8,1.4h-2.3L33.1,30.9z M38.1,30.9h2.1l-1,1.4h-2.1L38.1,30.9z M45,30.9l-0.9,1.4h-2.2l0.9-1.4L45,30.9z
			 M47.7,30.9h2.1l-0.8,1.4h-2.2L47.7,30.9z M18.9,31.1c-1.4,0-1.1,1.8-1,1.8c-0.9-0.2-1.5,0.2-1.6,1c-0.1,0.6,0.5,1.4,1.5,1.3
			c-0.1,0.2,0,1.1,0.1,1.1c0,0,0,0.1-0.5,1.2c-0.6,1.3-0.8,1.4-1,0.5c-0.3-0.9-0.8-1.4-2-2c-0.3-0.2-0.8-0.4-1-0.6
			c-0.6-0.4-0.6-0.4-0.5,0.4c0,1.1,0.4,1.6,1.5,2.2c0.6,0.3,1.7,0.8,1.9,0.8c0.1,0,0.7,0.2,1.4,0.6c0.1,0.1,0.7,0.4,1.3,0.4
			c0.7,0,2.3-0.1,3.2-0.6c0.5-0.3,0.7-0.6,1.1-1.3c0,0-1.3,0.1-1.9-0.1c-1.2-0.1-1.8,0-2.8,0.5c-0.8,0.4-0.8,0.5-0.5-0.2
			c0.1-0.3,0.3-0.7,0.4-1c0.1-0.4,0.2-0.4,0.5-0.4c0.7-0.1,1.2-0.5,1.2-1.3c0-0.2,0-0.4,0-0.4c0.5,0.1,1.5-0.2,1.5-1.2
			c0-0.9-0.7-1.2-1.5-1.2C20.2,32.2,19.9,31.1,18.9,31.1z M18.9,31.4c1.2,0,1.2,1.1,0.7,1.8l-0.6-0.5l-0.5,0.5
			C17.8,32.8,17.8,31.4,18.9,31.4z M52.3,31.4l0.6,0.9h-1.2L52.3,31.4z M29.5,32.7h2.3L30.9,34h-2.2C28.7,34,29.2,33.2,29.5,32.7z
			 M36.7,32.7l-0.9,1.4h-2l0.8-1.3L36.7,32.7z M39.4,32.7h2.1l-0.8,1.4h-2.1L39.4,32.7z M44.3,32.7h2.1l-0.9,1.4h-2.1L44.3,32.7z
			 M49.1,32.7h2.2l-0.9,1.4h-2.1L49.1,32.7z M18.9,33l1,1l-1,1l-1-1L18.9,33z M21.5,34c-0.2,1.2-1.3,1.1-1.7,0.6l0.5-0.5l-0.6-0.6
			C20.3,32.5,21.7,33.1,21.5,34z M18.1,33.4L17.5,34l0.6,0.6c-0.4,0.5-1.9,0.5-1.6-0.8C16.7,33,17.6,32.8,18.1,33.4z M53.4,33.3
			l0.6,0.9l-1.2,0L53.4,33.3z M28.5,34.3l25.7,0.1l0.7,0.8c-9,0.2-17.7-0.1-26.9-0.2L28.5,34.3z M19.5,34.9c1,0.6,0.3,1.9-0.8,1.7
			c-0.8-0.4-1-1.2-0.2-1.7l0.6,0.5L19.5,34.9z M28.3,35.4l-0.7,0l-0.7,0.8c2.6,2.7,2.5,5.1,0.1,7.2l1,1.1
			C30.7,42.1,31.3,38.5,28.3,35.4z M31,35.5c1.4,2.3,2.7,6.6-1.6,10.5l-0.5-0.6c3.8-3.7,2.9-6.8,1.2-9.8L31,35.5z M31.4,35.6l5.8,0
			c-1.2,4.8-2.1,7.6-2.3,15.1l-1.7,0c0.2-0.2-0.9-4.5-2.1-6C33.7,40.2,32.4,37.7,31.4,35.6z M13,35.6c0.1,0,0.3,0.1,0.7,0.4
			c0.4,0.2,0.8,0.5,1,0.6c0.8,0.5,1.2,0.9,1.4,1.5c0.2,0.5,0.1,0.5-0.4,0c-0.4-0.3-0.8-0.6-1.7-1.3c-0.3-0.2-0.5-0.2-0.3,0.1
			c0.1,0.2,0.5,0.4,1.1,0.8c0.5,0.3,1.1,0.8,1,0.9c0,0.1-0.1,0.1-0.3,0c-0.1,0-0.4-0.2-0.7-0.3c-1.3-0.5-1.8-1.2-1.9-2.2
			C12.9,35.7,12.9,35.6,13,35.6z M39.6,35.6c0,0,0.2,0.2,0.2,0.3c0,0.2-0.2,0.4-0.8,0.7c-0.2,0.1-0.4,0.2-0.4,0.3
			c0,0.3,0.6,0.8,0.5,1.2c-0.1,0.3-0.9,0.6-1.1,1c0,0.3,0.5,0.7,0.5,1c0,0.1-0.2,0.2-0.5,0.4c-0.5,0.4-0.5,0.5-0.4,0.9
			c0.4,0.8,0.5,0.7-0.1,1.3c-0.6,0.6-0.6,0.6-0.3,1.1c0.3,0.5,0.3,0.5-0.1,0.9c-0.4,0.3-0.4,0.4-0.2,0.8c0.2,0.4,0.3,0.4-0.1,0.7
			c-0.4,0.4-0.5,0.4-0.2,0.9c0.3,0.5,0.3,0.5,0,0.9c-0.3,0.4-0.4,0.4-0.2,0.6c0.2,0.3,0.3,0.4,0,0.8c-0.2,0.4-0.2,0.4,0,0.7
			c0.2,0.3,0.2,0.6,0.2,0.6l-0.7,0c0,0,0-0.4-0.1-0.6c-0.2-0.4-0.2-0.5,0-0.8c0.2-0.3,0.2-0.4,0-0.7c-0.2-0.3-0.2-0.3,0.1-0.7
			c0.3-0.4,0.3-0.5,0.1-0.7c-0.4-0.5-0.4-0.7,0-1c0.3-0.2,0.3-0.4,0.1-0.8c-0.2-0.4-0.3-0.4,0.2-0.9c0.5-0.4,0.5-0.4,0.1-0.9
			c-0.3-0.5-0.3-0.5,0.2-0.9c0.5-0.5,0.5-0.5,0.2-1c-0.3-0.5-0.3-0.5,0.3-1c0.6-0.5,0.8-0.5,0.2-1.2c-0.3-0.6-0.1-0.6,0.4-0.9
			c0.9-0.6,0.5-0.5,0.1-1.4c-0.3-0.6-0.1-0.6,0.4-0.9c0.1-0.1,0.3-0.1,0.5-0.2c0.4-0.2,0.2-0.4,0.2-0.4L39.6,35.6z M40.8,35.6l2.8,0
			c-3.2,4.1-4.8,9.4-5.3,15l-1.1,0C37.2,46.3,38.5,40.8,40.8,35.6z M55.1,35.7c1.6,1.3,2.8,2.1,3.6,2.4l-1.2,1.8
			c-6.5-1.2-14.1,2.5-15.9,10.7l-1,0c0.4-3.2,1.2-5.9,2.8-8.7c1.5-2.7,2.9-4.3,5.1-6.3L55.1,35.7z M44,35.6l1.4,0
			c0,0,0.3,0.3,0.4,0.4c0.6,0.7,0.6,0.5-0.7,1.3c-0.8,0.5-1.2,0.7-1.2,0.9c0,0.2,0.4,0.6,0.4,0.9c0,0-1.1,0.8-1.3,0.9
			c-0.3,0.1-0.3,0.3,0,0.7c0.3,0.6,0.3,0.5-0.4,1c-0.7,0.5-0.8,0.4-0.5,0.9c0.4,0.7,0.2,0.8-0.7,1.3c-0.2,0.1-0.2,0.3-0.1,0.7
			c0.2,0.6,0.3,0.6-0.2,0.9c-0.6,0.4-0.7,0.4-0.6,0.7c0.4,0.7,0.5,0.9,0,1.1c-0.4,0.2-0.4,0.3-0.2,0.7c0.2,0.5,0.3,0.5-0.1,0.7
			C39.9,49,39.7,49,40,49.4c0.3,0.3,0.2,0.6,0,0.8c-0.2,0.1-0.3,0.4-0.2,0.4l-0.5,0c-0.4-0.5,0.1-0.8,0.1-0.9c0.1-0.1,0-0.2-0.2-0.5
			c-0.2-0.4-0.2-0.4,0.1-0.6c0.3-0.2,0.3-0.2,0.1-0.7c-0.2-0.6-0.2-0.6,0.1-0.9c0.4-0.3,0.4-0.3,0.1-0.8c-0.3-0.5-0.3-0.5,0.4-1
			c0.5-0.3,0.5-0.3,0.2-0.8c-0.2-0.4,0-0.5,0.6-1c0.4-0.2,0.4-0.3,0.2-0.6c-0.5-0.8-0.5-0.8,0.3-1.3c0.6-0.4,0.6-0.5,0.4-1
			c-0.3-0.6-0.3-0.6,0.6-1.1c0.7-0.4,0.8-0.4,0.5-0.9c-0.4-0.7-0.4-0.6,1.1-1.4c0.5-0.4,1-0.2,0.5-0.9C44.3,35.9,44,35.6,44,35.6z
			 M18.2,36.7c0.1,0,0.2,0.1,0.2,0.4c0,0.3-0.2,0.7-0.3,1c-0.3,0.7-0.6,1.2-0.8,1.2c-0.4,0-0.4-0.1,0.1-1.1c0.2-0.5,0.5-1,0.5-1.1
			C18,36.8,18.1,36.7,18.2,36.7z M22.9,38.2c0,1.4-4.4,2.1-4.6,1.4c0.8-0.6,3-0.3,3.5-0.9c-0.6,0-1.4,0.1-1.9,0.1
			c-0.7,0-1.7,0.3-1.8,0.4c-0.1-0.4,1.1-1.1,2.1-1.1C21.1,38.1,22.1,38.2,22.9,38.2z M23.2,40.4c0,0-8.5,7.1-12.8,10.5l0,1.5
			L24,41.3L23.2,40.4z M23.2,40.7l0.5,0.7L11.1,51.7l0-1.1L23.2,40.7z M63.3,44.3l-0.5,0.5c-12.4-9.3-23.8,4.8-17.5,14.9
			c-0.1,0.1-0.5,0.5-0.5,0.5C37.8,48.5,51.3,34.8,63.3,44.3z M56.5,42.3c0.7,0,2,0.5,2.5,1.2c0.6,0.8,0.5,1.1-0.4,0.4
			c-0.9-0.6-1.6-0.8-0.4,0c0.3,0.2,0.5,0.5,0.5,0.5c0,0.1-0.2,0-1.2-0.4c-0.6-0.2-1.4-0.8-1.6-1.2C55.9,42.4,56.1,42.3,56.5,42.3z
			 M53.9,42.3c0.2,0,0.4,0,0.6,0.1c0.9,0.3,1.2,0.4,1.5,0.6c0.2,0.2,0.2,0.3-0.1,0.2c-0.3-0.1-1.3-0.4-1.4-0.4c-0.3,0,0,0.2,0.4,0.3
			c0.8,0.2,1.2,0.4,0.6,0.4c-0.3,0-1.6,0-2,0c-0.6-0.1-1.5-0.6-1.3-0.8C52.4,42.5,53.2,42.3,53.9,42.3z M51.4,43.2
			c1.1,0,1.6,0.4,0.5,0.5c-2,0.3-2.4,0.7-0.2,0.2c0.5-0.1,0.5,0.1,0.1,0.2c-0.3,0.1-0.6,0.2-0.9,0.4c-0.5,0.2-1.8,0.3-2.3,0.1
			C47.9,44.3,50.1,43.2,51.4,43.2z M59.8,43.4c0.5,0,1.7,0.8,2.2,1.5c0.3,0.5,0.2,0.8-0.3,0.4c-0.1-0.1-0.8-0.7-0.9-0.7
			c-0.1,0,0.6,0.6,0.7,0.8c0.1,0.2,0.3,0.5-0.1,0.5c-0.6-0.1-1.9-1.5-1.9-2.3C59.5,43.4,59.6,43.4,59.8,43.4z M53.2,43.8
			c0.2,0,0.1,0.1-0.3,0.4c-0.8,0.5-0.4,0.4,0.5,0c0.3-0.1,0.6-0.2,0.7-0.3c0.1,0,0.2-0.1,0.3-0.1c0.2-0.1,0.1,0.2-0.3,0.5
			c-0.8,0.7-1.7,1.2-2.4,1.3c-0.8,0.2-1,0.2-0.7-0.3c0.5-0.8,1.2-1.5,1.8-1.6C53,43.8,53.1,43.8,53.2,43.8z M55.9,43.8
			c0.3,0,0.8,0.1,1.4,0.2c0.5,0.1,0.3,0.2-0.2,0.2c-1,0.1-0.6,0.2,0.4,0.2c1.4,0-0.7,0.5-1.4,0.6c-0.5,0-0.7,0-1.8-0.2
			c-0.4-0.1-0.2-0.4,0.7-0.8C55.3,43.9,55.6,43.8,55.9,43.8z M64.5,44l0,0.9l-16.7,14l-0.6-0.6L64.5,44z M58.8,44.7
			c0.7,0,1.6,0.5,1.5,0.7c0,0.1-0.1,0.1-0.6,0c-0.3-0.1-0.9-0.2-0.9-0.1c0,0,0.5,0.2,0.7,0.2c0.6,0.1,1.3,0.5,1.1,0.6
			c-0.3,0.2-0.5,0-0.8,0c-0.8-0.1-2.1-0.5-2.4-0.7C57.2,45.2,58.1,44.7,58.8,44.7z M51,44.8c0.1,0,0.2,0.1,0.1,0.3
			c-0.2,0.2-0.3,0.4-0.4,0.7c-0.6,0.9-0.9,1.2-1.4,1.5c-0.5,0.3-0.6,0.3-0.6-0.4c0.1-0.7,0.6-1.5,1.3-1.8c0.3,0,0.5-0.1,0.2,0.3
			c-0.6,0.8-0.2,0.7,0.4-0.2C50.7,44.9,50.9,44.8,51,44.8z M48.8,44.9c0.4,0,0.5,0.1,0,0.3c-0.4,0.2-1.3,0.8-1.3,0.9
			c0,0.1,0.3-0.1,0.8-0.4c0.7-0.4,0.8-0.4,0.4,0.1c-0.4,0.5-1.4,1.2-2.1,1.4c-1.1,0.3-1,0.1-0.4-0.7c0.6-0.9,1-1.3,1.8-1.5
			C48.3,44.9,48.6,44.9,48.8,44.9z M30.9,45c3.8,6.6,1.7,13.4-2.7,16.8c-4.6,3.6-11.9,3.4-16.1-0.9l0.6-0.6c0,0,6.7,6.9,15.2,0.8
			c4.3-3.1,6.1-10.4,2.5-15.5L30.9,45z M13.7,45L13.7,45c-0.2,0.1-0.6,1.5-0.7,2.1c0,0.2,0,0.3,0.2,0.5c0.1,0.1,0.3,0,0.3,0
			c0.3-0.1,0.5-0.4,0.8-1.1c0.2-0.4,0.2-0.9,0.2-1c0-0.1-0.1-0.2-0.3-0.3C14,45.1,13.8,45,13.7,45z M13.8,45.3
			c0.2,0,0.5,0.2,0.5,0.4c0,0.3-0.2,0.8-0.3,0.8c-0.2-0.3-0.5-0.1-0.5-0.2C13.5,46,13.6,45.6,13.8,45.3L13.8,45.3z M55.2,45.6
			c1.7,0,3.4,0.5,4.6,1.6l-0.7,0.6c-2.9-2.1-6.3-1.5-8.3-0.1c-2,1.4-3.8,4.5-2,8.8l-0.6,0.6c-1.9-3.5-0.9-8.1,2.5-10.3
			c1.2-0.8,2.8-1.2,4.3-1.2L55.2,45.6z M30,46.1c0.1,0,0.1,0.2,0.1,0.4c0,0.3-0.1,0.6-0.3,0.6c-0.2,0.1-0.3-0.5-0.3-0.5
			C29.6,46.4,29.8,46.3,30,46.1z M60.5,46.3l0.2,0c0.2,0,0.2,0.2,0,0.4c-0.2,0.2-0.3,0.2-0.5,0c-0.2-0.1-0.2-0.2,0-0.3
			C60.3,46.3,60.4,46.3,60.5,46.3z M27.8,46.3l0.6,0.7l-2,1.6l-0.2,0l-15,12.5l0-1.1L27.8,46.3z M59.1,48l-2,1.7
			c-4.1-2.1-7.4,1.7-6.2,5.1l-1.8,1.5C45.9,47.7,55.2,44.7,59.1,48z M48.4,46.7L48.4,46.7L48.4,46.7c0.1,0.1,0,1.3-0.1,1.5l-0.1,0.2
			c0,0.1-0.4,0.9-0.7,1.4c-0.1,0.2-0.2,0.5-0.3,0.6c-0.2,1.1-0.7-0.7-0.6-1.8c0.1-0.5,0.8-1.5,1-1.5c0.1,0,0.1,0.1-0.1,0.5
			c-0.5,1.1-0.6,1.7-0.1,0.6C48.2,47,48.3,46.7,48.4,46.7z M13.7,46.7l0.2,0.1l0,0.3c-0.1,0.2-0.3,0.4-0.5,0.4
			c-0.1,0-0.2-0.1-0.2-0.2c0-0.1,0-0.3,0.1-0.4C13.4,46.8,13.6,46.7,13.7,46.7z M29.3,46.8c0.2,0,0.5,0.7,0.3,1
			c-0.1,0.2-0.2,0.2-0.4-0.3C29.1,47.2,29,47,29,47L29.3,46.8L29.3,46.8L29.3,46.8z M28.9,47.1c0,0,0.3,0.5,0.3,0.8
			c0,0.2,0,0.2-0.2,0.1c-0.2-0.1-0.2-0.2-0.4-0.3c-0.1-0.1-0.2-0.2-0.2-0.2L28.9,47.1z M30.4,47.2c0.1,0,0.3,0.1,0.4,0.4
			c0.5,1.2,0.4,2.5-0.1,3.2c-0.1,0.1-0.1,0.1-0.2,0c-0.1-0.1-0.1-0.6,0-0.8c0-0.1,0.1-0.4,0.1-0.6c0-0.5-0.1-0.5-0.2-0.1
			c-0.1,0.5-0.1,0.8-0.3,0.5c-0.1-0.2-0.1-0.3-0.2-0.5C29.7,48.4,30,47.2,30.4,47.2z M28.3,47.5c0,0,0.5,0.6,0.6,0.8
			c0.1,0.1,0.1,0.1,0,0.2c-0.2,0.1-0.8-0.3-1-0.5c-0.1-0.1-0.1-0.2-0.1-0.2C28,47.7,28.2,47.6,28.3,47.5z M46.3,47.5
			c0.2,0,0.2,0.1,0,0.5c-1.5,2.1-1.2,1.8-0.2,0.6c0.5-0.6,0.6-0.7,0.7-0.6c0,0.1-0.6,1.3-0.9,1.8c-0.2,0.2-0.7,0.6-1,0.8
			c-0.7,0.4-0.6,0.2-0.4-0.7C44.8,48.6,45.7,47.5,46.3,47.5z M27.5,48.2c4,9.9-6.9,14.3-11.8,9.7l0.6-0.5c6.8,4.7,13.6-2.8,10.5-8.7
			C26.7,48.8,27,48.6,27.5,48.2z M28.4,48.5c0.7,0.1,1.6,1.3,1.7,1.9c0.1,0.5,0,0.6-0.3,0.2c-0.4-0.7-0.3-0.3,0,0.5
			c0.2,0.4,0.2,0.8,0,0.8c-0.3-0.1-0.8-0.9-1-1.3c-0.4-0.8-0.4-0.7-0.6-1.8C28.2,48.6,28.2,48.5,28.4,48.5z M26.4,48.8
			c3,5.8-3.5,12.9-10.1,8.3l2-1.6c3.5,1.7,7.3-0.4,6.2-5.2L26.4,48.8z M56.7,49.9l-5.5,4.6C50.1,50.6,54.2,48.5,56.7,49.9z
			 M46.5,49.9c0.2,0,0.3,1.1,0.4,2.7c0,1.6,0.1,1.7-0.4,1.2c-0.2-0.2-0.5-0.5-0.6-0.7c-0.3-0.6-0.2-1.3-0.1-2.2
			c0.1-0.8,0.4-0.7,0.3,0.2c0,0.6,0,1.3,0.1,1.3l0-0.1c0-0.2,0.2-2,0.2-2.2C46.5,49.9,46.5,49.9,46.5,49.9z M31.4,50.6
			c0.4,0.2,0.5,1.5,0.1,2.8c-0.2,0.6-0.5,0.9-0.9,1.1c-0.3,0.2-0.4,0.1-0.2-0.2c0.2-0.5,0.4-0.9,0.5-1.5c0-0.6-0.3-0.1-0.2,0.1
			c-0.2,1.1-0.5,1.2-0.5,0.1c0-0.8,0.1-1.2,0.5-1.7C30.9,51,31.1,50.6,31.4,50.6z M45.2,50.7c0.2,0,0.2,0.2,0.1,0.6
			c-0.1,0.3-0.4,1.3-0.4,1.3c0,0,0.4-0.9,0.5-1c0.1-0.2,0.2-0.3,0.3-0.3c0.1,0.4,0,1-0.1,1.4c-0.2,1.1-1,2.3-1.3,2
			c-0.5-0.6-0.3-2.9,0.4-3.6C44.8,50.8,45,50.7,45.2,50.7z M24.3,50.9c0.6,4.1-2.8,5.8-5.6,4.6L24.3,50.9z M38,50.9l0.6,0.8l1.1,0.1
			l-0.5,0.8l0.5,1l-1.2,0l-0.7,0.8l-0.6-0.7l-1-0.1l0.6-1l-0.5-0.9l1.1-0.1L38,50.9z M29,51.3c0.1,0,0.8,0.9,0.9,1.2
			c0.2,0.8,0.1,2.2-0.2,2.2c-0.3-1.1-0.2-1.6-0.3-1.5c-0.2,0.2,0.1,1.8,0,2.2c0,0.1-0.2,0-0.4-0.3C28.6,54.4,28.6,51.7,29,51.3
			L29,51.3z M64.6,52.9L51.5,63.9l0.8,1l12.4-10.3L64.6,52.9z M45.6,53.1c0.1,0,0.2,0.1,0.4,0.4c0.4,0.6,0.9,1.4,1.1,2
			c0.1,0.2,0.2,0.6,0.2,0.7c0.1,0.2,0.1,0.3,0,0.4c-0.2,0.3-1.2-0.4-1.5-1.1c-0.4-1-0.4-1.8,0-1c0.2,0.3,0.4,0.7,0.4,0.6
			c0-0.1-0.2-0.7-0.3-1C45.8,53.9,45.5,53.1,45.6,53.1z M64.5,53.4l0,0.9L52.3,64.6L51.8,64C51.8,64,63.3,54.4,64.5,53.4z
			 M45.3,53.9c0.1,0,0.1,0.1,0.1,0.3c-0.1,0.6-0.2,1.9-0.2,2c0,0.1,0.2-0.9,0.2-1c0.2-0.9,0.5,1.2,0.3,2.1c0,0.1-0.1,0.4-0.1,0.5
			c0,0.1-0.1,0.4-0.2,0.5c-0.3,0.5-1.2-1.6-1-2.7C44.6,54.9,45.1,53.9,45.3,53.9z M31.2,54.4c0.2,0,0.2,0.1,0.2,0.5
			c-0.1,1.1-0.8,2.3-1.7,2.7c-0.8,0.3-0.9,0.3-0.4-0.3c0.4-0.4,0.6-0.9,0.5-1c0,0-0.1,0.2-0.4,0.5c-0.4,0.5-0.4,0.1-0.1-0.6
			c0.3-0.6,0.6-0.9,1.1-1.3C30.8,54.6,31,54.4,31.2,54.4z M38.6,54.8c-0.2,4.9-1.4,10.2-3.7,14.9l-2.2,0c2.7-4,4.4-8.9,4.9-14.8
			L38.6,54.8z M39.6,54.8c0,0,0.3,0.3,0.5,0.6c0.1,0.3,0.2,0.5-0.1,0.7c-0.3,0.3-0.4,0.2,0.1,0.8c0.3,0.3,0.2,0.4-0.2,0.7
			c-0.3,0.3-0.4,0.3,0,0.7c0.3,0.4,0.4,0.5,0,0.8c-0.4,0.3-0.4,0.4-0.1,0.9c0.3,0.5,0.4,0.4-0.2,0.9c-0.5,0.4-0.5,0.3,0,1
			c0.2,0.3,0.2,0.3-0.2,0.6c-0.8,0.7-0.7,0.6-0.6,0.8c0.8,1.2,0.5,1.2-0.4,1.7c-0.2,0.1-0.1,0.3,0.2,0.9c0.3,0.5,0.3,0.6-0.5,1.1
			c-0.8,0.5-0.8,0.6-0.4,1.1c0.4,0.5,0.4,0.5-0.2,1c-0.3,0.2-0.5,0.5-0.5,0.5h-1.3c0,0,0.3-0.3,0.5-0.4c1.1-0.8,1.1-0.7,0.6-1.3
			c-0.4-0.5-0.4-0.6,0-0.9c0.3-0.2,0.7-0.4,1-0.7c0.2-0.1,0-0.2-0.2-0.7c-0.3-0.6-0.3-0.5,0.2-1c0.6-0.5,0.6-0.5,0.3-1.1
			c-0.3-0.7-0.3-0.6,0.1-0.9c0.6-0.5,0.7-0.5,0.3-1.1c-0.3-0.5-0.3-0.5,0.2-0.9c0.5-0.5,0.4-0.4,0.1-0.8c-0.3-0.4-0.3-0.5,0.1-0.8
			c0.4-0.3,0.3-0.3,0-0.8c-0.3-0.4-0.3-0.4,0.1-0.7c0.2-0.2,0.4-0.4,0.4-0.4c0-0.2-0.2-0.5-0.4-0.8c-0.1-0.1,0.1-0.1,0.3-0.4
			c0.2-0.3,0.2-0.2,0-0.5c-0.1-0.2-0.3-0.5-0.3-0.5L39.6,54.8z M36,54.8l0.4,0c0,0,0.1,0.1,0.2,0.2c0.2,0.3,0.3,0.4,0,0.5
			c-0.2,0.1-0.1,0.3,0.1,0.6c0.2,0.3,0.2,0.3-0.1,0.6c-0.3,0.3-0.5,0.3-0.1,0.8c0.2,0.2,0.2,0.5-0.1,0.7C36,58.3,35.6,58.4,36,59
			c0.2,0.4,0.2,0.4-0.2,0.7c-0.6,0.4-0.7,0.3-0.4,0.9c0.3,0.6,0.3,0.6-0.3,1.1c-0.7,0.5-0.7,0.5-0.4,1.1c0.3,0.6,0.3,0.4-0.4,1
			c-0.5,0.4-0.6,0.4-0.5,0.8c0.3,0.6,0.4,0.8-0.4,1.2c-1,0.5-1,0.5-0.6,1.3c0.4,0.6,0.3,0.5-0.3,0.9c-0.9,0.5-1.3,0.8-1.3,0.9
			c0,0.2,0.7,0.7,0.7,0.7l-1.3,0c0,0-0.5-0.4-0.7-0.6c-0.6-0.6-0.6-0.4,1.3-1.3c1-0.5,1-0.4,0.8-0.7c-0.5-0.9-0.5-1,0.4-1.5
			c0.8-0.4,0.7-0.4,0.5-1.1c-0.2-0.5-0.1-0.5,0.3-0.8c1.1-0.8,1-0.7,0.9-1.1c-0.2-0.4-0.3-0.6-0.2-0.7c0.4-0.5,1.2-0.7,0.9-1.3
			c-0.2-0.4-0.2-0.5,0.3-0.9c0.4-0.3,0.4-0.3,0.2-0.8c-0.3-0.4-0.3-0.5,0.2-0.8c0.3-0.3,0.3-0.3,0.1-0.6c-0.3-0.4-0.3-0.4,0.1-0.8
			c0.3-0.3,0.4-0.3,0.2-0.6c-0.3-0.4-0.2-0.5,0.1-0.7c0.2-0.1,0.2-0.2,0.2-0.4L36,54.8L36,54.8z M40.7,54.8l1.8,0
			c0.6,3.3,1.5,4.6,2.1,5.7c-2.2,3.6-1.7,6.6-0.4,9.2l-5.6,0C40.1,64.7,40.8,59.8,40.7,54.8z M28.7,54.8c0.1,0,0.1,0.1,0.2,0.3
			c0.4,0.6,0.1,1.5-0.4,2.4c-0.4,0.7-0.5,0.2-0.3-0.8c0.1-0.6-0.2,0.3-0.3,1c-0.1,0.4-0.3,0.7-0.5,0.7c-0.2,0-0.1-0.6-0.1-0.7
			c0-0.9,0.4-1.5,1-2.4C28.5,55,28.6,54.8,28.7,54.8z M46.6,56.5c0.1,0,0.2,0,0.3,0.1c0.1,0.1,0.3,0.2,0.5,0.3
			c0.5,0.3,0.5,0.4,0.3,0.6c-0.3,0.3-0.5,0.2-1-0.4C46.4,56.8,46.4,56.6,46.6,56.5z M46.5,57.3c0.1,0,0.2,0.1,0.4,0.3
			c0.3,0.4,0.3,0.7-0.1,0.6C46.6,57.9,46.6,57.6,46.5,57.3L46.5,57.3z M62.2,57.3c-0.3,0-0.8,0.4-0.9,0.8c-0.3,1.3-0.3,1.2,0,1.4
			l0.2,0.1c0.2,0.1,0.4,0.3,0.4,0.3c0.3,0,0.7-1.6,0.6-2c0-0.4,0-0.4-0.1-0.6L62.2,57.3z M46.2,57.4L46.2,57.4
			c0.3,0.2,0.4,0.6,0.5,0.9l-0.1,0.2c-0.2,0.3-0.5,0-0.5-0.6C46.1,57.5,46.2,57.4,46.2,57.4L46.2,57.4z M62.1,57.6L62.1,57.6
			c0.2,0,0.2,0.2-0.1,0.5c-0.2,0.2-0.5,0.2-0.6,0.1c-0.2-0.1,0.2-0.6,0.5-0.7L62.1,57.6z M26.8,57.8L26.8,57.8
			c0.1,0,0.2,0.1,0.3,0.1c0.1,0.2,0.1,0.4,0,0.7c-0.2,0.6-1.3,1.7-1.7,1.7c-0.2,0,0.7-1.3,0.8-1.5c-0.1-0.1-0.7,0.6-1,1.1
			c-0.1,0.2-0.3,0.5-0.4,0.5c-0.2,0-0.4,0.2-0.4,0c0-0.6,1.2-2,1.7-2.4C26.4,57.9,26.6,57.8,26.8,57.8L26.8,57.8z M29.7,57.8
			c0.9,0-0.9,2-2.1,2.3c-0.4,0.1-1.1,0.1-1.1,0c0-0.1,0-0.1,0.2-0.2c0.2-0.1,1.5-0.8,1.5-0.9c0-0.1-0.5,0.1-0.9,0.4
			c-0.3,0.2-0.4,0.1-0.3-0.1C27.6,58.4,28.6,57.9,29.7,57.8L29.7,57.8z M45.9,57.8c0.1,0,0.1,0.1,0.1,0.3c0.2,0.4,0.2,0.6,0,0.7
			c-0.3,0.2-0.3,0.2-0.3-0.4C45.8,58.1,45.9,57.8,45.9,57.8L45.9,57.8z M15.1,58.4c0,0,0.3,0.1,0.2,0.3c-0.1,0.1-0.5,0-0.5,0
			L15.1,58.4z M62.1,58.4c0.1,0,0.1,0.1,0.1,0.4c0,0.1-0.2,0.9-0.4,1.1c0,0-0.4-0.2-0.5-0.3l-0.2-0.2c-0.1-0.2,0-0.5,0.2-0.6
			l0.3-0.1c0.1,0,0.2-0.1,0.4-0.1C62,58.5,62.1,58.5,62.1,58.4z M15.2,58.9c0.2,0,0.5,0,0.7,0.1c0.7,0.2,2,0.8,2.2,1
			c0.3,0.3-0.5,0.6-1.3,0.6c-0.5,0-0.6-0.1-1.2-0.5c-0.1-0.1-0.5-0.3-0.4-0.4c0.1-0.1,0.5,0,0.9,0.3c0.1,0.1,0.5,0.1,0.5,0
			c0-0.1-0.9-0.4-1.6-0.6c-0.4-0.1-0.4-0.3-0.2-0.3C14.9,59,15,58.9,15.2,58.9L15.2,58.9z M14.3,59.3c0,0,0.2,0.2,0.4,0.4
			c0.3,0.2,0.6,0.4,0.8,0.8c0.3,0.4,0.8,1.3,0.7,1.5c-0.1,0.4-1.4-0.3-2.5-1.4c-0.3-0.3-0.6-0.6-0.6-0.6l0.4-0.4
			c0,0,0.4,0.3,0.8,0.7c0.8,0.7,0.8,0.5,0-0.3c-0.2-0.2-0.4-0.4-0.4-0.4C14,59.4,14.1,59.3,14.3,59.3z M46.2,59.3
			c0,0,0.4,0.4,0.6,0.6c-2.5,2.5-3.5,6-1.1,9.7l-1.2,0C42.3,65.3,43.4,62,46.2,59.3L46.2,59.3z M24.7,59.4c0.2,0,0,0.2-0.3,0.7
			c-0.5,0.9-0.6,1.1-1.5,1.3c-0.2,0.1-0.5,0-0.7,0c-0.4,0-0.2,0,0.4-0.4c0.8-0.5,0.1-0.2-0.6,0.1c-0.4,0.2-0.9,0.2-0.9,0.1
			c0-0.1,0.2-0.2,0.3-0.3c1.1-1,1.4-0.9,2.4-1.3C24.3,59.5,24.6,59.4,24.7,59.4z M20.1,60.3c0.4,0,0.8,0,1.1,0.1
			c0.2,0,0.6,0.1,0.3,0.4c-0.3,0.3-1.3,0.8-1.9,0.8c-0.1,0-1.5-0.1-1.2-0.4c0.1,0,0.2,0,0.4-0.1c0.8-0.1,0.6-0.3-0.4-0.2
			c-1.2,0.1-1.2-0.1-0.3-0.3c0.7-0.2,1.3-0.3,1.9-0.3L20.1,60.3L20.1,60.3z M26.5,60.4c0.5,0,0.9,0.1,0.9,0.3c0,0.3-1,1-1.7,1.2
			c-0.2,0-0.4,0.1-0.5,0.1c-0.2,0.1-1.5,0-1.6,0c-0.6-0.2-0.2-0.3,0.9-0.4c0.5-0.1,0.7-0.2,0.7-0.3c0,0-0.4-0.1-0.9,0
			c-0.6,0.1-0.5-0.1,0.3-0.5C25.1,60.5,25.9,60.4,26.5,60.4z M16.7,60.8c0.1,0,0.3,0.1,0.5,0.2c0.6,0.2,1.5,0.4,2.1,1
			c0.5,0.5,0.6,0.6,0.5,0.8c-0.1,0.2-1.6,0-2.2-0.2c-0.4-0.2-0.9-0.6-1.1-0.9c-0.5-0.8-0.3-1,0.4-0.5c0.8,0.7,1,0.7,1.1,0.7
			c0.1,0-0.1-0.2-0.4-0.4C16.9,61.1,16.5,60.8,16.7,60.8L16.7,60.8z M21.9,61.7c0.7,0,0.9,0.1,1.5,0.4c0.9,0.3,0.6,0.6-0.9,0.9
			c-0.8,0.2-1.5,0.1-2.1-0.3c-1.2-0.8-1.1-0.9,0.2-0.6c0.4,0.1,0.9,0.1,0.9,0c0-0.1-0.5-0.2-1-0.3c-0.5-0.2-0.1-0.1,0.9-0.2
			C21.6,61.7,21.8,61.7,21.9,61.7L21.9,61.7z M57,64.9l-0.2,0.1c-0.1,0-0.5,0.1-0.9,0.1c-0.9,0.1-1.5,0.2-2.1,0.4
			C52.9,66,52.3,67,52.3,67c0.6,0,4.1,0.6,5.1-0.7c0.2-0.3-0.5,2-0.9,2.1c-0.9-0.1-1.3,1.4-1.2,1.3c-0.9,0.4-1.7,0.6-1.4,1.7
			c0.1,0.5,0.6,1,1.6,0.9c-0.3,1.9,2,2.4,2.3,0.1c0,0,0.5-0.1,0.6-0.1c1.1-0.3,1.3-1.8-0.2-2.3c-0.4-0.1-0.5-0.2-0.5-0.2
			c0.1-0.3,0.1-0.7-0.2-1.1c0.3-0.8,1.2-2.4,1.2-2.4L57,64.9z M57.1,65.4c0.2,0.3-0.9,0.8-2.1,0.9c-0.3,0-0.8,0.1-0.9,0.1
			c-0.1,0.2,2.3,0.1,3-0.4c0.3-0.1,0.3,0,0.2,0.2c-0.9,1.1-3,0.8-4.6,0.6c-0.1-0.1,0-0.2,0.4-0.5c0.7-0.5,1.2-0.7,2.2-0.8
			C55.7,65.5,57,65.3,57.1,65.4z M58.4,66.6c-0.2,0.5-0.9,2-0.9,2c-0.1,0.1-0.4,0.2-0.4-0.2c0-0.4,0.8-2.1,1-2.1
			C58.3,66.2,58.4,66.4,58.4,66.6z M58.9,66.7c0.2,1.7,1.5,2.1,2.7,2.6c0.3,0.1,0.6,0.4,0.9,0.6c0.6-0.8-0.1-2.4-1.1-3
			c-0.8-0.4-1.5-0.7-2-0.6C59.2,66.3,58.9,66.5,58.9,66.7L58.9,66.7z M59.6,66.6c0.1,0,0.3,0,1.1,0.2c1.1,0.3,1.8,1.1,2,2.1
			c0,0,0.1,0.9-0.1,0.8c-0.3-0.1-0.4-0.4-0.9-0.6c-0.6-0.2-1.4-0.5-1.8-1c-0.4-0.4-0.6-0.7-0.7-1.1c0-0.3,0.1-0.4,0.4-0.1
			c0.6,0.5,1.3,0.7,1.9,1.2c0.2,0.1,0.8,0.5,0.4,0.1c-0.3-0.3-1.2-0.8-1.6-1C59.6,67,59.2,66.6,59.6,66.6L59.6,66.6z M10.8,68.3
			l7.3,11.4c-1.8,0.9-2.7,1.4-5.6,1.1l0,0.2l-1.3-0.1c2.2,3.4,4.9,7.9,4.1,15.6l8.8,0l0.2,0.1c0.1,0.1,0.3-0.2,0.3-0.2l4,0l0.1,0.1
			l1.9,0c0,0-8.5-16-12.8-23.9C16.1,69.5,14.2,68.1,10.8,68.3L10.8,68.3z M56.6,68.7c0.5,0,1,0.3,1,1c0,0.3-0.3,0.8-0.3,0.8
			l-0.6-0.6L56,70.4c-0.3-0.3-0.5-0.7-0.4-1C55.8,68.9,56.2,68.7,56.6,68.7L56.6,68.7z M49.1,68.9c0.6,2.4,1.3,5.7-4,13.4
			c-3.2,4.5-4.2,8.8-4.3,14l-0.3,0c0.2-2.9,0.2-8.1,0.2-8.1l0.3-0.3c0,0-0.1-0.2-0.2-0.5c-0.1-0.4,0-0.3,0.2-1.5
			C42,80.4,49.1,68.9,49.1,68.9L49.1,68.9z M20.6,70l27,0.1l-0.4,0.7l-26.1-0.2L20.6,70z M56.6,70.2l1,1l-1,1.1l-1-1.1L56.6,70.2z
			 M55.8,70.6l-0.5,0.6l0.5,0.5c-0.5,1-1.8,0.2-1.7-0.5C54,70.3,55.1,69.9,55.8,70.6z M57.5,71.8l0.4-0.6l-0.5-0.5
			c0.8-0.8,1.6-0.1,1.6,0.6C59.2,72,58.1,72.8,57.5,71.8z M25.6,71.1l2.2,0L27,72.7l-2.2,0L25.6,71.1z M30.5,71.1h2l-0.9,1.6h-2.1
			L30.5,71.1z M35.3,71.1h2.2l-0.9,1.6h-2.2L35.3,71.1z M40.1,71.1h2.2l-0.8,1.6h-2.3L40.1,71.1z M45,71.1h2.1l-0.9,1.6h-2.2
			L45,71.1z M21.6,71.1H23l-0.6,1L21.6,71.1z M57.2,72.1c0.8,0.7,0.2,1.7-0.6,1.8c-0.6,0-1.4-1-0.5-1.8l0.6,0.6L57.2,72.1z
			 M27.1,72.9h2.1l-0.8,1.4h-2L27.1,72.9z M31.7,72.9H34l-0.8,1.4H31L31.7,72.9z M36.6,72.9h2.3l-0.7,1.4h-2.3L36.6,72.9z
			 M41.5,72.9h2.2L43,74.4h-2.4L41.5,72.9z M22.9,73h1.4l-0.6,1.1L22.9,73z M24,74.6l21,0.2l-0.4,0.7l-20.1,0L24,74.6z M24.8,75.9
			l19.7,0L44,76.9l-6.8,0c-1.3-1-2.8-0.5-4.6,0c0,0-5.2,0.1-7.3,0L24.8,75.9z M18.2,79.9l10.4,16.5l-2.3,0l-9.9-15.5L18.2,79.9z
			 M16.1,80.9l9.8,15.4c-0.5,0-0.9,0-1.3,0c0.2-2.9-2.1-4.2-3.5-4.3c0.8-3.4-1.6-4.8-3.3-5c0.7-4.4-2.9-5-3-4.9c0-0.4,0-0.6-0.1-0.9
			L16.1,80.9L16.1,80.9z M14.5,81.2c0,0.1,0.2,1-0.2,0.8l0-0.8L14.5,81.2z M12.5,81.2c0.1,0.6,0.4,0.7,0.8,1.1c0,0-0.5,0.1-0.6,0
			c-0.2-0.1-0.7-1.1-0.7-1.1L12.5,81.2z M14,82.2c0.2,0,0.4,0.2,0.4,0.5c0,0.2-0.2,0.5-0.4,0.5c-0.2,0-0.5-0.2-0.5-0.5
			C13.5,82.4,13.7,82.2,14,82.2z M14.9,82.5c1.3-0.1,3.2,1.3,2.7,3.9c-0.1-0.2-0.2-0.6-0.4-0.9c-0.9-1.2-1.9,0.4-1.2,1.1
			c0.3,0.3,0.5,0.5,0.5,0.5c-0.8-0.2-1.4,0.6-1.1,1.3c0.6,1,1.3,0.5,1.8-0.1c0,0,0.3,0.9,0.5,1c0.4,0.2,1,0,1.2-0.6
			c0.3-0.8-0.4-0.9-0.6-1.4c1.5,0,3.4,2.2,2.5,4.1c0.1-0.4-0.3-1.4-1.2-1.2c-0.4,0.2-0.6,0.8-0.2,1.5c0.1,0.2,0.2,0.3,0.2,0.3
			s-0.4,0.1-0.5,0.1c-1.2,0.7,0.3,2.7,1.2,1.5c0.1-0.1,0.2-0.3,0.2-0.3c0.1,0.3,0.2,0.7,0.4,0.8c1.1,0.5,1.6-0.6,1.1-1.2
			c-0.3-0.3-0.5-0.7-0.5-0.7c0-0.2,3.2,0.7,2.8,3.8l-8.7,0c0.8-4.9-1.1-10.5-2.1-12.2l0.4-0.6c0.1,0.2,0.3,0.7,0.6,0.8
			c1,0.3,1.3-0.4,1.2-1.1C15.6,82.9,15.1,82.6,14.9,82.5L14.9,82.5z M17.2,87.2c0.2,0,0.4,0.2,0.4,0.4c0,0.2-0.2,0.4-0.4,0.4
			s-0.4-0.2-0.4-0.4C16.7,87.3,16.9,87.2,17.2,87.2z M20.4,92.3c0.2,0,0.4,0.2,0.4,0.4s-0.2,0.4-0.4,0.4c-0.2,0-0.4-0.2-0.4-0.4
			S20.2,92.3,20.4,92.3z"/>
		<path class="st3" d="M55.1,94c3.3-0.1,4.8-3.8,2.3-6.6c-0.4-0.4-0.4-0.7,0.3-0.3c1.6,1.1,4.8,0.4,4.9-3c0.2-4.1-5.6-5.3-6.6-0.9
			c-0.1,0.5-0.4,0.5-0.3-0.2c0.1-1.8,0.7-3.4,1.4-5.1c-1.3,0-2.7,0-3.9,0c0.8,1.6,1.3,3.3,1.4,5.1c0.1,0.7-0.3,0.7-0.3,0.2
			c-1.1-4.4-6.8-3.2-6.6,0.9c0.2,3.3,3.3,4.1,4.9,3c0.6-0.4,0.6-0.2,0.3,0.3C50.3,90.3,51.8,94,55.1,94L55.1,94L55.1,94z"/>
		<path class="st3" d="M20.4,11.5c3.3,0.1,4.8,3.8,2.3,6.6c-0.4,0.4-0.4,0.7,0.3,0.3c1.6-1.1,4.8-0.4,4.9,3c0.2,4.1-5.6,5.3-6.6,0.9
			c-0.1-0.5-0.4-0.5-0.3,0.2c0.1,1.8,0.7,3.4,1.4,5.1c-1.3,0-2.7,0-3.9,0c0.8-1.6,1.3-3.3,1.4-5.1c0.1-0.7-0.3-0.7-0.3-0.2
			c-1.1,4.4-6.8,3.2-6.6-0.9c0.2-3.3,3.3-4.1,4.9-3c0.6,0.4,0.6,0.2,0.3-0.3C15.7,15.3,17.2,11.6,20.4,11.5L20.4,11.5L20.4,11.5z"/>
	</g>
</g>
</svg>
